<svg width="407" height="328" viewBox="0 0 407 328" fill="none" xmlns="http://www.w3.org/2000/svg">
<path d="M394.444 167.046C396.215 166.884 397.474 165.734 397.583 163.907C399.252 136.011 400.274 108.078 400.629 80.1354C400.72 73.0016 400.766 65.8657 400.771 58.732C400.773 55.4621 400.766 52.1923 400.751 48.9202C400.735 45.6947 401.054 42.21 400.476 39.02C399.157 31.7488 390.972 32.8106 385.35 32.8239C378.653 32.8394 371.956 33.1853 365.295 33.857C361.544 34.236 357.786 34.6883 354.062 35.289C351.322 35.7302 348.469 36.4905 346.452 38.5233C345.946 39.0332 345.547 39.5875 345.224 40.1705C344.113 40.5562 343.195 41.4961 343.113 42.9925C341.417 74.1433 340.234 105.321 339.575 136.512C339.389 145.317 339.247 154.122 339.143 162.927C339.121 164.783 340.613 165.851 342.282 166.066C359.584 168.299 377.068 168.627 394.444 167.046ZM394.442 69.9957C394.322 87.0497 393.963 104.102 393.353 121.147C393.318 122.146 393.273 123.146 393.236 124.144C393.198 122.35 393.125 120.559 393.025 118.766L394.442 69.9957ZM386.166 90.3927C386.066 89.2998 385.967 88.2091 385.858 87.1162C386.1 86.9078 386.301 86.6507 386.452 86.3359C386.355 87.6882 386.259 89.0404 386.166 90.3927ZM382.437 39.1308C383.408 39.1153 384.379 39.102 385.35 39.0997C386 39.0975 386.649 39.1108 387.301 39.1152C387.075 39.4367 386.911 39.8313 386.845 40.3124C386.574 42.2166 386.301 44.1231 386.031 46.0296C385.962 44.8835 385.898 43.7352 385.823 42.5891C385.679 40.3988 384.016 39.4145 382.433 39.5808C382.433 39.4322 382.435 39.2815 382.437 39.1308ZM382.01 135.408C382.019 135.94 382.03 136.472 382.036 137.004C382.01 137.398 381.981 137.793 381.954 138.185C381.917 138.174 381.879 138.165 381.839 138.156C381.908 137.241 381.963 136.325 382.01 135.408ZM376.035 39.3369C376.009 39.5519 375.982 39.7693 375.956 39.9843C375.49 39.6562 374.931 39.4722 374.355 39.4257C374.916 39.3946 375.479 39.3635 376.035 39.3369ZM373.419 39.4788C372.949 39.5675 372.499 39.7515 372.111 40.0308C372.109 39.869 372.094 39.716 372.072 39.5675C372.522 39.5364 372.972 39.5054 373.419 39.4788ZM372.058 95.5978C372.123 96.899 372.187 98.2003 372.251 99.4994C372.107 99.5526 371.97 99.6147 371.837 99.6879C371.91 98.3245 371.985 96.9611 372.058 95.5978ZM354.355 42.2831C354.352 42.2942 354.35 42.3053 354.348 42.3164C354.301 42.292 354.255 42.2676 354.206 42.2454C354.222 41.9882 354.208 41.7444 354.175 41.5139C354.344 41.4829 354.514 41.4541 354.683 41.4297C354.537 41.6757 354.423 41.9616 354.355 42.2831ZM363.089 161.542C363.129 161.369 363.149 161.189 363.153 161.001C363.53 161.098 363.925 161.143 364.317 161.116C365.131 161.4 366.068 161.36 366.864 160.994C367.099 161.267 367.374 161.5 367.673 161.688C366.146 161.657 364.616 161.604 363.089 161.542ZM371.619 161.293C371.661 161.451 371.715 161.602 371.777 161.746C371.566 161.746 371.358 161.741 371.147 161.741C371.318 161.617 371.475 161.466 371.619 161.293Z" fill="#48AE4C"/>
<path d="M85.356 128.054C82.8642 128.128 80.4765 129.389 78.2708 130.427C76.7367 131.149 74.8503 131.757 73.4448 132.816C72.68 130.639 71.2235 128.786 68.9114 127.873C63.1587 125.6 58.8226 131.054 56.424 135.516C55.4264 135.587 54.4997 135.762 53.5531 136.077C53.4135 133.778 52.7331 131.464 50.9707 129.901C50.1615 129.183 49.2128 128.688 48.1509 128.467C47.3063 128.292 45.832 128.846 45.1647 128.611C44.728 128.458 44.3666 128.547 44.1028 128.762C41.2564 129.121 38.7714 131.103 37.7206 133.969C35.3685 131.601 31.3894 130.054 28.2127 129.981C24.4463 129.892 23.5308 132.947 23.9897 136.139C24.218 137.722 26.6166 137.046 26.3927 135.476C26.0979 133.41 26.9492 132.215 29.2724 132.634C30.2412 132.81 31.2009 133.091 32.132 133.401C33.8921 133.987 35.5616 134.831 37.335 135.366C37.3217 135.436 37.2972 135.501 37.2861 135.572C36.5124 140.486 40.0063 145.869 45.0673 146.576C50.5783 147.347 53.4268 142.317 53.5798 137.496C54.5618 137.316 55.5506 137.27 56.5415 137.365C55.36 147.21 71.4586 150.633 73.804 139.841C74.1631 138.192 74.2229 136.37 73.9192 134.636C79.1553 133.745 86.595 126.498 88.4106 134.448C88.6433 135.463 90.2041 135.445 90.4479 134.448C91.2504 131.156 88.6989 127.957 85.356 128.054ZM44.7413 143.976C41.3872 143.138 39.0396 139.092 39.7069 135.765C40.2566 133.027 42.1079 131.728 44.318 130.961C44.3757 130.99 44.4289 131.021 44.4932 131.043C45.1737 131.284 45.4396 131.069 46.1069 131.049C49.0929 130.959 50.6027 132.745 50.9529 135.59C51.4229 139.429 49.9442 145.279 44.7413 143.976ZM71.5783 137.106C71.4741 140.491 70.2282 143.683 66.464 144.195C62.2919 144.763 57.661 141.488 58.7229 136.769C58.7362 136.711 58.7383 136.653 58.7428 136.596C59.9642 134.286 61.3808 131.748 63.8237 130.593C68.4746 128.391 71.7069 132.914 71.5783 137.106Z" fill="#48AE4C"/>
<path d="M196.588 88.7545C193.562 88.4575 190.491 88.6437 187.45 88.6592C186.257 88.6658 184.45 89.0427 183.298 88.6725C180.999 87.9365 181.568 89.9871 181.575 86.8015C181.591 80.1621 182.096 73.5115 181.786 66.8766C181.73 65.6839 180.114 65.7438 179.975 66.8766C179.385 71.6827 179.256 76.5353 178.997 81.368C178.866 83.8087 177.616 88.1937 178.964 90.4216C179.89 91.9534 181.724 91.7317 183.295 91.7761C187.663 91.9024 192.249 92.113 196.585 91.5965C198.394 91.3814 198.432 88.9363 196.588 88.7545Z" fill="black"/>
<path d="M195.196 82.7313C196.076 80.0889 196.854 77.4088 197.625 74.7308C200.405 74.8993 203.3 75.059 206.085 74.742C206.621 75.5157 207.142 76.3004 207.634 77.1051C208.417 78.3864 209.073 80.918 210.78 81.2417C211.465 81.3725 212.445 81.0554 212.556 80.233C212.567 80.1509 212.578 80.0668 212.589 79.9848C212.706 79.1113 212.336 78.4972 211.571 78.2689C210.966 77.4332 210.011 75.3139 209.552 74.6023C209.41 74.3828 209.257 74.17 209.111 73.9528C209.856 73.106 209.055 71.4256 207.623 71.6406C207.583 71.6473 207.541 71.6539 207.501 71.6605C207.193 71.2438 206.889 70.8226 206.568 70.4147C205.03 68.4551 202.243 63.9837 199.412 64.0458C196.845 64.1012 196.679 67.2025 196.14 69.1422C194.947 73.4274 193.706 77.708 192.702 82.0419C192.32 83.6735 194.67 84.3097 195.196 82.7313ZM199.53 68.1003C199.678 66.4864 200.013 66.4688 200.536 68.0471C200.955 68.4705 201.367 68.9006 201.766 69.3417C202.62 70.2684 203.427 71.2349 204.207 72.2214C202.197 72.5761 200.206 72.8998 198.135 72.9751C198.532 71.583 198.743 69.2974 199.53 68.1003Z" fill="black"/>
<path d="M233.929 88.6901C238.607 89.1734 244.73 88.8741 248.893 86.5021C249.997 85.8725 249.569 83.9239 248.219 84.017C243.852 84.3185 239.64 85.3272 235.239 85.6043C234.523 79.7164 234.619 73.7908 234.581 67.8697C234.572 66.3778 232.462 66.4465 232.311 67.8697C231.626 74.3051 232.038 80.7427 232.42 87.1826C232.473 88.0605 233.074 88.6014 233.929 88.6901Z" fill="black"/>
<path d="M252.417 85.3806C253.031 86.4181 254.374 85.8528 254.503 84.8153C254.804 82.368 253.815 79.7565 253.345 77.3469C252.809 74.598 252.352 71.8336 251.756 69.0958C251.521 68.014 249.781 68.249 249.823 69.3574C249.925 72.0774 250.253 74.7775 250.634 77.4709C251.002 80.089 251.058 83.0795 252.417 85.3806Z" fill="black"/>
<path d="M260.305 85.7573C260.323 86.8103 261.905 86.8081 261.941 85.7573C262.065 81.9289 261.925 78.3863 261.349 74.8084C262.801 76.7481 264.149 78.7654 265.348 80.8913C266.88 83.607 268.093 86.1253 270.675 87.9852C271.44 88.535 272.874 88.0074 273.009 87.0342C273.976 80.0933 274.195 72.8443 272.983 65.9189C272.672 64.1454 269.72 64.5467 269.833 66.3445C270.192 72.0284 270.411 77.5373 270.121 83.1659C268.421 80.9823 267.252 78.0915 265.794 75.95C263.949 73.2433 261.879 70.7206 259.646 68.3286C258.709 67.3244 256.864 68.3618 257.305 69.6919C258.992 74.7751 260.214 80.3793 260.305 85.7573Z" fill="black"/>
<path d="M282.502 83.7245C285.557 84.4338 290.871 82.3656 290.293 78.6191C290.175 77.8588 289.184 77.6038 288.601 77.9319C286.779 78.9561 286.096 81.1087 283.589 80.9136C280.711 80.6919 278.851 77.4774 278.767 74.866C278.605 69.8227 284.376 67.0561 287.601 71.3147C288.226 72.1415 289.745 71.7159 289.401 70.5565C288.477 67.4352 284.848 66.0343 281.831 66.6882C278.051 67.5062 275.901 71.1528 275.956 74.866C276.014 78.7632 278.552 82.8067 282.502 83.7245Z" fill="black"/>
<path d="M291.444 74.1035C288.786 74.4937 286.108 74.7598 283.428 74.895C282.383 74.9482 282.368 76.5421 283.428 76.531C285.755 76.5066 288.079 76.6086 290.4 76.7726C290.346 79.7808 290.375 82.7935 290.433 85.8017C290.471 87.7525 293.532 87.7548 293.465 85.8017C293.348 82.3546 293.31 78.9075 293.224 75.4581C293.193 74.4583 292.346 73.9705 291.444 74.1035Z" fill="black"/>
<path d="M302.232 85.2363C309.814 86.1186 309.519 72.321 308.768 67.9982C308.411 65.9499 305.283 66.8167 305.644 68.8584C306.13 71.6029 306.185 74.3916 305.622 77.1316C305.198 79.2066 303.831 84.3319 300.672 80.7295C297.889 77.5572 298.093 71.665 298.526 67.8099C298.617 67.0052 297.466 66.9918 297.216 67.6325C295.783 71.288 295.775 75.2673 296.972 79.0004C297.783 81.5298 299.202 84.8816 302.232 85.2363Z" fill="black"/>
<path d="M316.861 82.9399C317.645 81.0468 318.353 79.1181 319.031 77.1762C320.835 77.2826 322.731 77.3424 324.56 77.2094C325.36 79.6191 326.005 82.1263 327.207 84.3431C327.798 85.436 329.771 84.9971 329.647 83.6825C329.04 77.2448 325.38 70.4636 322.64 64.6556C322.054 63.4141 320.266 63.8841 319.9 65.0124C318.042 70.7341 315.941 76.4424 314.486 82.2815C314.094 83.8665 316.273 84.3654 316.861 82.9399ZM321.554 69.5923C322.314 71.3591 323.039 73.1393 323.724 74.9349C323.21 75.11 322.693 75.2741 322.163 75.3805C321.336 75.5446 320.461 75.5512 319.6 75.5268C320.27 73.5538 320.913 71.5697 321.554 69.5923Z" fill="black"/>
<path d="M213.942 127.494C211.619 127.773 209.251 128.079 206.873 128.354C206.54 126.476 205.725 124.656 205.319 122.785C204.973 121.189 204.842 119.557 204.636 117.944C207.032 118.139 209.52 118.371 211.415 116.722C211.883 116.314 211.991 115.441 211.648 114.924C211.539 114.762 211.433 114.601 211.324 114.439C210.954 113.882 210.253 113.791 209.752 114.237C208.436 115.412 206.239 115.458 204.191 115.334C204.024 114.66 203.062 114.645 202.8 115.235C202.246 115.192 201.725 115.153 201.26 115.141C198.023 115.062 194.784 114.762 191.548 114.929C190.785 114.969 190.59 116.068 191.364 116.285C194.931 117.292 198.699 117.58 202.401 117.799C202.324 119.467 202.519 121.16 202.741 122.796C202.996 124.667 203.231 126.851 204.013 128.666C201.34 128.937 198.67 129.147 196.05 129.205C195.106 129.225 195.115 130.619 196.05 130.666C202.098 130.97 207.846 131.275 213.936 130.688C215.984 130.489 215.964 127.252 213.942 127.494Z" fill="black"/>
<path d="M228.19 113.086C226.102 112.789 223.984 113.144 221.879 113.244C219.56 113.352 217.236 113.348 214.918 113.454C213.537 113.519 213.607 115.385 214.918 115.549C216.319 115.724 217.875 115.913 219.473 116.044C219.617 118.121 219.764 120.198 219.934 122.275C220.109 124.406 220.03 126.547 220.897 128.516C221.282 129.393 222.801 129.165 222.971 128.245C223.364 126.137 222.774 124.042 222.459 121.936C222.171 120.014 221.859 118.096 221.548 116.177C223.882 116.268 226.208 116.161 228.192 115.611C229.34 115.294 229.529 113.277 228.19 113.086Z" fill="black"/>
<path d="M232.893 127.593C234.23 125.394 235.486 123.149 236.717 120.888C238.417 120.75 240.189 120.754 241.864 120.431C241.944 120.577 242.026 120.723 242.106 120.872C243.319 123.076 244.314 125.658 246.145 127.407C247.074 128.294 248.453 127.394 248.216 126.201C247.719 123.721 246.045 121.477 244.835 119.276C244.713 119.054 244.591 118.835 244.469 118.615C244.465 118.21 244.281 117.835 243.919 117.618C242.86 115.687 241.802 113.754 240.729 111.832C240.171 110.832 238.563 110.788 238.018 111.832C235.515 116.62 232.904 121.371 230.645 126.281C229.956 127.777 232.006 129.052 232.893 127.593ZM239.39 115.917C239.736 116.547 240.082 117.179 240.428 117.808C239.612 118.01 238.803 118.261 237.998 118.524C238.462 117.655 238.927 116.786 239.39 115.917Z" fill="black"/>
<path d="M251.237 111.109C251.537 114.339 251.88 117.544 252.288 120.765C252.521 122.612 252.27 125.962 253.408 127.575C254.489 129.114 256.527 128.598 258.065 128.316C261.047 127.773 264.028 127.192 266.995 126.569C269.061 126.135 268.178 123.02 266.126 123.414C264.266 123.774 262.412 124.164 260.559 124.554C259.495 124.778 258.305 125.153 257.225 125.259C255.434 125.432 255.5 125.079 255.181 123.441C254.363 119.251 253.523 115.086 252.565 110.927C252.395 110.202 251.166 110.342 251.237 111.109Z" fill="black"/>
<path d="M273.709 110.555C273.776 109.624 272.366 109.484 272.118 110.34C270.796 114.92 270.397 121.335 272.891 125.601C273.47 126.591 275.37 126.254 275.214 124.971C274.922 122.548 274.011 120.285 273.738 117.835C273.47 115.414 273.536 112.982 273.709 110.555Z" fill="black"/>
<path d="M273.851 103.191C273.949 102 272.397 101.382 271.544 102.062C271.003 102.492 270.894 103.151 271.109 103.7C270.307 104.035 270.275 105.294 271.226 105.616C271.931 105.853 272.692 105.6 273.199 105.077C273.397 104.873 273.554 104.62 273.68 104.368C273.8 104.13 273.867 103.871 273.876 103.605C273.882 103.532 273.88 103.461 273.867 103.39C273.802 102.978 273.798 102.913 273.851 103.191Z" fill="black"/>
<path d="M284.868 107.85C284.172 107.045 282.587 107.433 282.394 108.504C281.833 111.628 281.27 114.753 280.74 117.884C280.326 120.329 279.747 122.785 280.186 125.25C280.277 125.764 281.002 125.782 281.246 125.388C282.235 123.787 282.685 121.945 283.059 120.096C283.511 120.309 283.953 120.557 284.458 120.663C285.205 120.821 286.001 120.85 286.761 120.803C287.546 120.754 288.302 120.626 289.016 120.384C289.606 121.991 290.166 123.614 291.084 125.008C291.751 126.024 293.39 125.656 293.407 124.379C293.445 121.49 291.762 118.398 290.439 115.886C288.907 112.984 287.012 110.329 284.868 107.85ZM286.189 118.475C285.385 118.633 284.228 118.952 283.279 118.985C283.345 118.648 283.412 118.314 283.48 117.981C283.875 116.106 284.248 114.226 284.624 112.348C285.797 113.966 286.863 115.651 287.783 117.44C287.872 117.611 287.947 117.788 288.03 117.961C287.424 118.152 286.817 118.354 286.189 118.475Z" fill="black"/>
<path d="M308.53 107.598C308.439 111.661 308.206 115.704 307.913 119.75C304.48 115.133 301.079 110.493 297.641 105.88C296.838 104.802 294.61 104.959 294.768 106.658C295.315 112.574 295.85 118.56 297.084 124.379C297.366 125.705 299.563 125.43 299.47 124.055C299.199 120.034 298.745 116.026 298.341 112.013C301.505 116.312 304.679 120.601 307.8 124.931C308.771 126.279 310.583 125.718 310.782 124.124C311.463 118.648 311.751 113.113 311.848 107.598C311.886 105.461 308.576 105.461 308.53 107.598Z" fill="black"/>
<path d="M322.612 103.272C319.298 103.084 319.348 107.784 319.054 109.867C318.282 115.292 316.746 120.603 316.132 126.041C316.034 126.899 317.415 127.258 317.775 126.487C319.038 123.76 319.801 120.881 320.45 117.957C322.428 118.396 324.418 118.327 326.447 117.815C326.567 117.786 326.673 117.744 326.768 117.695C327.551 120.369 328.112 123.148 329.324 125.645C329.878 126.786 331.707 126.217 331.676 125.008C331.545 120.012 329.156 114.704 327.311 110.109C326.464 108.012 325.507 103.439 322.612 103.272ZM325.669 114.999C324.121 115.613 322.516 115.908 320.882 115.913C321.129 114.687 321.357 113.459 321.565 112.226C321.754 111.113 321.603 108.786 322.459 107.85C322.931 106.241 323.392 106.79 323.842 109.497C324.223 110.437 324.591 111.381 324.946 112.33C325.27 113.195 325.558 114.073 325.857 114.946C325.793 114.964 325.733 114.975 325.669 114.999Z" fill="black"/>
<path d="M335.284 90.712C334.936 97.8058 334.688 105.509 335.562 112.561C335.768 114.224 338.1 114.303 338.213 112.561C338.674 105.465 337.967 97.7814 337.206 90.712C337.076 89.5038 335.346 89.4528 335.284 90.712Z" fill="black"/>
<path d="M337.517 122.512C336.914 122.512 336.914 123.45 337.517 123.45C338.117 123.45 338.12 122.512 337.517 122.512Z" fill="black"/>
<path d="M282.365 140.234C281.481 141.825 283.913 143.249 284.806 141.659C286.425 142.526 288.041 143.39 289.659 144.257C289.648 145.871 289.122 147.226 288.078 148.321C286.89 149.755 285.201 150.704 283.427 151.287C280.517 152.244 277.039 151.757 274.101 151.158C268.985 150.114 264.183 147.844 259.424 145.78C252.363 142.717 243.744 138.819 235.936 141.249C229.986 143.1 227.517 148.609 231.194 153.905C235.24 159.733 242.469 161.174 248.894 158.964C249.497 158.755 249.244 157.8 248.628 157.999C242.212 160.083 233.66 156.909 232.245 149.881C230.532 141.367 243.21 142.838 248.033 144.16C257.825 146.844 266.453 153.131 276.686 154.346C283.268 155.129 291.842 152.799 292.423 144.918C292.831 139.329 285.737 134.168 282.365 140.234Z" fill="black"/>
<path d="M260.435 156.215C258.477 155.157 256.684 156.733 256.391 158.56C255.777 159.358 255.638 160.655 255.802 161.577C256.296 164.351 259.584 165.118 261.317 162.941C262.803 161.076 262.754 157.467 260.435 156.215Z" fill="black"/>
<path d="M256.923 155.871C257.131 155.516 257.167 155.124 257.078 154.763C257.065 153.969 256.305 153.255 255.518 153.28C255.052 153.295 254.54 153.439 254.232 153.816C253.261 154.995 253.924 156.549 255.427 156.702C256.032 156.764 256.628 156.372 256.923 155.871Z" fill="black"/>
<path d="M258.575 155.2C259.385 155.2 260.043 154.542 260.043 153.732C260.043 152.921 259.385 152.264 258.575 152.264C257.764 152.264 257.107 152.921 257.107 153.732C257.107 154.542 257.764 155.2 258.575 155.2Z" fill="black"/>
<path d="M264.212 154.838C263.999 154.838 263.815 154.878 263.649 154.942C264.106 153.996 263.656 152.582 262.283 152.582C260.231 152.582 260.226 155.774 262.283 155.774C262.505 155.774 262.696 155.732 262.869 155.665C262.43 156.592 262.873 157.968 264.212 157.968C266.225 157.966 266.227 154.838 264.212 154.838Z" fill="black"/>
<path d="M262.182 143.938C262.182 144.718 262.84 145.374 263.618 145.374C264.394 145.374 265.055 144.714 265.055 143.938C265.055 143.158 264.396 142.501 263.618 142.501C262.842 142.501 262.182 143.162 262.182 143.938Z" fill="black"/>
<path d="M265.117 146.015C265.117 146.811 265.789 147.483 266.585 147.483C267.378 147.483 268.052 146.807 268.052 146.015C268.052 145.219 267.381 144.545 266.585 144.545C265.793 144.548 265.117 145.222 265.117 146.015Z" fill="black"/>
<path d="M269.703 148.414C271.644 148.414 271.647 145.397 269.703 145.397C267.763 145.397 267.758 148.414 269.703 148.414Z" fill="black"/>
<path d="M272.967 148.655C274.835 148.655 274.84 145.749 272.967 145.749C271.096 145.749 271.093 148.655 272.967 148.655Z" fill="black"/>
<path d="M273.685 140.921C273.944 139.464 273.45 137.884 272.217 137.004C271 136.135 269.227 136.15 268.099 137.177C267.58 137.647 267.225 138.354 267.052 139.107C266.786 139.398 266.553 139.724 266.372 140.114C265.824 141.296 265.928 142.852 266.777 143.867C269.05 146.58 273.188 143.703 273.685 140.921Z" fill="black"/>
<path d="M147.488 29.6873C148.632 29.6873 148.634 27.9094 147.488 27.9094C146.344 27.9072 146.342 29.6873 147.488 29.6873Z" fill="black"/>
<path d="M75.1918 120.943C76.2914 121.845 77.3976 122.741 78.506 123.634C78.7765 123.851 79.2354 123.692 79.3352 123.37C79.6765 122.262 80.0577 121.191 80.4856 120.114C80.7338 119.491 81.3147 118.498 80.5854 117.986C79.9691 117.553 79.0136 118.11 78.4439 118.376C77.4441 118.843 76.5286 119.46 75.6906 120.174C75.5731 120.273 75.5243 120.406 75.5087 120.542C75.4999 120.537 75.4912 120.531 75.4823 120.526C75.1964 120.358 74.9369 120.737 75.1918 120.943Z" fill="black"/>
<path d="M36.8018 121.568C35.6933 120.828 34.6537 120.069 33.6783 119.158C33.3059 118.81 32.51 118.901 32.5145 119.537C32.5211 120.672 32.501 121.807 32.4833 122.942C32.47 123.811 32.3214 124.725 32.6783 125.536C32.7537 125.707 32.8956 125.811 33.0552 125.857C33.155 125.975 33.319 126.03 33.4453 125.897C33.4631 125.88 33.4809 125.862 33.4986 125.844C33.6649 125.782 33.8069 125.66 33.8712 125.474C33.8734 125.47 33.8733 125.465 33.8755 125.461C34.8376 124.463 35.8351 123.468 36.8526 122.541C37.1364 122.277 37.1387 121.792 36.8018 121.568Z" fill="black"/>
<path d="M7.55507 216.195C6.59297 219.753 7.04092 224.072 7.04979 227.659C7.05866 231.642 7.14281 235.653 7.62608 239.614C7.67042 242.092 7.77693 244.538 7.84343 246.848C8.07842 254.935 9.01388 263.055 10.6898 270.971C13.6448 284.928 19.1115 298.265 27.7505 309.675C26.2541 310.353 24.975 311.448 24.1414 313.146C22.1707 317.152 24.7666 320.945 28.3357 322.829C32.8602 325.219 38.8302 326.194 43.2018 323.151C47.7197 320.007 52.18 314.155 53.131 308.728C53.1443 308.655 53.1443 308.591 53.1488 308.522C54.6207 306.853 55.4895 304.908 56.1302 302.656C56.476 301.437 56.8064 300.189 57.1167 298.934C57.5756 301.599 58.3405 304.21 59.2671 306.766C60.2691 309.531 61.3952 312.477 63.1509 314.902C67.6244 323.33 76.2878 331.885 85.6982 324.685C88.6976 322.39 90.245 318.591 88.8994 314.951C88.0991 312.783 86.6338 311.495 84.8559 310.774C84.9246 310.661 84.9888 310.546 85.0421 310.411C90.6484 296.176 93.5791 281.042 94.4991 265.79C94.8826 259.426 95.0179 253.055 95.0756 246.679C95.0933 246.652 95.1044 246.624 95.1221 246.597C95.1044 246.524 95.0911 246.449 95.0955 246.366C95.0911 246.342 95.0978 246.313 95.0933 246.287C95.0955 246.278 95.0911 246.271 95.0933 246.262C95.0933 246.26 95.0933 246.258 95.0933 246.256C95.0889 246.189 95.0778 246.125 95.0933 246.049C95.1221 245.901 95.1197 245.755 95.1197 245.606C95.1197 245.46 95.1642 245.345 95.2262 245.245C95.2262 245.243 95.2262 245.238 95.2262 245.236C95.2307 244.977 95.3482 244.797 95.5101 244.682C95.5078 244.675 95.5099 244.671 95.5077 244.664C106.164 239.955 113.138 230.691 117.434 219.988C120.565 212.187 123.085 204.109 125.446 196.045C126.847 191.256 129.192 184.481 126.603 179.68C125.424 177.492 123.362 176.39 121.136 176.226C125.377 173.603 129.381 170.575 132.329 166.74C132.766 166.343 133.103 165.816 133.391 165.248C133.622 164.898 133.863 164.557 134.076 164.193C134.26 163.876 134.289 163.57 134.222 163.298C134.276 163.167 134.327 163.036 134.38 162.912C134.415 162.83 134.429 162.743 134.449 162.657C136.634 163.488 138.986 163.453 141.154 161.941C143.914 160.019 145.3 156.421 144.413 153.169C144.311 152.796 144.176 152.431 144.01 152.074C147.184 150.509 150.877 148.518 154.832 146.263C154.868 148.939 154.905 151.617 154.934 154.293C154.985 158.981 154.901 163.672 155.081 168.356C155.455 178.088 153.912 187.816 155.085 197.554C155.282 199.19 155.652 199.926 157.492 199.884C168.681 199.616 179.876 199.168 191.057 199.352C201.727 199.529 212.381 200.545 223.051 200.935C235.219 201.38 247.396 201.598 259.571 201.806C266.664 201.926 273.765 201.833 280.861 201.833C293.043 201.835 305.224 201.835 317.406 201.835C317.406 201.859 317.406 201.884 317.406 201.908C324.801 201.908 332.198 201.89 339.594 201.912C349.598 201.941 359.612 202.278 369.603 201.968C380.496 201.629 391.372 200.702 402.255 200.026C405.682 199.813 406.444 199.15 406.331 195.65C406.185 191.179 405.706 186.72 405.464 182.251C404.66 167.416 403.751 152.584 403.155 137.74C402.509 121.623 402.144 105.494 401.709 89.3686C401.567 84.1458 401.488 78.9162 401.57 73.6911C401.709 64.8083 402.124 55.9277 402.153 47.0471C402.164 44.0256 401.468 40.9797 400.896 37.9848C400.472 35.7657 398.98 34.9034 396.642 34.9411C391.352 35.0275 386.056 34.8878 380.765 34.8235C370.011 34.6949 359.257 34.4711 348.503 34.4511C340.886 34.4356 333.267 34.7082 325.648 34.7903C324.725 34.7991 323.639 34.6573 322.905 34.1696C319.753 32.0703 316.701 29.8246 313.621 27.6166C308.598 24.0121 303.599 20.3743 298.556 16.7963C294.062 13.6085 289.566 10.4185 284.991 7.35044C281.466 4.9873 277.884 2.6906 274.175 0.637823C273.224 0.110218 271.424 0.152307 270.493 0.717598C267.123 2.76816 263.956 5.14459 260.719 7.41019C249.67 15.1403 238.615 22.866 227.582 30.6182C225.516 32.0703 223.587 33.7217 221.49 35.1294C220.45 35.8255 219.196 36.5526 218.005 36.6103C214.585 36.7832 211.14 36.484 207.715 36.6126C196.005 37.0515 184.298 37.5902 172.591 38.0956C168.65 38.2641 164.708 38.4924 160.764 38.6077C158.763 38.6675 156.739 38.6896 154.757 38.4546C152.163 38.1487 151.037 38.8138 151.061 41.4763C151.09 44.4424 151.434 47.4062 151.682 50.3679C151.842 52.2988 152.132 54.2208 152.261 56.1539C152.613 61.4277 152.943 66.7037 153.218 71.982C153.396 75.3826 153.371 78.7943 153.606 82.1904C153.859 85.8105 154.52 89.4107 154.63 93.0285C154.819 99.2046 154.728 105.387 154.732 111.566C154.735 119.245 154.679 126.922 154.713 134.601C154.724 137.27 154.752 139.941 154.786 142.61C150.217 145.312 145.992 147.797 142.487 149.835C142.259 149.586 142.019 149.347 141.766 149.121C141.711 149.019 141.627 148.937 141.503 148.897C137.698 145.68 131.534 144.791 129.501 150.214C129.492 150.236 129.49 150.256 129.483 150.278C121.114 149.93 113.14 153.218 105.344 155.895C98.8928 158.11 91.1673 160.012 84.8803 163.362C84.0623 161.954 83.2265 160.593 82.2621 159.287C82.4373 159.117 82.6191 158.955 82.7854 158.775C83.1357 158.307 83.4815 157.835 83.8096 157.352C84.4813 156.366 84.9491 155.228 85.4345 154.133C85.6917 153.55 85.9201 152.96 86.1329 152.366C86.1351 152.369 86.1372 152.371 86.1416 152.371C86.1992 152.156 86.2569 151.938 86.3323 151.726C86.3811 151.588 86.4587 151.491 86.5451 151.411C86.5229 151.4 86.4987 151.391 86.4765 151.38C87.3521 148.66 87.8553 145.847 88.3651 143.04C88.9881 139.622 88.2078 136.299 87.3721 132.993C87.2014 132.322 86.9842 131.674 86.8999 131.005C86.7248 130.856 86.5673 130.67 86.4719 130.391C85.9288 128.808 85.3236 127.248 84.7916 125.66C84.4701 125.184 84.2329 124.705 84.0622 124.217C84.8159 122.743 85.0245 120.732 85.2373 119.123C85.4878 117.301 85.5653 115.465 85.4921 113.627C85.481 113.348 85.3812 113.104 85.1994 112.936L85.2018 112.896C85.1929 112.874 85.1929 112.865 85.1951 112.845C85.1619 112.851 85.1398 112.851 85.1087 112.858C84.9358 112.721 84.6919 112.661 84.4171 112.701C83.3995 112.858 82.3776 113.046 81.3668 113.266C79.5423 113.649 77.7487 114.168 76.055 114.942C74.2926 115.751 72.5325 116.828 71.4906 118.416C69.6728 117.039 67.5514 116.197 65.2969 115.558C62.4062 114.747 59.4266 113.98 56.4361 113.625C51.282 113.027 45.9485 114.365 41.1513 116.219C40.5483 116.729 39.7414 117.035 38.7216 116.953C36.2144 116.751 33.6915 116.429 31.3639 115.629C31.2974 115.569 31.2243 115.518 31.1489 115.487C30.7211 115.314 30.2977 115.101 29.9275 114.827C29.8344 114.758 29.7167 114.769 29.6214 114.82C29.4374 114.74 29.1803 114.82 29.1094 115.024C28.952 115.47 28.9276 116.004 28.963 116.527C28.5418 121.218 27.9676 126.015 27.8745 130.695C27.1496 132.79 26.4203 134.882 25.7131 136.982C25.5846 137.352 25.5425 137.76 25.5159 138.159C24.8221 140.192 24.7046 142.435 24.8043 144.667C24.9662 148.336 25.5359 151.97 26.3827 155.536C26.4226 155.771 26.458 156.006 26.4979 156.241C26.54 156.35 26.5932 156.454 26.6375 156.561C26.7218 156.895 26.7996 157.232 26.8882 157.567C24.9263 161.083 23.6626 165.244 19.8186 166.913C17.553 167.897 15.5157 168.443 13.5117 170.052C8.9118 173.748 5.37595 179.168 3.19459 184.599C-1.09275 195.253 0.374769 207.193 7.55507 216.195ZM227.653 33.8592C234.654 28.7871 241.646 23.6995 248.702 18.705C255.337 14.0119 262.098 9.49405 268.695 4.74783C270.934 3.1362 273.058 3.27581 275.159 4.47733C278.522 6.39932 281.834 8.43442 285.02 10.6357C292.508 15.8076 299.906 21.1125 307.346 26.3553C310.64 28.6741 313.954 30.9662 317.244 33.2895C317.587 33.5311 317.838 33.9036 318.133 34.2161C318.077 34.4157 318.024 34.6152 317.969 34.8169C287.226 35.2625 256.483 35.7081 225.115 36.1647C226.203 35.1672 226.866 34.4289 227.653 33.8592ZM153.972 44.5554C153.742 42.4449 154.526 41.8109 156.266 41.7001C158.725 41.5427 161.19 41.4851 163.651 41.3765C177.08 40.7868 190.51 40.1838 203.942 39.6119C206.926 39.4855 209.916 39.4678 212.906 39.3991C233.596 38.9202 254.284 38.3949 274.975 37.9759C297.09 37.5303 319.206 37.1223 341.321 36.843C346.233 36.7809 351.15 37.4881 356.067 37.548C360.691 37.6056 365.322 37.0847 369.942 37.1623C376.879 37.282 383.806 37.732 390.738 37.9714C392.144 38.0202 393.558 37.7342 394.97 37.6455C397.615 37.4748 398.623 38.0534 399.053 40.6803C399.534 43.6154 399.856 46.617 399.834 49.5853C399.721 64.5156 399.251 79.446 399.335 94.3764C399.408 107.819 399.929 121.267 400.468 134.703C400.736 141.413 401.614 148.097 401.973 154.805C402.354 161.885 402.385 168.984 402.685 176.069C402.926 181.812 403.409 187.547 403.644 193.293C403.795 196.969 403.538 197.275 399.929 197.605C393.237 198.219 386.535 198.955 379.825 199.126C367.876 199.43 355.918 199.419 343.965 199.416C332.613 199.416 321.261 199.217 309.908 199.181C293.173 199.13 276.434 199.288 259.702 199.095C246.106 198.937 232.512 198.499 218.925 197.989C210.499 197.674 202.091 196.705 193.667 196.541C182.177 196.319 170.68 196.588 159.186 196.641C158.969 196.641 158.749 196.563 158.122 196.448C158.122 191.148 158.151 185.942 158.113 180.737C158.078 175.736 157.947 170.737 157.907 165.736C157.852 158.682 157.792 151.626 157.761 144.572C159.029 143.834 160.317 143.073 161.616 142.298C161.543 146.556 161.447 150.817 161.37 155.075C161.359 155.667 161.148 156.257 161.144 156.851C161.135 158.188 161.166 159.527 161.237 160.861C161.339 162.706 161.492 164.548 161.622 166.39C161.749 168.188 161.928 169.986 161.993 171.786C162.205 177.971 162.345 184.16 162.602 190.345C162.644 191.38 162.864 192.628 163.496 193.344C163.946 193.854 165.236 193.786 166.127 193.706C167.526 193.582 168.9 193.054 170.295 193.007C181.106 192.648 191.92 192.174 202.736 192.116C211.689 192.07 220.648 192.653 229.604 192.75C237.522 192.837 245.449 192.416 253.361 192.613C266.946 192.95 280.524 193.963 294.107 194.007C309.263 194.058 324.424 193.347 339.585 192.963C347.577 192.759 355.581 192.764 363.558 192.283C373.241 191.699 382.893 190.454 392.609 191.562C394.347 191.759 395.116 191.068 395.07 189.314C394.824 180.136 394.74 170.952 394.332 161.779C394.028 154.922 393.11 148.09 392.84 141.233C392.394 129.888 392.206 118.531 392 107.176C391.911 102.324 391.929 97.4599 392.104 92.6095C392.625 78.209 393.25 63.813 393.833 49.4169C393.757 49.4125 393.682 49.4103 393.609 49.4058C393.68 48.2132 393.964 46.9828 393.755 45.8412C393.611 45.0542 392.851 43.8349 392.257 43.7661C389.607 43.4624 386.91 43.3317 384.243 43.4514C376.934 43.7817 369.638 44.4645 362.329 44.6397C355.617 44.8037 348.891 44.3736 342.174 44.4136C330.143 44.4823 318.111 45.0098 306.089 44.7859C290.788 44.5022 275.503 43.5733 260.205 43.1078C254.312 42.9282 248.407 43.263 242.506 43.3561C238.11 43.4271 233.698 43.2807 229.318 43.5977C219.286 44.3204 209.275 45.3135 199.247 46.0917C196.065 46.3399 192.855 46.2224 189.661 46.3288C183.72 46.5261 177.781 46.7855 171.84 46.9784C169.011 47.0693 166.165 46.9229 163.358 47.2022C162.516 47.2865 161.29 48.3263 161.095 49.1332C160.707 50.747 160.882 52.5049 160.875 54.203C160.855 58.8916 160.904 63.5802 160.842 68.2688C160.787 72.6249 160.43 76.9876 160.549 81.3392C160.787 90.1112 161.385 98.8765 161.598 107.651C161.804 116.044 161.771 124.443 161.729 132.838C161.72 134.731 161.7 136.627 161.676 138.52C160.352 139.307 159.042 140.085 157.75 140.852C157.745 139.358 157.739 137.864 157.739 136.37C157.73 124.574 157.991 112.774 157.767 100.982C157.628 93.6958 156.736 86.4246 156.304 79.1401C156.076 75.2762 156.266 71.3834 155.989 67.5261C155.442 59.8581 154.806 52.1945 153.972 44.5554ZM390.707 69.0469C390.771 69.0513 390.833 69.0536 390.898 69.058C390.477 78.7588 389.643 88.4619 389.725 98.1583C389.874 115.489 390.552 132.814 391.055 150.141C391.405 162.229 391.822 174.317 392.248 186.406C392.308 188.124 391.731 188.676 389.933 188.731C373.513 189.232 357.102 189.988 340.68 190.387C321.635 190.848 302.584 191.265 283.535 191.252C268.908 191.243 254.281 190.545 239.655 190.139C229.723 189.864 219.792 189.319 209.863 189.343C197.848 189.372 185.832 189.882 173.819 190.168C172.026 190.212 170.23 190.148 168.439 190.192C167.029 190.225 166.455 189.625 166.408 188.19C166.273 183.936 166.134 179.678 165.803 175.437C165.422 170.54 164.602 165.672 164.402 160.773C164.194 155.641 164.533 150.487 164.562 145.343C164.571 143.734 161.616 142.298 164.566 140.517C175.903 133.621 187.686 125.769 194.952 120.158C194.749 119.75 194.549 119.34 194.356 118.925C186.823 123.483 175.469 130.307 164.546 136.813C164.531 134.951 164.513 133.087 164.489 131.224C164.391 123.381 164.223 115.538 164.141 107.697C164.065 100.612 164.105 93.5273 164.017 86.4423C163.937 80.0313 163.744 73.6202 163.613 67.2091C163.527 63.0326 163.427 58.854 163.394 54.6753C163.363 50.9111 163.717 50.4012 167.364 50.1308C171.006 49.8603 174.675 49.9844 178.324 49.7805C190.774 49.0866 203.25 48.6543 215.66 47.5015C230.929 46.0828 246.199 45.4532 261.515 45.8589C278.092 46.2979 294.663 46.9562 311.243 47.2178C320.722 47.3686 330.212 46.8187 339.698 46.7722C346.563 46.7389 353.433 47.251 360.292 47.0958C368.124 46.9185 375.945 46.2247 383.775 45.8634C385.693 45.7747 387.685 45.8899 389.532 46.3599C390.208 46.5306 390.977 47.9981 390.982 48.876C391.002 54.5555 390.818 60.2328 390.712 65.9123C390.692 66.9542 390.707 68.0005 390.707 69.0469ZM95.0756 222.988C95.1753 222.944 95.264 222.886 95.3527 222.828C95.3948 220.31 95.479 217.789 95.5189 215.269C95.3194 211.786 94.681 208.366 93.6435 205.014C92.4398 201.143 91.8056 197.195 91.544 193.183C91.5086 192.644 91.4399 192.101 91.3468 191.562C91.2869 191.509 91.2315 191.453 91.1738 191.402C98.3785 188.813 105.324 185.115 111.868 181.487C111.994 181.416 112.125 181.345 112.254 181.274C110.511 183.972 109.454 187.286 108.552 190.083C104.162 203.695 103.36 217.628 95.2994 229.39C95.2972 227.246 95.2418 225.107 95.0756 222.988ZM121.928 180.986C124.73 182.693 124.814 182.622 124.768 185.479C124.734 187.516 124.229 189.54 123.746 191.516C123.048 194.362 122.108 197.153 121.236 199.95C119.396 205.845 117.532 211.746 115.266 217.494C111.086 228.102 104.712 235.646 95.1176 241.084C95.1397 238.639 95.2086 236.165 95.2596 233.675C95.3749 233.462 95.4877 233.247 95.572 233.019C95.807 232.396 95.7072 231.722 95.3968 231.15C100.507 226.067 103.473 219.146 105.654 212.296C106.419 209.893 107.069 207.459 107.694 205.018C108.496 205.169 109.327 205.22 110.108 205.539C111.026 205.914 112.373 205.3 112.808 204.44C114.125 201.841 112.034 198.82 109.403 198.317C109.627 197.45 109.851 196.583 110.086 195.721C110.737 196.519 111.773 197.077 112.69 197.281C114.384 197.658 116.166 197.359 117.062 195.719C117.92 194.147 117.355 192.302 116.204 191.059C115.226 190.006 113.444 189.039 111.974 189.48C112.271 188.62 112.582 187.762 112.923 186.916C113.46 185.588 113.998 184.238 114.79 183.034C115.291 182.398 115.792 181.759 116.293 181.123C118.19 178.837 120.07 178.791 121.928 180.986ZM3.76438 193.73C3.77103 193.67 3.78431 193.61 3.79318 193.551C3.79096 193.495 3.77993 193.444 3.79101 193.382C3.83535 193.134 3.88642 192.885 3.93519 192.639C3.95958 192.498 3.99042 192.356 4.01702 192.214C4.01702 192.167 4.01492 192.121 4.02157 192.07C4.08808 191.677 4.16111 191.285 4.22983 190.893C4.22983 190.89 4.23 190.888 4.23221 190.886C4.23886 190.844 4.24764 190.799 4.25429 190.757C4.25651 190.744 4.26545 190.737 4.26988 190.724C5.11006 186.716 6.72154 182.81 9.05143 179.272C10.7739 176.656 12.8467 174.1 15.2852 172.127C17.6128 170.243 20.3264 170.238 22.725 168.811C23.0353 168.627 23.3235 168.392 23.5918 168.126C23.9775 167.255 24.4473 166.434 24.9572 165.638C25.7042 164.541 26.4203 163.424 27.0787 162.291C27.5797 161.433 28.0808 160.453 28.196 159.458C29.2202 160.943 30.5105 162.18 32.1376 162.899C30.0715 160.391 29.0674 157.155 28.5331 154.007C28.4555 153.559 28.369 153.076 28.2848 152.577C29.4708 153.284 31.0625 152.954 31.896 151.734C33.3702 149.571 31.4039 145.957 28.9299 145.383C29.2913 144.88 29.7632 144.437 30.3884 144.089C30.6367 143.953 30.8651 143.931 31.0669 143.987C31.1223 143.971 31.1777 143.945 31.2331 143.927C31.9979 143.687 32.7915 143.512 33.5186 143.2C36.7441 141.783 37.4248 138.584 34.9441 136.139C33.8889 135.1 32.6032 134.248 31.3219 133.47C30.0827 132.714 29.6414 131.703 30.3929 130.537C31.406 128.919 31.2864 127.128 31.2598 125.376C31.2243 123.049 30.9937 120.726 31.0004 118.4C31.0048 118.338 31.0003 118.276 31.0047 118.216C31.0801 117.254 31.6653 117.083 32.7139 117.527C33.8866 118.03 34.9885 118.733 36.2099 119.043C38.6928 119.668 41.2043 120.471 43.6961 118.906C45.6979 117.642 48.1319 117.522 50.4108 117.276C53.0843 116.979 55.82 117.13 58.5246 117.125C59.5731 117.125 60.5817 117.234 61.5859 117.416C61.6701 117.442 61.7454 117.458 61.8297 117.487C64.6805 118.254 67.8839 118.926 70.0852 120.969C70.4576 121.317 70.9144 121.426 71.3289 121.386C71.3289 121.375 71.3399 121.377 71.3399 121.366C73.3595 119.331 75.6316 117.502 78.2342 116.181C78.8881 115.842 80.429 114.942 81.6837 114.669C82.1692 114.563 82.6236 114.556 82.9584 114.707C84.1909 115.266 83.5591 116.729 83.2909 117.655C82.4995 120.455 81.5351 123.137 81.2247 126.015C82.1758 126.17 82.843 126.769 83.2021 127.713C83.8273 129.398 84.5434 131.047 85.204 132.725C85.3946 133.204 85.5388 133.698 85.6629 134.191C85.8203 134.8 85.5897 135.133 84.8981 135.252C82.3864 135.685 80.0853 140.105 81.3001 142.834C81.8897 144.155 83.0869 144.63 84.5301 144.155C84.8737 144.038 85.2305 143.922 85.9753 143.661C85.6672 144.967 85.4345 146.141 85.1574 147.268C84.9712 147.13 84.7117 147.07 84.4878 147.033C83.978 146.948 83.4548 147.037 82.9716 147.19C81.9075 147.527 80.9832 148.236 80.5664 149.296C79.8504 151.12 80.9698 153.207 82.7655 153.736C82.3642 154.53 81.9252 155.308 81.4486 156.073C80.6749 158.197 79.5444 160.269 78.037 161.963C78.8971 161.619 79.7395 161.245 80.5131 160.742C80.6816 160.631 80.8324 160.495 80.9942 160.374C81.5839 161.768 82.271 163.1 83.0004 164.437C82.4151 164.796 81.8388 165.166 81.289 165.561C81.1715 165.645 81.1915 165.891 81.3732 165.871C82.3398 165.767 83.3108 165.61 84.2817 165.415C84.3216 165.408 84.3616 165.399 84.4015 165.388C86.5296 164.951 88.6623 164.313 90.7883 163.588C91.0321 166.02 92.1492 168.248 93.9182 169.963C94.6165 170.64 95.847 170.351 96.1041 169.387C96.7669 166.889 96.6627 164.184 95.5521 161.848C97.1327 161.238 98.7022 160.62 100.254 160.03C100.314 162.233 100.881 164.235 101.823 166.259C102.251 167.177 103.686 167.088 104.138 166.259C105.448 163.856 105.732 160.939 105.116 158.285C113.132 155.525 121.569 152.038 130.132 152.703C131.01 152.772 131.385 152.009 131.259 151.324C131.42 151.203 131.558 151.036 131.647 150.808C132.688 148.09 136.315 148.325 138.406 149.354C139.436 149.861 140.352 150.602 141.05 151.5C141.101 151.899 141.343 152.278 141.695 152.502C142.07 153.215 142.314 153.996 142.383 154.823C142.584 157.259 141.254 159.644 139.128 160.855C136.692 162.24 134.127 161.431 131.713 160.509C131.482 160.42 131.267 160.779 131.465 160.934C131.777 161.18 132.099 161.407 132.425 161.619C132.398 161.657 132.358 161.679 132.336 161.721C131.939 162.482 131.443 163.304 131.079 164.153C126.127 171.229 117.437 175.767 109.864 179.824C109.727 178.423 109.294 177.064 108.518 175.867C107.816 174.785 106.672 173.371 105.211 173.597C103.499 173.863 103.619 175.698 103.648 177.013C103.69 178.97 103.792 180.904 104.087 182.83C103.619 183.06 103.154 183.295 102.684 183.522C102.338 181.24 101.349 179.208 99.8195 177.483C99.1677 176.749 97.8909 177.15 97.6537 178.055C97.0308 180.431 96.9132 182.945 97.6403 185.284C97.0573 185.377 96.4743 185.566 95.8735 185.617C95.009 185.692 94.1422 185.65 93.2776 185.694C92.8099 185.195 91.8078 185.184 91.5706 186.044C91.0475 187.942 89.1898 188.31 87.5626 188.811C85.8956 189.325 84.3083 189.831 82.5371 189.664C82.3265 189.644 82.2734 190.006 82.4862 190.039C84.6543 190.38 87.7445 190.669 90.1364 189.866C88.3829 191.363 86.2681 192.58 84.1023 193.517C85.3304 193.227 86.5563 192.908 87.7711 192.54C87.7955 192.648 87.8199 192.759 87.8443 192.868C88.097 193.956 88.4693 195.009 88.7819 196.078C87.066 196.532 84.8935 198.563 83.6477 199.563C82.3109 200.631 80.9743 201.99 81.1117 203.839C81.4731 208.7 87.4297 208.164 90.6796 207.275C90.9257 207.208 91.1339 207.02 91.258 206.792C91.759 208.747 92.0606 210.72 92.289 212.702C89.8283 212.992 87.2014 213.903 84.8892 214.779C83.1401 215.442 81.5085 216.801 81.5661 218.836C81.6238 220.82 83.3884 221.948 85.1596 222.287C87.6358 222.762 90.2739 222.917 92.8211 223.096C92.626 224.413 92.4841 225.743 92.371 227.078C89.1633 228.06 77.4694 230.802 82.1314 235.841C84.3837 238.275 88.7087 238.284 91.9142 236.706C91.8743 237.971 91.8301 239.23 91.7702 240.481C91.7658 240.583 91.7591 240.683 91.7547 240.784C87.873 241.057 78.9371 243.768 82.0517 248.933C83.3109 251.022 86.2193 250.895 88.3075 250.501C89.345 250.306 90.3447 249.964 91.2935 249.514C91.2647 250.018 91.2293 250.521 91.1983 251.024C91.2914 252.037 91.1517 253.015 91.0076 254.008C90.9455 254.983 90.8769 255.959 90.8103 256.934C90.8325 257.007 90.8481 257.089 90.837 257.187C90.8126 257.431 90.7727 257.672 90.7439 257.914C90.7394 257.983 90.7349 258.051 90.7305 258.122C90.726 258.122 90.7217 258.122 90.7173 258.122C90.6574 258.603 90.6042 259.084 90.5332 259.561C90.5199 259.698 90.5001 259.836 90.4845 259.973C90.5178 259.973 90.5486 259.973 90.5841 259.973C90.4932 261.15 90.4046 262.325 90.296 263.5C89.7418 269.579 89.0413 275.64 88.0659 281.643C87.1437 281.572 86.2393 281.61 85.3038 281.736C84.2818 281.876 83.2731 282.206 83.1467 283.392C82.9339 285.4 85.3325 286.801 87.0372 287.395C86.7867 288.668 86.5186 289.936 86.2371 291.2C84.6409 290.996 82.4041 290.905 82.1558 292.625C81.9253 294.228 83.6943 294.928 85.2704 295.221C84.6586 297.617 83.9824 300 83.222 302.363C83.222 302.363 83.2221 302.363 83.2199 302.363C82.7433 303.968 82.2424 305.562 81.6726 307.139C81.6638 307.161 81.6527 307.181 81.6439 307.203C81.5796 307.34 81.5086 307.482 81.4421 307.622C81.411 307.655 81.3799 307.688 81.3466 307.717C81.2779 307.899 81.2092 308.078 81.1427 308.26C80.8833 308.821 80.6484 309.398 80.5486 309.989C80.5486 309.994 80.5508 309.998 80.5508 310.003C79.4845 309.981 78.4073 310.04 77.3587 310.16C77.2257 310.176 77.1281 310.233 77.0571 310.313C81.094 309.797 85.9157 312.299 87.2701 316.055C88.496 319.451 85.3813 322.512 82.1381 323.053C79.9833 323.791 77.3231 323.534 75.0087 322.599C70.9808 320.972 68.8792 316.91 66.6225 313.14C64.0687 310.368 62.4216 306.702 61.6723 302.953C61.5193 302.543 61.3864 302.124 61.2999 301.694C61.2955 301.674 61.3 301.659 61.2978 301.641C60.1251 298.18 59.6639 294.569 59.4245 290.885C58.8193 287.298 58.6996 283.602 58.1853 280.018C57.9703 278.513 57.6243 276.93 57.4426 275.347C56.1413 282.816 54.9576 290.528 52.8738 297.899C52.8738 297.919 52.8849 297.934 52.8827 297.954C52.7962 300.55 52.0136 303.179 51.1224 305.598C50.5616 307.119 49.9055 308.24 49.0476 309.322C48.4668 310.473 47.7774 311.583 46.9704 312.647C44.4344 316.773 40.9051 320.925 36.5535 321.058C34.698 321.116 31.069 320.794 28.8522 319.761C28.7702 319.766 28.686 319.761 28.5928 319.73C26.0524 318.897 25.1789 315.503 26.2851 313.188C26.274 313.133 26.2631 313.077 26.252 313.02L26.4602 312.851C26.5378 312.72 26.6177 312.594 26.7085 312.474C28.9076 309.568 33.184 309.282 36.7531 309.169C36.691 309.118 36.6156 309.074 36.5158 309.058C34.8843 308.79 33.093 308.642 31.366 308.79C31.4547 308.289 31.3484 307.742 30.956 307.232C30.5947 306.764 30.2599 306.283 29.9141 305.808C28.8677 304.627 27.9499 303.332 27.174 301.958C27.1164 301.856 27.0854 301.754 27.0766 301.656C25.0748 298.522 23.3123 295.259 21.7584 291.9C22.7315 291.461 23.4588 290.661 23.8689 289.619C24.0728 289.102 23.7226 288.566 23.3236 288.282C22.4368 287.646 21.4747 287.203 20.3973 287.014C20.1224 286.965 19.8962 287.019 19.71 287.116C19.2821 286.034 18.8675 284.946 18.4818 283.846C18.7988 283.891 19.1181 283.913 19.4396 283.897C20.6699 283.837 22.3149 283.396 22.8802 282.184C23.6184 280.603 22.0023 279.53 20.8584 278.799C19.6103 278.001 18.0695 276.899 16.5776 276.688C16.4712 276.673 16.3625 276.679 16.2561 276.695C15.5246 274.001 14.8884 271.275 14.3608 268.521C13.6381 264.757 13.1149 260.973 12.6893 257.176C12.7004 257.182 12.7137 257.189 12.7248 257.196C12.6982 257.131 12.6672 257.069 12.6406 257.003C12.4521 256.526 12.4301 256.027 12.5165 255.544C12.3148 253.613 12.1241 251.68 11.9645 249.743L11.9311 249.375C11.9267 249.306 11.9178 249.235 11.9134 249.166C12.2459 249.308 12.5742 249.455 12.9222 249.568C13.8622 249.876 14.8329 249.967 15.8128 249.936C17.0364 249.896 18.1671 249.785 19.1713 248.993C20.211 248.173 20.7431 246.972 20.6744 245.639C20.5724 243.644 19.2378 242.485 17.6217 241.718C17.389 241.126 16.9279 240.627 16.1897 240.401C14.8729 240 13.6294 239.605 12.4611 238.885C12.1419 238.687 11.7938 238.561 11.4369 238.494C11.428 238.053 11.4214 237.619 11.4103 237.176C12.8689 237.548 14.4894 237.495 15.8439 236.832C17.7836 235.883 19.0938 233.835 18.5972 231.618C17.9854 228.891 14.9328 226.803 12.1329 226.202C11.9955 226.138 11.8581 226.085 11.7318 226.043C11.2596 225.892 10.6432 225.896 10.1378 226.062C10.0868 225.065 10.1312 223.999 10.2531 222.992C12.388 225.171 17.8568 224.713 18.4509 221.529C19.5149 218.681 14.3277 214.885 11.6852 213.943C11.7162 213.478 11.7449 213.01 11.7759 212.542C11.8491 211.516 11.9422 210.494 12.0441 209.474C14.0415 211.05 17.2162 211.361 19.3621 210.019C24.2635 206.951 18.1339 202.923 14.2101 200.95C14.0571 200.764 13.8221 200.662 13.5827 200.642C13.4763 200.591 13.3743 200.542 13.2723 200.496C13.6735 198.361 14.1503 196.242 14.6978 194.136C14.9749 194.238 15.2543 194.298 15.527 194.318C15.8396 195.424 16.6131 196.244 17.8789 196.477C18.6238 196.614 19.2446 196.042 19.4729 195.359C17.3802 193.606 16.0567 191.473 15.6621 188.982C15.5535 189.782 15.4625 190.596 15.4138 191.398C15.3849 191.387 15.3584 191.38 15.3296 191.367C14.8197 191.159 14.343 190.859 13.8997 190.536C12.9797 189.864 12.2903 189.132 11.643 188.219C11.3371 187.583 11.1087 186.885 11.0089 186.184C11.0045 186.155 10.9602 186.146 10.9424 186.166C10.3993 186.8 10.3551 187.485 10.5303 188.303C10.5347 188.325 10.5411 188.35 10.5478 188.372C10.5633 189.562 10.9978 190.826 11.7205 191.817C11.6185 192.203 11.5189 192.591 11.4081 192.972C11.2352 193.566 11.082 194.169 10.9357 194.772C10.8116 195.648 10.6123 196.497 10.364 197.348C10.3706 197.35 10.3773 197.352 10.3839 197.355C10.1445 198.636 9.94042 199.924 9.76086 201.212C9.2532 204.814 8.93843 208.443 8.61478 212.061C8.59039 212.349 8.57926 212.64 8.5704 212.928C4.54685 207.228 3.09498 200.514 3.78885 193.899C3.76668 193.843 3.75773 193.792 3.76438 193.73Z" fill="black"/>
<path d="M37.6913 148.305C39.999 148.558 42.2868 148.782 44.5701 149.034C44.5258 149.161 44.4748 149.276 44.4394 149.411C44.2066 150.282 44.4016 151.014 44.8316 151.628C42.5195 152.034 40.214 152.524 37.9506 152.994C37.7821 153.029 37.8375 153.286 38.006 153.253C40.4645 152.799 42.923 152.515 45.3859 152.255C46.3746 153.158 47.8664 153.743 48.9815 154.109C50.203 154.51 51.4067 154.663 52.5462 154.543C52.3777 156.124 53.0472 157.285 54.9271 157.691C56.838 158.101 58.7158 157.108 59.199 155.224C62.5531 156.463 66.8668 155.896 67.3723 152.384C69.629 152.852 71.8636 153.479 74.1247 153.872C74.342 153.909 74.393 153.568 74.1979 153.499C71.9944 152.717 69.7111 152.393 67.4167 152.114C67.4211 152.074 67.4322 152.038 67.4344 151.996C67.5098 150.651 66.5831 149.54 65.386 148.704C68.0551 148.208 70.7864 148.097 73.5264 148.354C73.87 148.385 73.8943 147.864 73.5573 147.822C70.4582 147.427 67.461 147.562 64.506 148.163C63.6481 147.698 62.7482 147.356 62.0166 147.161C61.0501 146.904 60.1034 146.822 59.2034 146.913C59.731 145.78 59.9638 144.612 59.4673 143.517C59.2345 143.005 58.5472 142.934 58.1482 143.268C57.2992 143.984 56.6318 144.807 56.1308 145.72C55.5344 144.188 54.5636 142.898 53.096 143.843C52.7768 144.049 52.5129 144.423 52.6282 144.827C52.9297 145.895 53.3398 146.911 53.8475 147.875C50.9523 145.891 46.6296 145.377 44.9382 148.228C42.5019 148.008 40.0499 147.984 37.6845 148.239C37.6469 148.245 37.6558 148.303 37.6913 148.305ZM56.5475 151.025C56.9111 150.945 57.2059 150.617 57.0818 150.24C57.4653 149.697 57.8999 149.105 58.3056 148.489C59.9926 147.899 62.0232 147.738 63.5972 148.361C62.4134 148.642 61.2317 148.992 60.0546 149.422C59.5868 149.593 59.9417 150.302 60.4094 150.118C61.7617 149.591 63.1427 149.19 64.5415 148.886C64.8984 149.152 65.2265 149.46 65.4748 149.861C65.9558 150.642 66.0689 151.336 65.927 151.934C64.6545 151.779 63.3844 151.613 62.1274 151.362C61.8038 151.298 61.7461 151.788 62.0454 151.783C63.34 151.763 64.6146 151.903 65.8826 152.111C64.9649 154.854 58.3564 155.273 56.88 151.371C56.8179 151.205 56.685 151.105 56.5364 151.036C56.5409 151.03 56.5453 151.027 56.5475 151.025ZM58.2036 154.789C57.8401 156.219 56.5011 156.813 55.0713 156.53C53.8476 156.288 53.3155 155.501 53.0694 154.461C54.1357 154.26 55.1355 153.807 56.0067 153.04C56.5476 153.747 57.3191 154.335 58.2036 154.789ZM45.9866 149.205C48.0217 149.445 50.0546 149.711 52.0985 150.067C52.4554 150.13 52.5773 149.52 52.2203 149.436C50.3094 148.986 48.3209 148.624 46.3103 148.383C47.0374 147.325 48.638 146.866 49.9016 147.217C50.438 147.23 50.9744 147.321 51.4754 147.487C52.2225 147.738 53.1227 148.13 53.4907 148.861C53.8365 149.143 54.189 149.524 54.5547 150.043C54.7343 150.26 54.9093 150.482 55.0866 150.699C55.1376 150.932 55.2929 151.127 55.499 151.247C54.6722 152.029 53.7832 152.526 52.83 152.743C52.7103 153.036 52.4354 153.246 52.0164 153.184C50.6752 152.985 49.2587 152.976 48.0173 152.371C47.8288 152.28 47.6404 152.165 47.4542 152.04C48.454 151.936 49.4559 151.83 50.4601 151.71C50.9988 151.646 50.8059 150.854 50.285 150.897C49.0723 150.992 47.8555 151.152 46.6384 151.336C46.2106 150.852 45.9135 150.267 45.9201 149.624C45.9224 149.471 45.96 149.34 45.9866 149.205Z" fill="black"/>
<path d="M42.1915 143.561C44.4881 143.621 46.7714 143.548 49.0636 143.359C49.3851 143.333 49.6467 143.036 49.6889 142.73C50.1367 139.569 51.1033 130.934 45.9913 130.608C41.1253 130.298 41.3736 138.429 41.6972 142.264C41.3492 142.734 41.4621 143.541 42.1915 143.561ZM42.9609 138.108C43.1515 136.873 43.3022 132.823 44.8118 132.38C45.6631 132.575 46.5143 132.767 47.3655 132.963C47.7867 133.532 48.0815 134.157 48.2434 134.838C48.4828 135.572 48.6092 136.306 48.6647 137.073C48.7799 138.697 48.5627 140.331 48.3233 141.941C47.7336 141.976 48.5959 141.978 48.0085 141.992C48.5427 141.183 48.4164 140.096 48.4519 139.103C48.5006 137.755 48.5937 136.394 48.1947 135.093C47.8644 134.011 46.3037 134.188 45.8936 135.088C45.3305 136.33 45.2929 137.775 45.171 139.114C45.0801 140.087 44.896 141.18 45.4258 141.983C44.9026 141.967 42.9321 141.965 42.4067 141.932C42.3956 141.932 42.3866 141.936 42.3755 141.936C42.5639 140.655 42.7614 139.382 42.9609 138.108Z" fill="black"/>
<path d="M61.2764 143.045C63.5731 143.104 65.8564 143.029 68.1486 142.843C68.47 142.816 68.7317 142.519 68.7738 142.213C69.2216 139.052 70.1882 130.418 65.0762 130.092C60.2103 129.781 60.4585 137.913 60.7822 141.748C60.4364 142.218 60.5471 143.025 61.2764 143.045ZM62.0458 137.589C62.2365 136.354 62.3871 132.304 63.8968 131.861C64.7481 132.056 65.5994 132.249 66.4507 132.444C66.8719 133.013 67.1667 133.639 67.3307 134.319C67.5701 135.053 67.6964 135.787 67.7518 136.554C67.8671 138.179 67.6498 139.812 67.4104 141.422C66.8207 141.457 67.6831 141.46 67.0956 141.473C67.6299 140.664 67.5035 139.577 67.539 138.584C67.5877 137.236 67.681 135.875 67.282 134.574C66.9517 133.492 65.3909 133.67 64.9807 134.57C64.4177 135.811 64.38 137.256 64.2581 138.595C64.1672 139.569 63.9833 140.662 64.5131 141.464C63.99 141.449 62.0192 141.446 61.4938 141.413C61.4827 141.413 61.4739 141.417 61.4628 141.417C61.649 140.138 61.8485 138.864 62.0458 137.589Z" fill="black"/>
<path d="M68.8542 168.755C69.3729 168.534 68.9982 167.727 68.4773 167.862C63.2921 169.216 58.3729 170.19 52.9705 169.729C47.4107 169.254 42.1193 167.618 37.3553 164.705C37.3465 164.701 37.3398 164.714 37.3465 164.719C46.3335 170.52 58.6967 173.107 68.8542 168.755Z" fill="black"/>
<path d="M42.6491 169.675C42.6203 169.653 42.5937 169.702 42.6203 169.724C46.0586 172.329 50.366 173.176 54.589 173.683C55.1499 173.75 55.1632 172.841 54.589 172.794C50.8936 172.491 45.7261 172.005 42.6491 169.675Z" fill="black"/>
<path d="M76.0245 264.649C76.9666 264.041 76.0911 262.529 75.1423 263.141C61.5265 271.929 43.8074 271.312 30.7702 261.594C30.655 261.507 30.5063 261.7 30.6172 261.793C43.8095 272.968 61.4089 274.052 76.0245 264.649Z" fill="black"/>
<path d="M34.5356 183.329C37.2291 182.701 39.8781 181.926 42.669 181.872C45.5687 181.819 48.1247 182.797 50.9246 183.163C52.2923 183.34 53.4806 183.143 54.8484 182.987C58.1559 182.611 61.0134 182.826 64.2987 183.528C64.9881 183.677 65.2607 182.695 64.589 182.471C59.0203 180.611 53.4406 182.376 47.8143 181.369C43.3407 180.569 38.4549 180.866 34.3804 182.965C34.1765 183.074 34.325 183.38 34.5356 183.329Z" fill="black"/>
</svg>
