<svg width="12" height="22" viewBox="0 0 12 22" fill="none" xmlns="http://www.w3.org/2000/svg">
<path d="M11.3387 0.460533L8.54755 0.456055C5.41182 0.456055 3.38537 2.53515 3.38537 5.75309V8.19538H0.579014C0.336512 8.19538 0.140137 8.39198 0.140137 8.63449V12.1731C0.140137 12.4156 0.336736 12.612 0.579014 12.612H3.38537V21.541C3.38537 21.7835 3.58174 21.9799 3.82424 21.9799H7.48574C7.72824 21.9799 7.92461 21.7833 7.92461 21.541V12.612H11.2059C11.4484 12.612 11.6448 12.4156 11.6448 12.1731L11.6461 8.63449C11.6461 8.51805 11.5998 8.40654 11.5176 8.32414C11.4354 8.24173 11.3235 8.19538 11.207 8.19538H7.92461V6.12502C7.92461 5.12993 8.16174 4.62476 9.458 4.62476L11.3382 4.62409C11.5805 4.62409 11.7769 4.42749 11.7769 4.18521V0.899415C11.7769 0.657358 11.5807 0.460981 11.3387 0.460533Z" fill="white"/>
</svg>
