<svg width="14" height="18" viewBox="0 0 14 18" fill="none" xmlns="http://www.w3.org/2000/svg">
<path d="M3.3999 8.15962V5.77308V4.6C3.3999 2.61177 5.01168 1 6.9999 1V1C8.98813 1 10.5999 2.61177 10.5999 4.6V5.77308V8.15962" stroke="#4B4B4B" stroke-width="2" stroke-linecap="round" stroke-linejoin="round"/>
<path d="M10.6 8.15967L12.7597 11.0231C12.9156 11.2299 13 11.4818 13 11.7408V11.7408C13 12.3991 12.4664 12.9327 11.8081 12.9327H2.19193C1.53364 12.9327 1 12.3991 1 11.7408V11.7408C1 11.4818 1.08436 11.2299 1.24032 11.0231L3.4 8.15967" stroke="#4B4B4B" stroke-width="2" stroke-linecap="round" stroke-linejoin="round"/>
<path d="M5.08139 15C5.03694 15 5.00024 15.0351 5.00024 15.0796C5.00024 16.1779 5.89567 17.0683 7.00024 17.0683C8.10481 17.0683 9.00024 16.1779 9.00024 15.0796C9.00024 15.0351 8.96355 15 8.9191 15H5.08139Z" fill="#4B4B4B"/>
</svg>
