<svg width="15" height="16" viewBox="0 0 15 16" fill="none" xmlns="http://www.w3.org/2000/svg">
<path d="M4.04134 2.92591C4.1754 2.84422 4.31157 2.76684 4.44982 2.69374C4.74935 2.53896 5.05935 2.40783 5.37983 2.30464C5.64166 2.21865 6.07946 2.02087 6.33291 2.20145C6.46697 2.29604 6.59683 2.23585 6.66386 2.12621C6.82934 2.2165 7.01997 2.27025 7.15193 2.28529C7.3593 2.30679 7.62531 2.28529 7.79288 2.14771C7.80126 2.14126 7.80754 2.13481 7.81592 2.12836C8.19924 2.2294 8.58256 2.32829 8.96379 2.42932C9.12717 2.47232 9.24447 2.36268 9.27799 2.23155C9.56286 2.27669 9.72626 1.91768 9.4749 1.74355C9.41415 1.70056 9.35131 1.66187 9.28637 1.62747C9.26962 1.53718 9.21097 1.45764 9.10624 1.42969C8.6098 1.30071 8.1029 1.24052 7.58971 1.25127C7.53524 1.25342 7.49125 1.26631 7.45355 1.28996C7.29645 1.25556 7.13725 1.24051 6.97596 1.24696C6.90684 1.25126 6.82935 1.25557 6.75394 1.26632C6.72461 1.22117 6.68063 1.18462 6.62198 1.16313C6.44602 1.09863 6.21353 1.09433 6.08156 1.25127C6.03129 1.31146 6.00406 1.3781 5.99777 1.44474C5.92236 1.45979 5.84694 1.47699 5.77153 1.49419C5.7443 1.49204 5.71499 1.49418 5.68357 1.50278C4.27596 1.85104 2.98147 2.6529 2.02212 3.76647C0.985263 4.97032 0.379893 6.50095 0.27935 8.10251C0.220699 9.02905 0.338003 9.96849 0.622877 10.8499C0.69619 11.0799 0.970581 11.0778 1.08579 10.9402C1.22403 10.9423 1.3623 10.8499 1.34135 10.6822C1.06695 8.45722 1.40629 6.02155 2.70078 4.23296C3.07573 3.78582 3.48417 3.36447 3.93871 3.00331C3.97432 2.97751 4.00783 2.95171 4.04134 2.92591Z" fill="#39B100"/>
<path d="M13.417 11.947C13.4485 11.9405 13.4799 11.9255 13.5113 11.9018C14.4832 11.1666 14.5901 10.0552 14.588 8.9223C14.6236 8.80621 14.6613 8.69012 14.6969 8.57619C14.8058 8.21933 14.9797 7.80873 14.8645 7.43252C14.8184 7.28204 14.7325 7.16166 14.6215 7.07567C14.6194 7.04557 14.6194 7.01547 14.6173 6.98753C14.5985 6.64572 14.1607 6.65002 14.0999 6.96173C13.9596 6.99613 13.9114 7.15951 13.9303 7.28849C14.0015 7.76144 14.0015 8.22793 13.9449 8.68153C13.8611 9.02334 13.7459 9.3544 13.5951 9.67256C13.2181 10.468 12.6357 11.1473 12.397 12.0115C12.376 12.0867 12.3886 12.1534 12.4179 12.2071C12.1289 12.6027 11.8188 12.9789 11.5025 13.3336C11.4816 13.3572 11.4669 13.3809 11.4544 13.4067C11.4167 13.4411 11.379 13.4755 11.3413 13.5077C11.3015 13.5142 11.2637 13.5271 11.2239 13.5443C11.1674 13.5314 11.1067 13.5335 11.0501 13.5593C10.606 13.7614 10.185 14.0064 9.79121 14.301C9.77864 14.3096 9.76607 14.3203 9.75559 14.3332C9.74512 14.3289 9.73257 14.3225 9.72 14.3182C9.58594 14.2752 9.4414 14.3461 9.31782 14.387C8.8549 14.5396 7.75309 14.7137 7.96884 15.4597C8.11757 15.9756 8.67477 15.8337 9.11674 15.6145C9.26755 15.593 9.40999 15.5371 9.53567 15.4489C9.60689 15.4941 9.69695 15.5048 9.79121 15.4511C10.4699 15.0555 11.1213 14.6127 11.7413 14.1247C11.8293 14.0559 11.8628 13.942 11.8482 13.8388C12.5352 13.368 13.0295 12.6887 13.417 11.947ZM8.98058 15.0835C8.9743 15.0835 8.97009 15.0835 8.96381 15.0835C8.9659 15.0727 8.968 15.062 8.9701 15.0512C9.01618 15.0383 9.06017 15.0276 9.10206 15.0147C9.06017 15.0383 9.02038 15.062 8.98058 15.0835Z" fill="#39B100"/>
<path d="M0.568598 5.90849C0.0637858 7.10375 -0.0681663 8.3893 0.0302825 9.69205C0.114069 10.7992 0.476433 11.7881 1.14463 12.6716C1.83168 13.5809 2.67165 14.2968 3.61843 14.8923C5.10354 15.8274 6.70385 16.1692 8.42566 15.8683C8.73776 15.8145 9.04147 15.707 9.35567 15.6576C10.5957 15.4577 11.5174 14.6773 12.3699 13.8368C12.8684 13.3466 13.2601 12.7232 13.6204 12.1127C13.9744 11.5172 14.2132 10.8508 14.5295 10.2273C14.9296 9.44053 15.0259 8.59998 14.9945 7.73148C14.9945 7.5939 14.9966 7.45631 14.9945 7.32088C14.9631 5.99879 14.4708 4.85082 13.6769 3.83829C13.4528 3.55237 13.1282 3.3417 12.8328 3.12242C11.7708 2.33347 10.6209 1.72079 9.36616 1.31449C8.94722 1.17905 8.53668 1.06511 8.09471 1.09091C8.01302 1.09521 7.92922 1.06511 7.84753 1.05222C5.68165 0.712556 3.91377 1.50581 2.42865 3.07943C2.16054 3.36319 1.9406 3.69211 1.6662 3.96727C1.12159 4.51116 0.855566 5.23132 0.568598 5.90849ZM2.42656 3.41479C2.99421 2.69248 3.71478 2.20448 4.5317 1.79818C5.30044 1.41767 6.07755 1.26934 6.90703 1.29299C7.41184 1.29514 7.91455 1.30374 8.36071 1.6047C8.44031 1.65845 8.55133 1.66704 8.65187 1.67779C9.5819 1.77668 10.4219 2.11849 11.2388 2.58069C11.8714 2.93755 12.4788 3.3116 13.0276 3.79959C13.7335 4.42732 14.1755 5.19908 14.4436 6.11057C14.7306 7.08656 14.8437 8.07329 14.6049 9.05573C14.431 9.76514 14.1964 10.481 13.8592 11.1216C13.4486 11.902 12.9606 12.6587 12.3992 13.3316C11.664 14.2087 10.778 14.9245 9.63218 15.1847C8.9975 15.3287 8.35653 15.5093 7.71137 15.5458C6.1341 15.6404 4.72232 15.0944 3.41106 14.2216C2.54387 13.6433 1.80444 12.9403 1.21374 12.0675C0.83461 11.5086 0.623059 10.8938 0.463865 10.2338C0.176897 9.04282 0.327706 7.87766 0.562308 6.71465C0.771774 5.68062 1.30172 4.81213 1.94897 4.01027C2.11026 3.81249 2.26946 3.61472 2.42656 3.41479Z" fill="#251C1C"/>
<path d="M2.01379 12.0994C2.60658 12.8841 3.33132 13.501 4.15033 14.017C5.43435 14.8231 6.81475 15.1177 8.30195 14.8597C8.57216 14.8124 8.83399 14.7199 9.1042 14.677C10.1746 14.5028 10.9705 13.83 11.7058 13.1055C12.1352 12.682 12.4745 12.1446 12.7866 11.6157C13.0924 11.0998 13.2998 10.5258 13.5721 9.98836C13.9177 9.30904 14.0015 8.58242 13.9722 7.83431C13.9722 7.71607 13.9743 7.59783 13.9722 7.4796C13.9449 6.33808 13.5197 5.34705 12.8348 4.47425C12.64 4.22703 12.3614 4.0443 12.1058 3.85513C11.1884 3.17366 10.1976 2.64482 9.11259 2.29441C8.75021 2.17832 8.39621 2.07943 8.01499 2.10093C7.94377 2.10523 7.87255 2.07944 7.80133 2.06869C5.9308 1.77632 4.40587 2.45994 3.12394 3.81858C2.89353 4.06365 2.70294 4.34742 2.46624 4.58604C1.99704 5.05683 1.76662 5.67597 1.51946 6.26285C1.08377 7.29472 0.970662 8.40399 1.05445 9.52831C1.12567 10.4806 1.43776 11.3341 2.01379 12.0994ZM1.51317 6.95506C1.69331 6.06291 2.15203 5.31265 2.70921 4.62044C2.84745 4.44846 2.98572 4.27863 3.12187 4.1045C3.61202 3.48107 4.23412 3.05972 4.93792 2.70931C5.60193 2.3804 6.27223 2.25356 6.9886 2.27291C7.42429 2.27506 7.85788 2.28366 8.2433 2.54163C8.31033 2.58677 8.40876 2.59537 8.49465 2.60397C9.2969 2.68996 10.0238 2.98448 10.7297 3.38218C11.2764 3.68959 11.8 4.01206 12.2734 4.43341C12.883 4.97515 13.2642 5.64157 13.4967 6.42837C13.7439 7.27108 13.8423 8.12237 13.6349 8.97152C13.4862 9.5842 13.283 10.2012 12.9898 10.7558C12.6358 11.4287 12.2148 12.0822 11.7288 12.6626C11.0941 13.4194 10.3296 14.0363 9.34089 14.2621C8.7921 14.3867 8.24119 14.5415 7.68401 14.5738C6.32249 14.6555 5.1034 14.1847 3.97229 13.4301C3.2245 12.9314 2.58564 12.323 2.07454 11.5706C1.74778 11.0869 1.56343 10.558 1.42728 9.98836C1.18011 8.96508 1.30789 7.96114 1.51317 6.95506Z" fill="#251C1C"/>
<path d="M12.4201 9.40717C12.4432 9.48456 12.5291 9.54045 12.5898 9.60494C12.6443 9.5297 12.7218 9.4609 12.7448 9.37491C12.7532 9.34052 12.6443 9.27173 12.5605 9.19434C12.4976 9.28678 12.4076 9.36417 12.4201 9.40717Z" fill="#251C1C"/>
<path d="M12.5667 7.12396C12.6002 7.07451 12.5814 6.92618 12.5416 6.90038C12.3489 6.77785 12.2735 6.94768 12.1646 7.10031C12.3175 7.29809 12.4557 7.28949 12.5667 7.12396Z" fill="#251C1C"/>
<path d="M12.0432 11.1234C12.1877 11.1815 12.2568 11.0525 12.2673 10.9364C12.2736 10.8611 12.2044 10.7773 12.1814 10.7279C11.9782 10.6956 11.8923 10.7752 11.9007 10.9084C11.9049 10.9858 11.9761 11.0976 12.0432 11.1234Z" fill="#251C1C"/>
<path d="M11.1968 5.44246C11.4042 5.39517 11.3812 5.22534 11.3518 5.04691C11.1696 5.02971 11.0062 5.01466 10.9811 5.23823C10.9664 5.38227 11.0733 5.47041 11.1968 5.44246Z" fill="#251C1C"/>
<path d="M7.1038 8.90058C7.11637 9.55195 7.12268 10.2033 7.12896 10.8569C7.13106 11.046 7.21693 11.1191 7.43897 11.0933C7.53113 10.2377 7.33213 9.39287 7.40125 8.47708C7.5772 8.59961 7.71336 8.677 7.82857 8.77804C8.06946 8.99087 8.29987 9.21444 8.53237 9.43802C9.13144 10.0141 9.72632 10.5967 10.3275 11.1707C10.4825 11.319 10.6543 11.4459 10.847 11.6071C10.9287 11.4631 10.981 11.3685 11.0208 11.2997C10.5935 10.8719 10.1997 10.4634 9.78917 10.07C9.09374 9.40362 8.38574 8.7501 7.69241 8.08153C7.56464 7.95899 7.44315 7.8601 7.27558 7.93534C7.09963 8.01274 7.02421 8.16752 7.05353 8.37174C7.07657 8.54802 7.09961 8.7243 7.1038 8.90058Z" fill="#251C1C"/>
<path d="M10.4639 12.0996C10.3969 12.2479 10.3215 12.3404 10.3278 12.4285C10.3319 12.4973 10.4409 12.6134 10.4995 12.6113C10.6629 12.607 10.6923 12.4608 10.6629 12.3275C10.6462 12.263 10.5666 12.2157 10.4639 12.0996Z" fill="#251C1C"/>
<path d="M9.25098 4.13711C9.3599 4.12636 9.46256 4.06402 9.6427 3.99093C9.50655 3.88774 9.43951 3.7996 9.39133 3.8082C9.29498 3.8297 9.20701 3.90279 9.11694 3.95438C9.16093 4.01887 9.21118 4.14141 9.25098 4.13711Z" fill="#251C1C"/>
<path d="M7.2733 13.3684C7.26073 13.3985 7.3927 13.4931 7.45763 13.5576C7.54351 13.4522 7.63985 13.3533 7.70688 13.2351C7.71945 13.2136 7.61474 13.1233 7.52048 13.0137C7.41784 13.1534 7.32148 13.2523 7.2733 13.3684Z" fill="#251C1C"/>
<path d="M6.55299 3.66481C6.65143 3.60462 6.72894 3.51004 6.81482 3.42834C6.74779 3.3703 6.6619 3.24991 6.62 3.26496C6.52155 3.29721 6.44404 3.3961 6.31836 3.49928C6.43566 3.58742 6.52575 3.68201 6.55299 3.66481Z" fill="#251C1C"/>
<path d="M5.03026 4.25195C4.77262 4.08857 4.60086 4.08642 4.427 4.2971C4.48146 4.39168 4.53591 4.48413 4.6176 4.62386C4.75794 4.49488 4.87107 4.39599 5.03026 4.25195Z" fill="#251C1C"/>
<path d="M4.79149 12.101C4.78311 12.0408 4.66162 11.9355 4.63858 11.9483C4.52128 12.0107 4.42073 12.101 4.26782 12.2192C4.38931 12.3203 4.45006 12.4041 4.53175 12.432C4.64486 12.4707 4.81453 12.2644 4.79149 12.101Z" fill="#251C1C"/>
<path d="M3.27062 6.00121C3.36069 5.96036 3.43609 5.88942 3.5513 5.80558C3.45494 5.71959 3.37325 5.6336 3.36277 5.6422C3.28108 5.70669 3.20779 5.78623 3.14914 5.87007C3.14076 5.88082 3.24967 6.00981 3.27062 6.00121Z" fill="#251C1C"/>
<path d="M3.00052 10.7544C3.13038 10.7738 3.24977 10.5846 3.20369 10.4341C3.18693 10.3782 3.11991 10.3374 3.02775 10.2363C2.94396 10.389 2.86855 10.4921 2.83713 10.6061C2.82875 10.6405 2.93768 10.7458 3.00052 10.7544Z" fill="#251C1C"/>
<path d="M1.99291 8.245C2.14163 8.32884 2.2338 8.22136 2.3113 8.10742C2.33434 8.07303 2.33643 8.02573 2.35738 7.95049C2.29454 7.91394 2.25892 7.8817 2.22122 7.8731C2.06621 7.84085 1.96776 7.92469 1.92796 8.06442C1.91539 8.11602 1.94892 8.2192 1.99291 8.245Z" fill="#251C1C"/>
</svg>
