<svg width="21" height="13" viewBox="0 0 21 13" fill="none" xmlns="http://www.w3.org/2000/svg">
<path d="M18.3538 5.76068C18.638 5.39327 18.8637 5.09847 19.0303 4.87606C20.2304 3.28049 20.7506 2.26123 20.5912 1.81685L20.5286 1.71277C20.487 1.65026 20.3793 1.59286 20.206 1.54089C20.0325 1.48897 19.8106 1.48067 19.5401 1.51495L16.5432 1.53609C16.4739 1.52918 16.4044 1.53079 16.3351 1.54089C16.2657 1.55144 16.2207 1.56203 16.1997 1.57213C16.1788 1.58272 16.1616 1.5912 16.1478 1.59811L16.1062 1.62935C16.0715 1.65004 16.0334 1.68657 15.9918 1.73875C15.9502 1.7909 15.9153 1.85135 15.8877 1.92096C15.5617 2.76031 15.1906 3.54086 14.7743 4.26235C14.5176 4.6925 14.2816 5.06566 14.0668 5.38088C13.8517 5.69682 13.6713 5.92915 13.5256 6.07801C13.38 6.22714 13.2481 6.34706 13.1303 6.43694C13.0121 6.52746 12.9221 6.56538 12.8598 6.5516C12.7973 6.53782 12.7383 6.52404 12.6829 6.50978C12.5857 6.44753 12.5075 6.36271 12.4487 6.25496C12.3897 6.1477 12.35 6.01231 12.329 5.84918C12.3083 5.68627 12.2959 5.54567 12.2927 5.42755C12.289 5.3097 12.2909 5.14334 12.298 4.92802C12.3049 4.71293 12.3083 4.56752 12.3083 4.491C12.3083 4.22766 12.3136 3.94139 12.324 3.63258C12.3343 3.324 12.3431 3.07929 12.35 2.89888C12.3569 2.71874 12.3603 2.52779 12.3603 2.32652C12.3603 2.12569 12.3481 1.96759 12.3237 1.85296C12.2994 1.73875 12.2628 1.62777 12.2146 1.52002C12.1659 1.41272 12.0948 1.32929 12.0011 1.2705C11.9074 1.21144 11.7913 1.16481 11.6526 1.12986C11.2847 1.04643 10.8164 1.00187 10.2477 0.994545C8.95732 0.981216 8.1283 1.06438 7.76066 1.24452C7.61499 1.32103 7.48309 1.42488 7.36524 1.55678C7.24025 1.70958 7.22302 1.79297 7.31332 1.8063C7.72965 1.86881 8.02426 2.01816 8.19772 2.2539L8.26023 2.37866C8.3087 2.46918 8.35721 2.62867 8.4059 2.85751C8.45441 3.08638 8.48565 3.33958 8.49965 3.61715C8.53434 4.12355 8.53434 4.55693 8.49965 4.91792C8.46496 5.27887 8.43211 5.55967 8.40087 5.7605C8.3696 5.96177 8.32274 6.12468 8.26045 6.24944C8.19794 6.37465 8.15638 6.45094 8.13547 6.47873C8.11456 6.50628 8.09732 6.52374 8.08354 6.53069C7.99325 6.56515 7.89973 6.58261 7.80256 6.58261C7.70536 6.58261 7.58747 6.53388 7.4487 6.43668C7.3099 6.33996 7.16584 6.20623 7.01694 6.03619C6.86759 5.86641 6.69961 5.6286 6.51211 5.32322C6.32484 5.01832 6.13043 4.65732 5.92938 4.24122L5.76302 3.93928C5.65895 3.74536 5.51669 3.4625 5.33633 3.09141C5.15596 2.72032 4.99625 2.36143 4.85771 2.01426C4.80211 1.86881 4.71891 1.75783 4.60796 1.68131L4.55604 1.65007C4.52135 1.62248 4.46574 1.59286 4.38945 1.56181C4.31294 1.53057 4.23345 1.50804 4.15003 1.49404L1.29878 1.51473C1.00743 1.51473 0.809835 1.58092 0.705762 1.71277L0.664162 1.77506C0.643137 1.80998 0.632812 1.86558 0.632812 1.94165C0.632812 2.01816 0.653725 2.11169 0.695324 2.22244C1.11166 3.20082 1.56433 4.14428 2.05328 5.05278C2.54248 5.96177 2.96734 6.69382 3.32807 7.24873C3.6888 7.80409 4.05643 8.3275 4.4312 8.82012C4.80597 9.31274 5.05388 9.62819 5.17519 9.76677C5.29649 9.9058 5.39186 10.0099 5.46128 10.079L5.72139 10.329C5.88775 10.4954 6.13246 10.6948 6.45508 10.9274C6.77767 11.1599 7.13475 11.3887 7.52698 11.6139C7.91876 11.8396 8.37508 12.0231 8.89526 12.1656C9.41548 12.3081 9.92188 12.3652 10.4145 12.3372H11.6112C11.8541 12.3165 12.0378 12.2405 12.1627 12.1084L12.2042 12.0564C12.2318 12.0151 12.258 11.9507 12.2823 11.8641C12.3065 11.7775 12.3189 11.6819 12.3189 11.578C12.3117 11.2798 12.3345 11.0105 12.3865 10.7715C12.4384 10.5321 12.4974 10.352 12.5634 10.2302C12.6293 10.1091 12.7037 10.0066 12.7871 9.92322C12.8704 9.8398 12.9292 9.78994 12.9641 9.77248C12.9988 9.75547 13.0266 9.74331 13.0473 9.73595C13.2136 9.68053 13.4096 9.73433 13.6353 9.89724C13.8607 10.0606 14.0723 10.2614 14.2701 10.5008C14.4677 10.7403 14.7053 11.0089 14.9829 11.3073C15.2602 11.6056 15.5031 11.8275 15.7113 11.9732L15.9194 12.0984C16.0582 12.1814 16.2383 12.2577 16.4605 12.3273C16.6825 12.3965 16.8769 12.4139 17.0432 12.3792L19.7072 12.3374C19.9708 12.3374 20.1755 12.2942 20.3212 12.2074C20.4669 12.1212 20.5535 12.0252 20.5813 11.9213C20.6089 11.8172 20.6107 11.6998 20.5866 11.5677C20.5623 11.436 20.5379 11.3441 20.5138 11.2922C20.4895 11.2402 20.4669 11.1966 20.446 11.1621C20.0991 10.5378 19.4366 9.77105 18.4584 8.86232L18.4375 8.84163L18.4272 8.83109L18.4169 8.82095H18.4064C17.9623 8.39771 17.6815 8.11323 17.5636 7.96733C17.3486 7.69025 17.2998 7.40923 17.418 7.12479C17.5007 6.9091 17.8127 6.45462 18.3538 5.76068Z" fill="white"/>
</svg>
