<svg width="44" height="37" viewBox="0 0 44 37" fill="none" xmlns="http://www.w3.org/2000/svg">
<path d="M5.34239 12.6137C5.83069 13.6139 6.32687 14.6082 6.83092 15.6006C7.89415 17.6955 9.00068 19.7629 10.1624 21.8067C11.2925 23.7934 12.4247 25.7839 13.6868 27.6899C14.3011 28.6172 14.8996 29.5643 15.575 30.4503C16.2976 31.3974 16.9789 32.4783 17.9673 33.1616C18.9104 33.8133 19.8732 32.7402 19.7157 31.8168C19.5385 30.7653 18.8769 29.7435 18.4083 28.7925C17.9161 27.7942 17.3569 26.8295 16.8312 25.8509C15.7502 23.8367 14.5965 21.8618 13.5037 19.8515C12.4424 17.8984 11.391 15.9353 10.3573 13.9664C9.84142 12.9819 9.33146 11.9935 8.83135 11.0011C8.30564 9.95955 7.87839 8.71913 7.01796 7.90989C6.00002 6.95299 3.911 7.55942 4.04095 9.14245C4.14333 10.4065 4.79306 11.4914 5.34239 12.6137Z" fill="#39B100"/>
<path d="M17.682 21.0065C18.4262 24.3674 19.2098 27.7186 19.9246 31.0855C20.0683 31.7628 20.6236 31.9656 21.1296 31.8396C21.1847 32.7039 22.3286 33.4581 23.1536 32.9323C25.6443 31.3473 26.2823 28.3526 27.0837 25.7102C28.0642 22.4792 28.9403 19.199 29.7535 15.9207C30.102 14.5148 31.116 12.2644 30.3048 10.8782C29.9859 10.3328 29.3774 10.0513 28.7651 10.1399C27.8751 10.2698 27.314 11.142 27.0305 11.9316C25.8728 15.1547 25.16 18.5945 24.2779 21.9004C23.8073 23.6645 23.4194 25.4464 22.9784 27.2185C22.7224 28.2482 22.4487 29.2346 21.9723 30.1482C21.4406 26.9113 20.9976 23.6626 20.5566 20.4138C20.3282 18.7304 20.0939 17.0469 19.8419 15.3674C19.6017 13.7706 19.5859 11.8607 19.0071 10.3564C18.3534 8.65921 15.8213 8.83642 15.7504 10.7975C15.6894 12.4435 16.288 14.2432 16.603 15.8577C16.9436 17.5805 17.302 19.2935 17.682 21.0065Z" fill="#39B100"/>
<path d="M43.3785 10.902C42.8508 10.776 42.6126 10.4531 42.5456 9.92344C42.522 9.74033 42.333 9.56512 42.1912 9.41155C41.6143 8.79133 41.0079 8.19471 40.4447 7.56071C39.5508 6.54868 38.7357 5.45788 37.7886 4.499C36.5659 3.25857 35.2172 2.14219 33.9788 0.91948C33.5318 0.476468 33.1242 0.378025 32.5454 0.529634C31.9685 0.679273 31.3699 0.793466 30.7753 0.819062C30.031 0.850565 29.2789 0.801363 28.5346 0.742295C26.7921 0.600531 25.0555 0.364248 23.313 0.289429C20.0327 0.147665 16.7485 0.0925402 13.4663 0C13.4663 0.0118136 13.4663 0.0236119 13.4643 0.0334566C12.2869 0.0334566 11.1095 0.0354256 9.9301 0.0334566C9.17796 0.0334566 8.1187 0.633997 8.03994 1.32706C7.93559 2.24459 7.28778 2.65411 6.7286 3.17982C6.4943 3.39837 6.23046 3.58348 5.99419 3.79809C4.65531 5.01884 3.31641 6.2376 1.98935 7.47212C1.70582 7.73596 1.4735 8.05689 1.21951 8.35223C0.987172 8.62001 0.784367 8.91733 0.526436 9.15558C-0.192227 9.81714 -0.194183 10.2562 0.638679 10.7012C1.70781 11.2722 2.50525 12.1267 3.26329 13.0324C4.7971 14.8675 5.94299 16.9683 7.27006 18.9432C8.62469 20.9554 9.93601 22.9972 11.3655 24.9563C12.6886 26.7717 14.1436 28.4906 15.5357 30.2567C16.3961 31.3495 17.2683 32.4343 18.0973 33.5507C18.6683 34.3226 19.2176 35.118 19.702 35.9489C20.1863 36.7778 20.8932 36.9019 21.5508 36.1773C22.106 35.5709 22.5904 34.8877 23.2086 34.356C25.6757 32.2316 27.8081 29.7802 30.0487 27.4372C31.8483 25.5568 33.646 23.6726 35.4358 21.7824C36.7116 20.4376 37.9265 19.0298 39.2575 17.7401C40.5196 16.5174 41.3899 14.9029 43.1225 14.1232C44.044 13.7078 44.2468 12.0519 43.6974 11.1599C43.6285 11.0477 43.4986 10.9296 43.3785 10.902ZM33.7248 3.08729C36.2234 5.13105 38.5408 7.28111 40.2459 10.3054C39.7477 10.4117 39.478 10.5259 39.2122 10.5181C35.5618 10.3881 31.9153 10.2424 28.003 10.0889C28.9324 8.64365 29.9385 7.57843 30.8324 6.42857C31.7204 5.28462 32.4922 4.03435 33.7248 3.08729ZM31.6594 2.17963C31.6594 2.47497 31.7125 2.64624 31.6515 2.74075C30.665 4.24896 29.907 5.91076 28.4972 7.1315C27.5876 7.91907 27.2706 7.95647 26.5421 6.96806C25.8667 6.0525 25.1914 5.135 24.5613 4.18794C24.1281 3.53819 23.7875 2.83329 23.7954 1.85867C26.4259 1.96499 29.0229 2.07134 31.6594 2.17963ZM25.6029 8.4054C25.8746 8.74799 26.0065 9.20085 26.2664 9.7364C23.2559 9.94511 20.4836 8.99215 17.5932 9.25402C18.7943 6.97399 20.3832 5.11334 22.4801 3.59529C23.376 5.38112 24.4353 6.92672 25.6029 8.4054ZM11.7041 1.6598C13.6612 1.59089 15.6204 1.53576 17.5795 1.50819C18.5423 1.49638 19.5051 1.54759 20.4659 1.57909C20.7061 1.58697 20.9463 1.63226 21.3559 1.68148C20.6648 2.96129 19.824 3.96543 18.9281 4.95187C18.052 5.91665 17.2861 6.97792 16.3804 8.11203C16.0535 7.84031 15.7562 7.67887 15.577 7.43078C14.1554 5.46972 12.5074 3.7134 10.5582 1.94135C11.0583 1.81337 11.3773 1.67162 11.7041 1.6598ZM5.03731 6.58019C6.21671 5.49727 7.4256 4.44587 8.59909 3.35311C9.06967 2.91601 9.46149 3.1306 9.82574 3.43185C11.3438 4.68607 12.7221 6.06826 13.6869 7.81274C13.9349 8.25969 14.2303 8.67713 14.6339 9.31113C10.7118 9.20284 7.03379 9.10044 3.33809 8.99805C3.49364 8.50188 4.44269 7.12755 5.03731 6.58019ZM19.257 32.5111C18.9262 32.2237 18.6938 32.078 18.5363 31.8752C17.5538 30.6052 16.6029 29.3136 15.6184 28.0495C14.4587 26.561 13.2084 25.1374 12.1137 23.6017C10.5425 21.3965 9.07361 19.1184 7.56737 16.8659C6.38207 15.0899 5.30112 13.2411 3.87561 11.6325C3.68659 11.4198 3.52709 11.1797 3.37155 10.9414C3.31838 10.8587 3.31646 10.7426 3.26526 10.5457C3.80672 10.4492 4.32648 10.2739 4.84234 10.2818C6.94123 10.3153 9.03819 10.4117 11.1371 10.4708C12.2062 10.5023 13.2753 10.5338 14.3444 10.5082C14.8938 10.4964 15.2364 10.6854 15.4018 11.1973C15.6715 12.0381 15.9688 12.8493 16.0732 13.7609C16.3882 16.5194 16.6462 19.2877 17.3609 21.9911C18.2134 25.2221 18.9242 28.4866 19.255 31.822C19.2708 31.9854 19.257 32.1528 19.257 32.5111ZM20.7652 31.2471C20.6608 30.6426 20.5978 30.2587 20.527 29.8767C20.1903 28.0574 19.9126 26.2243 19.4972 24.4228C19.0247 22.3829 18.4064 20.3785 17.9004 18.3466C17.7724 17.8386 17.8689 17.2814 17.7999 16.7557C17.6838 15.8362 17.4908 14.9245 17.3806 14.0051C17.2467 12.8788 17.164 11.7467 17.0596 10.6244C17.9949 10.4708 25.217 10.965 26.0046 11.221C26.1798 12.7331 21.9879 28.465 20.7652 31.2471ZM40.2065 14.5426C39.0212 15.464 38.334 16.7754 37.2944 17.7933C36.3533 18.7148 35.4515 19.6776 34.5478 20.6365C32.5237 22.7885 30.5174 24.9524 28.4933 27.1025C26.9792 28.7111 25.469 30.3237 23.9175 31.8949C23.3563 32.4619 22.679 32.9089 22.0529 33.4129C21.9938 33.3716 21.9328 33.3322 21.8718 33.2928C21.9289 32.9955 21.9623 32.6923 22.0489 32.4029C22.5097 30.8317 23.0098 29.2722 23.443 27.6951C23.8013 26.3897 24.0691 25.0626 24.4058 23.7513C25.1343 20.9259 25.8726 18.1024 26.6228 15.2809C26.9674 13.9814 27.3473 12.6937 27.7372 11.3076C28.0778 11.3076 28.253 11.2879 28.4243 11.3096C30.1491 11.5262 31.8996 11.3746 33.6204 11.7565C34.406 11.9318 35.2546 11.8136 36.0757 11.8372C37.7079 11.8865 39.3402 11.9396 40.9173 11.9908C41.5119 13.1761 40.8838 14.0169 40.2065 14.5426Z" fill="#251C1C"/>
</svg>
