<svg width="120" height="164" viewBox="0 0 120 164" fill="none" xmlns="http://www.w3.org/2000/svg">
<path d="M119.211 91.859C119.076 94.0964 118.865 96.3253 118.579 98.5458C118.01 102.991 117.15 107.402 116.004 111.742C115.427 113.912 114.766 116.061 114.028 118.185C113.299 120.308 112.486 122.411 111.589 124.475C109.798 128.605 107.687 132.607 105.214 136.395C102.809 140.069 100.083 143.55 97.0069 146.714C96.9985 146.744 96.9859 146.773 96.969 146.798C96.969 146.798 96.9732 146.798 96.9732 146.803C96.9227 146.87 96.8721 146.937 96.8215 147.001C96.6741 147.237 96.5982 147.527 96.3202 147.637C96.2528 147.662 96.1896 147.671 96.1264 147.675C96.0674 147.717 96.0042 147.763 95.9368 147.805C95.9241 147.81 95.9115 147.818 95.9031 147.822C92.937 150.725 89.6844 153.35 86.1453 155.558C82.2776 157.972 78.0896 159.911 73.6953 161.204C69.3051 162.493 64.7211 163.147 60.1498 163.109C55.5785 163.062 51.0198 162.333 46.6717 160.985C42.3237 159.628 38.1905 157.648 34.3734 155.208C30.5562 152.769 27.0592 149.87 23.8993 146.651C20.731 143.44 17.9039 139.914 15.4055 136.172C10.4044 128.697 6.69682 120.397 4.2026 111.768C3.57904 109.61 3.03975 107.428 2.57208 105.228C2.1002 103.029 1.69995 100.817 1.37553 98.5921C0.735126 94.1427 0.385429 89.6469 0.326444 85.1427C0.229541 76.1428 1.27863 67.0923 3.65488 58.362C6.03534 49.6443 9.71768 41.2385 14.7735 33.6837C17.2972 29.9085 20.1664 26.3523 23.3853 23.1206C26.6042 19.8973 30.1644 16.9858 34.0532 14.5631C37.9335 12.1361 42.1383 10.1895 46.5411 8.87488C50.9481 7.56449 55.549 6.89034 60.1498 6.89455C64.7464 6.9114 69.343 7.59399 73.7416 8.92544C78.1402 10.2527 82.3281 12.2119 86.1958 14.6473C88.1297 15.865 89.9793 17.2091 91.7488 18.6501C93.51 20.0953 95.1868 21.6375 96.7752 23.2638C99.9604 26.5082 102.771 30.0939 105.24 33.8818C107.704 37.6739 109.815 41.6809 111.606 45.8101C112.499 47.8747 113.312 49.9772 114.041 52.1008C114.778 54.2244 115.435 56.3732 116.013 58.5432C117.159 62.883 118.014 67.2945 118.583 71.7397C118.869 73.9602 119.076 76.1934 119.211 78.4307C119.35 80.668 119.421 82.9054 119.421 85.147C119.43 87.3843 119.354 89.6259 119.211 91.859ZM119.185 85.147C119.168 80.6807 118.869 76.2102 118.237 71.7903C117.601 67.3704 116.657 62.9968 115.381 58.7243C114.74 56.5881 114.024 54.4772 113.232 52.3999C112.431 50.3227 111.551 48.2792 110.595 46.2736C108.682 42.2623 106.445 38.4112 103.896 34.7961C101.355 31.1767 98.4816 27.7975 95.3259 24.7301C93.7459 23.2006 92.0859 21.7554 90.3543 20.4071C88.6311 19.0546 86.8236 17.8032 84.9572 16.6698C81.22 14.3987 77.2133 12.5743 73.0338 11.3566C68.8501 10.1431 64.5105 9.5069 60.1624 9.51954C55.8144 9.53218 51.479 10.1768 47.3079 11.4072C43.1369 12.6375 39.1427 14.4746 35.4183 16.7498C31.6938 19.0293 28.2558 21.7891 25.1338 24.8692C22.0076 27.9492 19.1974 31.3537 16.7116 34.9899C11.7358 42.2666 8.05768 50.4154 5.56768 58.9055C4.94833 61.0291 4.40483 63.178 3.93716 65.3437C3.46528 67.5052 3.06503 69.6878 2.74061 71.883C2.09178 76.2692 1.75472 80.706 1.68731 85.1512C1.58619 94.0331 2.64792 102.961 5.02417 111.549C6.19966 115.842 7.72905 120.043 9.5618 124.1C11.3945 128.158 13.5686 132.064 16.0796 135.738C18.5949 139.408 21.4473 142.846 24.624 145.943C27.8092 149.031 31.3062 151.8 35.1023 154.062C38.8899 156.329 42.9515 158.133 47.1815 159.321C49.2966 159.911 51.4495 160.366 53.6193 160.656C55.7891 160.951 57.98 161.078 60.1666 161.065C64.5399 161.023 68.8964 160.353 73.0843 159.102C77.2681 157.846 81.2748 156.005 85.0119 153.713C86.8826 152.571 88.6816 151.311 90.409 149.95C92.1365 148.593 93.788 147.14 95.3722 145.606C98.5279 142.534 101.397 139.151 103.938 135.523C106.482 131.9 108.715 128.048 110.628 124.037C111.585 122.032 112.461 119.984 113.261 117.907C114.058 115.825 114.774 113.714 115.41 111.582C116.687 107.31 117.626 102.932 118.263 98.5163C118.882 94.0795 119.173 89.6132 119.185 85.147Z" fill="#1D1D1B"/>
<path d="M109.701 61.5549C111.732 69.2571 112.701 77.2037 112.722 85.1461C112.688 93.0884 111.715 101.031 109.684 108.729L108.858 111.602C108.564 112.555 108.235 113.494 107.927 114.442C107.784 114.918 107.595 115.378 107.422 115.85L106.899 117.248C106.811 117.48 106.731 117.716 106.634 117.948L106.343 118.639L105.762 120.021C104.173 123.682 102.299 127.23 100.108 130.588C97.9126 133.938 95.4183 137.115 92.5997 139.988C89.7769 142.858 86.6464 145.453 83.2085 147.59C79.7747 149.73 76.0587 151.436 72.1614 152.583C68.2726 153.737 64.2069 154.302 60.1538 154.289C56.0965 154.247 52.0602 153.59 48.2051 152.389C44.3501 151.184 40.6803 149.439 37.2929 147.282C37.0738 147.156 36.8716 147.008 36.6652 146.869L36.0458 146.443L34.8071 145.588L33.6148 144.67L33.0207 144.21C32.8227 144.059 32.6205 143.911 32.4351 143.743L31.2933 142.765C30.9141 142.436 30.5223 142.125 30.1684 141.771L29.0772 140.738L28.5337 140.22C28.3525 140.047 28.1882 139.862 28.0112 139.681C25.2052 136.833 22.6984 133.706 20.4864 130.39C16.0499 123.758 12.7552 116.406 10.5433 108.754L9.77225 105.868L9.67535 105.506L9.59108 105.143L9.42677 104.414L9.09814 102.956L8.93382 102.227L8.79479 101.494L8.52093 100.024C8.32291 99.0463 8.1923 98.0603 8.04484 97.0744C7.48027 93.1264 7.15585 89.1404 7.10108 85.1503C7.06737 81.1559 7.28225 77.1573 7.76676 73.1883C7.89316 72.1981 7.99849 71.1995 8.17966 70.2136L8.42402 68.7304L8.54621 67.9888C8.59255 67.7445 8.64732 67.4959 8.69367 67.2515L9.00123 65.781L9.15291 65.0479L9.22875 64.6813L9.32144 64.3189L10.0503 61.4032C12.1654 53.6715 15.439 46.2221 19.9177 39.5227C22.1591 36.1772 24.6996 33.0213 27.552 30.1562C27.7289 29.975 27.9017 29.7896 28.0829 29.6169L28.639 29.0986L29.7471 28.0663C30.1094 27.7124 30.5097 27.4006 30.8931 27.0719L32.0559 26.0944C32.2455 25.9301 32.452 25.7784 32.6542 25.6267L33.2609 25.1674L34.4743 24.2531L35.734 23.402L36.366 22.9764C36.5767 22.8374 36.7831 22.6857 37.0022 22.5635C40.4444 20.4147 44.1773 18.6956 48.083 17.5327C51.9886 16.3655 56.067 15.7588 60.1454 15.7588C64.2238 15.7799 68.2979 16.3908 72.1951 17.579C76.0924 18.7546 79.8126 20.4779 83.2422 22.6352C86.6802 24.784 89.8021 27.4006 92.6208 30.2784C95.4436 33.1562 97.9336 36.3373 100.124 39.6955C102.311 43.0578 104.186 46.6097 105.774 50.2712L106.356 51.6533L106.647 52.3443C106.743 52.576 106.824 52.812 106.912 53.0437L107.434 54.4468C107.603 54.9145 107.797 55.378 107.94 55.8541C108.248 56.8021 108.572 57.7417 108.867 58.694L109.701 61.5549ZM39.8503 142.327C39.9178 143.267 39.9473 144.202 40.1031 145.133C40.2464 145.963 40.5455 146.764 40.6719 147.594C40.6804 147.653 40.6719 147.708 40.6509 147.758C40.8994 147.884 41.148 148.011 41.3966 148.129C41.4598 148.184 41.5314 148.226 41.6157 148.259C41.6873 148.31 41.78 148.344 41.8811 148.356C41.9232 148.373 41.9654 148.386 42.0075 148.399C42.0201 148.407 42.037 148.411 42.0496 148.42C42.0496 148.42 42.0496 148.42 42.0539 148.42C42.0496 148.424 42.0454 148.432 42.0412 148.436C44.1731 149.435 46.3808 150.265 48.6391 150.901L49.3427 151.099C49.4986 151.141 49.6503 151.188 49.8062 151.226C49.8946 151.268 49.9958 151.297 50.0969 151.314C50.6319 151.386 51.1544 151.584 51.6726 151.744C51.8369 151.795 51.9802 151.782 52.1024 151.736L52.1866 151.752C52.4226 151.807 52.6669 151.833 52.9071 151.87L54.348 152.094C54.5882 152.127 54.8241 152.178 55.0685 152.195L55.7931 152.258L57.2425 152.384C57.4826 152.414 57.727 152.414 57.9714 152.418L58.7002 152.435L59.5218 152.456C59.5218 152.452 59.5218 152.443 59.5218 152.435C59.526 152.435 59.526 152.435 59.5302 152.435C59.7662 152.46 60.0021 152.469 60.2381 152.481C60.2802 152.49 60.3265 152.502 60.3729 152.507C60.7057 152.545 61.0049 152.566 61.3251 152.54C61.3335 152.54 61.3461 152.54 61.3546 152.54C61.3546 152.54 61.3546 152.54 61.3546 152.536C61.4135 152.532 61.4725 152.528 61.5315 152.515C61.6158 152.502 61.6874 152.469 61.7548 152.418C65.0959 152.254 68.4075 151.66 71.6095 150.703C71.7612 150.657 71.9129 150.606 72.0645 150.56C72.1741 150.594 72.292 150.594 72.4016 150.552C72.8103 150.383 73.219 150.21 73.6234 150.042C75.4183 149.406 77.1752 148.651 78.8773 147.792C78.8731 147.783 78.8731 147.779 78.8689 147.771C78.8647 147.75 78.8604 147.733 78.8562 147.712C78.9194 147.699 78.9826 147.678 79.0416 147.644C79.0542 147.64 79.0627 147.636 79.0711 147.627C79.2649 147.556 79.4461 147.467 79.6272 147.37C79.6272 147.379 79.6272 147.387 79.6272 147.396C80.4952 146.936 81.3504 146.452 82.1931 145.938C82.4037 145.82 82.6018 145.677 82.8082 145.546L83.4191 145.146L84.6367 144.345L85.8122 143.481L86.4021 143.047C86.6001 142.904 86.7981 142.761 86.9835 142.605L88.1126 141.678C88.4876 141.366 88.8752 141.071 89.2291 140.734L90.3119 139.753L90.8554 139.26C91.0366 139.095 91.2051 138.918 91.3779 138.746C91.3821 138.741 91.3863 138.733 91.3947 138.729C91.4748 138.695 91.5506 138.636 91.6265 138.556C91.7655 138.4 91.9045 138.248 92.0478 138.097C92.4143 137.768 92.7682 137.439 93.0758 137.056C93.1095 137.018 93.1306 136.98 93.1516 136.938C95.2582 134.709 97.2048 132.32 98.9701 129.8C101.224 126.59 103.209 123.173 104.906 119.616L105.53 118.272L105.842 117.602C105.947 117.379 106.036 117.147 106.133 116.92L106.697 115.555C106.882 115.095 107.089 114.649 107.249 114.181C107.586 113.254 107.936 112.327 108.256 111.396L109.158 108.573C111.407 100.989 112.49 93.0589 112.516 85.1376C112.482 77.2163 111.391 69.2908 109.141 61.7066L108.239 58.8836C107.915 57.9524 107.569 57.0254 107.232 56.0985C107.072 55.6308 106.866 55.1799 106.68 54.7249L106.111 53.3597C106.015 53.1322 105.926 52.9004 105.825 52.6771L105.513 52.0072L104.89 50.6673C103.192 47.1112 101.207 43.6982 98.949 40.4918C96.6949 37.2811 94.1502 34.2854 91.3526 31.5635C91.1799 31.3949 91.0113 31.2138 90.8302 31.0494L90.2867 30.5607L89.1997 29.5832C88.8457 29.2503 88.4539 28.9553 88.0789 28.6436L86.9456 27.725C86.7602 27.5649 86.5622 27.4259 86.3642 27.2826L85.7743 26.8528L84.5988 25.9933L83.377 25.1969L82.7661 24.8009C82.5639 24.6703 82.3658 24.527 82.151 24.4132C78.8352 22.4034 75.2792 20.7981 71.5716 19.7152C67.8682 18.6366 64.0173 18.0636 60.1622 18.0678C56.3071 18.0846 52.4605 18.6619 48.7655 19.7574C45.0663 20.8486 41.523 22.4666 38.2198 24.4807C38.0092 24.5986 37.8112 24.7419 37.6089 24.8725L36.9938 25.2812L35.7804 26.0818L34.6133 26.9497L34.0277 27.3795C33.8339 27.527 33.6359 27.666 33.4505 27.8219L32.3298 28.7489C31.959 29.0607 31.5714 29.3556 31.2217 29.6969L30.1473 30.6829L29.6122 31.1801C29.4353 31.3444 29.2668 31.5256 29.094 31.6941C26.3259 34.4286 23.8317 37.4497 21.6282 40.673C17.217 47.1238 13.9518 54.3499 11.7398 61.8751L10.9688 64.7192L10.8719 65.0731L10.7876 65.4355L10.6233 66.1518L10.2947 67.5886L10.1304 68.3091L9.99555 69.0338L9.71748 70.4832C9.51946 71.4439 9.38464 72.4214 9.24139 73.3947C8.66839 77.2837 8.35661 81.2191 8.29342 85.1587C8.25971 89.0983 8.46616 93.0463 8.9591 96.9606C9.0855 97.9381 9.19504 98.9199 9.37621 99.8932L9.62058 101.351L9.74276 102.08C9.7891 102.324 9.84388 102.565 9.89443 102.805L10.202 104.254L10.3537 104.979L10.4295 105.341L10.5222 105.699L11.2511 108.569C12.296 112.378 13.6568 116.098 15.2831 119.696C16.9094 123.295 18.8433 126.754 21.0679 130.015C23.2966 133.268 25.8288 136.319 28.6432 139.066C28.8202 139.238 28.9887 139.42 29.1699 139.584L29.7176 140.081L29.7471 140.106C29.7934 140.17 29.8524 140.22 29.9198 140.267C30.1515 140.422 30.3833 140.587 30.6108 140.755C30.5939 140.785 30.5771 140.814 30.556 140.84L30.813 141.071C31.1711 141.408 31.563 141.703 31.9422 142.019L33.0839 142.951C33.2693 143.111 33.4715 143.25 33.6696 143.393L34.2636 143.827L35.456 144.691L36.6904 145.487H36.6947C35.6708 139.289 35.991 132.708 36.9896 126.539C37.7943 121.546 39.1931 116.675 41.1227 112.011C41.0469 111.986 40.9795 111.948 40.9289 111.897C40.0147 110.937 39.2731 109.892 38.717 108.691C38.5527 108.341 39.0246 108.055 39.2394 108.388C39.7998 109.26 40.4444 110.056 41.1901 110.768C41.7505 109.909 42.3193 109.049 42.8502 108.168C43.2378 107.528 44.1436 108.088 43.8403 108.746C42.353 111.952 41.1312 115.277 40.1706 118.677C42.294 119.423 44.1857 120.674 45.8247 122.233C46.3218 122.701 46.1238 123.425 45.6267 123.784C43.9751 124.955 41.7842 125.237 39.8925 124.504C39.5638 124.378 39.2099 124.213 38.9108 123.998C38.7296 124.917 38.5653 125.835 38.4263 126.758C38.3799 127.066 38.3336 127.373 38.2915 127.681C39.9978 127.74 41.641 128.296 43.044 129.282C43.6591 129.716 44.5312 130.26 44.666 131.06C44.7967 131.823 44.2194 132.514 43.6507 132.939C42.3993 133.875 40.1579 134.25 38.7591 133.458C38.3252 133.213 38.0134 132.893 37.7943 132.531C37.7185 133.698 37.6721 134.869 37.6595 136.04C37.6595 136.167 37.6595 136.293 37.6595 136.42C37.7817 136.399 37.9081 136.399 38.0471 136.424C39.2099 136.651 40.4276 136.925 41.4387 137.57C42.235 138.076 43.2504 138.998 43.1788 140.047C43.0271 142.264 39.4754 141.375 37.7985 140.646C37.9038 142.268 38.0513 143.89 38.1946 145.525C38.203 145.639 38.1861 145.74 38.1482 145.828C38.1819 145.866 38.2114 145.913 38.2156 145.967C38.2409 146.136 38.2872 146.317 38.3083 146.498C38.8476 146.814 39.3953 147.122 39.9473 147.413C39.37 145.866 39.3195 143.869 39.5681 142.314C39.5891 142.112 39.8419 142.171 39.8503 142.327ZM41.8769 122.878C41.7758 122.827 41.6747 122.776 41.5778 122.713C41.5525 122.755 41.523 122.802 41.4935 122.844C41.6241 122.865 41.7505 122.878 41.8769 122.878Z" fill="#1D1D1B"/>
<path d="M108.863 111.603L109.689 108.73C111.72 101.028 112.693 93.0851 112.727 85.147C112.706 77.2046 111.736 69.258 109.706 61.5558L108.88 58.6822C108.581 57.73 108.256 56.7904 107.953 55.8424C107.806 55.3662 107.616 54.9028 107.447 54.4351L106.925 53.032C106.837 52.8002 106.756 52.5643 106.66 52.3325L106.369 51.6415L105.787 50.2595C104.199 46.598 102.324 43.0461 100.138 39.6837C97.9466 36.3256 95.4566 33.1444 92.6338 30.2666C89.8194 27.3888 86.6974 24.7723 83.2552 22.6234C79.8256 20.4661 76.1054 18.7428 72.2082 17.5673C68.3109 16.3791 64.2368 15.7681 60.1584 15.7471C56.08 15.7471 52.0016 16.3538 48.096 17.5209C44.1903 18.6881 40.4574 20.4029 37.0152 22.5518C36.7919 22.674 36.5897 22.8257 36.379 22.9647L35.7471 23.3903L34.4873 24.2414L33.2739 25.1557L32.6672 25.615C32.465 25.7667 32.2585 25.9141 32.0689 26.0827L30.9061 27.0602C30.5227 27.3888 30.1224 27.7006 29.7601 28.0546L28.652 29.0869L28.0959 29.6051C27.9147 29.7779 27.742 29.9675 27.565 30.1445C24.7127 33.0096 22.1721 36.1655 19.9307 39.511C15.452 46.2104 12.1784 53.6598 10.0634 61.3915L9.33447 64.3072L9.24178 64.6696L9.16594 65.0361L9.01426 65.7693L8.7067 67.2398C8.65614 67.4841 8.60558 67.7327 8.55924 67.9771L8.43706 68.7187L8.19269 70.2018C8.01152 71.1878 7.90198 72.1822 7.77979 73.1765C7.29528 77.1456 7.0804 81.1484 7.11411 85.1385C7.17309 89.1329 7.4933 93.1146 8.05787 97.0626C8.20533 98.0486 8.33172 99.0388 8.53396 100.012L8.80782 101.483L8.94685 102.216L9.11117 102.945L9.4398 104.402L9.60411 105.131L9.68838 105.494L9.78528 105.856L10.5563 108.742C12.7724 116.394 16.063 123.751 20.4995 130.378C22.7156 133.694 25.2183 136.821 28.0243 139.669C28.197 139.85 28.3655 140.036 28.5467 140.208L29.0902 140.727L30.1814 141.759C30.5353 142.113 30.9272 142.421 31.3063 142.753L32.4481 143.731C32.6335 143.895 32.8357 144.047 33.0338 144.199L33.6278 144.658L34.8202 145.576L36.0588 146.432L36.6782 146.857C36.8846 146.996 37.0869 147.148 37.306 147.27C40.6934 149.428 44.3589 151.172 48.2182 152.377C52.0732 153.578 56.1137 154.231 60.1668 154.277C64.2199 154.294 68.2857 153.725 72.1745 152.571C76.0675 151.425 79.7835 149.718 83.2215 147.578C86.6595 145.442 89.7899 142.846 92.6127 139.977C95.4356 137.103 97.9298 133.926 100.121 130.577C102.312 127.218 104.186 123.671 105.775 120.009L106.356 118.627L106.647 117.936C106.744 117.704 106.824 117.473 106.912 117.237L107.435 115.838C107.603 115.37 107.797 114.907 107.94 114.431C108.24 113.495 108.568 112.556 108.863 111.603ZM118.233 71.7903C118.865 76.2102 119.164 80.6765 119.181 85.147C119.173 89.6133 118.878 94.0795 118.246 98.5036C117.614 102.924 116.67 107.301 115.394 111.57C114.757 113.706 114.041 115.817 113.245 117.894C112.444 119.971 111.568 122.019 110.612 124.025C108.699 128.036 106.466 131.891 103.921 135.51C101.38 139.138 98.5154 142.522 95.3555 145.593C93.7756 147.127 92.124 148.585 90.3924 149.937C88.6692 151.298 86.8659 152.558 84.9952 153.7C81.2581 155.992 77.2556 157.833 73.0676 159.089C68.8797 160.34 64.5233 161.006 60.15 161.052C57.9633 161.065 55.7724 160.939 53.6026 160.644C51.4328 160.353 49.2799 159.898 47.1649 159.308C42.9348 158.116 38.8733 156.317 35.0856 154.05C31.2895 151.787 27.7925 149.019 24.6073 145.93C21.4306 142.829 18.5782 139.395 16.063 135.725C13.5519 132.051 11.3737 128.15 9.54513 124.088C7.71238 120.03 6.18299 115.829 5.0075 111.536C2.63126 102.949 1.56953 94.0205 1.67064 85.1385C1.73806 80.6933 2.0709 76.2566 2.72395 71.8704C3.04836 69.6752 3.45283 67.4968 3.9205 65.3311C4.38816 63.1654 4.93167 61.0165 5.55101 58.8929C8.04101 50.407 11.7191 42.2539 16.6949 34.9773C19.1807 31.3411 21.9909 27.9366 25.1171 24.8566C28.2391 21.7807 31.6771 19.0167 35.4016 16.7372C39.1261 14.4577 43.116 12.6249 47.2913 11.3945C51.4623 10.1642 55.7977 9.51956 60.1457 9.50692C64.4938 9.49849 68.8334 10.1347 73.0171 11.344C77.1966 12.5659 81.1991 14.3861 84.9405 16.6572C86.8111 17.7906 88.6144 19.042 90.3376 20.3945C92.0692 21.7428 93.7292 23.188 95.3092 24.7175C98.4691 27.7849 101.338 31.1641 103.879 34.7835C106.428 38.4028 108.665 42.2497 110.578 46.2609C111.534 48.2665 112.415 50.3101 113.215 52.3873C114.012 54.4688 114.728 56.5755 115.364 58.7117C116.657 62.9968 117.597 67.3704 118.233 71.7903Z" fill="#47AD4B"/>
<path d="M74.2162 8.68065C71.5872 7.05426 68.9539 5.44471 66.2869 3.87731C64.9556 3.0936 63.6284 2.30569 62.3012 1.51777C61.2016 0.864682 59.9924 -0.0327855 58.6526 0.000922233C57.5445 0.026203 56.5291 1.03743 55.6949 1.67367C54.6332 2.48686 53.5968 3.32534 52.5856 4.20174C50.3989 6.0978 48.2713 8.12026 46.4512 10.3745C46.3711 10.4756 46.4975 10.6104 46.5944 10.5177C48.4819 8.71015 50.3442 6.88993 52.3581 5.22561C53.3861 4.37871 54.4436 3.5613 55.5222 2.78181C56.5671 2.0276 57.7383 0.881536 59.1287 1.27339C60.3505 1.61889 61.5134 2.67226 62.5583 3.36748C63.7379 4.15539 64.9176 4.94331 66.0931 5.73544C68.4483 7.3197 70.8288 8.8534 73.2177 10.3829C74.292 11.0739 75.2948 9.35059 74.2162 8.68065Z" fill="#1D1E1B"/>
<path d="M59.1226 2.65168C58.8066 2.33567 58.3432 2.2177 57.9134 2.33146C57.9008 2.33567 57.8882 2.33567 57.8755 2.33989C57.7786 2.38202 57.6775 2.42416 57.5806 2.46629C57.4373 2.54213 57.3194 2.65168 57.2351 2.7823C57.075 2.98876 56.957 3.25842 56.9697 3.52808C56.9781 3.74718 57.0371 3.95786 57.1382 4.15168C57.2772 4.41712 57.589 4.64465 57.8755 4.72049C57.8882 4.72471 57.9008 4.72471 57.9134 4.72892C58.3305 4.83847 58.8235 4.73313 59.1226 4.4087C59.3459 4.16432 59.485 3.86516 59.485 3.52808C59.485 3.21629 59.3459 2.87921 59.1226 2.65168Z" fill="#1D1E1B"/>
<path d="M76.7406 85.0747C74.179 83.7728 71.4615 82.8921 68.6386 82.4834C68.8746 81.8851 68.9462 81.2531 68.8661 80.6422C70.4208 80.5874 71.9797 80.6801 73.5512 80.916C73.9304 80.975 74.0989 80.3978 73.7113 80.3346C72.0597 80.0565 70.3955 79.9764 68.7439 80.0733C68.6386 79.7194 68.4827 79.3823 68.2805 79.0747C68.4364 79.0579 68.5923 79.041 68.7482 79.0242C71.1708 78.7629 73.5007 78.9905 75.9148 79.0747C76.2182 79.0832 76.294 78.5944 75.9865 78.5354C73.4964 78.0551 70.7368 78.27 68.2426 78.6365C68.1541 78.6492 68.0656 78.6618 67.9771 78.6745C67.6317 78.2868 67.1935 77.9624 66.6753 77.7475C65.5503 77.2798 64.2695 77.4399 63.1404 77.8065C62.0281 78.1688 60.8315 78.7124 59.7698 79.3276C60.3217 78.2068 60.4271 76.968 60.2291 75.6829C60.1659 75.2742 59.6013 75.1941 59.3443 75.4512C58.9862 75.8051 58.6786 76.2138 58.4342 76.652C58.2236 76.2222 57.9244 75.8514 57.4399 75.6366C56.7068 75.3079 55.7504 75.3795 55.2743 76.1042C54.7814 76.8542 55.1395 77.8107 55.6409 78.4512C55.7209 78.5523 55.8052 78.6408 55.9021 78.7292C54.1368 78.468 52.2998 78.4343 50.6988 78.9231C49.5317 79.2812 48.4658 80.0818 47.9476 81.1436C45.3101 81.2657 42.6895 81.6702 40.111 82.3697C39.7529 82.4666 39.9045 83.027 40.2627 82.9258C42.7232 82.2306 45.2343 81.7882 47.7664 81.5986C47.6147 82.0832 47.5684 82.6098 47.6737 83.166C47.699 83.3051 47.7369 83.4357 47.779 83.5621C46.9027 83.7938 46.0348 84.0551 45.1837 84.3711C43.2035 85.1084 40.6587 86.1997 39.4116 87.9946C39.3063 88.1463 39.5127 88.3401 39.6644 88.2475C40.6039 87.6576 41.4002 86.8654 42.3566 86.2882C43.4647 85.6182 44.6528 85.0789 45.8747 84.6407C46.5698 84.3921 47.2734 84.1857 47.9813 83.9919C48.3394 84.6028 48.9377 84.9778 49.6286 85.218C48.4068 86.0733 47.3114 87.114 46.5446 88.3064C46.3676 88.5803 46.7763 88.9005 46.9954 88.6562C48.0992 87.4469 49.1568 86.3598 50.3617 85.416C51.2718 85.6056 52.2577 85.6267 53.054 85.6562C54.2547 85.6983 55.5229 85.5466 56.5636 85.0326C56.5804 85.2053 56.631 85.3781 56.7195 85.5508C57.0607 86.2039 57.7391 86.4989 58.4553 86.4989C59.2179 86.4989 59.9131 86.1407 60.406 85.5719C60.6125 85.3317 60.84 85.0073 60.9748 84.666C61.3624 84.7882 61.7795 84.8851 62.2219 84.9399C64.3791 85.2138 67.2609 85.0663 68.4448 82.9174C68.4827 82.85 68.5122 82.7868 68.5459 82.7194C71.3477 83.1365 74.0315 84.0424 76.5215 85.4666C76.7659 85.6014 76.9934 85.2053 76.7406 85.0747ZM59.062 84.9483C58.5733 85.3022 57.3725 85.2727 57.1534 84.6744C57.7348 84.2657 58.2109 83.7138 58.5101 82.968C58.8261 83.3978 59.2137 83.7559 59.6603 84.0508C59.517 84.3753 59.3822 84.7166 59.062 84.9483ZM67.1682 82.6604C66.0054 83.9961 63.6586 83.8107 62.0744 83.4947C60.2164 83.1197 59.2432 82.0958 58.2573 80.5368C58.0382 80.1871 57.5368 80.4188 57.6127 80.8107C57.7517 81.5565 58.0087 82.2011 58.3584 82.7447C58.3078 82.7362 58.2573 82.7489 58.2194 82.7952C57.0523 84.2236 55.2912 84.7461 53.5006 84.7166C52.9781 84.7081 52.2324 84.6997 51.4867 84.607C51.9417 84.3121 52.4178 84.034 52.9318 83.7728C53.0835 83.6969 52.9739 83.4315 52.8138 83.4947C52.1313 83.7643 51.4403 84.0972 50.7662 84.4848C50.0963 84.3416 49.4812 84.1056 49.0978 83.7011C50.5008 83.364 51.9164 83.086 53.3236 82.7657C53.4626 82.7362 53.4332 82.4961 53.2899 82.5171C51.7984 82.7152 50.2985 82.9638 48.8239 83.3008C48.6975 83.0228 48.6512 82.6899 48.7228 82.2854C48.7733 82.0031 48.8618 81.7503 48.9714 81.527C50.5513 81.4596 52.1355 81.4933 53.7154 81.6239C53.905 81.6407 53.9008 81.35 53.7154 81.3289C52.2198 81.1604 50.7241 81.0888 49.2326 81.1014C50.9052 78.9652 55.86 79.8922 58.2025 80.3767C58.2446 80.4315 58.2868 80.4905 58.3247 80.5495C58.5901 80.9834 59.1926 80.7264 59.1673 80.2714C59.1884 80.2461 59.2095 80.2208 59.2305 80.1955C59.2937 80.1113 59.3527 80.027 59.4117 79.9427C61.2318 79.5129 63.0014 78.4806 64.8931 78.5144C65.4324 78.5228 65.9464 78.6787 66.393 78.9357C64.6529 79.2728 62.9171 79.8121 61.5899 80.9624C61.5731 80.975 61.5941 81.0045 61.611 80.9919C63.1446 80.0143 65.0153 79.5424 66.8522 79.2601C67.1556 79.5172 67.4042 79.829 67.5685 80.1702C66.0391 80.343 64.5223 80.6674 63.0477 81.1436C62.7949 81.2236 62.9002 81.6197 63.1572 81.5438C64.6782 81.1098 66.2076 80.836 67.7454 80.7053C67.8508 81.2278 67.7581 81.7882 67.4042 82.3317C66.9955 82.2938 66.5868 82.2643 66.1739 82.2433C66.0264 82.2348 66.0264 82.4624 66.1739 82.4708C66.532 82.4876 66.8901 82.5171 67.244 82.5508C67.2188 82.5888 67.1977 82.6225 67.1682 82.6604Z" fill="#1D1D1B"/>
<path d="M52.6152 68.8154C52.0844 67.5556 51.4819 65.7733 50.4454 64.8379C48.3683 62.9503 45.8573 65.3267 45.1579 67.3112C44.6776 68.6722 44.5764 70.2227 44.5891 71.6511C44.5975 72.7761 44.3026 74.5542 45.1621 75.4474C45.398 75.6918 45.7309 75.3842 45.6045 75.1061C44.9598 73.7157 45.5834 71.5331 45.7393 70.0542C45.9078 68.4868 46.3081 66.2916 47.9554 65.6006C49.1604 65.095 49.784 65.9334 50.3485 66.8857C50.8541 67.7368 51.3555 68.5921 51.722 69.5149C52.354 71.116 52.4425 72.5696 52.2613 74.2171C51.6546 74.2929 51.0311 74.3646 50.4033 74.4446C50.4581 74.3603 50.4876 74.2592 50.4749 74.1413C50.319 72.6539 50.0957 71.1371 49.7587 69.6792C49.5986 69.0008 49.2489 68.1961 48.4062 68.293C47.3277 68.4152 47.2181 70.1595 47.0833 70.9432C46.86 72.2578 46.8137 73.7199 47.2434 75.005C46.5061 75.1904 45.7856 75.4221 45.1031 75.7255C45.0525 75.7466 45.082 75.8224 45.1284 75.8224C46.2407 75.8393 47.3782 75.7002 48.5074 75.5359C48.8149 75.6075 49.1562 75.5612 49.4301 75.4011C49.9483 75.3252 50.4623 75.2494 50.9721 75.1946C51.4608 75.1398 52.472 75.1988 52.8638 74.8912C53.2262 74.6047 53.3146 73.8674 53.3736 73.4671C53.618 71.8618 53.243 70.2944 52.6152 68.8154Z" fill="#1D1D1B"/>
<path d="M69.5695 67.9514C69.2998 66.4219 68.5794 63.641 66.6834 63.4388C64.8128 63.2408 63.3971 65.5329 62.7862 66.995C61.9183 69.0806 61.6697 71.6466 61.9646 73.8882C61.7287 74.1073 61.8172 74.6171 62.2301 74.6129C63.5699 74.596 64.9434 74.5708 66.3042 74.6129C66.4348 74.8657 66.814 74.912 66.9615 74.6424C67.6777 74.6761 68.3898 74.7351 69.0892 74.8278C69.2156 74.8446 69.363 74.7224 69.3841 74.6003C69.8265 72.4514 69.9487 70.1171 69.5695 67.9514ZM68.7858 74.1915C68.2381 74.1536 67.6904 74.1115 67.1427 74.0694C67.6651 72.0722 68.4277 67.6565 65.7607 67.4163C63.0811 67.1719 63.3845 72.1986 63.7679 73.8376C63.2707 73.8165 62.7736 73.7997 62.2722 73.7955C62.5081 72.0975 62.4365 70.3784 62.8831 68.6972C63.237 67.3784 64.9181 63.3292 66.9783 64.3615C67.7831 64.766 68.2128 66.245 68.4403 67.0329C68.6847 67.8882 68.8069 68.773 68.8532 69.6579C68.9417 71.1747 68.7942 72.6789 68.7858 74.1915Z" fill="#1D1D1B"/>
<path d="M103.866 76.1376C101.903 74.3764 99.2103 73.4495 96.5854 73.8919C93.8637 74.3511 91.9341 76.4537 90.5774 78.7205C87.2363 84.2907 84.8138 90.8173 84.0512 97.3229C83.554 96.5561 83.0316 95.8103 82.4796 95.0814C81.4937 93.7836 80.3941 92.3426 79.0796 91.3145C79.3366 91.1123 79.5852 90.9016 79.8169 90.6867C82.2184 88.4789 83.634 85.3104 84.4893 82.2092C84.5441 82.0112 84.5947 81.809 84.641 81.6109C84.9233 81.2444 85.0497 80.7682 84.9191 80.3553C85.2393 78.691 85.3825 76.9972 85.3657 75.3034C85.4162 74.9958 85.3952 74.6545 85.3362 74.2964C85.1719 71.0899 84.4177 67.9088 83.1032 64.9846C82.408 63.4383 81.5527 61.9678 80.5416 60.6026C79.9517 59.8021 79.2313 58.854 78.376 58.1967C78.4055 58.1335 78.4307 58.0661 78.4476 57.9903C79.0037 55.1251 78.89 52.3527 78.3086 49.5044C78.2074 48.9987 77.4701 48.6575 77.0362 48.9861C75.3382 50.2754 73.653 51.5732 71.9845 52.8962C71.2219 53.5029 70.3456 54.531 69.3218 54.4299C68.3696 54.3372 67.4048 54.0001 66.4568 53.84C62.7745 53.2291 59.0036 53.1237 55.3044 53.6209C51.5673 54.1265 47.9187 55.1504 44.506 56.7642C43.6971 57.1476 43.0272 57.5184 42.1255 57.1349C41.7801 56.9875 41.4683 56.722 41.1565 56.5198C40.4065 56.0352 39.6397 55.6097 38.8182 55.2599C37.0865 54.5184 35.2917 54.1813 33.4295 53.9875C32.8986 53.9327 32.5405 54.5395 32.6627 54.9945C33.3873 57.7627 34.2974 60.6532 35.8141 63.097C35.8184 63.1012 35.8184 63.1012 35.8226 63.1054C31.2133 68.2838 28.7992 75.3371 30.0547 82.2472C30.9858 87.3707 33.8129 92.1025 37.9966 95.1193C36.2186 98.0645 34.605 101.098 33.0166 104.157C31.424 107.225 29.7345 110.275 28.3821 113.456C27.9355 114.51 27.5436 115.588 27.2445 116.684C27.2403 116.688 27.2403 116.688 27.2361 116.692C26.9327 117.008 26.8653 117.404 26.9791 117.771C26.6462 119.33 26.5072 120.923 26.6589 122.545C26.9327 125.465 27.9523 128.233 29.3637 130.786C31.0406 133.82 33.223 136.626 35.5487 139.188C36.2818 139.993 37.4152 138.817 36.7284 138.008C33.0503 133.635 29.0899 128.764 28.4242 122.869C28.3062 121.812 28.3189 120.771 28.4284 119.747C29.3764 120.505 30.6614 120.821 31.8664 120.75C33.0587 120.678 34.5165 120.055 33.994 118.584C33.5643 117.375 31.9043 116.267 30.7372 115.887C30.2822 115.74 29.8061 115.685 29.3427 115.719C29.7682 114.442 30.3033 113.191 30.8889 111.956C31.2597 112.635 31.8874 113.22 32.4141 113.722C33.1219 114.392 34.1036 115.352 35.0979 115.517C36.1217 115.685 37.0233 114.91 37.1287 113.894C37.2424 112.812 36.522 111.741 35.9237 110.899C35.3044 110.022 34.0952 108.476 32.8523 108.109C33.3452 107.178 33.8339 106.255 34.2848 105.345C35.8731 102.152 37.432 98.9535 38.8182 95.6797C39.0878 95.8524 39.3659 96.0168 39.6482 96.1769C40.0821 97.5462 41.0891 98.8988 42.412 99.3412C42.7407 99.4507 42.9429 99.021 42.7322 98.7892C42.2182 98.2288 41.6242 97.7527 41.1186 97.1839C41.0006 97.0491 40.8953 96.9142 40.7942 96.7752C41.0217 96.8805 41.2492 96.9859 41.4809 97.0828C43.1451 97.7864 44.1521 95.4564 42.4499 94.7822C40.2127 93.8974 38.1778 92.4943 36.4756 90.7584C37.3815 89.8272 38.4643 88.2219 37.4742 87.2528C36.5346 86.3384 35.14 87.1601 34.2131 87.9775C33.7286 87.2528 33.2947 86.4986 32.9155 85.7148C34.5123 84.9227 37.6427 83.2289 36.5725 81.1812C35.7467 79.6011 32.7975 79.8413 31.3481 80.6755C31.2218 79.8539 31.1417 79.0239 31.1164 78.198C31.1923 78.3961 31.2934 78.5688 31.4366 78.6826C32.0855 79.2261 33.1851 78.6236 33.8466 78.4171C34.9504 78.0758 36.1723 77.802 37.0908 77.052C38.3126 76.0534 38.7044 74.2163 37.3983 73.1292C36.602 72.4677 35.5529 72.375 34.5628 72.354C33.6401 72.3329 32.6458 72.2444 31.7526 72.5014C32.591 69.1012 34.2131 65.8779 36.3956 63.177C36.4967 63.0549 36.4546 62.9032 36.3619 62.8231C36.0248 60.3835 35.2959 57.9776 34.5418 55.6223C36.3661 55.7908 38.1483 56.4102 39.7324 57.3288C41.3587 58.2726 42.3868 59.0773 44.3206 58.4959C46.225 57.9186 48.0324 57.0886 49.9621 56.5746C50.2528 56.4987 50.5435 56.4229 50.8342 56.3555C50.6699 57.3372 51.6263 58.6349 52.5027 58.795C53.695 59.0141 54.7652 57.7164 54.8873 56.5661C55.0264 56.7515 55.1781 56.9201 55.3171 57.0507C55.6752 57.3877 56.0923 57.6869 56.6021 57.6995C57.1751 57.7122 57.6807 57.392 58.0009 56.9285C58.1484 56.7178 58.2663 56.4608 58.3422 56.1953C58.4433 56.4819 58.5907 56.7473 58.7509 56.9411C58.9952 57.2319 59.4418 57.5184 59.9221 57.6827C61.0344 58.2136 62.4121 57.9186 63.4149 57.2698C63.9415 56.9285 64.5272 56.3175 64.7294 55.6855C65.9596 55.8498 67.1899 56.0731 68.4202 56.347C69.208 56.524 69.9285 56.6546 70.7121 56.3723C71.4747 56.0942 72.0941 55.4496 72.7092 54.9397C74.1333 53.7473 75.5447 52.5465 76.9477 51.3288C77.3058 53.3807 77.251 55.5001 76.8676 57.5436C76.8171 57.8175 76.8929 58.0493 77.032 58.2262C77.6724 59.5408 78.9068 60.6911 79.72 61.8835C80.668 63.2782 81.4727 64.7824 82.1004 66.3498C82.6018 67.5928 82.9979 68.8736 83.2886 70.1798C82.2311 70.1967 81.1777 70.479 80.1834 70.8245C79.3155 71.1278 78.2622 71.4017 77.5333 71.9832C75.8607 73.3146 77.0615 74.8778 78.5824 75.5688C80.0697 76.2472 82.1384 76.7949 83.8531 76.5126C83.8279 77.1278 83.7731 77.7556 83.6973 78.3834C82.7619 78 81.5359 77.9326 80.5837 78.0042C79.6526 78.0716 78.9026 78.6236 78.654 79.5379C78.0516 81.7753 80.2424 82.955 82.0035 83.5281C82.1342 83.5702 82.2563 83.5786 82.3659 83.5618C82.0204 84.396 81.6075 85.1924 81.1272 85.9382C80.6174 85.639 80.0612 85.4789 79.4588 85.441C78.8521 85.403 78.0389 85.462 77.5797 85.9087C77.1162 86.3637 77.1584 87.08 77.4743 87.6025C77.6218 87.8511 77.8367 88.0533 78.0684 88.2176C78.2749 88.3609 78.5276 88.4536 78.713 88.6221C78.0347 89.1657 77.3016 89.646 76.5306 90.0674C74.8411 90.9901 72.9957 91.2008 71.1798 91.7401C70.2782 92.0098 70.1813 93.4466 71.1798 93.6656C71.6517 93.7668 72.132 93.8131 72.6123 93.8089C72.4396 94.1965 72.2879 94.5884 72.014 94.9423C71.618 95.4479 71.104 95.9114 70.5352 96.2148C70.2487 96.3665 70.4509 96.8805 70.7585 96.7499C72.0014 96.2274 73.4676 95.1488 73.7414 93.7204C75.3467 93.4803 76.9393 92.7808 78.2959 91.8665C79.0627 93.1137 80.0697 94.2345 80.866 95.469C81.7423 96.8215 82.606 98.1698 83.3855 99.5856C84.5273 101.654 85.5089 103.82 86.3221 106.045C85.2519 106.491 84.3124 107.461 83.6425 108.324C82.6566 109.597 82.8167 110.857 84.1228 111.83C85.1424 112.593 86.7476 112.845 87.881 112.163C87.9526 112.121 88.0116 112.074 88.0706 112.032C88.2307 112.753 88.3697 113.473 88.4919 114.198C87.9821 114.265 87.4554 114.548 87.0762 114.788C86.2252 115.327 85.5426 116.136 85.1424 117.059C84.7211 118.028 84.78 119.102 85.5637 119.878C86.3895 120.695 87.5776 120.779 88.673 120.741C88.8374 120.737 88.9848 120.695 89.1154 120.632C89.1744 123.122 89.0185 125.616 88.6267 128.073C88.3107 130.057 87.9189 132.109 87.0257 133.925C86.4358 135.126 85.6143 136.163 84.6663 137.081C84.7 136.504 84.7253 135.927 84.7337 135.354C84.7463 134.616 84.7379 133.883 84.7126 133.146C84.8559 132.859 84.8517 132.493 84.7084 132.185C84.6916 132.151 84.6789 132.118 84.6663 132.08C84.5525 129.948 84.304 127.824 83.9458 125.722C83.3939 122.477 82.5428 119.279 81.519 116.153C80.6932 113.642 79.6736 110.823 77.6429 109.011C78.0263 108.434 78.4307 107.882 78.8436 107.321C79.147 106.913 78.4687 106.39 78.1358 106.774C77.567 107.431 77.0025 108.076 76.3873 108.691C76.1472 108.931 76.1556 109.327 76.3873 109.567C78.4392 111.695 79.3956 114.286 80.2593 117.067C80.6258 118.243 80.9587 119.427 81.2662 120.619C80.1497 120.906 78.9742 121.66 78.0516 122.25C77.2595 122.755 76.4674 123.543 76.6359 124.567C77.0067 126.826 80.8491 126.564 82.4501 126.189C82.5681 126.88 82.6692 127.571 82.7577 128.267C81.4811 128.515 80.1582 128.562 78.9532 129.08C78.0178 129.484 76.2904 130.34 76.6401 131.612C76.9561 132.745 78.7172 133.281 79.72 133.55C80.8533 133.854 82.0204 133.913 83.1706 133.761C83.179 134.288 83.1832 134.819 83.1748 135.349C83.1706 135.653 83.158 135.96 83.1495 136.264C83.1369 136.264 83.1243 136.26 83.1074 136.26C81.2452 136.15 78.1316 137.09 77.5586 139.163C76.8002 141.931 81.5359 140.637 82.8251 140.161C82.6397 141.526 82.2521 142.875 82.0836 144.236C82.0162 144.299 81.9656 144.379 81.9361 144.484C81.7634 145.095 81.6538 145.71 81.5864 146.342C81.519 146.987 82.5386 147.097 82.6987 146.494C82.7114 146.443 82.724 146.393 82.7366 146.347C82.7535 146.325 82.7703 146.304 82.783 146.283C82.9979 146.254 83.2001 146.119 83.2886 145.845C83.3096 145.778 83.3307 145.71 83.3476 145.643C83.4739 145.538 83.5624 145.386 83.5666 145.213C83.5666 145.179 83.5666 145.15 83.5666 145.116C83.5666 144.986 83.5203 144.847 83.436 144.741C83.9795 143.338 84.1607 141.729 84.3587 140.258C84.3966 139.988 84.4261 139.715 84.4556 139.445C87.6956 137.591 89.3387 134.22 90.1098 130.677C90.6322 128.279 90.9355 125.827 91.0367 123.366C91.9636 121.26 92.9242 119.208 94.205 117.248C95.8861 114.678 97.5334 112.078 99.2229 109.508C102.661 104.271 106.031 98.8019 107.388 92.6039C108.597 87.1601 108.319 80.1278 103.866 76.1376ZM78.8731 86.9705C78.8563 86.962 78.8394 86.9536 78.8226 86.9452C78.7552 86.9073 78.7257 86.8778 78.713 86.8525C78.7931 86.8019 78.9068 86.7682 79.0374 86.7471C78.9742 86.8103 78.9153 86.8862 78.8731 86.9705ZM81.3463 122.098C81.2578 122.039 81.1609 121.997 81.0556 121.984C81.2157 121.854 81.3673 121.719 81.5106 121.576C81.5401 121.702 81.5696 121.824 81.5991 121.951C81.5106 121.993 81.4263 122.043 81.3463 122.098ZM91.3611 81.7121C91.4074 81.7795 91.4538 81.8511 91.5001 81.9185C91.3864 82.0365 91.281 82.1587 91.1968 82.2935C91.1673 82.2682 91.1378 82.2472 91.1083 82.2219C91.1041 82.2177 91.0999 82.2177 91.0956 82.2135C91.1799 82.0491 91.2684 81.8848 91.3611 81.7121ZM86.7223 107.73C86.6296 107.73 86.537 107.734 86.4485 107.747C86.3853 107.755 86.3263 107.772 86.2673 107.785C86.4316 107.616 86.6001 107.456 86.7729 107.3C86.7855 107.338 86.7982 107.372 86.8066 107.41C86.7476 107.503 86.7139 107.616 86.7223 107.73ZM103.247 97.7653C103.019 97.4072 102.796 97.0491 102.572 96.6867C102.779 96.9227 102.998 97.1502 103.23 97.3735C103.276 97.4156 103.322 97.4535 103.373 97.4873C103.331 97.5842 103.289 97.6726 103.247 97.7653ZM105.02 92.6586C104.54 91.8286 103.857 91.1207 103.027 90.5983C101.844 89.8525 99.6611 89.2457 98.4898 90.3202C97.0742 91.6179 98.73 93.6235 99.5221 94.7738C100.5 96.1937 101.536 97.58 102.8 98.7513C102.37 99.6698 101.911 100.576 101.422 101.469C100.719 100.167 99.7748 98.9367 98.5909 98.0729C97.2301 97.0828 95.372 97.1418 94.4831 98.7134C93.6699 100.15 94.2598 101.734 95.0771 103.015C95.6459 103.904 96.2526 104.772 96.8551 105.64C97.2132 106.154 97.5629 106.711 97.959 107.22C97.7188 107.591 97.4787 107.966 97.2385 108.333C95.5785 110.886 93.7879 113.465 92.4691 116.216C91.9973 117.202 91.5001 118.209 91.0367 119.237C90.6996 112.555 88.8879 105.931 85.6817 100.057C85.3615 99.4718 85.0286 98.8903 84.6789 98.3215C85.3446 96.1895 86.0356 94.0786 86.794 91.9887C87.2827 92.9452 88.3149 93.8468 88.9848 94.3777C90.0297 95.2036 91.6981 96.1052 92.8483 94.9339C94.0196 93.7415 92.8146 91.66 92.2079 90.4718C91.4032 88.896 90.3162 87.5688 89.0691 86.3384C89.5115 85.3525 89.9791 84.375 90.4721 83.4059C90.944 84.3876 91.8077 85.2556 92.5745 85.9677C93.4298 86.7598 94.6221 87.889 95.8481 87.9775C97.1964 88.0744 97.9295 86.903 97.8789 85.6811C97.8241 84.2949 97.1332 82.8792 96.4253 81.7205C95.9408 80.9284 94.8075 79.125 93.573 78.2275C94.205 77.486 94.9381 76.8624 95.8102 76.4705C97.9421 75.5141 100.563 76.2641 102.248 77.7556C106.293 81.3286 106.229 87.8089 105.02 92.6586ZM100.306 92.469C100.318 92.5112 100.331 92.5575 100.344 92.5996C100.331 92.5744 100.323 92.5491 100.31 92.5238C100.276 92.448 100.192 92.0772 100.078 92.0182C100.133 92.014 100.209 92.0224 100.285 92.035C100.259 92.1741 100.264 92.3173 100.306 92.469ZM90.3415 93.0336C90.2783 92.9999 90.2151 92.9704 90.1561 92.9367C90.194 92.9367 90.2319 92.9409 90.2699 92.9409C90.3162 92.9367 90.3625 92.9325 90.4089 92.9241C90.3836 92.9536 90.3625 92.9915 90.3415 93.0336Z" fill="#1D1D1B"/>
<path d="M74.4232 105.56C73.1677 102.657 70.3659 100.437 67.3493 99.5941C64.4337 98.7809 60.4691 99.118 58.2234 101.355C56.6519 100.214 54.579 99.8259 52.6072 100.235C49.4431 100.892 46.8562 103.31 45.4743 106.159C45.449 106.209 45.5164 106.268 45.5543 106.222C47.3449 104.124 49.2493 102.017 52.009 101.254C54.6844 100.517 57.6926 101.393 58.9734 103.985C59.3147 104.671 60.3806 104.06 60.0056 103.382C59.6644 102.763 59.2346 102.232 58.7417 101.781C61.476 100.728 64.063 99.8891 67.0459 100.711C69.9362 101.507 72.0723 103.53 73.5132 106.096C73.8545 106.706 74.6887 106.171 74.4232 105.56Z" fill="#1D1D1B"/>
<path d="M40.5328 32.2925C36.2185 36.329 32.1823 40.6688 27.889 44.7348C27.4887 45.114 28.0954 45.7166 28.4915 45.3373C32.7721 41.2924 37.1665 37.2306 40.9879 32.7433C41.2533 32.4357 40.8404 32.006 40.5328 32.2925Z" fill="#1D1D1B"/>
<path d="M23.1189 67.0283C21.1472 69.0213 19.188 71.0185 17.2373 73.0283C17.0098 73.2643 17.3637 73.6182 17.5996 73.3907C19.6093 71.4398 21.6106 69.4806 23.5992 67.5087C23.9068 67.2011 23.4265 66.7166 23.1189 67.0283Z" fill="#1D1D1B"/>
<path d="M25.5942 90.6239C22.468 93.6576 19.4092 96.7587 16.3294 99.8429C16.0597 100.113 16.4768 100.534 16.7507 100.264C19.8348 97.1884 22.9357 94.1253 25.9692 90.9989C26.2051 90.7545 25.8386 90.3879 25.5942 90.6239Z" fill="#1D1D1B"/>
<path d="M61.8978 29.4527C58.8812 32.2968 55.9909 35.2842 53.0922 38.2462C52.8436 38.499 53.227 38.8825 53.4798 38.6339C56.4417 35.7308 59.4289 32.8446 62.2728 29.8277C62.5045 29.5791 62.1464 29.221 61.8978 29.4527Z" fill="#1D1D1B"/>
<path d="M74.6332 34.2688C72.6277 36.2238 70.6475 38.2042 68.663 40.1803C68.3386 40.5047 68.8442 41.0103 69.1686 40.6859C71.153 38.7098 73.1375 36.7337 75.0966 34.7323C75.3957 34.4331 74.9365 33.9738 74.6332 34.2688Z" fill="#1D1D1B"/>
<path d="M91.718 51.797L86.6663 56.8658C86.3082 57.2239 86.8644 57.7843 87.2225 57.422L92.291 52.37C92.6702 52.0035 92.0887 51.422 91.718 51.797Z" fill="#1D1D1B"/>
<path d="M99.4283 64.3492C96.4496 67.3829 93.4667 70.4166 90.4879 73.4545C90.2351 73.7115 90.627 74.0991 90.8797 73.8463C93.9133 70.8674 96.951 67.8885 99.9845 64.9054C100.351 64.5514 99.7865 63.9868 99.4283 64.3492Z" fill="#1D1D1B"/>
<path d="M101.962 118.146C99.9438 120.017 97.9678 121.922 95.9918 123.839C95.7053 124.117 96.1435 124.555 96.43 124.277C98.4144 122.372 100.39 120.468 102.337 118.521C102.577 118.281 102.21 117.919 101.962 118.146Z" fill="#1D1D1B"/>
</svg>
