<svg width="120" height="163" viewBox="0 0 120 163" fill="none" xmlns="http://www.w3.org/2000/svg">
<path d="M118.366 71.5476C117.732 67.1426 116.791 62.7838 115.519 58.5258C114.881 56.3968 114.167 54.293 113.377 52.2227C112.58 50.1525 111.702 48.1159 110.749 46.1171C108.843 42.1194 106.613 38.2813 104.073 34.6784C101.541 31.0713 98.6769 27.7035 95.5319 24.6464C93.9573 23.1221 92.3029 21.6818 90.5771 20.338C88.8597 18.9901 87.0583 17.7429 85.1982 16.6133C81.4737 14.3499 77.4805 12.5317 73.3151 11.3181C69.1455 10.1087 64.8206 9.47464 60.4873 9.48723C56.1539 9.49983 51.8332 10.1423 47.6762 11.3685C43.5192 12.5947 39.5386 14.4255 35.8267 16.6931C32.1148 18.9649 28.6885 21.7154 25.577 24.785C22.4614 27.8546 19.6607 31.2476 17.1833 34.8715C12.2243 42.1236 8.55859 50.2449 6.07699 58.7063C5.45975 60.8228 4.91808 62.9644 4.45199 65.1228C3.98171 67.277 3.58281 69.4521 3.25949 71.6399C2.61284 76.0113 2.27693 80.4331 2.20974 84.8633C2.10897 93.7153 3.16711 102.613 5.53533 111.171C6.70684 115.45 8.23107 119.637 10.0576 123.681C11.8842 127.725 14.0508 131.617 16.5534 135.279C19.0602 138.937 21.9029 142.363 25.0689 145.45C28.2434 148.528 31.7285 151.287 35.5118 153.542C39.2867 155.801 43.3345 157.598 47.5502 158.782C49.6581 159.37 51.8038 159.824 53.9663 160.113C56.1287 160.407 58.3122 160.533 60.4915 160.521C64.85 160.479 69.1917 159.811 73.3655 158.564C77.5351 157.313 81.5283 155.477 85.2528 153.193C87.1171 152.055 88.9101 150.8 90.6317 149.443C92.3533 148.091 93.9993 146.642 95.5781 145.114C98.7231 142.053 101.583 138.681 104.115 135.065C106.651 131.454 108.876 127.616 110.783 123.618C111.736 121.619 112.609 119.578 113.407 117.508C114.2 115.434 114.914 113.33 115.548 111.205C116.821 106.947 117.757 102.584 118.391 98.1833C119.021 93.7741 119.315 89.3229 119.323 84.8717C119.298 80.4037 119 75.9526 118.366 71.5476ZM118.71 98.2127C118.143 102.643 117.287 107.039 116.145 111.365C115.569 113.527 114.91 115.669 114.175 117.785C113.449 119.902 112.638 121.997 111.744 124.055C109.96 128.17 107.856 132.159 105.391 135.934C102.993 139.596 100.277 143.065 97.2115 146.218C97.2031 146.248 97.1905 146.277 97.1737 146.302C97.1737 146.302 97.1779 146.302 97.1779 146.306C97.1275 146.374 97.0771 146.441 97.0267 146.504C96.8797 146.739 96.8042 147.029 96.527 147.138C96.4598 147.163 96.3969 147.171 96.3339 147.176C96.2751 147.218 96.2121 147.264 96.1449 147.306C96.1323 147.31 96.1197 147.318 96.1113 147.323C93.1553 150.216 89.9137 152.832 86.3865 155.032C82.5319 157.439 78.3581 159.37 73.9786 160.659C69.6032 161.944 65.0348 162.595 60.4789 162.557C55.923 162.511 51.3797 161.785 47.0464 160.441C42.713 159.089 38.5938 157.115 34.7896 154.684C30.9853 152.252 27.5001 149.363 24.3509 146.155C21.1933 142.955 18.3758 139.441 15.8858 135.712C10.9016 128.262 7.20652 119.99 4.72073 111.39C4.09928 109.24 3.56181 107.065 3.09573 104.873C2.62544 102.681 2.22654 100.476 1.90322 98.2588C1.26497 93.8245 0.916459 89.3439 0.857674 84.8549C0.761097 75.8854 1.80664 66.8654 4.17486 58.1646C6.54728 49.4765 10.2172 41.099 15.2559 33.5698C17.7711 29.8073 20.6306 26.2631 23.8386 23.0423C27.0467 19.8299 30.5948 16.9283 34.4704 14.5137C38.3377 12.095 42.5283 10.1549 46.9162 8.84475C51.3083 7.5388 55.8936 6.86691 60.4789 6.87111C65.0599 6.88791 69.641 7.56819 74.0247 8.89514C78.4085 10.2179 82.5822 12.1705 86.4369 14.5977C88.3642 15.8113 90.2076 17.1508 91.9712 18.587C93.7263 20.0273 95.3975 21.5642 96.9805 23.1851C100.155 26.4185 102.956 29.9921 105.416 33.7672C107.873 37.5465 109.976 41.5399 111.761 45.6551C112.651 47.7128 113.461 49.8082 114.188 51.9246C114.923 54.041 115.578 56.1826 116.153 58.3452C117.295 62.6704 118.148 67.067 118.714 71.4972C119 73.7102 119.206 75.9358 119.34 78.1656C119.479 80.3953 119.55 82.6251 119.55 84.8591C119.55 87.0889 119.474 89.3229 119.332 91.5485C119.206 93.7783 118.996 95.9997 118.71 98.2127Z" fill="#251C1C"/>
<path d="M112.874 84.8589C112.84 92.7744 111.87 100.69 109.846 108.362L109.023 111.226C108.729 112.175 108.402 113.111 108.095 114.056C107.952 114.531 107.763 114.988 107.591 115.459L107.071 116.853C106.982 117.084 106.903 117.319 106.806 117.55L106.516 118.239L105.937 119.616C104.354 123.265 102.485 126.801 100.302 130.148C98.1142 133.486 95.6284 136.652 92.8193 139.516C90.006 142.376 86.8862 144.962 83.4598 147.091C80.0377 149.225 76.3342 150.925 72.4501 152.067C68.5745 153.218 64.5225 153.781 60.4831 153.768C56.4394 153.726 52.4168 153.071 48.5748 151.874C44.7327 150.673 41.0754 148.935 37.6994 146.785C37.4811 146.659 37.2795 146.512 37.0738 146.373L36.4565 145.949L35.222 145.097L34.0337 144.181L33.4417 143.724C33.2443 143.572 33.0428 143.425 32.858 143.258L31.7201 142.283C31.3422 141.956 30.9517 141.645 30.599 141.292L29.5114 140.263L28.9698 139.747C28.7892 139.575 28.6255 139.39 28.4491 139.209C25.6526 136.371 23.1542 133.255 20.9497 129.95C16.5282 123.341 13.2446 116.013 11.0402 108.387L10.2718 105.511L10.1752 105.15L10.0912 104.788L9.92744 104.062L9.59992 102.609L9.43616 101.883L9.2976 101.152L9.02466 99.6864C8.82731 98.7121 8.69714 97.7295 8.55018 96.7469C7.98752 92.8122 7.6642 88.8398 7.60961 84.8631C7.57602 80.8822 7.79017 76.8972 8.27305 72.9415C8.39902 71.9547 8.50399 70.9595 8.68455 69.9768L8.92809 68.4987L9.04986 67.7596C9.09605 67.5161 9.15063 67.2683 9.19682 67.0248L9.50335 65.5592L9.65451 64.8286L9.73009 64.4633L9.82247 64.1021L10.5489 61.1962C12.6568 53.4907 15.9194 46.0664 20.3829 39.3897C22.6167 36.0555 25.1487 32.9103 27.9914 30.0548C28.1678 29.8742 28.3399 29.6895 28.5205 29.5173L29.0747 29.0008L30.1791 27.972C30.5402 27.6193 30.9391 27.3085 31.3212 26.981L32.4801 26.0068C32.6691 25.843 32.8748 25.6918 33.0764 25.5406L33.681 25.0829L34.8903 24.1717L36.1458 23.3235L36.7757 22.8993C36.9856 22.7608 37.1914 22.6096 37.4097 22.4878C40.8403 20.3462 44.5606 18.6329 48.453 17.4739C52.3455 16.3149 56.4101 15.7061 60.4747 15.7061C64.5393 15.7271 68.5997 16.3359 72.4837 17.5201C76.3678 18.6917 80.0755 20.4092 83.4934 22.5592C86.9198 24.7008 90.0312 27.3085 92.8403 30.1766C95.6536 33.0446 98.1352 36.2151 100.319 39.5619C102.498 42.9128 104.367 46.4528 105.95 50.1019L106.529 51.4793L106.819 52.1679C106.915 52.3989 106.995 52.634 107.083 52.865L107.604 54.2633C107.772 54.7294 107.965 55.1914 108.108 55.6659C108.414 56.6107 108.738 57.5471 109.032 58.4961L109.855 61.36C111.887 69.0236 112.853 76.9434 112.874 84.8589ZM10.2214 70.233C10.024 71.1904 9.88965 72.1646 9.74689 73.1346C9.17583 77.0105 8.8651 80.9326 8.80212 84.8589C8.76853 88.7852 8.97428 92.7198 9.46556 96.6209C9.59153 97.5951 9.7007 98.5735 9.88125 99.5436L10.1248 100.997L10.2466 101.723C10.2928 101.967 10.3473 102.206 10.3977 102.445L10.7043 103.89L10.8554 104.612L10.931 104.973L11.0234 105.33L11.7498 108.19C12.7911 111.986 14.1474 115.694 15.7682 119.28C17.389 122.866 19.3163 126.314 21.5334 129.564C23.7547 132.806 26.2782 135.846 29.0831 138.584C29.2595 138.756 29.4275 138.937 29.608 139.1L30.1539 139.596L30.1833 139.621C30.2295 139.684 30.2883 139.734 30.3554 139.781C30.5864 139.936 30.8173 140.1 31.0441 140.268C31.0273 140.297 31.0105 140.326 30.9895 140.352L31.2456 140.583C31.6025 140.919 31.993 141.212 32.3709 141.527L33.5089 142.455C33.6936 142.615 33.8952 142.754 34.0925 142.896L34.6846 143.329L35.8729 144.19L37.1032 144.983H37.1074C36.087 138.806 36.4062 132.247 37.4013 126.099C38.2033 121.123 39.5974 116.269 41.5205 111.621C41.4449 111.595 41.3777 111.558 41.3274 111.507C40.4162 110.55 39.6772 109.508 39.1229 108.312C38.9591 107.963 39.4294 107.677 39.6436 108.009C40.202 108.878 40.8445 109.672 41.5877 110.382C42.1461 109.525 42.713 108.668 43.2421 107.791C43.6284 107.153 44.5312 107.711 44.2288 108.366C42.7466 111.562 41.5289 114.875 40.5715 118.264C42.6878 119.007 44.5732 120.254 46.2066 121.808C46.702 122.274 46.5047 122.996 46.0092 123.353C44.3632 124.521 42.1797 124.802 40.2944 124.071C39.9669 123.945 39.6142 123.782 39.316 123.567C39.1355 124.483 38.9717 125.398 38.8332 126.318C38.787 126.624 38.7408 126.931 38.6988 127.237C40.3994 127.296 42.037 127.851 43.4352 128.833C44.0483 129.266 44.9175 129.807 45.0518 130.605C45.182 131.361 44.6067 132.054 44.0399 132.478C42.7928 133.41 40.5589 133.784 39.1649 132.995C38.7324 132.751 38.4217 132.432 38.2033 132.071C38.1277 133.234 38.0815 134.401 38.0689 135.569C38.0689 135.695 38.0689 135.821 38.0689 135.947C38.1907 135.926 38.3167 135.926 38.4553 135.951C39.6142 136.178 40.8277 136.451 41.8354 137.093C42.629 137.597 43.641 138.517 43.5696 139.562C43.4184 141.771 39.8787 140.885 38.2075 140.158C38.3125 141.775 38.4595 143.392 38.6022 145.021C38.6106 145.135 38.5938 145.235 38.556 145.324C38.5896 145.361 38.619 145.408 38.6232 145.462C38.6484 145.63 38.6946 145.811 38.7156 145.991C39.2531 146.306 39.7989 146.613 40.349 146.902C39.7737 145.361 39.7233 143.371 39.9711 141.821C40.0005 141.645 40.2524 141.704 40.2608 141.859C40.328 142.796 40.3574 143.728 40.5128 144.656C40.6555 145.483 40.9536 146.281 41.0796 147.108C41.088 147.167 41.0796 147.222 41.0586 147.272C41.3064 147.398 41.5541 147.524 41.8018 147.641C41.8648 147.696 41.9362 147.738 42.0202 147.772C42.0916 147.822 42.1839 147.856 42.2847 147.868C42.3267 147.885 42.3687 147.898 42.4107 147.91C42.4233 147.919 42.4401 147.923 42.4527 147.931C42.4527 147.931 42.4527 147.931 42.4569 147.931C42.4527 147.935 42.4485 147.944 42.4443 147.948C44.569 148.943 46.7692 149.77 49.0199 150.405L49.7211 150.602C49.8765 150.644 50.0276 150.69 50.183 150.728C50.2712 150.77 50.3719 150.799 50.4727 150.816C51.006 150.887 51.5267 151.085 52.0431 151.244C52.2069 151.295 52.3496 151.282 52.4714 151.236L52.5554 151.253C52.7905 151.307 53.0341 151.333 53.2734 151.37L54.7095 151.593C54.9488 151.627 55.184 151.677 55.4275 151.694L56.1497 151.757L57.5942 151.883C57.8335 151.912 58.077 151.912 58.3206 151.916L59.047 151.933L59.8658 151.954C59.8658 151.95 59.8658 151.941 59.8658 151.933C59.87 151.933 59.87 151.933 59.8742 151.933C60.1093 151.958 60.3445 151.967 60.5796 151.979C60.6216 151.988 60.6678 152 60.714 152.004C61.0457 152.042 61.3438 152.063 61.663 152.038C61.6714 152.038 61.684 152.038 61.6924 152.038C61.6924 152.038 61.6924 152.038 61.6924 152.034C61.7511 152.03 61.8099 152.025 61.8687 152.013C61.9527 152 62.0241 151.967 62.0913 151.916C65.421 151.753 68.7214 151.16 71.9127 150.207C72.0638 150.161 72.215 150.111 72.3661 150.064C72.4753 150.098 72.5929 150.098 72.7021 150.056C73.1094 149.888 73.5167 149.716 73.9198 149.548C75.7085 148.914 77.4595 148.162 79.1559 147.306C79.1517 147.297 79.1517 147.293 79.1475 147.285C79.1433 147.264 79.1391 147.247 79.1349 147.226C79.1979 147.213 79.2608 147.192 79.3196 147.159C79.3322 147.154 79.3406 147.15 79.349 147.146C79.5422 147.075 79.7227 146.986 79.9033 146.89C79.9033 146.898 79.9033 146.907 79.9033 146.915C80.7683 146.457 81.6207 145.974 82.4605 145.462C82.6704 145.345 82.8678 145.202 83.0735 145.072L83.6824 144.673L84.8959 143.875L86.0674 143.014L86.6552 142.581C86.8526 142.439 87.0499 142.296 87.2347 142.141L88.36 141.217C88.7337 140.906 89.12 140.612 89.4727 140.276L90.5519 139.298L91.0936 138.806C91.2741 138.643 91.4421 138.466 91.6142 138.294C91.6184 138.29 91.6226 138.281 91.631 138.277C91.7108 138.244 91.7864 138.185 91.862 138.105C92.0005 137.95 92.1391 137.799 92.2819 137.647C92.6472 137.32 92.9999 136.992 93.3064 136.61C93.34 136.572 93.361 136.535 93.382 136.493C95.4815 134.271 97.4214 131.89 99.1808 129.379C101.427 126.179 103.405 122.774 105.097 119.23L105.719 117.89L106.029 117.222C106.134 117 106.222 116.769 106.319 116.542L106.882 115.181C107.066 114.724 107.272 114.279 107.432 113.813C107.768 112.889 108.116 111.965 108.435 111.037L109.334 108.223C111.576 100.665 112.655 92.7618 112.68 84.8673C112.647 76.9727 111.559 69.074 109.317 61.5154L108.419 58.7019C108.095 57.7739 107.751 56.8501 107.415 55.9262C107.255 55.4601 107.05 55.0108 106.865 54.5573L106.298 53.1967C106.201 52.97 106.113 52.739 106.012 52.5165L105.702 51.8488L105.08 50.5134C103.388 46.9693 101.41 43.5679 99.1598 40.3723C96.9133 37.1725 94.3772 34.1868 91.589 31.4741C91.4169 31.3062 91.2489 31.1256 91.0684 30.9618L90.5267 30.4747L89.4434 29.5005C89.0906 29.1688 88.7001 28.8748 88.3264 28.5641L87.1969 27.6487C87.0122 27.4891 86.8148 27.3505 86.6175 27.2077L86.0296 26.7794L84.8581 25.9228L83.6404 25.1291L83.0315 24.7344C82.83 24.6042 82.6326 24.4614 82.4185 24.3481C79.1139 22.345 75.57 20.7451 71.8749 19.6659C68.184 18.5909 64.3461 18.0198 60.5041 18.024C56.662 18.0408 52.8283 18.6161 49.1458 19.7079C45.4591 20.7955 41.9278 22.408 38.6358 24.4153C38.4259 24.5328 38.2285 24.6756 38.027 24.8058L37.4013 25.1963L36.192 25.9942L35.0289 26.8592L34.4452 27.2875C34.2521 27.4345 34.0547 27.5731 33.87 27.7284L32.753 28.6523C32.3835 28.963 31.9972 29.257 31.6487 29.5971L30.578 30.5797L30.0447 31.0752C29.8684 31.239 29.7004 31.4196 29.5282 31.5875C26.7695 34.3128 24.2837 37.3237 22.0877 40.5361C17.6913 46.9651 14.4371 54.1667 12.2327 61.6666L11.4643 64.501L11.3677 64.8538L11.2837 65.2149L11.12 65.9288L10.7924 67.3607L10.6287 68.0788L10.4943 68.8011L10.2214 70.233ZM42.2679 122.463C42.1671 122.413 42.0664 122.362 41.9698 122.299C41.9446 122.341 41.9152 122.387 41.8858 122.429C42.016 122.45 42.142 122.463 42.2679 122.463Z" fill="#251C1C"/>
<path d="M74.4992 8.65133C71.8791 7.03043 69.2547 5.42633 66.5968 3.86421C65.2699 3.08316 63.9472 2.2979 62.6246 1.51264C61.5286 0.861763 60.3235 -0.0326747 58.9882 0.000919115C57.8839 0.0261145 56.872 1.03393 56.0406 1.66801C54.9824 2.47846 53.9495 3.31411 52.9417 4.18755C50.7625 6.0772 48.642 8.09283 46.828 10.3394C46.7482 10.4402 46.8742 10.5746 46.9708 10.4822C48.8519 8.68072 50.7079 6.86665 52.715 5.20796C53.7395 4.36391 54.7935 3.54927 55.8684 2.77241C56.9097 2.02075 58.0771 0.878553 59.4627 1.26908C60.6804 1.61342 61.8393 2.66323 62.8807 3.3561C64.0564 4.14135 65.2321 4.92661 66.4036 5.71606C68.7509 7.29497 71.1233 8.8235 73.5041 10.3478C74.5748 11.0365 75.5742 9.31901 74.4992 8.65133Z" fill="#251C1C"/>
<path d="M59.4545 2.64167C59.1395 2.32673 58.6776 2.20915 58.2494 2.32253C58.2368 2.32673 58.2242 2.32672 58.2116 2.33092C58.115 2.37291 58.0142 2.41491 57.9176 2.4569C57.7749 2.53249 57.6573 2.64167 57.5733 2.77184C57.4138 2.97761 57.2962 3.24635 57.3088 3.5151C57.3172 3.73346 57.376 3.94342 57.4767 4.13658C57.6153 4.40113 57.926 4.62789 58.2116 4.70348C58.2242 4.70768 58.2368 4.70767 58.2494 4.71187C58.665 4.82105 59.1563 4.71607 59.4545 4.39273C59.677 4.14918 59.8156 3.85103 59.8156 3.5151C59.8156 3.20436 59.677 2.86843 59.4545 2.64167Z" fill="#251C1C"/>
<path d="M77.0143 84.7878C74.4613 83.4902 71.753 82.6126 68.9397 82.2053C69.1748 81.609 69.2462 80.9791 69.1664 80.3702C70.7158 80.3156 72.2695 80.408 73.8357 80.6431C74.2136 80.7019 74.3815 80.1266 73.9952 80.0636C72.3492 79.7865 70.6906 79.7067 69.0446 79.8033C68.9397 79.4506 68.7843 79.1146 68.5827 78.8081C68.7381 78.7913 68.8935 78.7745 69.0488 78.7577C71.4632 78.4973 73.7853 78.7241 76.1913 78.8081C76.4936 78.8165 76.5692 78.3294 76.2627 78.2706C73.7811 77.7919 71.0308 78.006 68.545 78.3714C68.4568 78.384 68.3686 78.3966 68.2804 78.4092C67.9361 78.0228 67.4994 77.6995 66.9829 77.4853C65.8618 77.0192 64.5853 77.1788 63.46 77.5441C62.3515 77.9052 61.159 78.447 60.1008 79.0601C60.6509 77.9431 60.7559 76.7085 60.5585 75.4277C60.4955 75.0204 59.9329 74.9406 59.6767 75.1968C59.3198 75.5495 59.0133 75.9568 58.7698 76.3935C58.5598 75.9652 58.2617 75.5957 57.7788 75.3815C57.0482 75.054 56.095 75.1254 55.6205 75.8476C55.1293 76.5951 55.4862 77.5483 55.9858 78.1866C56.0656 78.2874 56.1496 78.3756 56.2462 78.4637C54.4868 78.2034 52.6561 78.1698 51.0604 78.6569C49.8973 79.0139 48.835 79.8117 48.3185 80.8699C45.69 80.9917 43.0782 81.3948 40.5084 82.0919C40.1515 82.1885 40.3027 82.747 40.6596 82.6462C43.1118 81.9533 45.6144 81.5124 48.138 81.3234C47.9868 81.8063 47.9406 82.3312 48.0456 82.8855C48.0708 83.0241 48.1086 83.1543 48.1506 83.2803C47.2772 83.5112 46.4122 83.7716 45.564 84.0865C43.5905 84.8214 41.0543 85.909 39.8114 87.6979C39.7064 87.849 39.9122 88.0422 40.0633 87.9498C40.9997 87.3619 41.7933 86.5724 42.7465 85.9971C43.8508 85.3295 45.0349 84.792 46.2526 84.3553C46.9455 84.1075 47.6467 83.9018 48.3521 83.7086C48.709 84.3175 49.3053 84.6912 49.9939 84.9306C48.7762 85.783 47.6845 86.8202 46.9203 88.0086C46.7439 88.2815 47.1512 88.6007 47.3696 88.3571C48.4697 87.1519 49.5236 86.0685 50.7245 85.1279C51.6315 85.3169 52.6141 85.3379 53.4077 85.3673C54.6044 85.4093 55.8683 85.2581 56.9054 84.7458C56.9222 84.918 56.9726 85.0901 57.0608 85.2623C57.4009 85.9132 58.0769 86.2071 58.7908 86.2071C59.5508 86.2071 60.2436 85.8502 60.7349 85.2833C60.9406 85.0439 61.1674 84.7206 61.3017 84.3805C61.688 84.5022 62.1037 84.5988 62.5446 84.6534C64.6945 84.9264 67.5666 84.7794 68.7465 82.6378C68.7843 82.5706 68.8137 82.5034 68.8473 82.4404C71.6396 82.8561 74.3144 83.759 76.7959 85.1783C77.0395 85.3127 77.2662 84.9179 77.0143 84.7878ZM59.3954 84.6618C58.9083 85.0145 57.7116 84.9852 57.4933 84.3889C58.0727 83.9815 58.5472 83.4314 58.8453 82.6882C59.1603 83.1165 59.5466 83.4734 59.9917 83.7674C59.8489 84.0907 59.7145 84.4308 59.3954 84.6618ZM67.4742 82.3816C66.3153 83.7128 63.9765 83.528 62.3977 83.2131C60.5459 82.8393 59.576 81.8189 58.5934 80.2652C58.3751 79.9167 57.8754 80.1476 57.951 80.5382C58.0895 81.2814 58.3457 81.9239 58.6942 82.4656C58.6438 82.4572 58.5934 82.4698 58.5556 82.516C57.3925 83.9395 55.6373 84.4602 53.8528 84.4308C53.3321 84.4225 52.5889 84.414 51.8457 84.3217C52.2991 84.0277 52.7736 83.7506 53.2859 83.4902C53.4371 83.4146 53.3279 83.1501 53.1683 83.2131C52.4881 83.4818 51.7995 83.8136 51.1276 84.1999C50.46 84.0571 49.8469 83.822 49.4648 83.4188C50.8631 83.0829 52.274 82.8057 53.6764 82.4866C53.815 82.4572 53.7856 82.2179 53.6428 82.2389C52.1564 82.4362 50.6615 82.684 49.1919 83.0199C49.0659 82.7428 49.0197 82.411 49.0911 82.0079C49.1415 81.7265 49.2297 81.4746 49.3389 81.252C50.9135 81.1848 52.4923 81.2184 54.0669 81.3486C54.2559 81.3654 54.2517 81.0757 54.0669 81.0547C52.5763 80.8867 51.0856 80.8153 49.5992 80.8279C51.2662 78.6989 56.2042 79.6227 58.5388 80.1057C58.5808 80.1602 58.6228 80.219 58.6606 80.2778C58.9251 80.7103 59.5256 80.4542 59.5004 80.0007C59.5214 79.9755 59.5424 79.9503 59.5634 79.9251C59.6263 79.8411 59.6851 79.7571 59.7439 79.6731C61.5579 79.2448 63.3214 78.216 65.2068 78.2496C65.7442 78.258 66.2565 78.4134 66.7016 78.6695C64.9674 79.0055 63.2375 79.543 61.9148 80.6894C61.898 80.702 61.919 80.7313 61.9358 80.7187C63.4642 79.7445 65.3285 79.2742 67.1593 78.9929C67.4616 79.249 67.7094 79.5598 67.8731 79.8999C66.3489 80.0721 64.8373 80.3954 63.3676 80.8699C63.1157 80.9497 63.2207 81.3444 63.4768 81.2688C64.9926 80.8363 66.5169 80.5634 68.0495 80.4332C68.1545 80.9539 68.0621 81.5124 67.7094 82.0541C67.3021 82.0163 66.8948 81.9869 66.4833 81.9659C66.3363 81.9575 66.3363 82.1843 66.4833 82.1927C66.8402 82.2095 67.1971 82.2388 67.5498 82.2724C67.5246 82.3102 67.5036 82.3438 67.4742 82.3816Z" fill="#251C1C"/>
<path d="M52.971 68.5829C52.442 67.3273 51.8415 65.551 50.8086 64.6188C48.7385 62.7376 46.2359 65.1059 45.5389 67.0838C45.0602 68.4401 44.9594 69.9854 44.972 71.409C44.9804 72.5301 44.6865 74.3022 45.5431 75.1925C45.7782 75.436 46.1099 75.1295 45.9839 74.8523C45.3415 73.4666 45.9629 71.2914 46.1183 69.8175C46.2863 68.2553 46.6852 66.0675 48.327 65.3789C49.5279 64.875 50.1493 65.7106 50.712 66.6596C51.2159 67.5079 51.7155 68.3603 52.0808 69.2799C52.7107 70.8756 52.7989 72.3244 52.6183 73.9663C52.0137 74.0419 51.3922 74.1133 50.7666 74.193C50.8212 74.1091 50.8506 74.0083 50.838 73.8907C50.6826 72.4084 50.46 70.8967 50.1241 69.4437C49.9646 68.7676 49.6161 67.9656 48.7763 68.0622C47.7013 68.184 47.5921 69.9224 47.4578 70.7035C47.2352 72.0136 47.189 73.4708 47.6173 74.7515C46.8825 74.9363 46.1645 75.1673 45.4843 75.4696C45.4339 75.4906 45.4633 75.5662 45.5095 75.5662C46.618 75.583 47.7517 75.4444 48.877 75.2807C49.1836 75.352 49.5237 75.3058 49.7966 75.1463C50.3131 75.0707 50.8254 74.9951 51.3334 74.9405C51.8205 74.8859 52.8283 74.9447 53.2188 74.6382C53.5799 74.3526 53.6681 73.6177 53.7268 73.2188C53.9704 71.6189 53.5967 70.0568 52.971 68.5829Z" fill="#251C1C"/>
<path d="M39.9544 58.5879C39.4926 58.1218 38.7787 57.8489 38.1867 57.6053C37.7962 57.4457 37.3595 57.8615 37.3973 58.252C37.3469 58.3108 37.3217 58.3906 37.3301 58.483C37.3721 58.8399 37.4603 59.18 37.5526 59.5244C37.6324 59.8267 37.6702 60.2004 37.855 60.4608C38.3462 61.1494 39.0601 60.4608 39.5093 60.1248C40.0048 59.7595 40.5381 59.1758 39.9544 58.5879Z" fill="#251C1C"/>
<path d="M75.0537 54.5788C74.6296 55.1667 74.1719 55.7378 73.7982 56.3593C73.794 56.3635 73.794 56.3677 73.794 56.3719C73.7184 56.3803 73.6806 56.4853 73.731 56.544C73.6554 56.9556 74.1047 57.3335 74.4868 57.1907C74.6632 57.3125 74.8437 57.4259 75.0411 57.5308C75.2972 57.6652 75.5576 57.5393 75.6583 57.2789C75.9481 56.5314 75.9985 55.6412 76.0404 54.8433C76.0656 54.2764 75.335 54.1883 75.0537 54.5788Z" fill="#251C1C"/>
<path d="M69.8678 67.7213C69.5991 66.197 68.881 63.4255 66.9915 63.2239C65.1272 63.0265 63.7163 65.3109 63.1075 66.7681C62.2425 68.8467 61.9947 71.404 62.2887 73.638C62.0535 73.8564 62.1417 74.3645 62.5532 74.3603C63.8885 74.3435 65.2573 74.3183 66.6136 74.3603C66.7438 74.6122 67.1217 74.6584 67.2686 74.3897C67.9825 74.4233 68.6921 74.4821 69.3891 74.5744C69.5151 74.5912 69.6621 74.4694 69.6831 74.3477C70.1239 72.2061 70.2457 69.8797 69.8678 67.7213ZM69.0868 73.9404C68.5409 73.9026 67.9951 73.8606 67.4492 73.8186C67.9699 71.8281 68.7299 67.4273 66.0719 67.188C63.4014 66.9444 63.7037 71.9541 64.0858 73.5876C63.5903 73.5666 63.0949 73.5498 62.5952 73.5456C62.8303 71.8533 62.7589 70.14 63.204 68.4645C63.5567 67.1502 65.2321 63.1147 67.2854 64.1435C68.0874 64.5467 68.5157 66.0206 68.7425 66.8059C68.986 67.6583 69.1078 68.5401 69.154 69.422C69.2422 70.9337 69.0952 72.4328 69.0868 73.9404Z" fill="#251C1C"/>
<path d="M104.048 75.8804C102.091 74.1252 99.4078 73.2013 96.7918 73.6422C94.0793 74.1 92.1562 76.1954 90.8041 78.4546C87.4743 84.0059 85.0599 90.5105 84.2999 96.9941C83.8044 96.2299 83.2837 95.4866 82.7337 94.7601C81.7511 93.4668 80.6552 92.0306 79.3451 91.006C79.6012 90.8045 79.849 90.5945 80.0799 90.3804C82.4733 88.18 83.8842 85.0221 84.7366 81.9315C84.7912 81.7341 84.8416 81.5326 84.8878 81.3352C85.1691 80.9699 85.2951 80.4954 85.1649 80.0839C85.484 78.4252 85.6268 76.7371 85.61 75.049C85.6604 74.7424 85.6394 74.4023 85.5806 74.0454C85.4168 70.8498 84.6652 67.6793 83.3551 64.7651C82.6623 63.224 81.8099 61.7584 80.8022 60.3979C80.2143 59.6 79.4963 58.6552 78.6439 58.0001C78.6733 57.9371 78.6985 57.87 78.7153 57.7944C79.2695 54.9389 79.1562 52.1758 78.5767 49.3371C78.4759 48.8332 77.7411 48.4931 77.3086 48.8206C75.6164 50.1056 73.9368 51.3989 72.274 52.7175C71.514 53.3222 70.6406 54.3468 69.6203 54.246C68.6713 54.1536 67.7098 53.8177 66.765 53.6581C63.0951 53.0493 59.337 52.9443 55.6503 53.4398C51.9258 53.9437 48.2895 54.9641 44.8884 56.5724C44.0822 56.9545 43.4145 57.324 42.5159 56.9419C42.1716 56.7949 41.8609 56.5304 41.5502 56.3288C40.8028 55.8459 40.0385 55.4218 39.2197 55.0733C37.494 54.3342 35.7052 53.9983 33.8493 53.8051C33.3202 53.7505 32.9633 54.3552 33.085 54.8087C33.8073 57.5676 34.7142 60.4483 36.2259 62.8838C36.2301 62.888 36.2301 62.888 36.2343 62.8922C31.6406 68.0531 29.2346 75.0826 30.4859 81.9693C31.4139 87.0756 34.2314 91.7913 38.4009 94.7979C36.629 97.7332 35.0208 100.757 33.4378 103.805C31.8506 106.862 30.1668 109.903 28.8189 113.073C28.3738 114.123 27.9833 115.198 27.6852 116.29C27.681 116.294 27.681 116.294 27.6768 116.298C27.3744 116.613 27.3073 117.008 27.4206 117.373C27.0889 118.927 26.9504 120.514 27.1015 122.131C27.3744 125.041 28.3906 127.8 29.7973 130.344C31.4684 133.368 33.6435 136.165 35.9613 138.718C36.692 139.52 37.8215 138.348 37.1371 137.542C33.4714 133.183 29.5243 128.329 28.8609 122.454C28.7433 121.4 28.7559 120.363 28.8651 119.342C29.8099 120.098 31.0905 120.413 32.2914 120.342C33.4798 120.27 34.9326 119.649 34.4119 118.183C33.9836 116.978 32.3292 115.874 31.1661 115.496C30.7126 115.349 30.2381 115.294 29.7763 115.328C30.2004 114.056 30.7336 112.808 31.3173 111.578C31.6868 112.254 32.3124 112.838 32.8373 113.338C33.5427 114.005 34.5211 114.963 35.5121 115.126C36.5324 115.294 37.431 114.522 37.536 113.51C37.6493 112.43 36.9313 111.364 36.3351 110.524C35.7178 109.651 34.5127 108.109 33.274 107.744C33.7653 106.816 34.2524 105.897 34.7017 104.989C36.2847 101.806 37.8383 98.6192 39.2197 95.3564C39.4885 95.5286 39.7656 95.6924 40.0469 95.852C40.4794 97.2167 41.483 98.5647 42.8015 99.0056C43.129 99.1148 43.3305 98.6864 43.1206 98.4555C42.6083 97.897 42.0163 97.4225 41.5124 96.8556C41.3948 96.7212 41.2898 96.5868 41.1891 96.4482C41.4158 96.5532 41.6426 96.6582 41.8735 96.7548C43.5321 97.456 44.5356 95.1339 42.8393 94.462C40.6096 93.5802 38.5815 92.1818 36.8851 90.4518C37.7879 89.5237 38.867 87.9238 37.8803 86.958C36.9439 86.0468 35.554 86.8656 34.6303 87.6803C34.1474 86.958 33.7149 86.2063 33.337 85.4253C34.9284 84.6358 38.0482 82.9477 36.9817 80.9069C36.1587 79.3322 33.2194 79.5715 31.775 80.403C31.649 79.5841 31.5692 78.7569 31.544 77.9339C31.6196 78.1312 31.7204 78.3034 31.8631 78.4168C32.5098 78.9585 33.6057 78.358 34.265 78.1522C35.3651 77.8121 36.5828 77.5391 37.4982 76.7917C38.7159 75.7964 39.1064 73.9656 37.8047 72.8822C37.0111 72.2229 35.9655 72.1305 34.9788 72.1095C34.0592 72.0885 33.0683 72.0004 32.1781 72.2565C33.0137 68.8677 34.6303 65.6553 36.8053 62.9636C36.9061 62.8418 36.8641 62.6907 36.7717 62.6109C36.4358 60.1795 35.7094 57.7818 34.9578 55.4344C36.7759 55.6024 38.5521 56.2197 40.1309 57.1351C41.7517 58.0757 42.7763 58.882 44.7036 58.2983C46.6015 57.723 48.4029 56.8957 50.326 56.3834C50.6158 56.3079 50.9055 56.2323 51.1952 56.1651C51.0314 57.1435 51.9846 58.4368 52.858 58.5964C54.0463 58.8148 55.1129 57.5214 55.2346 56.375C55.3732 56.5598 55.5244 56.7278 55.6629 56.858C56.0198 57.1939 56.4355 57.492 56.9436 57.5046C57.5147 57.5172 58.0185 57.1981 58.3377 56.7362C58.4846 56.5262 58.6022 56.2701 58.6778 56.0055C58.7786 56.291 58.9255 56.5556 59.0851 56.7488C59.3286 57.0385 59.7737 57.3241 60.2524 57.4878C61.3609 58.0169 62.734 57.723 63.7333 57.0763C64.2582 56.7362 64.8419 56.1273 65.0434 55.4974C66.2695 55.6612 67.4956 55.8837 68.7217 56.1567C69.5069 56.333 70.2249 56.4632 71.006 56.1819C71.766 55.9047 72.3832 55.2622 72.9963 54.7541C74.4155 53.5658 75.8222 52.369 77.2204 51.1554C77.5773 53.2004 77.5228 55.3126 77.1407 57.3493C77.0903 57.6222 77.1658 57.8532 77.3044 58.0295C77.9427 59.3397 79.173 60.4861 79.9834 61.6745C80.9281 63.0644 81.7301 64.5635 82.3558 66.1256C82.8554 67.3644 83.2502 68.641 83.5399 69.9427C82.4859 69.9595 81.4362 70.2409 80.4452 70.5852C79.5802 70.8876 78.5305 71.1605 77.8041 71.74C76.1371 73.067 77.3338 74.6249 78.8496 75.3135C80.3319 75.9896 82.3936 76.5355 84.1025 76.2542C84.0774 76.8673 84.0228 77.4929 83.9472 78.1186C83.015 77.7365 81.7931 77.6693 80.8441 77.7407C79.9162 77.8079 79.1688 78.358 78.921 79.2692C78.3206 81.499 80.504 82.6748 82.2592 83.2459C82.3894 83.2879 82.5111 83.2963 82.6203 83.2795C82.276 84.1109 81.8645 84.9046 81.3858 85.6478C80.8777 85.3497 80.3235 85.1901 79.723 85.1523C79.1184 85.1145 78.308 85.1733 77.8503 85.6184C77.3884 86.072 77.4304 86.7858 77.7453 87.3065C77.8923 87.5543 78.1064 87.7558 78.3374 87.9196C78.5431 88.0624 78.795 88.1548 78.9798 88.3227C78.3038 88.8644 77.5731 89.3432 76.8047 89.7631C75.1209 90.6827 73.2818 90.8927 71.472 91.4302C70.5735 91.6989 70.4769 93.1308 71.472 93.3492C71.9423 93.45 72.421 93.4962 72.8997 93.492C72.7275 93.8783 72.5764 94.2688 72.3034 94.6216C71.9087 95.1255 71.3965 95.5874 70.8296 95.8897C70.5441 96.0409 70.7456 96.5532 71.0521 96.423C72.2908 95.9023 73.7521 94.8273 74.025 93.4038C75.6248 93.1644 77.212 92.4674 78.5641 91.5562C79.3283 92.7991 80.3319 93.9161 81.1255 95.1465C81.9989 96.4944 82.8596 97.8382 83.6365 99.2491C84.7744 101.311 85.7527 103.469 86.5631 105.687C85.4966 106.132 84.5602 107.097 83.8926 107.958C82.91 109.226 83.0696 110.482 84.3713 111.452C85.3874 112.212 86.9872 112.464 88.1168 111.784C88.1881 111.742 88.2469 111.696 88.3057 111.654C88.4653 112.372 88.6038 113.09 88.7256 113.812C88.2175 113.879 87.6927 114.161 87.3148 114.4C86.4666 114.937 85.7863 115.744 85.3874 116.663C84.9675 117.629 85.0263 118.7 85.8073 119.473C86.6303 120.287 87.8144 120.371 88.9062 120.333C89.0699 120.329 89.2169 120.287 89.3471 120.224C89.4058 122.706 89.2505 125.192 88.86 127.64C88.5451 129.618 88.1546 131.663 87.2644 133.473C86.6765 134.67 85.8577 135.703 84.9129 136.618C84.9465 136.043 84.9717 135.467 84.9801 134.896C84.9927 134.161 84.9843 133.431 84.9591 132.696C85.1019 132.41 85.0977 132.045 84.9549 131.739C84.9381 131.705 84.9255 131.671 84.9129 131.634C84.7996 129.509 84.5518 127.392 84.1949 125.297C83.6449 122.064 82.7967 118.876 81.7763 115.76C80.9533 113.258 79.9372 110.448 77.9133 108.643C78.2954 108.067 78.6985 107.517 79.11 106.959C79.4123 106.552 78.7363 106.031 78.4045 106.417C77.8377 107.072 77.275 107.715 76.662 108.328C76.4226 108.567 76.431 108.962 76.662 109.201C78.7069 111.322 79.66 113.904 80.5208 116.676C80.8861 117.847 81.2179 119.027 81.5244 120.216C80.4117 120.501 79.2401 121.253 78.3206 121.841C77.5312 122.345 76.7417 123.13 76.9097 124.151C77.2792 126.401 81.1087 126.141 82.7043 125.767C82.8219 126.456 82.9226 127.145 83.0108 127.837C81.7385 128.085 80.42 128.131 79.2191 128.648C78.287 129.051 76.5654 129.903 76.9139 131.172C77.2288 132.301 78.984 132.835 79.9834 133.103C81.1129 133.406 82.276 133.464 83.4223 133.313C83.4307 133.838 83.4349 134.367 83.4265 134.896C83.4223 135.199 83.4097 135.505 83.4013 135.808C83.3887 135.808 83.3761 135.803 83.3593 135.803C81.5034 135.694 78.4003 136.631 77.8293 138.697C77.0735 141.456 81.7931 140.166 83.078 139.692C82.8932 141.052 82.5069 142.396 82.339 143.753C82.2718 143.816 82.2214 143.895 82.192 144C82.0199 144.609 81.9107 145.222 81.8435 145.852C81.7763 146.495 82.7925 146.604 82.952 146.003C82.9646 145.953 82.9772 145.903 82.9898 145.856C83.0066 145.835 83.0234 145.814 83.036 145.793C83.2502 145.764 83.4517 145.63 83.5399 145.357C83.5609 145.289 83.5819 145.222 83.5987 145.155C83.7246 145.05 83.8128 144.899 83.817 144.727C83.817 144.693 83.817 144.664 83.817 144.63C83.817 144.5 83.7708 144.361 83.6868 144.256C84.2285 142.858 84.4091 141.254 84.6064 139.788C84.6442 139.52 84.6736 139.247 84.703 138.978C87.932 137.13 89.5696 133.771 90.338 130.239C90.8587 127.85 91.161 125.406 91.2618 122.954C92.1856 120.854 93.1429 118.809 94.4194 116.856C96.0948 114.295 97.7366 111.704 99.4204 109.142C102.847 103.923 106.206 98.4723 107.558 92.2952C108.763 86.8698 108.486 79.8571 104.048 75.8804ZM79.1394 86.6766C79.1226 86.6682 79.1058 86.6598 79.089 86.6514C79.0218 86.6136 78.9924 86.5843 78.9798 86.5591C79.0596 86.5087 79.173 86.4751 79.3031 86.4541C79.2401 86.5171 79.1813 86.5926 79.1394 86.6766ZM81.6042 121.686C81.516 121.627 81.4194 121.585 81.3144 121.572C81.474 121.442 81.6252 121.308 81.7679 121.165C81.7973 121.291 81.8267 121.413 81.8561 121.539C81.7679 121.585 81.6839 121.631 81.6042 121.686ZM91.5851 81.436C91.6313 81.5032 91.6775 81.5746 91.7237 81.6418C91.6103 81.7593 91.5053 81.8811 91.4213 82.0155C91.392 81.9903 91.3626 81.9693 91.3332 81.9441C91.329 81.9399 91.3248 81.9399 91.3206 81.9357C91.4046 81.7719 91.4927 81.6082 91.5851 81.436ZM86.962 107.366C86.8697 107.366 86.7773 107.37 86.6891 107.383C86.6261 107.391 86.5673 107.408 86.5086 107.421C86.6723 107.253 86.8403 107.093 87.0124 106.938C87.025 106.976 87.0376 107.009 87.046 107.047C86.9872 107.139 86.9536 107.253 86.962 107.366ZM103.43 97.4351C103.204 97.0781 102.981 96.7212 102.759 96.36C102.964 96.5952 103.183 96.822 103.414 97.0445C103.46 97.0865 103.506 97.1243 103.556 97.1579C103.514 97.2545 103.472 97.3427 103.43 97.4351ZM105.198 92.3456C104.719 91.5183 104.039 90.8129 103.212 90.2922C102.032 89.5489 99.8571 88.9442 98.6898 90.015C97.2789 91.3084 98.9291 93.3072 99.7185 94.4536C100.693 95.8687 101.726 97.2503 102.985 98.4177C102.557 99.3331 102.099 100.236 101.612 101.126C100.911 99.8286 99.9705 98.6024 98.7905 97.7416C97.4343 96.7548 95.5825 96.8136 94.6965 98.3799C93.8861 99.8118 94.474 101.391 95.2886 102.667C95.8555 103.553 96.4601 104.418 97.0606 105.283C97.4175 105.796 97.766 106.35 98.1607 106.858C97.9214 107.228 97.682 107.601 97.4427 107.967C95.7883 110.511 94.0037 113.081 92.6894 115.823C92.2192 116.806 91.7237 117.81 91.2618 118.834C90.9259 112.174 89.1203 105.573 85.9249 99.7194C85.6058 99.1357 85.2741 98.5562 84.9255 97.9893C85.589 95.8645 86.2776 93.7607 87.0334 91.6779C87.5205 92.6311 88.5493 93.5298 89.2169 94.0589C90.2582 94.8819 91.921 95.7806 93.0674 94.6132C94.2347 93.4248 93.0338 91.3504 92.4291 90.1662C91.6271 88.5957 90.5438 87.2729 89.3009 86.0467C89.7418 85.0641 90.2079 84.0899 90.6991 83.1241C91.1694 84.1025 92.0302 84.9676 92.7944 85.6772C93.6468 86.4667 94.8351 87.5921 96.057 87.6803C97.4007 87.7768 98.1313 86.6094 98.0809 85.3917C98.0263 84.0101 97.3377 82.5992 96.6323 81.4444C96.1494 80.655 95.0199 78.8577 93.7896 77.9632C94.4194 77.2242 95.15 76.6027 96.0192 76.2122C98.1439 75.2589 100.756 76.0064 102.435 77.4929C106.466 81.0539 106.403 87.5123 105.198 92.3456ZM100.5 92.1566C100.512 92.1986 100.525 92.2448 100.537 92.2868C100.525 92.2616 100.516 92.2364 100.504 92.2112C100.47 92.1356 100.386 91.7661 100.273 91.7073C100.327 91.7031 100.403 91.7115 100.479 91.7241C100.453 91.8627 100.458 92.0097 100.5 92.1566ZM90.569 92.7193C90.506 92.6857 90.443 92.6563 90.3842 92.6227C90.422 92.6227 90.4598 92.627 90.4976 92.627C90.5438 92.6228 90.59 92.6185 90.6361 92.6101C90.611 92.6395 90.59 92.6773 90.569 92.7193Z" fill="#251C1C"/>
<path d="M74.7049 105.204C73.4536 102.311 70.6613 100.098 67.6548 99.2578C64.7492 98.4474 60.7979 98.7833 58.5599 101.013C56.9937 99.8751 54.9278 99.4888 52.9626 99.8961C49.8092 100.551 47.231 102.962 45.8538 105.8C45.8286 105.851 45.8958 105.909 45.9336 105.863C47.7181 103.772 49.6161 101.672 52.3664 100.912C55.0327 100.177 58.0308 101.051 59.3073 103.633C59.6474 104.318 60.7097 103.709 60.336 103.033C59.9959 102.416 59.5676 101.887 59.0763 101.437C61.8015 100.387 64.3796 99.5518 67.3525 100.371C70.233 101.164 72.3619 103.18 73.7979 105.737C74.1381 106.346 74.9694 105.813 74.7049 105.204Z" fill="#251C1C"/>
<path d="M40.9284 32.1828C36.6286 36.2056 32.606 40.5308 28.3273 44.5831C27.9284 44.961 28.533 45.5615 28.9277 45.1835C33.1897 41.1523 37.5692 37.1042 41.3777 32.6321C41.6464 32.3255 41.2349 31.8972 40.9284 32.1828Z" fill="#251C1C"/>
<path d="M23.5738 66.8024C21.6087 68.7887 19.6562 70.7791 17.712 72.7821C17.4853 73.0173 17.838 73.37 18.0731 73.1433C20.076 71.199 22.0706 69.2464 24.0525 67.2811C24.359 66.9746 23.8803 66.4917 23.5738 66.8024Z" fill="#251C1C"/>
<path d="M26.039 90.318C22.9234 93.3414 19.875 96.432 16.8055 99.5059C16.5368 99.7746 16.9525 100.195 17.2254 99.9258C20.2991 96.8603 23.3895 93.8075 26.4128 90.6917C26.6479 90.4481 26.2826 90.0828 26.039 90.318Z" fill="#251C1C"/>
<path d="M62.2214 29.3529C59.215 32.1874 56.3345 35.1646 53.4456 38.1167C53.1979 38.3686 53.58 38.7507 53.8319 38.503C56.7838 35.6097 59.7608 32.7333 62.5951 29.7266C62.8261 29.4789 62.4692 29.1219 62.2214 29.3529Z" fill="#251C1C"/>
<path d="M74.915 34.1532C72.9163 36.1017 70.9428 38.0753 68.9651 40.0447C68.6417 40.3681 69.1456 40.872 69.4689 40.5487C71.4466 38.5792 73.4244 36.6098 75.3769 34.6151C75.675 34.317 75.2173 33.8593 74.915 34.1532Z" fill="#251C1C"/>
<path d="M91.9415 51.6228L86.907 56.6744C86.5501 57.0314 87.1043 57.5899 87.4612 57.2287L92.5126 52.1939C92.8905 51.8285 92.3111 51.249 91.9415 51.6228Z" fill="#251C1C"/>
<path d="M99.6256 64.131C96.657 67.1545 93.6841 70.1779 90.7154 73.2056C90.4635 73.4617 90.854 73.8481 91.1059 73.5961C94.1292 70.6273 97.1566 67.6584 100.18 64.6853C100.545 64.3326 99.9825 63.7699 99.6256 64.131Z" fill="#251C1C"/>
<path d="M102.15 117.747C100.138 119.611 98.169 121.509 96.1997 123.42C95.9142 123.697 96.3509 124.134 96.6364 123.857C98.6141 121.959 100.583 120.06 102.523 118.12C102.763 117.881 102.397 117.52 102.15 117.747Z" fill="#251C1C"/>
</svg>
