<svg width="120" height="164" viewBox="0 0 120 164" fill="none" xmlns="http://www.w3.org/2000/svg">
<path d="M71.8384 36.8724C69.6896 36.9861 67.4693 37.2642 65.3795 37.7951C63.61 38.2459 61.4739 38.84 60.231 40.2642C59.7001 39.4046 58.7817 38.8358 57.7115 38.7726C56.3675 38.6968 55.1583 39.4131 54.4336 40.517C54.0039 40.2347 53.4899 40.0409 53.0348 39.8302C52.1206 39.4046 51.2063 38.9791 50.292 38.5619C49.3988 38.1532 48.4172 37.5212 47.3976 37.7487C46.6055 37.9257 46.1715 38.4777 45.9398 39.1771C45.5522 40.1715 45.6786 41.3555 45.7039 42.4046C45.7249 43.4074 45.7839 44.406 45.8766 45.4046C46.0114 46.8498 45.9019 50.0816 47.7135 50.5914C47.7178 50.5914 47.7178 50.5914 47.722 50.5914C48.2823 50.8948 48.9902 50.9453 49.5421 50.5914C50.6502 49.8877 51.8172 49.0408 52.6051 47.9748C53.3424 47.6167 54.046 47.3554 54.4336 46.5591C54.4673 46.4917 54.4926 46.4201 54.5179 46.3526C55.015 46.4243 55.529 46.2894 55.9588 45.965C57.0669 46.5338 58.4362 46.0619 59.3083 45.1476C59.7675 44.6673 60.1509 44.1111 60.4037 43.5086C60.5596 43.7993 60.804 44.0647 61.1495 44.2796C62.4471 45.0802 63.7532 45.8765 65.072 46.6434C66.2432 47.3217 67.5662 47.8526 68.6405 48.6785C69.302 49.1883 70.5491 48.67 70.6755 47.8526C70.8946 46.399 71.6951 45.2403 72.2386 43.913C72.7526 42.6448 73.1234 41.3344 73.6795 40.0788C74.282 38.7136 73.6079 36.7797 71.8384 36.8724Z" fill="#E5332A"/>
<path d="M31.8233 132.19C30.8332 134.225 29.822 136.252 28.815 138.278C28.596 138.716 28.3684 139.155 28.1367 139.597C28.1746 139.622 28.2125 139.652 28.2462 139.686C28.7265 140.162 29.2237 140.625 29.6998 141.101C30.9174 138.346 32.1182 135.594 33.1083 132.733C33.3695 131.983 32.173 131.469 31.8233 132.19Z" fill="#1D1D1B"/>
<path d="M54.2119 58.3857C53.8875 58.6554 53.5715 58.9293 53.2555 59.2032C53.0743 59.3591 52.8805 59.5065 52.7162 59.6751C52.4634 59.418 52.1853 59.1779 51.8736 58.9588C51.8988 58.9251 51.9199 58.8914 51.941 58.8492C52.2738 58.1582 52.5519 57.4504 52.83 56.7341C52.9985 56.3043 52.3539 56.0936 52.1222 56.4349C51.7135 57.0374 51.309 57.6315 50.9467 58.2678C50.9214 58.3099 50.9045 58.352 50.8919 58.39C50.4369 58.1751 49.9481 58.0107 49.451 57.9223C49.4636 57.9012 49.4763 57.8759 49.4805 57.8464C49.6195 57.1975 49.4004 56.4391 49.1392 55.8492C49.0549 55.6596 48.7684 55.765 48.7684 55.9504C48.7642 56.279 48.7726 56.595 48.7937 56.9237C48.8106 57.2355 48.7895 57.5473 48.8695 57.8506C48.8695 57.8548 48.8738 57.8549 48.8738 57.8591C48.4314 57.838 47.9848 57.8801 47.5592 58.0107C47.277 58.0992 47.0242 58.2214 46.8009 58.3773C46.5397 57.7116 46.1562 57.1301 45.7981 56.4981C45.6549 56.2453 45.2925 56.4223 45.3473 56.6877C45.5285 57.5515 45.6296 58.3731 46.0046 59.1779C45.7096 59.5992 45.499 60.088 45.3431 60.5936C44.7827 60.2439 44.0539 60.0627 43.4471 59.8352C42.9036 59.6287 42.5287 60.5178 43.0511 60.779C43.6831 61.095 44.3699 61.5627 45.0692 61.6975C45.0735 61.6975 45.0777 61.6975 45.0861 61.6975C44.471 64.9292 44.6858 69.1806 46.6576 71.8351C46.982 72.2691 47.6056 72.2185 47.8457 71.852C48.583 71.8646 49.3204 71.8815 50.0577 71.8772C50.3147 72.0247 50.6686 72.0205 50.9214 71.8646C51.8146 71.852 52.7836 71.9194 53.6515 71.7508C55.3158 71.4306 55.0082 69.5219 55.004 68.2326C54.9913 65.6413 54.9029 62.734 53.4577 60.581C53.6515 60.463 53.8285 60.3197 54.0139 60.1849C54.3551 59.9405 54.6964 59.7003 55.0335 59.4475C55.8213 58.8745 54.9745 57.7537 54.2119 58.3857ZM53.0996 70.5121C52.8847 70.6722 52.6319 70.7101 52.3749 70.7228C52.8889 69.0795 52.8679 67.3267 52.535 65.6371C52.3075 64.47 51.8188 62.6118 50.2346 62.9279C48.7642 63.2228 48.503 65.2621 48.3598 66.4461C48.1744 67.9672 48.2249 69.623 48.9201 71.0093C48.5704 71.0472 48.2249 71.0851 47.8752 71.1273C47.5592 69.9685 47.0958 68.8646 46.843 67.6849C46.5649 66.3913 46.4722 65.0599 46.5439 63.7368C46.6071 62.6245 46.6703 60.7453 47.555 59.9152C48.5072 59.0262 50.1841 59.772 51.052 60.4166C53.2639 62.0641 53.2723 65.0767 53.365 67.5753C53.3903 68.2326 53.4114 68.8941 53.403 69.5514C53.3945 70.0697 53.4914 70.2171 53.0996 70.5121Z" fill="#1D1D1B"/>
<path d="M77.1488 58.5222C76.6264 58.7497 76.1714 59.0278 75.6995 59.348C75.4256 59.5334 75.1434 59.7483 74.9453 60.0138C74.6083 59.5461 74.208 59.1795 73.7656 58.9183C73.7699 58.9098 73.7783 58.9056 73.7825 58.8972C74.1701 58.2441 74.2965 57.5447 74.3302 56.7905C74.3597 56.1542 73.4454 56.1964 73.3696 56.7905C73.2895 57.3804 73.0873 57.9618 72.923 58.5348C72.923 58.5391 72.923 58.5475 72.9188 58.5517C72.4301 58.4127 71.9203 58.3789 71.4147 58.4506C71.3978 57.7385 71.2546 57.0812 70.9976 56.3986C70.8585 56.0236 70.1928 56.032 70.2392 56.4997C70.3108 57.2666 70.2897 58.0587 70.2223 58.8256C69.9948 58.9393 69.7757 59.0742 69.5651 59.2343C69.5398 59.0573 69.4471 58.893 69.2701 58.8129C68.7308 58.5686 68.2168 58.2525 67.7239 57.9281C67.4753 57.7638 67.2183 58.0798 67.3405 58.3115C67.6396 58.8846 68.0357 59.3565 68.5202 59.7862C68.6087 59.8663 68.7182 59.9169 68.8235 59.9421C68.5075 60.3171 68.2632 60.7216 68.0694 61.1472C67.6481 60.7511 67.0371 60.5236 66.5358 60.2582C65.79 59.8663 65.137 60.9702 65.8743 61.3916C66.4304 61.7076 67.0329 62.1837 67.686 62.268C67.1383 64.4843 67.568 67.0713 67.3995 69.2328C67.3447 69.9702 68.5286 70.1261 68.6887 69.4056C69.207 67.0713 68.4781 64.598 69.2027 62.3059C69.5524 61.202 70.3235 60.1065 71.5284 59.8537C72.864 59.5714 73.8625 60.6753 74.2501 61.834C74.9917 64.0587 74.6883 66.9112 74.5535 69.216C74.4987 70.1219 74.4566 70.2862 73.5465 70.2525C73.4328 70.2483 73.3148 70.2441 73.2011 70.2398C73.7361 68.6809 73.8625 67.0755 73.5592 65.4491C73.3612 64.3831 72.9736 62.8368 71.6801 62.6893C68.7435 62.3522 69.2238 68.3564 69.544 70.1261C68.8952 70.105 68.2506 70.0755 67.6017 70.0418C67.113 70.0165 67.1298 70.7412 67.6017 70.7918C69.5103 70.9983 71.4147 71.2426 73.3274 71.3985C74.5493 71.4997 75.7037 71.5671 75.9059 70.0924C76.1587 68.2258 76.1545 66.2623 76.0829 64.3831C76.0323 63.1317 75.9228 61.8213 75.3667 60.6879C75.7416 60.6163 76.125 60.4014 76.4368 60.2244C76.9171 59.9506 77.3426 59.6683 77.7682 59.3143C78.2358 58.9141 77.6249 58.32 77.1488 58.5222Z" fill="#1D1D1B"/>
<path d="M65.1064 74.6424C64.4618 73.3657 63.1346 74.2884 62.5658 75.0553C62.2119 75.5356 61.9338 76.0454 61.7189 76.5806C61.0069 75.03 59.4396 73.3952 58.3189 74.5075C57.4299 75.3881 58.1504 76.6311 58.7528 77.4317C59.4143 78.3123 60.4424 79.1171 61.5209 79.4668C61.6768 79.5805 61.858 79.6143 62.0392 79.589C63.084 79.6901 63.7497 78.6789 64.2511 77.8446C64.723 77.0651 65.5741 75.5651 65.1064 74.6424Z" fill="#1D1D1B"/>
<path d="M92.9747 67.113C92.8947 66.6833 92.7472 66.2998 92.545 65.9585C93.3834 64.9937 94.0196 63.8771 94.0702 62.5583C94.1081 61.5723 93.7794 60.6622 93.1854 59.9712C93.4508 58.7535 93.2064 57.3083 92.7219 56.3308C92.5239 55.9347 92.2711 55.5766 91.972 55.2648C91.7866 54.5148 91.5338 53.7859 91.2136 53.0822C91.1335 52.9095 91.0071 52.8168 90.8639 52.783C91.1546 52.6145 91.3779 52.3238 91.42 51.9067C91.7023 48.8308 91.7065 45.7634 91.597 42.6792C91.5759 42.0303 90.8808 41.2972 90.1729 41.5921C88.1169 42.4601 86.0524 43.3154 84.0132 44.2171C83.12 44.6132 82.2142 45.0893 81.2578 45.3294C80.1834 45.5949 79.2396 45.2873 78.2285 44.9207C76.8592 44.4278 75.4815 43.9938 74.0869 43.6061C74.4071 42.7971 74.702 41.9755 74.9548 41.1455C75.3846 39.734 76.1809 37.6357 75.0307 36.3463C73.8973 35.0781 71.6685 35.5079 70.1897 35.727C68.2179 36.0135 66.2377 36.4854 64.3797 37.2143C63.4443 37.5809 62.5216 38.0275 61.6453 38.5205C61.1776 38.7817 60.7268 39.064 60.2886 39.3674C60.1412 39.4685 60.04 39.5612 59.9516 39.6497C58.9994 38.6975 57.55 38.3225 56.3493 39.2536C56.2524 39.3295 56.1766 39.4137 56.126 39.5022C55.9743 39.4559 55.7931 39.5401 55.7636 39.7592C55.7468 39.8856 55.7215 40.0121 55.692 40.1385C52.5405 39.0303 50.0927 36.1315 46.4609 36.5991C45.0242 36.7845 44.0341 37.5598 44.0594 39.0809C44.0804 40.6778 44.3585 42.3295 44.5902 43.9348C43.9793 44.1202 43.3726 44.314 42.7701 44.5247C41.7168 44.8912 40.6635 45.4558 39.5765 45.6876C38.3252 45.9572 37.4067 44.9544 36.4924 44.2424C34.567 42.7466 32.6373 41.255 30.7077 39.7635C30.0209 39.2326 29.1783 40.1047 29.3468 40.8084C29.8861 43.071 30.3285 45.3505 30.7962 47.6258C31.1501 49.3407 31.3902 51.1861 31.8495 52.9137C31.4914 53.8954 31.4703 54.9867 31.5251 56.078C30.497 56.4235 29.6165 57.1145 29.0814 58.29C28.5548 59.4403 28.6896 60.6622 29.1951 61.7914C29.3384 62.1074 29.5196 62.4445 29.7302 62.7816C29.8819 63.1777 30.0841 63.5527 30.3285 63.9024C29.4058 64.7366 28.8244 65.9838 28.896 67.2984C28.9887 69.0849 29.9156 70.4585 31.2133 71.4445C30.5307 72.4431 30.2358 73.7366 30.4844 75.0091C30.8046 76.6312 31.7947 77.8447 33.0713 78.7127C32.4477 79.568 32.1023 80.6298 32.1697 81.8012C32.2539 83.2169 32.9365 84.4135 33.935 85.2688C33.4084 86.0694 33.1008 87.0174 33.1134 88.0034C33.1303 89.0736 33.5516 90.1017 34.2257 90.9275C32.966 92.1831 32.2076 93.9148 32.2118 95.7688C32.2118 96.5525 32.6205 97.0749 33.1598 97.3446C32.0222 98.9626 31.049 100.69 30.2737 102.493C27.236 109.547 27.4677 117.578 31.1206 124.328C29.6839 126.455 29.9409 129.304 31.8326 131.115C31.5756 131.659 31.3102 132.198 31.0447 132.733C31.1627 132.915 31.2891 133.092 31.4282 133.26C31.7905 133.555 32.136 133.863 32.4772 134.179C35.3127 128.541 37.4193 122.541 38.6749 116.347C38.8982 115.239 39.092 114.123 39.2647 113.006C39.1847 111.561 39.0456 110.023 40.2338 108.982C40.3012 108.923 40.3686 108.868 40.4402 108.818C40.4318 108.809 40.4233 108.801 40.4107 108.797C40.4655 108.767 40.5203 108.738 40.5792 108.713C40.5877 108.708 40.5961 108.708 40.6003 108.704C41.405 108.148 42.3699 107.895 43.322 107.63C43.3178 107.625 43.3136 107.621 43.3136 107.617C45.6056 106.269 47.3077 104.044 48.3779 101.638C49.9578 98.082 50.316 94.1129 50.2064 90.266C50.2064 90.2618 50.2022 90.2576 50.2022 90.2533C50.6657 90.4135 51.1291 90.5694 51.5968 90.7084C52.6459 91.0244 53.716 91.3025 54.7988 91.5385C53.5349 94.8671 53.6907 98.5328 54.3943 101.975C55.001 104.95 56.2777 108.089 58.7087 110.036C60.7732 111.691 63.9457 112.559 66.402 111.211C68.7782 109.905 69.8821 106.943 70.5057 104.47C71.0155 102.447 71.382 100.374 71.5843 98.2968C71.7823 96.2954 72.2963 93.8011 71.6432 91.8587C71.5885 91.6986 71.5084 91.5764 71.4115 91.4879C71.9887 91.3446 72.5617 91.1887 73.1263 91.0118C73.8931 90.7716 74.6388 90.4977 75.3635 90.1944C74.7568 91.7576 75.0265 93.9275 75.0096 95.5876C74.9927 97.471 75.0391 99.3586 75.1739 101.238C75.2708 102.599 75.452 103.964 75.9913 105.228C76.56 106.568 77.5038 107.368 78.4476 108.422C79.7284 109.85 79.6062 111.805 79.8084 113.6C80.0064 115.374 80.2635 117.148 80.5963 118.901C80.8828 120.409 81.2241 121.905 81.6159 123.388C81.578 123.439 81.5443 123.489 81.5064 123.54C81.0345 124.231 81.4811 124.964 82.1215 125.217C82.5639 126.725 83.0526 128.225 83.5877 129.704C83.8953 130.551 85.2561 130.184 84.9443 129.329C84.4177 127.884 83.9374 126.426 83.5034 124.951C84.6873 124.142 85.6185 122.68 86.2462 121.458C86.954 120.076 87.4175 118.576 87.7208 117.059C88.395 113.672 88.4413 110.132 88.3613 106.69C88.2854 103.555 87.7503 100.551 86.4274 97.7828C86.5411 97.707 86.6465 97.6227 86.7476 97.5342L86.8319 97.5637C87.5228 97.8123 88.3992 97.5258 88.8963 97.016C90.2361 95.655 90.9313 93.3039 89.9454 91.568C89.6378 91.0202 89.0522 90.4809 88.3739 90.089C89.5536 89.5792 90.5563 88.5048 90.8428 87.3587C91.0535 86.5244 90.9608 85.7239 90.6532 85.0371C91.2978 84.325 91.715 83.4444 91.7192 82.3952C91.7192 81.6916 91.538 81.0427 91.2178 80.4866C91.7276 79.8587 92.0942 79.134 92.1953 78.2618C92.2922 77.4276 92.1531 76.5722 91.715 75.8433C91.6475 75.7296 91.5717 75.6242 91.4917 75.5189C91.7529 75.2661 92.0141 75.0133 92.2627 74.752C92.9536 74.0315 93.455 73.1762 93.4297 72.1439C93.4045 71.2085 92.9747 70.4669 92.3596 69.8728C92.882 69.0596 93.1685 68.1411 92.9747 67.113ZM78.317 47.7775C78.338 47.7311 78.3507 47.6805 78.3633 47.63C78.3886 47.6384 78.4181 47.6468 78.4433 47.6553C78.3464 47.8027 78.2664 47.9586 78.1948 48.1187C78.2285 47.9923 78.2706 47.8786 78.317 47.7775ZM61.877 40.0837C62.6227 39.7972 63.3601 39.5106 64.1227 39.2747C65.5257 38.8365 66.9329 38.4194 68.378 38.1455C69.208 37.9854 70.038 37.88 70.8764 37.7916C71.5295 37.7241 72.5111 37.4418 73.1431 37.6483C74.1501 37.9769 72.7977 41.2845 72.5575 41.9966C72.0224 43.5682 71.3567 45.0893 70.6616 46.5935C70.5141 46.9179 70.0169 48.519 69.6883 48.6496C69.2501 48.8224 68.0199 48.0134 67.6618 47.807C67.5859 47.7648 67.5059 47.7185 67.43 47.6763C67.2615 47.4952 67.0508 47.3772 66.8191 47.3266C65.9554 46.8336 65.0791 46.3365 64.2617 45.8056C64.2533 45.8013 64.2448 45.7929 64.2364 45.7887C63.8151 45.2957 63.2547 44.8744 62.6565 44.6426C62.1467 44.2634 61.6327 43.9011 61.0807 43.6188C61.0892 43.5471 61.0934 43.4713 61.0976 43.3997C62.5891 43.7157 64.2659 43.8589 65.4287 44.9249C66.6 45.9952 67.8345 43.7662 66.3514 43.3365C64.6493 42.8435 62.8629 42.1567 61.106 42.6455C61.0976 42.4896 61.0891 42.3379 61.0723 42.1862C62.1172 42.0134 63.1578 41.807 64.2196 41.748C65.6815 41.6679 67.0635 41.9713 68.4918 42.2494C70.0843 42.5612 70.4341 40.2017 68.7909 40.0373C67.2784 39.8856 65.7321 40.1342 64.249 40.4292C63.0946 40.6567 61.9781 40.9601 60.9543 41.5036C60.8911 41.234 60.8111 40.9811 60.7142 40.7536C60.6889 40.6946 60.6636 40.6399 60.6341 40.5809C61.0428 40.4376 61.4725 40.2396 61.877 40.0837ZM55.8774 43.1258C55.9785 42.1946 56.2945 41.3899 56.3451 40.4924C56.581 40.6525 56.9181 40.6736 57.2425 40.4123C58.5949 39.321 59.8547 41.2972 59.9516 42.4348C59.9811 42.7803 59.9937 43.189 59.9558 43.5851C59.6272 43.8379 59.4923 44.3351 59.6314 44.7227C59.6145 44.748 59.5977 44.7733 59.5766 44.7985C58.9362 44.5626 58.182 44.7396 57.7102 45.2199C57.1287 45.182 56.4757 45.123 56.126 44.6384C55.8311 44.2213 55.8268 43.6019 55.8774 43.1258ZM47.0507 38.3477C47.6996 38.3267 48.3442 38.4783 48.9593 38.668C50.1812 39.0387 51.2892 39.6876 52.4773 40.1553C53.5559 40.5767 54.4407 40.7241 55.5235 40.7283C55.4182 41.0443 55.296 41.3688 55.1696 41.689C54.2427 41.4615 53.3369 41.3604 52.3636 41.3561C51.2766 41.3519 49.9789 41.2466 48.9425 41.55C47.8217 41.8828 48.3358 43.6862 49.4228 43.2901C50.3455 42.9573 51.0912 42.439 52.0855 42.2873C52.8228 42.1736 53.5981 42.1736 54.3607 42.2325C54.3438 42.4348 54.327 42.637 54.3059 42.8435C54.3438 42.6413 54.3817 42.439 54.4196 42.241C54.5966 42.2536 54.7735 42.2747 54.9505 42.2915C54.7862 42.7634 54.6514 43.2353 54.605 43.703C53.8719 43.9221 53.1725 44.196 52.4942 44.5668C52.1108 44.7733 51.74 44.9924 51.3482 45.1862C51.0491 45.3337 50.7036 45.696 50.4129 45.8056C49.7303 46.071 49.4481 46.9516 50.0927 47.4488C50.7204 47.9334 51.5547 47.4614 51.601 46.7115C51.6094 46.564 51.9423 46.1763 52.035 46.0457C52.3215 45.6412 52.7175 45.3926 53.1388 45.1525C53.6149 44.8786 54.1163 44.6426 54.6134 44.4067C54.6682 44.8028 54.8115 45.1904 55.0895 45.5612C54.1753 46.1426 53.3705 47.0064 52.5616 47.6974C51.4662 48.637 50.3581 49.762 49.1236 50.512C48.399 50.9544 47.788 51.064 47.4468 50.2171C47.2235 49.6693 47.2445 48.9025 47.1561 48.3084C46.9496 46.9011 46.68 45.5022 46.4651 44.0949C46.2502 42.6918 46.0311 41.2887 45.8879 39.8772C45.791 38.9629 46.0227 38.3814 47.0507 38.3477ZM33.1092 55.7957C33.4168 54.8434 33.678 53.887 33.6317 52.9347C33.6106 52.5345 33.2988 52.2142 32.9449 52.1047C32.8817 50.5246 32.6121 48.9067 32.4183 47.4067C32.2202 45.8983 31.9548 44.3983 31.6599 42.9025C32.7932 43.8252 33.9224 44.748 35.0557 45.6665C36.484 46.8294 37.8112 48.1187 39.7914 47.7985C39.7745 47.8364 39.7619 47.8744 39.745 47.9165C39.3532 48.1314 39.0035 48.4053 38.7381 48.7128C38.0387 49.5345 37.8154 50.4488 37.8659 51.38C37.2719 51.3547 36.661 51.5064 36.1259 51.8645C34.7692 52.7788 34.4532 54.2873 34.567 55.7915C34.5249 55.8167 34.4827 55.8378 34.4406 55.8631C34.0024 55.8041 33.5516 55.7788 33.1092 55.7957ZM49.625 90.1691C48.3273 96.2449 47.6027 103.939 40.9374 106.597C39.6734 107.103 38.46 107.512 38.0682 108.97C37.6173 110.651 37.5794 112.513 37.2592 114.232C36.6272 117.632 35.7425 120.986 34.6175 124.256C33.935 126.245 33.1556 128.196 32.2876 130.108C31.2006 128.579 31.188 126.337 32.3803 124.842C32.5699 124.606 32.65 124.307 32.4857 124.028C30.6445 120.881 29.7724 117.249 29.7429 113.592C30.556 114.38 31.9927 114.573 33.0797 114.316C33.9561 114.11 34.3648 113.17 34.192 112.353C33.9856 111.35 33.3873 110.44 32.7005 109.694C32.1233 109.066 31.2175 108.3 30.2948 108.236C30.5476 107.065 30.8846 105.911 31.306 104.798C32.0938 105.965 33.7244 106.652 34.9293 107.149C35.6709 107.453 36.7958 106.812 36.9095 106.024C37.1033 104.697 36.9306 103.522 36.2059 102.367C35.654 101.486 34.7187 100.441 33.6359 100.18C34.0909 99.4682 34.5754 98.7814 35.0936 98.1157C36.1849 98.8615 37.4994 99.0131 38.5738 97.707C39.1173 97.0454 39.3321 96.2112 39.2647 95.3769C39.8841 95.5665 40.5877 95.5455 41.1354 95.1873C41.9612 94.6522 42.2519 93.8179 42.2055 92.9542C42.2645 92.9668 42.3235 92.9837 42.3825 92.9921C43.5327 93.1775 44.7335 92.8109 45.5298 91.9387C46.3008 91.096 46.5452 89.7688 46.305 88.5806C47.4004 89.1284 48.5254 89.6213 49.6756 90.0427C49.6587 90.0848 49.6334 90.1227 49.625 90.1691ZM70.354 98.28C70.2781 100.269 70.0548 102.266 69.5872 104.204C68.8035 107.448 66.7306 110.92 62.8545 110.183C59.3238 109.513 57.5206 106.134 56.6442 102.961C55.612 99.228 55.4224 95.4823 55.3423 91.6396C55.692 91.7112 56.0459 91.7744 56.3998 91.8376C57.0445 95.891 58.102 99.8011 60.0569 103.437C60.2044 103.715 60.672 103.526 60.5709 103.222C59.3196 99.4977 58.0051 95.773 57.074 91.9514C61.283 92.6171 65.6394 92.6255 69.7978 91.8208C68.9889 93.6578 68.1421 95.4823 67.3205 97.3151C66.9329 98.1873 66.5368 99.0553 66.1703 99.9359C65.6815 101.111 64.9063 102.11 64.4091 103.269C64.2785 103.572 64.6577 103.804 64.8558 103.53C65.5214 102.603 65.888 101.499 66.482 100.526C67.0761 99.5525 67.6238 98.5665 68.121 97.5342C68.8457 96.03 69.4692 94.4794 70.0338 92.912C70.0591 93.662 70.1981 94.4331 70.2529 95.162C70.3287 96.207 70.3961 97.2351 70.354 98.28ZM74.4071 89.1115C65.4877 92.7561 54.3143 91.9345 45.6899 87.1312C45.3149 86.6129 44.7925 86.2295 44.1352 86.0862C44.0341 85.9683 43.9119 85.8629 43.7686 85.7744C43.4189 85.5553 43.0566 85.3742 42.6816 85.2225C42.3656 84.995 42.0581 84.7548 41.7547 84.5146C41.8263 84.0301 41.8516 83.5624 41.8137 83.1368C41.6957 81.7042 41.0469 80.4065 40.0357 79.5301C40.4402 78.7085 40.6087 77.7731 40.4613 76.8166C40.3054 75.8054 39.7998 74.8953 39.0751 74.2085C39.7998 73.113 40.1621 71.8195 39.9009 70.4332C39.7282 69.5021 39.2479 68.6594 38.578 68.0105C38.658 67.9557 38.7381 67.9009 38.8055 67.842C39.6734 67.1425 40.2253 66.1734 40.2085 65.04C40.1874 63.8265 39.349 62.6552 38.3041 62.0906C38.1566 62.0105 37.9966 61.9347 37.828 61.8631C38.1777 61.7577 38.5063 61.6103 38.7802 61.4206C39.7914 60.7254 40.3096 59.6341 40.4149 58.4796C40.9963 58.3912 41.5609 58.1341 42.0286 57.6833C42.6858 57.0513 42.985 56.2128 42.9892 55.3575C43.5159 55.2437 44.0046 55.0035 44.4259 54.5611C45.0958 53.8575 45.2601 52.9432 45.1632 52.0373C45.1843 52.0204 45.2095 52.0036 45.2306 51.9867C45.5171 51.7423 45.7489 51.4558 45.909 51.1229C46.3261 51.9067 47.0339 52.3996 48.0493 52.4123C49.5744 52.4291 50.8005 51.1314 51.9001 50.2465C52.1529 50.0443 52.4099 49.8421 52.6669 49.6398C52.5279 50.3308 52.7049 51.0218 53.3874 51.6033C54.6977 52.7156 56.008 51.9277 57.0276 50.6932C57.5416 51.1356 58.2073 51.3378 59.0584 51.0977C59.4039 51.0008 59.6946 50.8491 59.9305 50.6553C59.9642 50.6763 59.9937 50.6974 60.0232 50.7185C61.3883 51.5443 63.4106 51.7845 64.5482 50.4656C64.7673 50.2128 64.9274 49.9221 65.0369 49.6145C65.2097 49.8252 65.4414 49.9895 65.7405 50.0654C66.5368 50.2676 67.3542 49.8126 67.6533 49.1342C68.3317 49.5724 69.0353 49.9685 69.7347 50.2339C70.9017 50.6763 71.639 49.3407 72.1446 48.1398C72.2626 48.4011 72.4185 48.6412 72.6207 48.8308C73.3074 49.4713 74.3313 49.5935 75.1571 49.1426C75.2624 49.0836 75.3677 49.012 75.473 48.9319C75.1781 49.8673 75.2539 50.946 75.73 51.894C76.4126 53.2465 77.6934 53.9755 79.0753 54.1187C79.3028 55.349 79.8674 56.4993 80.8154 57.4136C81.4221 57.9993 82.1468 58.4417 82.922 58.7409C82.7914 58.8336 82.665 58.9305 82.5512 59.0443C81.7465 59.8364 81.6454 61.0246 82.1426 62.0105C82.5175 62.7521 83.1369 63.2409 83.8573 63.5569C83.3475 63.9403 82.9557 64.4628 82.7914 65.0779C82.488 66.2156 82.9978 67.1973 83.7941 67.9262C83.6172 68.1875 83.4655 68.4613 83.3391 68.7563C82.8419 69.9108 82.7914 71.1832 83.1537 72.3209C82.3364 72.8433 81.6917 73.6439 81.4263 74.6046C81.1356 75.6411 81.342 76.7239 81.8729 77.6214C81.8771 77.7604 81.8898 77.8953 81.915 78.0301C80.1665 79.9093 79.5725 82.6565 80.5205 85.0244C79.6273 85.1171 78.7846 86.0062 78.397 87.0048C77.1499 87.8348 75.8059 88.5427 74.4071 89.1115ZM85.7449 111.506C85.4794 111.35 85.2013 111.333 84.898 111.329C84.957 111.329 84.8769 111.316 84.8222 111.312C84.8137 111.295 84.6283 111.211 84.6073 111.194C83.8615 110.684 82.5512 111.165 82.3996 112.092C82.2142 113.221 82.4838 114.274 83.2675 115.134C83.7562 115.669 84.4767 116.061 85.214 116.153C84.9443 117.51 84.5567 118.85 83.9458 120.093C83.6003 120.797 83.1579 121.387 82.6987 121.964C82.4501 120.957 82.2184 119.95 82.012 118.93C81.6243 117.013 81.3041 115.087 81.0766 113.145C80.9081 111.704 80.9502 110.057 80.2255 108.755C79.5135 107.465 78.1021 106.829 77.2594 105.649C76.3241 104.335 76.1303 102.599 76.0123 101.036C75.8775 99.2154 75.8185 97.3867 75.7469 95.5623C75.7132 94.6606 75.6921 93.7632 75.6753 92.8615C75.6584 91.9724 75.7595 90.9907 75.4773 90.148C75.473 90.1396 75.4688 90.1312 75.4604 90.1269C76.3789 89.7393 77.2552 89.2927 78.0979 88.8039C78.1358 89.9036 78.6203 91.0244 79.4882 91.5848C79.3113 91.8587 79.1764 92.1663 79.1006 92.5202C78.7678 94.0075 79.6736 95.457 80.6595 96.4851C81.6243 97.4921 82.9304 98.3727 84.3629 98.3769C84.9317 99.7589 85.3067 101.166 85.5342 102.62C85.5173 102.616 85.5005 102.611 85.4836 102.611C85.3615 102.59 85.2435 102.603 85.1213 102.645C85.0834 102.662 85.0539 102.675 85.0244 102.691C85.0075 102.691 84.9823 102.691 84.9485 102.696C84.8348 102.713 84.721 102.725 84.6073 102.742C84.4514 102.763 84.4472 102.767 84.5947 102.742C84.4345 102.763 84.2744 102.784 84.1143 102.805C83.9922 102.822 83.8658 102.839 83.7436 102.873C82.7113 103.147 81.9867 104.006 81.9572 105.089C81.9024 107.145 83.9879 108.215 85.8207 108.009C85.8207 109.172 85.8038 110.339 85.7449 111.506ZM90.0887 53.6594C89.819 53.2507 89.482 52.8884 89.0649 52.6187C87.8725 51.8392 85.5342 51.717 84.5988 52.9263C84.4977 52.7536 84.4683 52.5387 84.5399 52.2732C84.8559 51.1103 83.6762 49.623 82.4038 50.137C82.1468 50.2423 81.9108 50.2929 81.6917 50.3097C81.4389 50.1749 81.1482 50.1075 80.8449 50.1159C80.234 49.7451 79.9475 48.9025 80.0696 47.9923C80.2003 48.0008 80.3351 48.0092 80.4699 48.005C81.6117 47.9923 82.6566 47.571 83.6846 47.1159C85.6269 46.2564 87.5397 45.3379 89.4525 44.4151C89.562 46.9137 89.4609 49.4165 89.2376 51.9067C89.1786 52.5429 89.5999 52.8884 90.0887 52.9432C90.0676 53.0106 90.0507 53.0822 90.0339 53.1538C90.055 53.1454 90.076 53.1412 90.1013 53.137C90.0128 53.2845 89.9918 53.4698 90.0887 53.6594Z" fill="#1D1D1B"/>
<path d="M65.1141 102.35C64.5453 101.688 63.7195 101.966 63.2687 102.573C63.1044 102.796 62.9527 103.028 62.8095 103.264C62.3292 102.489 61.5708 101.975 60.6776 102.299C59.8349 102.607 59.679 103.534 60.0077 104.28C60.2731 104.882 60.9557 105.796 61.6382 106.049C61.6213 106.593 62.3334 107.073 62.8601 106.597C63.5637 105.965 64.1957 105.278 64.7687 104.524C65.2616 103.888 65.7419 103.079 65.1141 102.35Z" fill="#E5332A"/>
<path d="M67.8159 83.6126C67.5716 83.798 67.3272 83.937 67.0491 84.0592C66.5056 84.2994 65.9368 84.4173 65.3428 84.3457C64.9046 84.2952 64.517 84.1435 64.2094 83.9159C63.8176 83.6926 63.4721 83.3893 63.0045 83.3556C62.1703 83.2924 61.652 83.8443 61.3065 84.5058C60.9273 83.9075 60.4218 83.3893 59.6802 83.6084C59.0441 83.798 58.5806 84.2025 57.957 84.3626C57.3883 84.5606 56.7816 84.6112 56.0737 84.4089C55.9136 84.3626 55.7578 84.3036 55.5977 84.232C56.8195 86.1407 59.1325 87.2741 61.3992 87.371C62.541 87.4215 63.5985 87.2909 64.5423 86.9623C65.8062 86.4103 66.9185 85.5128 67.6811 84.3541C67.8665 84.0297 68.0266 83.68 68.1698 83.3008C68.0687 83.3682 67.8791 83.5662 67.8159 83.6126Z" fill="#E5332A"/>
<path d="M36.5576 49.7621C35.8498 48.6793 34.8387 47.5079 33.7854 46.7579C33.6632 46.6694 33.5326 46.8127 33.5579 46.9349C33.798 48.2748 33.9623 49.661 34.312 50.984C34.3036 51.0093 34.2994 51.0346 34.2952 51.0599C34.2446 51.2537 34.3373 51.4601 34.4848 51.5823C34.4848 51.5865 34.4847 51.5865 34.489 51.5908C34.5437 51.7593 34.7628 51.7888 34.8682 51.6877C34.9187 51.675 34.9735 51.654 35.024 51.6203C35.656 51.161 37.1896 50.7354 36.5576 49.7621ZM36.0521 50.1666C36.0057 50.175 35.7024 50.293 35.3864 50.4194C35.3864 50.3773 35.3864 50.3351 35.3864 50.2888C35.5928 50.2298 35.7656 49.9981 35.635 49.7537C35.5423 49.5809 35.4496 49.4082 35.3611 49.2396C35.3822 49.2691 35.4032 49.2986 35.4243 49.3281C35.5423 49.4882 35.9846 50.1287 36.0521 50.1666ZM34.0971 47.6259C34.1772 47.7228 34.253 47.8197 34.3331 47.9166C34.2867 47.9335 34.2446 47.963 34.2109 47.9967C34.173 47.8703 34.1351 47.7481 34.0971 47.6259Z" fill="#1D1D1B"/>
<path d="M48.5092 127.112C47.6792 130.343 46.7649 133.55 45.9729 136.79C45.5852 138.374 45.2355 139.967 44.89 141.564C44.553 143.119 44.119 144.694 44.0053 146.287C43.9674 146.793 44.7299 146.864 44.8648 146.405C45.3282 144.85 45.501 143.19 45.7875 141.593C46.0782 139.984 46.3857 138.378 46.6807 136.769C47.2705 133.554 47.8393 130.322 48.5809 127.137C48.5935 127.086 48.5219 127.065 48.5092 127.112Z" fill="#1D1D1B"/>
<path d="M59.0064 132.897C57.9194 138.261 57.0178 143.81 56.9883 149.292C56.9841 149.933 57.9405 149.924 57.9784 149.292C58.2902 143.827 58.5177 138.413 59.3308 132.99C59.3603 132.775 59.0485 132.683 59.0064 132.897Z" fill="#1D1D1B"/>
<path d="M74.3768 145.112C73.9134 142.614 73.1845 140.178 72.7589 137.667C72.3165 135.055 72.0511 132.417 71.9247 129.767C71.9121 129.468 71.457 129.464 71.457 129.767C71.4823 132.443 71.6551 135.114 71.9879 137.773C72.3039 140.301 72.6283 142.947 73.4583 145.365C73.6605 145.947 74.4863 145.711 74.3768 145.112Z" fill="#1D1D1B"/>
<path d="M90.0497 141.35C89.3967 139.631 88.7268 137.92 88.0442 136.214C87.1047 133.863 86.0177 131.655 84.8632 129.409C84.838 129.363 84.8085 129.325 84.779 129.295C84.5178 128.427 84.2228 127.576 83.7341 126.793C83.4139 126.283 82.6808 126.515 82.6387 127.088C82.5334 128.617 83.0558 130.016 83.5235 131.47C83.9995 132.949 84.5304 134.411 85.1203 135.852C86.0809 138.215 87.2016 140.495 88.4024 142.741C88.9332 142.26 89.4809 141.784 90.0497 141.35Z" fill="#1D1D1B"/>
<path d="M69.8657 80.3643C69.1958 80.3643 69.1958 81.4008 69.8657 81.4008C70.5356 81.4008 70.5356 80.3643 69.8657 80.3643Z" fill="#1D1D1B"/>
<path d="M88.1331 47.5955C88.032 46.9214 87.143 46.8497 86.7259 47.2247C86.2161 47.6798 85.7568 48.1306 85.3355 48.6489C85.2049 48.75 85.0953 48.8891 85.0321 49.045C84.9942 49.1082 84.9774 49.1756 84.9774 49.243C84.9479 49.4157 84.9689 49.5969 85.0574 49.7781C85.188 50.0393 85.365 50.25 85.5756 50.389C85.8958 50.7219 86.254 51.0126 86.6627 51.2528C87.1388 51.5351 87.8677 51.2865 87.9898 50.7135C88.2047 49.6812 88.2848 48.6405 88.1331 47.5955Z" fill="#1D1D1B"/>
<path d="M118.065 71.7904C118.697 76.2103 118.996 80.6808 119.013 85.147C119 89.6133 118.709 94.0838 118.077 98.5037C117.441 102.924 116.502 107.301 115.225 111.574C114.589 113.706 113.873 115.821 113.076 117.898C112.276 119.975 111.399 122.023 110.443 124.029C108.53 128.04 106.297 131.891 103.752 135.515C101.212 139.143 98.3469 142.526 95.1912 145.598C93.6112 147.131 91.9554 148.589 90.228 149.946C88.5048 151.307 86.7016 152.562 84.8309 153.708C81.098 156.001 77.0912 157.838 72.9033 159.097C68.7196 160.345 64.3589 161.015 59.9856 161.061C57.799 161.074 55.6081 160.943 53.4383 160.652C51.2685 160.361 49.1155 159.906 47.0005 159.317C42.7747 158.124 38.7131 156.325 34.9212 154.058C31.1294 151.796 27.6324 149.023 24.4472 145.939C21.2705 142.838 18.4181 139.4 15.8986 135.73C14.0195 132.978 12.3216 130.092 10.8217 127.109C10.3203 126.115 9.84002 125.112 9.38078 124.096C7.55225 120.039 6.02285 115.838 4.84315 111.544C2.4669 102.957 1.40939 94.0332 1.51051 85.147C1.57371 80.7018 1.91076 76.2693 2.5596 71.8788C2.88823 69.6878 3.28847 67.5053 3.76035 65.3395C4.22802 63.178 4.77152 61.0292 5.39086 58.9056C7.88087 50.4155 11.559 42.2666 16.5348 34.99C19.0206 31.358 21.8308 27.9493 24.957 24.8693C28.079 21.7934 31.517 19.0336 35.2415 16.7499C38.9659 14.4746 42.96 12.6418 47.1311 11.4072C51.3022 10.1769 55.6376 9.53225 59.9856 9.51961C64.3336 9.51119 68.6775 10.1474 72.857 11.3567C77.0365 12.5786 81.039 14.403 84.7804 16.6741C86.6468 17.8075 88.4543 19.0547 90.1775 20.4114C91.9133 21.7555 93.5691 23.2007 95.1533 24.7344C98.309 27.7976 101.182 31.1768 103.723 34.7962C106.272 38.4155 108.509 42.2666 110.422 46.2778C111.378 48.2792 112.255 50.327 113.055 52.4042C113.851 54.4815 114.568 56.5924 115.208 58.7286C116.485 62.9969 117.424 67.3746 118.065 71.7904ZM112.554 85.147C112.529 77.2047 111.56 69.2581 109.533 61.5559L108.707 58.6865C108.412 57.7342 108.084 56.7904 107.776 55.8424C107.633 55.3663 107.443 54.907 107.275 54.4351L106.748 53.0362C106.66 52.8003 106.579 52.5643 106.483 52.3368L106.196 51.6458L105.615 50.2638C104.026 46.6023 102.151 43.0503 99.9648 39.688C97.7739 36.3341 95.2839 33.1529 92.461 30.2709C89.6466 27.3931 86.5246 24.7808 83.0866 22.6277C79.6529 20.4704 75.9326 18.7471 72.0354 17.5715C68.1382 16.3876 64.064 15.7724 59.9856 15.7513C55.9072 15.7513 51.8288 16.3623 47.9232 17.5252C44.0176 18.6923 40.2889 20.4072 36.8425 22.5603C36.6234 22.6825 36.4169 22.8342 36.2063 22.9732L35.5743 23.3945L34.3103 24.2457L33.0969 25.16L32.4902 25.6192C32.288 25.7709 32.0815 25.9184 31.8919 26.0869L30.7291 27.0645C30.3457 27.3931 29.9455 27.7049 29.5831 28.0588L28.475 29.0954L27.9189 29.6094C27.7377 29.7821 27.565 29.9718 27.388 30.1487C24.5357 33.0181 21.9951 36.174 19.7537 39.5195C15.2751 46.2189 12.0014 53.6683 9.88637 61.4L9.15328 64.3157L9.06479 64.678L8.98896 65.0488L8.83307 65.782L8.52971 67.2525C8.47915 67.4968 8.42438 67.7454 8.37804 67.9898L8.25586 68.7314L8.01149 70.2103C7.83453 71.1963 7.725 72.1906 7.5986 73.185C7.11408 77.1541 6.8992 81.1527 6.93291 85.147C6.99189 89.1414 7.31209 93.1231 7.87666 97.0711C8.02412 98.0571 8.15474 99.0472 8.35276 100.025L8.63082 101.495L8.76564 102.228L8.92997 102.957L9.25861 104.415L9.4229 105.144L9.50295 105.511L9.59988 105.869L10.3709 108.759C11.757 113.542 13.5603 118.206 15.8017 122.647C17.1457 125.318 18.6498 127.905 20.3141 130.395C22.5302 133.711 25.0371 136.838 27.8431 139.686C28.0158 139.867 28.1843 140.053 28.3613 140.225L28.909 140.739L29.996 141.772C30.3499 142.126 30.7417 142.437 31.1209 142.766L32.2627 143.744C32.4481 143.908 32.6503 144.055 32.8526 144.211L33.4466 144.666L34.639 145.585L35.8777 146.436L36.497 146.866C36.7076 147.005 36.9099 147.152 37.1247 147.279C40.5122 149.436 44.1819 151.18 48.037 152.385C51.892 153.586 55.9325 154.244 59.9856 154.286C64.0387 154.303 68.1045 153.738 71.9933 152.579C75.8863 151.433 79.6023 149.727 83.0361 147.59C86.4783 145.454 89.6087 142.859 92.4273 139.989C95.2544 137.116 97.7444 133.939 99.9395 130.589C102.13 127.231 104.005 123.679 105.594 120.018L106.175 118.64L106.466 117.949C106.563 117.721 106.643 117.485 106.731 117.249L107.254 115.851C107.426 115.383 107.612 114.919 107.759 114.443C108.067 113.495 108.395 112.556 108.69 111.603L109.512 108.734C111.547 101.032 112.52 93.0894 112.554 85.147Z" fill="#47AD4B"/>
<path d="M115.832 111.742C115.254 113.912 114.593 116.061 113.86 118.184C113.127 120.308 112.314 122.406 111.42 124.471C109.63 128.604 107.515 132.603 105.046 136.391C102.573 140.174 99.7583 143.752 96.5731 146.992C93.3921 150.228 89.853 153.143 85.9811 155.558C82.1091 157.972 77.9212 159.91 73.531 161.204C69.1409 162.493 64.5569 163.146 59.9856 163.108C55.4142 163.062 50.8555 162.333 46.5075 160.985C42.1595 159.624 38.0263 157.648 34.2092 155.208C30.392 152.768 26.8908 149.869 23.7351 146.65C20.571 143.44 17.7397 139.913 15.2455 136.176C13.3664 133.37 11.6727 130.45 10.1602 127.441L10.8216 127.108C12.3215 130.091 14.0195 132.978 15.8985 135.729C18.418 139.399 21.2704 142.837 24.4472 145.938C27.6323 149.023 31.1293 151.795 34.9212 154.058C38.7131 156.324 42.7746 158.124 47.0004 159.316C49.1155 159.906 51.2684 160.361 53.4382 160.652C55.608 160.942 57.7989 161.073 59.9856 161.06C64.3589 161.014 68.7196 160.344 72.9033 159.097C77.0912 157.837 81.098 156 84.8309 153.708C86.7015 152.562 88.5048 151.306 90.228 149.945C91.9554 148.589 93.6112 147.131 95.1911 145.597C98.3468 142.525 101.212 139.142 103.752 135.514C106.297 131.891 108.53 128.04 110.443 124.028C111.399 122.023 112.276 119.975 113.076 117.898C113.872 115.82 114.589 113.705 115.225 111.573C116.502 107.301 117.441 102.923 118.077 98.5032C118.709 94.0832 119 89.6128 119.013 85.1465H119.257C119.257 87.3838 119.181 89.6254 119.038 91.8585C118.903 94.0959 118.692 96.3248 118.406 98.5495C117.837 102.99 116.978 107.402 115.832 111.742Z" fill="#1D1D1B"/>
<path d="M109.533 61.5555C111.56 69.2577 112.529 77.2043 112.554 85.1467H112.335C112.301 77.2254 111.21 69.2999 108.96 61.7156L108.054 58.8926C107.734 57.9614 107.384 57.0387 107.047 56.1075C106.887 55.644 106.681 55.1932 106.495 54.7339L105.931 53.3688C105.834 53.1412 105.745 52.9137 105.64 52.6904L105.328 52.0162L104.709 50.6764C103.011 47.1202 101.027 43.7115 98.7684 40.5009C96.5143 37.2902 93.9653 34.2944 91.1678 31.5725C90.995 31.404 90.8265 31.227 90.6453 31.0627L90.1018 30.5739L89.0148 29.5964C88.6609 29.2593 88.2691 28.9686 87.8941 28.6568L86.7607 27.7383C86.5754 27.5782 86.3773 27.4391 86.1835 27.2959L85.5937 26.8661L84.4182 26.0023L83.1964 25.2102L82.5897 24.8099C82.3832 24.6793 82.1852 24.536 81.9746 24.4223C78.6545 22.4125 75.1028 20.8071 71.3952 19.7243C67.6918 18.6456 63.8409 18.0726 59.9858 18.0768C56.1307 18.0937 52.2841 18.6709 48.5891 19.7664C44.8899 20.8619 41.3466 22.4757 38.0434 24.4939C37.8286 24.6077 37.6348 24.7509 37.4283 24.8815L36.8258 25.2818L35.6124 26.0824L34.4454 26.9504L33.8597 27.3843C33.6659 27.5276 33.4679 27.6709 33.2825 27.8268L32.1618 28.7579C31.791 29.0697 31.4034 29.3647 31.0537 29.7017L29.9794 30.6877L29.4401 31.1807C29.2631 31.345 29.0988 31.5262 28.9261 31.6947C26.1538 34.4293 23.6638 37.4503 21.4602 40.6736C17.049 47.1244 13.7838 54.3463 11.5676 61.8757L10.7966 64.7156L10.7039 65.0695L10.6197 65.4277L10.4553 66.1482L10.1267 67.585L9.96241 68.3013L9.82758 69.026L9.54949 70.4712C9.35147 71.4361 9.22089 72.4094 9.07343 73.3827C8.50043 77.2717 8.18865 81.2071 8.12545 85.1467C8.09596 89.0863 8.30239 93.0343 8.79534 96.9486C8.92174 97.9261 9.03127 98.9079 9.20823 99.8769L9.4526 101.339L9.5748 102.068C9.62114 102.312 9.67591 102.552 9.72647 102.793L10.034 104.242L10.1857 104.967L10.2615 105.329L10.3542 105.687L11.0831 108.557C12.128 112.366 13.4889 116.086 15.1152 119.684C15.5238 120.586 15.9452 121.475 16.3918 122.356L15.8019 122.646C13.5605 118.205 11.7572 113.541 10.3711 108.759L9.60008 105.868L9.50316 105.51L9.4231 105.144L9.25881 104.415L8.93017 102.957L8.76584 102.228L8.63102 101.495L8.35296 100.024C8.15494 99.0469 8.02433 98.0567 7.87686 97.0708C7.31229 93.1228 6.99209 89.1411 6.93311 85.1467C6.8994 81.1523 7.11428 77.1538 7.5988 73.1847C7.7252 72.1903 7.83473 71.1959 8.01169 70.21L8.25606 68.731L8.37824 67.9895C8.42458 67.7451 8.47935 67.4965 8.52991 67.2521L8.83327 65.7816L8.98916 65.0485L9.06499 64.6777L9.15348 64.3153L9.88657 61.3996C12.0016 53.6679 15.2753 46.2185 19.7539 39.5191C21.9953 36.1736 24.5359 33.0177 27.3882 30.1484C27.5652 29.9714 27.7379 29.7818 27.9191 29.609L28.4752 29.095L29.5833 28.0585C29.9457 27.7046 30.3459 27.3928 30.7293 27.0641L31.8922 26.0866C32.0817 25.9181 32.2882 25.7706 32.4904 25.6189L33.0971 25.1596L34.3105 24.2453L35.5745 23.3942L36.2065 22.9728C36.4171 22.8338 36.6236 22.6821 36.8427 22.5599C40.2891 20.4069 44.0178 18.692 47.9234 17.5248C51.829 16.3619 55.9074 15.751 59.9858 15.751C64.0642 15.772 68.1384 16.3872 72.0356 17.5712C75.9328 18.7467 79.6531 20.4701 83.0868 22.6273C86.5248 24.7804 89.6468 27.3928 92.4612 30.2706C95.2841 33.1526 97.7741 36.3337 99.965 39.6877C102.152 43.05 104.026 46.6019 105.615 50.2634L106.196 51.6455L106.483 52.3365C106.58 52.564 106.66 52.7999 106.748 53.0359L107.275 54.4348C107.443 54.9067 107.633 55.3659 107.776 55.8421C108.084 56.7901 108.412 57.7339 108.707 58.6861L109.533 61.5555Z" fill="#1D1D1B"/>
<path d="M113.881 52.1037C114.614 54.2273 115.276 56.3761 115.853 58.5461C116.995 62.8859 117.854 67.2974 118.419 71.7426C118.705 73.9631 118.912 76.1963 119.047 78.4336C119.19 80.6667 119.261 82.9083 119.257 85.1457H119.013C118.996 80.6794 118.697 76.2089 118.065 71.789C117.425 67.3733 116.485 62.9955 115.208 58.7273C114.568 56.591 113.852 54.4801 113.055 52.4029C112.255 50.3256 111.379 48.2779 110.422 46.2765C108.509 42.2653 106.272 38.4142 103.723 34.7948C101.183 31.1754 98.3092 27.7962 95.1535 24.7331C93.5694 23.1994 91.9136 21.7541 90.1777 20.41C88.4546 19.0533 86.6471 17.8061 84.7806 16.6727C81.0393 14.4017 77.0367 12.5772 72.8572 11.3553C68.6777 10.1461 64.3339 9.50983 59.9859 9.51825C55.6379 9.53089 51.3025 10.1756 47.1314 11.4059C42.9603 12.6404 38.9662 14.4733 35.2417 16.7486C31.5173 19.0322 28.0793 21.7921 24.9573 24.8679C21.8311 27.9479 19.0209 31.3566 16.5351 34.9886C11.5593 42.2653 7.88117 50.4141 5.39117 58.9042C4.77183 61.0278 4.22833 63.1767 3.76066 65.3382C3.28878 67.5039 2.88854 69.6865 2.55991 71.8775C1.91107 76.2679 1.57402 80.7005 1.51082 85.1457C1.4097 94.0319 2.46721 102.956 4.84346 111.543C6.02315 115.837 7.55256 120.037 9.38109 124.095C9.84033 125.11 10.3206 126.113 10.822 127.108L10.1605 127.44C7.6326 122.426 5.59764 117.164 4.04296 111.771C3.41941 109.609 2.8759 107.426 2.40824 105.231C1.93636 103.032 1.5361 100.82 1.21589 98.595C0.575485 94.1414 0.225793 89.6498 0.166808 85.1457C0.0656911 76.1457 1.11476 67.0952 3.49523 58.3691C5.87569 49.6473 9.55803 41.2414 14.6097 33.6867C17.1376 29.9156 20.0068 26.3552 23.2257 23.1277C26.4446 19.9002 30.0047 16.9929 33.8893 14.5702C37.7697 12.139 41.9745 10.1966 46.3815 8.87781C50.7843 7.57163 55.3851 6.89327 59.9859 6.89748C64.5867 6.91433 69.1833 7.59691 73.5777 8.92837C77.9763 10.2556 82.1642 12.2107 86.0319 14.646C87.97 15.8637 89.8196 17.2078 91.5849 18.6488C93.3461 20.094 95.0229 21.6404 96.6113 23.2626C99.7965 26.5069 102.607 30.0968 105.076 33.8805C107.54 37.6726 109.655 41.6796 111.442 45.8088C112.339 47.8776 113.148 49.9759 113.881 52.1037Z" fill="#1D1D1B"/>
<path d="M74.0443 8.68065C71.4153 7.05426 68.782 5.44471 66.115 3.87731C64.7837 3.0936 63.4565 2.30569 62.1294 1.51777C61.0297 0.864682 59.8205 -0.0327855 58.4807 0.000922233C57.3726 0.026203 56.3573 1.03743 55.5231 1.67367C54.4613 2.48686 53.4249 3.32534 52.4137 4.20174C50.2271 6.0978 48.0994 8.12026 46.2793 10.3745C46.1992 10.4756 46.3256 10.6104 46.4225 10.5177C48.31 8.71015 50.1723 6.88993 52.1862 5.22561C53.2142 4.37871 54.2717 3.5613 55.3503 2.78181C56.3952 2.0276 57.5664 0.881536 58.9568 1.27339C60.1786 1.61889 61.3415 2.67226 62.3864 3.36748C63.5661 4.15539 64.7458 4.94331 65.9212 5.73544C68.2764 7.3197 70.6569 8.8534 73.0458 10.3829C74.1159 11.0739 75.1229 9.35059 74.0443 8.68065Z" fill="#1D1E1B"/>
<path d="M58.9508 2.65168C58.6348 2.33567 58.1713 2.2177 57.7416 2.33146C57.7289 2.33567 57.7163 2.33567 57.7037 2.33989C57.6068 2.38202 57.5056 2.42416 57.4087 2.46629C57.2655 2.54213 57.1475 2.65168 57.0632 2.7823C56.9031 2.98876 56.7852 3.25842 56.7978 3.52808C56.8062 3.74718 56.8652 3.95786 56.9663 4.15168C57.1054 4.41712 57.4172 4.64465 57.7037 4.72049C57.7163 4.72471 57.7289 4.72471 57.7416 4.72892C58.1587 4.83847 58.6516 4.73313 58.9508 4.4087C59.1741 4.16432 59.3131 3.86516 59.3131 3.52808C59.3131 3.21629 59.1741 2.87921 58.9508 2.65168Z" fill="#1D1E1B"/>
<path d="M22.4754 76.7316C18.6919 80.5405 14.9463 84.3916 11.2219 88.2512C11.0913 88.386 11.2935 88.584 11.4283 88.4576C15.2876 84.7329 19.1385 80.9872 22.9472 77.2035C23.2464 76.9001 22.7745 76.4282 22.4754 76.7316Z" fill="#1D1E1B"/>
<path d="M20.1361 105.304C18.7247 106.681 17.3428 108.084 15.9482 109.479C15.6238 109.804 16.1294 110.309 16.4538 109.985C17.8483 108.59 19.2513 107.204 20.629 105.797C20.945 105.476 20.4605 104.992 20.1361 105.304Z" fill="#1D1E1B"/>
<path d="M106.475 76.1469C103.168 79.505 99.8731 82.8674 96.6753 86.3309C96.4731 86.55 96.7806 86.8575 96.9997 86.6553C100.463 83.4573 103.825 80.1623 107.183 76.8548C107.646 76.4039 106.93 75.6876 106.475 76.1469Z" fill="#1D1E1B"/>
<path d="M103.971 109.433C99.5771 113.718 95.2923 118.1 91.0201 122.508C90.7167 122.824 91.1844 123.296 91.5004 122.988C95.9074 118.716 100.289 114.431 104.574 110.036C104.957 109.644 104.363 109.05 103.971 109.433Z" fill="#1D1E1B"/>
<path d="M44.9843 27.4348L41.7444 30.7002C41.3989 31.05 41.934 31.5893 42.2879 31.2438L45.5531 27.9994C45.9154 27.637 45.3467 27.0682 44.9843 27.4348Z" fill="#1D1E1B"/>
<path d="M76.3933 25.8463C74.4468 27.6918 72.631 29.6806 70.7729 31.6145C70.4317 31.9685 70.9709 32.512 71.3164 32.1581C73.1744 30.2241 75.083 28.3238 76.8526 26.3056C77.1222 25.9938 76.6967 25.5556 76.3933 25.8463Z" fill="#1D1E1B"/>
</svg>
