<svg width="119" height="163" viewBox="0 0 119 163" fill="none" xmlns="http://www.w3.org/2000/svg">
<path d="M92.2077 138.131C93.3835 136.715 94.5844 135.317 95.8777 134.011C95.9323 131.597 95.9406 129.182 95.9071 126.768C95.8987 126.217 95.504 125.819 95.0421 125.688C95.1344 125.483 95.2226 125.277 95.2982 125.063C95.4116 124.739 95.0589 124.412 94.7439 124.508C91.9726 125.386 90.7213 129.014 90.4778 131.626C90.2594 133.961 90.8809 136.266 92.0734 138.244C92.1196 138.206 92.1658 138.168 92.2077 138.131Z" fill="#39B100"/>
<path d="M24.4653 129.387C24.6585 129.513 24.8516 129.639 25.0406 129.757C24.5787 129.849 24.1714 130.265 24.1924 130.756C24.2596 132.117 24.3394 133.494 24.4444 134.871C25.2548 135.724 26.0106 136.622 26.779 137.513C26.8756 137.622 26.9217 137.739 26.9427 137.857C27.6062 138.42 28.2906 138.961 28.9708 139.499C29.2606 139.726 29.5503 139.957 29.84 140.183C31.0409 137.97 31.5952 135.296 30.7932 132.852C29.924 130.202 27.6188 128.682 24.9734 128.19C24.247 128.06 23.8271 128.963 24.4653 129.387ZM26.8714 136.862C26.8042 136.177 26.7412 135.493 26.6698 134.813C26.8168 135.472 26.8756 136.165 26.8714 136.862Z" fill="#39B100"/>
<path d="M61.8574 40.5654C60.0602 40.4227 58.0657 40.8762 56.2727 41.0651C54.442 41.2583 52.3215 41.2793 50.5873 41.9428C49.8231 42.2367 49.2437 42.8456 49.2437 43.7065C49.2437 44.4539 49.8063 45.3358 50.5873 45.4701C52.5063 45.8019 54.5386 45.4827 56.4659 45.3106C58.3974 45.1384 60.5473 45.1846 62.4116 44.6597C64.7673 44.0004 64.1416 40.746 61.8574 40.5654Z" fill="#EF4036"/>
<path d="M52.4099 125.357C52.3049 125.079 52.2671 124.794 52.2965 124.5C52.2965 123.845 51.7422 123.576 51.2551 123.673C51.0998 123.597 50.9276 123.564 50.7639 123.572C50.5539 123.429 50.302 123.362 50.071 123.412C49.7519 123.089 49.2144 123.148 48.8491 123.446C48.5174 123.156 47.9506 123.211 47.602 123.517C47.3879 123.442 47.1485 123.438 46.9428 123.513C46.5985 123.089 45.8721 123.085 45.5319 123.505C45.2842 123.358 44.9651 123.337 44.7048 123.438C44.3688 123.278 43.9069 123.354 43.6382 123.656C43.5164 123.635 43.3905 123.643 43.2645 123.677C42.916 123.547 42.4667 123.614 42.2358 123.971C41.8578 124.555 41.8453 125.226 42.0804 125.873C42.2651 126.385 42.8236 126.646 43.2897 126.406C43.4745 126.541 43.7096 126.608 44.0287 126.558C44.0623 126.553 44.0917 126.541 44.1253 126.537C44.3982 126.86 44.8097 126.893 45.1372 126.721C45.154 126.742 45.1666 126.763 45.1834 126.784C45.469 127.141 46.1282 127.112 46.4473 126.784C46.7958 126.977 47.2451 126.944 47.5223 126.663C47.7112 126.717 47.9254 126.705 48.1143 126.637C48.509 127.036 49.1683 127.103 49.5294 126.566C49.9241 126.663 50.365 126.545 50.5455 126.146C50.5581 126.112 50.5749 126.083 50.5875 126.049C50.6001 126.049 50.6085 126.045 50.6211 126.045C50.6337 126.054 50.6421 126.062 50.6547 126.07C51.0242 126.961 52.7164 126.474 52.4099 125.357Z" fill="#EF4036"/>
<path d="M37.2346 124.391C37.243 124.349 37.18 124.328 37.1674 124.374C36.7391 126.079 36.2815 127.775 35.8322 129.472C35.6684 129.224 35.4879 128.98 35.3409 128.707C34.9168 127.918 34.6691 127.04 34.5893 126.15C34.5557 125.785 34.077 125.797 34.0308 126.15C33.9048 127.12 33.9636 128.077 34.2744 129.01C34.5053 129.703 34.7992 130.517 35.4711 130.849C35.0302 132.537 34.6019 134.229 34.2282 135.934C33.7243 138.223 33.2204 140.684 33.1071 143.119C33.5437 143.577 33.9762 144.035 34.4213 144.484C34.3793 143.434 34.3499 142.38 34.4339 141.313C34.5851 139.403 34.9462 137.522 35.3199 135.645C35.6432 134.019 35.9246 132.382 36.1933 130.744C36.2395 130.677 36.2647 130.601 36.2563 130.513C36.2521 130.488 36.2479 130.463 36.2437 130.437C36.5712 128.422 36.8819 126.402 37.2346 124.391Z" fill="#251C1C"/>
<path d="M84.6368 141.628C84.7124 142.733 84.6746 143.867 84.6746 144.992C85.0693 144.686 85.485 144.4 85.9217 144.148C85.8755 143.228 85.7831 142.313 85.7117 141.448C85.5354 139.273 85.2247 137.102 84.788 134.964C84.2799 132.483 83.6206 129.875 82.6927 127.402C82.7808 127.389 82.8648 127.351 82.932 127.271C83.5157 126.574 83.8432 125.701 84.1497 124.853C84.4562 124 84.8803 122.98 84.8089 122.064C84.7921 121.863 84.5276 121.766 84.4142 121.959C83.9482 122.736 83.7718 123.706 83.3771 124.529C83.058 125.193 82.6465 125.81 82.3274 126.469C81.7605 125.084 81.1054 123.752 80.3328 122.526C80.2237 122.354 79.9213 122.463 79.9927 122.669C80.6646 124.689 81.5211 126.641 82.1636 128.674C82.827 130.765 83.3603 132.907 83.7802 135.061C84.2043 137.232 84.4898 139.424 84.6368 141.628Z" fill="#251C1C"/>
<path d="M93.9586 107.627C94.2231 108.668 94.4204 109.722 94.5674 110.785C93.9879 111.054 93.5555 111.684 93.1356 112.141C92.5897 112.738 92.0396 113.334 91.4938 113.926C91.1621 114.287 91.6743 114.804 92.0354 114.468C92.6233 113.913 93.2154 113.359 93.8032 112.809C94.0845 112.544 94.4289 112.276 94.7186 111.973C94.811 112.851 94.8739 113.733 94.9201 114.615C94.811 114.526 94.6598 114.493 94.4876 114.547C94.3701 114.585 94.2567 114.631 94.1433 114.682C94.1937 114.451 94.2357 114.22 94.2525 113.985C94.2777 113.632 93.8452 113.54 93.6226 113.724C93.3707 113.93 93.102 114.043 92.8164 114.186C92.6359 114.279 92.7451 114.518 92.9088 114.535C93.039 114.547 93.165 114.547 93.2867 114.531C93.1482 114.913 93.0012 115.286 92.7787 115.652C92.5519 116.021 92.934 116.592 93.3749 116.429C93.4673 116.395 93.5639 116.353 93.6562 116.315C93.5429 116.634 93.4337 116.954 93.3455 117.281C93.2153 117.772 93.9754 118.138 94.1979 117.642C94.4919 116.979 94.6892 116.282 94.9621 115.61C95.0125 117.075 95.0251 118.545 95.0293 120.006C95.0419 124.626 94.8949 129.245 94.6052 133.855C94.5716 134.401 94.5338 134.947 94.496 135.493C95.0251 134.909 95.5668 134.338 96.1252 133.784C96.4486 129.131 96.6039 124.474 96.5829 119.809C96.5451 111.919 96.2218 102.382 89.1801 97.2928C86.2241 95.1554 82.3022 94.0972 78.8549 95.4997C78.8717 95.4031 78.8717 95.3065 78.8465 95.2142C78.4854 93.8998 78.1452 92.5813 77.7757 91.2669C82.9951 88.676 87.446 84.4347 88.1136 78.3627C88.6007 73.9157 87.3998 69.095 86.0393 64.8874C85.4011 62.9137 84.4395 61.3474 82.9657 59.9029C81.6766 58.6389 82.2686 56.9046 82.0713 55.2963C82.1847 54.6623 82.235 54.0198 82.235 53.3773C82.3778 53.2807 82.487 53.1211 82.5248 52.886C82.9321 50.421 82.9657 47.9981 82.9195 45.508C82.9111 44.9998 82.3526 44.4245 81.8025 44.6597C80.3371 45.277 78.9136 45.9951 77.4776 46.6753C76.7386 47.0239 75.9996 47.3808 75.2605 47.7419C74.5719 48.0779 73.7027 48.7078 72.9259 48.7162C72.2541 48.7246 71.5361 48.376 70.8936 48.1955C70.142 47.9813 69.3862 47.7923 68.6262 47.6202C67.2069 47.301 65.7793 47.0785 64.339 46.8811C61.9204 46.5536 59.4808 46.4276 57.0454 46.499C56.6885 46.4276 56.3232 46.4528 55.9579 46.5452C53.0102 46.7047 50.0751 47.1541 47.2156 47.9015C44.163 48.6994 41.1859 49.829 38.3894 51.2945C36.6384 50.2699 34.879 49.2621 33.0063 48.4684C31.9272 48.0107 29.2356 46.5662 28.3496 47.9771C27.9591 48.5986 28.2195 49.4006 28.3706 50.0557C28.631 51.1727 28.9039 52.2897 29.1894 53.4025C29.7353 55.5483 30.3651 57.6563 31.0454 59.7601C31.0202 59.8315 31.016 59.9071 31.0244 59.9743C31.0538 60.1716 31.0748 60.369 31.1 60.5664C31.121 60.7259 31.2049 60.8309 31.3057 60.8813C31.3057 60.8813 31.3057 60.8813 31.3057 60.8855C31.2931 60.8981 31.2805 60.9149 31.2721 60.9317C28.1187 67.9486 28.4924 76.6242 32.4268 83.2464C34.1526 86.1522 36.5082 88.676 39.309 90.5698C39.9682 91.0149 40.6484 91.4097 41.3455 91.7666C41.0641 92.8248 40.8122 93.883 40.5812 94.9496C40.3881 95.8524 40.0228 96.8519 39.964 97.7925C39.8044 97.7841 39.6491 97.7883 39.4895 97.8009C39.3089 97.6287 39.057 97.5363 38.7715 97.6245C37.2263 98.099 35.8112 98.7961 34.5263 99.6654C33.2414 100.35 32.0615 101.248 31.037 102.252C28.4 104.835 26.7078 108.265 25.5069 111.713C23.8273 116.529 23.2395 121.594 23.2689 126.671C23.1513 128.602 23.1093 130.525 23.1303 132.419C23.1345 132.818 23.1471 133.221 23.1555 133.62C23.7686 134.162 24.3396 134.75 24.8897 135.35C24.7637 131.374 24.9317 127.384 25.402 123.437C26.1704 116.979 27.3629 110.033 31.4695 104.763C32.7166 103.159 34.2198 101.752 35.933 100.682C35.9624 100.673 35.9918 100.669 36.0254 100.656C37.1717 100.203 38.2718 99.6108 39.3803 99.0774C39.5357 99.0019 39.6365 98.8969 39.6995 98.7709C39.7037 98.7667 39.7121 98.7667 39.7163 98.7625C39.8422 98.7247 39.9682 98.6911 40.0942 98.6533C40.2747 98.9851 40.6022 99.195 41.0095 99.3756C42.1307 99.8753 43.2602 100.362 44.3897 100.841C48.7944 102.714 53.1992 104.583 57.6039 106.455C58.049 106.644 58.7628 106.443 58.6998 105.826C58.4815 103.697 58.5444 101.568 58.893 99.4806C58.8762 99.9215 58.8678 100.367 58.851 100.808C58.8006 102.244 58.788 103.68 58.7754 105.116C58.746 108.055 58.7124 110.991 58.7124 113.93C58.7124 119.733 58.5822 125.575 59.0105 131.365C59.0273 131.575 59.2163 131.655 59.3632 131.605C59.3213 133.99 59.422 136.379 59.2793 138.76C59.1953 140.188 59.0567 141.582 59.0399 143.014C59.0273 144.026 59.0273 145.042 59.0273 146.054H60.224C60.224 145.105 60.224 144.156 60.2114 143.207C60.1946 141.708 60.0687 140.251 59.9721 138.76C59.7831 135.8 59.9973 132.827 59.8293 129.862C59.8209 129.74 59.7369 129.677 59.6446 129.669C59.9385 124.437 59.8335 119.167 59.8335 113.93C59.8335 111.058 59.7999 108.186 59.7747 105.309C59.7621 103.873 59.7537 102.437 59.7034 101.001C59.6698 100.073 59.6698 99.1446 59.5732 98.225C60.1443 100.673 60.7027 103.125 61.2654 105.578C61.362 105.998 61.9666 106.296 62.3361 106.015C67.2531 102.315 72.5396 99.069 77.9857 96.2136C78.0235 96.4487 78.2376 96.6629 78.5106 96.5747C81.8319 95.5417 85.2667 96.3563 88.0716 98.3342C91.2124 100.551 93.0306 103.961 93.9586 107.627ZM85.506 68.1796C85.3633 68.104 85.2037 68.062 85.0316 68.0368C85.1701 67.9906 85.3045 67.9444 85.4388 67.894C85.464 67.9906 85.4851 68.0872 85.506 68.1796ZM57.1378 104.704C53.5855 103.256 50.0331 101.807 46.4808 100.358C45.5234 99.9677 44.5661 99.573 43.6045 99.1908C42.9369 98.9263 41.1103 98.5399 41.0011 97.7883C40.9382 97.36 41.1187 96.7847 41.1733 96.3522C41.2321 95.8566 41.2951 95.3611 41.3538 94.8656C41.4756 93.883 41.568 92.9046 41.6436 91.9178C44.2511 93.1901 47.0729 93.8746 49.9953 94.2357C52.8296 94.5843 55.7395 94.832 58.6536 94.8866C57.4443 98.0234 56.9152 101.358 57.1378 104.704ZM54.0431 93.2195C50.1759 92.9634 46.1701 92.6316 42.6219 90.9436C40.8164 90.0869 39.1578 88.9573 37.6797 87.622C38.9982 87.1684 39.5525 85.4006 39.183 84.1408C38.8177 82.9104 37.7427 81.8774 36.4285 81.7935C35.9162 81.7599 35.4669 81.9068 34.9966 82.0874C34.6103 82.2344 34.0351 82.6123 33.7789 82.7047C33.7411 82.7173 33.7033 82.7341 33.6697 82.7509C33.3842 82.2764 33.1197 81.7893 32.8677 81.2937C33.1869 81.2728 33.5144 81.1762 33.8419 81.0502C35.1646 80.5337 36.546 79.6644 37.3228 78.4467C38.1458 77.1533 37.2683 76.0111 35.8784 75.8641C34.6145 75.7298 33.2204 76.1287 32.0783 76.7628C31.7466 76.8132 31.4737 76.9559 31.2595 77.1533C31.0874 76.5444 30.9362 75.9313 30.806 75.3099C33.422 75.0999 39.5021 74.5162 38.0157 70.6193C36.8694 67.6211 32.9685 67.2053 30.3441 68.4273C30.5079 65.9624 30.9908 63.5226 31.6668 61.1039C31.6836 61.0409 31.6668 60.9821 31.6374 60.9359C31.6458 60.9191 31.6584 60.9023 31.6668 60.8855C31.7928 60.8225 31.881 60.6881 31.8432 60.495C31.881 60.3774 31.902 60.2598 31.9062 60.1296C31.9146 59.8609 31.7802 59.6677 31.5745 59.588C31.0706 57.3792 30.5751 55.1662 30.0712 52.9574C29.8151 51.8404 29.5463 50.7192 29.3322 49.5896C29.2734 49.2789 29.0845 48.9177 29.3196 48.649C29.5715 48.3634 29.8739 48.565 30.2098 48.6616C30.7808 48.8211 31.3393 49.0311 31.8894 49.2537C32.9433 49.682 33.9595 50.2069 34.9546 50.7612C35.4753 51.0551 35.9918 51.3575 36.504 51.664C36.9869 51.9538 37.5034 52.4157 38.0325 52.6004C38.7379 52.8482 39.5735 52.1595 40.1949 51.8656C41.2531 51.3659 42.328 50.9124 43.4239 50.505C45.6872 49.6652 48.0344 49.0185 50.4152 48.5734C50.1801 49.6526 50.6462 51.1181 51.2802 51.832C52.351 53.0372 54.0683 52.7516 54.7108 51.2777C54.9123 50.8116 55.0551 50.1985 55.0761 49.577C55.0803 49.6064 55.0845 49.6316 55.0887 49.661C55.3028 50.9627 56.8942 51.3281 57.8054 50.463C57.9902 50.2867 58.1497 50.0767 58.2799 49.8458C58.4437 50.1061 58.6704 50.3245 58.9517 50.4966C60.1946 51.2483 61.6307 50.3496 62.1304 49.1487C62.2731 48.8001 62.3361 48.418 62.2815 48.0569C64.4482 48.2752 66.5939 48.6658 68.6892 49.2411C69.8733 49.5686 71.028 50.0767 72.2205 50.358C73.2408 50.5974 74.0387 50.2573 74.954 49.8373C77.0493 48.8757 79.1782 47.9393 81.2441 46.9021C81.3155 48.7498 81.1559 50.6226 80.8998 52.4367C80.8704 52.6466 80.9123 52.8356 81.0005 52.991C80.8494 53.9358 80.7192 54.8974 80.7402 55.8422C80.7444 56.0102 80.8284 56.1278 80.9376 56.1908C80.9376 56.2706 80.9334 56.3504 80.9334 56.4343C80.9334 56.5099 80.9501 56.5771 80.9795 56.6317C80.9166 57.5387 80.8326 58.4458 81.1433 59.3108C81.3868 59.9785 81.8361 60.4572 82.34 60.9443C83.016 61.5994 83.5535 62.3342 83.9734 63.1783C84.5529 64.3499 84.9098 65.6306 85.2163 66.9114C82.9195 66.9534 77.8681 68.0956 78.6575 71.077C79.0564 72.572 80.8326 73.3908 82.1804 73.7813C83.3604 74.1257 85.4473 74.5456 86.602 73.7561C86.6188 73.8989 86.6398 74.0375 86.6524 74.1803C86.7111 74.7472 86.7489 75.3098 86.7615 75.8683C85.8672 75.6122 84.8384 75.713 83.9272 75.755C83.1336 75.7928 82.2686 75.8221 81.5422 76.1875C80.2699 76.8216 79.3462 79.0933 80.2573 80.3069C81.1895 81.5457 83.7803 83.1372 85.3633 82.4695C85.4011 82.4527 85.4304 82.4359 85.464 82.4191C85.0441 83.2884 84.5151 84.1198 83.86 84.9009C83.8516 84.9135 83.8432 84.9219 83.8348 84.9303C83.797 84.9093 83.7551 84.8925 83.7131 84.8799C83.5073 84.7833 83.2806 84.7077 83.0412 84.6657C82.9615 84.6363 82.8817 84.6111 82.8019 84.5817C82.8649 84.4137 82.8103 84.2038 82.6381 84.103C81.9537 83.7125 80.8284 83.9309 80.2405 84.439C79.5771 85.0143 79.6527 86.0809 79.9172 86.8325C80.0306 87.1601 80.2783 87.3238 80.5345 87.3574C80.6394 87.4834 80.7738 87.5842 80.9292 87.6598C79.1992 88.9741 77.2509 90.0197 75.2605 90.8218C68.5716 93.5135 61.1436 93.6898 54.0431 93.2195ZM33.8419 73.2564C33.8881 73.1892 33.9385 73.1179 33.9847 73.0465C34.056 73.0759 34.1274 73.1053 34.1988 73.1305C34.0812 73.1766 33.9595 73.2186 33.8419 73.2564ZM62.4075 104.138C61.6601 101.059 60.9085 97.9856 60.203 94.895C64.6288 94.8698 69.0419 94.3659 73.224 93.0726C74.3158 92.7366 75.4117 92.3335 76.4867 91.8632C76.81 92.9256 77.1501 93.9838 77.486 95.042C72.1155 97.5195 67.1229 100.585 62.4075 104.138Z" fill="#251C1C"/>
<path d="M60.2745 73.1724C60.4592 72.4081 60.7154 71.1525 59.8714 70.678C59.0442 70.2161 58.1918 71.0643 57.7551 71.6984C57.5787 71.9504 57.4402 72.2191 57.3352 72.4963C57.0455 72.152 56.7054 71.858 56.3107 71.6564C55.7522 71.3667 54.7864 71.1987 54.5135 71.9546C54.2322 72.7314 55.0594 74.1088 55.4583 74.7387C56.0209 75.6247 56.7389 76.6997 57.5829 77.3968C57.5829 77.4598 57.5829 77.5185 57.5871 77.5815C57.5997 77.7285 57.7509 77.7831 57.8643 77.6949C57.8853 77.6781 57.9021 77.6613 57.9189 77.6445C57.9315 77.6529 57.9483 77.6655 57.9609 77.6739C58.0406 77.7243 58.1078 77.6277 58.0784 77.5563C58.07 77.5395 58.0616 77.527 58.0574 77.5102C58.2674 77.2834 58.4269 77.0062 58.5277 76.7081C59.2205 75.5911 59.9596 74.4657 60.2745 73.1724Z" fill="#251C1C"/>
<path d="M52.5192 68.9105C52.4814 67.1594 52.2421 65.4084 52.0237 63.6741C51.8432 62.2463 51.5408 60.7472 50.4743 59.6932C48.2363 57.4928 45.4607 59.647 44.4236 61.8978C43.0757 64.8205 43.2311 68.247 44.3648 71.1991C44.3564 71.2033 44.3438 71.2033 44.3354 71.2075C44.0289 71.2831 44.1171 71.7492 44.4278 71.6904C44.5076 71.6736 44.5874 71.661 44.6629 71.6484C44.8729 71.7618 45.1458 71.6988 45.3306 71.5308C45.9394 71.4259 46.5525 71.3377 47.1655 71.2579C47.3545 71.3293 47.5434 71.3881 47.7282 71.4217C47.85 71.472 47.9675 71.4846 48.0767 71.4678C48.6226 71.5014 49.1516 71.3587 49.6597 71.0143C49.6723 71.0059 49.6807 70.9975 49.6933 70.9849C49.8697 70.9681 50.0502 70.9513 50.2266 70.9387C50.7598 70.9009 51.6038 71.0437 52.0993 70.7372C52.6788 70.3844 52.5318 69.4774 52.5192 68.9105ZM51.2973 69.7672C51.1251 69.9057 50.6339 69.8721 50.3987 69.9141C50.277 69.9351 50.1594 69.9561 50.0376 69.9771C50.0754 69.9057 50.1006 69.8259 50.1132 69.7378C50.3232 68.0329 49.9872 66.391 49.4624 64.7701C49.1852 63.905 48.8493 61.818 47.535 62.1246C46.3845 62.3933 46.1914 64.5811 46.099 65.5091C45.952 66.9747 45.9436 69.0239 46.5945 70.3592C46.5693 70.4642 46.5693 70.5692 46.5903 70.6742C46.2417 70.754 45.889 70.8338 45.5405 70.9177C45.5321 70.8883 45.5279 70.8589 45.5195 70.8253C44.6461 68.394 44.5076 65.5721 45.3012 63.0988C45.6119 62.1372 46.1284 61.0957 46.9892 60.5163C48.2867 59.647 49.5002 60.3819 50.0292 61.7004C50.4491 62.7418 50.6045 63.926 50.8102 65.0262C51.0706 66.3994 51.0538 67.8229 51.3015 69.1835C51.3057 69.3052 51.3057 69.427 51.3099 69.5488C51.5451 69.7042 51.5408 69.7756 51.2973 69.7672Z" fill="#251C1C"/>
<path d="M69.3568 62.464C69.1427 61.1581 69.0629 59.6547 68.2945 58.5209C66.6191 56.0392 63.6168 58.6721 62.7686 60.4988C62.1682 61.7879 61.9247 63.2157 61.8533 64.6266C61.7777 66.1258 61.8155 67.86 62.4915 69.2332C62.1556 69.3549 62.2018 69.9093 62.6049 69.8757C63.6294 69.7833 64.6582 69.7413 65.6869 69.7833C66.6191 69.8211 67.5555 70.0184 68.4876 70.031C69.7263 70.0478 69.8481 69.1576 69.8943 68.091C69.9783 66.1677 69.6676 64.3495 69.3568 62.464ZM68.7018 68.5445C68.6514 68.956 68.811 68.9476 68.3197 68.9644C68.1517 68.9686 67.9796 68.9644 67.8074 68.956C67.8074 68.9476 67.8116 68.9392 67.8158 68.9308C68.0468 67.8096 68.1895 61.5612 65.8885 62.3842C65.0067 62.6992 64.5238 63.9337 64.3139 64.761C63.9612 66.1509 64.1753 67.6039 64.0787 69.0148C63.8646 69.0358 63.6504 69.061 63.4363 69.0904C63.3859 67.9272 63.0752 66.8018 63.0542 65.626C63.0332 64.4461 63.1508 63.2325 63.4825 62.0945C63.768 61.1077 64.2509 60.0831 65.0613 59.4154C65.5358 59.0249 66.2832 58.6175 66.913 58.8569C67.4715 59.0668 67.7276 59.6547 67.8956 60.1838C68.6514 62.5732 68.5548 65.1389 68.6724 67.6081C68.6808 67.902 68.7396 68.2505 68.7018 68.5445Z" fill="#251C1C"/>
<path d="M36.4451 54.2545C34.7361 53.4231 33.0145 52.5665 31.2258 51.9198C30.9612 51.8232 30.6631 52.1255 30.7597 52.3859C31.125 53.3979 31.4525 54.4099 31.8556 55.4051C32.2335 56.3289 32.7248 57.131 33.2077 57.996C33.2749 58.1178 33.4554 58.0338 33.426 57.9036C33.4218 57.8869 33.4176 57.8701 33.4134 57.8533C33.7158 57.9666 34.0853 57.9037 34.375 57.6727C35.1812 57.0344 35.874 56.224 36.6004 55.4933C36.9406 55.1574 36.907 54.4813 36.4451 54.2545Z" fill="#251C1C"/>
<path d="M79.4555 51.2024C79.615 50.9504 79.5352 50.6439 79.3547 50.4297C78.7542 49.7242 77.5071 50.3751 76.8395 50.6271C76.0795 50.9168 75.1011 51.152 74.6686 51.8784C74.6182 51.8532 74.5721 51.828 74.5217 51.807C74.3621 51.7357 74.1941 51.8826 74.2781 52.0506C74.3537 52.206 74.4419 52.3487 74.5343 52.4915C74.5805 52.6889 74.7106 52.8695 74.8828 52.9912C75.2145 53.4321 75.584 53.8437 75.9325 54.2804C76.6086 55.1244 77.2594 55.9937 77.9061 56.8629C78.4099 57.539 79.3505 57.1317 79.2329 56.3044C79.1112 55.452 79.0482 54.6163 79.0692 53.7555C79.0902 53.0248 79.0482 51.849 79.4555 51.2024Z" fill="#251C1C"/>
<path d="M61.299 108.739C60.1653 108.739 60.1611 110.503 61.299 110.503C62.4369 110.503 62.4369 108.739 61.299 108.739Z" fill="#251C1C"/>
<path d="M61.7438 112.926C60.4212 112.926 60.4212 114.979 61.7438 114.979C63.0623 114.979 63.0665 112.926 61.7438 112.926Z" fill="#251C1C"/>
<path d="M61.8323 117.714C60.644 117.714 60.6398 119.562 61.8323 119.562C63.0206 119.562 63.0248 117.714 61.8323 117.714Z" fill="#251C1C"/>
<path d="M62.9995 123.038C62.8063 122.858 62.567 122.744 62.294 122.744C62.0379 122.744 61.7692 122.853 61.5886 123.038C61.4165 123.21 61.2863 123.496 61.2947 123.744C61.3073 124 61.3913 124.268 61.5886 124.449C61.7818 124.63 62.0211 124.743 62.294 124.743C62.5502 124.743 62.8189 124.634 62.9995 124.449C63.1716 124.277 63.3018 123.991 63.2934 123.744C63.2808 123.483 63.1968 123.219 62.9995 123.038Z" fill="#251C1C"/>
<path d="M62.9786 127.305C62.735 127.082 62.4369 126.939 62.0968 126.939C61.7777 126.939 61.4417 127.078 61.215 127.305C61.0009 127.519 60.8371 127.876 60.8497 128.187C60.8623 128.51 60.9715 128.842 61.215 129.068C61.4585 129.291 61.7609 129.434 62.0968 129.434C62.4159 129.434 62.7518 129.295 62.9786 129.068C63.1927 128.854 63.3565 128.497 63.3439 128.187C63.3271 127.863 63.2221 127.527 62.9786 127.305Z" fill="#251C1C"/>
<path d="M62.0967 132.091C60.4549 132.091 60.4507 134.64 62.0967 134.64C63.7385 134.644 63.7385 132.091 62.0967 132.091Z" fill="#251C1C"/>
<path d="M62.3613 141.338C61.3115 141.338 61.3115 142.967 62.3613 142.967C63.411 142.967 63.411 141.338 62.3613 141.338Z" fill="#251C1C"/>
<path d="M61.6979 146.053H62.4915C62.924 145.722 62.7938 144.84 62.0926 144.84C61.3998 144.844 61.2654 145.722 61.6979 146.053Z" fill="#251C1C"/>
<path d="M52.4013 122.761C51.8344 122.442 51.0072 122.568 50.3858 122.581C50.2808 122.581 50.1716 122.585 50.0666 122.589C50.117 122.488 50.1338 122.371 50.0918 122.241C49.6803 120.993 49.0295 119.776 48.4416 118.6C48.1645 118.041 47.7278 117.286 46.9804 117.609C46.2917 117.903 45.9264 118.986 45.6913 119.629C45.3008 120.704 45.1118 121.842 44.5282 122.837C44.5072 122.875 44.4946 122.908 44.4862 122.946C43.5498 123.055 42.6134 123.181 41.6771 123.299C41.4587 123.328 41.4419 123.668 41.6771 123.656C41.803 123.652 41.929 123.647 42.055 123.643C42.0298 124.496 41.7526 125.793 42.1809 126.557L42.1851 126.562C42.16 127.826 42.2985 129.115 42.4245 130.354C42.5463 131.554 42.8108 132.844 43.5456 133.83C44.8809 135.632 47.3709 135.934 49.4452 136.077C50.3774 136.14 51.5405 136.161 52.1325 135.288C52.481 134.775 52.4894 134.057 52.565 133.465C52.6658 132.655 52.7456 131.84 52.8086 131.025C52.9387 129.333 52.9975 127.628 52.9933 125.932C52.9849 125.075 53.3166 123.278 52.4013 122.761ZM46.8292 119.322C46.8922 119.192 46.9636 119.066 47.0434 118.944C47.1903 118.512 47.3121 118.449 47.4045 118.755C47.6228 118.869 47.8706 119.742 47.9797 119.981C48.3786 120.851 48.702 121.766 49.147 122.61C48.5886 122.627 48.0343 122.648 47.4759 122.677C46.7662 122.715 46.0524 122.774 45.3428 122.85C46.0146 121.737 46.233 120.473 46.8292 119.322ZM51.847 127.817C51.7798 129.459 51.6245 131.105 51.3977 132.734C51.2969 133.469 51.3389 134.502 50.5789 134.847C50.117 135.057 49.3738 134.973 48.8783 134.973C47.5892 134.977 46.191 134.897 45.074 134.183C43.8018 133.369 43.512 131.937 43.2475 130.559C43.0165 129.358 42.7982 128.195 42.6764 127.003C43.1635 127.242 43.8227 127.254 44.2972 127.322C46.8082 127.666 49.3108 127.628 51.7882 127.091C51.8176 127.087 51.8428 127.074 51.868 127.066C51.8596 127.313 51.8554 127.565 51.847 127.817ZM51.8848 125.361C51.8848 125.592 51.8848 125.823 51.8806 126.054C51.8134 126.024 51.7336 126.007 51.6412 126.02C49.8105 126.238 47.9755 126.373 46.1322 126.356C45.2756 126.347 44.4148 126.301 43.5624 126.205C42.815 126.121 42.7646 125.911 42.5463 125.226C42.5001 125.075 42.4539 124.924 42.4119 124.769C42.4245 124.756 42.4371 124.735 42.4245 124.71L42.3657 124.592C42.3321 124.458 42.2985 124.323 42.2691 124.185C42.2733 124.185 42.2775 124.185 42.2817 124.181C42.3489 124.139 42.3741 124.05 42.3279 123.983C42.3027 123.946 42.2607 123.933 42.2229 123.933C42.2061 123.832 42.1894 123.731 42.1768 123.631C43.6884 123.576 45.1874 123.597 46.699 123.622C48.2359 123.652 49.8231 123.555 51.3515 123.744C51.9268 123.815 51.784 123.723 51.8638 124.218C51.9268 124.588 51.8848 124.991 51.8848 125.361Z" fill="#251C1C"/>
<path d="M63.562 100.539C63.1757 100.312 62.7013 100.396 62.3821 100.69C62.3695 100.702 62.3569 100.715 62.3443 100.723C61.9874 101.051 61.9874 101.702 62.3443 102.034C62.3569 102.046 62.3695 102.059 62.3821 102.067C62.6719 102.336 63.0792 102.424 63.4487 102.269C63.7888 102.126 64.0659 101.765 64.0491 101.378C64.0281 101.043 63.8602 100.715 63.562 100.539Z" fill="#251C1C"/>
<path d="M55.1307 101.177C53.9172 101.177 53.9172 103.058 55.1307 103.058C56.3442 103.058 56.3442 101.177 55.1307 101.177Z" fill="#251C1C"/>
<path d="M93.5677 108.79C92.8371 109.642 92.3878 110.663 91.569 111.473C90.725 112.309 89.7257 112.989 88.6507 113.489C88.3484 113.631 88.5625 114.14 88.8775 114.03C90.0658 113.619 91.1323 113.027 92.0603 112.17C92.8875 111.406 93.9372 110.264 94.1514 109.126C94.206 108.819 93.8113 108.504 93.5677 108.79Z" fill="#251C1C"/>
<path d="M70.5701 43.9508C69.365 43.8333 68.1221 44.0307 66.9128 44.1062C66.0898 44.1566 65.2626 44.207 64.4396 44.2574C64.6789 43.9929 64.8217 43.6401 64.7923 43.2202C64.6579 41.2214 64.0491 39.1721 63.6628 37.2069C63.2765 35.2417 63.0665 33.1169 62.4661 31.2062C61.79 29.0478 59.51 29.5559 57.7296 29.7113C55.8275 29.8751 53.9338 30.1186 52.0526 30.4461C50.1757 30.7737 48.3071 31.1726 46.4596 31.6429C45.6114 31.8613 44.843 32.1342 44.3643 32.9153C43.8856 33.6963 43.9402 34.5656 44.1502 35.4264C44.9816 38.8194 46.3126 42.1284 47.8663 45.261C45.5862 45.4038 43.3062 45.5676 41.0303 45.7859C40.1905 45.8657 40.3669 47.0289 41.1605 47.0499C46.0481 47.1801 50.9483 47.0289 55.8359 46.9323C58.2461 46.8819 60.6563 46.8189 63.0665 46.7475C64.2381 46.7139 65.4096 46.6762 66.5811 46.6384C67.8534 46.5964 69.2348 46.714 70.4819 46.4662C71.792 46.2142 72.1069 44.0978 70.5701 43.9508ZM55.8191 44.7865C53.7406 44.9167 51.6579 45.0343 49.5752 45.156C49.3065 44.459 49.0504 43.7577 48.8068 43.048C48.8152 43.048 48.8278 43.048 48.8362 43.048C49.9112 42.9179 50.9651 42.5903 52.0358 42.4265C53.1108 42.2586 54.1941 42.12 55.2732 41.9814C56.2978 41.8512 57.3265 41.7547 58.3553 41.6791C59.3714 41.6077 60.4716 41.4691 61.4877 41.6371C61.6305 42.3972 61.7943 43.1488 62.0294 43.8711C62.0966 44.081 62.1973 44.249 62.3191 44.3834C60.1524 44.5178 57.9858 44.6479 55.8191 44.7865Z" fill="#251C1C"/>
<path d="M66.5684 78.7493C66.4887 77.9388 65.6656 77.2208 64.8385 77.5357C64.2128 77.7751 64.1708 78.4385 64.7167 78.7913C64.7881 78.8375 64.9014 78.7787 64.8972 78.6905C64.8595 78.195 65.5775 78.8123 65.6447 78.934C65.4137 79.4296 65.1156 79.5849 64.7461 79.4002C64.6075 79.3918 64.4899 79.3414 64.3976 79.249C63.9945 79.0138 63.6795 78.7073 63.226 78.5435C62.2477 78.1866 61.093 78.2118 60.1398 78.6065C59.5982 78.8291 59.2244 79.2616 59.3084 79.8831C59.3798 80.3996 59.8753 80.9581 60.4505 80.8909C61.2903 80.7901 62.0755 80.7775 62.9111 80.8867C63.583 80.9707 64.217 81.0169 64.8846 80.8489C65.7958 80.6138 66.665 79.7487 66.5684 78.7493Z" fill="#251C1C"/>
<path d="M57.3145 79.2366C56.4789 79.4927 55.744 79.9378 54.9294 80.2276C54.4927 80.383 53.9091 80.6307 53.4346 80.5803C52.5948 80.4922 53.0357 79.6523 53.6194 79.371C53.6655 79.35 53.6445 79.2702 53.5942 79.2744C52.6704 79.3752 51.7172 80.5089 52.4688 81.332C52.9517 81.8611 53.8125 82.1424 54.4969 82.2222C54.9462 82.2726 55.3829 82.2348 55.8196 82.1089C56.2143 81.9955 56.903 81.5252 57.3145 81.584C59.4643 81.8947 59.0948 78.6907 57.3145 79.2366Z" fill="#251C1C"/>
<path d="M60.8751 82.5069C59.8547 82.4229 58.6202 82.6329 57.6461 82.9352C57.4025 83.0108 57.4067 83.351 57.6461 83.4265C58.6202 83.7331 59.8547 83.9472 60.8751 83.8675C61.7485 83.7961 61.7485 82.5783 60.8751 82.5069Z" fill="#251C1C"/>
<path d="M109.008 61.347L108.189 58.4874C107.895 57.5383 107.567 56.6019 107.261 55.6571C107.114 55.1826 106.925 54.7207 106.757 54.2545L106.236 52.8562C106.148 52.6252 106.068 52.3901 105.972 52.1591L105.682 51.4705L105.103 50.0931C103.52 46.444 101.651 42.904 99.4719 39.5531C97.2884 36.2063 94.8068 33.0359 91.9935 30.1678C89.1844 27.2955 86.0729 24.692 82.6466 22.5504C79.2286 20.4004 75.5209 18.6829 71.6327 17.5113C67.7486 16.3314 63.6882 15.7183 59.6236 15.6973C55.559 15.7015 51.4944 16.3062 47.602 17.4693C43.7095 18.6325 39.9892 20.3416 36.5587 22.4832C36.3361 22.605 36.1346 22.7562 35.9204 22.8947L35.2906 23.3189L34.0351 24.1671L32.8258 25.0783L32.2211 25.536C32.0196 25.6872 31.8138 25.8342 31.6249 26.0022L30.466 26.9764C30.0839 27.3039 29.685 27.6147 29.3239 27.9674L28.2195 29.0004L27.6653 29.5169C27.4805 29.6891 27.3125 29.878 27.1362 30.0544C24.2935 32.9099 21.7615 36.0551 19.5277 39.3893C15.0642 46.066 11.8015 53.4903 9.69367 61.1959L8.96724 64.1017L8.87906 64.4671L8.80349 64.8324L8.65232 65.5673L8.3458 67.0328C8.29541 67.2763 8.24502 67.5199 8.19463 67.7676L8.07287 68.5067L7.82932 69.9848C7.64877 70.9674 7.54379 71.9585 7.41782 72.9453C6.93494 76.901 6.72079 80.886 6.75439 84.8669C6.81317 88.8477 7.13229 92.816 7.69495 96.7507C7.84192 97.7333 7.97209 98.7201 8.16944 99.6943L8.44237 101.16L8.58094 101.891L8.74469 102.617L9.07221 104.07L9.23598 104.796L9.31576 105.162L9.41233 105.523L10.1807 108.399C12.3894 116.025 15.6688 123.357 20.0903 129.962C22.299 133.267 24.7932 136.383 27.5897 139.222C27.7618 139.398 27.9298 139.587 28.1104 139.759L28.652 140.271L29.7354 141.3C30.0881 141.653 30.4786 141.964 30.8565 142.291L31.9944 143.265C32.1792 143.433 32.3807 143.58 32.5781 143.732L33.1743 144.189L34.3626 145.105L35.5971 145.957L36.2144 146.381C36.4201 146.52 36.6217 146.671 36.84 146.797C40.216 148.947 43.8691 150.686 47.7153 151.887C51.5574 153.083 55.5842 153.738 59.6236 153.78C63.663 153.797 67.715 153.23 71.5907 152.08C75.4705 150.937 79.174 149.237 82.5962 147.104C86.0226 144.975 89.1424 142.388 91.9557 139.528C94.769 136.664 97.2548 133.502 99.4425 130.16C101.626 126.813 103.494 123.277 105.077 119.628L105.657 118.255L105.947 117.566C106.043 117.335 106.123 117.1 106.211 116.869L106.732 115.471C106.9 115.005 107.089 114.543 107.236 114.068C107.542 113.123 107.866 112.187 108.164 111.238L108.987 108.378C111.011 100.702 111.981 92.7866 112.014 84.8711C111.993 76.9429 111.027 69.0232 109.008 61.347ZM108.453 108.215L107.555 111.028C107.232 111.96 106.887 112.88 106.551 113.804C106.392 114.27 106.186 114.719 106.001 115.173L105.434 116.533C105.338 116.76 105.25 116.991 105.149 117.214L104.838 117.881L104.217 119.217C102.525 122.761 100.551 126.166 98.3003 129.366C96.5032 131.936 94.5171 134.363 92.363 136.627C92.2328 136.173 92.1068 135.724 91.9977 135.279C92.2874 135.132 92.5603 134.955 92.7787 134.724C92.9593 134.535 92.7787 134.124 92.4974 134.241C92.2664 134.338 92.0523 134.456 91.8381 134.586C91.7373 134.111 91.6576 133.637 91.5988 133.158C91.8003 133.12 91.9977 133.07 92.1824 132.99C92.5183 132.851 92.4008 132.352 92.0271 132.436C91.8591 132.473 91.6954 132.515 91.5358 132.557C91.4812 131.907 91.4728 131.247 91.5232 130.571C91.7835 130.609 92.0439 130.617 92.3084 130.571C92.8417 130.479 92.6905 129.668 92.1824 129.656C91.9893 129.652 91.8045 129.664 91.6198 129.681C91.708 129.039 91.8255 128.396 92.0397 127.787C92.1195 127.838 92.1992 127.884 92.2748 127.934C92.6191 128.144 92.8962 127.569 92.4974 127.405L92.237 127.3C92.3588 127.04 92.5057 126.792 92.6821 126.557C92.8753 126.301 93.0936 126.078 93.3288 125.872C93.4127 125.981 93.5009 126.091 93.5891 126.2C93.9796 126.67 94.727 125.931 94.2609 125.528C94.1853 125.461 94.114 125.389 94.0426 125.322C94.4709 125.032 94.9202 124.768 95.3611 124.491C95.5458 124.377 95.4282 124.071 95.2099 124.134C94.6094 124.306 94.0594 124.554 93.5681 124.864C93.4421 124.734 93.3162 124.604 93.1986 124.466C92.9383 124.163 92.4512 124.554 92.6527 124.885C92.7409 125.037 92.8375 125.179 92.9341 125.326C92.3672 125.797 91.8927 126.368 91.5232 127.014C91.4728 126.993 91.4182 126.973 91.3678 126.952C91.1663 126.872 91.0487 127.187 91.2251 127.292L91.3384 127.363C91.0571 127.93 90.8514 128.543 90.7212 129.202C90.6876 129.383 90.654 129.563 90.6246 129.744C90.5364 129.74 90.4483 129.731 90.3601 129.719C90.0326 129.664 89.8898 130.122 90.2215 130.227C90.3265 130.26 90.4357 130.294 90.5448 130.328C90.4525 131.142 90.4231 131.982 90.4651 132.822C90.3055 132.851 90.1459 132.877 89.978 132.889C89.7806 132.906 89.7806 133.179 89.978 133.196C90.1459 133.208 90.3181 133.221 90.4945 133.225C90.549 133.905 90.6414 134.577 90.7926 135.237C90.7002 135.291 90.6036 135.342 90.5112 135.392C90.3055 135.497 90.4483 135.829 90.6666 135.766C90.7464 135.745 90.8262 135.719 90.9059 135.694C91.0739 136.312 91.2838 136.904 91.5484 137.466C91.2754 137.744 91.0025 138.016 90.7254 138.289C90.5532 138.457 90.3853 138.638 90.2047 138.802L89.663 139.293L88.5839 140.271C88.2312 140.607 87.8449 140.901 87.4712 141.212L86.3417 142.136C86.1569 142.295 85.9596 142.434 85.7622 142.577L85.1786 143.009L84.007 143.874L82.7935 144.672L82.1847 145.071C81.9831 145.201 81.7858 145.344 81.5716 145.462C80.7361 145.974 79.8837 146.457 79.0145 146.915C79.0564 146.129 78.8843 145.281 78.8129 144.508C78.7667 143.992 77.9605 143.984 77.9983 144.508C78.0613 145.407 78.0067 146.419 78.2587 147.284C78.2587 147.293 78.2628 147.297 78.267 147.301C76.4951 148.195 74.6685 148.976 72.8 149.632C72.7916 148.313 72.5396 146.952 72.2583 145.714C72.2121 145.508 71.914 145.6 71.9476 145.798C72.1785 147.183 72.1491 148.498 72.1365 149.858C71.767 149.98 71.3975 150.098 71.0238 150.211C67.5135 151.261 63.8688 151.87 60.1947 151.958C60.2661 149.455 60.35 146.919 60.2913 144.42C60.2703 143.513 58.9056 143.513 58.8846 144.42C58.8216 146.919 58.9098 149.451 58.9812 151.949L58.1624 151.928L57.436 151.912C57.1924 151.908 56.9531 151.907 56.7137 151.878L55.2693 151.752L54.5471 151.689C54.3035 151.677 54.0684 151.622 53.829 151.588L52.393 151.37C52.1537 151.328 51.9143 151.307 51.675 151.252L50.9653 151.097L50.6336 151.026C50.5664 149.799 50.3901 148.59 50.4195 147.351C50.4531 145.882 50.6 144.403 50.8814 142.959C50.9317 142.703 50.558 142.594 50.4909 142.85C49.8106 145.319 49.2732 148.179 49.5713 150.786L49.5461 150.782C49.3068 150.736 49.0758 150.665 48.8407 150.602L48.1394 150.404C45.8888 149.77 43.6885 148.943 41.5638 147.948C41.6352 147.876 41.6814 147.771 41.6562 147.645C41.2867 145.638 41.6352 143.74 42.0677 141.775C42.0971 141.649 41.9082 141.594 41.8704 141.72C41.2909 143.656 40.7241 145.646 41.0012 147.679C39.7961 147.095 38.6162 146.457 37.4615 145.768C37.2473 145.655 37.0458 145.512 36.84 145.382L36.2228 144.983L34.9925 144.189L33.8083 143.328L33.2163 142.896C33.0189 142.753 32.8174 142.61 32.6326 142.455L31.4947 141.527C31.1168 141.216 30.7263 140.918 30.3694 140.582L30.1133 140.351C30.3526 139.994 30.5542 139.604 30.7305 139.196C30.7725 139.201 30.8103 139.209 30.8523 139.209C31.0832 139.222 31.1 138.894 30.9027 138.827C30.8943 138.823 30.8901 138.823 30.8817 138.819C31.0118 138.474 31.1168 138.117 31.2092 137.752C31.3603 137.802 31.5073 137.848 31.6585 137.89C31.923 137.966 32.028 137.571 31.7718 137.483C31.6165 137.429 31.4611 137.382 31.3016 137.336C31.4401 136.643 31.5115 135.925 31.5199 135.216C31.6123 135.195 31.7047 135.174 31.7971 135.144C32.1834 135.035 32.0154 134.498 31.6333 134.556C31.5913 134.565 31.5493 134.573 31.5073 134.577C31.4695 133.725 31.331 132.893 31.1042 132.133C31.2974 131.982 31.4779 131.818 31.6375 131.629C31.8264 131.411 31.5451 131.147 31.3268 131.319C31.1966 131.419 31.0664 131.529 30.9405 131.638C30.9405 131.634 30.9363 131.629 30.9363 131.629C30.7389 131.096 30.466 130.592 30.1343 130.13C30.2392 129.996 30.3316 129.853 30.403 129.694C30.5038 129.475 30.2266 129.202 30.0419 129.416C29.9579 129.513 29.8781 129.614 29.7983 129.71C29.538 129.404 29.2483 129.123 28.9333 128.875C29.1559 128.56 29.3574 128.228 29.5212 127.88C29.6262 127.657 29.3197 127.464 29.1853 127.682C28.9879 128.001 28.7864 128.312 28.5722 128.61C28.039 128.249 27.4511 127.98 26.8297 127.821C26.9346 127.539 27.027 127.254 27.09 126.964C27.1278 126.796 26.8843 126.67 26.7961 126.838C26.6491 127.128 26.5315 127.426 26.4308 127.737C25.8849 127.644 25.318 127.64 24.7428 127.737C24.6882 127.745 24.6924 127.821 24.7302 127.846C25.1795 128.161 25.6917 128.346 26.2082 128.518C26.1326 128.816 26.0571 129.114 25.9815 129.408C25.9647 129.479 26.0738 129.534 26.1074 129.458C26.2334 129.177 26.372 128.896 26.5021 128.61C27.0438 128.782 27.5813 128.963 28.06 129.278C27.9256 129.437 27.7828 129.597 27.6317 129.748C27.4385 129.941 27.7366 130.24 27.9298 130.046C28.0935 129.883 28.2531 129.715 28.4085 129.538C28.7192 129.794 28.9879 130.088 29.2231 130.407C29.0887 130.559 28.9543 130.71 28.8032 130.844C28.694 130.945 28.8326 131.109 28.9585 131.046C29.0047 131.021 29.0467 130.995 29.0929 130.974C29.1139 130.991 29.1475 130.995 29.1727 130.97C29.2021 130.941 29.2315 130.907 29.2651 130.874C29.3323 130.832 29.3994 130.79 29.4624 130.743C29.7605 131.226 29.9915 131.76 30.1553 132.314C29.9579 132.482 29.7605 132.65 29.5506 132.805C29.4834 132.856 29.517 132.998 29.6178 132.961C29.8319 132.872 30.0461 132.78 30.2518 132.671C30.4156 133.355 30.4912 134.065 30.487 134.775C30.0713 134.867 29.6598 134.968 29.2525 135.073C29.1601 135.094 29.1517 135.253 29.2525 135.27C29.6472 135.329 30.0587 135.354 30.4702 135.342C30.4576 135.573 30.4408 135.803 30.4114 136.034C30.3694 136.383 30.3022 136.715 30.2224 137.038C29.9495 136.967 29.6724 136.899 29.3994 136.824C29.2399 136.782 29.1811 137.013 29.3322 137.067C29.5968 137.164 29.8655 137.265 30.1343 137.366C30.0335 137.71 29.9201 138.05 29.7899 138.386C29.7018 138.34 29.6136 138.289 29.5254 138.231C29.3658 138.126 29.1727 138.373 29.3196 138.495C29.4246 138.583 29.5338 138.667 29.6514 138.747C29.538 139.033 29.4204 139.322 29.3029 139.616L29.2777 139.591L28.7318 139.1C28.5512 138.936 28.3833 138.756 28.2069 138.583C25.402 135.841 22.8826 132.805 20.6572 129.563C18.4401 126.317 16.5128 122.866 14.892 119.284C13.2712 115.698 11.9191 111.99 10.8736 108.194L10.1471 105.334L10.059 104.977L9.9834 104.616L9.83223 103.894L9.52571 102.449C9.47532 102.21 9.42073 101.966 9.37454 101.727L9.25278 101L9.00923 99.5474C8.82868 98.5816 8.71951 97.6031 8.59354 96.6289C8.10226 92.7278 7.89651 88.7931 7.9259 84.8669C7.98889 80.9406 8.29961 77.0185 8.87067 73.1426C9.01763 72.1726 9.1478 71.2026 9.34935 70.2452L9.62228 68.8007L9.76085 68.0784L9.9246 67.3645L10.2521 65.9326L10.4159 65.2187L10.4957 64.8618L10.5923 64.509L11.3607 61.6788C13.5651 54.179 16.8193 46.9773 21.2156 40.5483C23.4117 37.3359 25.8975 34.325 28.6562 31.6039C28.8284 31.4318 28.9921 31.2554 29.1685 31.0916L29.706 30.6003L30.7767 29.6177C31.1252 29.2818 31.5115 28.9878 31.881 28.6771L32.9979 27.7532C33.1827 27.5937 33.3801 27.4551 33.5732 27.3123L34.1569 26.8798L35.32 26.0148L36.5293 25.2169L37.1339 24.818C37.3355 24.6878 37.5328 24.545 37.7428 24.4316C41.0348 22.4202 44.5661 20.8119 48.2528 19.7243C51.9353 18.6283 55.769 18.0572 59.611 18.0404C63.4531 18.0362 67.2909 18.6073 70.9818 19.6823C74.6769 20.7615 78.2167 22.3614 81.5254 24.3645C81.7396 24.4778 81.9369 24.6206 82.1385 24.7508L82.7474 25.1455L83.9609 25.9392L85.1324 26.7958L85.7202 27.2241C85.9134 27.3669 86.1149 27.5055 86.2997 27.6651L87.4292 28.5805C87.8029 28.8912 88.1934 29.181 88.5461 29.5169L89.6295 30.4911L90.1711 30.9782C90.3517 31.142 90.5196 31.3184 90.6918 31.4905C93.4799 34.2032 96.0161 37.1889 98.2626 40.3887C100.513 43.5843 102.491 46.9857 104.183 50.5298L104.805 51.8652L105.115 52.5328C105.22 52.7554 105.304 52.9864 105.401 53.2131L105.968 54.5737C106.152 55.0272 106.354 55.4765 106.518 55.9426C106.854 56.8664 107.202 57.7861 107.521 58.7183L108.42 61.5318C110.666 69.0862 111.75 76.9849 111.783 84.8837C111.775 92.753 110.696 100.656 108.453 108.215Z" fill="#251C1C"/>
<path d="M118.489 78.1652C118.355 75.9355 118.149 73.7141 117.863 71.4969C117.296 67.0667 116.444 62.6701 115.302 58.3449C114.727 56.1823 114.067 54.0407 113.337 51.9243C112.61 49.8079 111.8 47.7125 110.91 45.6548C109.125 41.5354 107.022 37.5462 104.565 33.7668C102.105 29.9917 99.3039 26.4182 96.1295 23.1848C94.5465 21.5681 92.8753 20.027 91.1201 18.5867C89.3607 17.1505 87.5174 15.811 85.5859 14.5974C81.7312 12.1702 77.5574 10.2218 73.1737 8.89905C68.7942 7.57209 64.2131 6.89182 59.6278 6.87502C55.0425 6.87082 50.4573 7.5469 46.0651 8.84866C41.673 10.1588 37.4866 12.0989 33.6194 14.5176C29.7437 16.9322 26.1998 19.8338 22.9876 23.0462C19.7796 26.267 16.9201 29.8112 14.4049 33.5737C9.37034 41.1029 5.69623 49.4804 3.32381 58.1685C0.951395 66.8651 -0.094146 75.8851 0.00662928 84.8546C0.0654149 89.3436 0.413938 93.8199 1.05218 98.2585C1.3755 100.476 1.7744 102.68 2.24469 104.872C2.71077 107.064 3.25244 109.239 3.86969 111.389C6.35128 119.99 10.0464 128.258 15.0347 135.711C17.5247 139.436 20.3422 142.951 23.4957 146.151C26.6407 149.355 30.1301 152.248 33.9343 154.679C37.7386 157.106 41.8578 159.08 46.1911 160.436C50.5245 161.78 55.0677 162.507 59.6236 162.553C64.1795 162.591 68.748 161.94 73.1233 160.655C77.4986 159.366 81.6724 157.434 85.5313 155.028C89.0542 152.827 92.3042 150.216 95.2561 147.318C95.2687 147.314 95.2771 147.305 95.2897 147.301C95.3569 147.259 95.4156 147.217 95.4786 147.171C95.5416 147.171 95.6046 147.158 95.6718 147.133C95.9489 147.024 96.0287 146.734 96.1757 146.499C96.226 146.436 96.2764 146.369 96.3226 146.298L96.3184 146.293C96.3352 146.264 96.3478 146.239 96.3562 146.209C99.4215 143.056 102.142 139.583 104.54 135.921C107.001 132.146 109.108 128.157 110.893 124.042C111.783 121.984 112.594 119.893 113.324 117.772C114.059 115.656 114.718 113.514 115.289 111.352C116.431 107.026 117.288 102.63 117.855 98.2039C118.14 95.9909 118.35 93.7654 118.485 91.5398C118.628 89.3142 118.699 87.0802 118.703 84.8504C118.703 82.6248 118.632 80.395 118.489 78.1652ZM117.523 98.1703C116.893 102.575 115.953 106.938 114.681 111.192C114.046 113.321 113.333 115.425 112.539 117.499C111.741 119.57 110.868 121.61 109.915 123.609C108.008 127.607 105.783 131.449 103.247 135.056C100.719 138.672 97.8594 142.044 94.7144 145.105C93.1398 146.634 91.4938 148.087 89.768 149.434C88.0506 150.791 86.2535 152.046 84.3891 153.184C80.6646 155.469 76.6714 157.304 72.5019 158.555C68.3281 159.802 63.9864 160.466 59.6278 160.512C57.4486 160.525 55.2651 160.399 53.1026 160.105C50.9401 159.815 48.7945 159.361 46.6866 158.774C42.4708 157.589 38.423 155.792 34.6481 153.533C30.8649 151.278 27.3797 148.519 24.2053 145.441C21.0393 142.35 18.1966 138.928 15.6898 135.27C13.1872 131.609 11.0205 127.716 9.19398 123.672C7.37163 119.628 5.8474 115.442 4.67169 111.163C2.30347 102.605 1.24953 93.7108 1.3503 84.8546C1.41749 80.4244 1.75341 76.0068 2.40005 71.6313C2.72337 69.4435 3.12227 67.2725 3.59255 65.1141C4.05864 62.9557 4.6003 60.8183 5.21755 58.6977C7.69914 50.2404 11.3649 42.1149 16.3238 34.8671C18.8012 31.2473 21.6019 27.8501 24.7176 24.7805C27.829 21.7109 31.2554 18.9604 34.9673 16.6886C38.6791 14.4168 42.6556 12.5902 46.8168 11.364C50.9737 10.1378 55.2987 9.49533 59.6278 9.48273C63.9612 9.47434 68.2861 10.1042 72.4557 11.3136C76.621 12.5314 80.6143 14.3454 84.3388 16.6088C86.2031 17.7384 88.0003 18.9856 89.7218 20.3335C91.4476 21.6773 93.102 23.1176 94.6766 24.6419C97.8216 27.699 100.685 31.0626 103.217 34.6739C105.758 38.281 107.987 42.1149 109.889 46.1126C110.843 48.1114 111.72 50.148 112.518 52.2182C113.312 54.2884 114.025 56.3923 114.66 58.5213C115.932 62.7793 116.872 67.1381 117.506 71.5431C118.136 75.948 118.434 80.3992 118.451 84.8546C118.443 89.31 118.153 93.7654 117.523 98.1703Z" fill="#251C1C"/>
<path d="M73.6396 8.65133C71.0195 7.03043 68.3951 5.42633 65.7372 3.86421C64.4103 3.08316 63.0876 2.2979 61.7649 1.51264C60.669 0.861763 59.4639 -0.0326747 58.1286 0.000919115C57.0243 0.0261145 56.0123 1.03393 55.1809 1.66801C54.1228 2.47846 53.0899 3.31411 52.0821 4.18755C49.9028 6.0772 47.7824 8.09283 45.9684 10.3394C45.8886 10.4402 46.0146 10.5746 46.1112 10.4822C47.9923 8.68072 49.8482 6.86665 51.8554 5.20796C52.8799 4.36391 53.9339 3.54927 55.0088 2.77241C56.0501 2.02075 57.2174 0.878553 58.6031 1.26908C59.8208 1.61342 60.9797 2.66323 62.0211 3.3561C63.1968 4.14135 64.3725 4.92661 65.544 5.71606C67.8912 7.29497 70.2637 8.8235 72.6445 10.3478C73.7152 11.0365 74.7188 9.31901 73.6396 8.65133Z" fill="#251C1C"/>
<path d="M58.5948 2.64167C58.2799 2.32673 57.818 2.20915 57.3897 2.32253C57.3771 2.32673 57.3645 2.32672 57.3519 2.33092C57.2554 2.37291 57.1546 2.41491 57.058 2.4569C56.9152 2.53249 56.7977 2.64167 56.7137 2.77184C56.5541 2.97761 56.4366 3.24635 56.4492 3.5151C56.4576 3.73346 56.5163 3.94342 56.6171 4.13658C56.7557 4.40113 57.0664 4.62789 57.3519 4.70348C57.3645 4.70768 57.3771 4.70767 57.3897 4.71187C57.8054 4.82105 58.2967 4.71607 58.5948 4.39273C58.8174 4.14918 58.956 3.85103 58.956 3.5151C58.9602 3.20436 58.8216 2.86843 58.5948 2.64167Z" fill="#251C1C"/>
<path d="M105.493 75.5318C102.201 78.8408 98.8968 82.1372 95.651 85.4966C95.4074 85.7485 95.7812 86.1223 96.0331 85.8787C99.3881 82.6327 102.688 79.3279 105.997 76.0357C106.321 75.7124 105.817 75.2085 105.493 75.5318Z" fill="#251C1C"/>
<path d="M95.151 58.853C94.1013 59.9154 93.0516 60.9778 92.0018 62.0402C91.6491 62.3971 92.195 62.9472 92.5519 62.5903C93.6142 61.5405 94.6766 60.4907 95.7389 59.4409C96.1168 59.063 95.5247 58.4709 95.151 58.853Z" fill="#251C1C"/>
<path d="M25.5024 94.58C22.8906 97.2507 20.2788 99.9214 17.6713 102.592C17.5033 102.764 17.7637 103.025 17.9358 102.857L25.9475 95.0251C26.2372 94.7395 25.7879 94.2902 25.5024 94.58Z" fill="#251C1C"/>
<path d="M21.4342 70.7034C19.1836 72.9458 16.9623 75.2092 14.7537 77.4936C14.4052 77.8547 14.9426 78.3964 15.3037 78.0437C17.588 75.8349 19.8512 73.6135 22.0935 71.3627C22.5218 70.9344 21.8625 70.2751 21.4342 70.7034Z" fill="#251C1C"/>
<path d="M72.9385 31.8858L69.3778 35.4551C68.9705 35.8666 69.6045 36.5007 70.0118 36.0892C71.2002 34.9008 72.3927 33.7166 73.581 32.5282C74.0051 32.1167 73.3542 31.4658 72.9385 31.8858Z" fill="#251C1C"/>
<path d="M35.8321 30.8271C33.2162 33.2207 30.7514 35.7864 28.2404 38.2891C27.9087 38.6209 28.4252 39.1374 28.7569 38.8056C31.2595 36.2945 33.825 33.8295 36.2184 31.2134C36.4536 30.9531 36.0925 30.5919 35.8321 30.8271Z" fill="#251C1C"/>
<path d="M105.535 99.7412C104.066 101.186 102.659 102.668 101.269 104.188C101.122 104.348 101.349 104.574 101.509 104.428C103.029 103.038 104.511 101.631 105.955 100.161C106.22 99.8882 105.808 99.4724 105.535 99.7412Z" fill="#251C1C"/>
</svg>
