<svg width="13" height="40" viewBox="0 0 13 40" fill="none" xmlns="http://www.w3.org/2000/svg">
<path d="M4.08985 10.7122C3.73087 11.5024 4.51617 12.3077 5.23289 11.9325C5.25907 12.3002 5.29145 12.6679 5.32884 13.0356C5.26403 13.1553 5.19674 13.2737 5.13317 13.3933C4.88387 13.8595 5.12943 14.3756 5.5121 14.6062C5.52207 14.6797 5.5308 14.7545 5.54077 14.828C5.59437 15.2282 5.65169 15.6283 5.71027 16.0272C5.71401 16.0708 5.72026 16.1144 5.73024 16.158C5.82746 16.8074 5.92967 17.4556 6.03811 18.1025C5.99075 18.2122 5.94336 18.3207 5.89724 18.4303C5.66789 18.9726 5.91594 19.445 6.29861 19.6357C6.32229 19.7753 6.34723 19.9137 6.37091 20.0533C6.20388 20.4297 6.03561 20.8074 5.86858 21.1838C5.5607 21.8781 6.15651 22.6285 6.7947 22.4926C6.80343 22.545 6.81343 22.5986 6.82215 22.6509C6.77479 22.7905 6.7274 22.9314 6.68128 23.0722C6.56661 23.4225 6.38586 23.7952 6.51799 24.1666C6.61771 24.4471 6.84831 24.7113 7.14497 24.7874C7.16741 24.9793 7.18985 25.1875 7.21852 25.4206C7.45162 25.1214 7.57876 25.0217 7.62363 24.8921C7.63859 24.8485 7.65353 24.8061 7.66849 24.7625C7.76072 24.7375 7.84924 24.7001 7.93774 24.6391C8.24188 24.4284 8.46999 24.0358 8.33911 23.6531C8.33786 23.6506 8.33786 23.6481 8.33661 23.6456C8.34409 23.6095 8.35406 23.5708 8.36528 23.5347C8.41514 23.3826 8.46624 23.2293 8.51734 23.0772C8.63327 22.7357 8.7517 22.3942 8.8751 22.0539C9.13312 21.3359 9.40485 20.6242 9.68656 19.9149C10.0381 19.0262 10.4045 18.1449 10.7772 17.2649C11.0415 16.7165 11.2808 16.1543 11.4927 15.5784C11.6921 15.035 11.2309 14.5787 10.7423 14.4877C11.0851 13.7149 11.4291 12.9421 11.7719 12.1693C11.995 11.6657 11.747 11.1908 11.378 10.9689C11.5899 10.5688 11.8056 10.1699 12.0225 9.77356C12.3603 9.15531 11.9065 8.58444 11.3793 8.48472C11.3942 8.45854 11.4079 8.4336 11.4229 8.40742C11.646 8.01603 11.5675 7.66701 11.3493 7.43392C11.3319 7.15845 11.3057 6.88424 11.2721 6.61001C11.4628 6.32706 11.6535 6.0466 11.8479 5.76614C12.3403 5.0569 11.5251 4.32894 10.8383 4.50844C10.8271 4.47104 10.8171 4.43241 10.8059 4.39502C10.6688 3.93507 10.4631 3.55738 10.2088 3.26445C10.2574 2.74218 9.67657 2.31962 9.13684 2.39192C8.84641 1.98681 8.28178 1.80607 7.88041 2.29594C7.71463 2.49787 7.55007 2.69981 7.38428 2.90174C7.17363 3.03013 6.96547 3.19091 6.76604 3.38661C6.34223 3.80168 6.05432 4.26913 5.84989 4.7752C5.52706 5.16909 5.20422 5.56297 4.88138 5.95686C4.42143 6.51902 4.72307 7.19211 5.22416 7.38532C5.21419 7.39903 5.20422 7.414 5.193 7.42771C4.9624 7.74805 5.01473 8.08086 5.2042 8.32766C5.19672 8.44732 5.18925 8.56572 5.18302 8.68539C4.77916 9.33729 4.40895 10.0091 4.08985 10.7122Z" fill="#EF4036"/>
<path d="M10.4807 5.81617L10.4807 5.81623C10.5245 7.72171 10.3907 9.63713 10.2098 11.5331C10.1078 12.6071 9.88533 13.6718 9.66471 14.7276C9.61429 14.9689 9.56397 15.2097 9.51521 15.45L9.49813 15.5343C9.2821 16.6002 9.06377 17.6775 8.75014 18.7234L8.65435 18.6946L8.75013 18.7234C8.0092 21.1935 7.22022 23.6499 6.43176 26.1045L6.32894 26.4246L6.32891 26.4247L6.2337 26.3941L10.4807 5.81617ZM10.4807 5.81617C10.4566 4.79274 10.1105 3.74432 9.72946 2.79364C9.328 1.78682 8.59092 0.974893 7.34476 0.907252L7.34465 0.907247M10.4807 5.81617L7.34465 0.907247M7.34465 0.907247C5.9047 0.830653 4.73077 1.40618 3.98728 2.60853L7.34465 0.907247ZM4.0069 14.1853L4.0069 14.1854C4.27795 16.2161 4.6306 18.235 4.98363 20.2561C5.15141 21.2167 5.31928 22.1777 5.47851 23.1407M4.0069 14.1853L5.98939 24.2627L5.8949 24.2299C5.89487 24.23 5.89485 24.2301 5.89482 24.2302C5.87914 24.2753 5.8478 24.32 5.78113 24.3987C5.76587 24.4167 5.74903 24.4362 5.73064 24.4575C5.70789 24.4839 5.68279 24.5129 5.6554 24.5453C5.63886 24.405 5.62391 24.2734 5.6097 24.1483C5.56686 23.7711 5.53082 23.4538 5.47851 23.1407M4.0069 14.1853C3.61713 11.2689 3.39957 8.3377 3.95862 5.4185L3.95862 5.41847M4.0069 14.1853L3.95862 5.41847M5.47851 23.1407L5.37985 23.157L5.47848 23.1406C5.47849 23.1406 5.4785 23.1407 5.47851 23.1407ZM3.95862 5.41847C4.14632 4.43677 4.46348 3.55112 5.19927 2.82986L3.95862 5.41847ZM7.87907 18.2199L7.87906 18.22L5.19931 2.82983C5.93269 2.11165 6.75773 1.87525 7.46333 2.04859C8.16828 2.22178 8.77955 2.81025 9.07333 3.7954L9.07334 3.79543C9.66106 5.76399 9.78611 7.792 9.47792 9.79956L9.47791 9.79961C9.04559 12.6241 8.54873 15.4467 7.87907 18.2199Z" fill="#251C1C" stroke="black" stroke-width="0.2"/>
<path d="M3.1556 34.5112C3.10075 35.0123 3.16929 35.5097 3.36 35.9497C3.32136 36.1716 3.29771 36.3984 3.29147 36.6278C3.2628 37.8094 3.97079 38.8639 5.21353 38.9387C5.46158 38.9537 5.70712 38.93 5.94769 38.8802C6.77286 39.1756 7.68904 39.1531 8.49053 38.647C9.58743 37.9528 10.0561 36.6352 9.97008 35.3564C10.5634 34.1124 10.6681 32.7475 9.3431 31.9784C9.31568 31.9622 9.28951 31.951 9.26209 31.936C9.23093 31.9161 9.20102 31.8961 9.1711 31.8787C8.77846 31.4524 8.21754 31.2156 7.5756 31.3814C7.39237 31.4287 7.21662 31.5085 7.04834 31.6094C5.26214 31.1757 3.36251 32.6253 3.1556 34.5112Z" fill="#EF4036"/>
<path d="M5.46413 39.4733L5.46455 39.4733C6.42101 39.2925 7.35966 38.9802 8.02558 38.184C8.81259 37.2444 9.20468 35.9086 9.20768 34.5817C9.21068 33.2551 8.8247 31.9222 8.0367 30.9892C7.90872 30.8369 7.73715 30.6837 7.55084 30.5649C7.36579 30.4469 7.15811 30.3577 6.95863 30.3442C3.64449 30.1152 1.04857 32.2606 0.906142 35.4092C0.84723 36.7027 1.21591 37.8031 1.85469 38.5482C2.49382 39.2938 3.40122 39.68 4.40377 39.5432C4.53014 39.5356 4.64921 39.5321 4.76578 39.5287C4.82734 39.5269 4.88819 39.5251 4.94907 39.5228C5.12403 39.516 5.29491 39.5046 5.46413 39.4733ZM4.53408 38.5895L4.534 38.5895C2.95223 38.5631 1.79019 37.2566 1.87249 35.5557C1.94935 33.9796 2.69964 32.7742 4.00412 31.9392L4.00412 31.9392C4.92733 31.3482 5.70648 31.2759 6.34965 31.5638C6.99941 31.8545 7.53615 32.5237 7.94431 33.4713C8.02482 33.6584 8.0607 33.8687 8.08425 34.0943C8.09246 34.1729 8.09925 34.2549 8.10614 34.3381C8.11824 34.4843 8.13066 34.6344 8.15168 34.7771C8.13233 35.9462 7.76103 36.907 7.13323 37.5704C6.50476 38.2344 5.61184 38.6083 4.53408 38.5895Z" fill="#251C1C" stroke="black" stroke-width="0.2"/>
</svg>
