<svg width="50" height="37" viewBox="0 0 50 37" fill="none" xmlns="http://www.w3.org/2000/svg">
<path d="M0.749287 7.46119C0.89796 9.24694 1.34232 10.9575 1.7165 12.7098C2.09403 14.4856 2.46487 16.2563 2.7522 18.0487C3.3068 21.4949 3.65928 24.9779 3.80461 28.4658C3.85139 29.5834 4.74175 30.6325 5.92947 30.5907C19.4287 30.1263 32.9396 29.2978 46.377 27.918C47.543 27.7977 48.4784 27.0393 48.5068 25.7881C48.6839 17.8265 47.8152 9.84493 45.7037 2.15902C45.4799 1.3455 44.6113 0.583753 43.7243 0.652243C36.9354 1.17343 30.1348 1.55769 23.3393 1.99034C16.5421 2.423 9.74823 2.95421 2.95436 3.44199C1.73324 3.52885 0.6875 4.42086 0.6875 5.70881C0.6875 6.04625 0.777703 6.38705 0.934729 6.69944C0.797749 6.9049 0.724229 7.15883 0.749287 7.46119ZM23.3393 6.42382C29.6119 5.89929 35.8813 5.33462 42.159 4.87356C43.6825 11.0727 44.4459 17.429 44.3139 23.8119C32.1778 24.7123 20.0434 25.5659 7.89061 26.2325C7.63503 23.2389 7.22578 20.2588 6.6194 17.3137C6.25523 15.543 5.84261 13.7789 5.34981 12.0399C4.95224 10.6367 4.52127 9.22683 3.90319 7.90548C10.383 7.41937 16.8661 6.96673 23.3393 6.42382Z" fill="#39B100"/>
<path d="M15.1134 3.59079C13.3711 3.76619 11.6237 3.87477 9.8764 4.00507C9.12134 4.06186 8.35624 4.04515 7.61121 4.16208C5.5231 4.49117 3.44503 4.90878 1.32017 4.48615C0.757217 4.37255 0.514992 4.7701 0.229339 5.12759C-0.0295868 5.45166 0.0973832 5.71898 0.242715 6.04472C0.473243 6.56592 0.697068 7.10547 0.80732 7.66007C1.26002 9.94195 1.68264 12.2305 2.09024 14.5207C2.44104 16.4852 2.77182 18.4531 3.07585 20.4259C3.27464 21.7105 3.3732 23.0119 3.58034 24.2948C3.9111 26.3512 4.2953 28.3992 4.65947 30.4505C4.77473 31.0987 5.09045 31.4244 5.73358 31.4762C6.0894 31.5046 6.47861 31.513 6.80769 31.401C7.94864 31.0135 9.12302 30.965 10.3057 30.9333C12.5141 30.8748 14.7241 30.8313 16.9291 30.7144C19.5602 30.5724 22.1879 30.3586 24.8156 30.1815C25.6091 30.1281 25.8162 30.2366 25.9649 31.0001C26.1419 31.9121 26.2572 32.8393 26.3374 33.7664C26.3908 34.3778 26.2371 34.5132 25.6174 34.5365C24.1641 34.59 22.7107 34.6534 21.2574 34.6568C20.6744 34.6568 20.2801 34.8556 19.9912 35.3133C20.4238 36.1318 20.5642 36.1719 21.3393 36.08C22.7792 35.9096 24.2242 35.7927 25.6658 35.6423C26.4476 35.5605 27.2344 35.5004 28.0028 35.3467C29.5196 35.046 31.018 34.7086 32.5899 34.9057C33.0844 34.9675 33.6106 34.8239 34.1168 34.742C34.6764 34.6518 34.9537 34.3461 34.8919 33.9401C34.8351 33.5476 34.5611 33.3522 33.9982 33.4157C32.7086 33.5593 31.424 33.738 30.1377 33.9084C29.5096 33.9903 28.8849 34.0822 28.073 34.1958C27.8325 33.0348 27.5635 31.984 27.4114 30.9165C27.2878 30.0462 27.4833 29.8742 28.377 29.7806C31.8734 29.4115 35.3831 29.2511 38.8928 29.0757C39.6478 29.039 40.4012 28.9705 41.1562 28.9237C43.4832 28.785 45.8102 28.6514 48.1372 28.5094C48.316 28.4977 48.498 28.4593 48.6701 28.4092C49.3917 28.197 49.5304 27.913 49.3533 27.1997C49.238 26.7353 49.1512 26.2559 49.1178 25.7798C49.0276 24.4818 49.0209 23.1772 48.8939 21.8842C48.6684 19.6024 48.3661 17.3288 48.1205 15.0503C47.9919 13.8475 47.8716 12.6398 47.8248 11.432C47.7797 10.2961 47.9668 9.14681 47.5392 8.04262C47.4957 7.93404 47.5175 7.80208 47.4974 7.68348C47.3604 6.87998 47.2267 6.0764 47.0814 5.27457C46.8258 3.84965 46.5469 2.42813 46.308 0.998192C46.176 0.203041 45.5847 -0.172822 44.7878 0.0760804C44.3853 0.201367 43.981 0.358376 43.5684 0.393456C42.1552 0.518743 40.7369 0.592212 39.3203 0.694111C38.2045 0.772624 37.0853 0.832814 35.9744 0.95643C34.324 1.13851 32.6802 1.37401 31.0331 1.5778C30.2246 1.67803 29.4127 1.7465 28.6042 1.85007C26.5645 2.11568 24.5282 2.40306 22.4869 2.65865C21.1655 2.82569 19.8375 2.93091 18.5161 3.09796C17.3785 3.24163 16.2527 3.4772 15.1134 3.59079ZM27.5735 2.99103C28.8648 2.82398 30.1561 2.65028 31.4524 2.52333C34.04 2.26941 36.6309 2.04723 39.2202 1.81003C40.3945 1.70311 41.5689 1.58786 42.7432 1.48262C43.0456 1.45589 43.3479 1.44583 43.6519 1.44583C44.1564 1.44416 44.4838 1.68136 44.711 2.1491C45.3341 3.42034 45.6264 4.77845 45.8069 6.16161C46.1242 8.58883 46.4099 11.0194 46.6738 13.4516C46.7774 14.4138 46.7607 15.3877 46.8426 16.3516C46.9111 17.1668 47.0464 17.9737 47.1483 18.7855C47.469 21.3029 47.8866 23.8136 47.748 26.3678C47.7413 26.5165 47.7062 26.6635 47.6795 26.8406C46.729 27.2532 45.8219 27.3835 44.8747 27.4553C42.6429 27.6224 40.4196 27.8897 38.1911 28.1085C37.8303 28.1436 37.4645 28.1352 37.102 28.1602C34.8953 28.3122 32.6902 28.4626 30.4835 28.623C29.2774 28.7098 28.0714 28.8167 26.8653 28.9119C26.745 28.922 26.6097 28.8869 26.5044 28.9287C25.1998 29.4499 23.8149 29.2946 22.4652 29.3965C19.4449 29.622 16.423 29.8124 13.3978 29.9727C12.5575 30.0162 11.7089 29.8792 10.862 29.8692C10.2005 29.8625 9.52894 29.8641 8.87912 29.9694C8.03218 30.1064 7.20528 30.1264 6.36169 29.9644C6.0042 29.8959 5.82046 29.7222 5.7503 29.3981C5.62168 28.8051 5.46463 28.2154 5.3928 27.6141C5.21238 26.144 5.10549 24.6623 4.91339 23.1922C4.68787 21.4833 4.41556 19.7811 4.1416 18.0789C3.95952 16.9463 3.74906 15.8187 3.53356 14.6911C3.44336 14.2184 3.3047 13.754 3.19445 13.283C2.90045 12.0184 2.60143 10.7538 2.32246 9.48594C2.12367 8.57219 1.9466 7.65175 1.77621 6.73298C1.65928 6.10488 1.8163 5.89771 2.44608 5.82254C4.7881 5.54022 7.12842 5.2362 9.47545 4.99398C10.735 4.86535 12.0079 4.88204 13.2692 4.76845C14.7425 4.63314 16.2092 4.42603 17.6792 4.2523C18.578 4.14538 19.4784 4.05345 20.3754 3.93818C22.7742 3.62747 25.173 3.30174 27.5735 2.99103Z" fill="#251C1C"/>
<path d="M11.9614 6.45912C9.49411 6.63285 7.02512 6.76482 4.55615 6.9185C4.4058 6.92685 4.25547 6.96859 4.11348 7.01703C3.52046 7.21582 3.34838 7.61504 3.59562 8.20473C3.75932 8.59562 4.01824 8.96646 4.08673 9.37072C4.39243 11.1882 4.63636 13.0158 4.91867 14.8366C5.11746 16.1195 5.45821 17.3824 5.43817 18.6937C5.43817 18.7505 5.4883 18.8074 5.49498 18.8658C5.57015 19.4338 5.66203 20.0017 5.70546 20.573C5.75558 21.2379 5.67537 21.9228 5.80901 22.5676C6.05624 23.7586 6.03285 24.9597 6.098 26.1591C6.13308 26.7855 6.19156 27.4154 6.31684 28.0285C6.39202 28.3943 6.69269 28.7066 7.09862 28.6732C8.06082 28.5947 9.01968 28.456 9.97686 28.3307C10.2742 28.2923 10.5649 28.1955 10.8622 28.1621C12.2755 27.9984 13.692 27.8581 15.1052 27.691C16.729 27.4972 18.3444 27.2215 19.9714 27.0913C22.7495 26.8657 25.5341 26.7171 28.3155 26.555C29.2827 26.4982 30.2616 26.5751 31.2187 26.4532C34.7969 26.0005 38.3902 25.7649 41.9884 25.5645C43.283 25.4943 44.5726 25.2938 45.8589 25.1117C46.5672 25.0132 46.776 24.7059 46.6674 23.9809C46.5288 23.0521 46.3534 22.1282 46.1847 21.2061C45.9575 19.9583 45.7085 18.7138 45.4947 17.4643C45.2124 15.7954 44.9285 14.125 44.6946 12.4478C44.5226 11.2217 44.4073 9.98547 44.307 8.75098C44.2001 7.42628 44.14 6.09824 44.0649 4.85707C44.0849 4.64825 44.0983 4.52799 44.1066 4.40771C44.2286 2.85917 43.9679 2.58695 42.4177 2.64041C42.2673 2.64542 42.1087 2.65036 41.9667 2.69547C40.6637 3.10975 39.2872 3.05462 37.9525 3.31855C36.0064 3.70277 34.0002 3.7796 32.0173 3.98006C30.9666 4.08697 29.9108 4.16884 28.8601 4.28243C27.8394 4.39268 26.822 4.53967 25.7997 4.64825C24.4466 4.79359 23.0869 4.88387 21.7371 5.05927C19.1612 5.39337 16.592 5.7675 14.0194 6.13334C13.3329 6.23023 12.653 6.41067 11.9614 6.45912ZM24.1827 6.00471C25.3537 5.87107 26.513 5.62555 27.6841 5.50193C29.9726 5.25971 32.2678 5.07764 34.5597 4.85046C36.4257 4.66671 38.2866 4.41947 40.1558 4.26579C40.9293 4.20231 41.7161 4.31085 42.5948 4.34426C42.7451 5.30646 42.9155 6.16677 43.0057 7.03375C43.1895 8.77941 43.2763 10.5351 43.5002 12.2741C43.6873 13.7391 44.0515 15.179 44.2636 16.6407C44.5593 18.6753 44.7932 20.7167 45.0337 22.758C45.0721 23.0754 45.007 23.4062 44.987 23.7737C43.6322 23.9708 42.3542 24.1813 41.0696 24.3367C38.5188 24.6457 35.968 24.9731 33.4088 25.1969C31.5128 25.3607 29.6017 25.364 27.6991 25.4576C26.4896 25.5177 25.2802 25.5912 24.0758 25.7014C21.0372 25.9787 17.9986 26.2661 14.9633 26.5751C13.0389 26.7722 11.1212 27.0228 9.19676 27.2266C8.74907 27.275 8.29304 27.235 7.7919 27.235C7.74345 26.9844 7.68832 26.7522 7.65658 26.5183C7.43607 24.9314 7.2072 23.346 7.01175 21.7557C6.93491 21.1276 6.97667 20.4828 6.88981 19.8564C6.63422 18.0355 6.33522 16.2214 6.06627 14.404C5.98108 13.8343 5.94935 13.258 5.87084 12.6884C5.70379 11.4923 5.50832 10.3012 5.34795 9.10514C5.23603 8.26823 5.30619 8.16301 6.14478 8.03939C7.10364 7.89573 8.06919 7.80885 9.03306 7.69526C11.7359 7.37787 14.4354 7.04875 17.1399 6.7464C19.487 6.4858 21.8374 6.27199 24.1827 6.00471Z" fill="#251C1C"/>
<path d="M20.7763 15.665C20.9333 16.5504 20.9918 17.4541 21.0887 18.2994C21.0686 18.4998 21.0386 18.6502 21.0436 18.8005C21.0586 19.1847 21.6232 19.9615 21.9924 20.0333C22.4233 20.1168 22.836 20.0417 23.0999 19.6224C23.8099 18.4982 24.8657 17.8366 26.0717 17.3572C26.4894 17.1902 26.9069 16.9864 27.2644 16.7191C27.8675 16.2681 27.7388 15.6182 27.0355 15.3276C26.6196 15.1572 26.182 15.0118 25.8078 14.7713C24.9442 14.22 24.0671 13.6722 23.2836 13.0157C22.7357 12.5563 22.0007 12.2522 21.807 11.3986C21.7067 10.9576 21.0586 10.7939 20.656 10.9626C20.2066 11.1514 19.931 11.6692 20.0329 12.1436C20.2835 13.318 20.5675 14.484 20.7763 15.665ZM25.5354 16.2162C24.473 16.7942 23.6211 17.4591 22.4852 17.7815C21.954 16.4602 22.0792 15.0987 21.832 13.769C23.1667 14.3854 24.2993 15.2106 25.5354 16.2162Z" fill="#251C1C"/>
</svg>
