<svg width="120" height="22" viewBox="0 0 120 22" fill="none" xmlns="http://www.w3.org/2000/svg">
<path d="M10.3986 5.46558C10.1222 4.89788 9.34794 4.59233 8.7385 4.92961C8.37882 5.12831 8.01248 5.33869 7.64615 5.55742C7.30646 5.6025 6.96842 5.66426 6.63372 5.74775C4.09603 6.07501 1.82139 8.10034 0.925533 10.5748C0.354386 12.1527 0.489296 13.8742 1.16701 15.3268C1.22696 16.8763 1.98792 18.0852 3.14853 18.9C4.30081 19.7081 5.51474 20.2407 6.7969 20.3776C7.93587 20.76 9.17477 20.8619 10.4103 20.5997C10.9149 20.4929 11.2545 19.9652 11.2661 19.4727C11.3377 16.145 11.4111 12.8156 11.4827 9.48786C11.5326 8.8684 11.5742 8.25063 11.5775 7.63117C11.5792 7.45252 11.5626 7.28387 11.5343 7.12191C11.5376 6.94659 11.5426 6.76962 11.5459 6.5943C11.5659 5.83792 10.9847 5.46224 10.3986 5.46558Z" fill="#39B100"/>
<path d="M114.073 11.9241C114.084 12.1211 114.094 12.3181 114.106 12.5185C114.281 12.3966 114.452 12.2764 114.622 12.1561C115.108 12.2513 115.668 12.1177 116.121 11.7487C116.93 11.0909 118.292 9.90538 118.437 8.81506C118.444 8.76998 118.444 8.72827 118.445 8.68486C118.492 8.61807 118.54 8.54958 118.585 8.48112C117.946 7.04184 116.85 6.41071 115.636 5.86973C115.601 5.85303 115.566 5.838 115.531 5.82297C115.185 5.67103 114.83 5.5241 114.474 5.36548C114.414 5.56083 114.362 5.75452 114.316 5.9482C114.206 6.03336 114.109 6.13854 114.039 6.27546C113.876 6.59103 113.799 6.95337 113.836 7.29566C113.778 7.87839 113.718 8.46278 113.66 9.0455C113.601 9.61153 113.456 10.231 113.496 10.797C113.53 11.3213 113.754 11.6953 114.073 11.9241Z" fill="#39B100"/>
<path d="M0.0397157 14.9679C0.334448 18.8065 3.50322 21.0923 6.80854 21.3812C9.12977 21.5832 11.506 21.1591 13.8555 21.0139C14.8496 20.9521 15.8637 20.7283 16.8295 20.8586C18.2798 21.0539 19.6786 21.084 21.1506 20.9704C25.4616 20.6382 29.7977 20.6298 34.1121 20.326C41.6919 19.7933 49.255 19.1171 56.8697 19.0853C62.1849 19.0636 67.5001 18.6179 72.8119 18.324C77.5193 18.0635 82.2234 17.7646 86.9274 17.4507C88.0864 17.3739 89.2369 17.1736 90.3909 17.035C91.1052 16.9498 91.818 16.8379 92.534 16.7979C94.4722 16.6893 96.4137 16.6109 98.3536 16.524C100.009 16.4489 101.636 16.4923 103.304 16.7043C105.116 16.9348 106.991 17.227 108.887 16.5574C112.644 15.2317 115.623 12.7772 118.537 10.2243C120.948 8.11378 120.092 7.60786 118.042 5.88974C118.001 5.85468 117.943 5.84129 117.893 5.81457C116.169 4.92963 114.429 4.07642 112.726 3.14974C111.329 2.39003 109.975 1.54352 108.353 0.588448C106.455 0.588448 104.35 0.529978 102.248 0.598435C96.8167 0.777093 91.3867 1.0426 85.9533 1.21291C80.9628 1.3682 75.9707 1.40324 70.9802 1.56687C62.7744 1.83235 54.5718 2.17465 46.3659 2.45349C39.8219 2.67723 33.3128 3.31171 26.797 3.90779C23.953 4.16659 21.0739 4.04806 18.2099 4.09147C18.05 4.09481 17.8901 3.99795 17.7253 3.98292C17.1258 3.92782 16.5214 3.8293 15.9236 3.85101C13.4492 3.94618 10.9748 4.05473 8.5037 4.20667C6.72365 4.3152 4.98689 4.57067 3.58483 5.88139C0.9439 8.3492 -0.238365 11.3546 0.0397157 14.9679ZM114.472 5.36711C116.119 6.0951 117.744 6.59265 118.584 8.48108C117.538 10.0873 115.989 11.201 114.106 12.5184C113.968 9.90202 113.756 7.69634 114.472 5.36711ZM108.556 2.43176C110.09 3.15474 111.463 3.80092 113.004 4.52724C112.87 7.24384 112.749 9.94878 112.591 12.6504C112.572 12.9542 112.427 13.3533 112.203 13.5236C111.007 14.4252 109.753 15.2267 107.837 15.018C107.693 10.7986 107.803 6.72957 108.556 2.43176ZM21.8765 5.14837C24.634 4.87454 27.3949 4.62575 30.1573 4.40202C35.2411 3.98793 40.3197 3.49035 45.4118 3.22654C50.7836 2.94603 56.1687 2.90932 61.5471 2.74401C64.7059 2.64717 67.863 2.47017 71.0235 2.39838C76.9581 2.26647 82.8944 2.22139 88.829 2.06778C92.2076 1.98095 95.5828 1.7138 98.9631 1.60193C101.179 1.52679 103.399 1.56686 105.617 1.60025C105.978 1.60526 106.386 1.77559 106.683 1.99098C107.33 2.46016 107.276 3.42356 106.558 3.76752C106.075 3.99961 105.502 4.12817 104.964 4.14153C97.4828 4.34691 90.0012 4.52392 82.518 4.70758C82.5163 4.6408 82.5131 4.57234 82.5097 4.50388C75.9224 4.90795 69.3067 5.06322 62.7543 5.78787C56.52 6.47579 50.2724 6.87651 44.0314 7.40914C38.7279 7.85996 33.4277 8.34584 28.1209 8.73655C26.0761 8.88682 24.0162 8.85677 21.9648 8.82672C20.8391 8.81002 20.4944 8.41763 20.4561 7.48427C20.3895 5.77951 20.671 5.26858 21.8765 5.14837ZM23.635 9.66825C28.1159 9.4178 32.5851 8.98035 37.0627 8.63973C42.3679 8.23567 47.6781 7.86497 52.9833 7.44754C55.7458 7.23048 58.5032 6.94162 61.2624 6.69117C64.2413 6.419 67.2153 6.04333 70.2009 5.90976C75.7409 5.6593 81.2875 5.54078 86.8308 5.38883C89.933 5.30368 93.0368 5.22018 96.139 5.21016C98.6267 5.20182 101.116 5.3571 103.604 5.34208C105.166 5.33373 105.164 5.25358 106.769 5.9632C106.769 7.19544 106.769 8.34919 106.769 9.5831C106.236 9.73838 105.777 9.95043 105.302 9.99885C101.447 10.3962 97.5894 10.7402 93.7062 10.6216C92.9319 10.5966 92.1543 10.7101 91.3784 10.7085C89.3302 10.7051 87.2804 10.65 85.2306 10.66C83.9034 10.6684 82.578 10.7936 81.2509 10.8003C72.7036 10.8421 64.1881 11.4782 55.6642 12.0292C50.5072 12.3631 45.4102 13.0878 40.2898 13.6856C34.0688 14.4119 27.8478 15.235 21.5585 15.1499C20.0432 15.1282 19.9616 15.0898 19.9316 13.5687C19.8584 9.78682 19.8634 9.87863 23.635 9.66825ZM19.5104 18.5577C19.587 16.9031 20.0066 16.3938 21.6484 16.1167C22.5759 15.9597 23.5233 15.9196 24.4625 15.8311C28.4305 15.4521 32.402 15.0814 36.37 14.6941C42.7093 14.0779 49.0502 13.4869 55.3844 12.8173C60.633 12.263 65.8898 12.0459 71.1667 12.0259C76.705 12.0059 82.2433 11.8439 87.7816 11.742C92.549 11.6535 97.3162 11.54 102.084 11.4882C103.499 11.4732 104.973 11.2545 106.388 12.1377C106.388 12.819 106.45 13.5403 106.375 14.2466C106.236 15.5422 105.439 15.938 104.287 15.3853C103.97 15.2334 103.594 15.0864 103.258 15.1115C100.44 15.3152 97.6277 15.5673 94.8102 15.791C91.0536 16.0916 87.2954 16.4038 83.5355 16.6643C74.9583 17.257 66.3877 18.0451 57.8022 18.3173C52.0941 18.4993 46.3843 18.6045 40.6861 18.9818C35.8721 19.3024 31.0615 19.6714 26.2476 19.982C24.7006 20.0822 23.1454 20.0972 21.5951 20.0772C20.9474 20.0672 20.3013 19.8618 19.5736 19.7315C19.5487 19.3091 19.4937 18.9317 19.5104 18.5577ZM15.6821 18.1169C15.8953 15.1248 16.1867 12.1394 16.4531 9.1523C16.5114 8.48776 16.6346 7.82824 16.6612 7.1637C16.7445 5.06656 16.7829 5.02148 19.2606 5.24355C19.3205 6.39063 19.4637 7.4826 19.4154 8.56456C19.3338 10.3912 19.159 12.2145 18.9692 14.0328C18.8143 15.5222 18.5895 17.0033 18.378 18.4859C18.2681 19.254 17.8535 19.6865 17.0243 19.613C16.0402 19.5245 15.6089 19.1488 15.6821 18.1169ZM12.2636 11.1326C12.3902 9.64154 12.4784 8.14883 12.6249 6.66279C12.7498 5.39549 13.0479 5.1133 14.102 5.10829C15.0028 5.10329 15.3225 5.39382 15.5123 6.57931C15.6089 7.17372 15.6272 7.79817 15.5706 8.39927C15.2575 11.6502 14.9162 14.8978 14.5665 18.1453C14.5266 18.5227 14.4183 18.9117 14.2585 19.2557C13.9371 19.9502 13.3077 19.9135 12.6866 19.8083C12.1038 19.7082 11.849 19.3441 11.859 18.7564C11.8723 17.98 11.8623 17.2053 11.8623 16.4289C11.8406 16.4255 11.8207 16.4222 11.799 16.4188C11.9539 14.6573 12.1154 12.8941 12.2636 11.1326ZM1.90968 9.66324C3.3567 6.26373 6.79026 5.2853 9.7176 5.49902C10.9049 5.58584 11.5909 6.4424 11.5809 7.63123C11.5742 8.62804 11.476 9.62483 11.3894 10.62C11.1963 12.834 10.9948 15.0463 10.7799 17.257C10.6984 18.0785 10.5668 18.895 10.4619 19.6814C7.77266 20.9838 5.34825 20.4412 3.15025 18.9C1.963 18.0668 1.192 16.8212 1.16369 15.22C1.12873 13.3232 1.13705 11.4749 1.90968 9.66324Z" fill="#251C1C"/>
</svg>
