<svg width="125" height="34" viewBox="0 0 125 34" fill="none" xmlns="http://www.w3.org/2000/svg">
<path d="M119.554 28.0606C120.211 27.2898 120.729 26.3751 120.997 25.387C121.137 24.8701 121.088 24.3313 120.861 23.9364C120.855 23.8615 120.85 23.7866 120.842 23.7088C120.791 23.7088 120.744 23.7088 120.695 23.7088C120.64 23.6486 120.578 23.5943 120.512 23.5473C120.434 23.443 120.33 23.3491 120.194 23.2713C118.894 22.5298 117.771 23.4973 116.99 24.7086C116.46 25.246 116.104 25.9537 116.031 26.7128C116.021 26.7421 116.011 26.773 116.001 26.8023C115.664 27.8462 115.864 29.1001 117.082 29.3438C118.065 29.5362 118.955 28.7639 119.554 28.0606Z" fill="#39B100"/>
<path d="M121.768 5.24598C121.728 5.24892 121.687 5.2533 121.647 5.2577C121.242 4.93469 120.604 4.90093 120.198 5.41775C120.149 5.42362 120.102 5.42951 120.053 5.43539C119.632 5.1021 118.939 5.0595 118.517 5.60128C118.495 5.60275 118.474 5.60422 118.452 5.60716C118.105 5.11236 117.376 4.87159 116.921 5.43392C116.861 5.5088 116.799 5.58221 116.737 5.65709C116.702 5.65562 116.668 5.65562 116.633 5.65562C116.28 5.12559 115.364 4.9435 114.863 5.6277C114.846 5.64972 114.83 5.67321 114.814 5.6967C114.331 5.73047 113.852 5.77748 113.374 5.83621C113.28 5.83768 113.188 5.84795 113.097 5.87145C112.71 5.92137 112.322 5.97714 111.936 6.03734C111.478 5.7158 110.775 5.69966 110.474 6.2708C110.234 6.31044 109.993 6.34862 109.752 6.38532C109.593 6.30751 109.418 6.27078 109.25 6.28693C108.904 5.86114 108.273 5.68204 107.795 6.19886C106.643 7.44391 106.211 9.04429 106.489 10.721C106.506 10.8252 106.545 10.9207 106.597 11.0058C106.572 11.1967 106.546 11.389 106.52 11.5858C106.739 11.6195 106.949 11.6592 107.153 11.7003C107.328 12.0439 107.632 12.3081 108.083 12.3904C108.629 12.4917 109.063 12.2861 109.424 11.9528C109.741 12.3669 110.434 12.4109 110.887 12.0908C110.949 12.1745 111.023 12.2538 111.116 12.3287C111.508 12.6444 112.168 12.7985 112.542 12.3287C112.565 12.2993 112.587 12.2714 112.61 12.2421C112.954 12.4315 113.392 12.4183 113.747 12.0571C113.79 12.013 113.833 11.9661 113.876 11.922C113.983 12.1584 114.176 12.3419 114.48 12.386C115.433 12.5254 116.125 12.0042 116.724 11.3391C116.876 11.3274 117.028 11.3156 117.18 11.3039C117.247 11.298 117.314 11.2892 117.381 11.2789C117.62 11.2892 117.853 11.229 118.079 11.1189C118.163 11.0969 118.246 11.0763 118.33 11.0557C118.641 11.527 119.329 11.6636 119.872 11.2319C120.107 11.0455 120.33 10.8443 120.547 10.6373C120.897 10.6006 121.252 10.5815 121.614 10.5859C121.612 10.6916 121.612 10.7974 121.614 10.9031C121.633 12.2245 123.649 12.2289 123.63 10.9031C123.619 10.1043 123.678 9.32178 123.802 8.54949C124.274 7.8051 124.417 6.81111 124.286 5.97568C124.183 5.32673 123.599 5.14318 123.09 5.29294C123.09 5.27532 123.09 5.25625 123.09 5.23863C122.528 5.24157 122.145 5.21368 121.768 5.24598Z" fill="#39B100"/>
<path d="M104.737 17.7287C105.126 16.0003 105.335 14.2267 105.542 12.4577C105.58 12.1379 105.618 11.8182 105.656 11.499C105.825 10.1105 105.955 8.71712 106.086 7.31211C106.145 6.67877 106.204 6.04307 106.267 5.40439L104.737 17.7287ZM104.737 17.7287C104.568 18.4803 104.487 19.2509 104.406 20.0234C104.274 21.2775 104.142 22.5367 103.631 23.7279L104.737 17.7287ZM123.836 3.55581L123.87 3.59124C124.399 4.14721 124.57 4.80972 124.517 5.54367C124.48 6.056 124.449 6.57014 124.418 7.08497C124.349 8.22943 124.28 9.37733 124.149 10.5165C124.149 10.5165 124.149 10.5165 124.149 10.5165L124.05 10.505C123.58 14.5823 123.073 18.6552 122.534 22.7236C122.275 24.6808 121.545 26.4984 120.63 28.2251L123.836 3.55581ZM123.836 3.55581L123.788 3.56065M123.836 3.55581L123.788 3.56065M123.788 3.56065C121.241 3.8139 118.702 4.0666 116.169 4.31875C112.857 4.6484 109.554 4.97711 106.257 5.30488L106.175 5.31299M123.788 3.56065L106.175 5.31299M106.175 5.31299L106.167 5.39456M106.175 5.31299L106.167 5.39456M106.167 5.39456C106.104 6.03446 106.045 6.67082 105.986 7.30449C105.855 8.70878 105.725 10.0999 105.557 11.4869L105.557 11.487M106.167 5.39456L105.557 11.487M105.557 11.487C105.518 11.8069 105.481 12.127 105.443 12.4471C105.235 14.2162 105.027 15.9839 104.64 17.7068L104.64 17.7068M105.557 11.487L104.64 17.7068M104.64 17.7068C104.469 18.4646 104.387 19.2433 104.306 20.017C104.281 20.2569 104.256 20.4962 104.228 20.7344C104.113 21.7217 103.953 22.6942 103.567 23.6231C103.389 23.6096 103.221 23.5907 103.058 23.5723C102.953 23.5605 102.85 23.5488 102.747 23.539C102.467 23.5121 102.197 23.4994 101.931 23.5395L101.931 23.5395M104.64 17.7068L101.931 23.5395M101.931 23.5395C101.882 23.5468 101.832 23.5542 101.782 23.5616C101.504 23.6026 101.204 23.6468 100.922 23.7183C100.588 23.8028 100.266 23.9281 100.022 24.1415L100.022 24.1415M101.931 23.5395L100.022 24.1415M100.022 24.1415C98.568 25.4128 97.432 27.4081 98.0922 29.564L98.0922 29.5641M100.022 24.1415L98.0922 29.5641M98.0922 29.5641C98.4078 30.5914 99.0958 31.2146 100.047 31.4552C100.93 31.6793 101.71 31.3548 102.325 30.627C103.402 29.3529 104.022 27.8271 104.361 26.2627L104.361 26.2627M98.0922 29.5641L104.361 26.2627M104.361 26.2627C104.684 24.7728 104.875 23.2505 105.067 21.7328C105.156 21.0236 105.245 20.3155 105.347 19.6122C105.541 18.2816 105.742 16.9518 105.947 15.5925C106.048 14.9176 106.151 14.2354 106.255 13.5422C107.407 13.5484 108.525 13.4022 109.632 13.2574C109.666 13.2529 109.7 13.2484 109.735 13.2439C110.875 13.0949 112.004 12.9525 113.16 12.9795C113.284 15.9607 112.751 18.6573 112.118 21.4516C111.982 21.4688 111.862 21.4804 111.753 21.491C111.697 21.4964 111.644 21.5015 111.592 21.5071C111.425 21.525 111.276 21.5468 111.132 21.5952C110.862 21.6855 110.586 21.767 110.307 21.8482C110.274 21.8577 110.241 21.8673 110.208 21.8768C109.962 21.9483 109.714 22.0203 109.47 22.0979C108.915 22.2739 108.371 22.481 107.883 22.7856C106.079 23.9098 105.572 26.3482 106.475 28.3542C106.847 29.1824 107.423 29.6843 108.084 29.8102C108.744 29.9362 109.462 29.681 110.106 29.0528C111.222 27.9658 112.038 26.6736 112.392 25.1483M104.361 26.2627L113.738 18.5507M113.738 18.5507L113.738 18.5508C113.687 18.8189 113.635 19.0872 113.583 19.3555C113.212 21.2903 112.839 23.2289 112.392 25.1483M113.738 18.5507C113.989 17.2461 114.221 15.9383 114.457 14.6115C114.561 14.0279 114.665 13.4407 114.772 12.8484C115.821 12.8445 116.841 12.7064 117.846 12.5704C118.151 12.529 118.455 12.4879 118.758 12.4508C120.062 12.2909 121.354 12.2038 122.692 12.4804C122.538 14.774 122.242 16.9974 121.945 19.2257C121.817 20.1852 121.69 21.1457 121.573 22.113C121.413 22.1143 121.267 22.1187 121.134 22.1227C121.062 22.1248 120.994 22.1269 120.929 22.1283C120.718 22.1329 120.537 22.1309 120.362 22.1063L120.362 22.1063M113.738 18.5507L120.362 22.1063M112.392 25.1483L112.295 25.1256L112.392 25.1482C112.392 25.1483 112.392 25.1483 112.392 25.1483ZM120.362 22.1063C116.919 21.6298 114.498 24.8489 114.876 27.866L114.876 27.8661M120.362 22.1063L114.876 27.8661M114.876 27.8661C114.983 28.7155 115.383 29.3972 116.201 29.7696L114.876 27.8661ZM103.113 26.7023L103.113 26.7023C103.21 26.4594 103.289 26.214 103.291 25.9786C103.292 25.749 103.219 25.5261 103.001 25.3221L103.001 25.322C102.747 25.0843 102.487 24.91 102.206 24.8223C101.928 24.7351 101.623 24.7312 101.272 24.8449C100.052 25.2415 99.0829 26.5374 99.0194 28.0848C99.0194 28.085 99.0194 28.0851 99.0194 28.0853L103.113 26.7023ZM103.113 26.7023C102.757 27.5987 102.395 28.4962 101.916 29.3138M103.113 26.7023L101.916 29.3138M116.115 27.1071L116.115 27.1072C116.141 27.8636 116.542 28.4001 117.174 28.4424L116.115 27.1071ZM116.115 27.1071C116.054 25.405 117.504 23.8557 119.21 23.8088M116.115 27.1071L119.21 23.8088M101.916 29.3138C101.733 29.6256 101.495 29.8903 101.213 30.0399M101.916 29.3138L101.213 30.0399M101.213 30.0399C100.934 30.1875 100.607 30.2267 100.228 30.0788L101.213 30.0399ZM119.21 23.8088C119.549 23.8 119.888 23.8023 120.258 23.8048M119.21 23.8088L120.258 23.8048M120.258 23.8048C120.416 23.8059 120.579 23.807 120.75 23.8073M120.258 23.8048L120.75 23.8073M120.75 23.8073C120.89 25.3335 120.386 26.4021 119.726 27.4478C119.121 28.4068 118.184 28.5095 117.174 28.4424L120.75 23.8073ZM111.532 24.0128L111.532 24.013C111.223 25.3992 110.604 26.6337 109.687 27.7018L109.687 27.7019C109.476 27.9475 109.239 28.129 108.98 28.2207C108.723 28.3117 108.438 28.3165 108.124 28.199L108.124 28.199C107.835 28.0908 107.676 27.9067 107.573 27.6767C107.476 27.4593 107.431 27.2045 107.382 26.9284C107.378 26.9037 107.374 26.8789 107.369 26.854C107.225 26.0356 107.36 25.3051 107.724 24.7414C108.087 24.1783 108.684 23.7727 109.478 23.613C109.931 23.5227 110.382 23.4243 110.894 23.3128C111.081 23.272 111.277 23.2294 111.483 23.1848C111.494 23.3232 111.508 23.4411 111.519 23.542C111.524 23.5875 111.529 23.6296 111.533 23.6686C111.549 23.8202 111.552 23.9214 111.532 24.0128ZM111.629 24.0348C111.317 25.4369 110.69 26.6864 109.763 27.767L111.629 24.0348ZM108.726 11.8L108.726 11.8C108.397 11.8184 108.063 11.7732 107.701 11.7059C107.578 11.683 107.451 11.6573 107.32 11.6308C107.101 11.5864 106.871 11.5398 106.631 11.5006C106.687 11.0781 106.739 10.6711 106.789 10.2751C106.912 9.31333 107.027 8.41719 107.166 7.52381C107.205 7.27745 107.308 7.09557 107.459 6.96673C107.611 6.83673 107.821 6.75439 108.082 6.72228C108.971 6.61364 109.858 6.46997 110.742 6.32666C111.298 6.23654 111.854 6.14656 112.408 6.06551C113.849 5.85497 115.292 5.7029 116.763 5.75689L116.764 5.75689C117.601 5.78726 118.44 5.71907 119.275 5.62622C119.567 5.59386 119.857 5.5586 120.147 5.52341C120.691 5.45729 121.233 5.39141 121.776 5.34549L121.777 5.34548C122.02 5.32468 122.262 5.32934 122.56 5.33506C122.691 5.33758 122.833 5.3403 122.99 5.34116V5.34171V5.35283V5.36395V5.37506V5.38617V5.39728V5.40838V5.41948V5.43058V5.44167V5.45276V5.46384V5.47493V5.486V5.49708V5.50815V5.51922V5.53028V5.54134V5.5524V5.56345V5.5745V5.58554V5.59659V5.60763V5.61866V5.62969V5.64072V5.65175V5.66277V5.67379V5.68481V5.69582V5.70683V5.71783V5.72883V5.73983V5.75083V5.76182V5.77281V5.7838V5.79478V5.80576V5.81673V5.82771V5.83868V5.84964V5.86061V5.87157V5.88253V5.89348V5.90443V5.91538V5.92632V5.93727V5.9482V5.95914V5.97007V5.981V5.99193V6.00285V6.01378V6.02469V6.03561V6.04652V6.05743V6.06834V6.07924V6.09014V6.10104V6.11193V6.12282V6.13371V6.1446V6.15548V6.16636V6.17724V6.18812V6.19899V6.20986V6.22073V6.23159V6.24245V6.25331V6.26417V6.27502V6.28587V6.29672V6.30757V6.31841V6.32925V6.34009V6.35092V6.36176V6.37259V6.38342V6.39424V6.40506V6.41588V6.4267V6.43752V6.44833V6.45914V6.46995V6.48076V6.49156V6.50236V6.51316V6.52396V6.53475V6.54554V6.55633V6.56712V6.5779V6.58868V6.59947V6.61024V6.62102V6.63179V6.64256V6.65333V6.6641V6.67487V6.68563V6.69639V6.70715V6.7179V6.72866V6.73941V6.75016V6.76091V6.77165V6.7824V6.79314V6.80388V6.81462V6.82535V6.83609V6.84682V6.85755V6.86828V6.879V6.88973V6.90045V6.91117V6.92189V6.9326V6.94332V6.95403V6.96474V6.97545V6.98616V6.99687V7.00757V7.01827V7.02897V7.03967V7.05037V7.06107V7.07176V7.08245V7.09314V7.10383V7.11452V7.1252V7.13589V7.14657V7.15725V7.16793V7.17861V7.18928V7.19996V7.21063V7.2213V7.23197V7.24264V7.25331V7.26398V7.27464V7.2853V7.29596V7.30663V7.31728V7.32794V7.3386V7.34925V7.35991V7.37056V7.38121V7.39186V7.40251V7.41315V7.4238V7.43444V7.44509V7.45573V7.46637V7.47701V7.48765V7.49828V7.50892V7.51955V7.53019V7.54082V7.55145V7.56208V7.57271V7.58334V7.59397V7.60459V7.61522V7.62584V7.63647V7.64709V7.65771V7.66833V7.67895V7.68957V7.70019V7.7108V7.72142V7.73203V7.74265V7.75326V7.76387V7.77449V7.7851V7.79571V7.80632V7.81693V7.82753V7.83814V7.84875V7.85935V7.86996V7.88056V7.89116V7.90177V7.91237V7.92297V7.93357V7.94417V7.95477V7.96537V7.97597V7.98657V7.99716V8.00776V8.01836V8.02895V8.03955V8.05014V8.06074V8.07133V8.08192V8.09252V8.10311V8.1137V8.12429V8.13489V8.14548V8.15607V8.16666V8.17725V8.18784V8.19843V8.20902V8.21961V8.23019V8.24078V8.25137V8.26196V8.27255V8.28313V8.29372V8.30431V8.3149V8.32548V8.33607V8.34666V8.35724V8.36783V8.37842V8.389V8.39959V8.41017V8.42076V8.43135V8.44193V8.45252V8.46311V8.47369V8.48428V8.49486V8.50545V8.51604V8.52662V8.53721V8.5478V8.55839V8.56897V8.57956V8.59015V8.60074V8.61132V8.62191V8.6325V8.64309V8.65368V8.66427V8.67486V8.68545V8.69604V8.70663V8.71722V8.72781V8.7384V8.74899V8.75959V8.77018V8.78077V8.79136V8.80196V8.81255V8.82315V8.83374V8.84434V8.85494V8.86553V8.87613V8.88673V8.89733V8.90793V8.91853V8.92913V8.93973V8.95033V8.96093V8.97153V8.98214V8.99274V9.00335V9.01395V9.02456V9.03517V9.04577V9.05638V9.06699V9.0776V9.08821V9.09883V9.10944V9.12005V9.13067V9.14128V9.1519V9.16251V9.17313V9.18375V9.19437V9.20499V9.21561V9.22624V9.23686V9.24748V9.25811V9.26874V9.27936V9.28999V9.30062V9.31125V9.32188V9.33252V9.34315V9.35379V9.36442V9.37506V9.3857V9.39634V9.40698V9.41762V9.42827V9.43891V9.44956V9.4602V9.47085V9.4815V9.49215V9.50281V9.51346V9.52411V9.53477V9.54543V9.55609V9.56675V9.57741V9.58807V9.59874V9.6094V9.62007V9.63074V9.64141V9.65208V9.66276V9.67343V9.68411V9.69479V9.70547V9.71615V9.72683V9.73751V9.7482V9.75889V9.76958V9.78027V9.79096V9.80165V9.81235V9.82305V9.83375V9.84445V9.85515V9.86586V9.87656V9.88727V9.89798V9.90869V9.91941V9.93012V9.94084V9.95156V9.96228V9.973V9.98373V9.99445V10.0052V10.0159V10.0266V10.0374V10.0481V10.0589V10.0696V10.0803V10.0911V10.1018V10.1126V10.1233V10.1341V10.1448V10.1556V10.1663V10.1771V10.1879V10.1986V10.2094V10.2202V10.2309V10.2417V10.2525V10.2633V10.2741V10.2848V10.2956V10.3064V10.3172V10.328V10.3388V10.3496V10.3604V10.3712V10.382V10.3928V10.4036V10.4144V10.4252V10.436V10.4469V10.4577V10.4685V10.4793V10.4902V10.501V10.5118V10.5227V10.5335V10.5443V10.5552V10.566V10.5769V10.5877V10.5986V10.6094V10.6189C121.137 10.2772 119.486 10.652 117.86 11.0733C117.628 11.1321 117.399 11.1872 117.171 11.2055C116.558 11.2512 115.945 11.298 115.333 11.3447C113.13 11.5127 110.929 11.6806 108.726 11.8Z" fill="#251C1C" stroke="#251C1C" stroke-width="0.2"/>
<path d="M84.5326 24.1092C83.8672 23.1446 82.8647 23.6071 82.2482 24.3016C81.8852 24.397 81.5352 24.5101 81.2673 24.7289C80.9087 25.021 80.6321 25.3675 80.4291 25.7522C80.056 26.222 79.7607 26.7712 79.5792 27.2983C79.2595 28.2262 79.4323 29.3846 80.3195 29.9293C81.1679 30.4476 82.1531 30.0937 82.846 29.4859C83.9075 29.1629 84.4693 28.4552 84.7213 27.1617C84.7876 26.8255 84.825 26.4848 84.874 26.1457C85.0022 25.253 85.008 24.7802 84.7228 24.5306C84.681 24.3779 84.619 24.2355 84.5326 24.1092Z" fill="#39B100"/>
<path d="M71.6024 25.7844C71.0378 24.6128 69.8222 23.839 68.5301 24.0945C67.9655 24.2061 67.4657 24.4983 67.0609 24.8991C66.1996 25.3337 65.6782 26.2601 65.6868 27.4905C65.6883 27.5991 65.694 27.7049 65.7026 27.8106C65.5024 29.1496 65.8596 30.5371 67.3951 30.7808C70.0655 31.2007 72.9304 28.5432 71.6024 25.7844Z" fill="#39B100"/>
<path d="M85.4976 8.98951C85.4976 8.64888 85.476 8.36848 85.4256 8.13943C85.4227 7.89718 85.4055 7.65785 85.3493 7.43762C85.0324 6.19256 83.7807 6.43039 82.8445 6.5684C80.4693 6.91931 78.0942 7.27024 75.7204 7.62115C75.5663 7.64464 75.4367 7.70335 75.333 7.78851C74.993 7.65049 74.5696 7.674 74.2556 7.91038C74.2311 7.91185 74.2052 7.91479 74.1807 7.91626C74.172 7.94269 74.1634 7.97056 74.1547 7.99698C74.0496 8.10123 73.9618 8.23484 73.9013 8.40075C73.3582 9.89247 73.0427 11.4297 72.9045 13.0125C72.8555 13.5733 73.3957 14.0373 73.92 14.0417C74.2325 14.1856 74.5465 14.2473 74.8605 14.2708C74.8375 14.3442 74.813 14.4176 74.7914 14.491C74.6185 15.0753 75.1097 15.8667 75.7636 15.7918C76.7531 15.6802 77.5526 15.0533 78.2713 14.3265C78.4658 14.5247 78.7293 14.6525 78.99 14.6422C79.5042 14.6202 79.9666 14.4 80.3872 14.0858C80.4621 14.0828 80.5355 14.0799 80.6104 14.0755C80.8495 14.5468 81.4545 14.7523 82.0134 14.5086C82.3072 14.3809 82.5896 14.234 82.8647 14.0725C82.9554 14.237 83.0822 14.3764 83.2276 14.466C83.7433 14.7817 84.2776 14.535 84.6075 14.0975C84.6795 14.002 84.7457 13.9051 84.8077 13.8038C85.0324 13.7847 85.2614 13.7657 85.5034 13.7466C85.4976 12.0111 85.5005 10.5003 85.4976 8.98951Z" fill="#39B100"/>
<path d="M85.2585 21.3577C85.3095 20.0769 85.2988 18.7932 85.2874 17.437C85.2824 16.8391 85.2773 16.2271 85.2773 15.595C81.2385 15.407 77.3336 15.385 73.3496 15.6273C73.2956 16.2443 73.2418 16.8498 73.1887 17.4471C73.055 18.952 72.926 20.4048 72.8095 21.8584M85.2585 21.3577L65.2432 29.8045C66.2773 31.559 68.6309 32.0362 69.8725 30.7192C71.4382 29.0586 72.5286 27.1543 72.6539 24.7861C72.6712 24.4609 72.6855 24.1356 72.6999 23.8104C72.7288 23.1589 72.7576 22.5077 72.8095 21.8584M85.2585 21.3577C85.2023 22.7981 85.1303 22.8187 83.7274 22.8143M85.2585 21.3577L83.7274 22.8143M72.8095 21.8584L72.9091 21.8664M72.8095 21.8584L72.9091 21.8664C72.9091 21.8664 72.9091 21.8664 72.9091 21.8664M72.9091 21.8664C72.8574 22.514 72.8287 23.162 72.8 23.8124C72.7855 24.1381 72.7711 24.4643 72.7537 24.7914C72.6268 27.1904 71.5215 29.116 69.9453 30.7878C69.2967 31.4757 68.3608 31.6912 67.4605 31.5117C66.5604 31.3323 65.6889 30.7577 65.157 29.8552L65.157 29.8552C64.7783 29.2124 64.6034 28.2668 64.6386 27.3567C64.6737 26.4484 64.9193 25.5487 65.4096 25.0081L65.4097 25.0081C65.956 24.4064 66.577 23.9709 67.2717 23.7583C67.9673 23.5454 68.7298 23.5584 69.5537 23.8429L69.5537 23.8429C70.0006 23.9974 70.4585 24.1082 70.9737 24.2329C71.199 24.2875 71.4352 24.3447 71.6863 24.4093C71.7094 24.2122 71.7331 24.0207 71.7563 23.833C71.8139 23.3671 71.8687 22.9247 71.9046 22.4788L72.0042 22.4868M72.9091 21.8664L73.5788 6.48936C73.3698 6.52843 73.2081 6.59132 73.0975 6.71411C72.9868 6.83708 72.9424 7.00334 72.9269 7.21229C72.9114 7.42124 72.9239 7.69145 72.9429 8.03618L72.9429 8.03622C72.9643 8.4222 72.9672 8.81107 72.9373 9.19457L72.9373 9.1947C72.5989 13.6228 72.2546 18.0509 71.9046 22.479L72.0042 22.4868M72.9091 21.8664C73.0256 20.4133 73.1546 18.9611 73.2883 17.4564C73.3389 16.8868 73.3902 16.3095 73.4417 15.7219C77.3602 15.4873 81.2041 15.508 85.1773 15.6904C85.1778 16.2907 85.1827 16.8723 85.1874 17.4406C85.1988 18.7956 85.2095 20.0754 85.1586 21.3538L85.1586 21.3539C85.1445 21.7152 85.1296 21.9796 85.0944 22.176C85.0593 22.3721 85.0067 22.4838 84.9302 22.5542C84.8534 22.6251 84.7367 22.6688 84.5391 22.6917L72.9091 21.8664ZM72.0042 22.4868C72.3542 18.0587 72.6986 13.6305 73.037 9.20232L71.784 24.4347C71.8074 24.2345 71.8315 24.0394 71.8552 23.8479C71.913 23.3808 71.9682 22.9348 72.0042 22.4868ZM83.7277 22.7143C82.6811 22.7098 81.7533 22.9145 80.8407 23.5607L80.8407 23.5607C79.1443 24.7627 78.9026 26.4704 78.9881 28.291L78.9881 28.2911C79.0191 28.9384 79.2942 29.4078 79.6658 29.7931C79.9459 30.0837 80.2863 30.3312 80.6162 30.5711C80.7178 30.645 80.8185 30.7182 80.9161 30.7917C81.3291 31.1028 81.7222 31.1546 82.098 31.0671C82.4653 30.9815 82.8119 30.7634 83.1383 30.5504L83.1383 30.5503C83.2474 30.4791 83.3577 30.4082 83.4685 30.337C83.9641 30.0184 84.4689 29.694 84.9126 29.3026C85.2287 29.0246 85.5272 28.5747 85.5907 28.1501C85.5907 28.15 85.5908 28.15 85.5908 28.1499L85.4919 28.1351M83.7277 22.7143L86.2501 18.7829C86.222 20.2091 86.1938 21.6354 86.0983 23.0565M83.7277 22.7143C83.7278 22.7143 83.7278 22.7143 83.7278 22.7143L83.7274 22.8143M83.7277 22.7143L83.7274 22.8143M85.4919 28.1351C85.7468 26.4511 85.9845 24.7567 86.0983 23.0565M85.4919 28.1351C85.4328 28.5301 85.1505 28.9602 84.8466 29.2275L85.4919 28.1351ZM86.0983 23.0565L86.198 23.0632C86.198 23.0632 86.198 23.0632 86.198 23.0632L86.0983 23.0565ZM68.8213 24.7674L68.8213 24.7674C67.9096 24.623 67.1508 24.8402 66.6218 25.3173C66.0922 25.795 65.7805 26.5446 65.7868 27.4884C65.7966 28.9476 66.5958 30.034 67.8634 30.2402C67.8634 30.2402 67.8634 30.2402 67.8634 30.2402L68.8213 24.7674ZM68.8213 24.7674C69.4115 24.8607 70.0023 25.0854 70.5558 25.3463L70.5558 25.3464M68.8213 24.7674L70.5558 25.3464M70.5558 25.3464C71.0315 25.5705 71.2612 25.7635 71.3453 26.0017C71.4309 26.2441 71.3776 26.5636 71.1929 27.0764L71.1928 27.0765M70.5558 25.3464L71.1928 27.0765M71.1928 27.0765C70.7569 28.2902 69.8621 29.1528 68.9606 30.0202M71.1928 27.0765L68.9606 30.0202M68.9606 30.0202L69.0299 30.0922L68.9606 30.0202ZM76.3117 6.32141C75.6806 6.34956 75.0488 6.37774 74.4157 6.41267L86.5123 11.2202C86.5123 11.2201 86.5123 11.2201 86.5123 11.22C86.5084 10.8092 86.5067 10.3976 86.505 9.98561C86.5005 8.88551 86.496 7.78263 86.4488 6.68294C86.4394 6.45399 86.4188 6.2664 86.3757 6.11658C86.3321 5.96498 86.2634 5.84541 86.1537 5.76127C86.0453 5.6781 85.9082 5.63841 85.7452 5.62325C85.5826 5.60812 85.3848 5.61666 85.1474 5.63768L85.1474 5.63768C84.4658 5.69817 83.7855 5.76327 83.1055 5.82833C81.8845 5.94517 80.6648 6.06188 79.4422 6.15144L79.4421 6.15144C78.3991 6.2283 77.3564 6.27481 76.3117 6.32141ZM84.6231 27.1409L84.6231 27.1411C84.4741 27.9054 84.2188 28.4494 83.8242 28.8283C83.4298 29.2069 82.8847 29.4318 82.1337 29.5351C81.5595 29.6142 81.0649 29.4827 80.7088 29.1939C80.3531 28.9053 80.1252 28.4513 80.0997 27.865C80.0474 26.6576 80.416 25.5523 81.3304 24.8064C81.5501 24.6275 81.8332 24.5207 82.1472 24.4323C82.2596 24.4007 82.378 24.3711 82.498 24.341C82.6702 24.2978 82.8458 24.2538 83.0124 24.2019C83.0202 24.227 83.0279 24.2516 83.0354 24.2761L83.0568 24.3472H83.1311C83.1492 24.3472 83.1662 24.3471 83.1826 24.3469C83.2134 24.3466 83.2422 24.3463 83.272 24.3472L83.2732 24.3472C83.6866 24.3553 84.0002 24.3749 84.2364 24.4236C84.4722 24.4721 84.6172 24.5469 84.7078 24.6545C84.7985 24.7622 84.8481 24.9187 84.8572 25.1611C84.8663 25.4038 84.8343 25.7184 84.775 26.1299C84.7607 26.2286 84.7475 26.3266 84.7344 26.424C84.7019 26.6656 84.6699 26.9036 84.6231 27.1409ZM79.6497 7.60773L79.6497 7.60772C80.0181 7.58121 80.3857 7.55186 80.7529 7.52255C81.772 7.44119 82.7875 7.36012 83.8057 7.34074L83.8058 7.34073C84.4849 7.32682 84.8666 7.42095 85.0874 7.65464C85.3106 7.89091 85.3962 8.29694 85.3976 8.98961C85.3995 9.9814 85.3989 10.9731 85.3983 12.0281C85.398 12.5515 85.3977 13.0904 85.3976 13.6526C85.033 13.6817 84.6893 13.711 84.3601 13.7392C83.6131 13.803 82.9406 13.8605 82.2664 13.8933L82.2663 13.8933C80.2544 13.9931 78.2416 14.0826 76.2291 14.1354L76.2291 14.1354C76.0801 14.1394 75.9317 14.1475 75.7838 14.1556C74.9969 14.1988 74.2257 14.2411 73.474 13.6497C73.5929 12.9555 73.6431 12.2454 73.6935 11.5334C73.7098 11.3022 73.7262 11.0708 73.7449 10.8398C73.8215 9.89419 73.9379 8.94674 74.2513 8.00803C74.8264 7.9653 75.3988 7.9223 75.9694 7.87944C77.2015 7.78689 78.4252 7.69497 79.6497 7.60773Z" fill="#251C1C" stroke="#251C1C" stroke-width="0.2"/>
<path d="M36.5365 23.6504C36.8073 23.0293 37.14 22.4538 37.5188 21.9149C37.6888 21.7931 37.8213 21.6228 37.8977 21.4069C38.5847 20.5422 39.3956 19.7787 40.2728 19.0857C41.8515 17.8391 43.7095 16.9318 45.1556 15.5164C46.6104 14.0922 47.3105 12.0485 46.5701 10.0634C46.1697 8.98868 45.4423 8.10187 44.5363 7.46026C43.6087 6.73202 42.6783 6.06837 41.562 5.64992C41.0722 5.46639 40.5422 5.40033 40.0207 5.43851C40.0193 5.43851 40.0179 5.43851 40.015 5.43704C38.9001 5.27553 37.9884 5.97587 37.1876 6.67621C36.8649 6.95958 36.8016 7.30463 36.8981 7.61296C36.8203 7.75538 36.7483 7.89926 36.6791 8.04461C35.6867 9.12082 35.0328 10.5847 35.1912 11.9809C35.2546 12.5374 35.6104 13.0028 36.1995 13.0087C36.597 13.0131 37.0421 12.7048 37.1731 12.301C37.238 12.3113 37.3056 12.3201 37.3777 12.3304C37.4828 11.7945 37.5491 11.3643 37.6557 10.9429C37.7291 10.6522 37.794 10.3556 37.8833 10.0693C38.3255 10.1163 38.8094 9.91658 39.0111 9.38508C39.2531 8.74934 39.9977 8.47773 40.6242 8.40138C40.7006 8.40872 40.777 8.419 40.8533 8.43515C42.8021 8.8301 43.024 11.2938 42.4046 12.8457C41.5836 14.9042 39.6607 16.5721 37.9682 17.8847C37.938 17.9082 37.9077 17.9317 37.876 17.9551C37.7449 17.9963 37.6125 18.0344 37.4785 18.0697C36.4357 18.3428 35.9027 19.0563 35.6492 19.9695C34.8887 20.8989 34.4322 21.9928 34.6957 23.4037C34.8484 24.2333 36.1879 24.4491 36.5365 23.6504Z" fill="#39B100"/>
<path d="M51.3272 23.4229C52.5832 23.9074 53.6807 22.8062 53.8579 21.6037C54.0523 20.2809 53.8017 18.8141 53.7225 17.4869C53.5943 15.2948 53.4416 13.1056 53.2673 10.918C53.2327 9.83736 53.1679 8.75677 53.1017 7.67762C53.0685 7.13584 52.9749 6.60139 52.2432 6.55147C52.1481 6.54559 52.0574 6.54269 51.971 6.54562C51.3617 6.13305 50.3376 6.39586 50.3909 7.3458C50.6689 12.3701 50.7337 17.4032 50.5853 22.4318C50.5723 22.9149 50.9167 23.2643 51.3272 23.4229Z" fill="#39B100"/>
<path d="M38.1405 29.5939C38.9283 28.7188 39.0421 27.1008 37.8884 26.4695C37.3497 26.1729 36.6886 26.2874 36.2219 26.6647C36.1672 26.7103 36.1168 26.7573 36.0707 26.8057C34.9559 27.0069 34.361 28.4178 34.976 29.425C35.6804 30.5776 37.2906 30.538 38.1405 29.5939Z" fill="#39B100"/>
<path d="M52.7933 30.3352C52.8005 30.1957 52.8092 30.0607 52.8193 29.9271C53.1851 29.8346 53.5265 29.6364 53.7814 29.3383C54.457 28.5499 54.454 27.1844 53.4775 26.6279C53.0799 26.4018 52.6421 26.4004 52.2662 26.5516C52.0372 26.5076 51.788 26.5443 51.5431 26.6544C50.4888 27.1257 50.3332 28.5469 51.0303 29.3838C51.2089 30.0078 51.7577 30.2692 52.7933 30.3352Z" fill="#39B100"/>
<path d="M49.7187 24.687L49.7069 24.597C49.6993 24.5387 49.6876 24.4758 49.6743 24.4045C49.6637 24.3476 49.652 24.2854 49.6408 24.216C49.6165 24.0671 49.5969 23.8994 49.6054 23.7305L49.6054 23.7304C49.6397 23.0443 49.6768 22.3585 49.7139 21.673C49.9194 17.8746 50.1244 14.0833 49.8662 10.2801L49.8662 10.28C49.804 9.35681 49.814 8.42571 49.824 7.49976C49.8277 7.15626 49.8314 6.81347 49.8314 6.47205V6.47187C49.8322 6.04796 49.9891 5.77935 50.2385 5.6137C50.4784 5.45435 50.7926 5.39855 51.0914 5.36545L49.7187 24.687ZM49.7187 24.687L49.8093 24.684M49.7187 24.687L49.8093 24.684M49.8093 24.684C50.1836 24.6719 50.5402 24.663 50.884 24.6544C51.7854 24.632 52.598 24.6117 53.4056 24.5413L53.4059 24.5413L49.8093 24.684ZM54.1278 15.0952V15.0953C54.1221 16.8034 54.1718 18.5107 54.2215 20.2202C54.247 21.0954 54.2725 21.9712 54.2905 22.848C54.2917 22.9027 54.294 22.9608 54.2965 23.0206C54.3011 23.1365 54.306 23.2586 54.3031 23.3742C54.2987 23.5521 54.2761 23.7346 54.2003 23.8943C54.2002 23.8943 54.2002 23.8943 54.2002 23.8944L54.1099 23.8514L54.1278 15.0952ZM54.1278 15.0952C54.134 12.9871 54.1964 10.8795 54.2588 8.77041C54.2829 7.95501 54.3071 7.13938 54.3279 6.32339M54.1278 15.0952L54.0278 15.095C54.0341 12.9853 54.0965 10.8757 54.1589 8.76614C54.183 7.95103 54.2071 7.13593 54.228 6.32082M54.228 6.32082L54.3279 6.32339M54.228 6.32082L54.3279 6.32338C54.3279 6.32339 54.3279 6.32339 54.3279 6.32339M54.228 6.32082L54.3279 6.32339M53.0875 5.21245C52.4236 5.25182 51.7557 5.29142 51.0914 5.36544L53.0875 5.21245ZM54.118 5.40997C53.9356 5.21861 53.6405 5.17926 53.2383 5.20349L54.118 5.40997ZM50.8265 9.23114L50.8265 9.23107C50.8279 8.64891 50.8468 8.06074 50.9696 7.50981L50.9696 7.5098C51.0519 7.14018 51.1929 6.92053 51.3887 6.79476C51.5876 6.667 51.8619 6.62373 52.2377 6.6496L52.2378 6.64961C52.575 6.67261 52.7489 6.80346 52.8491 6.97821C52.9552 7.16329 52.9867 7.41048 53.0033 7.6821L53.0033 7.6821C53.0897 9.09473 53.1731 10.5049 53.1917 11.9161C53.2202 14.0712 53.2217 16.2272 53.2232 18.3834C53.2236 18.9586 53.224 19.5338 53.2249 20.1091C53.2249 20.5938 53.2048 21.0802 53.1704 21.5642L53.1704 21.5645C53.141 21.9944 53.0933 22.3248 53.0135 22.5701C52.9341 22.8143 52.8265 22.9634 52.6843 23.0466C52.5408 23.1307 52.3439 23.1583 52.0633 23.1201C51.7965 23.0836 51.4653 22.9892 51.0523 22.841C51.0355 22.1485 51.0181 21.453 51.0006 20.7554C50.9509 18.7784 50.9008 16.7839 50.8639 14.7892C50.8308 12.9372 50.8207 11.0835 50.8265 9.23114Z" fill="#251C1C" stroke="#251C1C" stroke-width="0.2"/>
<path d="M50.1779 31.2892L50.1678 31.2098C50.1084 30.7454 50.0487 30.2907 49.9898 29.8428C49.853 28.8025 49.721 27.7982 49.6102 26.7916L50.1779 31.2892ZM50.1779 31.2892L50.2577 31.2967M50.1779 31.2892L50.2577 31.2967M50.2577 31.2967C50.5609 31.3249 50.8527 31.3543 51.1368 31.3828C51.7643 31.4459 52.3539 31.5052 52.9443 31.5406M50.2577 31.2967L54.1045 30.4296M54.1045 30.4296L54.1045 30.4297C54.1295 30.7917 54.0436 31.0874 53.8361 31.2852C53.6297 31.4821 53.3223 31.5636 52.9443 31.5406M54.1045 30.4296C54.0238 29.2687 53.9243 28.1076 53.8032 26.9508M54.1045 30.4296L53.8032 26.9508M52.9443 31.5406L52.9504 31.4408L52.9444 31.5406C52.9444 31.5406 52.9444 31.5406 52.9443 31.5406ZM53.8032 26.9508C53.7587 26.5256 53.6612 26.2216 53.4422 26.0311C53.2238 25.8412 52.9074 25.7843 52.4811 25.7895L52.481 25.7895C51.8159 25.7983 51.1506 25.8174 50.4852 25.8513L50.485 25.8513C50.2189 25.8653 49.9821 25.944 49.8192 26.1041C49.6533 26.267 49.578 26.5004 49.6102 26.7916L53.8032 26.9508ZM52.4823 25.8895C51.8183 25.8983 51.1543 25.9174 50.4903 25.9511L53.7037 26.9612C53.6159 26.1214 53.3263 25.8792 52.4823 25.8895ZM52.7395 29.6626C52.725 29.845 52.71 30.0338 52.6989 30.2282C51.8606 30.1619 51.4079 29.9573 51.203 29.5552C51.0942 29.3416 51.0482 29.0602 51.065 28.6882C51.0812 28.3309 51.1549 27.8974 51.2794 27.3728C51.5732 27.3219 51.8075 27.2939 51.9957 27.2948C52.1975 27.2957 52.3361 27.3298 52.4362 27.3949C52.5344 27.4588 52.6082 27.5609 52.6633 27.7251C52.7191 27.8913 52.7533 28.1136 52.7758 28.4078L52.7758 28.4079C52.799 28.7044 52.7875 29.0051 52.7655 29.3228C52.7578 29.4334 52.7488 29.5467 52.7395 29.6626Z" fill="#251C1C" stroke="#251C1C" stroke-width="0.2"/>
<path d="M41.6638 14.6694L41.6638 14.6694C42.7285 13.7652 42.9215 12.3035 42.1917 11.0944C41.9458 10.6873 41.656 10.2966 41.3329 9.95124C40.8341 9.41912 40.3314 9.20933 39.8972 9.27496C39.4646 9.34035 39.0609 9.68528 38.7725 10.3512C38.6708 10.5883 38.6263 10.8575 38.6032 11.1438C38.5917 11.2867 38.5856 11.4322 38.5801 11.5791C38.5795 11.5954 38.5789 11.6116 38.5783 11.6279C38.5734 11.7582 38.5685 11.8895 38.5601 12.0183L38.5601 12.0186C38.5367 12.3637 38.542 12.709 38.5477 13.0809C38.5503 13.2533 38.5531 13.4315 38.5531 13.618V13.728L38.4436 13.7176C38.0621 13.6811 37.7013 13.6503 37.3558 13.6209C36.4702 13.5456 35.6858 13.4788 34.9143 13.3451L34.9143 13.3451C34.8253 13.3296 34.7372 13.2708 34.6621 13.205C34.5842 13.1365 34.5081 13.0494 34.4431 12.9589C34.3783 12.8686 34.322 12.7716 34.2859 12.6821C34.2679 12.6374 34.2539 12.5922 34.2471 12.5491C34.2405 12.5071 34.2395 12.4595 34.2551 12.4148M41.6638 14.6694L34.3495 12.4478M41.6638 14.6694C40.4917 15.665 39.2789 16.5321 37.7434 16.914C36.5844 17.2012 35.8048 17.6028 35.2908 18.2579C34.7783 18.9111 34.5421 19.8011 34.4328 21.0355L34.4328 21.0358C34.4154 21.2394 34.3904 21.4426 34.3651 21.648L34.3602 21.6871C34.3334 21.9052 34.3069 22.1258 34.2901 22.3479L34.2901 22.348C34.2679 22.6434 34.2689 22.8868 34.3032 23.0814C34.3375 23.2766 34.4071 23.4323 34.5299 23.5398C34.6529 23.6473 34.8151 23.6942 35.0087 23.7014C35.2016 23.7086 35.4354 23.6768 35.7128 23.6175M41.6638 14.6694L35.6919 23.5197M34.2551 12.4148L34.3495 12.4478M34.2551 12.4148C34.2551 12.4148 34.2551 12.4148 34.2551 12.4149L34.3495 12.4478M34.2551 12.4148C34.4797 11.7722 34.6453 11.1131 34.8122 10.4488C34.9052 10.0788 34.9986 9.70707 35.1028 9.3357C35.3923 8.30441 35.7621 7.29119 36.434 6.38329M34.3495 12.4478C34.5754 11.8015 34.7432 11.1341 34.911 10.4664C35.2643 9.06073 35.6179 7.65423 36.5143 6.44277M36.434 6.38329C36.434 6.3833 36.4339 6.38332 36.4339 6.38334L36.5143 6.44277M36.434 6.38329L36.5143 6.44277M36.434 6.38329C37.8506 4.46645 40.0829 3.81846 42.2923 4.64898C43.9531 5.27285 45.1751 6.44512 46.3451 7.66862C46.6433 7.9803 46.8779 8.42702 46.9725 8.85086C47.422 10.8593 47.4474 12.787 46.2509 14.683C44.8983 16.8266 43.1258 18.3799 40.9437 19.5194M36.5143 6.44277L40.8974 19.4307M40.9437 19.5194L40.8974 19.4307M40.9437 19.5194C40.9437 19.5194 40.9438 19.5193 40.9438 19.5193L40.8974 19.4307M40.9437 19.5194C40.8454 19.5709 40.7418 19.6122 40.6438 19.6513C40.6315 19.6562 40.6193 19.6611 40.6072 19.666C40.4966 19.7103 40.3935 19.7536 40.2996 19.81M40.8974 19.4307C40.8039 19.4797 40.7053 19.5191 40.6067 19.5585C40.4836 19.6076 40.3606 19.6567 40.2478 19.7244M40.2996 19.81C40.2996 19.8099 40.2997 19.8099 40.2997 19.8099L40.2478 19.7244M40.2996 19.81C39.7882 20.1205 39.5229 20.3416 39.3959 20.6199C39.2684 20.8992 39.2714 21.2551 39.3587 21.8641L39.3587 21.8642C39.3988 22.1456 39.4207 22.371 39.4124 22.5497C39.4041 22.7288 39.3648 22.8747 39.2695 22.9846C39.1744 23.0943 39.0369 23.1522 38.868 23.186C38.6994 23.2198 38.4853 23.2321 38.2227 23.2394M40.2996 19.81C40.2995 19.81 40.2994 19.8101 40.2993 19.8101L40.2478 19.7244M40.2478 19.7244L38.2227 23.2394M38.2227 23.2394L38.2198 23.1395M38.2227 23.2394L39.2597 21.8783C39.4196 23.0015 39.2713 23.1101 38.2198 23.1395M38.2227 23.2394C38.2227 23.2394 38.2226 23.2394 38.2226 23.2394L38.2198 23.1395M38.2227 23.2394C37.3877 23.2641 36.5466 23.4396 35.7128 23.6175M38.2198 23.1395C37.3743 23.1644 36.5244 23.3421 35.6919 23.5197M35.6919 23.5197L35.7128 23.6175M35.6919 23.5197L35.7128 23.6175C35.7128 23.6175 35.7128 23.6175 35.7128 23.6175M43.7392 11.9755L43.7393 11.9756C44.054 13.5172 43.281 14.6551 42.1515 15.6061C40.7618 16.7763 39.2709 17.7033 37.5034 18.1679L37.5032 18.1679C36.8773 18.3315 36.4459 18.658 36.1498 19.0908C35.8521 19.526 35.6877 20.0742 35.6081 20.6843L35.6081 20.6843C35.5586 21.0639 35.6234 21.3719 35.7655 21.5954C35.9068 21.8177 36.1297 21.965 36.4153 22.0162C36.8069 22.0863 37.1589 22.0302 37.4168 21.8671C37.6718 21.7059 37.8456 21.4338 37.8738 21.0459L43.7392 11.9755ZM43.7392 11.9755C43.3776 10.2142 42.4836 8.7278 40.7398 8.00509L40.7397 8.00504M43.7392 11.9755L40.7397 8.00504M40.7397 8.00504C40.2093 7.78598 39.676 7.82982 39.1969 8.09894C38.7207 8.36642 38.3034 8.853 37.9884 9.51234L37.9884 9.51238L40.7397 8.00504ZM36.0221 10.8188L36.0221 10.8188C35.9987 11.1078 35.9919 11.3271 36.0139 11.4984C36.0356 11.6673 36.0842 11.7814 36.1659 11.8675C36.2494 11.9553 36.3772 12.0245 36.5782 12.083C36.7609 12.1362 36.9955 12.1782 37.297 12.22C37.3225 12.0877 37.3459 11.961 37.3685 11.8388C37.4294 11.5092 37.4845 11.2115 37.5582 10.9199C37.5582 10.9199 37.5582 10.9199 37.5582 10.9199L36.0221 10.8188ZM36.0221 10.8188C36.1329 9.44305 36.6159 8.19155 37.3518 7.04594C38.2012 5.72374 40.0482 5.19179 41.5279 5.74508L41.5279 5.74508C42.7915 6.21743 43.8172 7.01066 44.8853 7.86434L44.8853 7.86435C45.7808 8.57977 46.1575 10.0099 46.1121 11.4496C46.0895 12.1657 45.9624 12.8758 45.7482 13.4872C45.5335 14.1 45.234 14.6061 44.8719 14.9228M36.0221 10.8188L44.8719 14.9228M44.8719 14.9228C44.5834 15.1745 44.3225 15.4578 44.066 15.7363L44.0483 15.7555C43.7847 16.0417 43.525 16.3222 43.2378 16.5681L43.3029 16.644M44.8719 14.9228L43.3029 16.644M43.3029 16.644L43.2378 16.5681C42.6672 17.0566 42.0356 17.4865 41.3879 17.8721M43.3029 16.644L41.3879 17.8721M41.3879 17.8721C41.1112 18.0364 40.8128 18.1656 40.5077 18.2977L40.4916 18.3046C40.1831 18.4382 39.8679 18.5754 39.5752 18.7535C38.7452 19.2561 37.9611 19.83 37.8738 21.0459L41.3879 17.8721Z" fill="#251C1C" stroke="#251C1C" stroke-width="0.2"/>
<path d="M34.5358 29.4701L34.5358 29.4699C34.5203 29.1864 34.4962 28.9031 34.472 28.618L34.4706 28.6016C34.446 28.3114 34.4214 28.0195 34.4061 27.7269L34.4061 27.7269C34.3708 27.0457 34.4418 26.5694 34.7261 26.2749C35.0107 25.98 35.4807 25.8965 36.1535 25.9142C36.2967 25.9175 36.4419 25.9299 36.5831 25.9419C36.6321 25.9461 36.6807 25.9502 36.7285 25.9539C37.7308 25.9914 38.3816 26.1203 38.7783 26.5319C39.1745 26.9429 39.293 27.6108 39.3174 28.6429M34.5358 29.4701L39.2174 28.6452M34.5358 29.4701C34.5645 29.9839 34.6489 30.3419 34.8827 30.5485C35.1179 30.7562 35.4742 30.7848 35.9639 30.7341L35.964 30.7341C36.1042 30.7195 36.244 30.7033 36.3833 30.6872C36.9533 30.621 37.5145 30.5559 38.0644 30.608L38.0646 30.608C38.4324 30.6419 38.7063 30.5712 38.9046 30.3994C39.1 30.2302 39.2054 29.977 39.2691 29.6826M34.5358 29.4701L39.1714 29.6612M39.3174 28.6429L39.2174 28.6452M39.3174 28.6429C39.3174 28.6428 39.3174 28.6428 39.3174 28.6427L39.2174 28.6452M39.3174 28.6429C39.3182 28.6723 39.319 28.7019 39.3198 28.7317C39.3284 29.0409 39.3376 29.372 39.2691 29.6826M39.2174 28.6452C39.2182 28.6744 39.219 28.7037 39.2198 28.733C39.2284 29.0446 39.2372 29.3633 39.1714 29.6612M39.2691 29.6826C39.2691 29.6825 39.2691 29.6824 39.2691 29.6824L39.1714 29.6612M39.2691 29.6826C39.2691 29.6827 39.269 29.6827 39.269 29.6828L39.1714 29.6612M36.7025 29.3133L36.7029 29.3131C36.7844 29.2929 36.8635 29.2667 36.9464 29.2393C36.9763 29.2294 37.0068 29.2193 37.038 29.2093C37.1527 29.1725 37.2746 29.1377 37.4018 29.1256M36.7025 29.3133L37.4112 29.2252M36.7025 29.3133C36.4307 29.3822 36.2253 29.3512 36.082 29.2541C35.9387 29.1571 35.8371 28.9802 35.8021 28.7144L35.8021 28.7141C35.7692 28.4699 35.7655 28.2205 35.7703 27.9463C35.772 27.8504 35.7748 27.7508 35.7777 27.6475C35.782 27.4902 35.7866 27.3243 35.7881 27.1491C35.9608 27.1617 36.1333 27.1657 36.2974 27.1695C36.4135 27.1722 36.5253 27.1749 36.6299 27.1803C36.9224 27.1956 37.1734 27.2327 37.3799 27.3429M36.7025 29.3133L37.3799 27.3429M37.4018 29.1256L37.4112 29.2252M37.4018 29.1256C37.4017 29.1256 37.4017 29.1256 37.4016 29.1256L37.4112 29.2252M37.4018 29.1256C37.6348 29.1032 37.8491 29.0542 37.9877 28.9572C38.0547 28.9103 38.1013 28.8539 38.1262 28.7852C38.1512 28.7162 38.1575 28.6255 38.128 28.5047M37.4112 29.2252C37.8837 29.1797 38.3576 29.0226 38.2251 28.4808M38.128 28.5047C38.128 28.5047 38.128 28.5048 38.128 28.5048L38.2251 28.4808M38.128 28.5047C38.0735 28.2848 37.9731 28.039 37.8409 27.8244C37.7078 27.6084 37.5481 27.4333 37.3799 27.3429M38.128 28.5047C38.128 28.5046 38.1279 28.5046 38.1279 28.5045L38.2251 28.4808M38.2251 28.4808L37.3799 27.3429M36.727 29.4102C36.148 29.557 35.7779 29.2956 35.703 28.7274L36.727 29.4102Z" fill="#251C1C" stroke="#251C1C" stroke-width="0.2"/>
<path d="M25.4214 16.4664L25.4212 16.4668C25.3978 16.5208 25.3482 16.5483 25.315 16.5624C25.278 16.5782 25.2352 16.5883 25.1944 16.595C25.1121 16.6085 25.019 16.6112 24.9503 16.609L24.9535 16.5091L24.9506 16.609C22.7633 16.5461 20.5761 16.4777 18.3889 16.4065C18.136 16.3982 17.8817 16.38 17.6298 16.3619C17.5246 16.3544 17.4198 16.3469 17.3156 16.3401C16.9603 16.3171 16.6096 16.3028 16.2623 16.3242C15.0248 16.4025 13.7936 16.499 12.5615 16.5956C11.4816 16.6802 10.401 16.7649 9.31478 16.8374L25.4214 16.4664ZM25.4214 16.4664C25.4298 16.4467 25.4387 16.4263 25.4478 16.4053C25.4944 16.2979 25.5477 16.175 25.5846 16.0549C25.6282 15.9133 25.6561 15.7544 25.6097 15.6141C25.5637 15.4745 25.4424 15.3707 25.3249 15.2894C25.2642 15.2474 25.1991 15.2079 25.1371 15.1708L25.1186 15.1597C25.0626 15.1261 25.0098 15.0945 24.9617 15.0626L24.9617 15.0626C24.7439 14.9183 24.5262 14.7738 24.3085 14.6293C23.1065 13.8317 21.9044 13.0339 20.6897 12.2549C20.0596 11.8501 19.5061 11.4387 19.2572 10.5806C19.4124 10.4623 19.5656 10.3432 19.7182 10.2246C20.0716 9.94992 20.4217 9.67785 20.7854 9.4239C21.3642 9.0211 21.9484 8.62394 22.5331 8.22645C23.5438 7.5393 24.5561 6.85115 25.544 6.13118L25.4852 6.05036L25.5441 6.13118C25.7455 5.98434 25.9002 5.86396 26.0116 5.75278C26.1238 5.64072 26.1985 5.53184 26.2314 5.4065C26.2642 5.28153 26.252 5.15296 26.2154 5.00849C26.1791 4.86532 26.1159 4.69589 26.038 4.48796L26.0151 4.4268L25.9499 4.42319C25.1921 4.38121 24.4535 4.3406 23.7242 4.3005C22.9785 4.25951 22.2426 4.21904 21.5058 4.1782L21.5058 4.1782C21.4267 4.17383 21.3465 4.16868 21.2658 4.1635C21.1228 4.15434 20.9783 4.14506 20.8354 4.1398C19.7097 4.0981 18.5839 4.05441 17.4581 4.01071C14.2987 3.8881 11.1389 3.76547 7.97862 3.68675L7.9786 3.68675C7.43175 3.6732 7.00705 3.59895 6.66516 3.39636C6.32593 3.19533 6.05523 2.85995 5.83368 2.29669L5.83367 2.29667C5.4995 1.44761 4.65072 0.986288 3.76641 0.911073C2.8822 0.835867 1.93458 1.14355 1.38739 1.86644L1.38737 1.86647C0.631127 2.86616 0.745934 4.4656 1.79449 5.45518C2.32704 5.95997 2.51579 6.48102 2.5379 7.16896C2.54784 7.48447 2.57517 7.7995 2.60221 8.1113C2.60466 8.13957 2.60711 8.1678 2.60954 8.19601C2.63892 8.53656 2.66611 8.87354 2.66942 9.21006L2.66943 9.21012C2.73587 15.5634 2.79253 21.9167 2.84919 28.2701C2.8555 28.9772 2.86181 29.6843 2.86813 30.3915L25.4214 16.4664ZM4.34031 7.21366L4.24038 7.21748C4.24038 7.21748 4.24038 7.21748 4.24038 7.21747C4.23196 6.99706 4.19497 6.7758 4.14915 6.55012C4.13293 6.47022 4.11539 6.38889 4.0977 6.30685C4.07654 6.20868 4.05516 6.1095 4.03554 6.01055C3.90803 6.09509 3.80804 6.1771 3.73693 6.25569C3.64392 6.35846 3.60918 6.44523 3.61186 6.51745L3.61187 6.51772C3.7128 9.45737 3.69096 12.401 3.66915 15.3421C3.66047 16.5111 3.6518 17.6797 3.65085 18.8474C3.64759 22.8306 3.73398 26.8074 4.21467 30.7725L4.50911 23.0091C4.48223 19.1531 4.45534 15.2972 4.42488 11.4412C4.41414 10.0329 4.39401 8.62194 4.34031 7.21366ZM4.34031 7.21366C4.32841 6.90218 4.26165 6.59261 4.19482 6.28279C4.17112 6.17289 4.14741 6.06296 4.12614 5.9529L4.34031 7.21366ZM2.00954 3.12157L2.10947 3.12543C2.12352 2.76143 2.2401 2.46413 2.41801 2.26448C2.59464 2.06627 2.83461 1.96031 3.11055 1.97869C3.55369 2.00866 4.02455 2.20847 4.38383 2.47934C4.56299 2.61442 4.71122 2.76481 4.81358 2.91656C4.91636 3.06894 4.96912 3.21687 4.968 3.3493L4.968 3.34947C4.96552 3.71517 4.78746 4.08162 4.51524 4.35554C4.24283 4.62965 3.88685 4.80051 3.54026 4.79122C3.04292 4.77672 2.68057 4.62131 2.44588 4.34954C2.20999 4.07638 2.08923 3.66975 2.10947 3.12528L2.00954 3.12157ZM2.00954 3.12157C2.03908 2.35653 2.50094 1.83786 3.1172 1.87892L2.00954 3.12157ZM13.7241 4.59645L13.724 4.59645C10.9963 4.30797 8.27154 4.27686 5.46182 4.98138C5.4498 5.13981 5.43565 5.30017 5.42137 5.46206C5.38469 5.8779 5.34711 6.3038 5.3425 6.73295C5.3425 6.73296 5.3425 6.73298 5.3425 6.73299L13.7241 4.59645ZM13.7241 4.59645C15.0171 4.73309 16.3203 4.77467 17.6353 4.81663C18.0962 4.83134 18.5586 4.84609 19.0226 4.865C20.7585 4.93576 22.5216 5.0647 24.3322 5.46475M13.7241 4.59645L24.3322 5.46475M24.3322 5.46475C24.1771 5.63184 24.0375 5.79147 23.908 5.93963C23.8305 6.02841 23.7565 6.11307 23.6849 6.19276C23.4612 6.44171 23.2579 6.64564 23.0266 6.79915L23.0265 6.79922C21.4588 7.8422 19.8546 8.83076 18.2376 9.79515L18.2375 9.79519C18.1557 9.84407 18.07 9.88694 17.9815 9.93122C17.9585 9.94278 17.9352 9.95443 17.9117 9.9663C17.8009 10.0224 17.6874 10.0832 17.5883 10.1585C17.4883 10.2345 17.4 10.3277 17.3418 10.4504C17.2834 10.5735 17.2587 10.7192 17.2749 10.8947M24.3322 5.46475L5.33981 11.522C5.325 12.5719 5.2604 13.6212 5.18518 14.6658C5.16073 15.0102 5.22513 15.276 5.36237 15.4639C5.49835 15.65 5.71593 15.7736 6.02758 15.8146L6.02782 15.8147C6.17399 15.8343 6.32017 15.8545 6.46633 15.8748C7.42606 16.0077 8.38459 16.1405 9.33009 16.0958L9.33012 16.0958C10.4212 16.0446 11.5107 15.9483 12.602 15.8462C12.7575 15.8316 12.9131 15.817 13.0688 15.8023C14.0044 15.714 14.9416 15.6256 15.88 15.5622C16.6226 15.5113 17.3723 15.5341 18.1161 15.5567C18.3986 15.5653 18.6802 15.5739 18.9603 15.5784L18.9604 15.5784C19.1511 15.5815 19.3415 15.5865 19.5319 15.5915C20.6985 15.6222 21.8666 15.6529 23.1369 15.2606M17.2749 10.8947C17.2749 10.8947 17.2749 10.8946 17.2749 10.8946L17.3744 10.8856L17.2749 10.8947ZM17.2749 10.8947C17.328 11.4827 17.7139 11.7844 18.2076 12.0519L18.2076 12.052C19.3928 12.6936 20.5357 13.4162 21.6811 14.1402C21.8244 14.2309 21.9679 14.3216 22.1114 14.4121M22.1114 14.4121C22.2886 14.5242 22.4537 14.6596 22.6384 14.8211C22.697 14.8724 22.7578 14.9264 22.8214 14.983C22.9189 15.0698 23.0232 15.1626 23.1369 15.2606M22.1114 14.4121L22.1649 14.3276M22.1114 14.4121C22.1114 14.4121 22.1115 14.4121 22.1115 14.4122L22.1649 14.3276M23.1369 15.2606C23.1742 15.2491 23.2115 15.2372 23.249 15.2249M23.1369 15.2606C23.1662 15.2858 23.1961 15.3114 23.2266 15.3372C21.9158 15.7547 20.7118 15.7228 19.5274 15.6915C19.3375 15.6865 19.148 15.6815 18.9587 15.6784L23.249 15.2249M23.249 15.2249C23.1179 15.1129 22.9997 15.0078 22.8894 14.9096C22.6265 14.6757 22.408 14.4813 22.1649 14.3276M23.249 15.2249L18.2552 11.964C19.4436 12.6074 20.5895 13.3319 21.7345 14.0557C21.878 14.1464 22.0214 14.2371 22.1649 14.3276M5.92165 16.8791C6.12785 16.8554 6.39974 16.8574 6.76218 16.8677L4.06503 33.017L4.0567 33.1166C4.05672 33.1166 4.05674 33.1167 4.05677 33.1167C4.50381 33.154 4.8529 33.1111 5.09672 32.9135C5.34211 32.7146 5.45456 32.381 5.48599 31.9069C5.58409 30.4535 5.64873 28.9914 5.62046 27.5339L5.52047 27.5358L5.62046 27.5338C5.58444 25.6885 5.52024 23.8417 5.45608 21.9958C5.4126 20.7451 5.36914 19.4949 5.33447 18.2458C5.32439 17.8859 5.32503 17.6189 5.35241 17.4187C5.37972 17.219 5.43173 17.1017 5.51116 17.0265C5.59131 16.9507 5.71526 16.9028 5.92165 16.8791Z" fill="#251C1C" stroke="#251C1C" stroke-width="0.2"/>
</svg>
