<svg width="143" height="34" viewBox="0 0 143 34" fill="none" xmlns="http://www.w3.org/2000/svg">
<g clip-path="url(#clip0)">
<path d="M30.3222 2.26893C29.9106 2.06759 29.4205 2.07948 28.9701 2.0565C28.8816 2.05214 28.7932 2.04777 28.7048 2.04381C28.5531 1.94155 28.3663 1.892 28.1452 1.92054C28.0411 1.93402 27.9427 1.96652 27.8534 2.01369C27.7791 2.0117 27.7051 2.00973 27.6307 2.00814C26.7736 1.9907 25.9165 2.00021 25.0603 2.0335C25.0417 2.03271 25.0231 2.03231 25.0045 2.03152C24.8037 2.02478 24.602 2.04975 24.385 2.07274C24.2371 1.73426 23.6094 1.80045 23.6482 2.21027C23.8197 4.00335 24.0569 5.79088 24.2288 7.58475C24.2623 7.93314 24.2925 8.28232 24.3214 8.63151C24.2821 10.6121 24.2268 12.5926 24.19 14.5732C24.1784 15.2045 24.2222 15.8371 24.2425 16.5478C24.4069 16.5363 24.5685 16.5252 24.7276 16.5141C24.8636 16.6952 25.0855 16.8169 25.3252 16.8149C26.1302 16.8078 26.9385 16.7491 27.7336 16.6266C27.8287 16.612 27.9237 16.5965 28.0183 16.5803C28.1217 16.6235 28.2345 16.6457 28.3518 16.6405C28.587 16.6306 28.806 16.5379 28.9651 16.3888C29.3436 16.2993 29.7309 16.1772 30.0019 15.8938C30.5582 15.3123 30.4636 14.413 30.4991 13.6798L30.6098 11.3905C30.6842 9.85107 30.759 8.31166 30.8334 6.77224C30.8702 6.00927 30.9074 5.24591 30.9442 4.48294C30.9813 3.71442 31.1934 2.69501 30.3222 2.26893Z" fill="#EF4036"/>
<path d="M51.0885 16.153C51.7356 16.2394 52.4453 16.0117 52.6176 15.3204C52.9142 14.1297 52.7035 13.1134 52.3167 11.9651C51.9085 10.7528 51.5196 9.47559 50.8601 8.36518C50.5688 7.87495 50.118 7.70814 49.6863 7.76136C49.4489 7.65544 49.132 7.6974 48.9351 7.95428C47.0597 10.4023 47.1766 15.6315 51.0885 16.153Z" fill="#EF4036"/>
<path d="M50.7684 27.3753C52.3503 28.1306 54.6643 26.922 56.1939 26.3514C57.3832 25.9083 57.6168 24.1556 56.1939 23.8015C54.7555 23.4438 53.2248 22.9531 51.7949 23.602C50.5181 24.1812 49.4196 25.4441 48.8327 26.6518C48.4795 27.3784 49.2761 28.4668 50.1191 27.8855C50.3447 27.7294 50.5587 27.5549 50.7684 27.3753Z" fill="#EF4036"/>
<path d="M13.5883 16.1924C13.5527 15.7255 13.5143 15.2586 13.473 14.7921C13.3899 13.8591 13.2953 12.9269 13.1882 11.9962C12.9659 10.0625 12.6944 8.13344 12.3737 6.21274C12.2964 5.7506 12.2162 5.28885 12.1332 4.82751C12.0621 4.43314 12.0051 4.04472 11.8414 3.6773C11.7423 3.29126 11.6377 2.90443 11.5431 2.51244C11.1989 2.51244 10.943 2.49737 10.6897 2.51561C10.2426 2.54771 9.79794 2.61945 9.3508 2.64006C8.21725 2.69317 7.08244 2.71894 5.94931 2.7768C5.74847 2.78711 5.47243 2.84101 5.3687 2.97379C5.13356 3.27501 4.87363 3.55761 4.68312 3.87944C4.5732 3.80572 4.44094 3.76292 4.28969 3.76926C3.87685 3.78709 3.57889 4.07762 3.55822 4.47079C3.54583 4.7082 3.53346 4.94601 3.52065 5.18342C3.51776 5.23614 3.51527 5.28885 3.51238 5.34196C3.5037 5.50328 3.51859 5.40538 3.52065 5.3709C3.51156 5.54806 3.49335 5.71849 3.49087 5.89606L3.47231 7.32132C3.45949 8.28484 3.46611 9.24758 3.47065 10.2111C3.47933 12.1112 3.51321 14.0117 3.53635 15.9114C3.54214 16.3997 3.54791 16.888 3.55411 17.3759C3.56113 17.9435 3.54832 18.5594 4.03471 18.9684C4.58351 19.4298 5.22818 19.3156 5.88607 19.2225C6.37329 19.1535 6.86097 19.0845 7.34819 19.0156C8.32305 18.8776 9.29788 18.7421 10.2715 18.5978C10.7579 18.5257 11.2447 18.4539 11.7311 18.3818C12.2754 18.3013 12.8056 18.2459 13.2122 17.8408C13.6701 17.3846 13.6321 16.773 13.5883 16.1924Z" fill="#39B100"/>
<path d="M101.433 25.535C101.457 25.5265 101.482 25.518 101.507 25.5095C103.119 25.4785 104.73 25.4465 106.342 25.4154C107.187 25.3994 108.032 25.3824 108.876 25.3664C109.526 25.3542 110.556 25.5293 111.061 25.0529C111.527 24.6141 111.532 23.7507 111.651 23.1707C111.802 22.4287 111.954 21.6867 112.105 20.9448C112.406 19.4674 112.751 18.0089 112.538 16.4986C112.459 15.945 111.52 15.8546 111.282 16.3414C110.734 17.4618 110.193 18.587 109.634 19.7028C109.152 20.6661 108.602 21.5624 107.657 22.1688C105.702 23.423 103.231 23.5049 101.067 24.2629C100.244 24.5529 100.599 25.8269 101.433 25.535ZM109.848 23.9154C109.93 23.9173 110.012 23.9041 110.09 23.875C110.076 23.9267 110.067 23.9776 110.067 24.0218C110.059 24.0228 110.053 24.0237 110.045 24.0256C109.954 24.0077 109.853 24.004 109.749 24.0049C109.782 23.9748 109.817 23.9456 109.848 23.9154Z" fill="#39B100"/>
<path d="M77.4085 8.77108C77.5951 8.7127 77.761 8.58088 77.8464 8.36055C78.5336 6.59038 79.966 5.19308 81.7488 4.41627C82.0217 4.29763 82.1396 3.93136 82.0649 3.67149C81.9776 3.3683 81.7066 3.22423 81.4023 3.18751C79.8619 3.00108 78.3618 3.10748 77.3172 4.34378C76.3129 5.53299 76.1539 7.04988 76.0911 8.52533C76.0577 9.28236 77.1464 9.36239 77.4085 8.77108Z" fill="#39B100"/>
<path d="M133.325 21.2765C132.471 22.1845 131.687 21.8303 130.973 20.2139C131.105 19.764 131.264 19.3232 131.451 18.8916C131.556 18.5471 131.64 18.2519 131.694 17.9623C131.854 17.4437 131.905 16.9193 131.648 16.3258C131.622 16.3569 131.596 16.3866 131.572 16.4156C131.402 16.2582 131.136 16.2106 130.942 16.4156C130.265 17.132 130.004 16.7136 129.949 16.0618C129.945 15.8853 129.949 15.7089 129.943 15.5325C129.95 15.3965 129.962 15.2605 129.979 15.1303C130.108 14.1243 130.331 13.1545 130.629 12.1965C130.738 11.9183 130.845 11.6393 130.95 11.3597C130.986 11.2609 131.008 11.157 131.021 11.0507C131.039 11.0034 131.056 10.9561 131.074 10.9088C131.115 10.8018 131.098 10.693 131.045 10.5991C131.047 10.4914 131.05 10.384 131.06 10.2791C131.004 10.2653 130.948 10.2515 130.892 10.2376C130.87 10.2901 130.847 10.3409 130.823 10.3899C130.687 10.3219 130.524 10.3119 130.39 10.4041C130.001 10.7358 129.543 10.9357 129.015 11.0044C128.836 11.0445 128.65 11.2488 128.673 11.4353C128.802 12.4824 128.889 13.5277 128.944 14.5717C128.711 15.7037 128.644 16.8085 128.996 17.557C128.966 19.4851 128.809 21.4091 128.52 23.3303C128.322 23.9939 128.075 24.6495 127.768 25.2951C127.814 25.3134 127.863 25.3296 127.911 25.3448C127.918 25.604 128.147 25.8761 128.493 25.8046C128.5 25.8032 128.506 25.8019 128.513 25.8005C128.691 25.864 128.895 25.8416 129.01 25.6928C131.321 25.1694 133.552 24.2952 134.01 21.7816C134.071 21.4443 133.687 21.021 133.325 21.2765Z" fill="#39B100"/>
<path d="M141.857 16.1139C141.433 16.0808 141.009 16.0476 140.585 16.0148C140.375 15.7545 139.802 15.6934 139.733 16.1215C139.611 16.8841 139.704 17.616 139.651 18.3762C139.562 19.6498 138.653 20.3071 138.211 21.3963C137.79 22.4313 138.119 23.4701 138.611 24.4171C138.661 24.5521 138.717 24.6864 138.78 24.8204C138.833 24.9316 138.914 25.0303 139.013 25.129C139.045 25.1829 139.078 25.2367 139.111 25.2899C139.19 25.42 139.303 25.4832 139.421 25.4984C139.479 25.5509 139.538 25.6061 139.597 25.6658C139.609 25.6006 139.619 25.5385 139.629 25.4781C139.698 25.4563 139.763 25.4211 139.818 25.3755C139.952 25.3327 140.068 25.236 140.112 25.0828C140.922 22.2611 141.731 19.4399 142.541 16.6183C142.641 16.2713 142.198 15.874 141.857 16.1139Z" fill="#39B100"/>
<mask id="path-3-outside-1" maskUnits="userSpaceOnUse" x="-1" y="-1" width="145" height="35" fill="black">
<rect fill="white" x="-1" y="-1" width="145" height="35"/>
<path d="M25.5775 16.8148C26.6383 16.7098 27.7062 16.6697 28.769 16.5798C29.1715 16.5457 29.5699 16.4561 29.9666 16.3744C30.3452 16.2964 30.5493 16.0375 30.6158 15.69C30.6576 15.4696 30.6568 15.2401 30.6609 15.0146C30.7002 12.8977 30.7489 10.7808 30.7675 8.6635C30.7758 7.74 30.6993 6.81572 30.7014 5.89184C30.7039 4.88551 30.7543 3.87957 30.7799 2.87325C30.7898 2.4872 30.8039 2.09838 30.5956 1.76069C29.8166 1.78606 29.0695 1.8479 28.3248 1.8253C27.2776 1.7936 26.2317 1.70363 25.1857 1.6311C24.727 1.59899 24.2377 1.64893 23.9014 1.19709C23.3765 1.63981 22.7748 1.60494 22.1768 1.59107C21.5574 1.5768 20.9367 1.53954 20.3185 1.56015C18.7163 1.61445 17.1145 1.68143 15.514 1.76863C13.9763 1.85265 12.4419 1.98345 10.9046 2.06549C9.34499 2.14912 7.78374 2.20976 6.22248 2.25692C5.49681 2.27872 5.40796 2.18916 5.20299 1.51259C4.92115 0.581172 3.81406 -0.132259 2.83176 0.0207309C1.82095 0.178477 0.977913 0.639827 0.350598 1.42816C-0.0568679 1.94064 -0.136625 2.85383 0.257616 3.28069C0.644419 3.70003 0.948567 4.23866 1.6887 4.35717C1.6887 4.82446 1.63827 5.2763 1.69778 5.71426C1.89201 7.14429 1.98622 8.57669 1.9668 10.0186C1.96101 10.4685 2.0222 10.9199 2.06394 11.3698C2.15113 12.3111 2.30319 13.2504 2.32633 14.1929C2.37055 16.0213 2.34659 17.8512 2.34659 19.6804C2.34618 22.412 2.26806 25.1452 2.63998 27.8654C2.84744 29.3861 3.02763 30.9101 3.23177 32.5224C3.35451 32.5224 3.53591 32.5296 3.71609 32.5209C4.14174 32.501 4.56697 32.4519 4.99221 32.4551C5.53398 32.4586 5.7303 32.2236 5.69352 31.6865C5.60674 30.4182 5.55135 29.1479 5.49598 27.8777C5.48151 27.5503 5.53441 27.2201 5.5216 26.8923C5.42986 24.5725 5.3315 22.2531 5.22902 19.9336C5.21455 19.6059 5.14636 19.2801 5.13479 18.9523C5.11991 18.5381 5.2228 18.4624 5.64639 18.4248C6.40925 18.3566 7.17131 18.2773 7.9321 18.1901C9.22806 18.0419 10.5199 17.8477 11.82 17.7494C12.2861 17.7137 12.8246 17.5912 13.175 17.8952C13.5651 17.7906 13.8961 17.6535 14.2383 17.6182C15.5586 17.483 16.881 17.3649 18.2051 17.2698C19.4416 17.1806 20.68 17.0899 21.9186 17.0748C22.5777 17.0665 23.2645 16.7779 23.9096 17.166C23.9452 17.1874 24.0261 17.1362 24.0865 17.1231C24.5832 17.0165 25.0746 16.8643 25.5775 16.8148ZM24.1563 2.09522C24.4638 2.07065 24.7349 2.02268 25.0043 2.0318C26.4784 2.08095 27.9516 2.14476 29.4253 2.20263C29.5323 2.20659 29.6402 2.19867 29.7468 2.2058C30.1745 2.23474 30.2699 2.30727 30.2852 2.73017C30.3092 3.38731 30.3129 4.04565 30.3034 4.70279C30.2724 6.87993 30.1873 9.05706 30.2121 11.2334C30.227 12.5081 30.1956 13.7748 30.0902 15.0439C30.029 15.776 29.934 15.9202 29.186 16.097C28.8963 16.1652 28.5983 16.2084 28.3016 16.2409C27.8359 16.2912 27.3685 16.3269 26.9015 16.3614C26.0502 16.424 25.1985 16.4815 24.2423 16.548C24.222 15.8374 24.1782 15.2048 24.1898 14.5734C24.2385 11.9456 24.32 9.31786 24.3535 6.69008C24.3621 5.97665 24.2489 5.26124 24.1836 4.54742C24.1109 3.75116 24.0642 2.95609 24.1563 2.09522ZM1.5709 3.81061C0.877464 3.69964 0.34811 2.59858 0.6316 1.98384C0.963441 1.26408 1.60437 0.915684 2.33541 0.68382C3.34871 0.362382 3.82686 0.564525 4.30954 1.10554C4.92817 1.79915 4.92195 2.60017 4.412 3.3235C4.05082 3.42497 3.76278 3.44518 3.54954 3.57716C2.92016 3.96637 2.2383 3.91723 1.5709 3.81061ZM4.21571 31.855C4.11033 31.8494 4.00539 31.8328 3.83224 31.8138C3.74917 31.532 3.64005 31.2462 3.58179 30.9513C3.2297 29.1733 3.05695 27.3767 2.91893 25.5721C2.71148 22.8615 2.76688 20.1516 2.77679 17.439C2.78299 15.6749 2.77761 13.9012 2.5966 12.149C2.42717 10.5085 2.39823 8.87079 2.32508 7.22991C2.29409 6.5359 2.1383 5.84705 2.0511 5.15463C1.97713 4.56565 2.10195 4.44278 2.72017 4.36668C3.07061 4.32348 3.41442 4.22876 3.83676 4.14156C3.83676 4.83953 3.83717 5.49033 3.83676 6.14074C3.83552 8.00912 3.95742 9.87117 4.10908 11.7336C4.19421 12.776 4.1157 13.8303 4.18968 14.8743C4.26613 15.9583 4.41076 17.0403 4.57399 18.1168C4.83682 19.8508 4.8819 21.5963 4.92033 23.3415C4.96579 25.4163 4.96454 27.4916 4.99842 29.5665C5.00627 30.0584 5.08976 30.549 5.10835 31.0413C5.13687 31.7844 5.00088 31.8986 4.21571 31.855ZM12.1497 17.3899C10.6347 17.506 9.12227 17.6574 7.60646 17.7601C7.05808 17.7973 6.50266 17.7407 5.95055 17.7196C5.65301 17.7086 5.35589 17.6832 4.98769 17.6594C4.95008 17.4838 4.88602 17.2912 4.87073 17.0954C4.75213 15.5798 4.59052 14.0649 4.543 12.5473C4.46324 10.0024 4.49012 7.45464 4.40457 4.91008C4.37565 4.05912 4.91699 3.5518 5.36785 2.97432C5.47157 2.84154 5.74766 2.78764 5.9485 2.77733C7.08163 2.71947 8.2164 2.69371 9.34995 2.64059C9.79709 2.61998 10.2418 2.54824 10.6889 2.51614C10.9422 2.4979 11.198 2.51297 11.5422 2.51297C11.7484 3.36472 12.001 4.19269 12.141 5.03771C12.3159 6.09199 12.4146 7.15895 12.5142 8.22315C12.589 9.0206 12.6283 9.82162 12.6576 10.6218C12.725 12.4494 12.7766 14.2778 12.8345 16.1057C12.8399 16.2702 12.8407 16.4347 12.8523 16.5988C12.9014 17.2805 12.8353 17.3372 12.1497 17.3899ZM23.8245 10.384C23.767 11.9857 23.7633 13.5889 23.7278 15.1913C23.7208 15.4985 23.6993 15.8089 23.6439 16.1113C23.5711 16.5096 23.4145 16.6285 23.0013 16.6689C22.8736 16.6816 22.7443 16.6796 22.6162 16.688C19.8189 16.8687 17.022 17.0506 14.2247 17.229C13.9965 17.2432 13.7668 17.2306 13.4242 17.2306C13.3461 15.6436 13.2882 14.147 13.1944 12.6527C13.0709 10.6865 13.1114 8.71146 12.8266 6.7535C12.7031 5.90214 12.6469 5.04206 12.5336 4.18912C12.4828 3.80625 12.3328 3.43487 12.2898 3.0516C12.2394 2.60135 12.3254 2.55973 12.7969 2.45589C13.9705 2.19787 15.1569 2.1297 16.3583 2.12495C17.2344 2.12177 18.1092 1.99851 18.9861 1.95491C20.4581 1.88198 21.9314 1.82808 23.4674 1.99574C23.5067 2.18083 23.5666 2.37266 23.5869 2.56846C23.8534 5.1685 23.9179 7.77329 23.8245 10.384Z"/>
<path d="M34.6378 22.9422C34.1768 23.9805 33.5152 24.6524 32.5469 25.1493C32.0939 25.3816 31.8127 25.7464 31.5993 26.1794C30.4783 28.4539 31.6735 30.6686 34.4057 31.5037C38.2675 32.6848 42.2834 32.6904 46.4402 33.0404C49.014 32.8168 51.7782 32.6582 54.5163 32.3097C56.2103 32.0937 57.907 31.7125 59.4457 30.9245C60.8073 30.2275 62.1529 29.5147 62.6485 27.9371C63.2039 26.1691 61.7751 24.0813 59.9013 24.0133C59.618 24.003 59.4302 24.0015 59.2621 23.7354C57.6135 21.1251 55.7632 18.6142 54.3275 15.9016C51.735 11.0055 49.4536 5.95489 45.9797 1.53215C45.8245 1.33462 45.7546 1.03271 45.4531 1.03118C45.037 1.02862 45.0845 1.43288 44.9698 1.66827C44.5744 2.48189 44.2233 3.31496 43.8376 4.13319C40.8599 10.4436 37.4688 16.5683 34.6378 22.9422ZM36.2896 20.4057C37.1657 18.6664 38.0236 16.9184 38.928 15.1924C39.3655 14.3577 39.796 14.3322 40.4021 15.0997C41.3246 16.268 41.8955 17.5365 41.0451 18.9673C40.1636 20.4507 38.8858 21.4076 37.0473 21.4956C36.0618 21.5831 35.9098 21.16 36.2896 20.4057ZM59.6367 24.9001C60.1131 24.5449 60.8217 24.439 61.3312 25.0976C61.8317 25.7449 61.8626 26.275 61.0298 26.6583C60.2134 27.0334 59.3886 27.3911 58.6091 27.8465C59.7151 27.9223 60.6285 27.4412 61.5009 26.9259C62.0904 26.5775 62.2094 26.7489 62.1955 27.3021C62.1699 28.2922 61.5942 28.9825 60.8265 29.5413C58.8844 30.9547 56.5801 31.4127 54.2485 31.7954C52.0343 32.1587 49.786 32.1654 47.5606 32.4003C45.6831 32.5983 43.8242 32.2759 41.9675 32.1705C39.445 32.0283 36.9192 31.7084 34.4762 30.949C32.9726 30.4813 32.0768 29.6043 31.6719 28.1592C31.4862 27.497 31.7492 27.3496 32.3228 27.4632C33.0617 27.6101 33.7116 27.9714 34.3737 28.3106C35.1329 28.6995 35.9098 29.1555 36.8595 28.6612C35.3938 28.3388 34.1571 27.5564 32.8329 26.9592C32.5442 26.8292 32.0992 26.7965 32.0987 26.3922C32.0976 26.0028 32.4204 25.7741 32.7678 25.596C33.3899 25.2767 33.9656 25.2194 34.6848 25.4594C39.0688 26.9218 43.4913 28.2518 48.2227 28.0655C51.0553 27.9545 53.755 27.2821 56.3538 26.2234C57.4433 25.7797 58.6464 25.6385 59.6367 24.9001ZM49.4675 26.907C50.2534 24.1975 54.4256 22.755 56.3192 24.6432C56.4974 24.8213 56.6729 25.0019 56.8169 25.1482C56.8362 25.552 56.5342 25.6032 56.309 25.6963C54.2725 26.5401 52.1159 26.9756 49.9562 27.4008C49.5027 27.4898 49.3234 27.4034 49.4675 26.907ZM50.4241 9.61517C51.2159 11.0388 51.9169 12.5099 52.6335 13.9714C53.0518 14.8249 52.7615 15.1888 51.7302 15.1565C49.3714 15.0818 47.5889 12.4491 48.2691 9.96673C48.4516 9.30252 48.5194 8.33282 49.3656 8.24941C50.0282 8.18443 50.144 9.11165 50.4241 9.61517ZM44.9778 2.8278C45.3203 2.12112 45.5502 1.99421 46.0976 2.69679C47.1316 4.02469 47.9677 5.46415 48.871 6.86676C49.2071 7.38871 48.8534 7.65685 48.6378 8.01045C47.5862 9.73288 47.0954 11.4809 48.1566 13.3988C49.0257 14.9708 50.5196 15.8023 52.3731 15.5608C53.0875 15.4676 53.5138 15.6166 53.8708 16.2961C55.203 18.8317 56.9578 21.1277 58.4714 23.5619C59.037 24.4707 58.8278 24.9871 57.9443 25.0208C57.5388 25.0362 57.3569 24.7476 57.1163 24.5373C54.8466 22.5508 51.2255 23.0466 49.6099 25.5489C49.2034 26.1788 49.149 27.2125 48.3892 27.389C47.4016 27.6183 46.3031 27.5098 45.2648 27.4156C42.0497 27.1255 38.9936 26.1481 35.9087 25.3084C35.2412 25.1268 34.4756 24.9415 34.6901 23.9611C34.9254 22.8849 35.675 22.1312 36.5388 22.1501C39.2945 22.2095 41.8854 19.9564 41.8726 17.6936C41.9115 16.158 41.3145 15.0634 40.2752 14.2124C39.7864 13.8122 39.676 13.4924 39.9839 12.9434C41.8278 9.65407 43.3382 6.21125 44.9778 2.8278Z"/>
<path d="M55.5402 22.2304C56.2503 22.2304 56.2514 21.1717 55.5402 21.1717C54.8301 21.1717 54.829 22.2304 55.5402 22.2304Z"/>
<path d="M48.7082 17.6127C50.1845 17.8158 49.2525 19.6902 49.2423 20.4691C49.2364 20.8943 49.3319 21.3436 49.6371 21.6721C50.1269 22.1992 50.6514 22.0994 50.8477 21.4383C50.9213 21.1921 50.916 20.9245 50.9149 20.6722C50.9139 20.4875 50.7298 19.1437 51.5589 19.7271C51.7265 19.8453 51.5136 20.3683 51.8529 20.5382C52.9184 21.0709 52.7418 18.3224 53.6013 18.3342C53.859 18.3378 53.8558 17.9658 53.6013 17.952C53.1611 17.9289 52.8672 18.1177 52.6607 18.4979C52.5246 18.7477 52.5289 19.0434 52.475 19.3131C52.4585 19.4513 52.4265 19.5859 52.379 19.7174C51.9842 19.8709 51.8262 19.7767 51.9052 19.4344C51.7425 19.1965 51.7958 18.9124 51.4341 18.8157C51.1689 18.7446 50.9053 18.8761 50.7421 19.066C50.4108 19.4513 50.5265 20.0715 50.5281 20.5249C50.5473 20.7981 50.5308 21.0704 50.4785 21.3405C49.8484 21.4731 49.5507 21.2321 49.5848 20.6185C49.5251 20.137 49.7129 19.6498 49.7705 19.1749C49.8633 18.4161 49.7092 17.4776 48.7216 17.5165C48.6672 17.5185 48.6485 17.6045 48.7082 17.6127Z"/>
<path d="M45.738 5.96609C45.762 6.11449 45.9557 6.1938 46.0923 6.15901C46.4295 6.07304 46.7069 5.78648 46.6696 5.43494C46.6317 5.08134 46.2812 4.80605 45.9146 4.9089C45.634 4.98771 45.5902 5.28705 45.7428 5.46922C45.7082 5.62478 45.7092 5.78852 45.738 5.96609Z"/>
<path d="M45.9936 17.4955C45.586 17.4208 45.372 17.8322 45.5401 18.0927C45.5214 18.1787 45.5091 18.2657 45.5038 18.3675C45.491 18.6223 45.7668 18.7902 46.0059 18.7344C46.6883 18.5752 46.7048 17.6255 45.9936 17.4955Z"/>
<path d="M42.2247 11.2414C43.1925 11.2931 43.4299 11.7654 43.4961 12.6327C43.5425 13.2396 43.5703 13.8532 43.6476 14.4575C43.7042 14.9001 43.8146 15.4901 44.3706 15.5894C44.8284 15.6713 45.0748 15.3259 45.1554 14.9477C45.348 14.0471 44.3759 11.5704 45.8896 11.3877C46.2011 11.3504 46.1408 10.9139 45.8314 10.9789C45.181 11.1155 44.7441 11.3852 44.6886 12.0519C44.6389 12.6476 44.7483 13.2928 44.7809 13.8905C44.7926 14.1039 44.8854 14.4319 44.8161 14.6248C44.8545 14.9129 44.6261 14.9923 44.13 14.8618C44.0921 14.6735 44.0675 14.4831 44.0558 14.2917C43.9208 13.0754 44.1545 10.7721 42.2194 11.203C42.1959 11.2081 42.2028 11.2404 42.2247 11.2414Z"/>
<path d="M43.9219 22.1665C43.3724 22.9033 43.9747 23.9058 43.78 24.7025C43.8194 25.029 43.5559 25.1656 42.9887 25.1124C42.8815 24.9317 42.8185 24.7398 42.7993 24.5362C42.7412 24.2384 42.7502 23.9395 42.7406 23.6381C42.7273 23.2385 42.7268 22.8204 42.6409 22.4264C42.5224 21.8783 42.1377 21.3948 41.5071 21.6041C41.3316 21.6624 41.402 21.9234 41.5845 21.8737C42.5603 21.6056 42.3293 24.158 42.4045 24.5889C42.4829 25.0397 42.7252 25.6558 43.2635 25.7592C43.6626 25.836 43.9699 25.5704 44.0926 25.227C44.2057 24.9123 44.1326 24.5239 44.1172 24.2041C44.106 23.9805 44.0969 23.7574 44.0889 23.5337C44.083 23.3654 44.1204 21.5626 44.8134 22.3179C44.9682 22.4868 45.2877 22.2575 45.1426 22.0749C44.8006 21.643 44.242 21.7366 43.9219 22.1665Z"/>
<path d="M38.4291 23.3239C37.7094 23.3239 37.7078 24.397 38.4291 24.397C39.1494 24.397 39.1505 23.3239 38.4291 23.3239Z"/>
<path d="M80.6433 1.24609C80.0563 1.24704 79.4505 1.41464 78.888 1.3186C78.1899 1.19996 77.6922 1.39204 77.1052 1.72348C75.7563 2.4871 75.013 3.63018 74.7892 5.03595C74.5389 6.61122 74.3985 8.21285 74.3524 9.80694C74.2748 12.4707 74.3219 15.1382 74.2954 17.8038C74.2797 19.4638 74.2189 21.1238 74.1884 22.7838C74.1639 24.1444 75.0229 25.4692 76.305 25.8816C77.1002 26.1368 77.9475 26.2648 78.781 26.3863C79.6164 26.5078 80.4647 26.5501 81.3247 26.6283C81.3247 26.7318 81.3531 26.8335 81.3207 26.9117C80.6335 28.5679 79.9581 30.2298 79.2306 31.8701C79.0667 32.2401 78.8831 32.5339 79.3514 32.999C79.6518 32.7307 79.9257 32.5188 80.1574 32.2702C81.6614 30.6601 83.1664 29.051 84.6459 27.4211C85.0111 27.02 85.3979 26.8166 85.9663 26.7413C89.1883 26.3166 92.4281 26.5577 95.658 26.472C97.9062 26.4127 100.163 26.6415 102.416 26.729C102.905 26.7488 103.395 26.714 103.884 26.7045C104.732 26.6876 105.581 26.6462 106.429 26.6603C107.702 26.681 108.976 26.7168 110.247 26.793C111.041 26.842 111.615 26.5021 112.152 26.0125C113.017 25.2244 113.035 24.1604 113.155 23.1435C113.34 21.588 113.466 20.0269 113.633 18.4704C113.737 17.5044 113.893 16.5439 113.988 15.5779C114.185 13.5817 114.306 11.5771 114.553 9.58756C114.786 7.70628 114.859 5.85984 114.394 3.99174C113.946 2.18861 112.555 1.07755 110.626 1.09262C108.241 1.11051 105.857 1.08602 103.474 1.07284C101.708 1.06342 99.9433 1.03612 98.1781 1.03141C97.1012 1.02859 96.0242 1.0559 94.9482 1.06531C94.3278 1.07002 93.7073 1.0493 93.0878 1.06908C91.1607 1.12745 89.2345 1.23291 87.3064 1.25833C85.0857 1.28752 82.864 1.24233 80.6433 1.24609ZM91.41 1.70559C92.2907 1.67451 93.1722 1.63403 94.0529 1.63497C96.1106 1.63685 98.1683 1.6651 100.226 1.67545C101.859 1.68487 103.491 1.65945 105.124 1.6924C107.116 1.73289 109.107 1.79974 111.097 1.89107C112.399 1.95039 113.165 2.69425 113.567 3.83638C114.08 5.29489 114.066 6.80047 113.962 8.30606C113.879 9.52635 113.735 10.7429 113.612 11.9594C113.41 13.9565 113.23 15.9555 112.99 17.9478C112.817 19.3762 112.552 20.7942 112.345 22.2189C112.247 22.8855 112.229 23.5644 112.105 24.2263C111.861 25.5351 111.423 25.8957 110.037 26.0144C109.777 26.036 109.514 26.02 109.252 26.0191C106.278 26.0115 103.304 26.02 100.33 25.9918C97.0295 25.9616 93.7299 25.8835 90.4293 25.8581C89.3857 25.8505 88.3401 25.9729 87.2956 25.9899C86.6839 25.9993 86.0674 25.9475 85.4607 25.8694C85.0818 25.8213 84.9099 25.9372 84.6714 26.229C83.35 27.8542 81.9775 29.4417 80.6227 31.0415C80.5363 30.9803 80.4489 30.9191 80.3625 30.8579C80.9064 29.6234 81.4336 28.3824 82.003 27.1603C82.1974 26.7441 82.3996 26.3656 82.113 25.9174C80.6973 25.7667 79.2777 25.6274 77.8611 25.4617C76.0429 25.2479 74.9817 24.1858 74.9002 22.732C74.8845 22.4505 74.8452 22.1689 74.8472 21.8874C74.8727 18.1559 74.8697 14.4245 74.9483 10.6939C74.9856 8.90962 75.123 7.12156 75.3302 5.34762C75.4107 4.6565 75.7347 3.96349 76.0743 3.33452C76.5446 2.46638 77.329 2.05962 78.3981 2.04455C79.9974 2.02195 81.5936 1.85153 83.1929 1.81387C84.6576 1.77809 86.1254 1.85907 87.5911 1.84306C88.8644 1.82988 90.1367 1.74984 91.41 1.70559Z"/>
<path d="M142.471 8.23785C142.238 7.42897 142.167 6.57831 141.957 5.76217C141.547 4.17133 140.934 2.6516 140.114 1.20852C139.912 0.852581 139.646 0.693763 139.236 0.715513C138.677 0.745203 138.118 0.753496 137.56 0.791471C135.769 0.912994 133.978 1.04317 132.187 1.17332C132.034 1.18471 131.874 1.19677 131.732 1.24786C130.418 1.72152 129.041 1.80886 127.661 1.86514C127.317 1.87929 126.97 1.83477 126.625 1.8144C126.232 1.79127 126.037 1.92868 126.121 2.33744C126.314 3.2751 126.496 4.21447 126.685 5.15282C126.707 5.26157 126.738 5.36893 126.77 5.47527C126.988 6.1975 127.272 6.90764 127.414 7.64333C127.712 9.18135 127.955 10.7301 128.181 12.2799C128.298 13.0839 128.326 13.8997 128.401 14.7096C128.508 15.8634 128.748 17.022 128.699 18.1688C128.633 19.6924 128.376 21.2118 128.131 22.7222C128.037 23.306 127.818 23.8935 127.539 24.4224C127.063 25.3235 126.471 26.1887 125.516 26.6765C124.512 27.1898 123.447 27.5965 122.402 28.0353C121.228 28.5283 120.032 28.9768 118.877 29.5071C118.543 29.6603 118.284 30.0052 118.049 30.3042C117.847 30.5607 117.801 30.9643 117.559 31.1497C117.014 31.5664 117.214 32.0673 117.324 32.5189C117.435 32.9756 117.922 32.8997 118.299 32.909C119.707 32.9439 121.115 32.9698 122.523 32.9988C122.526 32.9736 122.528 32.9483 122.531 32.9231C123.603 32.8558 124.674 32.7809 125.747 32.7226C127.762 32.6128 129.778 32.4985 131.795 32.4174C132.316 32.3963 132.449 32.1688 132.457 31.7259C132.466 31.1963 132.425 30.6349 132.589 30.1444C132.98 28.983 133.794 28.1171 134.931 27.5492C135.571 27.2302 136.399 27.3407 136.888 27.8603C137.716 28.7417 137.974 29.8688 138.211 30.9795C138.444 32.0725 138.447 32.1198 139.6 32.0963C139.658 32.0953 139.716 32.0929 139.774 32.0908C140.144 32.078 140.341 31.9289 140.316 31.5394C140.25 30.5141 140.146 29.4867 140.16 28.4613C140.18 26.9402 139.936 25.3967 140.553 23.9132C140.836 23.2341 141.008 22.5133 141.252 21.8183C141.642 20.7067 142.164 19.6247 142.422 18.4865C142.731 17.1242 142.863 15.7194 142.989 14.326C143.046 13.6953 142.87 13.0487 142.857 12.4083C142.828 11.009 142.867 9.61223 142.471 8.23785ZM128.526 10.9552C127.952 8.32554 127.314 5.40278 126.69 2.55011C128.619 2.30189 130.459 2.06505 132.21 1.83962C131.382 3.2537 130.322 4.67365 129.69 6.25137C129.057 7.82978 128.853 9.56562 128.526 10.9552ZM129.222 17.0058C129.197 15.8126 128.959 14.625 128.91 13.4312C128.881 12.7287 129.034 12.0192 129.108 11.2794C130.058 11.375 130.585 10.9697 130.892 10.2378C130.947 10.2516 131.004 10.2654 131.059 10.2792C131.027 10.641 131.073 11.0294 130.949 11.3601C130.441 12.721 129.874 14.0623 129.343 15.416C129.104 16.0236 129.419 16.5518 129.744 17.0147C130.018 17.4076 130.779 17.3296 131.118 16.9505C131.277 16.7734 131.426 16.5884 131.647 16.326C131.916 16.9443 131.849 17.4877 131.674 18.0273C131.417 18.8155 131.131 19.5947 130.879 20.3839C130.693 20.9666 130.687 21.538 131.299 21.9109C131.845 22.243 132.397 22.1553 132.922 21.8277C132.986 21.7879 133.059 21.7607 133.131 21.7382C133.163 21.7286 133.204 21.7448 133.241 21.7493C133.41 23.4489 129.872 26.1231 127.767 25.2952C129.025 22.6555 129.281 19.8498 129.222 17.0058ZM131.72 31.8854C131.528 32.0166 131.259 32.0936 131.02 32.1022C129.285 32.1643 127.55 32.1923 125.815 32.2531C124.299 32.3059 122.784 32.3873 121.268 32.4564C121.266 32.4688 121.264 32.4816 121.263 32.494C120.299 32.474 119.335 32.4591 118.372 32.4308C118.116 32.4232 117.783 32.4795 117.779 32.0815C117.776 31.6924 118.07 31.661 118.381 31.6527C119.557 31.6209 120.734 31.6047 121.908 31.545C123.98 31.44 126.052 31.3137 128.122 31.1838C129.002 31.1286 129.879 31.0313 130.758 30.9743C131.042 30.956 131.341 30.9698 131.614 31.0382C131.751 31.073 131.932 31.2588 131.939 31.3841C131.948 31.5525 131.856 31.7928 131.72 31.8854ZM139.728 31.6575C139.482 31.5992 139.236 31.5408 138.989 31.4828C139.021 31.3896 139.063 31.2142 139.083 31.2163C139.326 31.2436 139.566 31.2971 139.807 31.3437C139.781 31.4483 139.754 31.5529 139.728 31.6575ZM141.427 19.8988C141.201 20.6556 140.901 21.3923 140.633 22.1377C140.364 22.8851 140.077 23.6267 139.834 24.3817C139.722 24.7276 139.698 25.0995 139.597 25.6663C139.253 25.3201 138.919 25.1129 138.78 24.8205C138.26 23.7227 138.193 22.583 138.604 21.4261C138.683 21.2038 138.694 20.9591 138.735 20.7295C139.678 20.7095 140.338 20.2044 140.506 19.3696C140.532 19.2387 140.465 19.0862 140.423 18.9488C140.141 18.0342 139.977 17.1186 140.304 16.2552C140.935 16.3781 141.516 16.491 142.309 16.6453C142.023 17.7121 141.752 18.8131 141.427 19.8988ZM142.462 14.6961C142.453 15.0383 142.308 15.456 142.066 15.6904C141.861 15.8903 141.419 15.9621 141.103 15.9231C140.941 15.9031 140.809 15.5257 140.699 15.2941C140.63 15.1463 140.627 14.9696 140.595 14.8059C140.52 14.7973 140.445 14.7887 140.37 14.7804C140.218 15.1056 140.033 15.4208 139.922 15.7588C139.633 16.6388 139.582 17.534 139.784 18.4454C139.855 18.7665 139.889 19.1103 139.853 19.4345C139.789 20.0041 139.358 20.2023 138.821 19.9406C138.584 19.8249 138.365 19.7297 138.316 20.0925C138.167 21.2042 137.914 22.3189 137.929 23.4299C137.942 24.3534 138.25 25.2834 139.175 25.851C139.482 26.0395 139.621 26.2943 139.634 26.6768C139.673 27.8368 139.788 28.994 139.837 30.1537C139.845 30.3353 139.627 30.6923 139.578 30.6822C139.244 30.6125 138.788 30.8624 138.601 30.3401C138.336 29.5972 138.059 28.8539 137.718 28.1403C137.11 26.866 135.562 26.5871 134.353 27.2561C133.238 27.8734 132.565 28.7841 132.1 29.8764C131.907 30.3315 131.619 30.4903 131.096 30.5165C129.098 30.6173 127.104 30.8024 125.106 30.9118C123.011 31.0268 120.914 31.0999 118.816 31.1724C118.265 31.1918 118.192 31.0599 118.519 30.6128C118.719 30.3397 118.977 30.0491 119.281 29.9127C120.424 29.3997 121.605 28.9661 122.754 28.4658C123.918 27.9594 125.066 27.4204 126.207 26.8687C126.454 26.7496 126.69 26.5467 126.842 26.326C127.174 25.8438 127.63 25.8407 128.151 25.8714C130.656 26.0188 132.349 24.7756 133.553 22.8271C133.852 22.3427 133.916 21.711 134.017 21.1355C134.056 20.9207 133.894 20.6739 133.823 20.4415C133.757 20.4163 133.691 20.3911 133.626 20.3659C133.327 20.6798 133.035 20.9998 132.728 21.3057C132.374 21.6581 131.904 21.7172 131.509 21.489C131.118 21.2632 131.241 20.8368 131.373 20.4771C131.633 19.7687 131.917 19.0678 132.16 18.3539C132.503 17.3465 132.272 16.3864 131.816 15.4633C131.771 15.3707 131.579 15.2689 131.489 15.2917C131.368 15.3217 131.238 15.4536 131.186 15.5717C131.068 15.842 131.048 16.1627 130.888 16.4013C130.772 16.5728 130.506 16.6937 130.286 16.7375C130.196 16.7554 130.032 16.5207 129.933 16.3809C129.668 16.0087 129.736 15.6521 129.915 15.2402C130.454 14.0057 130.975 12.7614 131.424 11.4951C131.727 10.6372 131.454 9.77585 131.17 8.94487C131.137 8.84717 130.991 8.78469 130.897 8.70597C130.806 8.80989 130.67 8.90104 130.633 9.02049C130.511 9.41786 130.444 9.83146 130.312 10.2257C130.265 10.3669 130.113 10.5053 129.972 10.5806C129.805 10.6693 129.575 10.7591 129.416 10.7121C129.31 10.6814 129.244 10.4145 129.228 10.2471C129.211 10.0683 129.255 9.87805 129.302 9.69991C129.646 8.38353 129.951 7.05508 130.37 5.76079C130.54 5.23465 130.957 4.77997 131.272 4.29975C131.679 3.68074 132.013 2.98784 132.538 2.47931C132.935 2.09472 133.56 1.86791 134.125 1.71359C135.595 1.31174 137.105 1.23475 138.638 1.242C139.377 1.24579 139.788 1.51231 140.014 2.06365C140.551 3.38072 141.093 4.70332 141.503 6.0594C142.143 8.17431 142.344 10.3555 142.337 12.5574C142.335 13.2703 142.479 13.9846 142.462 14.6961Z"/>
<path d="M138.233 7.16936C137.825 7.15693 137.397 7.62886 137.372 8.11875C137.344 8.67734 137.829 9.3295 138.291 9.35263C138.813 9.37921 139.198 8.88863 139.216 8.17192C139.23 7.61057 138.815 7.18731 138.233 7.16936ZM138.316 8.80025C138.216 8.62177 138.049 8.44602 138.041 8.26339C138.035 8.15153 138.254 7.97548 138.405 7.93164C138.488 7.90747 138.639 8.097 138.842 8.25408C138.615 8.48988 138.465 8.6449 138.316 8.80025Z"/>
<path d="M138.248 11.424C137.657 11.3919 137.309 11.6674 137.268 12.2022C137.225 12.7466 137.649 13.2644 138.166 13.3003C138.769 13.3418 139.074 13.0428 139.113 12.373C139.153 11.6819 138.952 11.462 138.248 11.424ZM138.21 12.7656C138.114 12.615 137.949 12.4666 137.945 12.3137C137.942 12.1966 138.142 12.0748 138.251 11.955C138.375 12.0748 138.499 12.1949 138.689 12.3789C138.465 12.5591 138.338 12.6623 138.21 12.7656Z"/>
<path d="M138.031 6.08288C138.477 6.09186 139.055 5.458 139.035 4.98124C139.022 4.64083 138.376 4.08913 137.98 4.07877C137.554 4.06807 137.143 4.57524 137.14 5.11485C137.136 5.66101 137.515 6.07218 138.031 6.08288ZM138.229 4.80552C138.223 5.05754 138.217 5.30921 138.212 5.56089C138.09 5.57055 137.968 5.58021 137.846 5.58988C137.805 5.34373 137.764 5.09756 137.724 4.85106C137.892 4.83587 138.06 4.82071 138.229 4.80552Z"/>
<path d="M135.183 29.5084C135.013 29.3641 134.875 29.2019 134.698 29.1076C134.515 29.0106 134.236 28.8784 134.103 28.9471C133.948 29.0279 133.832 29.3047 133.823 29.5019C133.773 30.5932 134.48 31.3565 135.111 32.2537C135.707 31.4045 136.413 30.7188 136.403 29.709C136.4 29.4387 136.239 29.1701 136.126 28.8269C135.72 29.1204 135.45 29.3151 135.183 29.5084ZM135.146 31.4421C134.573 30.8486 134.241 30.3111 134.466 29.5195C134.595 29.6803 134.732 29.8361 134.851 30.0038C134.959 30.1571 135.047 30.3235 135.145 30.4844C135.272 30.3656 135.404 30.2521 135.524 30.1271C135.623 30.0235 135.707 29.9068 135.797 29.7957C135.85 29.8212 135.903 29.8467 135.956 29.8723C135.699 30.3705 135.442 30.869 135.146 31.4421Z"/>
</mask>
<path d="M25.5775 16.8148C26.6383 16.7098 27.7062 16.6697 28.769 16.5798C29.1715 16.5457 29.5699 16.4561 29.9666 16.3744C30.3452 16.2964 30.5493 16.0375 30.6158 15.69C30.6576 15.4696 30.6568 15.2401 30.6609 15.0146C30.7002 12.8977 30.7489 10.7808 30.7675 8.6635C30.7758 7.74 30.6993 6.81572 30.7014 5.89184C30.7039 4.88551 30.7543 3.87957 30.7799 2.87325C30.7898 2.4872 30.8039 2.09838 30.5956 1.76069C29.8166 1.78606 29.0695 1.8479 28.3248 1.8253C27.2776 1.7936 26.2317 1.70363 25.1857 1.6311C24.727 1.59899 24.2377 1.64893 23.9014 1.19709C23.3765 1.63981 22.7748 1.60494 22.1768 1.59107C21.5574 1.5768 20.9367 1.53954 20.3185 1.56015C18.7163 1.61445 17.1145 1.68143 15.514 1.76863C13.9763 1.85265 12.4419 1.98345 10.9046 2.06549C9.34499 2.14912 7.78374 2.20976 6.22248 2.25692C5.49681 2.27872 5.40796 2.18916 5.20299 1.51259C4.92115 0.581172 3.81406 -0.132259 2.83176 0.0207309C1.82095 0.178477 0.977913 0.639827 0.350598 1.42816C-0.0568679 1.94064 -0.136625 2.85383 0.257616 3.28069C0.644419 3.70003 0.948567 4.23866 1.6887 4.35717C1.6887 4.82446 1.63827 5.2763 1.69778 5.71426C1.89201 7.14429 1.98622 8.57669 1.9668 10.0186C1.96101 10.4685 2.0222 10.9199 2.06394 11.3698C2.15113 12.3111 2.30319 13.2504 2.32633 14.1929C2.37055 16.0213 2.34659 17.8512 2.34659 19.6804C2.34618 22.412 2.26806 25.1452 2.63998 27.8654C2.84744 29.3861 3.02763 30.9101 3.23177 32.5224C3.35451 32.5224 3.53591 32.5296 3.71609 32.5209C4.14174 32.501 4.56697 32.4519 4.99221 32.4551C5.53398 32.4586 5.7303 32.2236 5.69352 31.6865C5.60674 30.4182 5.55135 29.1479 5.49598 27.8777C5.48151 27.5503 5.53441 27.2201 5.5216 26.8923C5.42986 24.5725 5.3315 22.2531 5.22902 19.9336C5.21455 19.6059 5.14636 19.2801 5.13479 18.9523C5.11991 18.5381 5.2228 18.4624 5.64639 18.4248C6.40925 18.3566 7.17131 18.2773 7.9321 18.1901C9.22806 18.0419 10.5199 17.8477 11.82 17.7494C12.2861 17.7137 12.8246 17.5912 13.175 17.8952C13.5651 17.7906 13.8961 17.6535 14.2383 17.6182C15.5586 17.483 16.881 17.3649 18.2051 17.2698C19.4416 17.1806 20.68 17.0899 21.9186 17.0748C22.5777 17.0665 23.2645 16.7779 23.9096 17.166C23.9452 17.1874 24.0261 17.1362 24.0865 17.1231C24.5832 17.0165 25.0746 16.8643 25.5775 16.8148ZM24.1563 2.09522C24.4638 2.07065 24.7349 2.02268 25.0043 2.0318C26.4784 2.08095 27.9516 2.14476 29.4253 2.20263C29.5323 2.20659 29.6402 2.19867 29.7468 2.2058C30.1745 2.23474 30.2699 2.30727 30.2852 2.73017C30.3092 3.38731 30.3129 4.04565 30.3034 4.70279C30.2724 6.87993 30.1873 9.05706 30.2121 11.2334C30.227 12.5081 30.1956 13.7748 30.0902 15.0439C30.029 15.776 29.934 15.9202 29.186 16.097C28.8963 16.1652 28.5983 16.2084 28.3016 16.2409C27.8359 16.2912 27.3685 16.3269 26.9015 16.3614C26.0502 16.424 25.1985 16.4815 24.2423 16.548C24.222 15.8374 24.1782 15.2048 24.1898 14.5734C24.2385 11.9456 24.32 9.31786 24.3535 6.69008C24.3621 5.97665 24.2489 5.26124 24.1836 4.54742C24.1109 3.75116 24.0642 2.95609 24.1563 2.09522ZM1.5709 3.81061C0.877464 3.69964 0.34811 2.59858 0.6316 1.98384C0.963441 1.26408 1.60437 0.915684 2.33541 0.68382C3.34871 0.362382 3.82686 0.564525 4.30954 1.10554C4.92817 1.79915 4.92195 2.60017 4.412 3.3235C4.05082 3.42497 3.76278 3.44518 3.54954 3.57716C2.92016 3.96637 2.2383 3.91723 1.5709 3.81061ZM4.21571 31.855C4.11033 31.8494 4.00539 31.8328 3.83224 31.8138C3.74917 31.532 3.64005 31.2462 3.58179 30.9513C3.2297 29.1733 3.05695 27.3767 2.91893 25.5721C2.71148 22.8615 2.76688 20.1516 2.77679 17.439C2.78299 15.6749 2.77761 13.9012 2.5966 12.149C2.42717 10.5085 2.39823 8.87079 2.32508 7.22991C2.29409 6.5359 2.1383 5.84705 2.0511 5.15463C1.97713 4.56565 2.10195 4.44278 2.72017 4.36668C3.07061 4.32348 3.41442 4.22876 3.83676 4.14156C3.83676 4.83953 3.83717 5.49033 3.83676 6.14074C3.83552 8.00912 3.95742 9.87117 4.10908 11.7336C4.19421 12.776 4.1157 13.8303 4.18968 14.8743C4.26613 15.9583 4.41076 17.0403 4.57399 18.1168C4.83682 19.8508 4.8819 21.5963 4.92033 23.3415C4.96579 25.4163 4.96454 27.4916 4.99842 29.5665C5.00627 30.0584 5.08976 30.549 5.10835 31.0413C5.13687 31.7844 5.00088 31.8986 4.21571 31.855ZM12.1497 17.3899C10.6347 17.506 9.12227 17.6574 7.60646 17.7601C7.05808 17.7973 6.50266 17.7407 5.95055 17.7196C5.65301 17.7086 5.35589 17.6832 4.98769 17.6594C4.95008 17.4838 4.88602 17.2912 4.87073 17.0954C4.75213 15.5798 4.59052 14.0649 4.543 12.5473C4.46324 10.0024 4.49012 7.45464 4.40457 4.91008C4.37565 4.05912 4.91699 3.5518 5.36785 2.97432C5.47157 2.84154 5.74766 2.78764 5.9485 2.77733C7.08163 2.71947 8.2164 2.69371 9.34995 2.64059C9.79709 2.61998 10.2418 2.54824 10.6889 2.51614C10.9422 2.4979 11.198 2.51297 11.5422 2.51297C11.7484 3.36472 12.001 4.19269 12.141 5.03771C12.3159 6.09199 12.4146 7.15895 12.5142 8.22315C12.589 9.0206 12.6283 9.82162 12.6576 10.6218C12.725 12.4494 12.7766 14.2778 12.8345 16.1057C12.8399 16.2702 12.8407 16.4347 12.8523 16.5988C12.9014 17.2805 12.8353 17.3372 12.1497 17.3899ZM23.8245 10.384C23.767 11.9857 23.7633 13.5889 23.7278 15.1913C23.7208 15.4985 23.6993 15.8089 23.6439 16.1113C23.5711 16.5096 23.4145 16.6285 23.0013 16.6689C22.8736 16.6816 22.7443 16.6796 22.6162 16.688C19.8189 16.8687 17.022 17.0506 14.2247 17.229C13.9965 17.2432 13.7668 17.2306 13.4242 17.2306C13.3461 15.6436 13.2882 14.147 13.1944 12.6527C13.0709 10.6865 13.1114 8.71146 12.8266 6.7535C12.7031 5.90214 12.6469 5.04206 12.5336 4.18912C12.4828 3.80625 12.3328 3.43487 12.2898 3.0516C12.2394 2.60135 12.3254 2.55973 12.7969 2.45589C13.9705 2.19787 15.1569 2.1297 16.3583 2.12495C17.2344 2.12177 18.1092 1.99851 18.9861 1.95491C20.4581 1.88198 21.9314 1.82808 23.4674 1.99574C23.5067 2.18083 23.5666 2.37266 23.5869 2.56846C23.8534 5.1685 23.9179 7.77329 23.8245 10.384Z" fill="#251C1C"/>
<path d="M34.6378 22.9422C34.1768 23.9805 33.5152 24.6524 32.5469 25.1493C32.0939 25.3816 31.8127 25.7464 31.5993 26.1794C30.4783 28.4539 31.6735 30.6686 34.4057 31.5037C38.2675 32.6848 42.2834 32.6904 46.4402 33.0404C49.014 32.8168 51.7782 32.6582 54.5163 32.3097C56.2103 32.0937 57.907 31.7125 59.4457 30.9245C60.8073 30.2275 62.1529 29.5147 62.6485 27.9371C63.2039 26.1691 61.7751 24.0813 59.9013 24.0133C59.618 24.003 59.4302 24.0015 59.2621 23.7354C57.6135 21.1251 55.7632 18.6142 54.3275 15.9016C51.735 11.0055 49.4536 5.95489 45.9797 1.53215C45.8245 1.33462 45.7546 1.03271 45.4531 1.03118C45.037 1.02862 45.0845 1.43288 44.9698 1.66827C44.5744 2.48189 44.2233 3.31496 43.8376 4.13319C40.8599 10.4436 37.4688 16.5683 34.6378 22.9422ZM36.2896 20.4057C37.1657 18.6664 38.0236 16.9184 38.928 15.1924C39.3655 14.3577 39.796 14.3322 40.4021 15.0997C41.3246 16.268 41.8955 17.5365 41.0451 18.9673C40.1636 20.4507 38.8858 21.4076 37.0473 21.4956C36.0618 21.5831 35.9098 21.16 36.2896 20.4057ZM59.6367 24.9001C60.1131 24.5449 60.8217 24.439 61.3312 25.0976C61.8317 25.7449 61.8626 26.275 61.0298 26.6583C60.2134 27.0334 59.3886 27.3911 58.6091 27.8465C59.7151 27.9223 60.6285 27.4412 61.5009 26.9259C62.0904 26.5775 62.2094 26.7489 62.1955 27.3021C62.1699 28.2922 61.5942 28.9825 60.8265 29.5413C58.8844 30.9547 56.5801 31.4127 54.2485 31.7954C52.0343 32.1587 49.786 32.1654 47.5606 32.4003C45.6831 32.5983 43.8242 32.2759 41.9675 32.1705C39.445 32.0283 36.9192 31.7084 34.4762 30.949C32.9726 30.4813 32.0768 29.6043 31.6719 28.1592C31.4862 27.497 31.7492 27.3496 32.3228 27.4632C33.0617 27.6101 33.7116 27.9714 34.3737 28.3106C35.1329 28.6995 35.9098 29.1555 36.8595 28.6612C35.3938 28.3388 34.1571 27.5564 32.8329 26.9592C32.5442 26.8292 32.0992 26.7965 32.0987 26.3922C32.0976 26.0028 32.4204 25.7741 32.7678 25.596C33.3899 25.2767 33.9656 25.2194 34.6848 25.4594C39.0688 26.9218 43.4913 28.2518 48.2227 28.0655C51.0553 27.9545 53.755 27.2821 56.3538 26.2234C57.4433 25.7797 58.6464 25.6385 59.6367 24.9001ZM49.4675 26.907C50.2534 24.1975 54.4256 22.755 56.3192 24.6432C56.4974 24.8213 56.6729 25.0019 56.8169 25.1482C56.8362 25.552 56.5342 25.6032 56.309 25.6963C54.2725 26.5401 52.1159 26.9756 49.9562 27.4008C49.5027 27.4898 49.3234 27.4034 49.4675 26.907ZM50.4241 9.61517C51.2159 11.0388 51.9169 12.5099 52.6335 13.9714C53.0518 14.8249 52.7615 15.1888 51.7302 15.1565C49.3714 15.0818 47.5889 12.4491 48.2691 9.96673C48.4516 9.30252 48.5194 8.33282 49.3656 8.24941C50.0282 8.18443 50.144 9.11165 50.4241 9.61517ZM44.9778 2.8278C45.3203 2.12112 45.5502 1.99421 46.0976 2.69679C47.1316 4.02469 47.9677 5.46415 48.871 6.86676C49.2071 7.38871 48.8534 7.65685 48.6378 8.01045C47.5862 9.73288 47.0954 11.4809 48.1566 13.3988C49.0257 14.9708 50.5196 15.8023 52.3731 15.5608C53.0875 15.4676 53.5138 15.6166 53.8708 16.2961C55.203 18.8317 56.9578 21.1277 58.4714 23.5619C59.037 24.4707 58.8278 24.9871 57.9443 25.0208C57.5388 25.0362 57.3569 24.7476 57.1163 24.5373C54.8466 22.5508 51.2255 23.0466 49.6099 25.5489C49.2034 26.1788 49.149 27.2125 48.3892 27.389C47.4016 27.6183 46.3031 27.5098 45.2648 27.4156C42.0497 27.1255 38.9936 26.1481 35.9087 25.3084C35.2412 25.1268 34.4756 24.9415 34.6901 23.9611C34.9254 22.8849 35.675 22.1312 36.5388 22.1501C39.2945 22.2095 41.8854 19.9564 41.8726 17.6936C41.9115 16.158 41.3145 15.0634 40.2752 14.2124C39.7864 13.8122 39.676 13.4924 39.9839 12.9434C41.8278 9.65407 43.3382 6.21125 44.9778 2.8278Z" fill="#251C1C"/>
<path d="M55.5402 22.2304C56.2503 22.2304 56.2514 21.1717 55.5402 21.1717C54.8301 21.1717 54.829 22.2304 55.5402 22.2304Z" fill="#251C1C"/>
<path d="M48.7082 17.6127C50.1845 17.8158 49.2525 19.6902 49.2423 20.4691C49.2364 20.8943 49.3319 21.3436 49.6371 21.6721C50.1269 22.1992 50.6514 22.0994 50.8477 21.4383C50.9213 21.1921 50.916 20.9245 50.9149 20.6722C50.9139 20.4875 50.7298 19.1437 51.5589 19.7271C51.7265 19.8453 51.5136 20.3683 51.8529 20.5382C52.9184 21.0709 52.7418 18.3224 53.6013 18.3342C53.859 18.3378 53.8558 17.9658 53.6013 17.952C53.1611 17.9289 52.8672 18.1177 52.6607 18.4979C52.5246 18.7477 52.5289 19.0434 52.475 19.3131C52.4585 19.4513 52.4265 19.5859 52.379 19.7174C51.9842 19.8709 51.8262 19.7767 51.9052 19.4344C51.7425 19.1965 51.7958 18.9124 51.4341 18.8157C51.1689 18.7446 50.9053 18.8761 50.7421 19.066C50.4108 19.4513 50.5265 20.0715 50.5281 20.5249C50.5473 20.7981 50.5308 21.0704 50.4785 21.3405C49.8484 21.4731 49.5507 21.2321 49.5848 20.6185C49.5251 20.137 49.7129 19.6498 49.7705 19.1749C49.8633 18.4161 49.7092 17.4776 48.7216 17.5165C48.6672 17.5185 48.6485 17.6045 48.7082 17.6127Z" fill="#251C1C"/>
<path d="M45.738 5.96609C45.762 6.11449 45.9557 6.1938 46.0923 6.15901C46.4295 6.07304 46.7069 5.78648 46.6696 5.43494C46.6317 5.08134 46.2812 4.80605 45.9146 4.9089C45.634 4.98771 45.5902 5.28705 45.7428 5.46922C45.7082 5.62478 45.7092 5.78852 45.738 5.96609Z" fill="#251C1C"/>
<path d="M45.9936 17.4955C45.586 17.4208 45.372 17.8322 45.5401 18.0927C45.5214 18.1787 45.5091 18.2657 45.5038 18.3675C45.491 18.6223 45.7668 18.7902 46.0059 18.7344C46.6883 18.5752 46.7048 17.6255 45.9936 17.4955Z" fill="#251C1C"/>
<path d="M42.2247 11.2414C43.1925 11.2931 43.4299 11.7654 43.4961 12.6327C43.5425 13.2396 43.5703 13.8532 43.6476 14.4575C43.7042 14.9001 43.8146 15.4901 44.3706 15.5894C44.8284 15.6713 45.0748 15.3259 45.1554 14.9477C45.348 14.0471 44.3759 11.5704 45.8896 11.3877C46.2011 11.3504 46.1408 10.9139 45.8314 10.9789C45.181 11.1155 44.7441 11.3852 44.6886 12.0519C44.6389 12.6476 44.7483 13.2928 44.7809 13.8905C44.7926 14.1039 44.8854 14.4319 44.8161 14.6248C44.8545 14.9129 44.6261 14.9923 44.13 14.8618C44.0921 14.6735 44.0675 14.4831 44.0558 14.2917C43.9208 13.0754 44.1545 10.7721 42.2194 11.203C42.1959 11.2081 42.2028 11.2404 42.2247 11.2414Z" fill="#251C1C"/>
<path d="M43.9219 22.1665C43.3724 22.9033 43.9747 23.9058 43.78 24.7025C43.8194 25.029 43.5559 25.1656 42.9887 25.1124C42.8815 24.9317 42.8185 24.7398 42.7993 24.5362C42.7412 24.2384 42.7502 23.9395 42.7406 23.6381C42.7273 23.2385 42.7268 22.8204 42.6409 22.4264C42.5224 21.8783 42.1377 21.3948 41.5071 21.6041C41.3316 21.6624 41.402 21.9234 41.5845 21.8737C42.5603 21.6056 42.3293 24.158 42.4045 24.5889C42.4829 25.0397 42.7252 25.6558 43.2635 25.7592C43.6626 25.836 43.9699 25.5704 44.0926 25.227C44.2057 24.9123 44.1326 24.5239 44.1172 24.2041C44.106 23.9805 44.0969 23.7574 44.0889 23.5337C44.083 23.3654 44.1204 21.5626 44.8134 22.3179C44.9682 22.4868 45.2877 22.2575 45.1426 22.0749C44.8006 21.643 44.242 21.7366 43.9219 22.1665Z" fill="#251C1C"/>
<path d="M38.4291 23.3239C37.7094 23.3239 37.7078 24.397 38.4291 24.397C39.1494 24.397 39.1505 23.3239 38.4291 23.3239Z" fill="#251C1C"/>
<path d="M80.6433 1.24609C80.0563 1.24704 79.4505 1.41464 78.888 1.3186C78.1899 1.19996 77.6922 1.39204 77.1052 1.72348C75.7563 2.4871 75.013 3.63018 74.7892 5.03595C74.5389 6.61122 74.3985 8.21285 74.3524 9.80694C74.2748 12.4707 74.3219 15.1382 74.2954 17.8038C74.2797 19.4638 74.2189 21.1238 74.1884 22.7838C74.1639 24.1444 75.0229 25.4692 76.305 25.8816C77.1002 26.1368 77.9475 26.2648 78.781 26.3863C79.6164 26.5078 80.4647 26.5501 81.3247 26.6283C81.3247 26.7318 81.3531 26.8335 81.3207 26.9117C80.6335 28.5679 79.9581 30.2298 79.2306 31.8701C79.0667 32.2401 78.8831 32.5339 79.3514 32.999C79.6518 32.7307 79.9257 32.5188 80.1574 32.2702C81.6614 30.6601 83.1664 29.051 84.6459 27.4211C85.0111 27.02 85.3979 26.8166 85.9663 26.7413C89.1883 26.3166 92.4281 26.5577 95.658 26.472C97.9062 26.4127 100.163 26.6415 102.416 26.729C102.905 26.7488 103.395 26.714 103.884 26.7045C104.732 26.6876 105.581 26.6462 106.429 26.6603C107.702 26.681 108.976 26.7168 110.247 26.793C111.041 26.842 111.615 26.5021 112.152 26.0125C113.017 25.2244 113.035 24.1604 113.155 23.1435C113.34 21.588 113.466 20.0269 113.633 18.4704C113.737 17.5044 113.893 16.5439 113.988 15.5779C114.185 13.5817 114.306 11.5771 114.553 9.58756C114.786 7.70628 114.859 5.85984 114.394 3.99174C113.946 2.18861 112.555 1.07755 110.626 1.09262C108.241 1.11051 105.857 1.08602 103.474 1.07284C101.708 1.06342 99.9433 1.03612 98.1781 1.03141C97.1012 1.02859 96.0242 1.0559 94.9482 1.06531C94.3278 1.07002 93.7073 1.0493 93.0878 1.06908C91.1607 1.12745 89.2345 1.23291 87.3064 1.25833C85.0857 1.28752 82.864 1.24233 80.6433 1.24609ZM91.41 1.70559C92.2907 1.67451 93.1722 1.63403 94.0529 1.63497C96.1106 1.63685 98.1683 1.6651 100.226 1.67545C101.859 1.68487 103.491 1.65945 105.124 1.6924C107.116 1.73289 109.107 1.79974 111.097 1.89107C112.399 1.95039 113.165 2.69425 113.567 3.83638C114.08 5.29489 114.066 6.80047 113.962 8.30606C113.879 9.52635 113.735 10.7429 113.612 11.9594C113.41 13.9565 113.23 15.9555 112.99 17.9478C112.817 19.3762 112.552 20.7942 112.345 22.2189C112.247 22.8855 112.229 23.5644 112.105 24.2263C111.861 25.5351 111.423 25.8957 110.037 26.0144C109.777 26.036 109.514 26.02 109.252 26.0191C106.278 26.0115 103.304 26.02 100.33 25.9918C97.0295 25.9616 93.7299 25.8835 90.4293 25.8581C89.3857 25.8505 88.3401 25.9729 87.2956 25.9899C86.6839 25.9993 86.0674 25.9475 85.4607 25.8694C85.0818 25.8213 84.9099 25.9372 84.6714 26.229C83.35 27.8542 81.9775 29.4417 80.6227 31.0415C80.5363 30.9803 80.4489 30.9191 80.3625 30.8579C80.9064 29.6234 81.4336 28.3824 82.003 27.1603C82.1974 26.7441 82.3996 26.3656 82.113 25.9174C80.6973 25.7667 79.2777 25.6274 77.8611 25.4617C76.0429 25.2479 74.9817 24.1858 74.9002 22.732C74.8845 22.4505 74.8452 22.1689 74.8472 21.8874C74.8727 18.1559 74.8697 14.4245 74.9483 10.6939C74.9856 8.90962 75.123 7.12156 75.3302 5.34762C75.4107 4.6565 75.7347 3.96349 76.0743 3.33452C76.5446 2.46638 77.329 2.05962 78.3981 2.04455C79.9974 2.02195 81.5936 1.85153 83.1929 1.81387C84.6576 1.77809 86.1254 1.85907 87.5911 1.84306C88.8644 1.82988 90.1367 1.74984 91.41 1.70559Z" fill="#251C1C"/>
<path d="M142.471 8.23785C142.238 7.42897 142.167 6.57831 141.957 5.76217C141.547 4.17133 140.934 2.6516 140.114 1.20852C139.912 0.852581 139.646 0.693763 139.236 0.715513C138.677 0.745203 138.118 0.753496 137.56 0.791471C135.769 0.912994 133.978 1.04317 132.187 1.17332C132.034 1.18471 131.874 1.19677 131.732 1.24786C130.418 1.72152 129.041 1.80886 127.661 1.86514C127.317 1.87929 126.97 1.83477 126.625 1.8144C126.232 1.79127 126.037 1.92868 126.121 2.33744C126.314 3.2751 126.496 4.21447 126.685 5.15282C126.707 5.26157 126.738 5.36893 126.77 5.47527C126.988 6.1975 127.272 6.90764 127.414 7.64333C127.712 9.18135 127.955 10.7301 128.181 12.2799C128.298 13.0839 128.326 13.8997 128.401 14.7096C128.508 15.8634 128.748 17.022 128.699 18.1688C128.633 19.6924 128.376 21.2118 128.131 22.7222C128.037 23.306 127.818 23.8935 127.539 24.4224C127.063 25.3235 126.471 26.1887 125.516 26.6765C124.512 27.1898 123.447 27.5965 122.402 28.0353C121.228 28.5283 120.032 28.9768 118.877 29.5071C118.543 29.6603 118.284 30.0052 118.049 30.3042C117.847 30.5607 117.801 30.9643 117.559 31.1497C117.014 31.5664 117.214 32.0673 117.324 32.5189C117.435 32.9756 117.922 32.8997 118.299 32.909C119.707 32.9439 121.115 32.9698 122.523 32.9988C122.526 32.9736 122.528 32.9483 122.531 32.9231C123.603 32.8558 124.674 32.7809 125.747 32.7226C127.762 32.6128 129.778 32.4985 131.795 32.4174C132.316 32.3963 132.449 32.1688 132.457 31.7259C132.466 31.1963 132.425 30.6349 132.589 30.1444C132.98 28.983 133.794 28.1171 134.931 27.5492C135.571 27.2302 136.399 27.3407 136.888 27.8603C137.716 28.7417 137.974 29.8688 138.211 30.9795C138.444 32.0725 138.447 32.1198 139.6 32.0963C139.658 32.0953 139.716 32.0929 139.774 32.0908C140.144 32.078 140.341 31.9289 140.316 31.5394C140.25 30.5141 140.146 29.4867 140.16 28.4613C140.18 26.9402 139.936 25.3967 140.553 23.9132C140.836 23.2341 141.008 22.5133 141.252 21.8183C141.642 20.7067 142.164 19.6247 142.422 18.4865C142.731 17.1242 142.863 15.7194 142.989 14.326C143.046 13.6953 142.87 13.0487 142.857 12.4083C142.828 11.009 142.867 9.61223 142.471 8.23785ZM128.526 10.9552C127.952 8.32554 127.314 5.40278 126.69 2.55011C128.619 2.30189 130.459 2.06505 132.21 1.83962C131.382 3.2537 130.322 4.67365 129.69 6.25137C129.057 7.82978 128.853 9.56562 128.526 10.9552ZM129.222 17.0058C129.197 15.8126 128.959 14.625 128.91 13.4312C128.881 12.7287 129.034 12.0192 129.108 11.2794C130.058 11.375 130.585 10.9697 130.892 10.2378C130.947 10.2516 131.004 10.2654 131.059 10.2792C131.027 10.641 131.073 11.0294 130.949 11.3601C130.441 12.721 129.874 14.0623 129.343 15.416C129.104 16.0236 129.419 16.5518 129.744 17.0147C130.018 17.4076 130.779 17.3296 131.118 16.9505C131.277 16.7734 131.426 16.5884 131.647 16.326C131.916 16.9443 131.849 17.4877 131.674 18.0273C131.417 18.8155 131.131 19.5947 130.879 20.3839C130.693 20.9666 130.687 21.538 131.299 21.9109C131.845 22.243 132.397 22.1553 132.922 21.8277C132.986 21.7879 133.059 21.7607 133.131 21.7382C133.163 21.7286 133.204 21.7448 133.241 21.7493C133.41 23.4489 129.872 26.1231 127.767 25.2952C129.025 22.6555 129.281 19.8498 129.222 17.0058ZM131.72 31.8854C131.528 32.0166 131.259 32.0936 131.02 32.1022C129.285 32.1643 127.55 32.1923 125.815 32.2531C124.299 32.3059 122.784 32.3873 121.268 32.4564C121.266 32.4688 121.264 32.4816 121.263 32.494C120.299 32.474 119.335 32.4591 118.372 32.4308C118.116 32.4232 117.783 32.4795 117.779 32.0815C117.776 31.6924 118.07 31.661 118.381 31.6527C119.557 31.6209 120.734 31.6047 121.908 31.545C123.98 31.44 126.052 31.3137 128.122 31.1838C129.002 31.1286 129.879 31.0313 130.758 30.9743C131.042 30.956 131.341 30.9698 131.614 31.0382C131.751 31.073 131.932 31.2588 131.939 31.3841C131.948 31.5525 131.856 31.7928 131.72 31.8854ZM139.728 31.6575C139.482 31.5992 139.236 31.5408 138.989 31.4828C139.021 31.3896 139.063 31.2142 139.083 31.2163C139.326 31.2436 139.566 31.2971 139.807 31.3437C139.781 31.4483 139.754 31.5529 139.728 31.6575ZM141.427 19.8988C141.201 20.6556 140.901 21.3923 140.633 22.1377C140.364 22.8851 140.077 23.6267 139.834 24.3817C139.722 24.7276 139.698 25.0995 139.597 25.6663C139.253 25.3201 138.919 25.1129 138.78 24.8205C138.26 23.7227 138.193 22.583 138.604 21.4261C138.683 21.2038 138.694 20.9591 138.735 20.7295C139.678 20.7095 140.338 20.2044 140.506 19.3696C140.532 19.2387 140.465 19.0862 140.423 18.9488C140.141 18.0342 139.977 17.1186 140.304 16.2552C140.935 16.3781 141.516 16.491 142.309 16.6453C142.023 17.7121 141.752 18.8131 141.427 19.8988ZM142.462 14.6961C142.453 15.0383 142.308 15.456 142.066 15.6904C141.861 15.8903 141.419 15.9621 141.103 15.9231C140.941 15.9031 140.809 15.5257 140.699 15.2941C140.63 15.1463 140.627 14.9696 140.595 14.8059C140.52 14.7973 140.445 14.7887 140.37 14.7804C140.218 15.1056 140.033 15.4208 139.922 15.7588C139.633 16.6388 139.582 17.534 139.784 18.4454C139.855 18.7665 139.889 19.1103 139.853 19.4345C139.789 20.0041 139.358 20.2023 138.821 19.9406C138.584 19.8249 138.365 19.7297 138.316 20.0925C138.167 21.2042 137.914 22.3189 137.929 23.4299C137.942 24.3534 138.25 25.2834 139.175 25.851C139.482 26.0395 139.621 26.2943 139.634 26.6768C139.673 27.8368 139.788 28.994 139.837 30.1537C139.845 30.3353 139.627 30.6923 139.578 30.6822C139.244 30.6125 138.788 30.8624 138.601 30.3401C138.336 29.5972 138.059 28.8539 137.718 28.1403C137.11 26.866 135.562 26.5871 134.353 27.2561C133.238 27.8734 132.565 28.7841 132.1 29.8764C131.907 30.3315 131.619 30.4903 131.096 30.5165C129.098 30.6173 127.104 30.8024 125.106 30.9118C123.011 31.0268 120.914 31.0999 118.816 31.1724C118.265 31.1918 118.192 31.0599 118.519 30.6128C118.719 30.3397 118.977 30.0491 119.281 29.9127C120.424 29.3997 121.605 28.9661 122.754 28.4658C123.918 27.9594 125.066 27.4204 126.207 26.8687C126.454 26.7496 126.69 26.5467 126.842 26.326C127.174 25.8438 127.63 25.8407 128.151 25.8714C130.656 26.0188 132.349 24.7756 133.553 22.8271C133.852 22.3427 133.916 21.711 134.017 21.1355C134.056 20.9207 133.894 20.6739 133.823 20.4415C133.757 20.4163 133.691 20.3911 133.626 20.3659C133.327 20.6798 133.035 20.9998 132.728 21.3057C132.374 21.6581 131.904 21.7172 131.509 21.489C131.118 21.2632 131.241 20.8368 131.373 20.4771C131.633 19.7687 131.917 19.0678 132.16 18.3539C132.503 17.3465 132.272 16.3864 131.816 15.4633C131.771 15.3707 131.579 15.2689 131.489 15.2917C131.368 15.3217 131.238 15.4536 131.186 15.5717C131.068 15.842 131.048 16.1627 130.888 16.4013C130.772 16.5728 130.506 16.6937 130.286 16.7375C130.196 16.7554 130.032 16.5207 129.933 16.3809C129.668 16.0087 129.736 15.6521 129.915 15.2402C130.454 14.0057 130.975 12.7614 131.424 11.4951C131.727 10.6372 131.454 9.77585 131.17 8.94487C131.137 8.84717 130.991 8.78469 130.897 8.70597C130.806 8.80989 130.67 8.90104 130.633 9.02049C130.511 9.41786 130.444 9.83146 130.312 10.2257C130.265 10.3669 130.113 10.5053 129.972 10.5806C129.805 10.6693 129.575 10.7591 129.416 10.7121C129.31 10.6814 129.244 10.4145 129.228 10.2471C129.211 10.0683 129.255 9.87805 129.302 9.69991C129.646 8.38353 129.951 7.05508 130.37 5.76079C130.54 5.23465 130.957 4.77997 131.272 4.29975C131.679 3.68074 132.013 2.98784 132.538 2.47931C132.935 2.09472 133.56 1.86791 134.125 1.71359C135.595 1.31174 137.105 1.23475 138.638 1.242C139.377 1.24579 139.788 1.51231 140.014 2.06365C140.551 3.38072 141.093 4.70332 141.503 6.0594C142.143 8.17431 142.344 10.3555 142.337 12.5574C142.335 13.2703 142.479 13.9846 142.462 14.6961Z" fill="#251C1C"/>
<path d="M138.233 7.16936C137.825 7.15693 137.397 7.62886 137.372 8.11875C137.344 8.67734 137.829 9.3295 138.291 9.35263C138.813 9.37921 139.198 8.88863 139.216 8.17192C139.23 7.61057 138.815 7.18731 138.233 7.16936ZM138.316 8.80025C138.216 8.62177 138.049 8.44602 138.041 8.26339C138.035 8.15153 138.254 7.97548 138.405 7.93164C138.488 7.90747 138.639 8.097 138.842 8.25408C138.615 8.48988 138.465 8.6449 138.316 8.80025Z" fill="#251C1C"/>
<path d="M138.248 11.424C137.657 11.3919 137.309 11.6674 137.268 12.2022C137.225 12.7466 137.649 13.2644 138.166 13.3003C138.769 13.3418 139.074 13.0428 139.113 12.373C139.153 11.6819 138.952 11.462 138.248 11.424ZM138.21 12.7656C138.114 12.615 137.949 12.4666 137.945 12.3137C137.942 12.1966 138.142 12.0748 138.251 11.955C138.375 12.0748 138.499 12.1949 138.689 12.3789C138.465 12.5591 138.338 12.6623 138.21 12.7656Z" fill="#251C1C"/>
<path d="M138.031 6.08288C138.477 6.09186 139.055 5.458 139.035 4.98124C139.022 4.64083 138.376 4.08913 137.98 4.07877C137.554 4.06807 137.143 4.57524 137.14 5.11485C137.136 5.66101 137.515 6.07218 138.031 6.08288ZM138.229 4.80552C138.223 5.05754 138.217 5.30921 138.212 5.56089C138.09 5.57055 137.968 5.58021 137.846 5.58988C137.805 5.34373 137.764 5.09756 137.724 4.85106C137.892 4.83587 138.06 4.82071 138.229 4.80552Z" fill="#251C1C"/>
<path d="M135.183 29.5084C135.013 29.3641 134.875 29.2019 134.698 29.1076C134.515 29.0106 134.236 28.8784 134.103 28.9471C133.948 29.0279 133.832 29.3047 133.823 29.5019C133.773 30.5932 134.48 31.3565 135.111 32.2537C135.707 31.4045 136.413 30.7188 136.403 29.709C136.4 29.4387 136.239 29.1701 136.126 28.8269C135.72 29.1204 135.45 29.3151 135.183 29.5084ZM135.146 31.4421C134.573 30.8486 134.241 30.3111 134.466 29.5195C134.595 29.6803 134.732 29.8361 134.851 30.0038C134.959 30.1571 135.047 30.3235 135.145 30.4844C135.272 30.3656 135.404 30.2521 135.524 30.1271C135.623 30.0235 135.707 29.9068 135.797 29.7957C135.85 29.8212 135.903 29.8467 135.956 29.8723C135.699 30.3705 135.442 30.869 135.146 31.4421Z" fill="#251C1C"/>
<path d="M25.5775 16.8148C26.6383 16.7098 27.7062 16.6697 28.769 16.5798C29.1715 16.5457 29.5699 16.4561 29.9666 16.3744C30.3452 16.2964 30.5493 16.0375 30.6158 15.69C30.6576 15.4696 30.6568 15.2401 30.6609 15.0146C30.7002 12.8977 30.7489 10.7808 30.7675 8.6635C30.7758 7.74 30.6993 6.81572 30.7014 5.89184C30.7039 4.88551 30.7543 3.87957 30.7799 2.87325C30.7898 2.4872 30.8039 2.09838 30.5956 1.76069C29.8166 1.78606 29.0695 1.8479 28.3248 1.8253C27.2776 1.7936 26.2317 1.70363 25.1857 1.6311C24.727 1.59899 24.2377 1.64893 23.9014 1.19709C23.3765 1.63981 22.7748 1.60494 22.1768 1.59107C21.5574 1.5768 20.9367 1.53954 20.3185 1.56015C18.7163 1.61445 17.1145 1.68143 15.514 1.76863C13.9763 1.85265 12.4419 1.98345 10.9046 2.06549C9.34499 2.14912 7.78374 2.20976 6.22248 2.25692C5.49681 2.27872 5.40796 2.18916 5.20299 1.51259C4.92115 0.581172 3.81406 -0.132259 2.83176 0.0207309C1.82095 0.178477 0.977913 0.639827 0.350598 1.42816C-0.0568679 1.94064 -0.136625 2.85383 0.257616 3.28069C0.644419 3.70003 0.948567 4.23866 1.6887 4.35717C1.6887 4.82446 1.63827 5.2763 1.69778 5.71426C1.89201 7.14429 1.98622 8.57669 1.9668 10.0186C1.96101 10.4685 2.0222 10.9199 2.06394 11.3698C2.15113 12.3111 2.30319 13.2504 2.32633 14.1929C2.37055 16.0213 2.34659 17.8512 2.34659 19.6804C2.34618 22.412 2.26806 25.1452 2.63998 27.8654C2.84744 29.3861 3.02763 30.9101 3.23177 32.5224C3.35451 32.5224 3.53591 32.5296 3.71609 32.5209C4.14174 32.501 4.56697 32.4519 4.99221 32.4551C5.53398 32.4586 5.7303 32.2236 5.69352 31.6865C5.60674 30.4182 5.55135 29.1479 5.49598 27.8777C5.48151 27.5503 5.53441 27.2201 5.5216 26.8923C5.42986 24.5725 5.3315 22.2531 5.22902 19.9336C5.21455 19.6059 5.14636 19.2801 5.13479 18.9523C5.11991 18.5381 5.2228 18.4624 5.64639 18.4248C6.40925 18.3566 7.17131 18.2773 7.9321 18.1901C9.22806 18.0419 10.5199 17.8477 11.82 17.7494C12.2861 17.7137 12.8246 17.5912 13.175 17.8952C13.5651 17.7906 13.8961 17.6535 14.2383 17.6182C15.5586 17.483 16.881 17.3649 18.2051 17.2698C19.4416 17.1806 20.68 17.0899 21.9186 17.0748C22.5777 17.0665 23.2645 16.7779 23.9096 17.166C23.9452 17.1874 24.0261 17.1362 24.0865 17.1231C24.5832 17.0165 25.0746 16.8643 25.5775 16.8148ZM24.1563 2.09522C24.4638 2.07065 24.7349 2.02268 25.0043 2.0318C26.4784 2.08095 27.9516 2.14476 29.4253 2.20263C29.5323 2.20659 29.6402 2.19867 29.7468 2.2058C30.1745 2.23474 30.2699 2.30727 30.2852 2.73017C30.3092 3.38731 30.3129 4.04565 30.3034 4.70279C30.2724 6.87993 30.1873 9.05706 30.2121 11.2334C30.227 12.5081 30.1956 13.7748 30.0902 15.0439C30.029 15.776 29.934 15.9202 29.186 16.097C28.8963 16.1652 28.5983 16.2084 28.3016 16.2409C27.8359 16.2912 27.3685 16.3269 26.9015 16.3614C26.0502 16.424 25.1985 16.4815 24.2423 16.548C24.222 15.8374 24.1782 15.2048 24.1898 14.5734C24.2385 11.9456 24.32 9.31786 24.3535 6.69008C24.3621 5.97665 24.2489 5.26124 24.1836 4.54742C24.1109 3.75116 24.0642 2.95609 24.1563 2.09522ZM1.5709 3.81061C0.877464 3.69964 0.34811 2.59858 0.6316 1.98384C0.963441 1.26408 1.60437 0.915684 2.33541 0.68382C3.34871 0.362382 3.82686 0.564525 4.30954 1.10554C4.92817 1.79915 4.92195 2.60017 4.412 3.3235C4.05082 3.42497 3.76278 3.44518 3.54954 3.57716C2.92016 3.96637 2.2383 3.91723 1.5709 3.81061ZM4.21571 31.855C4.11033 31.8494 4.00539 31.8328 3.83224 31.8138C3.74917 31.532 3.64005 31.2462 3.58179 30.9513C3.2297 29.1733 3.05695 27.3767 2.91893 25.5721C2.71148 22.8615 2.76688 20.1516 2.77679 17.439C2.78299 15.6749 2.77761 13.9012 2.5966 12.149C2.42717 10.5085 2.39823 8.87079 2.32508 7.22991C2.29409 6.5359 2.1383 5.84705 2.0511 5.15463C1.97713 4.56565 2.10195 4.44278 2.72017 4.36668C3.07061 4.32348 3.41442 4.22876 3.83676 4.14156C3.83676 4.83953 3.83717 5.49033 3.83676 6.14074C3.83552 8.00912 3.95742 9.87117 4.10908 11.7336C4.19421 12.776 4.1157 13.8303 4.18968 14.8743C4.26613 15.9583 4.41076 17.0403 4.57399 18.1168C4.83682 19.8508 4.8819 21.5963 4.92033 23.3415C4.96579 25.4163 4.96454 27.4916 4.99842 29.5665C5.00627 30.0584 5.08976 30.549 5.10835 31.0413C5.13687 31.7844 5.00088 31.8986 4.21571 31.855ZM12.1497 17.3899C10.6347 17.506 9.12227 17.6574 7.60646 17.7601C7.05808 17.7973 6.50266 17.7407 5.95055 17.7196C5.65301 17.7086 5.35589 17.6832 4.98769 17.6594C4.95008 17.4838 4.88602 17.2912 4.87073 17.0954C4.75213 15.5798 4.59052 14.0649 4.543 12.5473C4.46324 10.0024 4.49012 7.45464 4.40457 4.91008C4.37565 4.05912 4.91699 3.5518 5.36785 2.97432C5.47157 2.84154 5.74766 2.78764 5.9485 2.77733C7.08163 2.71947 8.2164 2.69371 9.34995 2.64059C9.79709 2.61998 10.2418 2.54824 10.6889 2.51614C10.9422 2.4979 11.198 2.51297 11.5422 2.51297C11.7484 3.36472 12.001 4.19269 12.141 5.03771C12.3159 6.09199 12.4146 7.15895 12.5142 8.22315C12.589 9.0206 12.6283 9.82162 12.6576 10.6218C12.725 12.4494 12.7766 14.2778 12.8345 16.1057C12.8399 16.2702 12.8407 16.4347 12.8523 16.5988C12.9014 17.2805 12.8353 17.3372 12.1497 17.3899ZM23.8245 10.384C23.767 11.9857 23.7633 13.5889 23.7278 15.1913C23.7208 15.4985 23.6993 15.8089 23.6439 16.1113C23.5711 16.5096 23.4145 16.6285 23.0013 16.6689C22.8736 16.6816 22.7443 16.6796 22.6162 16.688C19.8189 16.8687 17.022 17.0506 14.2247 17.229C13.9965 17.2432 13.7668 17.2306 13.4242 17.2306C13.3461 15.6436 13.2882 14.147 13.1944 12.6527C13.0709 10.6865 13.1114 8.71146 12.8266 6.7535C12.7031 5.90214 12.6469 5.04206 12.5336 4.18912C12.4828 3.80625 12.3328 3.43487 12.2898 3.0516C12.2394 2.60135 12.3254 2.55973 12.7969 2.45589C13.9705 2.19787 15.1569 2.1297 16.3583 2.12495C17.2344 2.12177 18.1092 1.99851 18.9861 1.95491C20.4581 1.88198 21.9314 1.82808 23.4674 1.99574C23.5067 2.18083 23.5666 2.37266 23.5869 2.56846C23.8534 5.1685 23.9179 7.77329 23.8245 10.384Z" stroke="#251C1C" stroke-width="0.4" mask="url(#path-3-outside-1)"/>
<path d="M34.6378 22.9422C34.1768 23.9805 33.5152 24.6524 32.5469 25.1493C32.0939 25.3816 31.8127 25.7464 31.5993 26.1794C30.4783 28.4539 31.6735 30.6686 34.4057 31.5037C38.2675 32.6848 42.2834 32.6904 46.4402 33.0404C49.014 32.8168 51.7782 32.6582 54.5163 32.3097C56.2103 32.0937 57.907 31.7125 59.4457 30.9245C60.8073 30.2275 62.1529 29.5147 62.6485 27.9371C63.2039 26.1691 61.7751 24.0813 59.9013 24.0133C59.618 24.003 59.4302 24.0015 59.2621 23.7354C57.6135 21.1251 55.7632 18.6142 54.3275 15.9016C51.735 11.0055 49.4536 5.95489 45.9797 1.53215C45.8245 1.33462 45.7546 1.03271 45.4531 1.03118C45.037 1.02862 45.0845 1.43288 44.9698 1.66827C44.5744 2.48189 44.2233 3.31496 43.8376 4.13319C40.8599 10.4436 37.4688 16.5683 34.6378 22.9422ZM36.2896 20.4057C37.1657 18.6664 38.0236 16.9184 38.928 15.1924C39.3655 14.3577 39.796 14.3322 40.4021 15.0997C41.3246 16.268 41.8955 17.5365 41.0451 18.9673C40.1636 20.4507 38.8858 21.4076 37.0473 21.4956C36.0618 21.5831 35.9098 21.16 36.2896 20.4057ZM59.6367 24.9001C60.1131 24.5449 60.8217 24.439 61.3312 25.0976C61.8317 25.7449 61.8626 26.275 61.0298 26.6583C60.2134 27.0334 59.3886 27.3911 58.6091 27.8465C59.7151 27.9223 60.6285 27.4412 61.5009 26.9259C62.0904 26.5775 62.2094 26.7489 62.1955 27.3021C62.1699 28.2922 61.5942 28.9825 60.8265 29.5413C58.8844 30.9547 56.5801 31.4127 54.2485 31.7954C52.0343 32.1587 49.786 32.1654 47.5606 32.4003C45.6831 32.5983 43.8242 32.2759 41.9675 32.1705C39.445 32.0283 36.9192 31.7084 34.4762 30.949C32.9726 30.4813 32.0768 29.6043 31.6719 28.1592C31.4862 27.497 31.7492 27.3496 32.3228 27.4632C33.0617 27.6101 33.7116 27.9714 34.3737 28.3106C35.1329 28.6995 35.9098 29.1555 36.8595 28.6612C35.3938 28.3388 34.1571 27.5564 32.8329 26.9592C32.5442 26.8292 32.0992 26.7965 32.0987 26.3922C32.0976 26.0028 32.4204 25.7741 32.7678 25.596C33.3899 25.2767 33.9656 25.2194 34.6848 25.4594C39.0688 26.9218 43.4913 28.2518 48.2227 28.0655C51.0553 27.9545 53.755 27.2821 56.3538 26.2234C57.4433 25.7797 58.6464 25.6385 59.6367 24.9001ZM49.4675 26.907C50.2534 24.1975 54.4256 22.755 56.3192 24.6432C56.4974 24.8213 56.6729 25.0019 56.8169 25.1482C56.8362 25.552 56.5342 25.6032 56.309 25.6963C54.2725 26.5401 52.1159 26.9756 49.9562 27.4008C49.5027 27.4898 49.3234 27.4034 49.4675 26.907ZM50.4241 9.61517C51.2159 11.0388 51.9169 12.5099 52.6335 13.9714C53.0518 14.8249 52.7615 15.1888 51.7302 15.1565C49.3714 15.0818 47.5889 12.4491 48.2691 9.96673C48.4516 9.30252 48.5194 8.33282 49.3656 8.24941C50.0282 8.18443 50.144 9.11165 50.4241 9.61517ZM44.9778 2.8278C45.3203 2.12112 45.5502 1.99421 46.0976 2.69679C47.1316 4.02469 47.9677 5.46415 48.871 6.86676C49.2071 7.38871 48.8534 7.65685 48.6378 8.01045C47.5862 9.73288 47.0954 11.4809 48.1566 13.3988C49.0257 14.9708 50.5196 15.8023 52.3731 15.5608C53.0875 15.4676 53.5138 15.6166 53.8708 16.2961C55.203 18.8317 56.9578 21.1277 58.4714 23.5619C59.037 24.4707 58.8278 24.9871 57.9443 25.0208C57.5388 25.0362 57.3569 24.7476 57.1163 24.5373C54.8466 22.5508 51.2255 23.0466 49.6099 25.5489C49.2034 26.1788 49.149 27.2125 48.3892 27.389C47.4016 27.6183 46.3031 27.5098 45.2648 27.4156C42.0497 27.1255 38.9936 26.1481 35.9087 25.3084C35.2412 25.1268 34.4756 24.9415 34.6901 23.9611C34.9254 22.8849 35.675 22.1312 36.5388 22.1501C39.2945 22.2095 41.8854 19.9564 41.8726 17.6936C41.9115 16.158 41.3145 15.0634 40.2752 14.2124C39.7864 13.8122 39.676 13.4924 39.9839 12.9434C41.8278 9.65407 43.3382 6.21125 44.9778 2.8278Z" stroke="#251C1C" stroke-width="0.4" mask="url(#path-3-outside-1)"/>
<path d="M55.5402 22.2304C56.2503 22.2304 56.2514 21.1717 55.5402 21.1717C54.8301 21.1717 54.829 22.2304 55.5402 22.2304Z" stroke="#251C1C" stroke-width="0.4" mask="url(#path-3-outside-1)"/>
<path d="M48.7082 17.6127C50.1845 17.8158 49.2525 19.6902 49.2423 20.4691C49.2364 20.8943 49.3319 21.3436 49.6371 21.6721C50.1269 22.1992 50.6514 22.0994 50.8477 21.4383C50.9213 21.1921 50.916 20.9245 50.9149 20.6722C50.9139 20.4875 50.7298 19.1437 51.5589 19.7271C51.7265 19.8453 51.5136 20.3683 51.8529 20.5382C52.9184 21.0709 52.7418 18.3224 53.6013 18.3342C53.859 18.3378 53.8558 17.9658 53.6013 17.952C53.1611 17.9289 52.8672 18.1177 52.6607 18.4979C52.5246 18.7477 52.5289 19.0434 52.475 19.3131C52.4585 19.4513 52.4265 19.5859 52.379 19.7174C51.9842 19.8709 51.8262 19.7767 51.9052 19.4344C51.7425 19.1965 51.7958 18.9124 51.4341 18.8157C51.1689 18.7446 50.9053 18.8761 50.7421 19.066C50.4108 19.4513 50.5265 20.0715 50.5281 20.5249C50.5473 20.7981 50.5308 21.0704 50.4785 21.3405C49.8484 21.4731 49.5507 21.2321 49.5848 20.6185C49.5251 20.137 49.7129 19.6498 49.7705 19.1749C49.8633 18.4161 49.7092 17.4776 48.7216 17.5165C48.6672 17.5185 48.6485 17.6045 48.7082 17.6127Z" stroke="#251C1C" stroke-width="0.4" mask="url(#path-3-outside-1)"/>
<path d="M45.738 5.96609C45.762 6.11449 45.9557 6.1938 46.0923 6.15901C46.4295 6.07304 46.7069 5.78648 46.6696 5.43494C46.6317 5.08134 46.2812 4.80605 45.9146 4.9089C45.634 4.98771 45.5902 5.28705 45.7428 5.46922C45.7082 5.62478 45.7092 5.78852 45.738 5.96609Z" stroke="#251C1C" stroke-width="0.4" mask="url(#path-3-outside-1)"/>
<path d="M45.9936 17.4955C45.586 17.4208 45.372 17.8322 45.5401 18.0927C45.5214 18.1787 45.5091 18.2657 45.5038 18.3675C45.491 18.6223 45.7668 18.7902 46.0059 18.7344C46.6883 18.5752 46.7048 17.6255 45.9936 17.4955Z" stroke="#251C1C" stroke-width="0.4" mask="url(#path-3-outside-1)"/>
<path d="M42.2247 11.2414C43.1925 11.2931 43.4299 11.7654 43.4961 12.6327C43.5425 13.2396 43.5703 13.8532 43.6476 14.4575C43.7042 14.9001 43.8146 15.4901 44.3706 15.5894C44.8284 15.6713 45.0748 15.3259 45.1554 14.9477C45.348 14.0471 44.3759 11.5704 45.8896 11.3877C46.2011 11.3504 46.1408 10.9139 45.8314 10.9789C45.181 11.1155 44.7441 11.3852 44.6886 12.0519C44.6389 12.6476 44.7483 13.2928 44.7809 13.8905C44.7926 14.1039 44.8854 14.4319 44.8161 14.6248C44.8545 14.9129 44.6261 14.9923 44.13 14.8618C44.0921 14.6735 44.0675 14.4831 44.0558 14.2917C43.9208 13.0754 44.1545 10.7721 42.2194 11.203C42.1959 11.2081 42.2028 11.2404 42.2247 11.2414Z" stroke="#251C1C" stroke-width="0.4" mask="url(#path-3-outside-1)"/>
<path d="M43.9219 22.1665C43.3724 22.9033 43.9747 23.9058 43.78 24.7025C43.8194 25.029 43.5559 25.1656 42.9887 25.1124C42.8815 24.9317 42.8185 24.7398 42.7993 24.5362C42.7412 24.2384 42.7502 23.9395 42.7406 23.6381C42.7273 23.2385 42.7268 22.8204 42.6409 22.4264C42.5224 21.8783 42.1377 21.3948 41.5071 21.6041C41.3316 21.6624 41.402 21.9234 41.5845 21.8737C42.5603 21.6056 42.3293 24.158 42.4045 24.5889C42.4829 25.0397 42.7252 25.6558 43.2635 25.7592C43.6626 25.836 43.9699 25.5704 44.0926 25.227C44.2057 24.9123 44.1326 24.5239 44.1172 24.2041C44.106 23.9805 44.0969 23.7574 44.0889 23.5337C44.083 23.3654 44.1204 21.5626 44.8134 22.3179C44.9682 22.4868 45.2877 22.2575 45.1426 22.0749C44.8006 21.643 44.242 21.7366 43.9219 22.1665Z" stroke="#251C1C" stroke-width="0.4" mask="url(#path-3-outside-1)"/>
<path d="M38.4291 23.3239C37.7094 23.3239 37.7078 24.397 38.4291 24.397C39.1494 24.397 39.1505 23.3239 38.4291 23.3239Z" stroke="#251C1C" stroke-width="0.4" mask="url(#path-3-outside-1)"/>
<path d="M80.6433 1.24609C80.0563 1.24704 79.4505 1.41464 78.888 1.3186C78.1899 1.19996 77.6922 1.39204 77.1052 1.72348C75.7563 2.4871 75.013 3.63018 74.7892 5.03595C74.5389 6.61122 74.3985 8.21285 74.3524 9.80694C74.2748 12.4707 74.3219 15.1382 74.2954 17.8038C74.2797 19.4638 74.2189 21.1238 74.1884 22.7838C74.1639 24.1444 75.0229 25.4692 76.305 25.8816C77.1002 26.1368 77.9475 26.2648 78.781 26.3863C79.6164 26.5078 80.4647 26.5501 81.3247 26.6283C81.3247 26.7318 81.3531 26.8335 81.3207 26.9117C80.6335 28.5679 79.9581 30.2298 79.2306 31.8701C79.0667 32.2401 78.8831 32.5339 79.3514 32.999C79.6518 32.7307 79.9257 32.5188 80.1574 32.2702C81.6614 30.6601 83.1664 29.051 84.6459 27.4211C85.0111 27.02 85.3979 26.8166 85.9663 26.7413C89.1883 26.3166 92.4281 26.5577 95.658 26.472C97.9062 26.4127 100.163 26.6415 102.416 26.729C102.905 26.7488 103.395 26.714 103.884 26.7045C104.732 26.6876 105.581 26.6462 106.429 26.6603C107.702 26.681 108.976 26.7168 110.247 26.793C111.041 26.842 111.615 26.5021 112.152 26.0125C113.017 25.2244 113.035 24.1604 113.155 23.1435C113.34 21.588 113.466 20.0269 113.633 18.4704C113.737 17.5044 113.893 16.5439 113.988 15.5779C114.185 13.5817 114.306 11.5771 114.553 9.58756C114.786 7.70628 114.859 5.85984 114.394 3.99174C113.946 2.18861 112.555 1.07755 110.626 1.09262C108.241 1.11051 105.857 1.08602 103.474 1.07284C101.708 1.06342 99.9433 1.03612 98.1781 1.03141C97.1012 1.02859 96.0242 1.0559 94.9482 1.06531C94.3278 1.07002 93.7073 1.0493 93.0878 1.06908C91.1607 1.12745 89.2345 1.23291 87.3064 1.25833C85.0857 1.28752 82.864 1.24233 80.6433 1.24609ZM91.41 1.70559C92.2907 1.67451 93.1722 1.63403 94.0529 1.63497C96.1106 1.63685 98.1683 1.6651 100.226 1.67545C101.859 1.68487 103.491 1.65945 105.124 1.6924C107.116 1.73289 109.107 1.79974 111.097 1.89107C112.399 1.95039 113.165 2.69425 113.567 3.83638C114.08 5.29489 114.066 6.80047 113.962 8.30606C113.879 9.52635 113.735 10.7429 113.612 11.9594C113.41 13.9565 113.23 15.9555 112.99 17.9478C112.817 19.3762 112.552 20.7942 112.345 22.2189C112.247 22.8855 112.229 23.5644 112.105 24.2263C111.861 25.5351 111.423 25.8957 110.037 26.0144C109.777 26.036 109.514 26.02 109.252 26.0191C106.278 26.0115 103.304 26.02 100.33 25.9918C97.0295 25.9616 93.7299 25.8835 90.4293 25.8581C89.3857 25.8505 88.3401 25.9729 87.2956 25.9899C86.6839 25.9993 86.0674 25.9475 85.4607 25.8694C85.0818 25.8213 84.9099 25.9372 84.6714 26.229C83.35 27.8542 81.9775 29.4417 80.6227 31.0415C80.5363 30.9803 80.4489 30.9191 80.3625 30.8579C80.9064 29.6234 81.4336 28.3824 82.003 27.1603C82.1974 26.7441 82.3996 26.3656 82.113 25.9174C80.6973 25.7667 79.2777 25.6274 77.8611 25.4617C76.0429 25.2479 74.9817 24.1858 74.9002 22.732C74.8845 22.4505 74.8452 22.1689 74.8472 21.8874C74.8727 18.1559 74.8697 14.4245 74.9483 10.6939C74.9856 8.90962 75.123 7.12156 75.3302 5.34762C75.4107 4.6565 75.7347 3.96349 76.0743 3.33452C76.5446 2.46638 77.329 2.05962 78.3981 2.04455C79.9974 2.02195 81.5936 1.85153 83.1929 1.81387C84.6576 1.77809 86.1254 1.85907 87.5911 1.84306C88.8644 1.82988 90.1367 1.74984 91.41 1.70559Z" stroke="#251C1C" stroke-width="0.4" mask="url(#path-3-outside-1)"/>
<path d="M142.471 8.23785C142.238 7.42897 142.167 6.57831 141.957 5.76217C141.547 4.17133 140.934 2.6516 140.114 1.20852C139.912 0.852581 139.646 0.693763 139.236 0.715513C138.677 0.745203 138.118 0.753496 137.56 0.791471C135.769 0.912994 133.978 1.04317 132.187 1.17332C132.034 1.18471 131.874 1.19677 131.732 1.24786C130.418 1.72152 129.041 1.80886 127.661 1.86514C127.317 1.87929 126.97 1.83477 126.625 1.8144C126.232 1.79127 126.037 1.92868 126.121 2.33744C126.314 3.2751 126.496 4.21447 126.685 5.15282C126.707 5.26157 126.738 5.36893 126.77 5.47527C126.988 6.1975 127.272 6.90764 127.414 7.64333C127.712 9.18135 127.955 10.7301 128.181 12.2799C128.298 13.0839 128.326 13.8997 128.401 14.7096C128.508 15.8634 128.748 17.022 128.699 18.1688C128.633 19.6924 128.376 21.2118 128.131 22.7222C128.037 23.306 127.818 23.8935 127.539 24.4224C127.063 25.3235 126.471 26.1887 125.516 26.6765C124.512 27.1898 123.447 27.5965 122.402 28.0353C121.228 28.5283 120.032 28.9768 118.877 29.5071C118.543 29.6603 118.284 30.0052 118.049 30.3042C117.847 30.5607 117.801 30.9643 117.559 31.1497C117.014 31.5664 117.214 32.0673 117.324 32.5189C117.435 32.9756 117.922 32.8997 118.299 32.909C119.707 32.9439 121.115 32.9698 122.523 32.9988C122.526 32.9736 122.528 32.9483 122.531 32.9231C123.603 32.8558 124.674 32.7809 125.747 32.7226C127.762 32.6128 129.778 32.4985 131.795 32.4174C132.316 32.3963 132.449 32.1688 132.457 31.7259C132.466 31.1963 132.425 30.6349 132.589 30.1444C132.98 28.983 133.794 28.1171 134.931 27.5492C135.571 27.2302 136.399 27.3407 136.888 27.8603C137.716 28.7417 137.974 29.8688 138.211 30.9795C138.444 32.0725 138.447 32.1198 139.6 32.0963C139.658 32.0953 139.716 32.0929 139.774 32.0908C140.144 32.078 140.341 31.9289 140.316 31.5394C140.25 30.5141 140.146 29.4867 140.16 28.4613C140.18 26.9402 139.936 25.3967 140.553 23.9132C140.836 23.2341 141.008 22.5133 141.252 21.8183C141.642 20.7067 142.164 19.6247 142.422 18.4865C142.731 17.1242 142.863 15.7194 142.989 14.326C143.046 13.6953 142.87 13.0487 142.857 12.4083C142.828 11.009 142.867 9.61223 142.471 8.23785ZM128.526 10.9552C127.952 8.32554 127.314 5.40278 126.69 2.55011C128.619 2.30189 130.459 2.06505 132.21 1.83962C131.382 3.2537 130.322 4.67365 129.69 6.25137C129.057 7.82978 128.853 9.56562 128.526 10.9552ZM129.222 17.0058C129.197 15.8126 128.959 14.625 128.91 13.4312C128.881 12.7287 129.034 12.0192 129.108 11.2794C130.058 11.375 130.585 10.9697 130.892 10.2378C130.947 10.2516 131.004 10.2654 131.059 10.2792C131.027 10.641 131.073 11.0294 130.949 11.3601C130.441 12.721 129.874 14.0623 129.343 15.416C129.104 16.0236 129.419 16.5518 129.744 17.0147C130.018 17.4076 130.779 17.3296 131.118 16.9505C131.277 16.7734 131.426 16.5884 131.647 16.326C131.916 16.9443 131.849 17.4877 131.674 18.0273C131.417 18.8155 131.131 19.5947 130.879 20.3839C130.693 20.9666 130.687 21.538 131.299 21.9109C131.845 22.243 132.397 22.1553 132.922 21.8277C132.986 21.7879 133.059 21.7607 133.131 21.7382C133.163 21.7286 133.204 21.7448 133.241 21.7493C133.41 23.4489 129.872 26.1231 127.767 25.2952C129.025 22.6555 129.281 19.8498 129.222 17.0058ZM131.72 31.8854C131.528 32.0166 131.259 32.0936 131.02 32.1022C129.285 32.1643 127.55 32.1923 125.815 32.2531C124.299 32.3059 122.784 32.3873 121.268 32.4564C121.266 32.4688 121.264 32.4816 121.263 32.494C120.299 32.474 119.335 32.4591 118.372 32.4308C118.116 32.4232 117.783 32.4795 117.779 32.0815C117.776 31.6924 118.07 31.661 118.381 31.6527C119.557 31.6209 120.734 31.6047 121.908 31.545C123.98 31.44 126.052 31.3137 128.122 31.1838C129.002 31.1286 129.879 31.0313 130.758 30.9743C131.042 30.956 131.341 30.9698 131.614 31.0382C131.751 31.073 131.932 31.2588 131.939 31.3841C131.948 31.5525 131.856 31.7928 131.72 31.8854ZM139.728 31.6575C139.482 31.5992 139.236 31.5408 138.989 31.4828C139.021 31.3896 139.063 31.2142 139.083 31.2163C139.326 31.2436 139.566 31.2971 139.807 31.3437C139.781 31.4483 139.754 31.5529 139.728 31.6575ZM141.427 19.8988C141.201 20.6556 140.901 21.3923 140.633 22.1377C140.364 22.8851 140.077 23.6267 139.834 24.3817C139.722 24.7276 139.698 25.0995 139.597 25.6663C139.253 25.3201 138.919 25.1129 138.78 24.8205C138.26 23.7227 138.193 22.583 138.604 21.4261C138.683 21.2038 138.694 20.9591 138.735 20.7295C139.678 20.7095 140.338 20.2044 140.506 19.3696C140.532 19.2387 140.465 19.0862 140.423 18.9488C140.141 18.0342 139.977 17.1186 140.304 16.2552C140.935 16.3781 141.516 16.491 142.309 16.6453C142.023 17.7121 141.752 18.8131 141.427 19.8988ZM142.462 14.6961C142.453 15.0383 142.308 15.456 142.066 15.6904C141.861 15.8903 141.419 15.9621 141.103 15.9231C140.941 15.9031 140.809 15.5257 140.699 15.2941C140.63 15.1463 140.627 14.9696 140.595 14.8059C140.52 14.7973 140.445 14.7887 140.37 14.7804C140.218 15.1056 140.033 15.4208 139.922 15.7588C139.633 16.6388 139.582 17.534 139.784 18.4454C139.855 18.7665 139.889 19.1103 139.853 19.4345C139.789 20.0041 139.358 20.2023 138.821 19.9406C138.584 19.8249 138.365 19.7297 138.316 20.0925C138.167 21.2042 137.914 22.3189 137.929 23.4299C137.942 24.3534 138.25 25.2834 139.175 25.851C139.482 26.0395 139.621 26.2943 139.634 26.6768C139.673 27.8368 139.788 28.994 139.837 30.1537C139.845 30.3353 139.627 30.6923 139.578 30.6822C139.244 30.6125 138.788 30.8624 138.601 30.3401C138.336 29.5972 138.059 28.8539 137.718 28.1403C137.11 26.866 135.562 26.5871 134.353 27.2561C133.238 27.8734 132.565 28.7841 132.1 29.8764C131.907 30.3315 131.619 30.4903 131.096 30.5165C129.098 30.6173 127.104 30.8024 125.106 30.9118C123.011 31.0268 120.914 31.0999 118.816 31.1724C118.265 31.1918 118.192 31.0599 118.519 30.6128C118.719 30.3397 118.977 30.0491 119.281 29.9127C120.424 29.3997 121.605 28.9661 122.754 28.4658C123.918 27.9594 125.066 27.4204 126.207 26.8687C126.454 26.7496 126.69 26.5467 126.842 26.326C127.174 25.8438 127.63 25.8407 128.151 25.8714C130.656 26.0188 132.349 24.7756 133.553 22.8271C133.852 22.3427 133.916 21.711 134.017 21.1355C134.056 20.9207 133.894 20.6739 133.823 20.4415C133.757 20.4163 133.691 20.3911 133.626 20.3659C133.327 20.6798 133.035 20.9998 132.728 21.3057C132.374 21.6581 131.904 21.7172 131.509 21.489C131.118 21.2632 131.241 20.8368 131.373 20.4771C131.633 19.7687 131.917 19.0678 132.16 18.3539C132.503 17.3465 132.272 16.3864 131.816 15.4633C131.771 15.3707 131.579 15.2689 131.489 15.2917C131.368 15.3217 131.238 15.4536 131.186 15.5717C131.068 15.842 131.048 16.1627 130.888 16.4013C130.772 16.5728 130.506 16.6937 130.286 16.7375C130.196 16.7554 130.032 16.5207 129.933 16.3809C129.668 16.0087 129.736 15.6521 129.915 15.2402C130.454 14.0057 130.975 12.7614 131.424 11.4951C131.727 10.6372 131.454 9.77585 131.17 8.94487C131.137 8.84717 130.991 8.78469 130.897 8.70597C130.806 8.80989 130.67 8.90104 130.633 9.02049C130.511 9.41786 130.444 9.83146 130.312 10.2257C130.265 10.3669 130.113 10.5053 129.972 10.5806C129.805 10.6693 129.575 10.7591 129.416 10.7121C129.31 10.6814 129.244 10.4145 129.228 10.2471C129.211 10.0683 129.255 9.87805 129.302 9.69991C129.646 8.38353 129.951 7.05508 130.37 5.76079C130.54 5.23465 130.957 4.77997 131.272 4.29975C131.679 3.68074 132.013 2.98784 132.538 2.47931C132.935 2.09472 133.56 1.86791 134.125 1.71359C135.595 1.31174 137.105 1.23475 138.638 1.242C139.377 1.24579 139.788 1.51231 140.014 2.06365C140.551 3.38072 141.093 4.70332 141.503 6.0594C142.143 8.17431 142.344 10.3555 142.337 12.5574C142.335 13.2703 142.479 13.9846 142.462 14.6961Z" stroke="#251C1C" stroke-width="0.4" mask="url(#path-3-outside-1)"/>
<path d="M138.233 7.16936C137.825 7.15693 137.397 7.62886 137.372 8.11875C137.344 8.67734 137.829 9.3295 138.291 9.35263C138.813 9.37921 139.198 8.88863 139.216 8.17192C139.23 7.61057 138.815 7.18731 138.233 7.16936ZM138.316 8.80025C138.216 8.62177 138.049 8.44602 138.041 8.26339C138.035 8.15153 138.254 7.97548 138.405 7.93164C138.488 7.90747 138.639 8.097 138.842 8.25408C138.615 8.48988 138.465 8.6449 138.316 8.80025Z" stroke="#251C1C" stroke-width="0.4" mask="url(#path-3-outside-1)"/>
<path d="M138.248 11.424C137.657 11.3919 137.309 11.6674 137.268 12.2022C137.225 12.7466 137.649 13.2644 138.166 13.3003C138.769 13.3418 139.074 13.0428 139.113 12.373C139.153 11.6819 138.952 11.462 138.248 11.424ZM138.21 12.7656C138.114 12.615 137.949 12.4666 137.945 12.3137C137.942 12.1966 138.142 12.0748 138.251 11.955C138.375 12.0748 138.499 12.1949 138.689 12.3789C138.465 12.5591 138.338 12.6623 138.21 12.7656Z" stroke="#251C1C" stroke-width="0.4" mask="url(#path-3-outside-1)"/>
<path d="M138.031 6.08288C138.477 6.09186 139.055 5.458 139.035 4.98124C139.022 4.64083 138.376 4.08913 137.98 4.07877C137.554 4.06807 137.143 4.57524 137.14 5.11485C137.136 5.66101 137.515 6.07218 138.031 6.08288ZM138.229 4.80552C138.223 5.05754 138.217 5.30921 138.212 5.56089C138.09 5.57055 137.968 5.58021 137.846 5.58988C137.805 5.34373 137.764 5.09756 137.724 4.85106C137.892 4.83587 138.06 4.82071 138.229 4.80552Z" stroke="#251C1C" stroke-width="0.4" mask="url(#path-3-outside-1)"/>
<path d="M135.183 29.5084C135.013 29.3641 134.875 29.2019 134.698 29.1076C134.515 29.0106 134.236 28.8784 134.103 28.9471C133.948 29.0279 133.832 29.3047 133.823 29.5019C133.773 30.5932 134.48 31.3565 135.111 32.2537C135.707 31.4045 136.413 30.7188 136.403 29.709C136.4 29.4387 136.239 29.1701 136.126 28.8269C135.72 29.1204 135.45 29.3151 135.183 29.5084ZM135.146 31.4421C134.573 30.8486 134.241 30.3111 134.466 29.5195C134.595 29.6803 134.732 29.8361 134.851 30.0038C134.959 30.1571 135.047 30.3235 135.145 30.4844C135.272 30.3656 135.404 30.2521 135.524 30.1271C135.623 30.0235 135.707 29.9068 135.797 29.7957C135.85 29.8212 135.903 29.8467 135.956 29.8723C135.699 30.3705 135.442 30.869 135.146 31.4421Z" stroke="#251C1C" stroke-width="0.4" mask="url(#path-3-outside-1)"/>
</g>
<defs>
<clipPath id="clip0">
<rect width="143" height="33.0405" fill="white"/>
</clipPath>
</defs>
</svg>
