<svg width="23" height="20" viewBox="0 0 23 20" fill="none" xmlns="http://www.w3.org/2000/svg">
<path d="M2.79246 6.5936C3.04771 7.11645 3.30707 7.63619 3.57055 8.15492C4.12633 9.25001 4.70475 10.3307 5.31199 11.399C5.90276 12.4375 6.49457 13.478 7.1543 14.4743C7.47542 14.9591 7.78829 15.4541 8.14131 15.9173C8.51903 16.4123 8.87516 16.9774 9.39182 17.3345C9.88482 17.6752 10.3881 17.1143 10.3058 16.6316C10.2131 16.0819 9.86732 15.5478 9.62237 15.0507C9.36506 14.5289 9.07276 14.0246 8.79796 13.513C8.23292 12.4601 7.62981 11.4278 7.05859 10.377C6.50384 9.35603 5.95422 8.32988 5.41388 7.30066C5.14422 6.78605 4.87765 6.26938 4.61623 5.75065C4.34143 5.2062 4.11809 4.55779 3.66833 4.13478C3.13622 3.63458 2.04423 3.95158 2.11216 4.77908C2.16568 5.43983 2.50531 6.00695 2.79246 6.5936Z" fill="#39B100"/>
<path d="M9.24277 10.9806C9.63182 12.7375 10.0414 14.4892 10.415 16.2492C10.4902 16.6033 10.7804 16.7093 11.0449 16.6434C11.0738 17.0952 11.6717 17.4894 12.1029 17.2146C13.4049 16.3861 13.7384 14.8207 14.1573 13.4394C14.6698 11.7505 15.1278 10.0358 15.5529 8.32217C15.7351 7.5873 16.2651 6.41092 15.8411 5.68635C15.6743 5.40126 15.3563 5.25408 15.0362 5.30039C14.571 5.36832 14.2777 5.82425 14.1295 6.23697C13.5243 7.9218 13.1517 9.71986 12.6907 11.4479C12.4447 12.3701 12.2419 13.3015 12.0114 14.2278C11.8776 14.7661 11.7345 15.2817 11.4854 15.7593C11.2075 14.0673 10.976 12.3691 10.7454 10.6709C10.626 9.79087 10.5036 8.9109 10.3718 8.03298C10.2463 7.19828 10.238 6.19992 9.93543 5.41359C9.59373 4.52641 8.27015 4.61904 8.2331 5.64414C8.20119 6.50456 8.51409 7.44529 8.67876 8.28925C8.85682 9.18982 9.04413 10.0852 9.24277 10.9806Z" fill="#39B100"/>
<path d="M22.6751 5.69877C22.3993 5.6329 22.2748 5.46411 22.2398 5.18725C22.2274 5.09154 22.1286 4.99995 22.0545 4.91967C21.7529 4.59547 21.4359 4.2836 21.1416 3.95219C20.6743 3.42317 20.2482 2.85298 19.7532 2.35175C19.114 1.70334 18.409 1.11978 17.7616 0.480637C17.528 0.249063 17.3149 0.197604 17.0124 0.276854C16.7108 0.355075 16.3979 0.414766 16.0871 0.428146C15.698 0.444614 15.3049 0.418894 14.9158 0.388018C14.005 0.313914 13.0972 0.190403 12.1863 0.151292C10.4717 0.0771884 8.75491 0.0483733 7.03921 0C7.03921 0.00617531 7.03921 0.0123426 7.03818 0.0174887C6.4227 0.0174887 5.80724 0.0185179 5.19073 0.0174887C4.79757 0.0174887 4.24387 0.331408 4.2027 0.693693C4.14815 1.17331 3.80952 1.38738 3.51722 1.66218C3.39475 1.77642 3.25683 1.87318 3.13333 1.98537C2.43346 2.62348 1.73358 3.26056 1.03989 3.90588C0.891678 4.0438 0.770239 4.21156 0.63747 4.36594C0.516022 4.50591 0.41001 4.66133 0.275182 4.78587C-0.100482 5.13169 -0.101505 5.36119 0.333855 5.59379C0.892721 5.89226 1.30956 6.33895 1.70581 6.81239C2.50757 7.77163 3.10656 8.86981 3.80026 9.90211C4.50836 10.954 5.19383 12.0213 5.94104 13.0454C6.63267 13.9943 7.39326 14.8928 8.12092 15.816C8.57069 16.3872 9.02663 16.9543 9.45993 17.5379C9.75841 17.9413 10.0456 18.3571 10.2988 18.7915C10.5519 19.2248 10.9214 19.2896 11.2652 18.9109C11.5554 18.5939 11.8086 18.2367 12.1318 17.9588C13.4214 16.8483 14.536 15.5669 15.7073 14.3422C16.648 13.3592 17.5877 12.3743 18.5232 11.3862C19.1902 10.6833 19.8252 9.94739 20.5209 9.27325C21.1807 8.6341 21.6356 7.79016 22.5413 7.38259C23.023 7.16542 23.129 6.29984 22.8418 5.83361C22.8058 5.77494 22.7379 5.71318 22.6751 5.69877ZM17.6289 1.61381C18.9349 2.68214 20.1463 3.80604 21.0376 5.38692C20.7772 5.44249 20.6362 5.5022 20.4973 5.49808C18.5891 5.43015 16.683 5.354 14.6379 5.27372C15.1237 4.51827 15.6496 3.96145 16.1169 3.36039C16.5811 2.76241 16.9846 2.10886 17.6289 1.61381ZM16.5492 1.13935C16.5492 1.29374 16.577 1.38326 16.5451 1.43266C16.0294 2.22105 15.6332 3.08971 14.8963 3.72783C14.4208 4.13952 14.2551 4.15906 13.8743 3.6424C13.5212 3.16381 13.1682 2.68421 12.8389 2.18915C12.6124 1.84951 12.4344 1.48104 12.4385 0.971577C13.8135 1.02715 15.1711 1.08275 16.5492 1.13935ZM13.3833 4.39373C13.5254 4.57281 13.5943 4.80954 13.7302 5.08948C12.1565 5.19858 10.7073 4.70044 9.19645 4.83733C9.82427 3.64549 10.6549 2.67288 11.751 1.87935C12.2193 2.81286 12.773 3.62079 13.3833 4.39373ZM6.11806 0.867625C7.1411 0.831602 8.16519 0.802782 9.18926 0.788373C9.69255 0.782197 10.1958 0.808968 10.6981 0.825436C10.8237 0.829553 10.9492 0.853227 11.1633 0.878957C10.802 1.54795 10.3626 2.07284 9.89426 2.58848C9.43626 3.09279 9.0359 3.64755 8.56246 4.24038C8.39161 4.09835 8.23619 4.01395 8.14253 3.88427C7.39943 2.85917 6.53798 1.94109 5.51905 1.0148C5.78047 0.947897 5.94721 0.8738 6.11806 0.867625ZM2.63314 3.43964C3.24964 2.87357 3.88157 2.32398 4.49498 1.75276C4.74096 1.52428 4.94578 1.63645 5.13618 1.79392C5.92971 2.44953 6.65017 3.17205 7.15449 4.08393C7.28417 4.31757 7.43856 4.53577 7.64955 4.86718C5.59935 4.81057 3.67675 4.75705 1.74491 4.70353C1.82622 4.44416 2.32232 3.72576 2.63314 3.43964ZM10.0662 16.9945C9.89325 16.8442 9.77178 16.768 9.68945 16.662C9.17587 15.9982 8.67877 15.323 8.16416 14.6623C7.55795 13.8842 6.90439 13.14 6.33215 12.3372C5.51083 11.1845 4.74302 9.99371 3.95567 8.81628C3.33608 7.88793 2.77104 6.92148 2.02589 6.08061C1.92708 5.96945 1.84371 5.84391 1.7624 5.71938C1.73461 5.67615 1.7336 5.61543 1.70684 5.5125C1.98988 5.46207 2.26157 5.37046 2.53122 5.37458C3.62837 5.39208 4.72451 5.4425 5.82166 5.47338C6.38052 5.48985 6.93937 5.50631 7.49823 5.49293C7.78539 5.48675 7.96448 5.58556 8.05094 5.85316C8.19194 6.29263 8.34734 6.71667 8.40189 7.1932C8.56657 8.63514 8.7014 10.0822 9.075 11.4953C9.52066 13.1843 9.89222 14.8907 10.0651 16.6342C10.0734 16.7197 10.0662 16.8071 10.0662 16.9945ZM10.8545 16.3337C10.8 16.0177 10.767 15.817 10.73 15.6174C10.554 14.6664 10.4089 13.7082 10.1917 12.7664C9.94471 11.7002 9.62152 10.6524 9.35701 9.59026C9.29011 9.32472 9.34054 9.03344 9.30452 8.75864C9.24379 8.27799 9.14294 7.80147 9.08531 7.32082C9.01532 6.73211 8.97208 6.14032 8.91753 5.55366C9.40641 5.47338 13.1816 5.73172 13.5933 5.86552C13.6849 6.65596 11.4937 14.8794 10.8545 16.3337ZM21.017 7.6018C20.3974 8.08347 20.0382 8.76893 19.4948 9.30104C19.0029 9.78271 18.5315 10.286 18.0591 10.7873C17.001 11.9122 15.9523 13.0433 14.8942 14.1672C14.1027 15.0081 13.3133 15.851 12.5023 16.6723C12.209 16.9687 11.8549 17.2024 11.5276 17.4658C11.4968 17.4442 11.4649 17.4236 11.433 17.403C11.4628 17.2476 11.4803 17.0892 11.5256 16.9379C11.7664 16.1165 12.0278 15.3014 12.2543 14.477C12.4416 13.7946 12.5816 13.1009 12.7576 12.4155C13.1384 10.9385 13.5243 9.46263 13.9165 7.98775C14.0966 7.30847 14.2952 6.63537 14.499 5.9108C14.677 5.9108 14.7686 5.90051 14.8582 5.91183C15.7598 6.02504 16.6748 5.94579 17.5743 6.14546C17.985 6.23706 18.4286 6.1753 18.8577 6.18765C19.711 6.21338 20.5642 6.24117 21.3886 6.26793C21.6994 6.88752 21.3711 7.327 21.017 7.6018Z" fill="#251C1C"/>
</svg>
