<svg width="21" height="28" viewBox="0 0 21 28" fill="none" xmlns="http://www.w3.org/2000/svg">
<path d="M0.0990595 3.98951C0.147379 4.78596 0.193047 5.58282 0.235741 6.37968C0.321128 7.97544 0.429017 9.56957 0.514404 11.1657C0.684516 14.3462 0.830468 17.5292 0.9281 20.7146C0.95557 21.6093 0.979396 22.504 0.999915 23.3991C1.01018 23.8467 1.01944 24.2943 1.02771 24.7418C1.03168 24.9589 1.03336 25.1759 1.03931 25.3929C1.04329 25.5334 1.05554 25.673 1.07076 25.8122C1.08929 25.9842 1.15913 26.1116 1.23624 26.2508C1.43349 26.6058 1.84024 26.6308 2.03319 26.2508C2.07687 26.1648 2.11954 26.0841 2.15132 25.9904C2.19864 25.852 2.20261 25.7041 2.20791 25.5559C2.21552 25.3397 2.2046 25.1214 2.19963 24.9048C2.19103 24.5113 2.18176 24.1182 2.17216 23.7251C2.15197 22.925 2.12914 22.1248 2.10332 21.3251C2.05169 19.7252 1.98884 18.1262 1.9147 16.5276C1.84057 14.9285 1.75286 13.3311 1.64729 11.7345C1.54105 10.1252 1.44177 8.51105 1.28986 6.9071C1.20546 6.01523 1.51391 5.12378 1.42256 4.23315C1.37491 3.76798 1.32394 3.30362 1.26536 2.84008C1.20844 2.38965 1.36266 1.79876 1.26536 1.35897C1.16111 0.88888 0.0222736 1.13252 0.00407096 1.60179C-0.011484 2.00596 0.0212988 2.41176 0.0391705 2.81592C0.0577041 3.20739 0.0755616 3.59845 0.0990595 3.98951Z" fill="#EF4036"/>
<path d="M5.77319 21.6193C5.82511 21.9622 6.27442 22.1816 6.58637 22.0807C6.77035 22.0214 6.90406 21.907 6.98256 21.7611C7.15183 21.791 7.33214 21.7468 7.4642 21.6026C7.80518 21.2299 7.74996 20.6721 7.69845 20.2033C7.65429 19.8029 7.6028 19.4032 7.55455 19.0031C7.45029 18.1352 7.33867 17.27 7.20907 16.4053C7.10277 15.6955 6.99933 14.9849 6.89385 14.2746C6.86768 13.875 6.84152 13.4753 6.81535 13.076C6.82598 12.9073 6.83579 12.7385 6.84274 12.5697C6.85991 12.1607 6.90118 11.7291 6.82146 11.3266C6.79856 11.211 6.66364 11.1542 6.55571 11.1807C6.48089 11.101 6.38279 11.0577 6.2634 11.0532C5.95554 11.0414 5.77769 11.2465 5.7458 11.6543C5.73884 11.7418 5.7368 11.8305 5.74088 11.9183C5.76378 12.4099 5.79609 12.9011 5.81203 13.3932C5.82307 13.7262 5.83167 14.0593 5.84066 14.3923C5.80223 14.6714 5.76544 14.9509 5.7315 15.2305C5.5696 16.5545 5.49025 17.9055 5.54217 19.2389C5.57365 20.0366 5.6538 20.8302 5.77319 21.6193Z" fill="#39B100"/>
<path d="M10.2241 12.1491C10.3378 12.237 10.4666 12.2667 10.6013 12.2629C10.8508 12.4086 11.1774 12.4498 11.4328 12.5059C11.5668 12.5352 11.7018 12.5624 11.8372 12.588C11.8108 13.1024 11.7873 13.6172 11.7818 14.1325C11.7737 14.922 11.7935 15.7083 11.8119 16.4974C11.8489 18.0753 11.9032 19.6524 11.9245 21.2306C11.9304 21.6601 12.2566 22.0726 12.6555 22.0524C13.0456 22.0326 13.6811 22.2875 13.6734 21.8271C13.6477 20.2336 13.6037 18.0427 13.5009 16.4529C13.4499 15.6613 13.3094 14.9142 13.2202 14.1267C13.1688 13.6742 13.2676 13.2332 13.1982 12.784C13.4734 12.8178 13.3703 12.8033 13.6459 12.8359C14.0576 12.885 14.4847 12.9799 14.8407 12.6709C15.5903 12.0196 15.2942 10.4734 15.2942 10.4734C16.0798 10.4227 14.0235 10.4772 14.1431 10.4957C14.2609 10.5139 13.9993 10.4743 13.9981 10.4734C13.9299 10.4648 13.8617 10.4602 13.793 10.4582C13.6312 10.4532 13.469 10.4541 13.3072 10.4541C12.9747 10.4536 12.6419 10.4582 12.3098 10.4821C11.9245 10.5097 10.8956 9.86869 10.5173 9.95532C10.0825 10.0547 10.085 10.8711 9.96428 11.4334C9.903 11.7254 10.0113 11.9849 10.2241 12.1491Z" fill="#39B100"/>
<path d="M20.8718 23.8243C20.8085 22.3586 20.7633 20.8925 20.7113 19.4264C20.6686 18.2101 20.7028 16.9842 20.5613 15.7804C20.4395 14.7425 20.4822 13.7095 20.4286 12.6757C20.4036 12.1943 20.3838 11.7105 20.4048 11.2295C20.4851 9.37101 20.5786 7.51332 20.6762 5.65605C20.7157 4.90533 20.7936 4.1571 20.8258 3.40637C20.8646 2.51432 20.8738 1.6206 20.8936 0.727296C20.898 0.516961 20.894 0.306211 20.894 0.00442538C20.5839 0.00442538 20.36 -0.00679856 20.1378 0.00650329C19.117 0.0667773 18.0966 0.137027 17.0758 0.197716C16.3321 0.242194 15.5876 0.281268 14.8435 0.317017C14.2034 0.347778 13.563 0.379787 12.9221 0.394336C12.1244 0.412626 11.325 0.386854 10.5284 0.428006C9.55804 0.477888 8.59093 0.588042 7.62137 0.652058C6.68608 0.713994 5.74713 0.725219 4.81306 0.804199C3.89753 0.881516 2.98806 1.04114 2.07214 1.11679C1.50508 1.16376 0.931194 1.1222 0.360102 1.12053C0.258467 1.12012 0.156821 1.12053 0.00598151 1.12053C0.00598151 1.31175 -0.00895843 1.48259 0.00838406 1.64928C0.114052 2.6623 0.267712 3.67158 0.327805 4.68709C0.407258 6.02434 0.407265 7.367 0.455259 8.70675C0.50769 10.1733 0.560538 11.6398 0.641201 13.1047C0.729527 14.7105 0.861399 16.3133 0.952548 17.9191C1.0195 19.0967 1.04089 20.2769 1.10139 21.4549C1.18245 23.0428 1.4942 24.6158 1.36594 26.2182C1.34175 26.5204 1.45748 26.8409 1.72609 27.0097C2.06286 27.2217 2.43031 27.383 2.78845 27.5567C2.88041 27.6012 2.9889 27.6328 3.08932 27.6315C3.73059 27.6224 4.37388 27.6274 5.01353 27.5821C6.95347 27.4445 8.8934 27.3048 10.8301 27.1269C11.7101 27.0458 12.5809 26.8667 13.4577 26.7436C14.2305 26.6352 15.0032 26.4967 15.7804 26.4531C17.1142 26.3783 18.4503 26.3537 19.7724 26.1313C20.0079 26.0919 20.2374 26.005 20.4649 26.2078C20.5225 26.2594 20.7645 26.2024 20.8202 26.1214C20.923 25.9717 21.0057 25.7651 20.9997 25.586C20.9791 24.9978 20.8972 24.4121 20.8718 23.8243ZM2.32098 26.5599C2.06689 26.6318 1.71685 26.4701 1.67087 26.1791C1.40267 24.4844 1.47442 22.7664 1.32116 21.0617C1.04247 17.9636 0.83033 14.8593 0.685943 11.7516C0.540347 8.62236 0.463343 5.48978 0.462939 2.35719C0.462939 1.65469 1.52001 1.65593 1.52042 2.35719C1.52082 4.10763 1.54461 5.85766 1.59139 7.60726C1.67447 10.7203 1.82775 13.8309 2.04756 16.9369C2.15565 18.467 2.31293 19.9938 2.41618 21.5239C2.51458 22.9771 2.46258 24.4482 2.69085 25.8898C2.73643 26.1812 2.62104 26.4751 2.32098 26.5599ZM20.4733 24.6677C20.4713 25.428 20.3919 25.4858 19.6695 25.6521C18.8992 25.8291 18.122 25.8138 17.3449 25.872C16.0647 25.968 14.7919 26.1675 13.5174 26.3354C12.4155 26.4805 11.3193 26.6821 10.2142 26.7885C8.36665 26.9664 6.51507 27.097 4.66386 27.2275C4.11213 27.2662 3.55593 27.2375 2.99976 26.9224C2.96144 26.3857 2.90743 25.8183 2.88243 25.2497C2.8304 24.0704 2.80983 22.8894 2.74489 21.711C2.70335 20.9627 2.58881 20.2191 2.53638 19.4709C2.47629 18.6162 2.45733 17.7587 2.4053 16.9032C2.33392 15.7256 2.23672 14.5492 2.1734 13.3711C2.13024 12.5684 2.1246 11.7637 2.10605 10.9597C2.07943 9.79708 2.04878 8.63483 2.03385 7.47175C2.01813 6.25505 2.02535 5.03751 2.01003 3.82081C2.00398 3.33862 1.96808 2.85726 1.93783 2.3759C1.89992 1.77232 1.83581 1.58735 2.63599 1.45391C3.55796 1.30011 4.49242 1.21406 5.42488 1.1409C7.10267 1.00913 8.78209 0.897312 10.4619 0.801289C11.1197 0.763877 11.7815 0.809601 12.4405 0.78466C13.2544 0.7539 14.0671 0.673673 14.8814 0.642082C16.024 0.597188 17.1674 0.580144 18.3104 0.545643C18.6052 0.536498 18.8996 0.508233 19.194 0.487865C19.3675 0.47581 19.5405 0.449622 19.7135 0.451284C20.2463 0.456273 20.4133 0.588044 20.4439 1.13217C20.4859 1.88207 20.525 2.63694 20.4883 3.38559C20.4205 4.77896 20.2769 6.16859 20.2023 7.56196C20.1325 8.86471 20.0801 10.1704 20.0781 11.4748C20.0761 12.6907 20.1463 13.9069 20.1914 15.1228C20.2544 16.82 20.3338 18.5169 20.3862 20.2145C20.4302 21.6449 20.4455 23.0761 20.4733 24.5064C20.4745 24.5605 20.4737 24.6141 20.4733 24.6677Z" fill="#251C1C"/>
<path d="M15.4736 7.61189C15.6686 7.77964 15.8687 7.74773 16.0932 7.69116C16.9059 7.48623 17.7242 7.29118 18.5388 7.08955C18.8514 7.01225 18.8532 6.99613 18.6456 6.63135C17.6399 6.9037 16.6314 7.17408 15.6276 7.45367C15.5561 7.47374 15.5221 7.55959 15.4736 7.61189Z" fill="#251C1C"/>
<path d="M13.2632 7.57404C13.3956 7.64833 13.5029 7.75724 13.5658 7.73371C13.6995 7.68433 13.8267 7.58281 13.9261 7.47252C14.2115 7.15549 14.4605 6.7997 14.7614 6.50114C15.598 5.67189 16.4473 4.85649 17.3046 4.05077C17.6327 3.74205 17.7792 3.50163 17.6191 3.39042C17.2839 3.15738 17.1616 3.53024 16.9896 3.70006C16.5362 4.1486 16.1064 4.62391 15.6573 5.07706C14.9628 5.77803 14.2577 6.46699 13.5628 7.16657C13.4585 7.27132 13.3841 7.40745 13.2632 7.57404Z" fill="#251C1C"/>
<path d="M17.2031 16.5902C17.0158 16.6306 16.8647 16.8806 16.5791 17.1462C16.8771 17.3971 17.0595 17.6591 17.2651 17.6839C17.3881 17.6986 17.6299 17.3631 17.6712 17.1499C17.7389 16.8053 17.54 16.5185 17.2031 16.5902Z" fill="#251C1C"/>
<path d="M17.5959 18.9573C17.5298 18.8499 17.1354 18.7494 17.0003 18.8057C16.4262 19.0441 16.4767 19.4059 16.9245 19.8948C17.3024 19.5986 17.9135 19.4737 17.5959 18.9573Z" fill="#251C1C"/>
<path d="M15.0286 10.1033C14.2653 10.0954 13.5011 10.0859 12.7382 10.0542C11.7207 10.0116 10.6961 10.1508 9.68408 9.95842C9.43543 9.91089 9.27783 10.0192 9.15033 10.2085C8.82035 10.6979 8.81527 11.2313 8.86568 11.7697C8.90508 12.1843 9.06985 12.2858 9.54385 12.2922C9.88739 12.2971 10.2373 12.3084 10.5698 12.3748C10.7435 12.4095 10.9621 12.5408 11.0273 12.6785C11.1734 12.9867 11.2768 13.3221 11.3238 13.6545C11.392 14.1366 11.3908 14.6263 11.4297 15.1118C11.4373 15.2035 11.4953 15.2918 11.553 15.4404C11.5996 15.3337 11.6229 15.3042 11.6241 15.274C11.6674 14.3354 11.6665 13.3991 11.3683 12.4857C11.2734 12.1941 11.0616 12.0137 10.71 11.9794C10.4025 11.9489 10.0941 11.9179 9.78783 11.8779C9.35788 11.8217 9.21598 11.6644 9.24394 11.292C9.28461 10.7552 9.42101 10.6115 10.0098 10.51C10.1699 10.4824 10.3356 10.4666 10.4986 10.4666C11.8088 10.4658 13.1207 10.3855 14.4292 10.5251C14.8757 10.5726 14.9574 10.6254 15.0298 11.017C15.0476 11.1128 15.057 11.2106 15.0612 11.3079C15.0841 11.8613 14.8782 12.0507 14.2623 12.0345C13.8616 12.0243 13.4604 11.9855 13.0606 11.9919C12.648 11.9987 12.5509 12.1122 12.5802 12.477C12.6416 13.2527 12.6713 14.0325 12.7806 14.8032C12.864 15.3944 12.9191 15.9856 12.9466 16.5782C12.9652 16.9736 12.9712 17.3697 12.9657 17.7674C12.961 18.1107 12.947 18.4744 13.2423 18.7894C13.2423 18.6781 13.2508 18.566 13.2406 18.4559C13.183 17.8281 13.1088 17.2019 13.0665 16.5737C13.0512 16.3511 13.1393 16.1236 13.1283 15.9003C13.0864 15.0609 13.0178 14.2226 12.9716 13.3832C12.9618 13.2074 12.9775 13.0237 13.025 12.8532C13.1165 12.5238 13.2732 12.4182 13.6426 12.411C14.0789 12.4023 14.5156 12.3993 14.9519 12.4072C15.3679 12.4148 15.4772 12.3401 15.4738 11.9692C15.4696 11.4682 15.4501 10.9672 15.4297 10.4662C15.4208 10.244 15.3149 10.1063 15.0286 10.1033Z" fill="black"/>
<path d="M13.0498 19.843C13.0522 20.2579 13.0787 20.6776 13.0522 21.0855C13.0169 21.6266 12.7633 21.8068 12.5394 21.463C12.4698 21.3567 12.4181 21.151 12.4071 20.9796C12.3514 20.119 12.2959 19.2562 12.2712 18.3912C12.2465 17.5245 12.2602 16.6538 12.2524 15.7853C12.2515 15.6811 12.2231 15.5774 12.2073 15.4736C12.1906 15.4824 12.1742 15.4908 12.1577 15.4996C12.1819 17.6625 12.2061 19.8254 12.2308 22.0314C12.4653 22.0573 12.7152 22.1061 12.965 22.1052C13.1288 22.1052 13.2648 21.8573 13.263 21.569C13.2585 20.8565 13.2129 20.1524 13.0498 19.4834C13.0498 19.6034 13.0491 19.7234 13.0498 19.843Z" fill="black"/>
<path d="M11.3298 6.63171C11.8052 6.31307 11.8427 5.9008 12.0622 5.53868C12.2791 5.18101 12.4448 4.81159 12.6412 4.44883C12.8397 4.08227 13.0484 3.71761 13.2633 3.332C12.855 3.27742 12.6822 3.36437 12.6109 3.55321C12.5309 3.76617 12.4745 3.98388 12.3668 4.19113C12.0088 4.87855 11.7391 5.58597 11.1616 6.22516C11.0483 6.35083 10.9298 6.51015 11.3298 6.63171Z" fill="#251C1C"/>
<path d="M9.9179 3.95148C9.83414 3.32469 9.41535 3.15281 8.75972 3.47461C8.19421 3.75204 7.89266 4.18127 7.75922 4.68336C7.68182 4.97434 7.80484 5.26765 8.13063 5.41244C8.34032 5.50585 8.7008 5.57171 8.87525 5.4881C9.49449 5.19152 9.84799 4.71792 9.94734 4.18594C9.9329 4.07058 9.92598 4.01126 9.9179 3.95148ZM8.50147 4.9267C8.39981 4.51288 8.50846 4.24526 8.87469 4.08412C8.9648 4.04442 9.12769 4.03275 9.20221 4.07385C9.27962 4.11682 9.32812 4.23965 9.32349 4.32559C9.30732 4.61143 8.96821 4.84823 8.50147 4.9267Z" fill="#251C1C"/>
<path d="M6.2494 5.5275C5.95464 5.5129 5.64832 5.63923 5.3735 5.91553C5.22191 6.06752 5.02558 6.24669 4.84207 6.25776C4.27161 6.29249 3.93031 6.70368 3.65062 7.16016C3.40727 7.55775 3.20292 8.03487 3.38687 8.55124C3.69715 9.42242 4.32079 9.88595 5.10889 9.93779C5.9462 9.99315 6.77952 9.8316 7.23607 8.87737C7.45105 8.42793 7.62746 7.92817 7.70902 7.4274C7.88189 6.36396 7.23564 5.52498 6.2494 5.5275ZM6.32074 9.2196C6.12792 9.37864 5.82739 9.36857 5.58227 9.4345C5.26003 9.39424 4.95333 9.38317 4.65724 9.31321C4.20823 9.20651 3.85805 8.70927 3.8319 8.19994C3.81107 7.7943 4.17984 7.02981 4.50119 6.92965C4.68603 6.87177 4.90899 6.93015 5.10668 6.97948C5.23124 7.01018 5.33539 7.136 5.45817 7.19237C5.73786 7.32121 5.95329 7.16167 5.87528 6.83604C5.79106 6.48425 5.81545 6.23864 6.11465 6.09168C6.41695 5.94371 6.77818 6.04387 6.97631 6.37755C7.10751 6.59849 7.22456 6.88687 7.22278 7.14355C7.21613 7.98605 6.92977 8.71933 6.32074 9.2196Z" fill="#251C1C"/>
<path d="M7.52422 19.0507C7.45187 17.7988 7.39897 16.5458 7.3597 15.2927C7.32993 14.3444 7.33488 13.3949 7.32413 12.4461C7.32041 12.1064 7.31958 11.767 7.31048 11.4276C7.30469 11.2171 7.21085 11.0579 6.9657 11.0547C6.50928 11.0488 6.05285 11.0575 5.53153 11.0607C5.53153 11.4178 5.5175 11.6704 5.53569 11.9211C5.55471 12.1907 5.63738 12.4591 5.63448 12.7276C5.62125 13.9802 5.7676 15.2242 5.83954 16.4725C5.86021 16.8264 5.81888 17.1835 5.83376 17.5383C5.84658 17.8422 5.92058 18.1437 5.9305 18.4472C5.96688 19.5292 5.98548 20.6111 6.01484 21.6931C6.0231 22.0037 6.09504 22.077 6.42991 22.0955C6.69574 22.1101 6.96321 22.0924 7.22945 22.1034C7.54985 22.1172 7.66563 22.0624 7.71441 21.7865C7.74666 21.6052 7.73922 21.4144 7.72309 21.23C7.66067 20.5031 7.56597 19.7783 7.52422 19.0507ZM7.32659 21.172C7.30303 21.5094 7.11288 21.6655 6.8363 21.6608C6.5589 21.656 6.40261 21.5437 6.36002 21.2138C6.27031 20.5276 6.20251 19.8378 6.15166 19.148C6.09047 18.3191 6.04707 17.4886 6.01358 16.6585C5.97514 15.6944 5.95901 14.7295 5.92593 13.7654C5.90981 13.2908 5.87718 12.817 5.85403 12.3429C5.8499 12.2581 5.85193 12.1726 5.85896 12.0882C5.8912 11.6949 6.07105 11.497 6.38235 11.5084C6.65727 11.5187 6.82142 11.7228 6.84664 12.091C6.9132 13.0547 6.97893 14.018 7.04467 14.9818C7.03185 14.9825 7.0186 14.9833 7.00579 14.9841C7.10666 16.6758 7.20962 18.3676 7.30636 20.0593C7.32786 20.4298 7.35222 20.8031 7.32659 21.172Z" fill="black"/>
<path d="M6.65422 3.80791C6.76056 4.02044 6.86633 4.28034 7.01783 4.3864C7.18681 4.50503 7.34471 4.29669 7.46241 4.09045C7.67218 3.72366 7.7593 3.30698 7.73162 2.83288C7.7153 2.55579 7.65061 2.34787 7.45046 2.26026C7.25643 2.17517 7.08629 2.18271 6.93304 2.41327C6.73056 2.7176 6.62917 3.06972 6.63208 3.49017C6.63791 3.5979 6.61693 3.73288 6.65422 3.80791ZM7.43618 2.757C7.52883 3.37447 7.45307 3.61048 7.06383 3.919C6.85378 3.18668 6.96304 2.84545 7.43618 2.757Z" fill="#251C1C"/>
<path d="M4.37065 4.73918C4.96135 4.84408 5.22915 4.75179 5.43647 4.35627C5.48995 4.25452 5.51011 4.1416 5.52368 4.03268C5.55865 3.7455 5.22789 3.3411 4.94899 3.31731C4.67339 3.29381 4.16949 3.57239 4.04856 3.82002C4.02058 3.87763 4.01567 3.94068 3.99963 4.00087C3.98359 4.06135 3.97781 4.12469 3.94737 4.18172C3.87702 4.31557 3.69235 4.36114 3.52493 4.28146C3.43895 4.24076 3.3826 4.17169 3.30198 4.1244C3.11481 4.01377 2.91404 3.99887 2.73428 4.12669C2.57508 4.24019 2.40974 4.35598 2.29621 4.49069C2.22381 4.57696 2.18431 4.71367 2.22997 4.80309C2.32252 4.98423 2.4698 5.15447 2.6183 5.31899C2.83879 5.56289 2.95971 5.58181 3.30113 5.42761C3.43071 5.36914 3.55412 5.28947 3.63845 5.20004C3.78201 5.04757 3.89267 4.8799 4.04446 4.683C4.16869 4.7045 4.26987 4.72141 4.37065 4.73918ZM5.07734 3.54287C5.32045 4.02495 5.22955 4.22414 4.68615 4.45916C4.18759 4.16166 4.33979 3.77703 5.07734 3.54287ZM2.94365 5.20893C2.50391 4.91831 2.48173 4.63256 2.88239 4.42735C2.97905 4.37776 3.15426 4.34394 3.25381 4.37174C3.35788 4.40069 3.45869 4.50645 3.48254 4.58957C3.56152 4.86328 3.41753 5.01891 2.94365 5.20893Z" fill="#251C1C"/>
</svg>
