<svg width="370" height="204" viewBox="0 0 370 204" fill="none" xmlns="http://www.w3.org/2000/svg">
    <path d="M271.029 198.422C272.843 198.535 275.268 197.281 276.017 195.561C276.838 193.675 277.298 191.917 276.802 189.863C276.434 188.34 275.484 186.827 274.297 185.807C274.294 185.804 274.291 185.804 274.289 185.802C274.283 185.767 274.278 185.735 274.273 185.7C273.853 182.887 272.52 182.077 269.624 182.604C269.121 182.696 268.612 182.795 268.104 182.879C267.471 182.752 266.828 182.658 266.171 182.596C260.675 182.082 255.125 181.8 249.607 181.633C244.149 181.466 238.674 181.52 233.229 182.017C228.831 182.418 224.455 183.159 220.027 183.17C218.905 183.172 217.783 183.121 216.663 183.035C216.456 183.019 216.248 182.997 216.041 182.978C215.503 182.857 214.956 182.766 214.418 182.645C213.401 182.416 212.44 182.093 211.455 181.77C211.457 181.754 210.903 181.555 210.779 181.495C210.211 181.221 209.635 180.965 209.075 180.674C205.07 178.615 200.818 182.763 202.947 186.803C203.065 187.026 203.186 187.242 203.313 187.452C201.709 187.823 200.123 188.316 198.568 188.991C197.97 188.876 197.34 188.728 196.627 188.542C193.553 187.74 190.862 191.799 193.4 194.084C194.46 195.039 195.596 195.809 196.788 196.433C196.813 196.729 196.834 197.023 196.859 197.319C197.962 197.413 198.713 197.545 199.416 197.553C206.352 199.903 214.666 198.406 221.75 198.051C232.241 197.523 242.771 197.343 253.273 197.612C259.197 197.768 265.116 198.054 271.029 198.422Z" fill="#EF4036"/>
    <path d="M357.788 18.2395C357.403 15.9921 357.021 13.7447 356.596 11.5053C356.208 9.47589 355.503 7.44112 354.007 5.95001C350.435 2.39448 344.721 4.19778 340.361 4.77108C335.734 5.37937 331.11 5.99573 326.483 6.58517C324.171 6.87855 321.856 7.17463 319.544 7.468C318.298 7.62681 317.052 7.78023 315.808 7.94441C314.139 8.16243 312.926 8.84339 311.515 9.70199C309.125 11.1581 309.626 14.7782 312.285 15.583C313.426 15.9275 314.594 16.3824 315.808 16.3366C316.691 16.3016 317.601 16.1078 318.478 15.9975C320.524 15.7364 322.569 15.4753 324.618 15.217C328.531 14.719 332.445 14.2319 336.361 13.7501L341.965 13.061C343.959 12.8161 346.002 12.4204 348.01 12.3558C348.529 14.1591 348.745 16.089 349.07 17.9327C351.743 33.1426 353.775 47.8545 355.312 63.1667C358.413 94.0521 359.279 125.161 357.853 156.17C357.659 160.374 357.425 164.576 357.145 168.775C357.07 169.913 356.994 171.049 356.911 172.185C356.905 172.255 356.876 172.505 356.86 172.683C356.529 172.758 356.192 172.815 355.858 172.871C354.822 173.049 353.78 173.197 352.739 173.345C344.438 174.532 335.58 174.979 327.056 175.773C325.412 175.926 323.996 177.07 323.996 178.833C323.996 180.663 325.409 181.678 327.056 181.893C335.249 182.962 343.55 182.625 351.751 181.737C355.813 181.298 361.207 181.468 363.812 177.759C365.093 175.937 365.249 173.816 365.405 171.657C365.561 169.472 365.709 167.283 365.844 165.095C366.845 148.817 367.217 132.501 366.958 116.193C366.433 83.3694 363.338 50.5945 357.788 18.2395ZM348.497 12.3504C348.688 12.3531 348.863 12.3558 348.86 12.3639C348.833 12.4769 348.675 12.4366 348.497 12.3504Z" fill="#EF4036"/>
    <path d="M9.48728 5.3523C8.83054 4.15995 7.18595 4.15726 6.52921 5.3523C4.90622 6.57157 4.94677 8.76522 4.76105 10.7112C4.56726 12.746 3.88357 15.2303 5.12168 17.0228C6.60471 19.168 9.41204 19.168 10.8951 17.0228C12.1332 15.233 11.4468 12.7487 11.2557 10.7112C11.07 8.76253 11.113 6.56888 9.48728 5.3523Z" fill="#EF4036"/>
    <path d="M9.54639 49.8116C9.36068 46.9936 9.15361 44.2455 8.65298 41.4625C8.20888 38.9943 4.10959 38.9916 3.66549 41.4625C3.16486 44.2455 2.95753 46.9936 2.77181 49.8116C2.68569 51.1332 2.59694 52.4547 2.51081 53.7736C2.39238 55.5607 2.15825 57.1003 3.08145 58.7421C4.38146 61.0569 7.93432 61.0569 9.23703 58.7421C10.1602 57.0976 9.92609 55.5607 9.80766 53.7736C9.72153 52.452 9.63252 51.1305 9.54639 49.8116Z" fill="#EF4036"/>
    <path d="M7.82658 86.9713C7.65432 85.2649 7.57616 83.5558 7.71881 81.8467C7.86685 80.0756 5.23466 79.4754 4.4272 80.9558C2.37355 84.7212 1.31848 89.3103 2.21745 93.5737C2.55659 95.1778 4.10968 95.9987 5.59002 96.1414C6.19831 96.2006 6.85224 95.996 7.35556 95.665C8.69056 94.7822 9.34722 93.2884 8.96233 91.7138C8.57744 90.1177 7.99345 88.6212 7.82658 86.9713Z" fill="#EF4036"/>
    <path d="M6.25989 112.716C5.72428 111.54 4.08258 111.031 2.91176 111.354C1.60637 111.712 0.812407 112.904 0.734353 114.213C0.613233 116.288 0.58615 118.349 0.561926 120.43C0.537702 122.521 0.139428 124.61 0.166343 126.69C0.190567 128.744 1.71398 130.459 3.73263 130.73C5.62209 130.983 7.84787 129.799 8.24621 127.783C9.21786 122.887 8.30815 117.206 6.25989 112.716Z" fill="#EF4036"/>
    <path d="M2.73936 151.495C2.03148 153.587 1.95613 155.996 1.94267 158.192C1.92652 160.528 1.924 162.668 2.58612 164.931C3.35052 167.539 7.11333 167.542 7.87772 164.931C8.53984 162.668 8.53706 160.531 8.52091 158.192C8.50745 155.996 8.42941 153.584 7.72422 151.495C6.89792 149.046 3.56835 149.041 2.73936 151.495Z" fill="#EF4036"/>
    <path d="M8.26245 185.479C8.35396 183.573 6.71751 181.886 4.89803 181.668C3.17006 181.463 0.941319 182.516 0.642558 184.445C0.0504194 188.259 -0.603435 192.765 1.0384 196.38C1.78127 198.016 4.06902 198.721 5.69471 198.275C7.59225 197.752 8.48859 196.127 8.72006 194.299C8.91924 192.733 8.42399 191.293 8.31633 189.896C8.2006 188.426 8.19247 186.954 8.26245 185.479Z" fill="#EF4036"/>
    <path d="M126.235 82.153C124.636 75.8225 122.031 70.1649 118.613 64.7872C116.974 62.206 115.038 59.7567 112.328 57.8242C111.792 59.1377 111.548 60.435 111.445 61.7162C111.432 61.7216 111.416 61.727 111.402 61.7323C109.634 62.4779 108.24 64.7118 108.98 66.6686C109.561 68.2081 110.126 69.7531 110.681 71.3034C110.358 78.8747 110.366 86.4756 110.213 94.0415C110.011 104.03 109.812 114.018 109.61 124.009C109.497 129.629 109.384 135.246 109.271 140.866C109.222 143.31 112.008 145.907 114.527 144.871C114.831 144.747 115.127 144.61 115.421 144.47C115.523 145.189 115.622 145.91 115.717 146.629C116.042 146.672 116.365 146.715 116.691 146.758C117.426 145.603 118.266 144.5 118.882 143.286C119.181 142.699 119.466 142.11 119.749 141.515C122.411 139.028 124.263 135.742 125.172 132.051C125.934 128.972 126.208 125.769 126.313 122.556C126.965 120.276 127.627 117.98 127.842 115.655C127.88 115.254 127.915 114.853 127.95 114.451C128.265 113.59 128.464 112.718 128.601 111.811C128.97 109.362 128.857 107.026 128.512 104.582C128.668 97.0884 128.122 89.6247 126.235 82.153Z" fill="#EF4036"/>
    <path d="M69.051 145.13C71.2958 150.072 74.4852 154.402 78.4499 158.133C78.5468 158.222 78.8646 158.071 79.5186 157.955C79.5267 156.938 79.5347 155.92 79.5428 154.9C79.8281 154.914 80.1134 154.9 80.3934 154.863C82.6381 154.561 85.1143 152.381 84.7994 149.873C83.4564 139.139 82.07 128.413 80.6031 117.695C80.5708 113.876 80.5387 110.059 80.5064 106.24C80.4283 96.8708 80.3825 87.5016 80.3313 78.1351C80.3017 72.8704 80.272 67.6058 80.2451 62.3411C80.2343 60.3629 79.0958 58.6348 77.4298 57.7735C77.3356 56.5085 77.2415 55.2435 77.142 53.9785C76.2134 55.0928 75.2147 56.1667 74.2404 57.2541C72.5044 57.5233 71.024 58.6645 70.2838 60.3198C68.5451 60.5809 67.019 61.8136 66.5346 63.6035C65.5656 67.1859 64.6371 70.7549 63.8727 74.3669C63.6439 74.9133 63.4257 75.4677 63.2211 76.0276C62.4191 78.2266 61.7058 80.4498 61.111 82.6891C58.3468 85.4803 57.7924 89.5822 57.6659 93.5387C57.5205 98.004 57.6391 102.48 58.0885 106.929C59.0117 116.048 61.0439 125.022 64.4137 133.557C64.7474 134.404 65.0919 135.25 65.4472 136.087C66.513 139.147 67.7053 142.167 69.051 145.13Z" fill="#39B100"/>
    <path d="M368.762 152.648C367.93 141.785 366.609 130.957 365.957 120.086C365.142 106.432 364.794 92.7507 364.243 79.0804C364.2 78.0387 364.181 76.9917 364.068 75.9582C363.26 68.5968 362.168 61.257 361.672 53.8768C360.916 42.5508 360.588 31.1979 360.028 19.8585C359.82 15.692 359.546 11.5254 359.156 7.37506C358.87 4.35516 357.885 3.78727 354.777 3.9676C344.368 4.56781 333.958 5.1519 323.544 5.60947C318.92 5.81402 314.282 5.6794 309.653 5.76284C308.471 5.78437 307.01 5.52603 306.544 7.82998C313.634 7.93495 320.325 8.11254 327.016 8.11254C332.563 8.11523 338.108 7.88649 343.652 7.80843C346.532 7.76806 349.445 7.57963 352.284 7.92415C355.118 8.26867 355.813 9.30221 355.972 12.0853C356.136 14.976 356.147 17.8801 356.322 20.7709C357.145 34.2985 357.479 47.8827 359 61.335C360.488 74.4966 360.757 87.6879 361.546 100.868C362.014 108.736 362.569 116.6 363.101 124.462C363.683 133.013 364.313 141.562 364.867 150.115C365.064 153.119 365.093 156.131 365.212 159.14C365.384 163.428 365.634 167.713 365.729 172C365.804 175.445 365.414 176.118 361.917 176.471C352.015 177.475 342.307 180.035 332.297 180.156C330.531 180.177 329.102 181.577 329.519 182.877C330.036 184.484 331.253 184.311 332.639 184.056C337.984 183.071 343.338 182.112 348.715 181.316C354.901 180.398 361.118 179.695 367.314 178.834C369.47 178.535 370.094 177.763 369.989 175.556C369.626 167.917 369.346 160.271 368.762 152.648Z" fill="#251C1C"/>
    <path d="M366.372 190.894C362.237 191.349 358.135 192.366 354.004 192.482C344.18 192.756 334.345 192.646 324.516 192.662C322.349 192.665 322.152 192.834 321.875 195.913C322.553 196.005 323 196.134 323.442 196.113C326.564 195.954 329.683 195.644 332.808 195.612C339.058 195.542 345.316 195.76 351.563 195.59C356.633 195.45 361.691 194.918 366.754 194.557C366.98 194.541 367.225 194.53 367.427 194.439C368.565 193.924 369.026 192.861 368.544 191.884C368.261 191.316 367.082 190.816 366.372 190.894Z" fill="#251C1C"/>
    <path d="M366.21 188.394C366.77 188.098 367.508 187.619 367.602 187.113C367.688 186.639 367.155 185.721 366.687 185.538C365.537 185.092 364.278 184.79 363.045 184.728C359.594 184.561 356.133 184.599 352.68 184.446C350.483 184.346 350.007 184.637 349.097 187.589C349.996 187.74 350.661 187.928 351.334 187.955C355.834 188.13 360.34 188.276 364.843 188.426C365.303 188.443 365.85 188.585 366.21 188.394Z" fill="#251C1C"/>
    <path d="M334.324 19.7399C334.703 22.0116 334.959 24.3182 335.074 26.6195C335.198 29.1361 335.102 31.6634 335.102 34.3738C339.362 35.768 343.698 33.4964 348.056 35.0144C348.376 37.2726 348.839 39.6465 349.027 42.042C349.789 51.7477 350.489 61.4587 351.17 71.1725C352.02 83.3113 352.893 95.4502 353.641 107.594C354.233 117.192 354.626 126.799 355.161 136.399C355.611 144.498 356.181 152.589 356.609 160.688C356.806 164.38 356.031 165.244 352.341 165.457C346.68 165.78 341.009 165.931 335.346 166.221C333.034 166.34 330.72 166.563 328.424 166.876C326.898 167.083 326.219 168.162 326.534 169.591C326.9 171.268 328.117 170.959 329.277 170.689C330.733 170.35 332.17 169.78 333.64 169.667C341.262 169.08 348.89 168.577 356.523 168.114C359.683 167.92 360.728 166.596 360.37 163.463C359.713 157.711 359.129 151.948 358.698 146.175C358.216 139.713 357.931 133.237 357.576 126.766C357.474 124.912 357.473 123.055 357.344 121.203C356.623 110.795 355.864 100.389 355.145 89.981C354.532 81.0774 353.983 72.1711 353.364 63.2675C352.68 53.4434 351.727 43.6327 351.361 33.7978C351.229 30.2423 350.056 27.7042 347.76 25.2145C344.632 21.8178 341.523 18.343 338.899 14.5614C337.607 12.6962 336.418 12.4862 334.598 12.8657C333.244 13.1484 331.88 13.5763 330.515 13.5925C324.042 13.6759 317.571 14.5479 311.093 13.5198C309.093 13.2022 307.758 14.2331 307.96 15.6973C308.224 17.6271 309.715 17.0214 310.945 17.0026C317.539 16.9111 324.136 16.8115 330.733 16.8034C332.943 16.8007 333.976 17.654 334.324 19.7399ZM347.116 31.2785C344.535 31.3108 342.393 31.4723 340.28 31.2812C339.645 31.2247 338.657 30.2477 338.579 29.6017C338.191 26.4311 338.054 23.2282 337.82 19.9337C340.059 20.9027 345.165 27.0178 347.116 31.2785Z" fill="#251C1C"/>
    <path d="M346.683 153.048C346.139 152.784 345.332 152.986 344.656 153.089C341.031 153.627 337.411 154.2 333.785 154.763C333.774 154.677 333.761 154.588 333.747 154.499C332.827 154.499 331.907 154.512 330.986 154.496C330.413 154.485 329.837 154.397 329.263 154.413C327.912 154.448 326.938 155.172 327.126 156.496C327.196 156.991 328.429 157.557 329.191 157.667C330.429 157.845 331.721 157.71 332.986 157.648C336.991 157.46 340.998 157.269 345.001 157.01C345.776 156.962 346.632 156.754 347.262 156.335C347.733 156.022 348.239 155.158 348.117 154.706C347.94 154.055 347.307 153.35 346.683 153.048Z" fill="#251C1C"/>
    <path d="M342.245 116.89C337.685 117.765 333.123 118.502 328.469 117.692C328.241 117.652 328.007 117.595 327.78 117.612C326.51 117.695 325.415 118.901 325.506 120.182C325.608 121.676 326.747 121.654 327.807 121.595C328.728 121.544 329.638 121.353 330.555 121.256C334.334 120.86 338.116 120.478 341.898 120.09C341.9 120.133 341.906 120.177 341.911 120.222C342.942 120.222 344.024 120.408 344.993 120.155C345.639 119.988 346.662 119.035 346.567 118.712C346.352 117.98 345.66 117.135 344.961 116.866C344.169 116.562 343.136 116.718 342.245 116.89Z" fill="#251C1C"/>
    <path d="M331.958 132.698C335.987 132.612 340.016 132.517 344.043 132.35C345.738 132.278 346.613 131.312 346.325 130.001C345.983 128.432 344.726 128.609 343.566 128.666C343.343 128.677 343.127 128.803 342.901 128.83C340.393 129.118 337.89 129.516 335.373 129.648C332.838 129.78 330.292 129.637 327.751 129.632C326.036 129.629 325.162 130.372 325.568 132.706C327.834 132.706 329.896 132.743 331.958 132.698Z" fill="#251C1C"/>
    <path d="M327.304 145.768C327.802 145.789 328.372 145.859 328.94 145.832C334.006 145.601 339.077 145.428 344.131 145.057C345.405 144.963 346.629 144.212 348.223 143.636C346.32 140.877 346.33 140.939 343.625 141.383C338.953 142.155 334.272 142.82 329.506 142.234C328.674 142.129 327.468 142.142 327.002 142.637C326.198 143.488 326.122 144.731 327.304 145.768Z" fill="#251C1C"/>
    <path d="M341.903 103.638C336.975 104.103 332.06 104.73 327.129 105.175C325.993 105.277 324.717 104.779 324.195 106.216C323.983 106.797 323.994 108.011 324.236 108.108C325.218 108.507 326.359 108.835 327.395 108.73C331.172 108.345 334.929 107.775 338.692 107.274C338.703 107.384 338.714 107.492 338.724 107.6C339.879 107.6 341.044 107.702 342.183 107.562C342.92 107.47 343.959 107.212 344.245 106.687C344.616 106.009 344.708 104.749 344.301 104.192C343.932 103.683 342.713 103.56 341.903 103.638Z" fill="#251C1C"/>
    <path d="M324.572 94.858C329.519 94.6346 334.466 94.3547 339.405 94.0156C340.412 93.9456 341.467 93.6764 342.352 93.2189C342.826 92.9739 343.289 92.0749 343.203 91.5662C343.114 91.0575 342.368 90.3389 341.854 90.2878C340.611 90.1639 339.335 90.3874 338.07 90.4493C333.36 90.6807 328.652 90.9876 323.939 91.0952C321.633 91.149 321.391 91.2541 321.286 94.5027C322.362 94.6266 323.477 94.9064 324.572 94.858Z" fill="#251C1C"/>
    <path d="M341.149 41.1484C332.259 41.1484 323.654 41.1484 314.934 41.1484C314.934 41.7567 314.934 42.5804 314.934 43.0783C322.798 43.6839 330.375 44.2518 337.949 44.8601C340.495 45.0646 340.84 44.7686 341.149 41.1484Z" fill="#251C1C"/>
    <path d="M338.891 56.3983C339.868 56.3714 340.826 55.5935 342.045 55.0498C340.891 53.0231 339.9 52.3637 338.245 53.0365C337.529 53.3299 336.66 53.3192 335.857 53.3192C330.434 53.3138 325.013 53.2895 319.59 53.2357C317.197 53.2115 316.925 53.521 317.157 56.401C317.458 56.5032 317.781 56.7105 318.101 56.7078C325.035 56.6378 331.966 56.5921 338.891 56.3983Z" fill="#251C1C"/>
    <path d="M341.733 79.659C340.1 77.7103 340.049 77.6108 338.108 77.6754C334.644 77.7938 331.183 78.0602 327.716 78.1679C325.299 78.2405 322.866 78.2728 320.454 78.106C317.981 77.9364 317.873 77.9203 317.292 81.1636C318.177 81.3843 318.839 81.7019 319.496 81.6938C325.735 81.605 331.974 81.4866 338.213 81.317C339.575 81.2793 341.034 81.2066 341.733 79.659Z" fill="#251C1C"/>
    <path d="M338.724 65.4204C336.321 65.6599 333.898 65.8079 331.481 65.8564C328.133 65.9237 324.779 65.8322 321.428 65.8752C320.029 65.8914 318.823 66.4512 318.893 68.0742C318.971 69.9475 320.395 69.6811 321.711 69.6272C327.361 69.3904 333.013 69.2154 338.662 69.0082C340.102 68.9543 341.755 69.4416 342.651 67.3179C341.618 65.8026 340.407 65.2535 338.724 65.4204Z" fill="#251C1C"/>
    <path d="M304.445 167.591C301.88 165.5 301.077 162.854 301.016 159.627C300.913 154.063 300.601 148.497 300.146 142.95C299.595 136.259 298.776 129.589 298.133 122.906C297.872 120.193 297.099 119.426 294.435 119.537C292.123 119.633 289.811 119.722 287.499 119.763C279.637 119.9 271.772 120.064 263.907 120.112C260.898 120.131 257.886 119.69 254.88 119.754C242.59 120.016 230.303 120.409 218.017 120.715C210.257 120.906 202.489 121.286 194.735 121.108C188.735 120.971 182.69 122.212 176.72 120.664C176.228 120.538 175.63 120.82 175.105 120.906C175.162 123.507 175.192 123.76 177.339 123.908C180.195 124.101 183.075 123.953 185.794 123.953C188.52 129.379 188.518 129.379 188.827 134.415C188.87 135.107 188.975 135.796 189.037 136.488C189.661 143.526 190.296 150.565 190.899 157.606C191.228 161.411 191.322 165.247 191.841 169.026C193.104 178.263 192.942 187.536 192.743 196.805C192.671 200.245 193.158 201.074 196.552 200.942C201.649 200.746 206.742 200.396 211.84 200.118C221.788 199.58 231.735 198.969 241.691 198.547C245.971 198.366 250.267 198.603 254.557 198.608C261.281 198.617 268.001 198.557 274.725 198.595C277.761 198.611 278.417 197.981 278.124 194.978C277.405 187.592 276.566 180.215 276.011 172.818C275.177 161.729 275.651 150.567 274.063 139.508C273.374 134.709 273.156 129.84 272.798 124.995C272.744 124.257 273.096 123.49 273.295 122.573C280.503 122.454 287.507 122.433 294.718 123.062C295.191 125.899 295.767 128.389 295.993 130.908C296.825 140.256 297.519 149.614 298.324 158.965C298.48 160.755 298.566 162.329 296.97 163.67C296.381 164.165 296.26 165.336 296.117 166.229C295.635 169.212 295.151 172.175 293.428 174.772C293.054 175.335 292.712 176.04 292.693 176.689C292.677 177.278 293.041 178.317 293.383 178.382C294.004 178.497 295.089 178.244 295.355 177.784C296.211 176.298 296.819 174.665 297.452 173.06C297.883 171.968 298.192 170.832 298.558 169.715C298.811 169.755 299.064 169.798 299.317 169.839C299.39 171.405 299.581 172.977 299.511 174.538C299.42 176.522 300.238 177.51 302.703 177.792C302.889 175.782 303.061 173.946 303.255 171.847C304.501 172.721 305.605 173.494 306.886 174.39C308.329 173.195 308.509 172.086 307.497 170.894C306.531 169.75 305.597 168.531 304.445 167.591ZM274.273 185.7C274.547 187.527 274.781 189.385 274.77 191.226C274.749 195.021 274.302 195.446 270.561 195.467C263.375 195.511 256.185 195.354 249.004 195.529C240.9 195.726 232.804 196.205 224.705 196.547C216.375 196.897 208.044 197.233 199.711 197.551C198.92 197.583 198.121 197.427 196.861 197.319C196.67 194.905 196.482 192.539 196.291 190.125C201.009 187.433 206.064 186.776 211.105 186.362C221.139 185.53 231.189 184.855 241.239 184.244C249.438 183.746 257.601 182.47 265.859 183.03C267.099 183.113 268.381 182.833 269.624 182.605C272.52 182.077 273.853 182.887 274.273 185.7ZM273.527 174.936C273.597 176.07 273.535 177.213 273.535 178.81C247.616 180.941 221.952 183.054 196.231 185.17C194.533 164.523 192.886 144.471 191.212 124.072C194.102 123.843 197.168 123.445 200.239 123.385C212.052 123.159 223.868 123.07 235.681 122.874C240.655 122.793 245.624 122.527 250.595 122.433C253.72 122.371 256.847 122.465 259.972 122.503C262.053 122.527 264.134 122.643 266.209 122.586C268.502 122.527 269.285 122.925 269.584 125.068C270.095 128.736 270.456 132.426 270.846 136.111C271.088 138.41 271.315 140.714 271.468 143.02C272.173 153.657 272.857 164.297 273.527 174.936Z" fill="#251C1C"/>
    <path d="M233.213 105.869C232.731 107.29 232.174 108.762 232.129 110.226C232.096 111.365 232.804 112.525 233.181 113.674C234.306 113.246 235.431 112.821 236.551 112.385C236.65 112.344 236.718 112.229 236.801 112.145C241.323 107.513 245.81 102.846 250.385 98.2678C252.428 96.2276 254.589 94.2924 256.831 92.4782C257.564 91.8834 258.724 91.5496 259.687 91.5523C264.309 91.5631 268.933 91.6492 273.546 91.8646C277.594 92.0503 281.631 92.4944 285.679 92.7232C287.8 92.8416 290.078 92.6693 291.318 90.7234C294.36 85.9486 297.519 81.1226 298.685 75.5162C299.764 70.3188 300.41 65.0003 300.811 59.7034C301.866 45.7747 300.954 31.9105 299.029 18.0949C298.596 14.9781 297.355 12.3565 295.092 10.1899C291.587 6.8335 287.405 4.33845 282.834 3.19185C276.466 1.59577 269.921 0.513716 263.24 0.982044C258.621 1.30503 253.984 1.39658 249.355 1.56076C244.27 1.7411 239.17 1.71148 234.102 2.0856C226.024 2.68312 217.976 3.77587 209.894 4.22267C200.891 4.7206 191.861 4.78791 182.839 4.91441C179.617 4.96017 176.39 4.4703 173.165 4.50799C169.626 4.54836 167.731 6.79847 167.766 10.284C167.812 14.8004 167.83 19.3195 167.739 23.8359C167.561 32.6373 167.133 41.4386 167.117 50.2426C167.104 59.1623 167.338 68.0902 167.72 77.0046C167.892 81.0285 168.581 85.0415 169.265 89.0223C169.443 90.0397 170.29 91.3208 171.184 91.765C174.067 93.1888 177.054 95.1052 180.112 95.3393C189.11 96.0284 198.105 95.377 207.043 93.8105C213.654 92.6505 220.332 91.8026 227.015 91.1513C230.516 90.8094 234.153 90.5349 237.689 91.8834C237.63 92.5374 237.679 93.0139 237.539 93.4257C236.109 97.5787 234.621 101.71 233.213 105.869ZM234.002 88.1529C227.884 88.5997 221.78 89.1918 215.672 89.7355C207.143 90.4945 198.627 91.5335 190.081 91.913C185.734 92.1068 181.315 91.2697 176.966 90.6291C173.531 90.1231 171.655 87.9861 171.394 84.4763C170.815 76.7408 170.132 68.9973 169.954 61.2456C169.755 52.447 169.946 43.6349 170.185 34.8335C170.398 26.9581 170.904 19.088 171.292 11.2153C171.321 10.6474 171.448 10.0849 171.591 9.0863C173.983 8.94903 176.379 8.80098 178.774 8.67179C191.602 7.99083 204.452 7.58713 217.25 6.55089C227.3 5.73535 237.326 4.78255 247.422 4.6722C251.93 4.62106 256.439 3.91584 260.944 3.9616C265.56 4.01004 270.165 4.66138 274.781 4.95476C280.676 5.33157 285.628 7.95043 290.417 11.1372C293.052 12.8921 295.006 15.1019 295.678 18.1783C296.365 21.3274 296.814 24.5357 297.234 27.7387C297.627 30.7209 297.662 33.7596 298.179 36.7149C299.234 42.7305 298.849 48.7596 298.491 54.7671C298.149 60.5485 297.425 66.3084 296.804 72.0737C296.23 77.411 293.641 81.9624 290.879 86.3927C289.87 88.0103 288.274 88.9146 286.175 88.8285C278.875 88.5297 271.57 88.379 264.276 88.0157C263.256 87.9645 262.241 87.114 261.291 86.5218C259.714 85.5448 258.32 85.5583 257.324 86.9471C253.392 92.4406 247.925 96.4832 243.576 101.581C241.85 103.605 239.926 105.46 238.053 107.354C237.601 107.809 236.992 108.113 236.457 108.488C236.174 108.345 235.891 108.199 235.606 108.057C235.964 106.525 236.144 104.924 236.712 103.476C238.147 99.8207 239.856 96.2733 241.25 92.6047C241.783 91.1971 241.759 89.5767 241.98 88.1233C238.987 88.1233 236.484 87.9726 234.002 88.1529Z" fill="#251C1C"/>
    <path d="M278.237 55.1333C273.04 55.4079 267.845 55.8412 262.645 55.973C256.043 56.1399 249.432 56.0592 242.827 56.1076C232.982 56.1803 223.133 56.1776 213.29 56.3822C205.77 56.5356 198.258 57.0389 190.738 57.23C187.858 57.3053 184.949 57.0981 182.088 56.7429C178.807 56.3364 178.037 57.0469 178.634 60.5271C184.868 60.3898 190.87 60.5756 196.813 60.0615C208.941 59.0145 221.085 58.7319 233.24 58.6781C243.072 58.6323 252.905 58.8503 262.734 58.7373C270.235 58.6484 277.734 58.2259 285.693 57.9352C285.8 57.5099 286.409 56.4495 286.105 55.9219C285.768 55.3432 284.597 55.0364 283.774 54.9987C281.933 54.9126 280.081 55.0364 278.237 55.1333Z" fill="#251C1C"/>
    <path d="M180.077 21.8366C181.199 21.9335 182.359 21.5701 183.509 21.4463C187.177 21.0506 190.84 20.4558 194.52 20.3401C201.103 20.1329 207.7 20.2324 214.289 20.1786C222.286 20.114 230.282 19.9121 238.276 19.9767C249.282 20.0655 260.287 20.3078 271.29 20.5796C274.639 20.6604 277.979 21.0749 281.327 21.2902C282.234 21.3494 283.27 21.484 284.035 21.1287C284.724 20.8057 285.464 19.9148 285.577 19.18C285.755 18.02 284.694 17.7293 283.693 17.6916C282.538 17.6486 281.381 17.5866 280.226 17.5974C271.191 17.6781 262.153 17.9392 253.117 17.8316C240.262 17.6755 227.407 17.2529 214.553 16.9434C214.55 17.1452 214.547 17.3498 214.545 17.5543C207.479 17.5543 200.412 17.444 193.349 17.5948C188.843 17.6917 184.34 18.1142 179.853 18.5744C179.31 18.6283 178.626 19.7937 178.51 20.5231C178.451 20.8946 179.485 21.7854 180.077 21.8366Z" fill="#251C1C"/>
    <path d="M251.86 72.4719C261.943 72.3858 272.017 71.9982 282.105 72.8245C282.554 72.7465 283.2 72.8245 283.413 72.5581C284.016 71.8017 284.845 70.8974 284.837 70.0603C284.829 68.7388 283.653 68.6042 282.487 68.8464C281.588 69.0375 280.665 69.2151 279.75 69.2286C268.626 69.4062 257.501 69.5785 246.377 69.6942C240.348 69.7588 234.287 70.106 228.298 69.6243C218.776 68.8572 209.299 69.4654 199.8 69.6216C193.559 69.7265 187.306 69.5893 181.067 69.3363C179.638 69.2798 178.831 69.7858 178.198 70.7359C177.889 71.2042 177.794 72.1624 178.072 72.5984C178.712 73.6051 179.633 74.0922 181.035 73.7504C183.161 73.2336 185.352 72.8972 187.535 72.7411C190.539 72.5258 193.556 72.5284 196.568 72.4719C204.101 72.3293 211.635 72.0789 219.169 72.1031C230.069 72.1381 240.965 72.5661 251.86 72.4719Z" fill="#251C1C"/>
    <path d="M181.452 47.8178C183.177 47.624 184.879 47.1826 186.607 47.0695C192.727 46.6685 198.853 46.2729 204.984 46.0414C212.51 45.7588 220.041 45.6053 227.569 45.4654C235.323 45.3174 243.08 45.2582 250.837 45.1505C257.098 45.0617 263.356 44.9136 269.616 44.8786C273.303 44.8598 276.999 44.8759 280.673 45.1343C283.305 45.3227 283.3 45.5058 283.292 42.0741C282.431 41.9368 281.755 41.735 281.082 41.7403C277.266 41.7726 273.452 41.8534 269.635 41.918C249.938 42.249 230.239 42.5236 210.545 42.9408C202.788 43.1049 195.039 43.5894 187.287 43.9285C185.204 44.02 183.115 44.0362 181.043 44.2408C179.904 44.3511 179.108 45.1317 179.17 46.3617C179.245 47.799 180.367 47.9389 181.452 47.8178Z" fill="#251C1C"/>
    <path d="M186.978 32.3711C191.61 32.2204 196.25 32.3065 200.883 32.2123C205.857 32.1127 210.828 31.822 215.802 31.787C222.506 31.7413 229.214 31.9001 235.918 31.892C246.345 31.8812 256.772 31.7251 267.197 31.7951C271.581 31.8247 275.979 32.1369 280.342 32.5945C283.028 32.8744 283.203 32.9363 283.569 29.2381C280.897 29.1385 278.485 28.9555 276.076 28.9797C266.456 29.0712 256.837 29.3135 247.217 29.335C237.477 29.3566 227.736 29.1251 217.993 29.1143C210.58 29.1035 203.168 29.2462 195.752 29.3512C190.186 29.4319 184.62 29.5396 179.057 29.6984C178.163 29.7226 177.229 29.9594 176.408 30.3174C175.988 30.5004 175.472 31.2325 175.547 31.6013C175.668 32.1853 176.164 32.9929 176.659 33.1301C177.501 33.3616 178.473 33.1974 179.38 33.1113C181.915 32.8771 184.44 32.4545 186.978 32.3711Z" fill="#251C1C"/>
    <path d="M199.752 128.811C197.257 129.307 196.829 130.324 197.373 132.862C198.501 138.113 198.942 143.381 198.064 148.731C197.919 149.62 198.385 150.61 198.568 151.552C198.971 151.59 199.373 151.627 199.776 151.662C200.118 150.911 200.632 150.19 200.775 149.402C202.104 142.078 205.076 135.742 211.433 131.419C213.11 130.278 213.519 128.862 212.86 126.723C208.384 127.42 204.04 127.961 199.752 128.811ZM199.822 140.818C199.822 138.296 199.827 136.253 199.819 134.213C199.814 132.555 200.686 131.616 202.26 131.36C203.585 131.142 204.928 131.048 206.788 130.841C204.376 134.297 202.266 137.317 199.822 140.818Z" fill="#251C1C"/>
    <path d="M20.4794 196.891C22.8479 198.426 25.2193 198.409 27.787 198.307C30.7961 198.186 33.8078 198.264 36.8197 198.248C41.3253 198.224 45.8337 198.049 50.3313 198.205C55.1922 198.369 60.0396 198.891 64.9005 199.166C74.7327 199.723 84.5649 200.353 94.4078 200.697C104.477 201.047 114.559 201.306 124.631 201.201C132.652 201.114 140.606 201.308 148.511 202.764C150.893 203.203 153.318 203.459 155.735 203.647C157.342 203.774 159.008 203.841 160.582 203.564C163.233 203.093 164.057 201.836 163.89 199.16C163.828 198.122 163.718 197.083 163.661 196.041C163.188 187.355 162.829 178.659 162.224 169.981C161.683 162.241 160.625 154.529 160.256 146.783C159.915 139.613 160.184 132.413 160.184 125.224C159.995 125.224 159.81 125.224 159.621 125.224C159.621 122.325 159.667 119.424 159.613 116.525C159.428 106.666 159.083 96.8093 159.04 86.9529C159.002 78.383 159.204 69.8105 159.46 61.246C159.823 49.0776 160.404 36.9145 160.738 24.7433C160.865 20.1139 160.738 15.463 160.41 10.8443C160.138 7.00076 159.554 6.68317 155.579 6.61588C153.377 6.58089 151.172 6.54858 148.968 6.5432C132.617 6.49745 116.263 6.4517 99.9121 6.4194C95.1534 6.40864 90.3948 6.379 85.6361 6.45975C82.2906 6.51627 78.9395 6.96845 75.602 6.86079C65.9878 6.55395 56.3793 6.07219 46.7705 5.60925C44.3481 5.49351 41.9148 5.33466 39.522 4.95785C35.307 4.29573 31.1245 3.44522 26.923 2.68621C26.0214 2.52202 25.0711 2.52739 24.2018 2.26362C20.509 1.14125 19.4216 1.81956 19.5373 5.53926C19.6988 10.8658 20.0702 16.1843 20.2344 21.5108C20.4739 29.3862 20.7326 37.2671 20.7514 45.1425C20.7676 51.7314 20.4229 58.3203 20.2856 64.9092C20.143 71.7484 20.1671 78.5929 19.9087 85.4268C19.7042 90.7425 19.0636 96.0395 18.8187 101.355C18.423 109.928 18.2669 118.511 17.8767 127.084C17.0692 144.826 16.9212 162.564 17.8094 180.309C18.0193 184.47 17.909 188.65 17.8874 192.819C17.8713 195.454 18.1646 195.392 20.4794 196.891ZM37.7375 155.21C38.2678 146.075 39.0106 136.946 39.1963 127.805C39.3955 118.075 39.086 108.332 38.9379 98.5965C38.7495 86.0755 38.3916 73.5571 38.3216 61.0361C38.2812 54.0865 38.7577 47.137 38.8573 40.1847C38.9838 31.265 38.9891 22.3425 38.9945 13.4201C38.9972 8.3923 39.1344 8.27651 43.9954 8.51605C46.8888 8.65871 49.7902 8.5403 52.689 8.5403C52.6917 8.57798 52.6944 8.61295 52.6971 8.64794C59.173 9.01399 65.6434 9.55233 72.1219 9.69768C77.898 9.82956 83.6875 9.42315 89.469 9.4366C104.423 9.47429 119.377 9.63846 134.334 9.69768C138.495 9.71383 142.657 9.48503 146.818 9.47695C149.132 9.47426 151.455 9.61962 153.764 9.82956C156.364 10.0664 157.123 10.6505 157.333 13.1805C157.654 16.989 157.734 20.8218 157.791 24.6465C157.821 26.7244 157.554 28.8076 157.482 30.8882C157.132 40.6154 156.741 50.3426 156.494 60.0752C156.345 65.8647 156.47 71.6596 156.405 77.4518C156.367 80.8081 156.055 84.1644 156.111 87.5181C156.227 94.3573 156.553 101.191 156.706 108.03C157 121.02 157.102 134.014 157.541 146.998C157.783 154.171 158.574 161.328 159.064 168.496C159.247 171.152 159.269 173.822 159.379 176.484C159.651 183.079 160.001 189.67 160.178 196.264C160.264 199.54 159.92 199.798 156.585 199.575C153.006 199.338 149.439 198.724 145.859 198.671C137.755 198.552 129.645 198.681 121.536 198.703C117.943 198.714 114.349 198.773 110.759 198.7C106.471 198.611 102.184 198.458 97.9016 198.24C92.4673 197.963 87.0386 197.556 81.6044 197.266C72.5769 196.784 63.544 196.334 54.5139 195.898C49.8791 195.678 45.2415 195.355 40.6094 195.382C37.6837 195.4 36.3354 193.78 35.7809 191.753C35.2372 189.762 34.8873 187.667 34.8173 185.606C34.5347 177.109 35.8561 168.743 37.1803 160.386C37.4521 158.674 37.6379 156.941 37.7375 155.21ZM20.5225 125.329C20.6328 119.881 20.7378 114.431 21.0258 108.991C21.4592 100.771 22.1508 92.5674 22.5545 84.3474C23.3808 67.5496 23.9112 50.7409 23.6043 33.9188C23.4563 25.9223 23.2382 17.9257 23.0148 9.93181C22.9744 8.51337 22.8345 7.12457 24.584 5.92952C27.2055 6.35479 30.1502 6.90118 33.1136 7.29146C34.9922 7.53908 35.6329 8.75023 35.8698 10.3409C36.0232 11.3718 36.0742 12.4242 36.0742 13.4658C36.0635 24.9425 36.0797 36.4219 35.9936 47.8987C35.9316 55.7768 35.63 63.6576 35.6085 71.5358C35.5977 76.3994 35.9881 81.263 36.0635 86.1293C36.3138 102.354 36.6018 118.578 36.6475 134.803C36.661 139.301 35.6219 143.793 35.5089 148.298C35.2828 157.253 33.4904 165.985 32.2927 174.807C31.7005 179.157 31.6009 183.579 31.4206 187.972C31.3748 189.081 31.8459 190.216 32.1258 191.331C32.6749 193.514 32.2416 194.515 30.0372 194.727C27.4318 194.978 24.7859 194.787 21.9006 194.787C21.7122 193.008 21.5211 191.664 21.4377 190.316C20.8859 181.41 19.9895 172.503 19.9087 163.592C19.793 150.839 20.2641 138.084 20.5225 125.329Z" fill="#251C1C"/>
    <path d="M143.313 189.06C143.396 190.335 143.372 191.388 143.55 192.408C143.989 194.932 146.295 196.865 148.621 196.757C152.322 196.585 155.099 193.877 155.484 190.168C155.759 187.531 155.153 185.184 153.732 182.936C153.013 181.795 152.157 181.486 150.909 181.372C146.613 180.985 142.678 185.205 143.313 189.06ZM152.02 190.276C151.619 191.878 149.738 193.234 148.19 193.1C146.885 192.987 146.15 191.692 146.206 189.598C146.29 186.346 147.768 185.108 151.347 185.391C152.33 186.879 152.456 188.543 152.02 190.276Z" fill="#251C1C"/>
    <path d="M145.297 26.1453C147.017 26.2664 148.483 26.0538 149.754 24.7081C152.249 22.0703 153.032 18.4152 151.253 15.2123C150.709 14.2326 149.347 13.0133 148.43 13.0672C145.482 13.2421 142.525 13.6727 140.708 16.698C139.37 18.9293 139.475 21.131 140.323 23.2869C141.16 25.4267 143.022 26.3418 145.297 26.1453ZM145.006 16.8945C146.266 17.7827 147.27 18.4933 148.319 19.2334C148.317 20.8295 148.031 22.283 146.263 22.7459C145.06 23.0608 143.991 22.6651 143.399 21.4405C142.46 19.4918 143.437 18.2161 145.006 16.8945Z" fill="#251C1C"/>
    <path d="M56.9176 73.7619C55.4049 74.9219 53.7766 75.9958 52.3635 77.3012C50.8347 78.7116 49.419 80.2646 48.1109 81.8822C43.3631 87.7498 42.604 92.8879 48.5496 98.2683C49.3948 99.0327 50.4149 99.606 51.365 100.276C49.2333 104.206 45.8341 106.585 46.3212 111.023C46.803 115.4 49.1929 117.844 53.4052 119.408C50.0408 122.401 50.0786 126.263 49.508 129.843C48.5094 136.117 51.6315 140.111 57.822 140.943C58.6779 141.056 59.5177 141.295 60.5351 141.511C59.8649 143.093 59.3211 144.356 58.7909 145.626C57.4263 148.91 57.5797 152.183 58.9013 155.434C60.7827 160.066 63.7272 161.77 68.6689 161.121C69.444 161.019 70.2274 160.976 71.121 160.898C71.2582 161.627 71.4574 162.179 71.4466 162.731C71.4009 165.783 71.9177 168.725 73.0831 171.548C75.6158 177.687 82.3446 179.224 87.1409 174.783C87.8541 174.121 88.6939 173.599 89.4071 173.064C91.1405 175.001 92.7743 176.506 94.0151 178.282C96.6824 182.096 104.502 181.23 106.735 177.292C108.638 173.936 110.42 170.598 110.224 166.574C110.164 165.333 110.216 164.087 110.216 162.9C122.241 160.736 126.951 155.394 126.281 144.339C129.519 141.799 132.281 138.768 134.636 135.255C137.136 131.522 137.349 127.908 135.039 124.228C133.874 122.376 134.246 121.144 135.503 119.596C136.953 117.812 138.264 115.871 139.357 113.847C142.177 108.628 140.417 103.1 135.252 100.483C134.751 100.23 134.254 99.9747 133.508 99.5925C133.931 98.6344 134.159 97.7273 134.668 97.0248C137.723 92.826 139.481 88.1212 140.6 83.0745C141.3 79.9174 140.66 77.2474 138.353 75.1722C136.803 73.778 134.849 72.8387 133.158 71.7486C134.256 68.9117 135.505 66.0452 136.466 63.0845C137.408 60.1857 136.69 58.0594 134.09 56.4983C132.569 55.5859 130.709 55.1337 128.941 54.7677C127.649 54.5012 126.26 54.7165 124.758 54.7165C125.008 53.8687 125.164 53.4327 125.267 52.9832C126.903 45.8049 121.948 39.7623 114.57 40.0718C111.502 40.1983 108.442 40.6048 105.252 40.8955C104.978 39.3075 104.878 37.4314 104.31 35.7089C103.239 32.4629 101.231 30.0594 97.6192 29.3623C94.174 28.6975 91.7838 30.3365 89.8889 32.8774C88.4409 34.8153 87.2325 36.9309 85.8222 39.1191C82.5062 36.3441 78.6033 34.8772 74.1434 34.9364C69.3256 35.001 67.4794 36.6617 66.8442 41.4284C66.3194 45.3822 66.7229 49.2392 68.0417 53.4676C64.069 53.6937 61.6359 56.1646 59.079 58.5009C53.9866 63.1545 53.2409 67.8243 56.9176 73.7619ZM48.45 86.0003C50.2264 83.2199 52.6167 80.7921 54.9691 78.4397C55.9354 77.4735 57.5206 77.129 59.4719 76.1923C58.0454 84.0355 56.7911 90.9285 55.5261 97.8888C55.1035 97.7327 54.2665 97.3236 53.381 97.1244C48.0087 95.9213 45.4812 90.6351 48.45 86.0003ZM50.2857 113.785C48.7973 111.64 48.9858 109.236 50.1916 106.916C51.349 104.69 53.3299 103.369 55.6338 101.595C56.0564 106.709 56.4252 111.158 56.8101 115.812C54.1481 116.296 51.8011 115.981 50.2857 113.785ZM52.5896 133.732C51.1388 128.777 53.3057 122.796 57.7306 120.301C59.3805 126.153 60.9415 131.703 62.5107 137.269C58.9013 139.495 53.7469 137.683 52.5896 133.732ZM61.0627 151.728C60.6832 147.497 61.3506 145.602 64.349 142.576C66.6287 147.069 68.8949 151.528 71.2608 156.188C66.0823 159.692 61.5956 157.649 61.0627 151.728ZM69.0511 145.131C65.8993 138.186 63.5792 130.938 61.6709 123.55C58.9713 113.101 58.3442 102.443 59.4046 91.8113C59.9349 86.5063 61.3291 81.1959 63.2159 76.0281C65.073 70.9357 67.9529 66.5027 70.631 61.946C72.3482 59.0257 74.9404 56.6168 77.1393 53.9791C79.917 88.9475 79.7878 123.488 79.5186 157.956C78.8646 158.072 78.5468 158.222 78.4499 158.133C74.4879 154.403 71.2958 150.072 69.0511 145.131ZM84.6136 172.948C83.0767 174.49 81.12 174.721 79.174 173.674C76.8297 172.412 75.126 170.601 74.733 167.834C74.41 165.554 74.1948 163.277 75.188 160.556C77.2901 162.2 78.9989 163.839 80.9853 165C83.0551 166.208 85.3969 166.948 88.3334 168.197C86.8504 170.119 85.8759 171.68 84.6136 172.948ZM107.486 167.616C106.733 170.262 105.877 172.953 104.547 175.338C103.158 177.836 100.553 178.22 97.926 176.896C94.5669 175.209 92.5376 172.673 92.5834 168.302C97.5358 167.478 102.421 167.382 106.033 163.786C107.645 164.865 107.836 166.38 107.486 167.616ZM123.339 150.603C121.536 155.407 118.161 158.222 112.366 158.941C114 156.462 115.37 154.46 116.659 152.406C117.989 150.288 119.24 148.124 120.624 145.814C123.687 147.464 124.163 148.412 123.339 150.603ZM111.454 66.6212C111.397 63.7628 111.098 60.8371 112.328 57.8253C115.039 59.7578 116.974 62.2071 118.613 64.7882C122.031 70.1659 124.637 75.8236 126.235 82.1541C129.051 93.2997 128.881 104.429 127.84 115.653C127.576 118.503 126.642 121.305 125.88 124.091C124.082 130.68 121.994 137.175 118.882 143.284C118.266 144.498 117.426 145.602 116.691 146.756C116.366 146.713 116.043 146.67 115.717 146.627C115.047 141.505 114.118 136.399 113.766 131.253C113.117 121.776 112.703 112.278 112.377 102.785C111.965 90.7347 111.701 78.6766 111.454 66.6212ZM133.064 132.211C130.951 136.259 128.451 139.928 123.127 141.715C125.022 135.888 126.717 130.672 128.483 125.238C130.117 125.219 131.866 124.885 133.024 126.64C134.227 128.467 134.028 130.368 133.064 132.211ZM137.228 112.103C135.758 115.521 133.346 118.253 129.713 121.109C130.434 114.512 131.067 108.736 131.702 102.941C136.943 103.821 139.15 107.635 137.228 112.103ZM135.634 77.1047C137.045 78.4128 138.078 79.8393 137.936 81.8903C137.564 87.2599 134.935 91.631 132.243 95.9805C131.939 95.9079 131.632 95.8352 131.328 95.7598C131.104 94.5459 130.868 93.332 130.658 92.1154C129.993 88.2612 129.315 84.4096 128.682 80.5499C128.338 78.4451 128.924 77.4762 130.989 76.4991C133.013 75.5436 134.165 75.7374 135.634 77.1047ZM130.612 58.6085C133.452 59.4402 134.674 60.934 133.707 63.7036C132.424 67.3775 130.709 70.9196 127.075 73.4443C125.043 69.5173 123.1 65.768 121.181 62.0618C123.609 58.5224 126.669 57.4538 130.612 58.6085ZM121.926 47.5597C123.528 49.9713 122.258 52.2618 121.194 54.4043C120.543 55.7151 119.458 56.8079 118.341 58.3044C113.838 54.5524 110.372 50.0359 106.56 45.8183C111.61 41.8402 118.697 42.6853 121.926 47.5597ZM88.9658 41.2696C89.6414 38.1313 91.3183 35.5097 93.7191 33.4669C95.3663 32.0699 99.0323 32.6809 100.311 34.4358C102.006 36.7613 102.9 39.3048 101.508 42.5131C97.3929 42.5131 93.5038 42.5131 89.3238 42.5131C89.2565 42.287 88.8662 41.7245 88.9658 41.2696ZM96.6044 45.4819C97.0592 45.5626 97.7348 45.4199 97.9501 45.6783C100.574 48.8301 105.247 48.9647 107.678 52.2915C108.297 53.142 108.633 54.3801 108.66 55.4513C108.754 59.0445 108.558 62.6458 108.644 66.239C108.797 72.7202 109.115 79.1988 109.292 85.6827C109.567 95.7706 109.917 105.858 109.981 115.949C110.038 124.317 110.743 132.604 111.771 140.897C112.24 144.678 112.132 148.541 112.1 152.363C112.092 153.281 111.551 154.427 110.875 155.068C108.278 157.531 105.713 160.096 102.792 162.13C98.6581 165.01 93.8805 165.188 89.0815 164.098C87.41 163.718 85.8167 163 83.7173 162.27C83.3728 155.17 82.8882 148.358 82.7563 141.54C82.611 133.894 82.7699 126.241 82.821 118.592C82.9475 100.373 81.9733 82.1945 80.9774 64.0104C80.7675 60.218 81.1497 56.3692 81.5722 52.5822C81.7095 51.3656 82.5841 49.8798 83.5854 49.1719C87.445 46.4373 91.6681 44.6017 96.6044 45.4819ZM70.2704 39.407C70.7172 38.7826 71.3229 38.0236 71.9931 37.846C76.3103 36.6967 84.4279 38.57 84.7939 44.626C81.0392 47.6432 77.2387 50.6954 73.2471 53.901C68.8626 50.4693 67.4012 43.4255 70.2704 39.407ZM59.8919 61.3297C61.3534 59.8682 63.0114 58.4927 64.8174 57.5238C66.1093 56.8294 67.7997 56.8805 69.3123 56.5979C69.5007 56.9236 69.689 57.2519 69.8801 57.5776C66.7633 62.3416 64.6209 67.6628 61.4987 72.4296C56.5894 69.5281 56.0511 65.1759 59.8919 61.3297Z" fill="#251C1C"/>
    <path d="M50.3795 24.7749C52.8368 23.6955 54.5245 21.8437 55.3993 19.2975C56.3413 16.5603 55.5445 14.6762 52.6108 12.5337C50.5437 11.0265 48.8481 10.978 46.6518 12.8783C44.5066 14.73 43.0451 17.0851 43.0963 20.0996C43.1582 24.0589 46.7297 26.3736 50.3795 24.7749ZM46.6168 18.0541C47.3705 16.7325 48.7297 15.7582 49.9489 14.5228C51.6607 15.5186 53.2381 16.2884 52.6136 17.8683C52.0646 19.2598 50.8587 20.541 49.6314 21.4454C49.0393 21.8841 47.2359 21.6984 46.8644 21.1708C46.3288 20.4118 46.17 18.84 46.6168 18.0541Z" fill="#251C1C"/>
    <path d="M47.898 191.678C50.7322 189.522 50.9854 186.809 48.6437 183.921C48.0839 183.229 47.2226 182.535 47.1284 181.762C46.9077 179.959 45.7583 179.865 44.6117 179.813C42.1355 179.838 39.7103 181.684 38.3457 184.311C37.0565 186.793 37.6244 188.962 39.2071 191.064C41.4814 194.081 44.4421 194.307 47.898 191.678ZM44.8377 183.471C45.2711 184.599 45.8605 185.729 46.1296 186.93C46.4634 188.41 45.1338 190.144 43.7503 190.176C42.2269 190.208 41.4733 189.315 41.2042 187.861C40.7466 185.377 41.7048 184.139 44.8377 183.471Z" fill="#251C1C"/>
    <path d="M12.771 14.7419C11.9205 11.3856 12.5019 8.05885 12.4777 4.71866C12.4723 3.85467 12.222 2.99065 12.0848 2.12667C11.8156 2.05938 11.5436 1.99209 11.2718 1.9248C10.8169 2.53848 10.1738 3.09297 9.94231 3.78201C9.42015 5.34579 10.0014 15.6005 10.5639 17.0916C12.7225 17.6596 13.1156 16.0985 12.771 14.7419Z" fill="#251C1C"/>
    <path d="M11.6753 32.9124C11.6484 29.9598 12.3268 26.9184 10.9622 24.0465C9.28 23.9254 8.34871 24.5687 8.45098 26.189C8.59902 28.4983 8.80078 30.8103 9.15068 33.0954C9.22604 33.5772 10.0388 33.946 10.5099 34.3685C10.9217 33.884 11.6807 33.3942 11.6753 32.9124Z" fill="#251C1C"/>
    <path d="M9.91495 44.2129C7.38221 44.5359 7.14804 44.5709 7.07806 45.7524C6.91657 48.3982 6.84929 51.0575 6.95426 53.7033C6.9731 54.1931 7.92063 54.8794 8.54237 55.0248C8.88689 55.1055 9.83703 54.2685 9.85318 53.8217C9.96892 50.6349 9.91495 47.4427 9.91495 44.2129Z" fill="#251C1C"/>
    <path d="M9.67828 183.148C7.08633 183.048 6.4808 183.409 6.37852 185.481C6.2574 187.909 6.32746 190.35 6.38667 192.781C6.40013 193.324 6.55341 194.04 6.91946 194.358C7.447 194.813 8.33803 195.327 8.86557 195.16C9.34197 195.009 9.94216 193.849 9.78605 193.351C8.95437 190.684 9.29086 188.097 9.83994 185.46C9.99066 184.722 9.74288 183.904 9.67828 183.148Z" fill="#251C1C"/>
    <path d="M8.05524 149.412C7.47386 150.195 6.49964 150.957 6.42428 151.794C6.23049 153.942 6.3946 156.128 6.55071 158.289C6.56686 158.507 7.56268 158.892 7.98795 158.776C8.42667 158.658 8.96253 158.06 9.04327 157.6C9.37702 155.689 9.65133 153.753 9.74822 151.816C9.7886 151 9.32845 150.16 9.11582 149.407C8.27606 149.407 8.09561 149.358 8.05524 149.412Z" fill="#251C1C"/>
    <path d="M9.80463 176.656C9.66467 173.773 9.49796 171.154 9.42798 168.536C9.39837 167.392 9.28271 166.345 7.88849 166.331C6.55887 166.315 6.15228 167.324 6.16843 168.46C6.19803 170.304 6.19009 172.164 6.43232 173.986C6.63957 175.539 7.3661 176.839 9.80463 176.656Z" fill="#251C1C"/>
    <path d="M7.89405 80.7484C7.32344 80.7295 6.23082 81.5262 6.21736 81.9784C6.12854 84.6054 6.24421 87.2457 6.42185 89.87C6.44877 90.2333 7.18361 90.7851 7.61964 90.8147C8.06643 90.8443 8.78231 90.4379 8.95726 90.0396C9.26679 89.3398 9.32586 88.5027 9.35547 87.7167C9.4093 86.2364 9.37177 84.7534 9.37177 84.0644C9.52788 82.043 9.43361 80.7995 7.89405 80.7484Z" fill="#251C1C"/>
    <path d="M6.26785 142.528C6.43204 144.441 7.65131 144.312 9.23932 143.655C9.1505 142.226 9.00528 141.082 9.0322 139.941C9.05911 138.673 9.38729 137.4 9.30924 136.149C9.26617 135.478 8.63909 134.846 8.27573 134.197C7.58939 134.671 6.887 135.12 6.23027 135.629C6.093 135.737 6.09031 136.068 6.09569 136.294C6.13606 138.372 6.0929 140.46 6.26785 142.528Z" fill="#251C1C"/>
    <path d="M6.33542 106.338C8.22219 106.521 9.12661 106.069 9.09162 104.33C9.04048 101.786 9.11844 99.2427 9.06192 96.7019C9.04846 96.0533 8.73626 95.4127 8.27601 93.7305C7.22631 94.8878 6.24666 95.4611 6.19822 96.1044C5.94252 99.5092 5.95861 102.93 6.33542 106.338Z" fill="#251C1C"/>
    <path d="M5.74058 124.278C7.49547 124.51 8.3405 124.071 8.39164 122.327C8.4374 120.739 8.82782 119.164 8.94625 117.574C9.02161 116.583 8.87628 115.576 8.82245 114.449C6.62077 114.088 5.85642 115.097 5.78106 116.462C5.6411 119.051 5.74058 121.657 5.74058 124.278Z" fill="#251C1C"/>
    <path d="M6.11735 64.4725C6.11196 66.6499 6.12262 68.8301 6.14416 71.0076C6.16031 72.3937 6.67973 73.4245 8.65801 73.8498C9.08327 69.834 9.75629 65.9582 8.65275 62.0312C6.60988 62.0339 6.12273 63.0541 6.11735 64.4725Z" fill="#251C1C"/>
</svg>
