<svg width="308" height="140" viewBox="0 0 308 140" fill="none" xmlns="http://www.w3.org/2000/svg">
<path d="M193.054 93.4979C196.286 90.8119 201.696 89.6966 205.634 88.5129C215.422 85.5765 225.681 84.0287 235.893 83.7859C240.499 83.6796 245.241 83.6569 249.786 84.4763C252.707 84.9999 255.568 85.9787 258.391 87.0637C260.765 87.4203 263.049 88.0121 265.272 88.953C265.606 88.9302 265.948 88.9226 266.282 88.9302C270.06 89.0365 273.953 90.6754 275.106 94.545C276.274 98.4526 276.244 103.703 273.862 107.133C273.717 107.338 273.55 107.497 273.368 107.618C273.361 107.626 273.353 107.634 273.346 107.649C270.91 110.32 267.564 110.676 264.195 109.963C259.984 109.075 258.808 107.467 257.404 103.605C256.949 102.353 256.478 101.184 256.145 100.054C255.727 99.9474 255.378 99.6135 255.355 99.0293C255.31 97.8911 255.484 96.8213 255.841 95.8349C255.932 95.4404 256.069 95.0458 256.243 94.6512C253.868 94.3553 251.44 93.4069 249.172 92.982C247.328 92.633 245.476 92.3902 243.625 92.246C243.489 92.3295 243.329 92.4053 243.147 92.4584C240.173 93.2551 237.1 93.2248 234.019 92.8454C233.883 92.8758 233.746 92.8909 233.587 92.8758C231.447 92.7468 229.36 92.4509 227.312 91.9804C227.145 92.117 226.925 92.2081 226.667 92.2156C221.257 92.4129 216.363 92.7847 211.492 95.0154C212.698 97.7773 212.44 100.782 211.613 103.764C211.272 104.986 210.923 106.943 209.731 107.687C209.633 107.747 209.527 107.793 209.413 107.831C209.344 108.225 209.094 108.605 208.601 108.87C205.171 110.714 200.293 114.531 196.203 112.573C193.198 111.139 192.447 107.065 191.84 104.128C191.112 100.706 189.958 96.0701 193.054 93.4979Z" fill="#39B100"/>
<path d="M21.5067 115.259C21.6053 115.145 21.7039 115.039 21.795 114.925C22.0833 114.599 22.66 114.44 23.0697 114.591C23.2063 114.644 23.3505 114.69 23.487 114.743C23.5174 114.751 23.5401 114.773 23.5705 114.781C32.2355 114.546 40.9536 114.121 49.611 114.523C50.9844 114.584 50.9388 116.488 49.611 116.625C40.6577 117.55 31.583 117.604 22.5917 117.884C21.188 117.93 20.6645 116.207 21.5067 115.259Z" fill="#39B100"/>
<path d="M75.0218 133.234C75.257 133.15 75.4846 133.059 75.7198 132.976C76.0233 132.862 76.3116 132.923 76.5469 133.082C81.4181 132.657 86.8432 133.105 91.6461 133.492C92.9284 133.59 92.8829 135.29 91.6461 135.449C86.3955 136.117 80.2572 136.641 75.0142 135.882C73.5498 135.654 73.914 133.643 75.0218 133.234Z" fill="#39B100"/>
<path d="M178.129 15.376C178.129 15.156 178.175 14.9284 178.311 14.6628C178.911 13.4867 180.709 12.7355 181.862 12.3334C182.576 12.083 183.327 11.9009 184.086 11.7719C185.277 11.2939 186.483 10.9373 187.826 11.0739C188.411 11.1346 188.782 11.5747 188.661 12.1665C188.228 14.2758 186.483 15.6568 185.049 17.1515C184.844 17.3716 184.435 17.0756 184.624 16.8252C184.632 16.8177 184.639 16.8101 184.647 16.7949C183.797 17.1515 180.884 17.3033 179.245 16.6507C179.192 16.6507 179.131 16.6431 179.078 16.6431C178.342 16.6204 177.993 15.9754 178.129 15.376Z" fill="#251C1C"/>
<path d="M145.26 93.4672C145.449 93.1485 145.783 92.9133 146.223 92.7995C147.255 92.238 148.484 91.9801 149.592 91.6766C151.353 91.191 153.12 90.6143 154.934 90.3639C155.048 90.3487 155.154 90.3639 155.26 90.3791C155.199 86.0845 155.222 81.7824 155.328 77.4878C155.336 77.0781 155.951 77.0781 155.958 77.4878C155.989 78.6335 156.034 79.7793 156.072 80.925C158.242 78.7625 158.234 74.468 158.136 71.6833C158.128 71.4405 158.5 71.4405 158.515 71.6833C158.743 75.0446 159.335 80.0221 156.118 82.2376C156.421 90.9406 156.922 99.6283 157.567 108.301C158.196 109.462 158.538 110.721 157.825 111.677C158.174 116.146 158.546 120.608 158.948 125.077C160.761 124.743 162.628 124.796 163.819 125.881C164.805 126.784 165.177 128.332 165.048 129.789C166.194 129.857 167.256 130.183 168.425 129.91C169.836 129.584 171.02 128.696 171.74 127.444C172.408 126.283 172.833 124.333 172.067 123.127C171.057 121.556 168.508 121.716 166.96 121.989C166.755 122.027 166.604 121.928 166.512 121.792C165.602 121.883 164.699 122.034 163.804 122.224C163.766 122.232 163.743 122.179 163.773 122.163C164.729 121.655 165.716 121.283 166.77 121.033C167.377 120.889 168.06 120.707 168.69 120.76C170.003 120.555 171.3 120.593 172.469 121.511C174.039 122.755 174.168 125.047 173.599 126.83C172.605 129.948 167.924 133.089 164.881 130.783C164.699 131.458 164.411 132.08 164.001 132.551C160.769 136.185 147.733 137.103 146.845 130.798C146.77 130.244 147.407 129.948 147.741 130.419C150.503 134.22 156.171 134.645 160.367 133.112C161.717 132.619 163.265 131.542 163.622 130.017C163.895 128.818 161.619 126.754 160.723 126.397C160.268 126.215 159.615 126.2 158.902 126.261C158.705 126.466 158.325 126.511 158.098 126.352C157.02 126.503 155.92 126.746 155.199 126.815C154.919 126.845 154.79 126.382 155.055 126.276C155.806 125.957 156.778 125.593 157.825 125.32C157.24 121.101 156.778 116.867 156.398 112.633C154.046 113.567 150.146 113.703 148.113 112.14C145.852 110.403 146.967 107.701 149 106.343C150.875 105.091 153.568 104.613 155.837 104.978C155.723 103.05 155.617 101.123 155.533 99.1958C155.23 99.4993 154.866 99.7497 154.41 99.8863C152.126 100.562 148.598 99.9774 146.595 98.7482C144.645 97.5645 143.515 95.1593 145.26 93.4672Z" fill="#251C1C"/>
<path d="M43.6019 32.3799C43.3288 28.9275 42.6004 24.4054 44.1937 21.1275C46.1438 17.1365 53.9741 14.9361 57.9955 16.226C64.278 18.2367 67.2144 29.2083 68.6636 34.77C70.773 42.8811 69.9763 51.0453 68.0718 59.1109C65.5072 69.9687 60.9243 80.8948 61.6603 92.2534C62.0473 98.3234 63.8759 104.811 68.6561 108.938C71.3648 111.283 75.06 112.702 78.6641 112.543C81.775 112.398 81.9571 111.473 81.388 110.054C80.7127 110.039 80.0222 109.606 79.9615 108.749C78.6868 91.5629 74.3467 70.4088 81.8356 54.0803C85.3032 46.5155 91.5629 41.1132 98.6118 36.9552C105.41 32.9414 112.831 29.4814 120.851 31.0748C120.934 31.09 120.987 31.1355 121.018 31.1886C122.991 26.9548 125.328 22.9106 128.507 19.4203C133.272 14.1849 139.524 10.5201 145.693 7.19676C150.086 4.82944 155.526 2.2952 161.095 0.952197C161.49 0.641107 161.983 0.489356 162.651 0.587994C162.666 0.587994 162.681 0.595581 162.704 0.603168C168.994 -0.633605 175.33 -0.178351 180.398 3.95687C180.459 4.0024 180.482 4.07069 180.489 4.13897C181.354 4.23761 182.212 4.40454 183.054 4.61699C185.3 4.95084 187.53 5.36816 189.761 5.75513C191.135 5.99793 192.91 6.11933 193.904 7.24988C195.922 9.55649 193.305 12.1135 191.385 13.2668C191.339 13.2972 191.294 13.3048 191.248 13.3199C190.945 14.1242 190.543 14.8223 190.065 15.4596C195.08 23.7149 192.053 31.7577 187.212 39.3225C187.788 39.3301 188.342 39.626 188.631 40.2558C189.131 41.3256 188.623 42.6231 187.864 43.435C187.015 44.3455 185.778 44.8083 184.556 44.9677C184.526 44.9828 184.511 45.0056 184.48 45.0208C184.306 45.1042 184.124 45.1194 183.949 45.0891C182.94 47.6537 181.225 48.1393 179.26 47.2591C178.934 47.8206 178.35 48.1393 177.621 47.9192C177.363 47.8433 177.105 47.6612 176.9 47.4412C175.899 48.6249 174.313 48.9435 172.841 49.1636C172.408 49.2319 171.984 49.285 171.559 49.3305C174.055 60.249 172.211 72.3436 171.369 83.2773C170.383 96.0016 169.017 108.946 165.329 121.215C165.117 121.928 164.017 121.632 164.214 120.904C165.86 114.705 167.112 108.476 168.106 102.193C166.536 102.891 163.865 101.981 162.795 100.805C161.535 99.4312 161.596 97.5571 162.757 96.1458C164.373 94.1806 167.082 93.9378 169.351 93.2246C169.525 91.7374 169.692 90.2427 169.844 88.7555C169.76 88.7858 169.669 88.8086 169.571 88.801C166.46 88.5658 161.498 88.581 162.196 84.0816C162.757 80.4471 167.864 77.708 170.974 76.4561C171.574 69.7335 172.067 62.9426 171.65 56.2428C171.399 55.0971 171.286 53.9362 170.982 52.798C170.678 51.6675 170.178 50.5976 169.844 49.4823C169.472 49.505 169.093 49.4974 168.721 49.505C168.721 49.5278 168.721 49.5506 168.713 49.5733C168.038 50.9315 166.255 51.2122 164.904 50.9467C164.73 50.9163 164.768 50.6204 164.95 50.6356C166.194 50.7266 167.112 50.1424 168.076 49.505C167.545 49.4898 167.021 49.4595 166.483 49.3912C166.399 49.3836 166.399 49.2622 166.483 49.2622C169.859 49.0346 173.524 48.4883 176.43 46.6749C176.468 46.6521 176.498 46.6445 176.536 46.6369C176.506 46.3865 176.544 46.1286 176.726 45.9009C176.832 45.7644 177.022 45.8706 177.067 45.992C177.272 46.4852 177.325 47.077 177.917 47.2819C178.274 47.4033 178.744 47.297 179.086 47.0694C179.002 47.0011 178.911 46.948 178.797 46.8949C178.645 46.8266 178.509 46.7735 178.372 46.7204C178.372 46.7204 178.372 46.7204 178.372 46.7128C178.274 46.6749 178.167 46.6142 178.061 46.5611L177.932 46.4624V46.47C177.72 46.3182 177.507 46.1665 177.295 45.992C176.111 45.0208 175.178 43.7385 174.472 42.3348C173.395 41.2118 173.053 39.2998 173.668 37.8581C173.714 37.7443 173.774 37.6608 173.827 37.5622C172.484 36.0599 171.278 34.4741 170.117 32.8276C170.094 32.7972 170.14 32.7744 170.163 32.7972C171.346 34.3678 172.659 35.855 174.017 37.2815C174.662 36.5075 175.679 36.4848 176.695 36.7427C176.718 36.7352 176.733 36.7276 176.764 36.7276C174.905 34.1857 172.78 31.8715 170.307 29.7849C170.261 29.747 170.322 29.6635 170.367 29.7015C173.053 31.7122 175.428 34.125 177.386 36.849C179.89 37.4863 182.69 39.7171 183.206 42.2437C183.38 42.5396 183.524 42.8431 183.615 43.1466C183.714 43.0784 183.843 43.0632 183.957 43.1011C184.215 42.9494 184.473 42.7824 184.738 42.5624C185.148 42.2285 185.277 41.7505 185.231 41.2725C185.353 40.8249 185.505 40.3848 185.793 40.0206C185.808 40.0054 185.816 39.9978 185.831 39.9826C185.816 39.975 185.808 39.9599 185.793 39.9447C188.471 37.5015 189.685 33.4953 190.641 30.1188C191.264 27.9336 191.59 25.6877 191.438 23.4873C191.309 20.9606 190.603 18.4795 189.67 15.9604C189.207 16.4991 188.691 17.0075 188.145 17.5159C187.948 17.569 187.758 17.6524 187.584 17.7662C187.462 17.698 187.394 17.5614 187.485 17.4096C187.842 16.8178 188.229 16.2032 188.6 15.581C189.131 14.3746 189.678 13.1378 189.974 11.9162C190.057 11.8024 190.103 11.6962 190.163 11.5824C190.179 11.0285 190.141 10.4898 190.156 9.94346C190.08 9.81447 190.019 9.6779 189.905 9.54891C189.86 8.30455 189.238 7.84171 188.039 8.14521C187.318 7.98587 186.347 8.16038 185.611 8.17556C181.445 8.2742 177.295 8.88879 174.267 11.9921C173.607 12.6674 172.568 11.6203 173.235 10.9602C176.695 7.54579 181.938 6.57458 186.719 7.03742C182.674 5.64131 178.638 5.39092 174.214 5.81583C173.456 5.8917 173.319 4.68528 174.04 4.50318C175.542 4.1238 177.082 3.97964 178.615 4.0024C174.556 2.65181 170.77 1.79442 166.672 1.96134C166.232 4.75357 165.898 7.48509 166.217 10.338C166.391 11.9086 167.294 14.3291 165.929 15.6569C162.499 18.9878 160.746 11.939 160.473 9.95105C160.321 8.84326 159.699 5.45921 160.101 3.06913C158.849 3.41816 157.628 3.84306 156.414 4.3059C156.414 4.32866 156.429 4.34384 156.429 4.37419C156.437 5.831 156.459 7.24988 156.801 8.67634C157.028 9.62478 157.749 10.7705 157.529 11.7872C157.233 13.1606 155.541 13.5627 154.411 13.0088C152.916 12.2804 152.18 10.0117 151.861 8.50941C151.702 7.75824 151.702 7.00707 151.869 6.31661C149.577 7.44715 147.339 8.69151 145.146 9.97381C140.298 12.804 135.487 15.8618 131.534 19.8832C126.382 25.1262 123.469 31.8639 120.783 38.5941C120.153 40.1799 117.55 39.4894 118.188 37.8809C119.022 35.7715 119.895 33.6698 120.836 31.6135C120.821 31.6211 120.805 31.6363 120.79 31.6363C119.204 31.7046 117.596 31.8791 115.987 32.1599C115.987 32.175 115.987 32.1902 115.98 32.2054C114.971 35.5515 112.869 37.9416 113.066 41.6822C113.21 44.4138 114.386 47.1301 114.219 49.8844C114.075 52.2593 111.814 55.1729 109.189 53.5037C105.994 51.4702 106.882 43.0252 107.231 40.0054C107.512 37.5622 108.309 35.2783 109.887 33.7153C106.548 34.8307 103.286 36.3634 100.228 38.2375C98.5966 46.6142 103.149 51.5081 105.645 59.035C106.829 62.6088 105.258 64.6043 101.26 63.9669C96.032 63.1323 91.654 56.0379 89.9619 51.5613C89.3322 49.8996 89.2867 48.4504 89.6281 47.1453C86.8435 50.3472 84.6127 53.921 83.1559 57.7527C83.3077 57.7831 83.4442 57.8741 83.5277 58.041C85.6978 62.3735 91.0697 63.1171 94.431 66.1521C97.6558 69.0582 94.9773 71.9339 92.1624 73.9673C88.8845 76.3347 84.7493 73.0341 82.0026 71.031C81.4411 70.6212 81.0162 70.128 80.69 69.5893C80.4699 71.9642 80.3713 74.3695 80.3561 76.7899C84.9845 76.9568 90.1592 79.3621 92.5493 83.3835C95.167 87.7843 90.3868 90.5841 86.2592 89.7874C84.1499 89.3777 82.3516 88.0954 81.2059 86.2895C81.0238 86.2061 80.8417 86.115 80.6824 86.0392C81.2059 93.7557 82.215 101.472 82.693 108.794C82.7006 108.931 82.6855 109.06 82.6627 109.174C83.1711 110.039 83.6643 110.919 84.1423 111.822C84.4306 112.368 84.1499 112.884 83.6188 113.104C71.6076 118.081 62.0776 107.095 60.3173 96.0851C59.3158 89.8405 60.0518 83.7553 61.4023 77.7308C60.3097 77.7991 58.9515 77.2907 58.0714 76.9037C56.4173 76.1829 53.7996 73.9749 55.78 72.0856C56.6753 71.2358 58.1017 71.4331 59.2095 71.5697C60.4311 71.7214 61.592 72.0477 62.677 72.6016C63.0412 71.2586 63.4131 69.9156 63.7924 68.5726C63.3524 68.7395 62.8364 68.7243 62.2597 68.694C59.9228 68.5878 55.871 68.4056 54.2473 66.5163C52.6159 64.6195 54.088 62.4418 56.0228 61.5996C59.1337 60.2414 62.2446 60.7119 65.4769 61.0305C65.6286 61.0457 65.7349 61.1216 65.788 61.2658C65.7956 61.2809 65.7955 61.2961 65.8031 61.3113C66.1142 60.12 66.4102 58.9364 66.6833 57.7451C66.6074 57.7679 66.5392 57.7982 66.4557 57.8058C66.046 57.8286 65.6362 57.8362 65.2265 57.8286C64.6195 57.8969 63.9518 57.821 63.3448 57.8134C60.5677 57.7755 56.0835 58.1397 54.5508 55.135C53.1623 52.4186 55.7117 50.0589 58.0031 49.0953C61.0913 47.7978 64.9154 47.9723 68.0263 49.0877C68.0339 49.0953 68.0415 49.0953 68.0566 49.1029C68.1477 47.8585 68.2008 46.6142 68.1856 45.3926C68.1249 45.4077 68.0642 45.4305 67.9959 45.4381C64.4601 45.9085 55.3778 46.5231 54.9226 41.1359C54.7708 39.3301 56.129 38.0706 57.6617 37.4104C60.4691 36.204 63.9138 35.7184 66.9261 35.3542C66.1825 32.3116 65.1279 29.2993 63.7393 26.2871C61.1823 20.7482 57.3506 16.8861 50.9239 18.6843C44.2165 20.5585 45.1346 27.9108 45.6202 33.4801C47.1908 51.4095 43.9206 69.2934 45.605 87.1469C47.5019 107.292 61.7438 131.663 85.5612 124.182C85.6295 124.159 85.6902 124.159 85.7509 124.159C85.8343 123.628 86.3882 123.173 87.018 123.507C98.9987 129.918 111.374 134.106 125.062 134.569C127.885 134.668 130.715 134.622 133.537 134.41C135.411 134.266 137.877 134.334 139.653 133.697C144.501 131.959 143.781 126.822 139.956 125.669C132.596 123.438 124.334 124.432 116.769 124.584C116.481 124.592 116.314 124.318 116.314 124.068C115.684 123.56 115.517 122.384 116.382 121.913C120.836 119.462 124.66 115.904 127.482 111.7C127.293 111.723 127.103 111.723 126.913 111.67C124.364 110.995 112.269 107.838 115.775 103.157C117.156 101.313 120.995 101.7 122.945 101.844C125.768 102.049 128.727 102.732 131.178 104.204C131.845 102.208 132.316 100.144 132.536 98.0351C132.384 98.2248 132.217 98.3917 132.02 98.5283C130.646 99.454 127.596 98.9684 126.056 98.938C123.165 98.8849 117.732 99.0594 115.98 96.0623C112.808 90.6448 128.879 88.2775 132.278 90.5158C132.24 90.3185 132.225 90.1213 132.187 89.924C130.874 83.4214 128.127 78.1329 122.05 74.9765C115.304 71.471 107.322 69.2479 99.7651 70.8792C99.5374 70.9323 99.4312 70.5757 99.6664 70.5226C107.322 68.8154 114.834 70.2115 121.913 73.4817C128.636 76.5926 131.845 81.4866 133.666 88.5962C134.653 92.4506 134.782 96.6921 134.129 100.888C135.988 109.25 139.676 117.095 143.105 124.918C143.378 125.07 143.652 125.221 143.91 125.388C148.735 128.552 146.489 133.719 141.611 135.138C133.203 137.581 122.998 136.815 114.5 135.427C104.614 133.81 94.6814 130.411 86.1909 125.024C86.1302 125.138 86.024 125.244 85.8722 125.297C70.4998 130.806 55.4992 120.494 48.8905 106.852C40.0585 88.6189 44.2924 67.8062 44.4897 48.4048C44.5124 42.9949 44.0193 37.7139 43.6019 32.3799ZM180.831 40.1496C180.277 39.5729 179.73 38.9431 179.123 38.4044C179.055 38.3513 178.972 38.2906 178.903 38.2451C178.607 38.0478 178.289 37.8733 177.97 37.7139C178.858 39.0418 179.662 40.4303 180.33 41.8871C180.413 42.0616 180.155 42.221 180.064 42.0389C179.199 40.4075 178.243 38.8673 177.211 37.3877C176.149 37.0311 175.701 36.978 174.806 37.7822C174.738 37.8429 174.685 37.9036 174.624 37.9567C176.073 39.4287 177.864 40.62 179.237 42.1451C179.381 42.3044 179.199 42.57 178.994 42.4562C177.257 41.4394 175.762 39.7171 174.389 38.2147C173.873 38.8445 173.827 39.4591 174.078 40.3999C174.245 41.0449 174.616 41.6291 174.927 42.2134C174.958 42.2741 174.958 42.3272 174.943 42.3803C175.178 42.7976 175.436 43.1998 175.739 43.5715C176.657 44.7097 177.803 45.6885 179.222 46.1362C180.975 46.69 181.551 46.212 182.303 45.1042C182.925 43.2073 182.204 41.576 180.831 40.1496ZM189.678 7.5382C189.769 7.5989 189.814 7.68237 189.829 7.75824C190.216 7.98587 190.497 8.25902 190.687 8.57011C190.786 8.5777 190.884 8.60805 190.96 8.66875C191.833 9.34404 191.871 10.6415 191.666 11.7948C191.886 11.6355 192.091 11.4686 192.25 11.2865C192.736 10.7174 193.176 8.12245 192.644 7.56097C192.083 6.96914 190.171 6.90843 189.465 6.79462C189.002 6.71875 188.54 6.64287 188.077 6.57458C188.623 6.87809 189.162 7.19676 189.678 7.5382ZM133.818 102.337C132.088 111.002 127.073 119.25 119.478 123.211C126.261 122.262 134.782 121.374 141.148 123.931C138.044 116.921 134.987 109.91 133.818 102.337Z" fill="#251C1C"/>
<path d="M144.903 20.1715C144.88 20.0501 145.055 19.9969 145.093 20.1184C145.791 22.7588 147.18 24.595 148.917 26.3402C148.067 23.7452 147.817 20.9909 148.477 18.1001C148.621 17.4551 149.63 17.5993 149.623 18.2518C149.524 27.6452 154.464 34.5347 160.511 41.2649C160.579 41.3484 160.473 41.4546 160.389 41.3863C156.459 37.8733 152.081 33.5104 149.759 28.4798C147.081 26.674 145.503 23.2293 144.903 20.1715Z" fill="#251C1C"/>
<path d="M181.445 43.238C181.984 43.238 181.984 44.0727 181.445 44.0727C180.914 44.0727 180.914 43.238 181.445 43.238Z" fill="#251C1C"/>
<path d="M179.601 44.0039C180.079 44.0039 180.079 44.7399 179.601 44.7399C179.123 44.7475 179.123 44.0039 179.601 44.0039Z" fill="#251C1C"/>
<path d="M177.643 42.9875C177.848 42.9875 177.848 43.3062 177.643 43.3062C177.439 43.2986 177.439 42.9875 177.643 42.9875Z" fill="#251C1C"/>
<path d="M177.902 31.7347C179.07 30.2475 184.989 21.0059 187.553 24.3672C188.486 25.5888 187.667 28.0016 187.288 29.2156C186.438 31.9547 184.844 34.2462 182.75 36.1734C182.667 36.2493 182.576 36.2645 182.5 36.2417C182.826 36.9398 183.054 37.6909 183.137 38.5028C183.145 38.5559 183.069 38.5787 183.046 38.5256C182.075 35.8168 180.148 34.0641 177.97 32.3038C177.788 32.1596 177.765 31.9016 177.902 31.7347ZM184.473 33.4343C185.467 32.2279 186.354 30.847 186.847 29.4205C186.066 30.7635 185.315 32.1368 184.473 33.4343ZM182.356 35.6423C182.636 35.3919 182.925 35.1112 183.221 34.8228C182.985 34.9746 182.727 35.1112 182.409 35.1795C182.303 35.2022 182.219 35.1643 182.151 35.096C182.113 35.1263 182.082 35.1567 182.052 35.187C182.014 35.2174 181.961 35.2326 181.916 35.2402C182.037 35.4299 182.158 35.6195 182.265 35.8092C182.287 35.7561 182.295 35.6954 182.356 35.6423ZM179.101 32.2127C179.176 32.5693 180.17 33.2902 180.717 33.7454C181.559 30.9911 184.192 28.4796 187.136 28.3051C187.196 27.9713 187.25 27.6298 187.25 27.296C187.743 25.8771 186.939 25.0956 184.837 24.9514C184.139 25.5736 183.486 26.2413 182.894 26.9621C182.143 27.8119 181.445 28.7149 180.724 29.595C180.163 30.2855 178.881 31.2263 179.101 32.2127Z" fill="#251C1C"/>
<path d="M36.6515 132.657C45.8628 132.073 55.1652 132.43 64.3917 132.445C73.6409 132.468 82.8902 132.513 92.1318 132.748C92.5264 132.756 92.5264 133.355 92.1318 133.363C82.8902 133.606 73.6409 133.651 64.3917 133.666C55.1652 133.689 45.8628 134.038 36.6515 133.454C36.128 133.431 36.128 132.688 36.6515 132.657Z" fill="#251C1C"/>
<path d="M0.443878 115.57C4.2149 114.781 8.33491 115.213 12.1666 115.259C16.3853 115.304 20.604 115.38 24.8227 115.441C28.8593 115.501 32.8959 115.592 36.9325 115.653C40.9463 115.721 45.0891 115.486 49.065 116.078C49.1408 116.093 49.1484 116.23 49.065 116.237C45.2712 116.806 41.3181 116.594 37.4864 116.655C33.2677 116.723 29.049 116.814 24.8303 116.875C20.7937 116.935 16.7571 117.004 12.7206 117.049C8.7219 117.095 4.38182 117.565 0.443878 116.738C-0.147953 116.632 -0.147953 115.691 0.443878 115.57Z" fill="#251C1C"/>
<path d="M175.769 115.645C184.419 114.978 193.289 115.592 201.962 115.721C202.166 115.721 202.166 116.032 201.962 116.04C193.289 116.177 184.419 116.784 175.769 116.116C175.466 116.093 175.458 115.668 175.769 115.645Z" fill="#251C1C"/>
<path d="M261.069 133.173C268.748 132.376 276.73 133.014 284.446 133.09C292.246 133.166 300.031 133.325 307.824 133.606C308.059 133.613 308.059 133.962 307.824 133.977C300.031 134.258 292.246 134.417 284.446 134.493C276.73 134.569 268.755 135.199 261.069 134.41C260.287 134.311 260.287 133.257 261.069 133.173Z" fill="#251C1C"/>
<path d="M169.009 136.314C173.599 136.125 178.213 136.481 182.811 136.527C183.061 136.527 183.061 136.914 182.811 136.914C178.22 136.959 173.607 137.316 169.009 137.126C168.485 137.104 168.485 136.33 169.009 136.314Z" fill="#251C1C"/>
<path d="M204.542 138.181C209.132 137.991 213.746 138.348 218.344 138.394C218.594 138.394 218.594 138.781 218.344 138.781C213.753 138.826 209.14 139.183 204.542 138.993C204.011 138.978 204.011 138.204 204.542 138.181Z" fill="#251C1C"/>
<path d="M194.981 91.8893C195.004 91.8817 195.027 91.8817 195.049 91.8741C195.08 91.8437 195.118 91.8134 195.171 91.783C207.296 86.3959 220.445 83.6947 233.708 83.6795C240.4 83.6719 247.093 84.332 253.663 85.584C259.855 86.7601 266.615 88.1865 272.329 91.0395C274.317 91.6844 275.136 92.5646 275.766 95.4251C275.796 95.5692 275.827 95.7286 275.857 95.8727C276.912 96.0397 277.853 96.5632 278.513 97.2992C279.264 96.6846 280.152 96.4646 280.971 97.193C281.487 97.6482 281.692 98.3083 281.7 99.0443C282.223 99.0519 282.739 99.272 283.164 99.841C283.232 99.9321 283.285 100.038 283.331 100.152C283.915 100 284.484 99.9928 284.924 100.22C285.751 100.645 286.085 101.359 286.1 102.11C287.117 102.315 288.012 102.922 288.331 104.007C288.445 104.394 288.445 104.796 288.369 105.198C288.528 105.334 288.672 105.486 288.779 105.668C289.484 106.844 289.135 107.998 288.323 108.832C289.757 109.583 290.562 110.873 289.188 112.581C289.082 112.717 288.93 112.831 288.771 112.937C288.809 113.119 288.832 113.309 288.817 113.499C288.764 114.242 288.46 114.796 288.02 115.183C288.179 115.661 288.187 116.207 287.952 116.83C287.671 117.558 287.216 117.983 286.685 118.188C286.654 118.4 286.609 118.62 286.533 118.84C286.26 119.637 285.827 120.183 285.304 120.532C285.304 120.942 285.22 121.375 285.023 121.837C284.681 122.619 284.219 123.089 283.703 123.34C283.657 123.674 283.536 124.015 283.331 124.341C282.876 125.062 282.261 125.29 281.616 125.229C281.525 125.434 281.411 125.639 281.252 125.828C280.539 126.655 279.56 126.784 278.589 126.519C278.278 127.361 277.678 128.036 276.745 128.249C276.054 128.401 275.265 128.211 274.544 127.809C273.854 128.613 272.913 129.03 271.934 128.34C271.57 128.082 271.229 127.596 270.971 127.02C269.886 127.498 268.664 127.187 268.095 126.124C267.64 125.275 267.662 124.569 267.958 124.023C267.473 123.59 267.2 122.998 267.344 122.232C267.518 121.306 268.156 120.805 268.968 120.57C268.998 120.403 269.051 120.229 269.142 120.039C269.218 119.88 269.339 119.728 269.468 119.591C269.324 119.629 269.172 119.66 269.013 119.66C268.543 119.667 268.186 119.516 267.913 119.258C267.503 119.652 266.942 119.812 266.175 119.531C265.902 119.432 265.659 119.22 265.432 118.977C265.424 118.984 265.417 118.992 265.409 118.992C264.901 119.204 264.491 119.182 264.157 119.03C263.899 119.273 263.558 119.409 263.102 119.371C262.662 119.333 262.321 119.144 262.048 118.863C261.866 118.977 261.661 118.992 261.463 118.931C261.623 124.22 260.447 129.895 255.484 132.232C252.449 133.666 248.754 133.644 245.469 133.788C240.636 134 235.787 133.955 230.946 133.833C226.394 133.72 221.796 133.682 217.258 133.272C214.55 133.029 209.769 132.779 207.948 130.381C206.97 129.099 206.985 126.959 206.886 125.464C206.734 123.036 206.848 120.608 207.136 118.195C207.531 114.918 208.282 111.723 209.162 108.559C206.256 110.638 201.992 112.277 198.479 112.634C195.877 112.899 195.103 111.427 194.162 109.136C192.811 105.835 192.447 102.345 192.424 98.8091C192.409 96.2066 192.204 93.0729 194.981 91.8893ZM279.461 99.4389C279.492 99.7424 279.476 100.046 279.423 100.365C279.75 99.9472 280.152 99.5906 280.577 99.3554C280.417 99.1657 280.038 99.1961 279.461 99.4389ZM267.086 115.6C267.101 115.441 267.116 115.282 267.131 115.153C267.245 114.333 268.581 114.386 268.74 115.153C268.77 115.282 268.785 115.433 268.801 115.585C268.952 115.562 269.104 115.547 269.248 115.525C269.423 115.213 269.628 114.91 269.878 114.66C270.288 114.257 271.168 114.386 271.274 115.031C271.32 115.335 271.342 115.722 271.32 116.132C271.35 116.169 271.38 116.2 271.418 116.238C272.291 115.745 273.361 115.729 273.937 116.739C274.324 117.414 274.233 118.059 273.892 118.605C274.62 118.84 275.189 119.303 275.356 120.039C275.455 120.479 275.227 120.927 274.78 121.056C274.362 121.177 273.907 121.238 273.444 121.23C273.96 121.625 273.816 122.46 273.179 122.657C272.556 122.847 271.631 122.831 270.796 122.596C270.781 122.634 270.758 122.664 270.735 122.702C270.69 122.74 270.66 122.771 270.614 122.809C270.933 122.831 271.244 122.9 271.54 123.013C271.691 122.976 271.858 122.945 272.048 122.953C272.359 122.96 272.701 123.203 272.777 123.522C273.338 122.687 274.294 122.778 274.954 123.37C274.947 123.355 274.939 123.347 274.939 123.332C274.203 121.261 276.145 120.752 277.625 122.019C277.762 122.141 277.891 122.277 278.004 122.429C277.936 122.308 277.868 122.186 277.822 122.073C277.617 121.587 278.118 121.2 278.52 121.155C278.733 121.132 278.938 121.147 279.142 121.177C279.074 121.071 279.013 120.965 278.953 120.859C278.733 120.426 278.93 119.948 279.385 119.796C279.909 119.622 280.47 119.637 281.017 119.789C281.017 119.781 281.024 119.774 281.024 119.758C280.63 119.326 280.319 118.795 280.152 118.173C280.023 117.695 280.379 117.33 280.827 117.285C281.29 117.232 281.753 117.262 282.208 117.353C282.375 117.247 282.511 117.148 282.656 117.057C282.284 116.761 281.973 116.443 281.745 116.132C281.54 115.843 281.669 115.304 282.003 115.16C282.42 114.978 282.853 114.887 283.278 114.864C283.293 114.842 283.3 114.826 283.316 114.804C283.05 114.538 282.838 114.227 282.709 113.87C282.58 113.537 282.853 113.081 283.194 113.013C283.354 112.983 283.528 112.968 283.703 112.952C283.179 112.573 282.982 112.027 283.422 111.306C284.181 110.061 285.668 110.069 286.889 110.691C287.542 110.137 287.671 109.781 287.254 109.614C286.032 110.244 284.492 110.319 283.475 109.401C283.126 109.09 283.27 108.582 283.619 108.347C283.263 108.172 282.936 107.891 282.693 107.451C282.246 106.647 282.564 105.934 283.247 105.41C283.02 105.418 282.792 105.403 282.557 105.327C282.276 105.243 282.117 105.008 282.102 104.727C282.094 104.583 282.109 104.454 282.124 104.318C281.608 104.75 281.009 104.849 280.425 104.325C280.136 104.06 280.015 103.749 280.007 103.415C279.871 103.574 279.742 103.718 279.613 103.832C279.37 104.045 278.922 104.06 278.756 103.718C278.528 103.255 278.49 102.724 278.581 102.193C277.693 103.111 276.722 102.17 276.714 100.638C276.707 99.9321 277.155 98.8622 277.815 98.02C277.435 97.3295 276.836 96.8819 276.009 96.677C276.593 99.7651 276.904 103.377 275.629 106.184C272.852 112.3 265.25 111.625 260.037 109.599C260.386 110.972 260.667 112.353 260.902 113.719C261.001 114.295 261.092 114.91 261.168 115.532C261.183 115.244 261.221 114.978 261.266 114.758C261.426 113.999 262.7 113.961 262.837 114.758C262.867 114.925 262.875 115.069 262.89 115.229C262.898 115.054 262.913 114.895 262.935 114.758C263.072 113.886 264.301 114.053 264.536 114.758C264.552 114.811 264.574 114.872 264.59 114.933C264.658 114.781 264.734 114.629 264.848 114.515C265.121 114.219 265.523 114.235 265.857 114.386C266.357 114.606 266.623 115.092 266.737 115.646C266.851 115.638 266.964 115.623 267.086 115.6ZM274.901 105.532C269.931 107.907 262.837 105.304 257.973 103.43C258.694 105.092 259.293 106.814 259.771 108.559C259.817 108.559 259.855 108.559 259.9 108.582C264.787 110.297 272.412 111.496 274.901 105.532ZM208.563 116.784C208.161 119.47 207.948 122.202 208.085 124.918C208.138 126.041 208.077 127.558 208.495 128.583C209.185 130.267 211.386 130.844 212.964 131.231C217.539 132.361 222.486 132.187 227.175 132.346C231.834 132.498 236.5 132.604 241.167 132.528C245.408 132.46 250.166 132.695 254.233 131.322C259.559 129.524 260.507 123.545 260.378 118.582C260.204 112.08 258.368 104.667 254.68 98.8926C254.597 98.8319 254.528 98.7484 254.506 98.6422C254.05 97.9441 253.588 97.2613 253.072 96.6239C253.276 97.1171 253.466 97.6255 253.618 98.149C255.447 104.234 257.897 114.25 252.381 119.25C249.93 121.466 246.455 121.557 243.337 121.549C238.246 121.541 233.154 121.466 228.071 121.42C221.53 121.367 211.742 121.762 210.308 113.347C210.035 111.761 210.073 110.099 210.27 108.438C209.587 111.2 208.98 113.977 208.563 116.784ZM223.723 99.7955C225.066 94.9698 231.227 94.249 235.302 95.3871C235.552 95.4554 235.651 95.6982 235.62 95.9183C238.784 96.6846 242.054 98.5739 241.743 101.966C241.326 106.541 234.019 108.24 230.4 107.869C227.98 107.618 225.498 106.161 224.277 104.06C222.418 105.304 220.369 106.306 218.351 107.254C218.267 107.292 218.192 107.307 218.116 107.315C219.99 113.666 227.608 115.737 233.526 115.047C238.701 114.44 247.867 112.421 249.02 106.275C250.287 99.5148 241.379 93.9683 235.681 93.7786C233.693 93.7103 231.743 93.7027 229.778 93.4902C223.859 94.5525 217.205 98.5967 217.759 105.296C219.428 104.022 221.909 103.84 223.579 102.588C223.609 102.565 223.632 102.565 223.662 102.55C223.465 101.685 223.457 100.759 223.723 99.7955ZM230.491 106.662C233.427 106.973 237.547 106.017 239.733 103.893C241.66 102.019 240.446 99.1657 238.519 97.8379C237.479 97.1247 236.311 96.6391 235.104 96.29C232.092 96.1004 228.875 95.5541 226.394 97.7165C222.304 101.275 226.189 106.199 230.491 106.662ZM250.173 105.562C249.832 112.398 240.674 114.94 235.271 115.904C228.344 117.141 219.208 115.229 217.008 107.451C214.997 100.349 220.673 95.0912 226.857 93.0502C223.7 92.4811 220.278 91.8741 217.425 93.5813C214.883 95.0988 213.73 98.0276 213.002 100.744C212.182 103.809 211.439 107.125 211.332 110.297C211.029 119.736 219.77 120.107 226.963 120.176C233.253 120.236 239.695 120.699 245.977 120.305C256.084 119.667 255.204 108.832 253.436 101.51C252.487 97.5799 251.562 93.5282 246.721 93.4371C244.513 93.3992 242.32 93.4447 240.127 93.4371C245.089 95.2506 250.431 100.327 250.173 105.562ZM215.005 94.1959C214.337 94.4159 213.662 94.6435 212.987 94.8332C212.873 94.8636 212.448 94.9167 212.379 95.0002C212.266 95.1443 212.311 95.3113 212.364 95.463C212.524 95.7589 212.668 96.0776 212.751 96.3963C212.865 96.6315 212.986 96.8591 213.115 97.0943C213.609 96.0321 214.216 95.0457 215.005 94.1959ZM252.214 95.0077C253.102 95.8196 253.876 96.7225 254.604 97.671C254.87 96.6011 255.492 95.6527 256.304 94.8332C255.363 94.6056 254.422 94.3628 253.466 94.2186C252.806 94.12 252.138 94.1048 251.478 94.0593C251.744 94.3552 251.994 94.6739 252.214 95.0077ZM195.004 108.756C195.854 110.782 196.795 111.981 199.185 111.518C200.308 111.306 201.408 111.01 202.493 110.668C204.822 109.932 206.977 108.825 209.246 107.929C209.276 107.914 209.299 107.929 209.329 107.929C209.739 106.488 210.179 105.046 210.627 103.612C210.771 102.861 210.976 102.117 211.226 101.374C210.498 102.413 209.39 103.217 207.888 103.885C203.813 105.691 199.2 107.641 194.685 107.876C194.792 108.21 194.905 108.514 195.004 108.756ZM194.397 107.042C197.629 106.382 200.725 105.676 203.828 104.492C205.338 103.916 206.871 103.354 208.335 102.656C210.718 101.518 211.355 99.7727 212.038 97.5723C211.848 97.2309 211.81 96.8819 211.704 96.5025C211.674 96.3887 211.628 96.29 211.59 96.1838C211.575 96.1383 211.56 96.0928 211.545 96.0548C211.408 95.683 211.241 95.3264 211.044 94.9774C210.528 94.0669 209.868 93.2474 209.079 92.5494C208.988 92.4659 209.109 92.3066 209.215 92.3749C210.08 92.9743 210.938 93.5813 211.621 94.3856C212.023 93.9834 212.865 93.9607 213.373 93.8468C214.193 93.6723 215.02 93.5206 215.847 93.384C218.434 91.2215 221.765 91.1836 224.96 91.6085C226.508 91.8134 228.04 92.1321 229.588 92.3521C229.785 92.3217 229.983 92.2762 230.172 92.2459C230.43 92.2079 230.628 92.3293 230.757 92.4963C230.832 92.5038 230.901 92.519 230.977 92.5266C233.048 92.7239 235.15 92.5342 237.221 92.7542C240.894 92.3066 245.006 91.8589 248.519 92.4431C249.308 92.5721 249.968 92.8605 250.553 93.2474C252.503 92.8377 254.976 93.5661 256.661 94.5297C257.935 93.3612 259.574 92.4963 261.016 92.0182C261.084 91.9955 261.137 92.1093 261.069 92.1396C259.703 92.7163 258.497 93.6875 257.571 94.8484C256.63 96.0245 256.258 97.4585 255.515 98.7332C255.5 98.756 255.484 98.7636 255.469 98.7864C256.266 99.9624 256.972 101.199 257.586 102.497C257.647 102.481 257.708 102.482 257.783 102.504C263.505 104.143 268.884 105.972 274.893 104.993C274.985 104.978 275.06 105.023 275.121 105.076C275.129 105.069 275.129 105.054 275.136 105.046C276.016 102.512 275.66 99.1961 275.235 96.586C274.916 94.6435 274.749 92.9363 272.86 91.7223C272.708 91.6237 272.534 91.5402 272.359 91.4644C266.365 90 260.598 87.7844 254.513 86.5628C247.844 85.2198 241.053 84.4914 234.254 84.4534C220.984 84.3851 207.781 87.0332 195.649 92.4356C195.603 92.5418 195.512 92.6404 195.368 92.7011C191.468 94.2945 193.031 102.709 194.397 107.042Z" fill="#251C1C"/>
<path d="M225.848 123.711C226.644 122.93 229.732 123.104 230.681 123.029C231.728 122.945 239.475 121.837 238.17 124.417C238.162 124.432 238.147 124.432 238.139 124.447C238.291 125.965 238.724 128.476 237.821 129.698C237.032 130.768 234.96 130.51 233.792 130.563C231.364 130.677 228.731 130.737 226.333 130.259C225.028 130.001 224.861 129.812 224.869 128.461C224.876 127.293 224.983 124.561 225.848 123.711ZM226.933 129.539C227.669 129.88 229.034 129.698 229.869 129.728C231.174 129.781 232.487 129.781 233.792 129.728C235.431 129.66 236.728 129.872 237.555 127.725C237.889 126.868 237.79 125.555 237.836 124.554C237.737 124.523 237.646 124.463 237.616 124.356C237.358 123.324 231.295 123.848 230.203 123.863C228.405 123.878 227.631 123.529 226.477 125.054C225.423 126.435 224.679 128.492 226.933 129.539Z" fill="#251C1C"/>
<path d="M228.427 125.108C229.323 124.607 230.871 124.599 231.865 124.546C233.359 124.47 234.839 124.576 236.311 124.819C236.349 124.827 236.372 124.842 236.402 124.85C236.47 124.827 236.554 124.85 236.546 124.941C236.546 124.948 236.546 124.956 236.546 124.956C236.622 125.07 236.607 125.221 236.538 125.35C236.516 127.338 236.607 128.264 234.277 128.803C232.593 129.197 229.429 129.66 228.025 128.256C227.213 127.452 227.441 125.669 228.427 125.108ZM228.981 128.074C230.081 128.765 232.274 128.469 233.443 128.272C234.285 128.127 234.74 128.006 235.431 127.437C236.159 126.838 236.212 126.314 236.265 125.586C236.212 125.601 236.159 125.601 236.098 125.593C234.695 125.388 233.283 125.259 231.865 125.29C231.242 125.305 230.62 125.343 230.006 125.411C229.33 125.282 228.867 125.51 228.609 126.094C227.896 126.686 228.018 127.346 228.981 128.074Z" fill="#251C1C"/>
<path d="M240.795 96.2748C240.818 96.2672 240.833 96.2672 240.856 96.2672C240.811 96.1913 240.879 96.0623 240.985 96.0927C241.099 96.1306 241.235 96.1761 241.38 96.2292C242.169 96.2824 242.867 96.8438 243.117 97.6102C243.155 97.7316 243.132 97.8606 243.079 97.9668C242.905 99.0442 241.531 98.8925 240.879 98.3993C240.492 98.111 240.052 97.7392 240.014 97.2308C239.968 96.73 240.355 96.3886 240.795 96.2748Z" fill="#251C1C"/>
<path d="M244.505 99.6971C245.514 99.8261 246.569 100.471 246.873 101.488C247.085 102.193 246.82 102.922 246.235 103.24C245.803 103.673 245.097 103.673 244.49 103.385C243.618 102.975 242.783 102.087 242.662 101.101C242.525 99.993 243.557 99.5757 244.505 99.6971Z" fill="#251C1C"/>
<path d="M243.026 105.236C244.088 104.879 245.34 105.145 245.909 106.207C246.471 107.247 245.864 108.613 244.688 108.817C243.512 109.022 241.873 108.013 241.691 106.776C241.562 105.889 242.252 105.38 243.026 105.236Z" fill="#251C1C"/>
<path d="M235.856 110.023C236.189 108.862 237.768 108.21 238.868 108.225C239.604 108.233 240.18 108.627 240.469 109.181C240.863 109.553 241.106 110.046 241.008 110.683C240.81 112.064 239.323 112.505 238.124 112.33C236.986 112.171 235.446 111.442 235.856 110.023Z" fill="#251C1C"/>
<path d="M229.33 110.35C230.142 109.621 231.773 109.485 232.729 109.978C233.124 110.183 233.428 110.54 233.579 110.949C233.617 110.995 233.655 111.033 233.686 111.078C234.3 111.981 233.739 112.99 232.836 113.4C231.849 113.84 230.605 113.65 229.755 112.998C228.943 112.376 228.442 111.147 229.33 110.35Z" fill="#251C1C"/>
<path d="M224.125 107.376C225.081 107.11 226.143 107.102 226.811 107.922C227.008 108.013 227.191 108.127 227.365 108.271C227.957 108.779 228.397 109.781 227.858 110.471C227.259 111.245 226.03 111.276 225.18 111.002C224.338 110.729 223.033 109.963 222.767 109.052C222.494 108.127 223.359 107.588 224.125 107.376Z" fill="#251C1C"/>
<path d="M236.888 95.2428C237.252 94.5599 238.656 94.5675 238.921 95.3263C239.058 95.4477 239.187 95.5767 239.293 95.736C239.399 95.903 239.285 96.1154 239.119 96.1761C238.58 96.3506 236.288 96.3886 236.888 95.2428Z" fill="#251C1C"/>
<path d="M235.18 94.4765C235.294 94.4461 235.354 94.4385 235.476 94.4461C235.643 94.4537 235.772 94.6358 235.673 94.7875C235.612 94.8862 235.574 94.9241 235.483 95C235.058 95.3338 234.717 94.6054 235.18 94.4765Z" fill="#251C1C"/>
<path d="M259.142 68.2542C259.643 68.1935 259.848 68.9978 259.4 69.2103C254.726 71.4258 251.797 74.734 250.803 79.9163C250.773 80.0681 250.507 80.0377 250.53 79.8784C251.016 75.0603 253.687 68.9295 259.142 68.2542Z" fill="#251C1C"/>
<path d="M233.913 53.7922C234.034 53.1321 234.968 53.3521 235.021 53.9439C235.582 60.8638 234.497 67.8671 234.672 74.7794C234.672 74.8704 234.543 74.8704 234.528 74.7794C233.822 67.8292 232.638 60.7879 233.913 53.7922Z" fill="#251C1C"/>
<path d="M205.354 72.3438C207.698 69.7337 212.395 69.415 215.589 70.3634C219.026 71.3802 221.591 73.9827 223.222 77.086C223.313 77.2605 223.055 77.4123 222.957 77.2378C221.272 74.3393 218.526 72.321 215.24 71.6154C211.712 70.8642 209.125 72.2527 205.854 73.2012C205.338 73.3605 205.02 72.7156 205.354 72.3438Z" fill="#251C1C"/>
</svg>
