<svg width="17" height="29" viewBox="0 0 17 29" fill="none" xmlns="http://www.w3.org/2000/svg">
<path d="M2.87801 7.35042C2.92229 7.4098 2.97764 7.46014 3.04607 7.49637C3.01588 7.57789 2.99473 7.66339 2.98366 7.75196C2.95649 7.95929 3.07631 8.1475 3.2454 8.26727C3.2454 8.27029 3.24434 8.27334 3.24333 8.27636C3.18798 8.66183 3.2081 9.04226 3.28559 9.41062C3.15979 9.72564 3.30373 10.1051 3.57848 10.2641C3.77776 10.6838 4.04751 11.0753 4.36152 11.4235C4.37763 11.4758 4.39275 11.5292 4.41086 11.5815C4.5105 11.8693 4.64329 12.137 4.80332 12.3816C4.76608 12.4883 4.72991 12.596 4.69569 12.7047C4.50749 13.2925 5.35088 13.843 5.77359 13.3589C6.15805 13.6095 6.60086 13.7795 7.08697 13.849C7.46137 13.9023 7.83878 13.9014 8.21116 13.8561C8.28664 14.3311 8.92878 14.5575 9.32532 14.2073C9.88893 13.7091 10.4515 13.2109 11.0151 12.7127C11.5989 12.45 12.1413 12.1039 12.6355 11.6962C12.3939 12.1401 12.1142 12.5658 11.7951 12.9663C11.3684 13.5018 11.9109 14.4317 12.5882 13.9939C15.0993 12.3725 16.6753 9.5797 16.7548 6.59057C16.7588 6.45772 16.7246 6.34295 16.6653 6.24834C16.6602 5.94138 16.4529 5.64552 16.0353 5.62639C15.4636 5.60123 14.8919 5.58816 14.3213 5.58615C14.2478 5.55595 14.1662 5.54082 14.0747 5.54384C11.8977 5.60825 9.72487 5.75722 7.56002 5.99575C7.32954 6.02091 7.08395 6.04406 6.83133 6.06922C5.59744 6.07526 4.36351 6.08129 3.12962 6.08834C2.37982 6.09135 2.29628 7.11994 2.87801 7.35042ZM14.6826 8.15154C14.8929 8.01466 15.1073 7.88179 15.3247 7.75398C15.228 8.27833 15.077 8.79065 14.8768 9.2828C14.8868 9.23248 14.8969 9.18213 14.906 9.1308C14.9704 8.76446 14.7711 8.46354 14.4943 8.35484C14.5567 8.28741 14.6202 8.21998 14.6826 8.15154ZM13.0219 7.32825C13.0561 7.28699 13.0844 7.24474 13.1075 7.20146C13.2273 7.19039 13.347 7.17934 13.4658 7.16928C13.2635 7.37157 13.0722 7.58492 12.8921 7.80734C12.6666 7.97844 12.4443 8.15557 12.2269 8.33774C12.4805 7.99253 12.7441 7.65535 13.0219 7.32825ZM10.3267 7.71776C10.3699 7.64127 10.3951 7.56379 10.4042 7.4863C10.6729 7.46315 10.9426 7.44099 11.2113 7.41784C10.6598 8.02573 10.0882 8.6145 9.49034 9.1771L10.3267 7.71776ZM6.11474 7.84862C6.53442 7.8134 6.95516 7.77716 7.37485 7.74194C6.92396 8.2673 6.43579 8.75542 5.91345 9.20329C5.90942 9.19322 5.9044 9.18215 5.90037 9.17208C6.00404 9.06641 6.10362 8.95569 6.19621 8.83693C6.45386 8.51185 6.36936 8.07004 6.11474 7.84862Z" fill="#EF4036"/>
<path d="M15.1127 0.430227C14.3076 0.454382 13.5034 0.521857 12.6983 0.550037C9.38807 0.663765 6.07792 0.774446 2.76673 0.874083C1.92534 0.899244 1.08293 0.878113 0 0.878113C0.0946054 1.81108 0.167073 2.59912 0.25564 3.38414C0.58072 6.26155 1.34661 9.02828 2.78884 11.5313C3.39371 12.582 4.27633 13.7445 5.319 14.2024C6.59215 14.762 7.01993 15.2571 6.97766 16.6712C6.88708 19.7066 7.08334 22.7511 7.13669 25.7915C7.15983 27.0758 6.94245 27.2811 5.65622 27.2076C4.71721 27.1532 3.78523 26.9862 2.84722 26.9439C2.62279 26.9339 2.23122 27.1854 2.18291 27.3817C2.07221 27.8296 2.41044 27.9997 2.83415 27.9846C2.87844 27.9826 2.92474 27.9735 2.96802 27.9796C4.5119 28.207 6.05372 28.4445 7.59961 28.6579C8.03339 28.7183 8.47927 28.7495 8.91506 28.7193C11.0407 28.5723 13.0837 27.6102 15.2787 28.0872C15.6521 28.1688 16.0246 28.0168 16.0477 27.5518C16.0709 27.0718 15.7015 26.964 15.3221 26.9701C14.2935 26.9862 13.2659 27.0315 12.2373 27.0566C11.7683 27.0677 11.2992 27.0586 10.7336 27.0586C10.6652 26.2173 10.5615 25.5098 10.5575 24.8012C10.5464 22.5649 10.5575 20.3286 10.5857 18.0933C10.6209 15.3749 10.7488 15.1213 12.8311 13.2422C13.2639 12.8528 13.7097 12.4773 14.1405 12.0858C14.3378 11.9067 14.5652 11.7326 14.692 11.5071C16.3848 8.519 17.4185 5.38697 16.8025 1.88455C16.6123 0.796591 16.2067 0.396008 15.1127 0.430227ZM9.50782 26.4759C9.4736 27.0234 9.44646 27.0214 8.73893 27.8074C8.51953 27.1663 8.2659 26.7316 8.23571 26.2817C8.05757 23.6992 7.90552 21.1136 7.80689 18.527C7.77569 17.7309 7.95084 16.9288 8.0072 16.1277C8.05953 15.3829 8.43697 14.9955 9.31459 14.928C9.40215 15.2461 9.56114 15.5661 9.56718 15.8892C9.60845 18.3902 9.63569 20.8922 9.63569 23.3942C9.63569 24.4218 9.57022 25.4503 9.50782 26.4759ZM15.8333 6.3783C15.2304 8.80684 14.3408 11.0361 12.1236 12.5297C11.0145 13.2775 9.93158 13.9014 8.55376 13.8199C6.15239 13.677 4.42634 12.4522 3.38367 10.3578C2.75967 9.10475 1.89816 7.88393 2.07529 6.19411C6.65359 5.58119 11.1987 5.68286 15.7709 5.78451C15.8011 6.03411 15.8725 6.21928 15.8333 6.3783ZM15.7558 4.28895C14.8289 4.37249 13.8657 4.49326 12.8975 4.54056C9.63963 4.69757 6.38081 4.82939 3.12095 4.96727C2.76467 4.98136 2.38825 5.0347 2.05613 4.94412C1.79848 4.87267 1.44924 4.63917 1.39388 4.41574C1.22983 3.74344 1.19063 3.04097 1.08998 2.25293C1.80053 2.15128 2.3208 2.03152 2.84516 2.00938C5.92588 1.88458 9.00766 1.77384 12.0894 1.68125C12.8029 1.66012 13.5295 1.65912 14.231 1.76882C15.635 1.98923 16.0275 2.63839 15.7558 4.28895Z" fill="#251C1C"/>
</svg>
