<svg width="26" height="33" viewBox="0 0 26 33" fill="none" xmlns="http://www.w3.org/2000/svg">
<path d="M14.9372 14.8352C14.9663 14.8742 15.0026 14.9072 15.0475 14.931C15.0277 14.9845 15.0138 15.0406 15.0065 15.0987C14.9887 15.2348 15.0673 15.3583 15.1783 15.4369C15.1783 15.4389 15.1776 15.4409 15.1769 15.4429C15.1406 15.6958 15.1538 15.9455 15.2047 16.1872C15.1221 16.394 15.2166 16.643 15.3969 16.7473C15.5277 17.0227 15.7047 17.2797 15.9108 17.5082C15.9213 17.5425 15.9312 17.5775 15.9431 17.6119C16.0085 17.8008 16.0957 17.9764 16.2007 18.1369C16.1762 18.2069 16.1525 18.2776 16.1301 18.349C16.0065 18.7347 16.56 19.096 16.8374 18.7783C17.0897 18.9427 17.3803 19.0543 17.6993 19.0999C17.945 19.1349 18.1927 19.1343 18.4371 19.1046C18.4866 19.4163 18.908 19.5649 19.1682 19.335C19.5381 19.0081 19.9073 18.6812 20.2772 18.3542C20.6603 18.1818 21.0162 17.9547 21.3405 17.6872C21.182 17.9784 20.9984 18.2578 20.7891 18.5207C20.509 18.872 20.865 19.4823 21.3095 19.195C22.9574 18.131 23.9916 16.2982 24.0438 14.3366C24.0465 14.2494 24.024 14.1741 23.9851 14.112C23.9818 13.9106 23.8457 13.7164 23.5716 13.7038C23.1965 13.6873 22.8213 13.6788 22.4468 13.6774C22.3986 13.6576 22.3451 13.6477 22.285 13.6497C20.8564 13.6919 19.4304 13.7897 18.0098 13.9462C17.8585 13.9627 17.6973 13.9779 17.5316 13.9944C16.7218 13.9984 15.9121 14.0024 15.1023 14.007C14.6103 14.009 14.5554 14.684 14.9372 14.8352ZM22.6839 15.361C22.822 15.2711 22.9626 15.1839 23.1053 15.1001C23.0419 15.4442 22.9428 15.7804 22.8114 16.1034C22.818 16.0703 22.8246 16.0373 22.8305 16.0036C22.8728 15.7632 22.742 15.5657 22.5604 15.4944C22.6014 15.4501 22.643 15.4059 22.6839 15.361ZM21.5941 14.8207C21.6166 14.7936 21.6351 14.7659 21.6503 14.7375C21.7289 14.7302 21.8075 14.723 21.8854 14.7164C21.7527 14.8491 21.6272 14.9891 21.5089 15.1351C21.361 15.2474 21.2151 15.3636 21.0724 15.4832C21.2388 15.2566 21.4118 15.0353 21.5941 14.8207ZM19.8254 15.0763C19.8538 15.0261 19.8703 14.9753 19.8763 14.9244C20.0526 14.9092 20.2296 14.8947 20.4059 14.8795C20.044 15.2784 19.6689 15.6648 19.2765 16.034L19.8254 15.0763ZM17.0613 15.1622C17.3367 15.1391 17.6128 15.1153 17.8882 15.0922C17.5924 15.4369 17.272 15.7573 16.9292 16.0512C16.9266 16.0446 16.9233 16.0373 16.9206 16.0307C16.9887 15.9613 17.054 15.8887 17.1148 15.8108C17.2838 15.5974 17.2284 15.3075 17.0613 15.1622Z" fill="#EF4036"/>
<path d="M6.68273 0.531764C6.36108 0.502703 6.04867 0.566758 5.76929 0.701495C5.5553 0.524487 5.31096 0.418138 5.11017 0.572689C4.46621 1.06937 4.49131 1.82627 4.71653 2.54025C4.8658 3.01381 5.31163 3.49531 5.81689 3.54418C6.01702 3.564 6.21777 3.55011 6.41261 3.50784C6.66227 3.56794 6.92909 3.56334 7.20583 3.47549C7.38085 3.42001 7.42448 3.10298 7.42448 2.9623C7.57639 2.81502 7.70647 2.64526 7.80554 2.45637C8.17673 1.749 7.43832 0.599793 6.68273 0.531764Z" fill="#39B100"/>
<path d="M8.4569 10.7365C8.16828 13.4854 8.3327 16.2627 8.94562 18.9581C9.04139 19.3788 9.79303 19.3901 10.1226 19.3683C10.3241 19.3551 11.3458 19.2474 11.2547 18.8471C10.6424 16.1517 10.4773 13.3744 10.7659 10.6255C10.8267 10.0457 8.5322 10.0173 8.4569 10.7365Z" fill="#39B100"/>
<path d="M9.50046 24.0444C9.75012 24.1884 10.05 24.3053 10.33 24.3713C10.5183 24.4156 11.3089 24.6071 11.2388 24.2154C11.1081 23.4843 10.9766 22.7525 10.8459 22.0213C10.8194 21.8741 10.5136 21.699 10.4152 21.6422C10.1655 21.4982 9.8657 21.3813 9.58566 21.3153C9.39742 21.271 8.60685 21.0795 8.67686 21.4712C8.80764 22.2023 8.93908 22.9341 9.06986 23.6653C9.09628 23.8126 9.40138 23.9876 9.50046 24.0444Z" fill="#39B100"/>
<path d="M22.9661 10.2943C22.4377 10.3101 21.9099 10.3544 21.3816 10.3729C19.2092 10.4475 17.037 10.5202 14.864 10.5856C14.3118 10.6021 13.759 10.5882 13.0483 10.5882C13.1104 11.2005 13.158 11.7176 13.2161 12.2328C13.4294 14.1211 13.9321 15.9367 14.8785 17.5793C15.2755 18.2689 15.8547 19.0317 16.5389 19.3323C17.3744 19.6995 17.6552 20.0244 17.6274 20.9524C17.568 22.9444 17.6968 24.9423 17.7318 26.9376C17.747 27.7804 17.6043 27.9151 16.7602 27.8669C16.144 27.8312 15.5324 27.7216 14.9168 27.6939C14.7695 27.6873 14.5126 27.8524 14.4809 27.9812C14.4082 28.2751 14.6302 28.3867 14.9082 28.3768C14.9373 28.3755 14.9677 28.3695 14.9961 28.3735C16.0093 28.5228 17.0211 28.6786 18.0356 28.8187C18.3202 28.8583 18.6129 28.8787 18.8988 28.8589C20.2938 28.7625 21.6345 28.1311 23.075 28.4442C23.32 28.4977 23.5644 28.3979 23.5796 28.0928C23.5948 27.7778 23.3524 27.7071 23.1034 27.711C22.4284 27.7216 21.7541 27.7513 21.0791 27.7678C20.7713 27.7751 20.4635 27.7691 20.0923 27.7691C20.0474 27.217 19.9793 26.7527 19.9767 26.2877C19.9694 24.8201 19.9767 23.3525 19.9952 21.8856C20.0183 20.1017 20.1022 19.9353 21.4688 18.7022C21.7528 18.4466 22.0453 18.2002 22.328 17.9433C22.4575 17.8257 22.6067 17.7114 22.6899 17.5635C23.8008 15.6025 24.4792 13.5471 24.075 11.2487C23.9502 10.5347 23.684 10.2718 22.9661 10.2943ZM19.2878 27.3867C19.2654 27.746 19.2476 27.7447 18.7833 28.2605C18.6393 27.8398 18.4728 27.5545 18.453 27.2593C18.3361 25.5645 18.2363 23.8677 18.1716 22.1703C18.1511 21.6479 18.2661 21.1215 18.3031 20.5957C18.3374 20.107 18.5851 19.8527 19.161 19.8085C19.2185 20.0172 19.3228 20.2272 19.3268 20.4392C19.3539 22.0805 19.3717 23.7224 19.3717 25.3644C19.3717 26.0387 19.3288 26.7137 19.2878 27.3867ZM23.4389 14.1977C23.0433 15.7914 22.4595 17.2544 21.0044 18.2345C20.2766 18.7253 19.5659 19.1348 18.6617 19.0813C17.0858 18.9875 15.9531 18.1837 15.2689 16.8092C14.8594 15.9869 14.294 15.1858 14.4102 14.0768C17.4148 13.6746 20.3975 13.7413 23.398 13.808C23.4178 13.9718 23.4647 14.0933 23.4389 14.1977ZM23.3881 12.8266C22.7798 12.8814 22.1477 12.9606 21.5123 12.9917C19.3743 13.0947 17.2357 13.1812 15.0965 13.2717C14.8627 13.281 14.6156 13.316 14.3977 13.2565C14.2286 13.2096 13.9994 13.0564 13.9631 12.9098C13.8554 12.4686 13.8297 12.0076 13.7636 11.4904C14.2299 11.4237 14.5714 11.3451 14.9155 11.3306C16.9372 11.2487 18.9596 11.176 20.982 11.1153C21.4503 11.1014 21.9271 11.1007 22.3874 11.1727C23.3088 11.3174 23.5664 11.7434 23.3881 12.8266Z" fill="#251C1C"/>
<path d="M25.0842 26.7702C25.3656 26.6651 25.5466 26.5978 25.7275 26.5304C25.7024 26.4644 25.6767 26.3977 25.6516 26.331C25.4125 26.3006 25.1741 26.2702 25.0842 26.7702Z" fill="#251C1C"/>
<path d="M10.7975 16.395C10.7044 14.6962 10.5294 13.0014 10.359 11.308C10.2989 10.7116 9.92769 10.3087 9.39535 10.0227C8.98387 9.80143 8.59086 9.53327 8.22694 9.24002C8.0605 9.10595 7.88947 8.86422 7.88154 8.66475C7.83068 7.4039 7.80427 6.14175 7.82343 4.88024C7.82739 4.63256 8.01101 4.31752 8.21113 4.15768C8.55854 3.8783 8.64836 3.55267 8.61864 3.1511C8.57637 2.56526 8.53278 1.97943 8.48655 1.39359C8.4423 0.828881 8.15694 0.439189 7.59355 0.341438C6.78579 0.201417 5.97278 0.0706561 5.15644 0.00791097C4.18157 -0.0673832 3.70598 0.395595 3.65579 1.36253C3.63862 1.68616 3.64455 2.01313 3.59567 2.33148C3.47745 3.10225 3.69743 3.7125 4.33677 4.18606C4.50586 4.31155 4.69539 4.55199 4.69539 4.73957C4.69473 5.85181 4.82681 6.96537 4.5613 8.07761C4.41401 8.6945 4.15647 9.11784 3.59374 9.44213C1.74771 10.5042 0.770171 12.1197 0.683649 14.261C0.636094 15.434 0.526489 16.6063 0.536396 17.778C0.554889 20.0097 0.606409 22.2415 0.704159 24.4706C0.801249 26.6733 0.975623 28.872 1.10838 31.0727C1.15527 31.8514 1.50197 32.3428 2.27737 32.5191C2.93388 32.6684 3.61158 32.8104 4.27866 32.8065C5.83408 32.7965 7.38948 32.7041 8.94424 32.6308C9.63113 32.5978 10.0003 32.1083 10.1971 31.5469C10.7354 30.0127 11.0234 28.4156 11.0221 26.7928C11.0208 24.5902 10.9309 22.3881 10.8794 20.1854C10.8563 20.1861 10.8338 20.1861 10.8107 20.1861C10.8107 18.9219 10.8669 17.6551 10.7975 16.395ZM4.18223 2.33609C4.22979 1.02372 4.62872 0.65583 5.98203 0.676965C7.37431 0.645262 8.0427 1.29979 7.95288 2.83606C7.93505 3.14252 7.82343 3.38427 7.5315 3.41994C6.7528 3.51703 5.96221 3.65768 5.18681 3.60815C4.41274 3.55927 4.15383 3.12469 4.18223 2.33609ZM1.27879 14.364C1.69489 14.1758 2.0931 14.2597 2.48344 14.37C3.70929 14.7147 4.95297 14.8726 6.22835 14.8118C7.02489 14.7735 7.11999 14.8627 7.10084 15.6341C7.06187 17.1875 6.98133 18.7396 6.93972 20.2931C6.91792 21.1141 6.93835 21.937 6.9443 22.7586C6.95487 24.3114 6.98132 25.8642 6.97603 27.417C6.97405 28.0788 6.90072 28.1818 6.23629 28.2551C4.84136 28.409 3.47619 28.3753 2.3329 27.3674C2.09579 27.1594 1.80249 27.0148 1.50131 26.8186C1.39497 22.6946 0.680395 18.5593 1.27879 14.364ZM10.2229 28.9856C10.1642 29.7286 9.86889 30.4598 9.62716 31.1791C9.4878 31.5938 9.13112 31.8474 8.68662 31.8765C7.33925 31.9663 5.99058 32.0648 4.64057 32.0918C4.06067 32.1037 3.47416 31.9657 2.89624 31.8626C2.39296 31.7728 2.02311 31.4849 1.93526 30.9578C1.80053 30.1553 1.69946 29.3469 1.55878 28.3648C2.01451 28.4552 2.29192 28.4546 2.51582 28.5642C3.55871 29.0748 4.6756 29.0748 5.79247 29.0906C6.26272 29.0972 6.73426 29.1144 7.2032 29.0926C7.79234 29.0662 7.9826 28.8344 7.93901 28.2479C7.81682 26.5802 7.62657 24.9138 7.58562 23.2434C7.54004 21.3961 7.616 19.5448 7.66818 17.6954C7.69658 16.6981 7.79764 15.7028 7.84387 14.7055C7.8769 13.9849 7.65034 13.7306 6.96674 13.903C5.35056 14.3098 3.81501 13.9235 2.27214 13.5536C1.5978 13.3918 1.4789 13.1131 1.71403 12.4579C2.1724 11.1845 3.13009 10.3615 4.29253 9.81201C5.05736 9.45073 5.30301 8.92896 5.31556 8.15356C5.33405 6.98254 5.40077 5.81217 5.44965 4.56122C5.84792 4.50178 6.23693 4.44367 6.727 4.37102C6.79569 4.90336 6.87362 5.35844 6.90863 5.81681C6.97204 6.66618 7.0612 7.51883 7.04601 8.36886C7.03016 9.29815 7.51367 9.83842 8.25803 10.2413C8.439 10.3391 8.63049 10.4183 8.80485 10.5266C9.27181 10.8179 9.56048 11.2195 9.71107 11.7683C10.1516 13.374 10.1938 15.0172 10.2381 16.6611C10.3035 19.097 10.39 21.5321 10.4006 23.9686C10.4085 25.641 10.3557 27.3186 10.2229 28.9856Z" fill="#251C1C"/>
</svg>
