<svg width="31" height="30" viewBox="0 0 31 30" fill="none" xmlns="http://www.w3.org/2000/svg">
    <rect x="0.509766" width="29.9796" height="29.9796" rx="5" fill="#0062BC"/>
    <path d="M24.3387 8.46053L21.5476 8.45605C18.4118 8.45605 16.3854 10.5351 16.3854 13.7531V16.1954H13.579C13.3365 16.1954 13.1401 16.392 13.1401 16.6345V20.1731C13.1401 20.4156 13.3367 20.612 13.579 20.612H16.3854V29.541C16.3854 29.7835 16.5817 29.9799 16.8242 29.9799H20.4857C20.7282 29.9799 20.9246 29.7833 20.9246 29.541V20.612H24.2059C24.4484 20.612 24.6448 20.4156 24.6448 20.1731L24.6461 16.6345C24.6461 16.5181 24.5998 16.4065 24.5176 16.3241C24.4354 16.2417 24.3235 16.1954 24.207 16.1954H20.9246V14.125C20.9246 13.1299 21.1617 12.6248 22.458 12.6248L24.3382 12.6241C24.5805 12.6241 24.7769 12.4275 24.7769 12.1852V8.89942C24.7769 8.65736 24.5807 8.46098 24.3387 8.46053Z" fill="white"/>
</svg>
