<svg width="30" height="30" viewBox="0 0 30 30" fill="none" xmlns="http://www.w3.org/2000/svg">
    <rect width="29.9796" height="29.9796" rx="5" fill="#EF4036"/>
    <path d="M15.6802 16.4598H19.161C18.55 18.1868 16.8952 19.4251 14.9579 19.4108C12.6073 19.3935 10.6636 17.5134 10.5724 15.1649C10.4746 12.6474 12.4946 10.5682 14.9911 10.5682C16.1327 10.5682 17.1744 11.0031 17.9597 11.7156C18.1457 11.8845 18.4289 11.8855 18.6118 11.7134L19.8903 10.5103C20.0902 10.3222 20.0909 10.0044 19.8916 9.8156C18.6461 8.63591 16.9754 7.90059 15.133 7.86462C11.2034 7.78792 7.89107 11.0092 7.8637 14.9388C7.83609 18.8978 11.0378 22.1159 14.9911 22.1159C18.7931 22.1159 21.8989 19.1396 22.1069 15.3904C22.1125 15.3434 22.1161 13.7548 22.1161 13.7548H15.6802C15.4164 13.7548 15.2026 13.9686 15.2026 14.2323V15.9822C15.2026 16.246 15.4165 16.4598 15.6802 16.4598Z" fill="white"/>
</svg>
