<svg width="20" height="14" viewBox="0 0 20 14" fill="none" xmlns="http://www.w3.org/2000/svg">
    <path fill-rule="evenodd" clip-rule="evenodd" d="M14.9059 1.67988C13.4661 0.928959 11.7832 0.5 10 0.5C4.82838 0.5 0.5 4.10813 0.5 8.71429C0.5 8.99043 0.723858 9.21429 1 9.21429C1.27614 9.21429 1.5 8.99043 1.5 8.71429C1.5 4.79948 5.23049 1.5 10 1.5C11.5231 1.5 12.9402 1.83648 14.1638 2.42202L14.9059 1.67988ZM16.6053 2.80888L15.8954 3.51885C17.5089 4.84216 18.5 6.69649 18.5 8.71429C18.5 8.99043 18.7239 9.21429 19 9.21429C19.2761 9.21429 19.5 8.99043 19.5 8.71429C19.5 6.37411 18.3828 4.29155 16.6053 2.80888ZM11.0942 5.49157C10.7552 5.35871 10.3861 5.28577 10 5.28577C8.34315 5.28577 7 6.62891 7 8.28577C7 8.67188 7.07295 9.04097 7.20581 9.37998L8.01952 8.56627C8.00665 8.47462 8 8.38097 8 8.28577C8 7.1812 8.89543 6.28577 10 6.28577C10.0952 6.28577 10.1888 6.29242 10.2805 6.30528L11.0942 5.49157ZM11.8614 7.55279L12.6095 6.8047C12.858 7.24165 13 7.74713 13 8.28577C13 9.94262 11.6569 11.2858 10 11.2858C9.46137 11.2858 8.95589 11.1438 8.51893 10.8953L9.26703 10.1472C9.49399 10.2366 9.74126 10.2858 10 10.2858C11.1046 10.2858 12 9.39034 12 8.28577C12 8.02703 11.9509 7.77976 11.8614 7.55279Z" fill="#4B4B4B"/>
    <path d="M17 1L5 13" stroke="#4B4B4B" stroke-linecap="round" stroke-linejoin="round"/>
</svg>
