<svg width="36" height="23" viewBox="0 0 36 23" fill="none" xmlns="http://www.w3.org/2000/svg">
<path d="M26.456 21.0852C26.9625 21.1124 27.6396 20.8109 27.8485 20.3974C28.0777 19.9439 28.2062 19.5214 28.0679 19.0277C27.965 18.6614 27.6997 18.2978 27.3683 18.0525C27.3676 18.0519 27.3668 18.0519 27.3661 18.0512C27.3646 18.0428 27.3631 18.0351 27.3616 18.0267C27.2443 17.3505 26.8723 17.1557 26.0637 17.2826C25.9232 17.3046 25.7812 17.3285 25.6392 17.3486C25.4626 17.3182 25.2829 17.2955 25.0996 17.2806C23.565 17.1571 22.0154 17.0891 20.4749 17.049C18.9509 17.0089 17.4224 17.0218 15.9021 17.1415C14.6742 17.2379 13.4523 17.4159 12.2161 17.4185C11.9027 17.4191 11.5893 17.4068 11.2767 17.3861C11.2189 17.3822 11.161 17.377 11.1031 17.3725C10.9528 17.3434 10.8002 17.3214 10.6499 17.2923C10.3659 17.2373 10.0976 17.1596 9.82255 17.082C9.8233 17.0781 9.66851 17.0302 9.63394 17.016C9.47538 16.95 9.31455 16.8885 9.15824 16.8186C8.04003 16.3237 6.85271 17.3208 7.44714 18.292C7.4802 18.3457 7.51397 18.3974 7.54929 18.4479C7.10141 18.5372 6.65879 18.6556 6.22443 18.818C6.0576 18.7902 5.88175 18.7546 5.68261 18.7099C4.82441 18.5171 4.0729 19.4929 4.78156 20.0422C5.07764 20.2719 5.39476 20.457 5.72767 20.6071C5.73443 20.6782 5.7405 20.7488 5.74726 20.8199C6.05537 20.8426 6.26504 20.8743 6.46118 20.8762C8.39776 21.4411 10.7191 21.0814 12.697 20.996C15.6263 20.8691 18.5661 20.8258 21.4984 20.8905C23.1525 20.928 24.805 20.9966 26.456 21.0852Z" fill="#39B100"/>
<path d="M35.0011 13.5545C34.307 13.0055 34.0899 12.311 34.0732 11.4639C34.0455 10.0035 33.961 8.5424 33.8379 7.08625C33.6886 5.32982 33.4671 3.57903 33.2931 1.82472C33.2224 1.11254 33.0134 0.911199 32.2923 0.940167C31.6666 0.965602 31.041 0.988906 30.4153 0.999504C28.2877 1.03554 26.1594 1.07864 24.0311 1.09136C23.2168 1.0963 22.4017 0.980425 21.5881 0.997382C18.2624 1.06592 14.9374 1.16907 11.6124 1.24962C9.51249 1.29978 7.41042 1.3994 5.31198 1.35277C3.68844 1.31673 2.05255 1.64245 0.437022 1.2362C0.30373 1.20299 0.142032 1.27717 0 1.29978C0.0152958 1.98228 0.0232936 2.04871 0.604533 2.08757C1.37733 2.13844 2.1567 2.09957 2.89236 2.09957C3.63019 3.52393 3.6295 3.52392 3.71327 4.84583C3.72492 5.02741 3.75328 5.2083 3.77003 5.38987C3.93901 7.23744 4.1109 9.08501 4.27405 10.9333C4.36292 11.9323 4.38841 12.9391 4.52898 13.9311C4.87059 16.3559 4.82693 18.7899 4.77303 21.2232C4.75336 22.1261 4.88516 22.3437 5.80363 22.3091C7.18317 22.2575 8.5613 22.1656 9.94083 22.0929C12.6329 21.9516 15.3249 21.7912 18.0191 21.6803C19.1772 21.6329 20.3398 21.6951 21.5008 21.6965C23.3203 21.6986 25.139 21.6831 26.9585 21.693C27.7801 21.6972 27.9578 21.5319 27.8784 20.7434C27.6839 18.8047 27.4567 16.8681 27.3066 14.9266C27.0808 12.0157 27.209 9.08572 26.7793 6.1826C26.5928 4.92286 26.5338 3.64474 26.4369 2.37299C26.4224 2.1794 26.5177 1.97804 26.5716 1.73711C28.5222 1.70603 30.4175 1.70038 32.3688 1.86571C32.497 2.61039 32.6528 3.26393 32.714 3.92524C32.9391 6.37901 33.127 8.83559 33.3448 11.2901C33.387 11.7599 33.4104 12.1732 32.9785 12.5251C32.8189 12.6551 32.7861 12.9624 32.7475 13.197C32.6171 13.9798 32.4861 14.7577 32.0199 15.4395C31.9187 15.5872 31.8261 15.7723 31.821 15.9426C31.8167 16.0973 31.915 16.37 32.0075 16.387C32.1758 16.4173 32.4693 16.3509 32.5414 16.2301C32.7731 15.8401 32.9376 15.4112 33.1088 14.9902C33.2253 14.7033 33.3091 14.4051 33.4082 14.1119C33.4766 14.1225 33.5451 14.1338 33.6136 14.1444C33.6332 14.5556 33.6849 14.9683 33.666 15.3781C33.6412 15.8988 33.8627 16.1581 34.5299 16.2322C34.5801 15.7045 34.6267 15.2226 34.6792 14.6715C35.0164 14.9012 35.3151 15.1039 35.6618 15.3392C36.0522 15.0255 36.1009 14.7344 35.8271 14.4214C35.5656 14.1211 35.3129 13.8011 35.0011 13.5545ZM26.8361 18.308C26.9104 18.7877 26.9737 19.2753 26.9708 19.7585C26.965 20.7547 26.8441 20.8663 25.8317 20.872C23.8869 20.8833 21.9414 20.8423 19.9981 20.8882C17.805 20.9398 15.6141 21.0656 13.4224 21.1553C11.1681 21.2472 8.91379 21.3355 6.65876 21.4189C6.44461 21.4273 6.2283 21.3863 5.88742 21.3581C5.83571 20.7243 5.78471 20.1033 5.733 19.4695C7.00983 18.763 8.37772 18.5906 9.74195 18.4818C12.4573 18.2635 15.177 18.0861 17.8968 17.9258C20.1154 17.7951 22.3245 17.4602 24.5592 17.6071C24.8949 17.629 25.2417 17.5556 25.5782 17.4955C26.3619 17.357 26.7225 17.5697 26.8361 18.308ZM26.6343 15.4826C26.6532 15.7801 26.6365 16.0803 26.6365 16.4993C19.6223 17.0589 12.6773 17.6135 5.717 18.1688C5.25739 12.7491 4.8116 7.48542 4.35856 2.13065C5.14083 2.0706 5.97044 1.96603 6.80151 1.95049C9.99833 1.89114 13.1959 1.86783 16.3927 1.81625C17.7387 1.79506 19.0833 1.7251 20.4286 1.70037C21.2742 1.68412 22.1206 1.70885 22.9662 1.71874C23.5292 1.7251 24.0923 1.75549 24.6539 1.74065C25.2745 1.72511 25.4864 1.82967 25.5673 2.39207C25.7057 3.35506 25.8032 4.32371 25.9089 5.29095C25.9744 5.89432 26.0356 6.49912 26.0772 7.10462C26.268 9.89681 26.4529 12.6897 26.6343 15.4826Z" fill="black"/>
<path d="M7.29603 2.62779C6.76957 2.76183 6.67928 3.03718 6.794 3.72413C7.03196 5.14537 7.12506 6.571 6.93992 8.0192C6.90925 8.2596 7.00751 8.52766 7.04613 8.78262C7.13131 8.79282 7.21595 8.80303 7.30113 8.8125C7.37326 8.60926 7.48173 8.41403 7.51183 8.20059C7.79238 6.21842 8.41934 4.5036 9.76075 3.33368C10.1146 3.02481 10.2009 2.64163 10.0618 2.0625C9.11735 2.25117 8.20072 2.3976 7.29603 2.62779ZM7.31078 5.87749C7.31078 5.19491 7.31193 4.642 7.31023 4.08982C7.30909 3.64108 7.49306 3.38686 7.82529 3.31765C8.10471 3.25865 8.38811 3.23316 8.78054 3.17706C8.27169 4.11242 7.82645 4.92975 7.31078 5.87749Z" fill="black"/>
</svg>
