<svg width="14" height="18" viewBox="0 0 14 18" fill="none" xmlns="http://www.w3.org/2000/svg">
<path d="M3.3999 8.15962V5.77308V4.6C3.3999 2.61177 5.01168 1 6.9999 1V1C8.98813 1 10.5999 2.61177 10.5999 4.6V5.77308V8.15962" stroke="#4B4B4B" stroke-width="2" stroke-linecap="round" stroke-linejoin="round"/>
<path d="M10.6 8.15918L12.7597 11.0226C12.9156 11.2294 13 11.4813 13 11.7403V11.7403C13 12.3986 12.4664 12.9323 11.8081 12.9323H2.19193C1.53364 12.9323 1 12.3986 1 11.7403V11.7403C1 11.4813 1.08436 11.2294 1.24032 11.0226L3.4 8.15918" stroke="#4B4B4B" stroke-width="2" stroke-linecap="round" stroke-linejoin="round"/>
<path d="M5.08115 15C5.0367 15 5 15.0351 5 15.0796C5 16.1779 5.89543 17.0683 7 17.0683C8.10457 17.0683 9 16.1779 9 15.0796C9 15.0351 8.9633 15 8.91885 15H5.08115Z" fill="#4B4B4B"/>
</svg>
