<svg width="23" height="18" viewBox="0 0 23 18" fill="none" xmlns="http://www.w3.org/2000/svg">
<path d="M9 3.21936C9 2.94321 8.77614 2.71936 8.5 2.71936H3C1.34315 2.71936 0 4.0625 0 5.71936V15.0001C0 16.6569 1.34315 18.0001 3 18.0001H19.3333C20.9902 18.0001 22.3333 16.6569 22.3333 15.0001V5.71936C22.3333 4.0625 20.9902 2.71936 19.3333 2.71936H18.5C18.2239 2.71936 18 2.94321 18 3.21936C18 3.4955 18.2239 3.71936 18.5 3.71936H19.3333C20.4379 3.71936 21.3333 4.61479 21.3333 5.71936V15.0001C21.3333 16.1046 20.4379 17.0001 19.3333 17.0001H3C1.89543 17.0001 1 16.1046 1 15.0001V5.71936C1 4.61479 1.89543 3.71936 3 3.71936H8.5C8.77614 3.71936 9 3.4955 9 3.21936Z" fill="white"/>
<path d="M9.99994 1H16.9999C17.5522 1 17.9999 1.44772 17.9999 2V3C17.9999 3.27614 18.2238 3.5 18.4999 3.5C18.7761 3.5 18.9999 3.27614 18.9999 3V2C18.9999 0.895431 18.1045 0 16.9999 0H9.99994C8.89537 0 7.99994 0.895431 7.99994 2V3C7.99994 3.27614 8.2238 3.5 8.49994 3.5C8.77608 3.5 8.99994 3.27614 8.99994 3V2C8.99994 1.44772 9.44766 1 9.99994 1Z" fill="white"/>
<circle cx="13.5174" cy="10.3596" r="3.61404" stroke="white"/>
<circle cx="11.7543" cy="8.59658" r="0.675439" fill="white" stroke="white"/>
</svg>
