<svg width="30" height="30" viewBox="0 0 30 30" fill="none" xmlns="http://www.w3.org/2000/svg">
    <rect x="0.0205078" width="29.9796" height="29.9796" rx="5" fill="#0079D0"/>
    <path d="M22.3538 14.7607C22.638 14.3933 22.8637 14.0985 23.0303 13.8761C24.2304 12.2805 24.7506 11.2612 24.5912 10.8168L24.5286 10.7128C24.487 10.6503 24.3793 10.5929 24.206 10.5409C24.0325 10.489 23.8106 10.4807 23.5401 10.515L20.5432 10.5361C20.4739 10.5292 20.4044 10.5308 20.3351 10.5409C20.2657 10.5514 20.2207 10.562 20.1997 10.5721C20.1788 10.5827 20.1616 10.5912 20.1478 10.5981L20.1062 10.6293C20.0715 10.65 20.0334 10.6866 19.9918 10.7388C19.9502 10.7909 19.9153 10.8514 19.8877 10.921C19.5617 11.7603 19.1906 12.5409 18.7743 13.2624C18.5176 13.6925 18.2816 14.0657 18.0668 14.3809C17.8517 14.6968 17.6713 14.9291 17.5256 15.078C17.38 15.2271 17.2481 15.3471 17.1303 15.4369C17.0121 15.5275 16.9221 15.5654 16.8598 15.5516C16.7973 15.5378 16.7383 15.524 16.6829 15.5098C16.5857 15.4475 16.5075 15.3627 16.4487 15.255C16.3897 15.1477 16.35 15.0123 16.329 14.8492C16.3083 14.6863 16.2959 14.5457 16.2927 14.4276C16.289 14.3097 16.2909 14.1433 16.298 13.928C16.3049 13.7129 16.3083 13.5675 16.3083 13.491C16.3083 13.2277 16.3136 12.9414 16.324 12.6326C16.3343 12.324 16.3431 12.0793 16.35 11.8989C16.3569 11.7187 16.3603 11.5278 16.3603 11.3265C16.3603 11.1257 16.3481 10.9676 16.3237 10.853C16.2994 10.7388 16.2628 10.6278 16.2146 10.52C16.1659 10.4127 16.0948 10.3293 16.0011 10.2705C15.9074 10.2114 15.7913 10.1648 15.6526 10.1299C15.2847 10.0464 14.8164 10.0019 14.2477 9.99454C12.9573 9.98122 12.1283 10.0644 11.7607 10.2445C11.615 10.321 11.4831 10.4249 11.3652 10.5568C11.2403 10.7096 11.223 10.793 11.3133 10.8063C11.7296 10.8688 12.0243 11.0182 12.1977 11.2539L12.2602 11.3787C12.3087 11.4692 12.3572 11.6287 12.4059 11.8575C12.4544 12.0864 12.4856 12.3396 12.4997 12.6171C12.5343 13.1236 12.5343 13.5569 12.4997 13.9179C12.465 14.2789 12.4321 14.5597 12.4009 14.7605C12.3696 14.9618 12.3227 15.1247 12.2605 15.2494C12.1979 15.3747 12.1564 15.4509 12.1355 15.4787C12.1146 15.5063 12.0973 15.5237 12.0835 15.5307C11.9932 15.5652 11.8997 15.5826 11.8026 15.5826C11.7054 15.5826 11.5875 15.5339 11.4487 15.4367C11.3099 15.34 11.1658 15.2062 11.0169 15.0362C10.8676 14.8664 10.6996 14.6286 10.5121 14.3232C10.3248 14.0183 10.1304 13.6573 9.92938 13.2412L9.76302 12.9393C9.65895 12.7454 9.51669 12.4625 9.33633 12.0914C9.15596 11.7203 8.99625 11.3614 8.85771 11.0143C8.80211 10.8688 8.71891 10.7578 8.60796 10.6813L8.55604 10.6501C8.52135 10.6225 8.46574 10.5929 8.38945 10.5618C8.31294 10.5306 8.23345 10.508 8.15003 10.494L5.29878 10.5147C5.00743 10.5147 4.80984 10.5809 4.70576 10.7128L4.66416 10.7751C4.64314 10.81 4.63281 10.8656 4.63281 10.9416C4.63281 11.0182 4.65372 11.1117 4.69532 11.2224C5.11166 12.2008 5.56433 13.1443 6.05328 14.0528C6.54248 14.9618 6.96734 15.6938 7.32807 16.2487C7.6888 16.8041 8.05643 17.3275 8.4312 17.8201C8.80597 18.3127 9.05388 18.6282 9.17519 18.7668C9.29649 18.9058 9.39186 19.0099 9.46128 19.079L9.72139 19.329C9.88775 19.4954 10.1325 19.6948 10.4551 19.9274C10.7777 20.1599 11.1348 20.3887 11.527 20.6139C11.9188 20.8396 12.3751 21.0231 12.8953 21.1656C13.4155 21.3081 13.9219 21.3652 14.4145 21.3372H15.6112C15.8541 21.3165 16.0378 21.2405 16.1627 21.1084L16.2042 21.0564C16.2318 21.0151 16.258 20.9507 16.2823 20.8641C16.3065 20.7775 16.3189 20.6819 16.3189 20.578C16.3117 20.2798 16.3345 20.0105 16.3865 19.7715C16.4384 19.5321 16.4974 19.352 16.5634 19.2302C16.6293 19.1091 16.7037 19.0066 16.7871 18.9232C16.8704 18.8398 16.9292 18.7899 16.9641 18.7725C16.9988 18.7555 17.0266 18.7433 17.0473 18.7359C17.2136 18.6805 17.4096 18.7343 17.6353 18.8972C17.8607 19.0606 18.0723 19.2614 18.2701 19.5008C18.4677 19.7403 18.7053 20.0089 18.9829 20.3073C19.2602 20.6056 19.5031 20.8275 19.7113 20.9732L19.9194 21.0984C20.0582 21.1814 20.2383 21.2577 20.4605 21.3273C20.6825 21.3965 20.8769 21.4139 21.0432 21.3792L23.7072 21.3374C23.9708 21.3374 24.1755 21.2942 24.3212 21.2074C24.4669 21.1212 24.5535 21.0252 24.5813 20.9213C24.6089 20.8172 24.6107 20.6998 24.5866 20.5677C24.5623 20.436 24.5379 20.3441 24.5138 20.2922C24.4895 20.2402 24.4669 20.1966 24.446 20.1621C24.0991 19.5378 23.4366 18.7711 22.4584 17.8623L22.4375 17.8416L22.4272 17.8311L22.4169 17.8209H22.4064C21.9623 17.3977 21.6815 17.1132 21.5636 16.9673C21.3486 16.6903 21.2998 16.4092 21.418 16.1248C21.5007 15.9091 21.8127 15.4546 22.3538 14.7607Z" fill="white"/>
</svg>
