<svg width="13" height="8" viewBox="0 0 13 8" fill="none" xmlns="http://www.w3.org/2000/svg">
<path d="M10.6676 4.56543C10.4654 4.31005 10.5233 4.19643 10.6676 3.96815C10.6702 3.96555 12.3397 1.65878 12.5117 0.876475L12.5127 0.875954C12.5982 0.590865 12.5127 0.381348 12.0994 0.381348H10.7317C10.3836 0.381348 10.223 0.561157 10.137 0.762335C10.137 0.762335 9.44071 2.42909 8.45564 3.50951C8.1377 3.8217 7.99072 3.92177 7.81716 3.92177C7.73168 3.92177 7.59878 3.8217 7.59878 3.53661V0.875954C7.59878 0.534055 7.50131 0.381348 7.21309 0.381348H5.0626C4.84421 0.381348 4.71443 0.540831 4.71443 0.689369C4.71443 1.01355 5.20697 1.08808 5.25805 2.00015V3.9791C5.25805 4.41272 5.17935 4.49247 5.00474 4.49247C4.53983 4.49247 3.41142 2.81894 2.74271 0.903576C2.60772 0.53197 2.47586 0.381869 2.12509 0.381869H0.756926C0.366544 0.381869 0.287842 0.561678 0.287842 0.762856C0.287842 1.11831 0.752756 2.88565 2.4498 5.22056C3.58081 6.81435 5.17361 7.67796 6.62256 7.67796C7.49349 7.67796 7.59982 7.48616 7.59982 7.15625C7.59982 5.63334 7.52112 5.4895 7.95737 5.4895C8.15959 5.4895 8.50776 5.58956 9.32084 6.35831C10.2501 7.26987 10.4029 7.67796 10.923 7.67796H12.2907C12.6805 7.67796 12.8781 7.48616 12.7644 7.10778C12.5044 6.31193 10.7469 4.67488 10.6676 4.56543Z" fill="#4B4B4B"/>
</svg>
