<svg width="26" height="21" viewBox="0 0 26 21" fill="none" xmlns="http://www.w3.org/2000/svg">
    <path d="M8.02544 9.1901C8.06356 9.18743 8.10207 9.17875 8.1396 9.18269C8.34354 9.20407 8.46956 9.13882 8.51136 8.86669C8.56607 8.50953 8.66398 8.16249 8.77148 7.68501C8.81343 7.88344 8.83351 7.95243 8.84189 8.02309C8.9518 8.94428 9.06548 9.86534 9.16544 10.788C9.20022 11.1109 9.31353 11.2505 9.59373 11.1589C9.66586 11.1353 9.74518 11.1406 9.82142 11.1353C10.2827 11.1035 10.3797 10.9884 10.3287 10.4515C10.1702 8.78212 10.0032 7.11343 9.83349 5.44505C9.82263 5.33722 9.78806 5.192 9.72178 5.13821C9.40648 4.88369 8.54108 5.22077 8.3971 5.63444C8.09498 6.50177 7.79156 7.36866 7.48627 8.23458C7.21584 9.00279 7.34456 9.23273 8.02544 9.1901ZM7.98467 7.63625C8.21058 7.00285 8.42101 6.35372 8.7185 5.76903C8.81798 5.57311 9.15866 5.5253 9.3999 5.47811C9.44447 5.46934 9.58774 5.7811 9.60545 5.95442C9.75923 7.45938 9.89478 8.9665 10.0341 10.4729C10.0422 10.5608 10.0347 10.6502 10.0344 10.7344C9.54401 10.9311 9.45855 10.8623 9.37959 10.2862C9.29463 9.66795 9.16585 9.05606 9.0986 8.43577C9.04561 7.947 9.0685 7.44937 9.03236 6.95744C9.02216 6.821 8.92149 6.69154 8.86241 6.55873C8.82 6.57141 8.77758 6.5841 8.73514 6.59649C8.61454 7.17717 8.48509 7.75529 8.37539 8.33886C8.26861 8.90633 8.25055 8.93014 7.62565 8.82385C7.74901 8.4111 7.84952 8.0147 7.98467 7.63625Z" fill="black" />
    <path d="M11.753 8.54057C11.7897 8.53777 11.8269 8.52992 11.863 8.53268C12.0591 8.54762 12.1812 8.49104 12.2249 8.26217C12.2821 7.96176 12.3808 7.66923 12.4903 7.26713C12.5282 7.43297 12.5467 7.49054 12.5538 7.54969C12.648 8.3208 12.7459 9.09173 12.8304 9.86421C12.8599 10.1346 12.9672 10.25 13.2381 10.1691C13.3079 10.1482 13.3842 10.1515 13.4577 10.1459C13.9022 10.1124 13.997 10.0145 13.9547 9.56492C13.8232 8.16692 13.6835 6.76964 13.5412 5.37265C13.5321 5.28236 13.5006 5.16105 13.4375 5.1169C13.1371 4.90803 12.2996 5.20346 12.1558 5.55256C11.8539 6.28453 11.5508 7.01613 11.2459 7.74696C10.9758 8.39531 11.0969 8.58631 11.753 8.54057ZM11.7334 7.23776C11.9589 6.70314 12.1697 6.15556 12.4635 5.66075C12.5618 5.49495 12.8904 5.44985 13.1233 5.40673C13.1663 5.39872 13.3003 5.65813 13.3152 5.80326C13.4442 7.0634 13.5557 8.32561 13.6708 9.58713C13.6775 9.66078 13.6692 9.73592 13.6678 9.80653C13.1931 9.97869 13.1117 9.92222 13.043 9.44012C12.969 8.9228 12.8527 8.41142 12.7958 7.8921C12.751 7.48288 12.7793 7.06512 12.7507 6.65301C12.7426 6.53871 12.6473 6.4316 12.5921 6.32105C12.5511 6.33231 12.5101 6.34358 12.4691 6.35459C12.3456 6.84345 12.2137 7.33028 12.1007 7.8214C11.9907 8.29897 11.973 8.31921 11.3727 8.23921C11.4967 7.89118 11.5984 7.55719 11.7334 7.23776Z" fill="black" />
    <path d="M24.1528 6.88675C24.2155 7.05187 24.1993 7.26694 24.1029 7.54445C23.7455 8.56986 23.4124 9.62857 23.0909 10.6512C22.9366 11.1452 22.7752 11.6558 22.6151 12.1539C22.5837 12.2497 22.5338 12.3385 22.4851 12.4231C22.463 12.462 22.4398 12.5022 22.4189 12.5424C22.4155 12.548 22.4108 12.5494 22.4062 12.5494C22.4038 12.5494 22.4038 12.5494 22.4015 12.5494L22.2878 12.5078C22.2808 12.505 22.2773 12.498 22.2773 12.4883L23.0538 6.31507C23.0538 6.30952 23.0561 6.30536 23.0596 6.30258C23.0631 6.29981 23.0665 6.2998 23.0712 6.2998C23.1455 6.32201 23.2163 6.34282 23.2836 6.36225C23.4228 6.4011 23.5552 6.43856 23.6817 6.4899C23.9451 6.59674 24.089 6.71885 24.1528 6.88675ZM24.0751 7.53196C24.1691 7.26416 24.1853 7.05742 24.1273 6.90201C24.0681 6.74383 23.9277 6.62727 23.6747 6.52459C23.5493 6.47325 23.4182 6.43717 23.2789 6.39694C23.2163 6.3789 23.1501 6.36086 23.0816 6.34005L22.3098 12.48L22.4015 12.5133C22.4213 12.4758 22.4421 12.4398 22.4619 12.4037C22.5095 12.3204 22.5582 12.2344 22.5884 12.1414C22.7497 11.6419 22.9099 11.1313 23.0642 10.6387C23.3845 9.61608 23.7176 8.55737 24.0751 7.53196Z" fill="black" />
    <path d="M21.8161 4.22713C21.8626 4.37005 21.8324 4.56154 21.8011 4.71278C21.5063 6.11005 21.2091 7.48097 20.9318 8.75336C20.9097 8.85326 20.8645 8.97259 20.695 9.09192C20.6927 9.09331 20.6892 9.0947 20.688 9.0947C20.6857 9.0947 20.6834 9.0947 20.6811 9.09192C20.6764 9.08915 20.6741 9.0836 20.6741 9.07805L20.471 3.82752C20.4699 3.82197 20.4722 3.81781 20.4745 3.81503C20.4768 3.81226 20.4803 3.80948 20.4849 3.80948C20.6045 3.80948 20.7171 3.8067 20.825 3.80393C21.0815 3.79699 21.3032 3.79144 21.5214 3.82752C21.6421 3.84833 21.7662 4.07311 21.8161 4.22713ZM21.7732 4.70446C21.801 4.56986 21.8335 4.37561 21.7894 4.23963C21.7349 4.07173 21.6142 3.87886 21.5167 3.8622C21.3008 3.82474 21.0803 3.83029 20.8262 3.83862C20.7217 3.84139 20.6149 3.84417 20.5 3.84417L20.702 9.04753C20.8447 8.94069 20.8842 8.83939 20.9051 8.74503C21.1813 7.47125 21.4784 6.10173 21.7732 4.70446Z" fill="black" />
    <path d="M4.68433 5.94636C4.62862 5.44962 4.5822 4.9501 4.54158 4.45058C4.5056 4.01488 4.52998 3.50842 4.43133 3.08105C4.1818 3.11019 3.9311 3.14071 3.68274 3.16846L3.65025 3.17263C3.18021 3.22674 2.69508 3.28364 2.21807 3.28641C2.06372 3.2878 1.97203 3.31971 1.91865 3.3877C1.8641 3.45708 1.84669 3.57363 1.85946 3.77622C1.93722 5.04028 2.0115 6.32656 2.08229 7.5712C2.1705 9.10307 2.26103 10.6849 2.35968 12.2417C2.38173 12.5886 2.44555 12.9383 2.50822 13.2769C2.53608 13.2921 2.56509 13.3074 2.59527 13.3199C3.00263 13.4892 3.52374 13.263 3.93227 13.1617C4.40579 13.0437 4.87699 12.9119 5.34587 12.769C5.63138 12.6816 5.80778 12.2986 5.72886 11.9628C5.26694 9.98972 4.91064 7.97914 4.68433 5.94636Z" fill="#E5332A" />
    <path d="M1.78629 6.68421C1.7329 5.72124 1.67835 4.72636 1.62264 3.74674C1.59827 3.3055 1.67603 3.05851 2.15883 3.01689C2.88072 2.95445 3.61074 2.87674 4.33147 2.79487C4.14926 2.45353 3.81037 2.36057 3.46219 2.36334C3.00492 2.36612 2.54764 2.37167 2.09036 2.37583C1.76308 2.37861 1.48222 2.75463 1.54838 3.14454C1.51472 3.22641 1.49498 3.32354 1.49614 3.43593C1.50195 5.72402 1.60988 8.01072 1.82691 10.2835C1.88029 10.8413 1.94065 11.3991 2.00564 11.9556C2.03814 12.2303 2.06135 12.5314 2.14607 12.7853C2.13562 12.6951 2.1275 12.6049 2.1217 12.5147C1.99868 10.5722 1.89074 8.59488 1.78629 6.68421Z" fill="#E5332A" />
    <path d="M25.4907 5.32752C24.9696 5.05001 24.4335 4.8169 23.8659 4.56853C23.6791 4.48667 23.4887 4.40341 23.2938 4.31738L23.1313 6.00327C23.2357 6.04906 23.3309 6.09069 23.4203 6.12954C23.6048 6.2114 23.7638 6.28078 23.9251 6.34045C24.1746 6.4348 24.3313 6.56801 24.4056 6.75255C24.4799 6.9371 24.4683 7.1716 24.3731 7.46715C24.1944 8.01801 24.0261 8.58691 23.8636 9.13638C23.5444 10.2173 23.216 11.3343 22.7843 12.3694C22.0229 14.2038 21.7908 16.1644 21.6527 18.0126C21.6202 18.4455 21.4647 18.5316 21.1687 18.5482C20.2959 18.5968 19.4104 18.6675 18.5527 18.7355L18.1895 18.7647C17.998 18.7799 17.803 18.8021 17.6138 18.8243C17.3388 18.8549 17.0556 18.8882 16.7747 18.8993C16.0435 18.9298 15.2996 18.9548 14.58 18.9784C13.4566 19.0158 12.2937 19.0547 11.1505 19.1157C9.9226 19.1823 8.67612 19.2809 7.47026 19.3752C6.96889 19.4141 6.45011 19.4543 5.93945 19.4931C6.44779 19.6527 6.92247 19.7512 7.38903 19.7929C7.7256 19.8234 8.061 19.8539 8.39757 19.883C10.0537 20.0315 11.7668 20.1855 13.4531 20.2841C15.0292 20.377 16.6343 20.445 18.186 20.5116C19.2561 20.5574 20.3621 20.6046 21.4507 20.6587C21.7745 20.6754 21.9034 20.5532 21.9811 20.1606C22.1134 19.4959 22.2794 18.7966 22.5185 17.8919C22.8794 16.5293 23.2497 15.1473 23.6071 13.8097C24.0017 12.3347 24.4102 10.8098 24.8072 9.30706C25.1298 8.08739 25.3933 7.00648 25.6149 6.00327C25.6602 5.80208 25.5964 5.38441 25.4907 5.32752Z" fill="#39B100" />
    <path d="M25.7023 5.1027C25.4771 5.00696 25.252 4.89457 25.0338 4.78773C24.6554 4.60041 24.2643 4.40754 23.8639 4.28959C23.6225 4.21744 23.4763 4.11615 23.402 3.96907C23.3289 3.82337 23.3242 3.62496 23.3869 3.32386C23.4577 2.9839 23.5134 2.64811 23.5772 2.2582C23.6063 2.07782 23.6376 1.8905 23.6724 1.68931C23.6736 1.68375 23.6724 1.67821 23.6689 1.67404C23.6666 1.67127 23.662 1.66849 23.6573 1.66849C23.2476 1.72815 22.8461 1.72261 22.4573 1.71845C21.7922 1.71151 21.1644 1.70318 20.5435 2.00151C20.5365 2.00428 20.533 2.01261 20.5342 2.02093C20.5365 2.02926 20.5411 2.03481 20.5493 2.03481H23.3091C23.3057 2.10418 23.3033 2.17079 23.2999 2.23323C23.2941 2.36921 23.2894 2.48716 23.2743 2.60371L23.1803 3.33773C22.9169 5.40658 22.6441 7.54481 22.3691 9.64836C22.2565 10.51 22.1393 11.3842 22.0244 12.232C21.8514 13.521 21.6716 14.8531 21.5067 16.1671C21.4673 16.4793 21.4615 16.7999 21.4568 17.1121C21.4534 17.3188 21.4499 17.5311 21.4371 17.7392C21.4267 17.9085 21.4093 18.0681 21.3211 18.1527C21.2584 18.2138 21.1644 18.2332 21.0332 18.2138C20.6015 18.1472 20.1616 18.1305 19.7264 18.1652C19.03 18.2193 18.3232 18.2859 17.6397 18.3498C16.7692 18.4316 15.8698 18.5149 14.9842 18.5759C13.5532 18.6731 12.0978 18.748 10.6889 18.8188C10.0935 18.8493 9.49812 18.8798 8.90274 18.9117L7.97311 18.9617C6.61754 19.0352 5.21554 19.1101 3.83676 19.1795C3.68008 19.1878 3.53153 19.1865 3.44216 19.0838C3.38529 19.0186 3.3586 18.9187 3.3586 18.7785C3.3586 18.433 3.51527 18.3442 3.80194 18.3026C4.00388 18.2734 4.20699 18.2263 4.40429 18.1805C4.63177 18.1277 4.86737 18.0722 5.09949 18.0459C5.34553 18.0181 5.59622 17.9779 5.83878 17.9404C6.51192 17.835 7.20711 17.7267 7.86401 17.8377C8.55224 17.9529 9.16155 17.7365 9.75229 17.5255C10.0761 17.4104 10.4115 17.291 10.7527 17.2314C10.7597 17.23 10.7655 17.2231 10.7643 17.2133C10.7643 17.205 10.7585 17.1967 10.7504 17.1967C10.3686 17.162 9.99485 17.2272 9.64783 17.3022C9.49695 17.3355 9.34492 17.3785 9.19868 17.4201C8.92595 17.4964 8.64277 17.5769 8.36306 17.5921C7.90231 17.6185 7.43343 17.6213 6.97847 17.6227C6.37961 17.6255 5.7587 17.6282 5.15287 17.6851C4.31724 17.7642 3.47466 17.9224 2.65992 18.0736C2.40808 18.1208 2.14811 18.1694 1.89278 18.2152C1.71753 18.2471 1.59799 18.2263 1.51907 18.15C1.43435 18.0709 1.38908 17.9279 1.37167 17.6865C1.29507 16.6333 1.18598 15.5968 1.08036 14.6242C1.02349 14.0983 0.959652 13.5627 0.89698 13.0451C0.805293 12.2847 0.711288 11.4994 0.638171 10.7237C0.476849 9.00592 0.312043 7.16046 0.200626 5.31223C0.16929 4.78773 0.183228 4.25074 0.197155 3.73179C0.2076 3.33634 0.218043 2.92701 0.208758 2.52462C0.198313 2.04036 0.353832 1.80309 0.717097 1.75314C1.0293 1.71012 1.34613 1.66433 1.65253 1.61993C2.55082 1.4895 3.4793 1.35491 4.39732 1.2772C5.86083 1.15232 7.35219 1.05796 8.79364 0.967771C9.40875 0.92892 10.0459 0.88868 10.6715 0.845665C11.4653 0.792938 12.2592 0.738827 13.053 0.684712C14.9784 0.554281 16.9688 0.4183 18.9268 0.294807C19.7693 0.24208 19.9945 0.476576 20.0757 1.4895C20.0943 1.72122 20.114 1.95294 20.1326 2.18605C20.2405 3.50008 20.352 4.85988 20.3636 6.1961C20.3833 8.62989 20.345 11.1053 20.3067 13.4988C20.2986 14.0511 20.2893 14.602 20.2823 15.1542C20.28 15.2916 20.1384 15.5233 20.0456 15.5413C19.5233 15.6412 18.9894 15.7148 18.4718 15.7842C18.3151 15.8064 18.1573 15.8272 17.9994 15.8494C17.9101 15.8619 17.8172 15.8702 17.7279 15.8799C17.281 15.9243 16.8203 15.9701 16.5011 16.4766C16.4988 16.4779 16.4965 16.4779 16.4942 16.4779C16.493 16.4779 16.493 16.4779 16.4918 16.4779L16.4779 16.4807C16.4292 16.471 16.3804 16.4585 16.3328 16.4474C16.2075 16.4169 16.0763 16.385 15.9522 16.4002C14.7788 16.5432 13.5486 16.7069 12.2963 16.8859C12.0491 16.922 11.8007 16.9802 11.5605 17.0371C11.4502 17.0635 11.3365 17.0912 11.2251 17.1148C11.2204 17.1148 11.2181 17.1176 11.2158 17.1218C11.2135 17.1259 11.2135 17.1301 11.2135 17.1343L11.2529 17.3909C11.2553 17.3993 11.2599 17.4048 11.268 17.4048C11.268 17.4048 11.2692 17.4048 11.2703 17.4048L16.4802 16.5154C16.486 16.5154 16.4907 16.5182 16.4965 16.5182C16.4976 16.5196 16.4988 16.5196 16.4988 16.5196C16.5011 16.521 16.5023 16.5223 16.5046 16.5223H16.5058C16.5092 16.5223 16.5127 16.5196 16.5162 16.5154C16.5174 16.514 16.5185 16.5112 16.5197 16.5099C16.8539 16.4543 17.1882 16.3961 17.5224 16.3392C18.3337 16.199 19.1728 16.0547 20.0003 15.9312C20.5713 15.8452 20.6224 15.7744 20.6015 15.0848C20.5992 14.9835 20.5957 14.8822 20.5934 14.7809C20.5678 13.9484 20.5423 13.0867 20.6073 12.25C20.6467 11.7464 20.7558 11.2427 20.8615 10.7556C20.9206 10.4809 20.9822 10.1965 21.0309 9.91477C21.1214 9.3875 21.2085 8.85051 21.292 8.33156C21.3965 7.68773 21.5033 7.02031 21.6193 6.36816C21.6681 6.09758 21.7354 5.82562 21.8004 5.56337C21.8863 5.21787 21.9745 4.85988 22.0209 4.49912C22.0673 4.13696 22.0754 3.89969 21.9803 3.75954C21.8851 3.6194 21.6948 3.58194 21.3535 3.55835C21.1725 3.54447 20.9914 3.53476 20.8069 3.52366C20.7245 3.51811 20.6409 3.51256 20.5574 3.5084C20.5516 3.46954 20.5446 3.43347 20.5388 3.40017C20.526 3.32663 20.5144 3.2628 20.5052 3.19758C20.4669 2.93811 20.4297 2.67725 20.3926 2.41639C20.3067 1.81557 20.2197 1.19533 20.1152 0.58897C20.0421 0.162988 19.7972 -0.0340486 19.3863 0.00480315C18.314 0.106095 17.223 0.183801 16.168 0.258729L16.0972 0.262888C15.055 0.337816 13.9942 0.40997 12.9683 0.480736C11.0069 0.615329 8.97934 0.754091 6.98777 0.910885C5.22251 1.04825 3.43055 1.22586 1.69663 1.39653C1.38907 1.42706 1.08268 1.45619 0.775126 1.48672C0.13332 1.55055 -0.0384466 1.80031 0.0068164 2.60509C0.027707 2.95615 0.0253887 3.31414 0.0242281 3.66103C0.0219069 3.94965 0.0219007 4.24659 0.032346 4.53797C0.0497548 4.99587 0.0648465 5.46347 0.0799341 5.91443C0.127518 7.32558 0.176261 8.7853 0.280714 10.2145C0.381685 11.6007 0.531405 13.0049 0.676479 14.3633C0.739151 14.9488 0.804143 15.5552 0.864494 16.1505C0.865655 16.1685 0.867967 16.1893 0.870289 16.2115C0.879573 16.3336 0.885386 16.3794 0.909759 16.3836C1.00957 16.403 1.07572 16.4405 1.11054 16.4987C1.1616 16.5834 1.14418 16.7013 1.12794 16.8179C1.11749 16.8914 1.10705 16.9677 1.11401 17.033C1.14651 17.3493 1.1616 17.6851 1.16276 18.057C1.16276 18.2374 1.19758 18.365 1.26954 18.4441C1.34382 18.5274 1.45987 18.5621 1.62235 18.5496C1.96472 18.5232 2.31058 18.5052 2.64367 18.4871C2.77946 18.4802 2.91525 18.4733 3.04756 18.4649C3.05916 18.4816 3.06845 18.4927 3.07541 18.5038C3.08586 18.5163 3.09282 18.526 3.09282 18.5315C3.09514 18.5454 3.09747 18.5607 3.09863 18.5759C3.10559 18.6203 3.11371 18.6661 3.10442 18.7022C3.03711 18.9742 3.04524 19.1698 3.12764 19.3044C3.21701 19.4487 3.39109 19.5181 3.67428 19.5223C4.14664 19.5292 4.68167 19.5361 5.18653 19.6305C5.44882 19.679 5.71228 19.7623 5.96761 19.8428C6.29025 19.9441 6.6245 20.0495 6.95875 20.0856C7.86982 20.1855 8.80061 20.2368 9.70007 20.2854C10.025 20.3034 10.3616 20.3229 10.6935 20.3437C12.8 20.4741 14.8589 20.6018 16.8957 20.7239C17.4633 20.7572 18.0401 20.7891 18.5983 20.8182C19.5848 20.8723 20.6026 20.9279 21.6054 20.9972C21.6356 21 21.6634 21 21.6901 21C22.0209 21 22.1729 20.8418 22.2576 20.4283C22.2832 20.3007 22.3099 20.173 22.3354 20.0454C22.4932 19.26 22.6557 18.4497 22.9052 17.6948C23.7327 15.1861 24.3444 12.5539 24.9351 10.0077C25.2624 8.59936 25.6001 7.14243 25.9715 5.72434C26.0493 5.40242 25.9704 5.21787 25.7023 5.1027ZM23.8639 9.13774C24.0264 8.58826 24.1935 8.01937 24.3734 7.4685C24.4697 7.17156 24.4802 6.93706 24.4059 6.75391C24.3328 6.57075 24.1749 6.43616 23.9254 6.3418C23.7641 6.28214 23.6051 6.21137 23.4206 6.13089C23.3312 6.09065 23.236 6.04902 23.1316 6.00462L23.2941 4.31874C23.489 4.40615 23.6782 4.48802 23.8662 4.56988C24.4338 4.81826 24.9699 5.05136 25.491 5.32888C25.5967 5.38577 25.6605 5.80342 25.6164 6.00601C25.3959 7.00921 25.1313 8.09013 24.8086 9.30979C24.4117 10.8111 24.0032 12.3361 23.6086 13.8124C23.2511 15.15 22.8809 16.5334 22.5199 17.8946C22.2797 18.7979 22.1149 19.4987 21.9826 20.1633C21.9048 20.556 21.7748 20.6781 21.4522 20.6614C20.3636 20.6059 19.2575 20.5588 18.1875 20.5144C16.6358 20.4478 15.0318 20.3798 13.4546 20.2868C11.7682 20.1883 10.0552 20.0343 8.39904 19.8858C8.06246 19.8567 7.72706 19.8261 7.39049 19.7956C6.92393 19.754 6.44925 19.6568 5.94091 19.4959C6.45157 19.4584 6.97035 19.4182 7.47173 19.3779C8.67758 19.2836 9.92522 19.1865 11.152 19.1185C12.2951 19.0574 13.4569 19.0186 14.5815 18.9811C15.3011 18.9575 16.045 18.9325 16.7762 18.902C17.057 18.8895 17.3402 18.8576 17.6153 18.8271C17.8033 18.8049 17.9994 18.7827 18.1909 18.7674L18.5542 18.7383C19.4119 18.6689 20.2974 18.5981 21.1702 18.551C21.4661 18.5357 21.6228 18.4483 21.6541 18.0154C21.7923 16.1671 22.0244 14.2051 22.7857 12.3721C23.2163 11.3356 23.5459 10.2186 23.8639 9.13774ZM23.0608 6.30434C23.0643 6.30156 23.0677 6.30156 23.0724 6.30156C23.1467 6.32376 23.2175 6.34457 23.2848 6.364C23.424 6.40285 23.5563 6.44031 23.6829 6.49165C23.944 6.59711 24.0891 6.71922 24.1517 6.88711C24.2144 7.05223 24.1982 7.2673 24.1018 7.54482C23.7444 8.57022 23.4113 9.62894 23.0898 10.6516C22.9354 11.1455 22.7741 11.6562 22.6139 12.1543C22.5826 12.25 22.5327 12.3388 22.484 12.4235C22.4619 12.4623 22.4387 12.5026 22.4178 12.5428C22.4143 12.5484 22.4097 12.5498 22.405 12.5498C22.4027 12.5498 22.4027 12.5498 22.4004 12.5498L22.2867 12.5081C22.2797 12.5053 22.2762 12.4984 22.2762 12.4887L23.0526 6.31544C23.055 6.31128 23.0573 6.30711 23.0608 6.30434ZM20.4831 3.80811C20.6026 3.80811 20.7152 3.80533 20.8232 3.80256C21.0796 3.79562 21.3013 3.79008 21.5195 3.82615C21.6414 3.84697 21.7655 4.07175 21.8166 4.22577C21.863 4.36869 21.8329 4.56017 21.8004 4.71142C21.5056 6.10869 21.2085 7.4796 20.9311 8.752C20.909 8.8519 20.8638 8.97123 20.6943 9.09056C20.692 9.09195 20.6885 9.09333 20.6874 9.09333C20.685 9.09333 20.6827 9.09334 20.6804 9.09056C20.6758 9.08779 20.6734 9.08223 20.6734 9.07668L20.4703 3.82615C20.4692 3.8206 20.4715 3.81644 20.4738 3.81366C20.475 3.81089 20.4796 3.80811 20.4831 3.80811Z" fill="black" />
    <path d="M2.75852 14.6794C2.65523 14.6932 2.55193 14.7182 2.45212 14.7432C2.40454 14.7557 2.35812 14.7668 2.3117 14.7765C2.30473 14.7793 2.29893 14.7876 2.30009 14.7973L2.32098 14.9805C2.32214 14.9874 2.32563 14.993 2.33143 14.9944C2.35 15.0013 2.36857 15.011 2.38714 15.0207C2.42428 15.0415 2.46374 15.061 2.50203 15.061C2.50668 15.061 2.51016 15.0609 2.5148 15.0596C2.64943 15.0429 2.78522 15.0263 2.92101 15.0096C3.56513 14.9319 4.23016 14.8528 4.88357 14.7543C5.61242 14.6447 6.35403 14.5267 7.07128 14.4144C7.88601 14.2867 8.72628 14.1521 9.5561 14.03C9.90776 13.9773 10.2675 13.9426 10.6157 13.9079C10.9302 13.8774 11.2564 13.8441 11.5744 13.801C12.5133 13.6706 13.4673 13.5346 14.39 13.4028C15.8569 13.1933 17.375 12.9768 18.8675 12.7784C19.3097 12.7201 19.2876 12.4246 19.2633 12.1124C19.2609 12.0708 19.2575 12.0277 19.254 11.9847C19.2343 11.5837 19.1844 11.1799 19.1379 10.7887C19.0439 10.0088 18.9476 9.20128 19.0671 8.38123C19.1414 7.88032 19.1066 7.3475 19.0741 6.83271C19.066 6.70367 19.0567 6.57185 19.0509 6.44142C19.0207 5.84477 18.9836 5.23979 18.9476 4.65424C18.8896 3.71763 18.8304 2.75051 18.7979 1.79725C18.7897 1.55165 18.7573 1.42261 18.6853 1.35045C18.6052 1.26998 18.4764 1.27275 18.3069 1.30189C17.7986 1.38931 17.2775 1.44065 16.7738 1.48921C16.6798 1.49754 16.5858 1.50725 16.4918 1.51696C15.3265 1.63352 14.1613 1.75007 12.9961 1.86524C11.8204 1.9818 10.6447 2.09835 9.46906 2.21629C8.66129 2.29677 7.84074 2.38974 7.04806 2.47854L6.99816 2.48409C6.5258 2.53682 6.04532 2.59371 5.58108 2.64782C5.16791 2.69639 4.7501 2.74634 4.32996 2.79352C3.60808 2.87539 2.87923 2.95309 2.15734 3.01553C1.67454 3.05715 1.59676 3.30414 1.62114 3.74539C1.67685 4.72362 1.7314 5.71988 1.78478 6.68285C1.8904 8.59352 1.99834 10.5708 2.12136 12.5134C2.12716 12.6036 2.13528 12.6938 2.14573 12.784C2.18635 13.1447 2.25831 13.5041 2.32795 13.8552C2.36857 14.0564 2.40919 14.2645 2.44401 14.4698C2.44633 14.4782 2.45213 14.4837 2.46026 14.4837L2.60649 14.4615C2.61345 14.4601 2.61926 14.4532 2.61926 14.4449C2.61926 14.388 2.62157 14.3311 2.62273 14.2756C2.62737 14.1521 2.63202 14.0258 2.61461 13.9037C2.58559 13.697 2.54613 13.4861 2.50899 13.2835C2.50899 13.2807 2.50783 13.2793 2.50783 13.2765C2.44516 12.938 2.38134 12.5883 2.35928 12.2414C2.26063 10.6846 2.17011 9.10276 2.0819 7.57089C2.01111 6.32625 1.93682 5.03998 1.85906 3.77591C1.84746 3.57332 1.86487 3.45677 1.91825 3.38739C1.97164 3.3194 2.06332 3.28749 2.21768 3.2861C2.69584 3.28333 3.18098 3.22644 3.64986 3.17232L3.68235 3.16816C3.93071 3.13902 4.18025 3.10989 4.43093 3.08075C4.959 3.01831 5.48706 2.95586 6.00236 2.89342C7.22563 2.74634 8.49067 2.59371 9.73599 2.45911C11.5802 2.25931 13.458 2.07199 15.2732 1.89161C15.8024 1.83888 16.3316 1.78615 16.8609 1.73342C17.2404 1.69457 17.6199 1.66543 18.0214 1.63213C18.2071 1.61687 18.3986 1.6016 18.5959 1.58495C18.5959 1.90132 18.5925 2.20519 18.5901 2.49797C18.5843 3.12237 18.5785 3.71208 18.6017 4.29624C18.6725 6.09591 18.7561 7.92333 18.8385 9.69108C18.8722 10.4279 18.9058 11.1647 18.9395 11.9001C18.9406 11.9084 18.9406 11.9181 18.9418 11.9278C18.9441 11.957 18.9476 11.9944 18.9371 12.0055C18.9047 12.0472 18.871 12.0957 18.8385 12.1443C18.7596 12.2608 18.6783 12.3816 18.5913 12.3954C16.7959 12.6827 14.9668 12.956 13.1992 13.2197L12.1651 13.3737C11.7032 13.4431 11.2413 13.5124 10.7794 13.5832C9.63734 13.7566 8.45703 13.9342 7.29295 14.0966C6.32154 14.2312 5.3327 14.3547 4.37754 14.4754C3.84715 14.542 3.2982 14.61 2.75852 14.6794Z" fill="black" />
</svg>