<svg width="122" height="63" viewBox="0 0 122 63" fill="none" xmlns="http://www.w3.org/2000/svg">
<path d="M36.3744 5.64395C36.619 4.57169 36.0487 3.652 35.0392 3.2917C33.7776 2.84159 32.2737 2.80588 30.9515 2.95412C30.1865 3.03959 29.4594 3.17376 28.7691 3.53081C28.4835 3.67905 28.2086 3.87057 27.9554 4.06966C27.6622 4.30012 27.5172 4.57819 27.2965 4.866C26.9903 5.26634 27.3213 5.89065 27.7584 6.00209C28.0235 6.06917 28.2563 6.18278 28.53 6.21957C28.7918 6.25528 29.019 6.27366 29.2387 6.30287C29.8403 6.38294 30.4418 6.36455 31.0467 6.38402C31.302 6.39268 31.5563 6.41 31.8105 6.43705C31.8473 6.44138 31.8712 6.44246 31.8852 6.44354C31.9155 6.44895 31.9501 6.45545 31.9934 6.46302C32.1179 6.48574 32.2422 6.50845 32.3656 6.53442C32.9271 6.65236 33.4682 6.83413 34.0222 6.97912C34.9884 7.23231 36.1429 6.65994 36.3744 5.64395Z" fill="#EF4036"/>
<path d="M85.353 5.12444C86.7824 5.7336 88.468 5.60375 90.0001 5.60158C90.6699 5.6005 91.3407 5.5583 92.0105 5.53233C93.0167 5.49447 93.9938 5.53667 94.9167 5.06925C95.6925 4.67541 96.0733 3.69836 95.9641 2.88362C95.844 1.98773 95.2338 1.35261 94.3931 1.06047C93.6086 0.787808 92.7138 0.993385 91.9055 1.07237C91.1741 1.14378 90.4417 1.20546 89.7124 1.30392C88.9939 1.40021 88.2765 1.51058 87.5592 1.61553C86.8007 1.72698 86.0206 1.85574 85.353 2.25716C84.3912 2.83494 84.1531 4.61374 85.353 5.12444Z" fill="#EF4036"/>
<path d="M86.8212 12.7254C86.6426 12.5869 86.4641 12.4495 86.2845 12.311C85.8712 12.0708 85.4255 11.9507 84.9472 11.9496C84.5826 11.9356 84.2417 12.0124 83.9258 12.1779C83.5969 12.285 83.3134 12.4679 83.0732 12.7254C82.8146 12.9656 82.6318 13.2502 82.5257 13.578C82.3602 13.894 82.2833 14.2337 82.2974 14.5994L82.3926 15.3038C82.5181 15.7528 82.7453 16.1423 83.0742 16.4734C83.2528 16.6119 83.4313 16.7493 83.6109 16.8878C84.0242 17.128 84.47 17.2481 84.9483 17.2492C85.3129 17.2633 85.6537 17.1865 85.9696 17.0209C86.2986 16.9138 86.5821 16.7309 86.8223 16.4734C87.0809 16.2332 87.2637 15.9487 87.3698 15.6208C87.5353 15.3049 87.6122 14.9651 87.5981 14.5994C87.5667 14.3646 87.5354 14.1298 87.5029 13.8951C87.3774 13.446 87.1501 13.0565 86.8212 12.7254Z" fill="#EF4036"/>
<path d="M43.1163 44.0145C43.1076 43.8543 43.087 43.6964 43.0589 43.5406C43.1087 43.5005 43.1596 43.4616 43.2093 43.4215C44.1583 42.6609 44.1474 42.3753 43.1877 41.5832C42.0808 40.6679 40.9274 39.8109 39.7902 38.9324C39.7123 38.8426 39.6344 38.7517 39.5576 38.6608C39.3856 38.4574 39.1465 38.3113 38.8814 38.2193C38.2203 37.6859 37.5711 37.1027 36.6827 36.3442C36.7109 36.7413 36.7379 37.1341 36.7649 37.5247C36.5843 37.6123 36.423 37.7454 36.3051 37.9045C35.7749 38.6208 35.7998 39.4723 35.7868 40.3303C35.776 41.079 35.763 41.8289 35.7544 42.5776C35.7457 43.2906 35.7619 44.0047 35.7684 44.7178C35.7717 45.0748 35.775 45.4308 35.7793 45.7879C35.7815 45.9664 35.7825 46.1449 35.7847 46.3224C35.7858 46.3884 35.7533 46.8277 35.7912 46.7043C35.4125 47.9259 36.7054 49.3768 37.9832 48.8964C39.0804 48.4831 40.1342 47.8296 41.1481 47.241C42.3015 46.5701 43.1931 45.4081 43.1163 44.0145Z" fill="#EF4036"/>
<path d="M102.405 40.1193C101.391 40.1647 100.675 40.9048 100.618 41.9067C100.585 42.4715 100.541 43.0363 100.539 43.6022C100.538 43.8835 100.534 44.1681 100.545 44.4494C100.559 44.814 100.675 45.2306 100.743 45.4784C100.751 45.4762 100.759 45.4741 100.767 45.4719C100.871 45.8928 101.137 46.2498 101.599 46.4359C102.217 46.6848 103.143 46.5139 103.444 45.8311C103.584 45.513 103.754 45.2414 103.826 44.8941C103.89 44.5879 103.926 44.2709 103.973 43.9614C104.076 43.2798 104.13 42.5927 104.194 41.9067C104.278 40.973 103.307 40.0782 102.405 40.1193Z" fill="#EF4036"/>
<path d="M118.324 16.5632C118.204 15.5288 118.202 14.2845 117.387 13.526C116.557 12.7535 115.175 12.8606 114.586 13.8874C114.124 14.6924 114.272 15.5309 114.36 16.3965C114.322 16.482 114.291 16.5751 114.268 16.6757C113.738 19.0853 113.877 21.5068 114.505 23.8872C114.968 25.6432 117.624 25.6616 118.08 23.8872C118.482 22.315 118.556 20.4962 118.508 18.8754C118.485 18.1028 118.414 17.3292 118.324 16.5632Z" fill="#EF4036"/>
<path d="M1.5732 6.5895C2.81316 6.99633 4.04451 7.12076 5.34506 7.19866C6.60558 7.2744 7.86068 7.33284 9.12337 7.35664C9.93161 7.37179 10.6198 6.65767 10.6198 5.86024C10.6198 5.05632 9.93486 4.35519 9.12337 4.36385C7.86068 4.37791 6.60558 4.42551 5.34506 4.49152C4.04667 4.55968 2.81424 4.67545 1.5732 5.07255C0.82338 5.31275 0.830954 6.34497 1.5732 6.5895Z" fill="#39B100"/>
<path d="M119.691 5.54433C120.129 3.68763 119.539 2.13821 118.553 0.693752C117.9 -0.263811 116.841 -0.21945 116.289 0.760835C115.837 1.56151 115.38 2.44983 115.28 3.34031C114.912 6.57763 114.598 9.82792 114.446 13.0826C114.31 15.9682 114.417 18.8658 114.417 21.758C114.43 21.758 114.442 21.758 114.455 21.758C114.51 22.9222 114.592 24.0853 114.615 25.2506C114.663 27.5823 114.586 29.9194 114.729 32.2435C115.024 37.0768 115.534 41.8981 115.755 46.7325C115.911 50.1808 116.08 53.6194 116.722 57.0092C116.979 58.3617 117.334 59.7315 118.276 60.8319C118.903 61.5655 119.477 61.5633 120.101 60.8352C120.67 60.1708 120.883 59.3939 120.974 58.5294C121.468 53.8585 120.965 49.2092 120.622 44.5652C120.371 41.1754 119.706 37.8147 119.503 34.4237C119.206 29.4953 119.097 24.5517 119.028 19.6124C118.981 16.3069 119.107 12.996 119.226 9.69051C119.276 8.30232 119.374 6.88924 119.691 5.54433ZM115.601 11.333C115.767 9.10408 115.901 6.87193 116.144 4.65168C116.269 3.521 116.526 2.38275 117.281 1.45656C118.28 2.02569 118.557 2.54288 118.479 3.36195C118.349 4.74365 118.248 6.1286 118.154 7.51355C118.054 8.99696 117.983 10.4814 117.886 11.9649C117.871 12.1899 117.786 12.4106 117.756 12.5383C117.006 12.5708 116.33 12.6011 115.597 12.6324C115.597 12.2516 115.566 11.7896 115.601 11.333ZM116.482 14.5075C117.986 17.4884 118.119 22.4959 116.727 23.9631C115.942 23.4783 115.976 22.603 115.878 21.8867C115.547 19.4165 115.339 16.9344 116.482 14.5075ZM119.48 43.7105C119.744 46.9597 120.022 50.21 120.169 53.4657C120.242 55.0865 120.064 56.7214 119.936 58.3455C119.902 58.7718 119.626 59.1786 119.462 59.5952C119.345 59.5919 119.227 59.5887 119.109 59.5865C118.94 59.329 118.683 59.0921 118.616 58.8107C118.25 57.2765 117.901 55.7357 117.609 54.1863C117.429 53.2266 117.323 52.2496 117.245 51.2758C116.941 47.4715 116.643 43.665 116.378 39.8575C116.072 35.4452 115.611 31.0404 115.68 26.6074C115.684 26.3369 115.708 26.0654 115.718 25.8901C116.471 25.6975 117.141 25.5265 117.868 25.3415C117.885 25.4118 117.957 25.5839 117.966 25.7592C118.106 28.317 118.204 30.8781 118.384 33.4337C118.494 35.0091 118.732 36.5758 118.902 38.148C119.103 40.0014 119.33 41.8527 119.48 43.7105Z" fill="#251C1C"/>
<path d="M112.636 8.99159C112.529 8.50902 112.097 8.20606 111.564 8.36295C111.097 8.50144 110.907 8.90287 111.085 9.35622C111.784 11.135 111.336 12.6141 109.956 13.8573C109.539 14.2338 109.494 14.6212 109.951 15.2888C110.344 15.0432 110.736 14.8874 111.008 14.6125C112.047 13.5543 112.635 12.2657 112.73 10.7834C112.769 10.1883 112.766 9.56829 112.636 8.99159Z" fill="black"/>
<path d="M96.5082 60.0389C97.2483 60.9791 98.0739 61.6511 99.2522 61.7582C100.359 61.8588 101.478 61.8978 102.588 61.862C104.162 61.8123 105.367 60.8612 106.601 60.0324C109.552 58.0524 111.227 55.276 111.743 51.7671C112.051 49.6691 111.917 47.5949 111.615 45.5078C111.243 42.9261 110.855 40.3477 109.743 37.963C109.138 36.6646 108.567 35.2732 107.645 34.2172C105.871 32.1852 103.57 30.4194 100.183 32.0023C97.9278 33.0562 96.4097 34.6554 95.3418 36.7782C93.6052 40.232 93.2461 43.9821 93.0448 47.9779C93.1476 49.166 93.2341 50.5628 93.3932 51.951C93.7308 54.9113 94.6277 57.6477 96.5082 60.0389ZM103.122 33.3786C104.441 33.3267 105.215 33.7768 105.904 34.4617C107.484 36.0317 108.556 37.8992 109.277 39.9961C109.506 40.6604 109.358 41.0683 108.723 41.3269C107.992 41.6245 107.266 41.9328 106.534 42.225C105.161 42.7714 104.449 42.3851 104.155 40.9428C104.118 40.7611 104.132 40.5457 104.038 40.4018C102.983 38.7843 103.299 36.8994 103.02 35.1358C102.932 34.5829 103.081 33.9932 103.122 33.3786ZM102.201 41.262C103.44 42.2704 103.486 43.3427 102.365 44.9343C101.706 43.6965 101.607 42.529 102.201 41.262ZM95.4998 39.5568C96.3199 36.6105 97.8142 34.1847 100.903 33.1265C101.023 33.0854 101.172 33.1211 101.586 33.1211C101.651 34.9194 101.717 36.6279 101.769 38.3363C101.775 38.5625 101.797 38.8827 101.667 39.005C100.753 39.8544 100.619 41.0445 100.225 42.1222C100.196 42.2001 100.101 42.2542 99.9814 42.3776C98.8269 42.2802 97.6356 42.1644 96.5461 41.5769C95.6047 41.0694 95.2325 40.5187 95.4998 39.5568ZM94.6515 43.1934C94.6786 42.9791 94.7944 42.7746 94.9253 42.4079C96.6175 43.5515 98.4201 44.0611 100.412 43.9486C100.597 44.4885 100.719 44.9819 100.93 45.4353C101.587 46.8429 103.112 47.042 103.664 45.6322C104.287 44.046 105.423 43.888 106.741 43.6132C107.754 43.4022 108.721 42.9694 109.892 42.5723C110.055 43.3568 110.311 44.2764 110.425 45.2145C110.702 47.4759 110.977 49.7243 110.55 52.0246C109.823 55.9457 107.455 58.5176 104.001 60.1482C102.461 60.8742 100.735 60.806 99.0856 60.2823C98.7913 60.1893 98.5272 59.9556 98.2902 59.7424C97.0243 58.6009 96.1393 57.2398 95.5712 55.6027C94.1603 51.5355 94.1278 47.3904 94.6515 43.1934Z" fill="#251C1C"/>
<path d="M96.0798 16.2507C95.7931 16.201 95.4133 16.6835 94.8236 17.1012C96.254 17.8229 97.3912 18.3952 98.5728 18.9903C98.4375 19.3809 98.3596 19.6925 98.2275 19.9782C97.5827 21.3696 96.913 22.7502 96.2735 24.1439C95.6146 25.5807 95.7585 25.8794 97.2419 26.2938C97.375 26.3316 97.5113 26.3641 97.639 26.415C98.9179 26.9192 98.9255 26.8986 99.4935 25.7322C100.261 24.1558 101.065 22.5977 101.926 20.8871C103.207 21.4919 104.2 21.9874 105.218 22.4278C105.572 22.5804 106.175 22.7881 106.33 22.6345C106.602 22.3629 106.726 21.8327 106.723 21.4118C106.706 19.1786 106.63 16.9465 106.576 14.7132C106.543 13.2677 106.534 11.834 107.222 10.4848C107.496 9.94597 107.625 9.32382 106.893 8.82178C106.594 8.97001 106.231 9.08254 105.952 9.30111C104.818 10.1883 103.712 11.1113 102.592 12.0169C101.15 13.1844 99.7283 14.3811 98.2471 15.4966C97.6369 15.9554 96.9865 16.4055 96.0798 16.2507ZM105.57 10.9576C105.57 14.2772 105.57 17.4994 105.57 20.7453C104.261 21.0083 103.55 20.3179 102.875 19.632C102.505 19.2565 102.217 18.8421 101.597 19.0228C101.014 19.1916 100.838 19.6384 100.733 20.1697C100.367 22.0329 99.2825 23.552 98.4126 25.1382C97.468 25.1393 97.3934 24.6037 97.6487 24.0162C98.2774 22.5717 98.9699 21.1543 99.644 19.7293C99.7229 19.5638 99.8679 19.4296 99.9577 19.2684C100.423 18.4255 100.266 17.9949 99.3712 17.6833C99.038 17.5664 98.6928 17.482 98.3531 17.3825C98.3217 17.2721 98.2915 17.1607 98.2601 17.0503C100.92 15.2748 102.961 12.757 105.57 10.9576Z" fill="#251C1C"/>
<path d="M104.267 5.46645C104.94 5.355 105.534 5.1689 105.427 4.14209C102.854 4.38229 100.905 5.34851 99.8375 7.66073C99.6503 8.06647 99.5064 8.56636 99.5681 8.98942C99.6146 9.30969 100.008 9.80739 100.27 9.82038C100.802 9.84851 101.083 9.42221 100.914 8.852C100.702 8.13572 101.046 7.58715 101.427 7.0494C102.12 6.07128 103.131 5.65471 104.267 5.46645Z" fill="#251C1C"/>
<path d="M99.2533 56.807C100.504 56.7594 101.757 56.7388 103.002 56.6242C103.862 56.5452 104.015 56.2693 104.079 55.0293C102.36 55.1191 100.752 55.1808 99.1484 55.2998C98.6788 55.3355 98.4256 55.698 98.4775 56.1924C98.5251 56.6469 98.8356 56.8232 99.2533 56.807Z" fill="#251C1C"/>
<path d="M97.3511 3.89543C97.4269 2.71498 96.9281 1.84831 96.135 1.43066C92.2906 1.85156 88.6963 1.89916 84.9623 1.699C84.72 2.67603 84.5047 3.6087 84.2537 4.53273C83.9518 5.64609 84.0556 5.87657 85.2545 5.86791C86.7357 5.85709 88.2169 5.71859 89.6971 5.60498C91.7724 5.44593 93.8444 5.21114 95.9218 5.1051C96.9421 5.05425 97.2884 4.88437 97.3511 3.89543ZM95.2434 4.08154C94.8896 4.16161 94.5044 4.08911 94.1387 4.13239C92.2116 4.36178 90.289 4.63876 88.3576 4.83244C87.4953 4.91792 86.6178 4.84651 85.6667 4.84651C85.671 3.03633 85.9858 2.72148 87.453 2.84915C87.8674 2.88594 88.2862 2.89136 88.7028 2.88054C90.83 2.82752 92.9571 2.76583 95.0854 2.70632C95.4695 2.6955 95.859 2.69226 95.9326 3.1943C96.0094 3.71582 95.674 3.98308 95.2434 4.08154Z" fill="black"/>
<path d="M89.8637 33.8567C90.0141 30.364 90.1894 26.8692 90.4902 23.3863C90.7563 20.308 90.8581 17.2395 90.4242 14.1807C90.2619 13.0413 89.8756 11.928 89.5326 10.8211C89.2665 9.96307 88.6789 9.66121 87.7268 9.69258C86.1947 9.74452 84.655 9.59628 83.1196 9.52487C79.628 9.36365 76.1387 9.10397 72.6449 9.06286C69.3849 9.02391 66.1216 9.29765 62.8605 9.28467C58.763 9.26844 54.6655 9.07801 50.568 9.00336C46.1404 8.92221 41.7119 8.7967 37.2855 8.85729C32.766 8.92004 28.2508 9.21326 23.7313 9.35175C20.982 9.43723 18.2283 9.3734 15.479 9.4632C11.8954 9.58006 8.3151 9.78887 4.73263 9.9436C3.84539 9.98147 3.22867 10.3028 3.36609 10.7616C3.58032 11.4779 4.22954 11.3902 4.76729 11.3296C5.54957 11.2409 6.31773 10.978 7.10001 10.9336C9.98244 10.7713 12.8681 10.5582 15.7516 10.5668C22.4134 10.5841 29.0645 10.3342 35.7209 10.1124C40.7933 9.94361 45.8775 10.1351 50.9574 10.1881C54.9186 10.2292 58.8798 10.345 62.842 10.3537C67.4578 10.3623 72.0747 10.2206 76.6883 10.2823C79.0114 10.3147 81.33 10.6577 83.652 10.8514C84.7199 10.9401 85.804 10.9282 86.8525 11.1176C87.3957 11.216 88.0601 11.5309 88.3555 11.9626C89.4418 13.5445 89.3087 15.3568 89.2027 17.2535C86.1623 17.0361 83.2755 16.8294 80.2275 16.6119C80.6408 16.0655 81.0433 15.7507 81.1407 15.359C81.3408 14.5529 81.3733 13.7057 81.4826 12.8769C81.5746 12.1693 81.2316 11.8328 80.5586 11.7668C79.6335 11.6759 78.7084 11.5731 77.7811 11.4995C77.2369 11.4573 76.7683 11.7981 76.7489 12.2536C76.7067 13.2134 76.7846 14.1947 76.9653 15.1382C77.0215 15.4282 77.5399 15.6998 77.9012 15.8459C78.386 16.0417 78.9237 16.1066 79.4387 16.2289C79.4258 16.3263 79.4127 16.4236 79.4008 16.5199C78.2171 16.6227 77.0356 16.4853 75.8465 16.4193C73.5884 16.2938 71.4418 15.4509 69.1274 15.5797C67.1354 15.689 65.124 15.4163 63.1201 15.3698C57.4343 15.2389 51.7463 15.1188 46.0593 15.0322C43.917 14.9987 41.7725 15.1079 39.6301 15.0863C32.9629 15.0225 26.2978 14.8818 19.6317 14.8569C14.6956 14.8385 9.75954 14.9532 4.8235 15.0095C4.73045 15.0106 4.61356 14.9781 4.54972 15.0225C4.37011 15.1458 4.08564 15.294 4.07699 15.4466C4.06184 15.6803 4.17868 16.0093 4.35721 16.1456C4.55413 16.2949 4.88407 16.3252 5.15348 16.3165C6.40968 16.2765 7.66482 16.1683 8.92101 16.1521C15.2106 16.0698 21.5013 15.9725 27.792 15.9541C31.5163 15.9422 35.2394 16.0828 38.9636 16.1239C41.1049 16.1477 43.2472 16.0623 45.3863 16.1109C47.7602 16.164 50.1308 16.3468 52.5036 16.4117C56.7915 16.5286 61.0827 16.5675 65.3696 16.7039C67.0791 16.758 68.8158 16.7374 70.4485 17.4353C70.7212 17.5522 71.0836 17.4689 71.4039 17.4602C72.0996 17.4418 72.7996 17.3433 73.4888 17.3985C77.7573 17.7383 82.0247 18.0877 86.2877 18.4892C87.3275 18.5865 88.3489 18.8884 89.4385 19.1081C89.3097 21.9407 89.2156 24.5905 89.0641 27.2371C88.8531 30.9061 88.5209 34.5697 88.377 38.242C88.1054 45.2273 87.9323 52.217 87.7094 59.2045C87.6878 59.8559 87.5775 60.504 87.558 61.1553C87.5429 61.6704 87.558 62.2395 88.2537 62.326C88.8564 62.4018 89.2654 61.9041 89.2979 61.1218C89.3033 60.9833 89.2708 60.8426 89.2708 60.7041C89.2784 56.9724 89.2243 53.2384 89.313 49.5088C89.4363 44.2903 89.6376 39.0719 89.8637 33.8567ZM79.8109 14.5724C78.0819 14.7769 77.9661 14.6719 78.1782 13.1312C78.7268 13.0413 79.3727 12.7849 79.7752 13.3335C79.9786 13.6105 79.8109 14.1601 79.8109 14.5724Z" fill="#251C1C"/>
<path d="M82.8676 15.3472C83.6552 15.2628 84.2276 15.2022 84.7924 15.1427C84.8887 15.3017 85.0002 15.411 85.024 15.5365C85.1149 16.0256 85.3323 16.3502 85.8744 16.1425C86.4446 15.925 86.4544 15.5008 86.2099 15.0042C86.0703 14.7207 85.9805 14.4124 85.8799 14.1462C86.2781 13.6907 86.6296 13.2882 86.9791 12.8878C86.2683 12.2473 86.2683 12.2473 84.9861 12.7266C84.9136 12.6747 84.812 12.639 84.7763 12.5686C84.5436 12.1055 84.2071 11.7539 83.679 12.0136C83.1683 12.2646 83.2398 12.7125 83.4194 13.2103C83.5222 13.4959 83.4215 13.88 83.3404 14.2003C83.2549 14.5325 83.0829 14.8408 82.8676 15.3472Z" fill="black"/>
<path d="M84.7708 23.1623C84.3121 22.565 83.718 22.5239 83.0212 22.6516C81.7422 22.8853 80.4558 23.1785 79.1639 23.2196C74.1965 23.3776 69.2258 23.4458 64.2562 23.5475C63.4967 23.3213 62.9416 23.6503 63.0292 24.1339C63.1548 24.821 63.7001 24.7582 64.2335 24.7323C67.8062 24.5635 71.3801 24.3103 74.9539 24.2778C77.9185 24.2519 80.8854 23.7314 83.8522 24.2335C84.0318 24.2638 84.2298 24.2497 84.4083 24.2075C84.9742 24.0723 85.1246 23.6243 84.7708 23.1623Z" fill="#251C1C"/>
<path d="M84.4364 27.1896C84.4116 26.667 84.1011 26.5253 83.5763 26.5707C80.9428 26.799 78.307 27.1506 75.6713 27.1496C72.2576 27.1474 68.8093 27.9048 65.4237 26.8347C64.9509 26.6843 64.5852 26.9732 64.4792 27.4309C64.3721 27.8951 64.609 28.2575 65.0764 28.3787C65.3404 28.4458 65.6315 28.4198 65.9096 28.4101C67.4406 28.3527 68.9705 28.2683 70.5015 28.2305C74.1716 28.1385 77.8439 28.066 81.5151 27.9859C81.5161 27.9448 81.5183 27.9048 81.5194 27.8637C82.2119 27.9318 82.9022 28.0281 83.5958 28.0617C84.1671 28.0887 84.4624 27.7403 84.4364 27.1896Z" fill="#251C1C"/>
<path d="M83.547 37.0659C82.9757 37.0659 82.4239 37.0312 81.8764 37.0734C80.8594 37.1513 79.8487 37.318 78.8306 37.3699C76.5508 37.4857 74.27 37.6036 71.9881 37.6242C69.9994 37.6415 67.9999 38.0039 66.0166 37.4694C65.3804 37.2974 64.768 37.8503 64.8134 38.4725C64.8621 39.1476 65.3793 39.1087 65.8521 39.0805C67.6179 38.9788 69.3837 38.8609 71.1495 38.7624C71.8463 38.7235 72.5464 38.7516 73.241 38.6964C76.1624 38.4649 79.0849 38.2983 82.0171 38.4638C82.3395 38.4811 82.6814 38.4973 82.9865 38.4129C83.5535 38.256 83.8532 37.8914 83.547 37.0659Z" fill="#251C1C"/>
<path d="M71.1269 6.52248C74.652 6.44566 78.1501 5.78349 81.6936 6.07238C82.4997 6.13838 82.7334 5.83109 82.8005 4.99363C82.8859 3.92787 82.7583 2.94542 81.883 2.37305C78.3773 2.55699 75.0848 2.78204 71.7891 2.88483C69.4336 2.9584 69.3103 3.02007 69.6511 5.31714C69.8026 6.34503 70.0774 6.5452 71.1269 6.52248ZM71.3152 4.11505C74.0992 3.93003 76.8842 3.74718 79.6703 3.5838C80.0847 3.56 80.5196 3.5838 80.9156 3.69092C81.1256 3.74826 81.409 4.02742 81.4155 4.21568C81.4242 4.431 81.1851 4.67661 81.0087 4.86813C80.9341 4.94928 80.7458 4.93737 80.6084 4.94603C77.7757 5.10941 74.9442 5.27386 72.1116 5.42426C71.7967 5.44049 71.4775 5.3745 71.0707 5.33987C71.0393 4.95252 71.0111 4.6106 70.9884 4.32928C71.1669 4.20918 71.2373 4.11938 71.3152 4.11505Z" fill="#251C1C"/>
<path d="M66.6095 59.9077C67.157 59.977 67.4102 59.5398 67.4556 59.014C67.5649 57.721 67.6233 56.4205 67.803 55.1361C67.9122 54.3582 67.803 53.498 68.4067 52.6919C69.268 55.1838 70.0957 57.5479 70.8974 59.9207C71.0392 60.3405 71.1604 60.8328 71.6797 60.6781C72.0054 60.5807 72.2337 60.1523 72.4999 59.8677C72.5259 59.8406 72.5096 59.7768 72.5193 59.7314C73.0116 57.3164 73.425 54.8905 73.5732 52.4258C73.5819 52.2732 73.6252 52.1228 73.6998 51.7138C73.9054 52.1141 74.005 52.2602 74.0591 52.4203C74.8381 54.752 75.6301 57.0794 76.3691 59.423C76.5249 59.9153 76.6785 60.3438 77.2368 60.334C77.7908 60.3243 78.0007 59.9045 78.0819 59.3949C78.3697 57.6063 78.6726 55.82 78.9669 54.0325C79.06 53.4731 79.1466 52.9116 79.2353 52.3511C79.3392 52.3479 79.442 52.3446 79.5458 52.3414C79.7644 52.8358 80.0663 53.3119 80.1864 53.8302C80.5326 55.3233 80.8409 56.8284 81.0898 58.341C81.1915 58.9545 81.3051 59.4273 82.0214 59.4554C82.7442 58.975 82.9205 58.4492 82.3795 57.6961C82.1534 57.3813 82.095 56.9182 82.0409 56.5124C81.6568 53.6257 80.3237 51.0484 79.5306 48.3185C78.1446 48.5241 78.0732 48.5879 78.0408 49.7543C77.9759 52.0806 78.0753 54.4188 77.4889 56.7018C77.4305 56.929 77.2985 57.1357 77.1265 57.5165C76.2836 55.8762 75.959 54.2857 75.4862 52.7384C75.0198 51.2118 74.6206 49.6353 73.7582 48.2568C72.7163 48.7416 72.6816 48.7383 72.6199 49.512C72.5226 50.7184 72.4782 51.9302 72.4122 53.1388C72.3278 54.7001 72.2489 56.2614 71.5348 57.7978C70.4885 54.6687 68.9779 51.7192 68.4413 48.4429C67.0423 48.3802 66.8194 48.5544 66.9265 49.7013C67.1656 52.2743 67.0023 54.8115 66.3455 57.3153C66.2157 57.8097 66.1583 58.3215 66.0609 58.8246C65.9613 59.3354 66.0371 59.8363 66.6095 59.9077Z" fill="#251C1C"/>
<path d="M65.6877 46.3071C65.9744 46.4143 66.3325 46.3601 66.6549 46.3288C69.1489 46.0842 71.6376 45.7607 74.1359 45.5973C76.302 45.4545 78.4682 45.078 80.6603 45.461C81.0401 45.5281 81.5053 45.104 81.9306 44.907C81.9187 44.7404 81.9068 44.5749 81.8949 44.4093C81.4934 44.2633 81.0822 43.9722 80.6905 43.996C78.4616 44.1269 76.2403 44.3682 74.0125 44.5045C71.4135 44.6625 68.8103 44.7523 66.2081 44.8713C66.0231 44.88 65.7699 44.801 65.666 44.8951C65.4139 45.1213 65.1175 45.4047 65.0666 45.7045C65.0374 45.8743 65.428 46.2098 65.6877 46.3071Z" fill="#251C1C"/>
<path d="M80.9545 33.2109C79.8974 33.3104 78.8458 33.4706 77.7876 33.5539C75.101 33.766 72.4122 33.9499 69.7256 34.1436C69.7223 34.1046 69.7203 34.0646 69.7181 34.0246C68.6945 34.0246 67.6688 34.057 66.6474 34.0116C66.0588 33.9856 65.6065 34.0981 65.4918 34.7235C65.403 35.2104 65.9386 35.5231 66.7371 35.442C67.2435 35.39 67.738 35.2115 68.2422 35.1845C70.5176 35.06 72.7952 34.9691 75.0717 34.8674C77.0669 34.7776 79.0632 34.6965 81.0584 34.5991C81.5777 34.5742 81.9933 34.3621 81.9186 33.753C81.8493 33.1893 81.3797 33.1709 80.9545 33.2109Z" fill="#251C1C"/>
<path d="M81.0811 30.2256C80.4027 30.1315 79.7027 30.1423 79.0156 30.1791C76.8841 30.2906 74.7569 30.4842 72.6254 30.5481C69.9789 30.6281 67.3301 30.6184 64.6825 30.6281C64.0225 30.6303 63.6243 30.8781 63.5042 31.8573C64.0192 31.9071 64.4585 32.0282 64.8772 31.9795C69.9107 31.3909 74.956 31.2946 80.0121 31.5403C80.3335 31.5565 80.683 31.5543 80.9762 31.4451C81.2305 31.3498 81.6026 31.0858 81.5994 30.9019C81.5951 30.6628 81.2954 30.2559 81.0811 30.2256Z" fill="#251C1C"/>
<path d="M64.6024 42.7767C67.1646 42.7594 69.7268 42.7053 72.2889 42.6728C74.797 42.6425 77.3039 42.2336 79.8152 42.6923C80.1409 42.7518 80.5802 42.6123 80.8496 42.4088C81.0487 42.2584 81.1861 41.8127 81.1093 41.5768C81.0357 41.3496 80.6462 41.0672 80.406 41.0769C78.968 41.1332 77.5322 41.25 76.0986 41.3788C72.2911 41.7185 68.4857 41.6991 64.6803 41.4967C64.6381 41.3972 64.5971 41.2987 64.5559 41.2003C64.2292 41.4545 63.7834 41.646 63.6059 41.9793C63.3885 42.3883 63.8591 42.7811 64.6024 42.7767Z" fill="#251C1C"/>
<path d="M75.1432 13.3142C75.2016 12.809 74.8273 12.5926 74.3674 12.5233C73.6847 12.4205 73.003 12.308 72.3192 12.216C71.2459 12.0721 71.0002 12.3372 71.0878 13.575C72.1157 13.7481 73.1555 13.9331 74.1986 14.0965C74.7872 14.1885 75.0858 13.8174 75.1432 13.3142Z" fill="#251C1C"/>
<path d="M60.8836 6.52553C62.6418 6.51363 64.4012 6.33078 66.1562 6.17822C66.4883 6.149 66.8789 5.98021 67.1083 5.74542C67.5681 5.27367 67.9208 4.68615 67.6276 3.9861C67.2846 3.16595 66.2134 2.52649 65.442 2.62928C62.2534 3.05125 59.0648 2.90194 55.8772 2.63253C55.0506 2.56328 54.6686 2.77211 54.4381 3.58144C54.3245 3.97961 54.2878 4.39942 54.2596 4.56605C54.2715 5.78004 54.502 6.23014 55.1847 6.27558C57.0825 6.40326 58.9858 6.5396 60.8836 6.52553ZM56.7363 3.8054C59.3428 3.80648 61.9493 3.78485 64.5537 3.8476C65.0568 3.86059 65.5513 4.21873 66.049 4.41781C66.0241 4.55955 65.9982 4.70129 65.9722 4.84303C62.5931 5.64478 59.2 5.89041 55.742 5.04321C55.6641 4.20358 55.9735 3.80432 56.7363 3.8054Z" fill="#251C1C"/>
<path d="M5.24874 53.3164C5.26281 54.3345 5.34297 55.37 5.56045 56.3611C5.74763 57.2159 6.08625 58.1301 6.9962 58.4829C8.24806 58.9687 9.52051 59.5021 10.8319 59.7066C13.6873 60.1524 16.5772 60.1232 19.4715 60.1134C24.782 60.0961 30.0935 60.3515 35.405 60.3645C39.3262 60.3731 43.2234 60.6263 47.124 60.9661C50.2023 61.2344 53.2751 61.0699 56.295 60.3645C57.536 60.0745 58.8268 59.6514 59.2618 58.3119C59.8331 56.5472 60.4315 54.737 60.5981 52.9085C60.8556 50.0845 60.7799 47.228 60.8048 44.3845C60.8524 38.9226 60.4444 33.4835 59.8731 28.0584C59.6611 26.0383 59.1244 24.0745 57.3922 22.7642C55.2433 21.1401 52.7893 20.1133 50.1677 19.5658C46.108 18.7165 41.9954 19.0876 37.9033 19.251C35.3531 19.3527 32.8266 19.8644 30.258 19.7682C29.4216 19.7368 28.5808 19.7389 27.7444 19.7757C24.8133 19.9023 21.8844 20.0689 18.9533 20.189C15.1414 20.3459 11.3253 20.426 7.5167 20.6283C5.23261 20.7495 4.75214 21.1455 4.06616 23.0271C3.28821 25.1608 3.49056 27.3313 3.86709 29.5072C4.15923 31.1983 4.55204 32.884 4.67647 34.5882C4.91775 37.8872 4.99992 41.1981 5.14815 44.5046C5.17736 44.5046 5.20664 44.5046 5.23585 44.5046C5.23585 47.4422 5.21087 50.3798 5.24874 53.3164ZM5.10272 26.4797C5.06052 25.5601 5.17194 24.6263 5.29745 23.7098C5.3429 23.3809 5.5582 22.9362 5.82545 22.8021C6.5136 22.4558 7.26125 22.0825 8.00782 22.0241C11.6758 21.7374 15.3395 21.3663 19.0366 21.5372C20.3675 21.5978 21.7123 21.2224 23.0562 21.165C24.7754 21.0925 26.5013 21.1985 28.2195 21.1217C30.7762 21.007 33.3264 20.769 35.8821 20.6402C40.5725 20.4044 45.2889 19.8417 49.9296 20.9464C52.4506 21.5469 54.9479 22.3032 56.8901 24.2638C57.9818 25.3653 58.4146 26.7026 58.7067 28.1092C58.9707 29.3806 59.0984 30.6854 59.2066 31.9828C59.7357 38.3059 60.0484 44.6442 59.7931 50.9858C59.7054 53.1487 59.2964 55.3267 58.3637 57.3522C58.024 58.088 57.5025 58.5954 56.7754 58.8248C55.8059 59.1299 54.8115 59.4156 53.8074 59.5378C50.2217 59.976 46.6371 59.566 43.0525 59.4188C40.9102 59.3312 38.7667 59.2738 36.6233 59.2057C33.9681 59.1202 31.314 59.0022 28.6577 58.9644C25.534 58.9189 22.407 58.8583 19.2876 58.9622C16.4798 59.0542 13.6992 58.9135 10.9314 58.498C10.0193 58.3606 9.11688 58.075 8.24588 57.7612C7.20284 57.3857 6.56769 56.5667 6.38483 55.4901C6.24417 54.6689 6.2291 53.8217 6.21936 52.9842C6.19772 51.0301 6.21281 49.076 6.21281 47.122C6.16088 47.122 6.10898 47.1209 6.05812 47.1209C6.05812 45.7695 6.10356 44.4159 6.04946 43.0667C5.89257 39.204 5.71517 35.3423 5.50635 31.4818C5.41546 29.8123 5.17954 28.1503 5.10272 26.4797Z" fill="#251C1C"/>
<path d="M49.9058 7.06765C50.727 7.0763 51.1631 6.88696 51.3373 6.09819C51.4369 5.65241 51.4725 5.16334 51.4043 4.71323C51.2518 3.70698 50.4014 3.19844 49.3919 3.40943C49.0305 3.48517 48.6572 3.52845 48.2882 3.53278C46.1459 3.55658 44.0046 3.57389 41.8623 3.57281C41.2585 3.57173 40.6959 3.71131 40.4254 4.25339C39.9883 5.12764 39.7026 6.05815 40.1625 7.15637C40.7208 7.12391 41.2693 7.06765 41.8179 7.06548C44.5142 7.05466 47.2095 7.03627 49.9058 7.06765ZM42.5082 4.74462C43.8001 4.66996 45.092 4.59205 46.385 4.56175C47.1705 4.54228 47.9571 4.61586 48.7437 4.63317C49.328 4.64723 49.8268 4.77058 50.0161 5.41978C48.695 6.08412 42.9431 6.20098 41.4684 5.61021C41.4998 4.94479 41.964 4.77599 42.5082 4.74462Z" fill="#251C1C"/>
<path d="M36.3137 48.9744C36.3288 49.378 36.2379 49.9298 36.7919 49.9872C37.1403 50.0229 37.5948 49.8476 37.8761 49.615C39.8399 47.9822 41.7734 46.3127 43.7113 44.6486C44.2415 44.1953 44.7878 43.7538 45.2672 43.2507C45.951 42.5312 45.9174 41.8798 45.1817 41.2425C44.6212 40.7567 44.0034 40.3391 43.4267 39.8695C41.3385 38.1708 39.2654 36.4536 37.1652 34.769C36.9099 34.5634 36.4327 34.3243 36.2325 34.4303C35.9296 34.5904 35.7781 35.0405 35.6775 35.1931C35.7662 36.0966 35.8626 36.7447 35.8874 37.3939C36.0378 41.2533 36.1687 45.1139 36.3137 48.9744ZM39.023 38.333C40.4036 39.4269 41.8308 40.4613 43.1876 41.5834C44.1473 42.3754 44.1582 42.661 43.2093 43.4217C41.4792 44.8088 39.6874 46.1212 37.9172 47.4586C37.8523 47.5073 37.743 47.4986 37.4661 47.5538C37.2118 43.9204 36.9597 40.3109 36.6827 36.3443C37.6337 37.1569 38.31 37.7682 39.023 38.333Z" fill="#251C1C"/>
<path d="M28.5138 6.62944C31.2512 6.60348 33.9886 6.59158 36.7249 6.53856C37.662 6.52125 38.137 5.83852 38.0342 4.79981C37.9282 3.72539 37.2693 3.11513 36.3701 3.24606C35.8194 3.32612 35.2686 3.43974 34.7168 3.45272C32.4879 3.50357 30.2601 3.54469 28.0312 3.53712C27.3539 3.53495 26.7684 3.63342 26.6224 4.35078C26.4709 5.10276 26.3108 5.89369 26.6776 6.63053C27.3322 6.63053 27.923 6.63485 28.5138 6.62944ZM28.9443 4.74571C31.3615 4.61262 33.7841 4.30425 36.3592 4.66131C35.287 5.73356 32.7 5.92615 28.0399 5.16876C28.3406 5.02161 28.636 4.76302 28.9443 4.74571Z" fill="#251C1C"/>
<path d="M30.0707 49.1053C30.7113 49.0187 31.3529 48.9322 31.9935 48.8456C31.9978 48.8759 32.001 48.9051 32.0053 48.9354C32.3775 48.9354 32.7498 48.9473 33.122 48.9332C34.0027 48.8986 34.2851 48.5816 34.1899 47.7074C34.0146 46.0909 33.7658 44.4798 33.6522 42.86C33.4802 40.4137 32.8363 37.9716 33.5223 35.5047C33.6846 34.9225 33.4326 34.5395 32.858 34.3101C31.9416 33.9455 31.0392 34.0299 30.1217 34.2788C28.6328 34.6813 28.4802 34.9128 28.78 36.3832C28.807 36.5196 28.834 36.657 28.8448 36.7966C29.0894 39.9625 28.9563 43.1186 28.6328 46.2737C28.5722 46.8688 28.5581 47.4823 28.6328 48.0731C28.7496 49.0122 29.1099 49.2351 30.0707 49.1053ZM29.8857 42.7659C29.9452 40.9514 30.0124 39.1369 30.0686 37.3224C30.113 35.8985 30.3478 35.6951 31.961 35.8347C32.2164 39.613 32.4739 43.4097 32.7368 47.2778C32.356 47.439 32.04 47.6392 31.697 47.7074C30.3142 47.9833 29.797 47.5559 29.7959 46.1233C29.7948 45.0045 29.85 43.8847 29.8857 42.7659Z" fill="#251C1C"/>
<path d="M21.4721 48.8271C22.7618 48.9267 24.0516 49.0284 25.3435 49.1009C26.155 49.1463 26.5098 48.6789 26.4363 47.8966C26.1712 45.0737 25.8715 42.2519 25.7265 39.4214C25.654 37.9975 25.8639 36.5552 25.9883 35.1248C26.0857 34.0039 25.7546 33.662 24.6412 33.9043C23.8687 34.072 23.1005 34.2733 22.3463 34.5124C21.2222 34.8716 21.1172 35.0534 21.1172 36.2079C21.1182 37.094 21.1345 37.9813 21.0858 38.8642C20.9505 41.3289 20.7861 43.7915 20.6325 46.2552C20.6173 46.2552 20.6022 46.2563 20.5881 46.2563C20.5881 46.8157 20.5719 47.3751 20.5924 47.9334C20.6119 48.4841 20.9311 48.786 21.4721 48.8271ZM21.7589 45.3853C21.9093 42.6955 22.0737 40.0046 22.329 37.3234C22.4599 35.9558 22.8224 35.735 24.4042 35.6615C24.4941 37.1232 24.5828 38.5071 24.664 39.8931C24.7927 42.0755 24.9463 44.2568 25.0307 46.4403C25.0783 47.6727 24.6986 47.9464 23.5289 47.7008C21.7534 47.3286 21.655 47.2496 21.7589 45.3853Z" fill="#251C1C"/>
<path d="M14.9174 6.58733C17.1431 6.49212 19.3709 6.42288 21.5966 6.34282C21.9223 6.33091 22.2511 6.35038 22.5725 6.30927C23.4327 6.19999 23.7086 5.85916 23.6588 5.0217C23.5831 3.74386 22.4881 2.87719 21.1929 3.02001C19.9043 3.16284 18.6091 3.25805 17.3172 3.37383C17.3151 3.33596 17.3119 3.29808 17.3097 3.26021C16.984 3.26021 16.6594 3.26888 16.3337 3.25914C14.2401 3.19422 14.2401 3.19313 13.7478 5.15586C13.4308 6.41422 13.632 6.64252 14.9174 6.58733ZM16.2082 4.45257C17.9621 4.37899 19.7203 4.39848 21.4775 4.40822C21.6333 4.4093 21.788 4.58025 21.9557 4.67871C21.1031 5.43719 17.8356 5.77368 15.308 5.39174C15.2583 5.28895 15.2085 5.18617 15.1587 5.08229C15.5071 4.86265 15.85 4.46772 16.2082 4.45257Z" fill="#251C1C"/>
<path d="M10.8296 5.73788C10.8231 5.55178 10.8307 5.36568 10.8199 5.18066C10.7528 4.08568 10.3677 3.72213 9.23158 3.77623C8.35301 3.81843 7.47762 4.00129 6.6012 3.99155C5.12104 3.9764 3.64095 3.8628 2.16187 3.78057C1.58084 3.74702 0.944612 3.74594 0.737952 4.37241C0.42742 5.31266 0.26617 6.30269 0 7.45068C0.700048 7.49072 1.23459 7.56321 1.76584 7.54482C4.26741 7.46259 6.76785 7.31759 9.26941 7.2689C10.8816 7.23644 10.8827 7.29379 10.8296 5.73788ZM1.65437 6.35138C1.86969 5.12981 2.01366 4.9199 2.83706 4.91882C4.829 4.91774 6.8209 4.95777 8.81284 4.99239C8.98488 4.99564 9.15586 5.08869 9.30301 5.13197C9.54321 5.73356 9.3701 6.05599 8.78907 6.20315C7.33703 6.56886 3.1605 6.67922 1.65437 6.35138Z" fill="#251C1C"/>
</svg>
