<svg width="250" height="163" viewBox="0 0 250 163" fill="none" xmlns="http://www.w3.org/2000/svg">
<path d="M212.758 79.5005C210.749 79.5906 209.33 81.0571 209.216 83.0425C209.152 84.1617 209.064 85.2809 209.06 86.4022C209.057 86.9597 209.051 87.5236 209.072 88.081C209.1 88.8036 209.33 89.629 209.465 90.12C209.48 90.1157 209.497 90.1114 209.512 90.1071C209.718 90.9412 210.245 91.6487 211.161 92.0175C212.385 92.5106 214.22 92.1719 214.816 90.819C215.095 90.1886 215.432 89.6505 215.573 88.9622C215.7 88.3555 215.773 87.7272 215.865 87.114C216.068 85.7633 216.176 84.4018 216.302 83.0425C216.469 81.1922 214.546 79.419 212.758 79.5005Z" fill="#EF4036"/>
<path d="M244.304 32.8221C244.066 30.7724 244.061 28.3067 242.447 26.8037C240.802 25.2729 238.062 25.4851 236.896 27.5198C235.98 29.115 236.274 30.7766 236.448 32.4919C236.373 32.6613 236.311 32.8457 236.265 33.0451C235.215 37.8199 235.492 42.6183 236.735 47.3352C237.653 50.815 242.916 50.8514 243.819 47.3352C244.617 44.2199 244.762 40.6157 244.668 37.4039C244.621 35.8731 244.482 34.3401 244.304 32.8221Z" fill="#EF4036"/>
<path d="M2.39853 147.731C2.42855 147.846 2.4628 147.96 2.49925 148.072C2.49496 148.082 2.49076 148.091 2.48647 148.102C2.03193 149.109 2.11344 150.254 3.05683 150.962C3.58426 151.356 4.3624 151.53 5.03777 151.363C5.3358 151.875 5.79251 152.295 6.30494 152.503C6.8238 152.711 7.31706 152.75 7.77375 152.655C7.93241 153.056 8.20028 153.421 8.60122 153.721C9.57891 154.452 11.2407 154.551 12.0983 153.513C12.2162 153.372 12.3342 153.232 12.4542 153.091C12.555 153.112 12.6579 153.131 12.7587 153.151C12.8616 153.258 12.973 153.361 13.0995 153.455C14.0536 154.169 15.3657 154.238 16.3477 153.582C18.8498 153.785 21.3562 153.951 23.8669 154.09C24.0985 156.466 27.5503 157.887 29.3728 155.972C29.8638 155.458 30.3547 154.943 30.8479 154.429C31.1695 154.444 31.489 154.456 31.8106 154.472C32.0979 154.525 32.3939 154.54 32.6919 154.51C34.3149 154.581 35.9401 154.652 37.5631 154.727C38.0434 154.748 38.5259 154.761 39.0062 154.77C39.2141 154.997 39.465 155.203 39.7587 155.374C41.1738 156.202 42.7239 155.805 43.7809 154.75C44.1497 154.746 44.5186 154.744 44.8831 154.744C45.0031 154.48 45.1038 154.227 45.1982 153.985C45.7728 153.828 46.3303 153.535 46.8406 153.11C50.4319 150.132 53.0176 146.255 54.72 141.94C54.8743 141.547 54.9064 141.112 54.8506 140.672C55.243 140.093 55.6461 139.5 56.0707 138.882C55.0072 138.736 54.336 138.601 53.7893 138.533C53.5877 138.333 53.3691 138.166 53.1354 138.044C51.8318 137.356 50.3075 137.478 49.1712 138.395C48.8324 138.271 48.4742 138.198 48.1161 138.183C47.9639 137.456 47.5631 136.781 46.9478 136.322C45.6292 135.338 44.0017 135.505 42.7796 136.571C42.6574 136.678 42.5396 136.787 42.4174 136.892C41.1245 136.189 39.5485 136.354 38.4057 137.424C38.0347 137.771 37.6683 138.121 37.2995 138.468C37.233 138.385 37.16 138.303 37.0828 138.226C36.0708 137.214 34.2934 137.045 33.1421 137.917C33.0327 137.801 32.9149 137.692 32.7819 137.594C31.6777 136.768 29.9753 136.74 28.9869 137.819C28.9162 137.896 28.8454 137.973 28.7725 138.05C27.8956 136.74 25.9618 136.138 24.5596 137.542L24.3988 137.703C24.0364 137.654 23.674 137.606 23.3117 137.553C22.0188 137.356 20.7281 137.175 19.4417 137.023C19.298 136.824 19.1286 136.65 18.9421 136.509C17.9087 135.737 16.5085 135.793 15.5522 136.684C13.6161 136.584 11.6822 136.603 9.74401 136.798C9.09008 136.541 8.2861 136.537 7.69648 136.922C7.16261 136.172 6.04344 135.814 5.30159 136.665C4.83419 137.201 4.39892 137.756 3.98941 138.327C3.69138 138.595 3.45554 138.934 3.29259 139.364C2.1884 141.116 1.34363 143.009 0.764739 145.046C0.363801 146.431 1.27076 147.473 2.39853 147.731Z" fill="#EF4036"/>
<path d="M55.2923 150.592L55.3394 150.611C54.8269 151.559 54.7583 152.674 55.3308 153.6C55.1979 153.89 55.0649 154.177 54.9384 154.473C55.543 154.537 55.8968 154.602 56.2334 154.608C56.4221 155.333 56.8424 156.004 57.3913 156.413C58.682 157.378 60.3285 157.247 61.5249 156.18C61.6471 156.31 61.7758 156.43 61.9152 156.536C63.1652 157.47 64.9662 157.477 66.139 156.379C66.1776 156.413 66.2162 156.448 66.2548 156.478C67.6248 157.537 69.5008 157.389 70.7615 156.21C71.1388 155.856 71.5099 155.498 71.8808 155.14C73.2916 155.787 74.711 155.468 75.7573 154.473C77.3911 154.469 79.0226 154.467 80.6564 154.464C81.5998 155.078 82.8584 155.2 83.9862 154.46C84.9574 154.46 85.9287 154.462 86.8978 154.464C87.3202 154.554 87.7618 154.559 88.197 154.466C88.3128 154.466 88.4307 154.466 88.5465 154.466C89.3612 156.278 92.0348 157.166 93.6321 155.493C93.7865 155.331 93.9409 155.168 94.0953 155.007C95.2209 155.721 96.9148 155.738 97.8518 154.647C97.9976 154.477 98.1411 154.306 98.2868 154.134C98.557 153.988 98.8015 153.795 99.0266 153.549C100.266 153.847 101.366 153.283 102.153 152.235C103.915 149.887 105.043 147.012 106.355 144.389C106.732 143.635 106.842 142.796 106.655 142.031C106.938 141.585 107.225 141.133 107.521 140.665C106.927 140.616 106.336 140.571 105.744 140.526C105.682 140.472 105.62 140.419 105.553 140.369C104.841 139.838 103.808 139.589 102.89 139.778C102.037 139.377 101.021 139.332 100.144 139.857C100.092 139.797 100.041 139.737 99.9851 139.681C98.7437 138.44 96.8483 138.543 95.5833 139.649C94.447 138.519 92.4701 138.157 91.01 139.486C90.9329 139.557 90.8557 139.628 90.7785 139.7C90.5919 139.694 90.4076 139.688 90.2211 139.679C89.2584 139.051 87.9999 138.944 86.9428 139.565C86.7863 139.561 86.6276 139.555 86.4711 139.55C85.8086 138.881 84.625 138.547 83.8017 139.154C83.6666 139.254 83.5337 139.357 83.4007 139.46C82.1572 139.426 80.9179 139.394 79.6786 139.362C78.9024 139.076 77.9912 139.029 77.2129 139.299C76.857 139.291 76.5012 139.282 76.1453 139.274C75.9223 138.727 75.5663 138.238 75.1225 137.906C73.8253 136.937 72.1102 137.042 70.9181 138.157C70.7852 138.281 70.6543 138.405 70.5213 138.528C69.6551 137.912 68.6475 137.895 67.7213 138.268C67.2989 137.162 65.8067 136.435 64.8976 137.567C63.2467 139.623 61.6471 141.718 60.0948 143.849C59.1086 145.204 58.1996 146.647 57.2305 148.032C56.5122 148.841 55.809 149.677 55.2923 150.592Z" fill="#EF4036"/>
<path d="M175.975 143.393C175.758 142.994 175.471 142.642 175.132 142.389C173.976 141.525 171.995 141.403 170.983 142.636C170.859 142.788 170.73 142.936 170.606 143.086C169.502 142.261 167.862 142.085 166.65 143.208C166.142 143.17 165.636 143.125 165.132 143.067C164.931 143.043 164.736 143.028 164.545 143.017C164.51 143.007 164.478 142.994 164.444 142.985C164.369 142.82 164.279 142.664 164.17 142.522C162.516 140.38 160.087 141.843 158.709 143.395C156.464 145.925 154.504 148.802 152.673 151.639C151.981 152.711 152.212 154.25 153.044 155.179C152.969 155.339 152.892 155.494 152.819 155.657C153.406 155.82 153.747 155.983 154.092 156C154.183 156.004 154.27 156.008 154.36 156.013C154.866 156.182 155.417 156.24 155.923 156.141C156.101 156.516 156.376 156.862 156.766 157.153C157.954 158.041 159.502 157.934 160.597 156.926L161.119 156.446C161.252 156.596 161.399 156.735 161.567 156.862C162.624 157.653 163.779 157.644 164.834 157.106C165.928 158.215 167.786 158.538 169.317 157.188C171.706 155.082 173.972 152.194 174.658 149.027C174.723 148.729 174.744 148.442 174.731 148.168C175.128 147.595 175.529 147.027 175.943 146.467C176.386 145.869 176.476 145.104 176.328 144.375C176.532 144.066 176.74 143.746 176.965 143.412C176.635 143.403 176.305 143.397 175.975 143.393Z" fill="#EF4036"/>
<path d="M149.138 142.466C148.704 142.449 148.273 142.431 147.84 142.414C147.401 142.011 146.871 141.707 146.301 141.548C146.112 141.295 145.891 141.068 145.645 140.877C144.346 139.874 142.146 139.807 140.999 141.154C140.784 141.407 140.566 141.655 140.347 141.906C139.311 141.304 137.999 141.269 136.955 141.848C135.688 140.66 133.827 140.751 132.529 141.803C132.512 141.786 132.5 141.767 132.482 141.75C131.32 140.588 129.219 140.465 128.012 141.642C127.898 141.634 127.783 141.627 127.669 141.619C127.081 141.402 126.451 141.357 125.851 141.484C125.802 141.479 125.754 141.475 125.705 141.473C124.603 140.545 123.145 140.545 121.959 141.222C121.713 141.224 121.468 141.233 121.23 141.248C120.236 140.611 118.778 140.429 117.819 141.139C117.815 141.143 117.808 141.147 117.804 141.149C117.045 140.478 115.883 140.527 115.154 141.226C111.915 144.335 109.042 147.712 106.151 151.128C105.918 151.391 105.688 151.659 105.472 151.932C104.402 153.197 104.23 155.032 105.472 156.273C106.76 157.562 108.503 157.3 109.813 156.273C110.478 155.752 111.121 155.195 111.756 154.627C113.415 154.638 115.075 154.642 116.734 154.678C117.834 155.502 119.239 155.551 120.371 154.869C121.582 155.885 123.475 156.145 124.725 154.899C124.745 154.899 124.764 154.899 124.781 154.901C125.467 155.186 126.205 155.206 126.893 155.002C127.899 156.158 129.697 156.657 131.189 155.825C131.593 155.6 131.987 155.364 132.377 155.122C132.716 155.133 133.055 155.141 133.394 155.152C134.408 155.662 135.469 155.673 136.43 155.264C137.545 156.016 139.082 156.233 140.257 155.463C140.31 155.429 140.362 155.39 140.415 155.354C141.532 155.328 142.358 154.953 143.091 153.864C143.128 153.81 143.166 153.758 143.203 153.705C143.243 153.686 143.284 153.668 143.325 153.647C145.34 152.592 146.68 150.813 147.272 148.731C147.731 148.079 148.162 147.403 148.561 146.702C148.576 146.675 148.591 146.647 148.606 146.619C149.399 145.519 150.154 144.353 150.285 142.826C149.804 142.669 149.476 142.481 149.138 142.466Z" fill="#EF4036"/>
<path d="M3.07817 152.578C5.94262 153.575 8.81986 154.846 11.7829 155.185C18.5603 155.959 25.387 156.396 32.2051 156.692C45.4103 157.26 58.6113 156.388 71.8144 156.287C85.5792 156.18 99.3463 156.195 113.111 156.33C121.692 156.413 130.268 156.81 138.846 157.091C143.739 157.25 148.632 157.417 153.52 157.659C159.137 157.936 164.751 158.332 170.368 158.62C177.838 158.999 185.31 159.31 192.78 159.677C200.426 160.05 208.073 160.429 215.717 160.854C220.324 161.111 224.93 161.437 229.533 161.782C232.198 161.981 234.855 162.279 237.05 162.49C239.471 162.335 241.405 162.164 243.341 162.104C245.768 162.026 247.23 160.682 248.21 158.622C249.884 155.093 250.24 151.362 249.863 147.533C249.732 146.197 248.973 145.305 247.608 145.093C245.243 144.722 242.88 144.259 240.498 144.089C234.694 143.68 228.879 143.384 223.067 143.099C217.625 142.833 212.179 142.593 206.733 142.425C201.47 142.265 196.202 142.254 190.938 142.102C181.429 141.825 171.92 141.508 162.414 141.167C159.845 141.075 157.255 140.991 154.732 140.569C153.816 140.414 153.085 140.146 152.139 140.498C151.395 140.772 150.505 140.745 149.689 140.708C142.403 140.38 135.12 140.048 127.836 139.664C117.693 139.13 107.554 138.438 97.4038 138.019C84.7646 137.498 72.1166 137.149 59.471 136.808C53.0131 136.632 46.5424 136.804 40.091 136.51C34.9538 136.276 29.8402 135.541 24.7095 135.093C21.4934 134.812 18.2496 134.78 15.0463 134.4C10.9576 133.916 7.14978 134.898 3.45128 136.366C2.56364 136.718 1.77031 137.769 1.32649 138.686C-0.262255 141.975 -0.176435 145.511 0.314554 149.014C0.537536 150.624 1.48084 152.022 3.07817 152.578ZM182.703 143.673C186.946 143.804 191.189 143.933 195.432 144.061C200.031 144.203 204.632 144.321 209.229 144.488C215.134 144.7 221.045 144.823 226.937 145.226C232.633 145.616 238.315 146.255 243.991 146.902C246.692 147.211 247.415 148.204 247.404 150.965C247.4 151.885 247.43 152.824 247.256 153.718C246.433 157.936 244.001 159.788 238.834 159.975C235.976 160.078 233.103 160.009 230.245 159.867C217.711 159.241 205.179 158.534 192.645 157.908C186.376 157.597 180.1 157.404 173.828 157.138C173.215 157.112 172.606 156.945 171.609 156.778C172.551 155.011 173.194 153.377 174.195 152.007C176.035 149.486 178.145 147.162 180.023 144.666C180.775 143.667 181.678 143.641 182.703 143.673ZM165.134 143.067C168.829 143.491 172.591 143.313 176.97 143.41C175.687 145.329 174.798 146.789 173.783 148.159C171.982 150.596 170.081 152.961 168.275 155.397C167.669 156.216 167 156.608 165.96 156.553C162.006 156.34 158.051 156.192 154.097 156C153.752 155.982 153.411 155.819 152.823 155.656C154.406 152.097 156.496 149.04 158.683 146.008C160.33 143.725 162.182 142.728 165.134 143.067ZM151.983 145.234C153.115 143.472 154.412 142.233 157.041 143.082C156.209 146.233 154.075 148.474 152.465 151.002C151.878 151.926 150.962 152.663 150.467 153.624C149.442 155.618 147.956 156.139 145.763 155.41C145.859 155.015 145.857 154.544 146.072 154.211C148.023 151.208 150.045 148.249 151.983 145.234ZM123.683 141.298C132.129 142.095 140.649 142.112 149.138 142.466C149.476 142.481 149.804 142.67 150.276 142.822C150.12 144.655 149.065 145.967 148.123 147.269C146.503 149.509 144.624 151.57 143.085 153.86C142.283 155.05 141.374 155.388 140.096 155.35C132.528 155.12 124.959 154.893 117.391 154.689C114.987 154.623 112.584 154.644 110.18 154.61C109.295 154.597 108.407 154.535 107.206 154.479C109.194 150.687 111.486 147.539 114.209 144.642C116.842 141.844 119.685 140.92 123.683 141.298ZM113.09 141.013C111.128 146.111 106.323 149.091 104.655 154.259C103.919 154.301 103.158 154.346 102.142 154.404C103.935 149.104 107.68 145.412 110.448 140.886C111.344 140.929 112.05 140.963 113.09 141.013ZM107.517 140.667C105.682 143.553 104.142 146.025 102.547 148.463C101.591 149.921 100.433 151.259 99.5778 152.771C98.8445 154.063 97.9525 154.516 96.4731 154.505C88.1649 154.441 79.8567 154.462 71.5485 154.486C66.4714 154.501 61.3942 154.574 56.3171 154.612C55.9548 154.617 55.5925 154.544 54.9385 154.475C57.4621 148.502 61.7803 144.145 65.5581 138.989C79.1793 139.422 93.0664 139.475 107.517 140.667ZM61.6387 139.167C61.3042 139.99 61.1112 140.882 60.631 141.574C58.0109 145.354 55.2751 149.053 52.6787 152.85C51.5381 154.518 50.1681 155.144 47.9404 154.458C48.768 153.182 49.4928 151.937 50.3418 150.783C52.8503 147.376 55.3996 143.997 57.9553 140.622C58.785 139.529 59.589 138.29 61.6387 139.167ZM3.26033 139.432C3.69343 138.197 4.73121 137.704 6.00907 137.406C11.8002 136.06 17.5119 136.669 23.3072 137.55C28.022 138.264 32.8312 138.478 37.6081 138.609C42.7667 138.748 47.936 138.519 53.0989 138.485C53.8107 138.48 54.5247 138.667 56.0663 138.879C54.1216 141.707 52.5843 144.091 50.8927 146.36C49.2975 148.5 47.5116 150.498 45.8757 152.608C45.4469 153.159 45.2624 153.898 44.8787 154.741C42.5009 154.741 40.0246 154.837 37.5589 154.724C29.9968 154.374 22.4239 154.13 14.8897 153.461C11.7315 153.18 8.62695 152.039 5.56309 151.081C3.69991 150.5 2.5722 149.121 2.25488 147.033C1.84966 144.37 2.4027 141.883 3.26033 139.432Z" fill="#251C1C"/>
<path d="M247.011 10.9865C247.88 7.30734 246.709 4.23704 244.756 1.37473C243.463 -0.522763 241.364 -0.434857 240.271 1.50766C239.374 3.09426 238.47 4.85454 238.27 6.6191C237.541 13.0341 236.919 19.4748 236.617 25.9242C236.349 31.6423 236.561 37.3841 236.561 43.1152C236.587 43.1152 236.611 43.1152 236.636 43.1152C236.746 45.4222 236.906 47.7271 236.954 50.0362C237.048 54.6567 236.896 59.2878 237.179 63.8932C237.764 73.4707 238.774 83.0246 239.211 92.6043C239.52 99.4374 239.857 106.251 241.128 112.968C241.636 115.649 242.342 118.363 244.207 120.543C245.451 121.997 246.587 121.993 247.824 120.55C248.952 119.233 249.374 117.694 249.554 115.981C250.532 106.725 249.535 97.512 248.855 88.3097C248.358 81.5924 247.042 74.933 246.639 68.2135C246.051 58.4473 245.834 48.6511 245.697 38.8635C245.605 32.3134 245.854 25.7526 246.09 19.2025C246.188 16.4517 246.383 13.6516 247.011 10.9865ZM238.907 22.4572C239.235 18.0405 239.501 13.6173 239.983 9.2177C240.23 6.97716 240.74 4.72161 242.237 2.8863C244.216 4.01407 244.764 5.03892 244.61 6.66197C244.353 9.39993 244.151 12.1443 243.965 14.8887C243.768 17.8282 243.626 20.7699 243.435 23.7094C243.405 24.1553 243.236 24.5927 243.178 24.8457C241.69 24.91 240.352 24.97 238.898 25.0322C238.898 24.2775 238.838 23.362 238.907 22.4572ZM240.652 28.7479C243.632 34.6548 243.896 44.5774 241.139 47.4848C239.582 46.5242 239.649 44.7897 239.456 43.3703C238.8 38.4754 238.388 33.557 240.652 28.7479ZM246.593 86.6159C247.116 93.0545 247.668 99.4952 247.959 105.947C248.103 109.159 247.751 112.398 247.496 115.616C247.43 116.461 246.883 117.267 246.557 118.093C246.325 118.086 246.092 118.08 245.858 118.076C245.523 117.565 245.013 117.096 244.88 116.538C244.156 113.498 243.465 110.445 242.886 107.375C242.528 105.473 242.318 103.537 242.164 101.607C241.561 94.0686 240.972 86.5259 240.446 78.9809C239.84 70.2375 238.926 61.509 239.064 52.7248C239.072 52.1888 239.119 51.6507 239.139 51.3033C240.631 50.9217 241.958 50.5829 243.399 50.2163C243.433 50.3557 243.575 50.6966 243.594 51.0439C243.871 56.1124 244.066 61.1874 244.421 66.2517C244.64 69.3734 245.112 72.478 245.448 75.5933C245.847 79.2661 246.295 82.9346 246.593 86.6159Z" fill="#251C1C"/>
<path d="M233.032 17.8175C232.82 16.8613 231.962 16.2609 230.908 16.5718C229.981 16.8462 229.606 17.6417 229.958 18.5401C231.343 22.0649 230.455 24.9958 227.721 27.4593C226.894 28.2055 226.806 28.973 227.711 30.2959C228.489 29.8092 229.267 29.5005 229.805 28.9559C231.864 26.859 233.03 24.3054 233.219 21.3681C233.296 20.1888 233.289 18.9603 233.032 17.8175Z" fill="#251C1C"/>
<path d="M201.073 118.972C202.54 120.835 204.176 122.167 206.51 122.379C208.704 122.579 210.921 122.656 213.121 122.585C216.24 122.486 218.626 120.602 221.073 118.959C226.92 115.036 230.239 109.534 231.261 102.581C231.872 98.4237 231.607 94.3135 231.008 90.1777C230.271 85.0619 229.503 79.9527 227.299 75.2272C226.101 72.6543 224.968 69.897 223.142 67.8044C219.625 63.7779 215.067 60.2788 208.354 63.4155C203.886 65.5039 200.878 68.6728 198.762 72.8794C195.32 79.7232 194.609 87.1545 194.21 95.0725C194.414 97.4267 194.585 100.195 194.9 102.945C195.569 108.812 197.347 114.234 201.073 118.972ZM214.18 66.1428C216.793 66.0399 218.326 66.9318 219.692 68.289C222.822 71.4 224.947 75.1006 226.375 79.2558C226.83 80.5723 226.536 81.3806 225.277 81.893C223.83 82.4826 222.391 83.0937 220.94 83.6726C218.219 84.7553 216.808 83.9899 216.225 81.1319C216.152 80.7717 216.18 80.345 215.993 80.0598C213.903 76.8545 214.529 73.1196 213.976 69.6247C213.802 68.5291 214.098 67.3606 214.18 66.1428ZM212.353 81.7644C214.808 83.7626 214.9 85.8874 212.679 89.0413C211.373 86.5885 211.176 84.2751 212.353 81.7644ZM199.075 78.3854C200.7 72.5471 203.661 67.7401 209.782 65.6432C210.02 65.5617 210.314 65.6325 211.135 65.6325C211.264 69.1959 211.395 72.5814 211.497 75.9669C211.51 76.415 211.553 77.0496 211.296 77.2919C209.484 78.975 209.218 81.3334 208.438 83.4689C208.38 83.6233 208.193 83.7305 207.955 83.9749C205.668 83.7819 203.307 83.5525 201.148 82.3883C199.283 81.3827 198.545 80.2914 199.075 78.3854ZM197.394 85.5915C197.447 85.167 197.677 84.7618 197.936 84.0349C201.29 86.3012 204.862 87.311 208.809 87.0881C209.175 88.1579 209.418 89.1356 209.836 90.034C211.137 92.8234 214.158 93.2179 215.254 90.4242C216.487 87.281 218.738 86.968 221.349 86.4234C223.358 86.0053 225.273 85.1477 227.595 84.3608C227.917 85.9153 228.425 87.7377 228.65 89.5966C229.199 94.0777 229.743 98.533 228.899 103.091C227.458 110.861 222.764 115.958 215.921 119.189C212.87 120.628 209.448 120.492 206.18 119.455C205.597 119.27 205.074 118.807 204.604 118.385C202.096 116.123 200.342 113.426 199.216 110.182C196.42 102.122 196.356 93.9083 197.394 85.5915Z" fill="#251C1C"/>
<path d="M200.224 32.2008C199.656 32.1022 198.903 33.0584 197.735 33.886C200.569 35.3161 202.823 36.4503 205.164 37.6296C204.896 38.4036 204.741 39.0211 204.48 39.5871C203.202 42.3443 201.875 45.0802 200.608 47.8417C199.302 50.689 199.587 51.2808 202.527 52.1019C202.79 52.177 203.061 52.2413 203.314 52.3421C205.848 53.3412 205.863 53.3005 206.988 50.9892C208.509 47.8653 210.102 44.7778 211.808 41.3881C214.347 42.5866 216.315 43.5686 218.333 44.4412C219.034 44.7435 220.228 45.1552 220.535 44.8507C221.075 44.3126 221.319 43.262 221.315 42.428C221.281 38.0026 221.131 33.5795 221.023 29.1541C220.957 26.2897 220.94 23.4488 222.304 20.7751C222.846 19.7074 223.101 18.4746 221.652 17.4797C221.058 17.7735 220.34 17.9965 219.786 18.4296C217.539 20.1877 215.348 22.0166 213.129 23.8111C210.271 26.1246 207.454 28.4959 204.519 30.7064C203.309 31.6155 202.021 32.5074 200.224 32.2008ZM219.029 21.7121C219.029 28.2901 219.029 34.6751 219.029 41.1072C216.435 41.6282 215.026 40.2603 213.689 38.901C212.955 38.157 212.385 37.3358 211.157 37.6939C210.001 38.0284 209.653 38.9139 209.445 39.9666C208.719 43.6586 206.57 46.6689 204.846 49.8121C202.975 49.8142 202.827 48.7529 203.333 47.5887C204.579 44.7264 205.951 41.9177 207.287 39.094C207.443 38.7659 207.73 38.5001 207.908 38.1806C208.83 36.5104 208.519 35.657 206.746 35.0396C206.086 34.808 205.402 34.6407 204.729 34.4435C204.666 34.2248 204.606 34.004 204.544 33.7853C209.814 30.2669 213.86 25.2777 219.029 21.7121Z" fill="#251C1C"/>
<path d="M216.448 10.8323C217.782 10.6115 218.959 10.2427 218.746 8.20801C213.648 8.68399 209.786 10.5986 207.67 15.1805C207.299 15.9845 207.014 16.9751 207.136 17.8134C207.229 18.448 208.009 19.4343 208.528 19.46C209.581 19.5157 210.138 18.671 209.803 17.5411C209.383 16.1217 210.065 15.0347 210.82 13.9691C212.194 12.0309 214.197 11.2054 216.448 10.8323Z" fill="#251C1C"/>
<path d="M206.512 112.568C208.991 112.474 211.474 112.433 213.942 112.206C215.644 112.049 215.948 111.502 216.075 109.045C212.668 109.223 209.482 109.346 206.305 109.581C205.374 109.652 204.872 110.37 204.975 111.35C205.07 112.251 205.685 112.6 206.512 112.568Z" fill="#251C1C"/>
<path d="M168.172 23.5277C167.696 23.2769 167.184 23.1632 166.633 23.1847C165.913 23.1868 165.239 23.3691 164.617 23.7293C164.388 23.8644 164.182 24.0252 163.987 24.1967C163.676 24.4154 163.417 24.6855 163.209 25.0071C162.862 25.3866 162.628 25.8305 162.508 26.3407C162.461 26.6881 162.414 27.0354 162.369 27.3828C162.347 27.9231 162.461 28.4269 162.707 28.8943C162.799 29.2266 162.969 29.5161 163.211 29.7605C163.488 30.1872 163.854 30.5238 164.311 30.7703C164.624 30.9011 164.935 31.0341 165.248 31.1649C165.943 31.3514 166.637 31.3514 167.334 31.1649C167.411 31.1542 167.48 31.1349 167.551 31.1091C167.784 31.0255 168.327 30.8089 168.543 30.6889C168.58 30.6696 168.616 30.6503 168.651 30.6267C169.251 30.2708 169.729 29.7948 170.083 29.1945C170.445 28.5706 170.625 27.8995 170.627 27.1791C170.58 26.8253 170.533 26.4715 170.484 26.1178C170.295 25.4402 169.952 24.8528 169.457 24.3554C169.094 23.9651 168.668 23.6907 168.172 23.5277Z" fill="#EF4036"/>
<path d="M81.913 11.1827C82.3975 9.05795 81.2674 7.2355 79.267 6.52153C76.7671 5.62961 73.787 5.55886 71.1669 5.85259C69.6511 6.02197 68.2103 6.28782 66.8424 6.99536C66.2764 7.2891 65.7317 7.66862 65.23 8.06312C64.6489 8.51981 64.3617 9.07083 63.9243 9.64114C63.3175 10.4344 63.9735 11.6716 64.8397 11.8924C65.365 12.0253 65.8261 12.2505 66.3686 12.3234C66.8874 12.3941 67.3376 12.4305 67.7729 12.4884C68.965 12.6471 70.1571 12.6106 71.3556 12.6492C71.8616 12.6664 72.3654 12.7007 72.8692 12.7543C72.9421 12.7629 72.9894 12.765 73.0172 12.7672C73.0773 12.7779 73.1459 12.7908 73.2316 12.8058C73.4782 12.8508 73.7247 12.8958 73.9691 12.9473C75.0818 13.181 76.154 13.5412 77.2517 13.8285C79.1664 14.3302 81.4541 13.196 81.913 11.1827Z" fill="#EF4036"/>
<path d="M178.968 10.1544C181.8 11.3615 185.141 11.1042 188.177 11.0999C189.504 11.0978 190.833 11.0142 192.16 10.9627C194.154 10.8877 196.09 10.9713 197.919 10.0451C199.456 9.26463 200.211 7.32853 199.995 5.71406C199.757 3.93878 198.547 2.68022 196.882 2.10133C195.327 1.56103 193.554 1.96839 191.952 2.12491C190.503 2.26642 189.051 2.38863 187.606 2.58374C186.183 2.77456 184.761 2.99326 183.34 3.20123C181.837 3.42207 180.291 3.67722 178.968 4.47267C177.062 5.61759 176.59 9.14242 178.968 10.1544Z" fill="#EF4036"/>
<path d="M181.877 25.218C181.523 24.9436 181.17 24.6713 180.814 24.3968C179.995 23.9209 179.111 23.6829 178.164 23.6807C177.441 23.6529 176.766 23.8051 176.14 24.1331C175.488 24.3454 174.926 24.7077 174.45 25.218C173.938 25.694 173.575 26.2579 173.365 26.9075C173.037 27.5336 172.885 28.2068 172.913 28.9315L173.102 30.3273C173.35 31.2171 173.8 31.9889 174.452 32.645C174.806 32.9194 175.16 33.1918 175.516 33.4662C176.335 33.9422 177.218 34.1802 178.166 34.1823C178.888 34.2102 179.564 34.058 180.19 33.7299C180.842 33.5176 181.403 33.1553 181.879 32.645C182.392 32.169 182.754 31.6052 182.964 30.9555C183.292 30.3295 183.445 29.6562 183.417 28.9315C183.355 28.4663 183.292 28.001 183.228 27.5357C182.979 26.646 182.529 25.8741 181.877 25.218Z" fill="#EF4036"/>
<path d="M95.2726 87.2197C95.2555 86.9024 95.2147 86.5894 95.1589 86.2806C95.2576 86.2013 95.3585 86.1241 95.4571 86.0448C97.3374 84.5375 97.316 83.9715 95.4142 82.402C93.2208 80.5882 90.9352 78.8901 88.6818 77.1491C88.5274 76.9711 88.3731 76.791 88.2209 76.6109C87.88 76.2079 87.4062 75.9184 86.8809 75.7362C85.5709 74.6792 84.2844 73.5235 82.5241 72.0205C82.5798 72.8074 82.6334 73.5857 82.687 74.3597C82.3289 74.5333 82.0095 74.7971 81.7758 75.1122C80.7252 76.5316 80.7745 78.219 80.7488 79.9192C80.7273 81.4029 80.7016 82.8887 80.6845 84.3724C80.6673 85.7853 80.6995 87.2004 80.7123 88.6133C80.7188 89.3209 80.7253 90.0263 80.7339 90.7338C80.7382 91.0876 80.7403 91.4414 80.7446 91.793C80.7467 91.9238 80.6823 92.7943 80.7573 92.5498C80.0069 94.9705 82.569 97.8456 85.1011 96.8937C87.2752 96.0747 89.3635 94.7797 91.3725 93.6133C93.6581 92.284 95.4249 89.9813 95.2726 87.2197Z" fill="#EF4036"/>
<path d="M12.9515 13.0574C15.4086 13.8636 17.8486 14.1102 20.4258 14.2645C22.9236 14.4146 25.4107 14.5304 27.9128 14.5776C29.5144 14.6076 30.878 13.1925 30.878 11.6123C30.878 10.0193 29.5208 8.62998 27.9128 8.64713C25.4107 8.675 22.9236 8.76933 20.4258 8.90011C17.8529 9.03519 15.4108 9.2646 12.9515 10.0515C11.4657 10.5275 11.4807 12.5729 12.9515 13.0574Z" fill="#EF4036"/>
<path d="M202.743 7.7191C202.893 5.37993 201.905 3.66257 200.333 2.83496C192.716 3.669 185.593 3.76333 178.194 3.36668C177.714 5.30276 177.287 7.15093 176.79 8.98195C176.191 11.1882 176.397 11.6449 178.773 11.6277C181.708 11.6063 184.643 11.3318 187.576 11.1067C191.689 10.7915 195.794 10.3263 199.911 10.1162C201.933 10.0154 202.619 9.67876 202.743 7.7191ZM198.567 8.08789C197.865 8.24655 197.102 8.1029 196.378 8.18866C192.559 8.6432 188.749 9.19207 184.922 9.57586C183.213 9.74524 181.474 9.60373 179.59 9.60373C179.598 6.01673 180.222 5.39281 183.129 5.64581C183.951 5.71871 184.78 5.72944 185.606 5.708C189.821 5.60294 194.036 5.48071 198.254 5.36278C199.015 5.34134 199.787 5.33491 199.932 6.32975C200.085 7.36319 199.42 7.89279 198.567 8.08789Z" fill="#251C1C"/>
<path d="M187.906 67.0901C188.204 60.169 188.552 53.2437 189.148 46.342C189.675 40.2422 189.877 34.1617 189.017 28.1004C188.696 25.8427 187.93 23.6365 187.25 21.4431C186.723 19.7429 185.559 19.1447 183.672 19.2069C180.636 19.3098 177.585 19.0161 174.542 18.8746C167.624 18.5551 160.709 18.0405 153.786 17.959C147.326 17.8818 140.86 18.4243 134.397 18.3986C126.278 18.3664 118.158 17.9891 110.039 17.8411C101.265 17.6803 92.4896 17.4316 83.7183 17.5517C74.7626 17.676 65.8153 18.2571 56.8596 18.5315C51.4116 18.7009 45.9551 18.5744 40.507 18.7524C33.4059 18.9839 26.3112 19.3977 19.2122 19.7043C17.4541 19.7793 16.232 20.4161 16.5043 21.3252C16.9288 22.7446 18.2153 22.5709 19.2809 22.4508C20.831 22.275 22.3532 21.754 23.9034 21.6661C29.6151 21.3445 35.3333 20.9221 41.0472 20.9393C54.2482 20.9736 67.4278 20.4783 80.618 20.0388C90.6693 19.7043 100.744 20.0838 110.81 20.1889C118.66 20.2703 126.509 20.4998 134.361 20.5169C143.507 20.5341 152.656 20.2532 161.798 20.3754C166.402 20.4397 170.996 21.1194 175.597 21.5032C177.714 21.679 179.862 21.6554 181.939 22.0306C183.016 22.2257 184.332 22.8496 184.918 23.7051C187.07 26.8397 186.807 30.431 186.597 34.1895C180.572 33.7586 174.851 33.3491 168.812 32.9181C169.631 31.8354 170.428 31.2115 170.621 30.4353C171.018 28.838 171.082 27.1592 171.299 25.5168C171.481 24.1146 170.801 23.4478 169.468 23.317C167.634 23.1369 165.801 22.9332 163.964 22.7875C162.885 22.7038 161.957 23.3792 161.918 24.2819C161.835 26.1836 161.989 28.1283 162.347 29.9979C162.459 30.5725 163.486 31.1107 164.202 31.4001C165.162 31.7882 166.228 31.9169 167.249 32.1591C167.223 32.3521 167.197 32.5451 167.173 32.7359C164.828 32.9396 162.487 32.6672 160.13 32.5365C155.656 32.2878 151.402 30.6176 146.816 30.8727C142.868 31.0892 138.883 30.5489 134.912 30.4567C123.645 30.1973 112.374 29.9593 101.104 29.7878C96.8592 29.7213 92.6097 29.9379 88.3644 29.895C75.1528 29.7685 61.9454 29.4898 48.7359 29.4405C38.9547 29.404 29.1734 29.6313 19.3923 29.7428C19.2079 29.7449 18.9763 29.6806 18.8498 29.7685C18.4938 30.0129 17.9301 30.3066 17.913 30.609C17.883 31.0721 18.1145 31.7239 18.4683 31.994C18.8585 32.2899 19.5123 32.3499 20.0462 32.3328C22.5354 32.2535 25.0226 32.039 27.5118 32.0069C39.9752 31.8439 52.4408 31.651 64.9063 31.6145C72.2862 31.591 79.6638 31.8697 87.0437 31.9511C91.2868 31.9983 95.5321 31.8289 99.7709 31.9254C104.475 32.0305 109.172 32.3928 113.874 32.5215C122.371 32.753 130.875 32.8302 139.369 33.1003C142.757 33.2076 146.198 33.1668 149.434 34.5497C149.974 34.7813 150.692 34.6162 151.327 34.5991C152.705 34.5626 154.093 34.3675 155.458 34.4768C163.917 35.1501 172.373 35.8426 180.82 36.638C182.881 36.831 184.905 37.4292 187.064 37.8645C186.809 43.4776 186.622 48.7284 186.322 53.9727C185.904 61.2432 185.246 68.503 184.96 75.7799C184.422 89.6219 184.079 103.473 183.638 117.319C183.595 118.61 183.376 119.894 183.337 121.185C183.307 122.205 183.337 123.333 184.716 123.504C185.91 123.655 186.721 122.668 186.785 121.118C186.796 120.844 186.732 120.565 186.732 120.29C186.747 112.896 186.639 105.497 186.815 98.106C187.06 87.7652 187.458 77.4244 187.906 67.0901ZM167.986 28.8766C164.56 29.2818 164.33 29.0738 164.751 26.0207C165.838 25.8427 167.118 25.3346 167.915 26.4216C168.318 26.9705 167.986 28.0597 167.986 28.8766Z" fill="#251C1C"/>
<path d="M174.043 30.4116C175.604 30.2444 176.738 30.1243 177.857 30.0064C178.048 30.3216 178.269 30.5381 178.316 30.7868C178.496 31.756 178.927 32.3992 180.001 31.9875C181.131 31.5566 181.15 30.7161 180.666 29.732C180.389 29.1702 180.211 28.5592 180.012 28.0317C180.801 27.1291 181.498 26.3315 182.19 25.5382C180.781 24.2689 180.782 24.2689 178.241 25.2187C178.097 25.1158 177.896 25.0451 177.825 24.9057C177.364 23.988 176.697 23.2912 175.651 23.8058C174.639 24.3032 174.78 25.1909 175.136 26.1771C175.34 26.7432 175.141 27.5043 174.98 28.1389C174.81 28.7972 174.469 29.4082 174.043 30.4116Z" fill="#251C1C"/>
<path d="M177.814 45.8976C176.905 44.7141 175.728 44.6326 174.347 44.8856C171.813 45.3487 169.264 45.9298 166.704 46.0112C156.86 46.3243 147.011 46.4593 137.163 46.6609C135.658 46.2127 134.558 46.8646 134.732 47.8229C134.98 49.1844 136.061 49.0601 137.118 49.0086C144.198 48.6741 151.279 48.1724 158.361 48.1081C164.236 48.0566 170.115 47.0254 175.994 48.0202C176.35 48.0802 176.742 48.0524 177.096 47.9688C178.217 47.7007 178.516 46.8131 177.814 45.8976Z" fill="#251C1C"/>
<path d="M177.152 53.8789C177.103 52.8433 176.487 52.5624 175.447 52.6525C170.229 53.1049 165.006 53.8017 159.783 53.7996C153.018 53.7953 146.185 55.2961 139.477 53.1756C138.54 52.8776 137.815 53.4501 137.605 54.357C137.393 55.2768 137.862 55.9951 138.788 56.2352C139.311 56.3681 139.888 56.3167 140.439 56.2974C143.473 56.1837 146.505 56.0165 149.539 55.9415C156.811 55.7592 164.088 55.6156 171.363 55.4569C171.365 55.3754 171.369 55.2961 171.371 55.2146C172.744 55.3497 174.112 55.5405 175.486 55.607C176.618 55.6606 177.203 54.9702 177.152 53.8789Z" fill="#251C1C"/>
<path d="M175.389 73.4486C174.257 73.4486 173.164 73.38 172.079 73.4636C170.064 73.618 168.061 73.9482 166.043 74.0511C161.526 74.2805 157.006 74.5142 152.484 74.555C148.544 74.5893 144.581 75.3075 140.651 74.2483C139.391 73.9074 138.177 75.0031 138.267 76.2359C138.364 77.5738 139.388 77.4966 140.325 77.4408C143.824 77.2393 147.324 77.0056 150.823 76.8105C152.203 76.7333 153.591 76.789 154.967 76.6797C160.756 76.2209 166.547 75.8907 172.358 76.2187C172.997 76.253 173.674 76.2852 174.279 76.118C175.402 75.8071 175.996 75.0845 175.389 73.4486Z" fill="#251C1C"/>
<path d="M150.778 12.9239C157.763 12.7716 164.695 11.4595 171.717 12.032C173.314 12.1627 173.777 11.5538 173.91 9.89431C174.079 7.78242 173.826 5.83562 172.092 4.70142C165.145 5.06591 158.621 5.51186 152.09 5.71555C147.422 5.86135 147.178 5.98355 147.853 10.5354C148.153 12.5722 148.698 12.9689 150.778 12.9239ZM151.151 8.15334C156.668 7.78671 162.186 7.42438 167.707 7.10063C168.528 7.05346 169.39 7.10062 170.175 7.31289C170.591 7.42652 171.153 7.97968 171.166 8.35275C171.183 8.77941 170.709 9.26612 170.359 9.64562C170.211 9.80642 169.838 9.78283 169.566 9.79998C163.953 10.1237 158.342 10.4496 152.729 10.7476C152.105 10.7798 151.473 10.649 150.666 10.5804C150.604 9.81285 150.548 9.13531 150.503 8.57786C150.857 8.33987 150.996 8.16192 151.151 8.15334Z" fill="#251C1C"/>
<path d="M141.826 118.711C142.911 118.848 143.413 117.982 143.503 116.94C143.72 114.378 143.835 111.8 144.191 109.255C144.408 107.714 144.191 106.009 145.388 104.412C147.094 109.35 148.734 114.035 150.323 118.736C150.604 119.568 150.844 120.544 151.873 120.237C152.519 120.044 152.971 119.195 153.499 118.631C153.55 118.578 153.518 118.451 153.537 118.361C154.513 113.576 155.332 108.769 155.626 103.885C155.643 103.582 155.728 103.284 155.876 102.474C156.284 103.267 156.481 103.557 156.588 103.874C158.132 108.494 159.701 113.106 161.166 117.75C161.475 118.726 161.779 119.575 162.885 119.556C163.983 119.536 164.399 118.704 164.56 117.694C165.13 114.15 165.73 110.61 166.314 107.069C166.498 105.96 166.67 104.847 166.845 103.737C167.051 103.73 167.255 103.724 167.461 103.717C167.894 104.697 168.492 105.641 168.73 106.668C169.416 109.626 170.027 112.609 170.52 115.606C170.722 116.822 170.947 117.759 172.366 117.815C173.799 116.863 174.148 115.821 173.076 114.328C172.628 113.704 172.512 112.787 172.405 111.983C171.644 106.262 169.002 101.155 167.431 95.7458C164.684 96.1531 164.543 96.2796 164.478 98.5909C164.35 103.201 164.547 107.834 163.385 112.358C163.269 112.808 163.008 113.218 162.667 113.972C160.996 110.722 160.353 107.57 159.416 104.504C158.492 101.479 157.701 98.3551 155.992 95.6235C153.927 96.5841 153.859 96.5777 153.737 98.1107C153.544 100.501 153.456 102.903 153.325 105.298C153.158 108.391 153.001 111.485 151.586 114.53C149.513 108.329 146.52 102.485 145.456 95.9923C142.684 95.868 142.242 96.2132 142.455 98.4859C142.928 103.584 142.605 108.612 141.303 113.574C141.046 114.553 140.932 115.568 140.739 116.565C140.542 117.577 140.692 118.569 141.826 118.711Z" fill="#251C1C"/>
<path d="M139.999 91.7602C140.568 91.9724 141.277 91.8652 141.916 91.803C146.858 91.3185 151.79 90.6774 156.74 90.3536C161.033 90.0706 165.325 89.3245 169.669 90.0835C170.421 90.2164 171.343 89.376 172.186 88.9857C172.162 88.6556 172.139 88.3275 172.115 87.9995C171.32 87.71 170.505 87.1333 169.729 87.1805C165.312 87.4399 160.91 87.918 156.496 88.1882C151.346 88.5012 146.187 88.6791 141.031 88.915C140.664 88.9321 140.162 88.7756 139.957 88.9622C139.457 89.4103 138.869 89.972 138.769 90.5659C138.711 90.9025 139.485 91.5672 139.999 91.7602Z" fill="#251C1C"/>
<path d="M170.252 65.8105C168.158 66.0077 166.074 66.3251 163.977 66.4902C158.653 66.9104 153.325 67.2749 148.001 67.6587C147.995 67.5815 147.991 67.5021 147.986 67.4228C145.958 67.4228 143.926 67.4871 141.902 67.3971C140.735 67.3456 139.839 67.5686 139.612 68.8079C139.436 69.7727 140.497 70.3923 142.079 70.2315C143.083 70.1286 144.063 69.7748 145.062 69.7212C149.571 69.4747 154.084 69.2946 158.595 69.093C162.549 68.9151 166.504 68.7543 170.458 68.5613C171.487 68.512 172.311 68.0918 172.163 66.8847C172.025 65.7676 171.095 65.7312 170.252 65.8105Z" fill="#251C1C"/>
<path d="M170.503 59.894C169.159 59.7075 167.772 59.7289 166.41 59.8018C162.186 60.0227 157.971 60.4065 153.747 60.533C148.503 60.6916 143.254 60.6723 138.008 60.6916C136.7 60.6959 135.911 61.1869 135.673 63.1273C136.693 63.2259 137.564 63.466 138.394 63.3695C148.368 62.2032 158.366 62.0123 168.385 62.499C169.022 62.5312 169.714 62.5269 170.295 62.3104C170.799 62.1217 171.537 61.5986 171.53 61.2341C171.521 60.7602 170.928 59.9541 170.503 59.894Z" fill="#251C1C"/>
<path d="M137.849 84.7646C142.926 84.7303 148.003 84.623 153.08 84.5587C158.05 84.4987 163.018 83.6882 167.994 84.5973C168.64 84.7152 169.51 84.4387 170.044 84.0356C170.439 83.7376 170.711 82.8542 170.559 82.3868C170.413 81.9365 169.641 81.3769 169.165 81.3962C166.316 81.5077 163.471 81.7393 160.63 81.9944C153.085 82.6677 145.544 82.6291 138.003 82.2281C137.92 82.0309 137.838 81.8358 137.757 81.6407C137.109 82.1445 136.226 82.524 135.874 83.1844C135.443 83.9949 136.376 84.7731 137.849 84.7646Z" fill="#251C1C"/>
<path d="M158.737 26.3832C158.852 25.382 158.11 24.9532 157.199 24.816C155.846 24.6123 154.496 24.3893 153.141 24.207C151.014 23.9219 150.527 24.4472 150.701 26.9C152.737 27.243 154.798 27.6096 156.865 27.9334C158.031 28.1156 158.623 27.3802 158.737 26.3832Z" fill="#251C1C"/>
<path d="M130.48 12.9317C133.964 12.9082 137.451 12.5458 140.928 12.2435C141.586 12.1856 142.36 11.8511 142.815 11.3859C143.726 10.4511 144.425 9.28685 143.844 7.89965C143.164 6.27445 141.042 5.00731 139.513 5.21099C133.194 6.04717 126.876 5.7513 120.56 5.21743C118.922 5.08021 118.165 5.49402 117.708 7.09777C117.483 7.88678 117.41 8.71867 117.354 9.04886C117.378 11.4545 117.834 12.3464 119.187 12.4364C122.948 12.6894 126.719 12.9596 130.48 12.9317ZM122.262 7.54158C127.427 7.54372 132.592 7.50085 137.753 7.6252C138.75 7.65093 139.73 8.36062 140.716 8.75512C140.667 9.03599 140.615 9.31685 140.564 9.59772C133.868 11.1865 127.144 11.6732 120.292 9.99439C120.137 8.33061 120.75 7.53944 122.262 7.54158Z" fill="#251C1C"/>
<path d="M20.2349 105.649C20.2628 107.667 20.4217 109.719 20.8526 111.683C21.2235 113.377 21.8945 115.188 23.6977 115.887C26.1783 116.85 28.6998 117.907 31.2984 118.312C36.9565 119.196 42.6832 119.138 48.4186 119.118C58.9416 119.084 69.4669 119.59 79.9921 119.616C87.7621 119.633 95.4849 120.135 103.214 120.808C109.314 121.34 115.403 121.014 121.387 119.616C123.846 119.041 126.404 118.203 127.266 115.549C128.398 112.052 129.584 108.465 129.914 104.841C130.425 99.2452 130.274 93.5848 130.324 87.9503C130.418 77.1271 129.61 66.3489 128.478 55.5986C128.057 51.5957 126.994 47.7042 123.561 45.1077C119.303 41.8895 114.441 39.8548 109.245 38.7699C101.201 37.0869 93.0515 37.8223 84.9427 38.146C79.8891 38.3475 74.8827 39.3617 69.7928 39.1709C68.1354 39.1087 66.4694 39.113 64.812 39.1859C59.0038 39.4367 53.1998 39.7669 47.3916 40.0049C39.8381 40.3158 32.2762 40.4744 24.7291 40.8754C20.203 41.1155 19.2509 41.9003 17.8916 45.6288C16.35 49.8568 16.751 54.1578 17.4971 58.4695C18.076 61.8207 18.8544 65.1611 19.1009 68.538C19.5791 75.0752 19.7419 81.636 20.0356 88.1883C20.0935 88.1883 20.1515 88.1883 20.2094 88.1883C20.2094 94.0094 20.1599 99.8305 20.2349 105.649ZM19.9456 52.4705C19.862 50.648 20.0828 48.7977 20.3315 46.9816C20.4215 46.3299 20.8482 45.4487 21.3777 45.1828C22.7414 44.4967 24.2229 43.757 25.7023 43.6412C32.9706 43.073 40.2305 42.3376 47.5568 42.6764C50.194 42.7965 52.8589 42.0525 55.5218 41.9389C58.9287 41.7952 62.3486 42.0053 65.7534 41.8531C70.8198 41.6258 75.8732 41.1541 80.9374 40.899C90.2319 40.4316 99.5779 39.3167 108.774 41.5058C113.769 42.6957 118.718 44.1944 122.566 48.0794C124.73 50.2621 125.587 52.9121 126.166 55.6994C126.689 58.2186 126.943 60.8044 127.157 63.3751C128.205 75.905 128.825 88.4648 128.319 101.031C128.145 105.317 127.335 109.633 125.487 113.647C124.813 115.105 123.78 116.11 122.339 116.565C120.418 117.169 118.448 117.735 116.458 117.978C109.353 118.846 102.249 118.033 95.1462 117.742C90.901 117.568 86.6536 117.455 82.4062 117.32C77.1447 117.15 71.8853 116.916 66.6217 116.841C60.4318 116.751 54.2354 116.631 48.0541 116.837C42.4902 117.019 36.9801 116.741 31.4956 115.917C29.6882 115.645 27.9 115.079 26.174 114.457C24.1071 113.713 22.8485 112.09 22.4862 109.957C22.2075 108.33 22.1776 106.651 22.1583 104.991C22.1154 101.119 22.1453 97.2469 22.1453 93.3747C22.0424 93.3747 21.9396 93.3726 21.8388 93.3726C21.8388 90.6946 21.9288 88.0124 21.8216 85.3388C21.5107 77.6845 21.1592 70.0324 20.7454 62.3824C20.5653 59.0741 20.0978 55.7809 19.9456 52.4705Z" fill="#251C1C"/>
<path d="M108.726 14.005C110.354 14.0222 111.218 13.647 111.563 12.084C111.76 11.2006 111.831 10.2315 111.696 9.33958C111.394 7.34561 109.708 6.33789 107.708 6.75598C106.992 6.90606 106.252 6.99183 105.521 7.00041C101.276 7.04757 97.0328 7.08188 92.7876 7.07973C91.5912 7.07759 90.4762 7.35418 89.9402 8.42835C89.074 10.1607 88.5081 12.0046 89.4193 14.1808C90.5256 14.1165 91.6126 14.005 92.6997 14.0007C98.0426 13.9793 103.383 13.9429 108.726 14.005ZM94.0675 9.40176C96.6275 9.25382 99.1876 9.09944 101.75 9.0394C103.306 9.00081 104.865 9.14661 106.424 9.18092C107.581 9.20879 108.57 9.45322 108.945 10.7397C106.327 12.0561 94.9294 12.2877 92.007 11.117C92.0692 9.79841 92.9891 9.46394 94.0675 9.40176Z" fill="#251C1C"/>
<path d="M81.7927 97.0467C81.8227 97.8465 81.6426 98.9399 82.7403 99.0536C83.4307 99.1243 84.3313 98.777 84.8888 98.316C88.7802 95.0806 92.6116 91.7724 96.4516 88.4748C97.5022 87.5764 98.5849 86.7017 99.5347 85.7047C100.89 84.2789 100.823 82.9882 99.3653 81.7253C98.2547 80.7626 97.0305 79.935 95.8877 79.0045C91.7497 75.6384 87.6417 72.2357 83.4801 68.8974C82.9741 68.4901 82.0285 68.0162 81.6319 68.2264C81.0315 68.5437 80.7314 69.4356 80.532 69.7379C80.7078 71.5282 80.8987 72.8125 80.948 74.0989C81.246 81.7468 81.5054 89.3967 81.7927 97.0467ZM87.1614 75.9599C89.8972 78.1276 92.7253 80.1773 95.4139 82.4007C97.3157 83.9701 97.3372 84.5362 95.4568 86.0434C92.0285 88.7921 88.4779 91.3929 84.9702 94.0429C84.8416 94.1394 84.625 94.1222 84.0762 94.2316C83.5723 87.0318 83.0727 79.8793 82.5238 72.0192C84.4084 73.6294 85.7485 74.8408 87.1614 75.9599Z" fill="#251C1C"/>
<path d="M66.3362 13.1372C71.7607 13.0857 77.1851 13.0621 82.6074 12.9571C84.4641 12.9228 85.4055 11.5699 85.2018 9.51159C84.9917 7.38255 83.686 6.17328 81.9043 6.43271C80.813 6.59137 79.7216 6.8165 78.6281 6.84223C74.2114 6.943 69.7968 7.02448 65.38 7.00947C64.0378 7.00518 62.8778 7.2003 62.5883 8.6218C62.2882 10.1119 61.971 11.6792 62.6978 13.1393C63.995 13.1393 65.1656 13.1479 66.3362 13.1372ZM67.1895 9.40439C71.9793 9.14067 76.7799 8.52961 81.8827 9.23715C79.758 11.3619 74.6316 11.7435 65.3972 10.2427C65.9932 9.9511 66.5784 9.43869 67.1895 9.40439Z" fill="#251C1C"/>
<path d="M69.4217 97.3064C70.6909 97.1348 71.9625 96.9633 73.2318 96.7918C73.2403 96.8518 73.2466 96.9097 73.2552 96.9697C73.9928 96.9697 74.7304 96.9933 75.4679 96.9654C77.2132 96.8968 77.7728 96.2686 77.5841 94.5362C77.2368 91.333 76.7437 88.1405 76.5186 84.9309C76.1777 80.0832 74.902 75.244 76.2613 70.3556C76.5829 69.2021 76.0834 68.4431 74.9449 67.9886C73.1289 67.266 71.3407 67.4332 69.5226 67.9264C66.5724 68.724 66.27 69.1828 66.8639 72.0965C66.9175 72.3667 66.971 72.639 66.9924 72.9156C67.477 79.1891 67.2133 85.4433 66.5722 91.6954C66.4521 92.8746 66.4243 94.0903 66.5722 95.2609C66.8038 97.122 67.5177 97.5636 69.4217 97.3064ZM69.055 84.7443C69.173 81.1487 69.306 77.5532 69.4175 73.9576C69.5054 71.136 69.9707 70.7329 73.1675 71.0095C73.6735 78.4966 74.1837 86.02 74.7047 93.685C73.95 94.0045 73.3239 94.4012 72.6442 94.5362C69.9041 95.083 68.8792 94.2361 68.8771 91.3973C68.8749 89.1804 68.9843 86.9613 69.055 84.7443Z" fill="#251C1C"/>
<path d="M52.3826 96.7565C54.9383 96.9537 57.4941 97.1553 60.0541 97.2989C61.6622 97.389 62.3653 96.4628 62.2195 94.9126C61.6942 89.3188 61.1004 83.7271 60.8131 78.1182C60.6695 75.2967 61.0854 72.4386 61.332 69.6042C61.5249 67.3829 60.8688 66.7054 58.6626 67.1857C57.1317 67.518 55.6094 67.9168 54.115 68.3907C51.8874 69.1025 51.6793 69.4627 51.6793 71.7504C51.6815 73.5063 51.7136 75.2645 51.6171 77.014C51.3491 81.8982 51.0233 86.778 50.7189 91.6601C50.6889 91.6601 50.6588 91.6622 50.6309 91.6622C50.6309 92.7707 50.5988 93.8792 50.6395 94.9855C50.6781 96.0768 51.3106 96.675 52.3826 96.7565ZM52.9509 89.9363C53.2489 84.6061 53.5747 79.2739 54.0807 73.9609C54.3401 71.2508 55.0583 70.8134 58.1929 70.6676C58.3709 73.5643 58.5468 76.3065 58.7076 79.053C58.9627 83.3776 59.2671 87.7 59.4343 92.0267C59.5287 94.4688 58.7761 95.0112 56.4584 94.5245C52.94 93.787 52.7451 93.6305 52.9509 89.9363Z" fill="#251C1C"/>
<path d="M39.3941 13.0523C43.8044 12.8636 48.2191 12.7264 52.6294 12.5678C53.2748 12.5442 53.9265 12.5828 54.5633 12.5013C56.2678 12.2847 56.8145 11.6093 56.7159 9.94985C56.5658 7.41772 54.396 5.70033 51.8296 5.98334C49.276 6.26636 46.7095 6.45504 44.1495 6.68445C44.1452 6.60941 44.1389 6.53436 44.1346 6.45932C43.4893 6.45932 42.846 6.4765 42.2006 6.4572C38.0519 6.32856 38.052 6.32639 37.0764 10.2157C36.4482 12.7092 36.8469 13.1616 39.3941 13.0523ZM41.9519 8.82207C45.4274 8.67628 48.9115 8.71489 52.3934 8.73418C52.7022 8.73633 53.0088 9.07509 53.3411 9.2702C51.6516 10.7732 45.1767 11.44 40.1681 10.6831C40.0695 10.4794 39.9709 10.2758 39.8723 10.0699C40.5627 9.63468 41.2422 8.85209 41.9519 8.82207Z" fill="#251C1C"/>
<path d="M31.2938 11.3704C31.2809 11.0016 31.296 10.6329 31.2745 10.2662C31.1416 8.09644 30.3784 7.37604 28.1271 7.48324C26.3862 7.56686 24.6515 7.9292 22.9148 7.90991C19.9817 7.87989 17.0488 7.65477 14.1179 7.49183C12.9665 7.42536 11.7058 7.42321 11.2963 8.66462C10.681 10.5278 10.3614 12.4896 9.83398 14.7645C11.2212 14.8438 12.2804 14.9875 13.3331 14.951C18.2902 14.7881 23.245 14.5007 28.2021 14.4043C31.3967 14.3399 31.3989 14.4536 31.2938 11.3704ZM13.1123 12.5861C13.5389 10.1655 13.8242 9.74952 15.4558 9.74738C19.4031 9.74523 23.3501 9.82455 27.2974 9.89316C27.6383 9.89959 27.9771 10.084 28.2687 10.1697C28.7446 11.3618 28.4016 12.0008 27.2502 12.2924C24.3729 13.0171 16.0968 13.2358 13.1123 12.5861Z" fill="#251C1C"/>
</svg>
