<svg width="54" height="40" viewBox="0 0 54 40" fill="none" xmlns="http://www.w3.org/2000/svg">
<path d="M26.0826 16.7293C25.7429 15.7887 25.4032 14.8481 25.0622 13.9088L23.4017 9.31432C22.9697 8.11924 22.6201 6.70597 21.5332 5.93628C20.7601 5.38989 19.869 5.29497 18.9655 5.29622C18.0928 4.72238 17.0945 4.3519 16.042 4.28703C15.2247 4.23589 14.1428 4.36317 13.4719 4.88835C13.2848 5.03431 13.1432 5.22016 13.0337 5.42974L12.8293 5.43473C12.1068 5.45095 11.5061 5.9287 11.2919 6.62105C10.0278 10.7227 8.9458 14.8743 8.04353 19.0646C7.85766 19.5735 7.673 20.0838 7.49082 20.5941C5.81923 25.2696 4.28185 29.9924 2.66812 34.6891C2.33084 35.6697 2.66935 36.0976 3.62947 36.3458C4.47634 36.5641 5.09057 36.7126 5.56078 36.7438C6.18362 37.8154 8.26509 37.5659 8.55682 36.0165C8.93471 35.9404 9.29539 35.7221 9.56373 35.3117C11.9899 31.6142 13.1826 27.5225 13.9015 23.2873C16.1245 23.2923 18.3463 23.205 20.5644 23.0229C20.8328 23.8686 21.0765 24.7244 21.3067 25.5802C22.1954 28.8698 23.014 32.1768 23.9199 35.4614C24.0467 35.9217 24.4111 36.5005 24.8123 36.6677C26.6403 37.4349 27.7628 37.2889 28.2934 36.1849C28.9371 35.9042 29.4 35.2455 29.1513 34.3461C29.1156 34.2188 29.0812 34.0917 29.0455 33.9644C30.0438 35.1483 32.2766 34.3636 31.8039 32.5522C30.3798 27.107 28.4608 21.809 26.0826 16.7293ZM15.8561 11.3166C18.1617 10.8026 18.8891 11.3789 18.8251 13.6842C18.8239 13.7254 18.8252 13.7666 18.8239 13.8078C18.7218 17.2932 17.7407 18.0293 14.7397 16.6545C14.917 14.8819 15.0831 13.1079 15.2862 11.349C15.4438 11.4139 15.6715 11.3578 15.8561 11.3166Z" fill="#39B100"/>
<path d="M52.9867 34.8277C52.8279 33.1998 52.5731 31.5681 52.1866 29.9826C51.8727 28.6964 51.1095 28.3234 49.785 28.4631C48.2525 28.6252 46.72 28.78 45.1863 28.9384C45.1838 28.8948 45.1814 28.8498 45.1789 28.8061C44.5708 28.8061 43.9468 28.8935 43.3584 28.7825C42.6888 28.6565 42.0512 28.3521 41.4 28.1238C41.7115 27.3978 41.9773 26.6469 42.3552 25.9583C42.5177 25.6614 42.898 25.4742 43.2009 25.2696C44.2484 24.5648 45.3045 23.8725 46.3606 23.1789C49.3899 21.1879 52.0942 18.9075 52.7035 15.0204C52.8475 14.106 52.8439 13.0132 52.4808 12.1961C50.7279 8.24912 47.9731 5.20025 44.0588 3.34152C41.8394 2.28865 39.6004 2.44833 37.546 3.72075C34.2053 5.78906 32.8254 9.23591 31.693 12.7974C31.5502 13.244 31.6253 13.7804 31.6758 14.2669C31.7595 15.0827 32.141 15.583 33.0359 15.7314C34.1917 15.9223 35.3316 16.2441 36.4603 16.5697C38.1971 17.0712 38.676 16.6583 38.4766 14.7908C38.3584 13.6881 38.1689 12.5791 38.1898 11.4776C38.239 8.94524 40.5494 7.27113 42.8193 8.04207C47.6568 9.68374 49.2828 16.102 45.7144 19.7259C44.9389 20.5143 43.8778 21.0506 42.8783 21.5646C41.8702 22.0835 40.7144 22.3218 39.7334 22.8806C38.5123 23.5755 37.0708 24.2379 36.3138 25.332C34.353 28.1662 33.7043 31.4858 33.8704 34.9413C33.9086 35.7409 34.385 36.21 35.2233 36.2249C36.8456 36.2549 38.4667 36.301 40.0879 36.3209C43.8102 36.3683 47.5337 36.3808 51.256 36.4569C52.445 36.4818 53.1036 36.034 52.9867 34.8277ZM47.7245 34.9563C47.7245 34.9712 47.7245 34.9849 47.7245 34.9986C43.996 34.9986 40.2676 35.0211 36.5404 34.9874C35.0436 34.975 34.8047 34.6518 34.8281 33.1137C34.8626 30.8919 35.3931 28.7788 36.4333 26.8427C36.8407 26.0842 37.5091 25.3419 38.2415 24.9178C39.6398 24.1057 41.1305 23.4071 42.6543 22.8732C48.6624 20.7712 51.0406 14.1447 45.8929 8.86913C44.1905 7.12392 42.2776 6.21073 39.8712 7.24364C38.1934 7.96343 37.2062 9.2234 37.1939 11.1358C37.1865 12.246 37.2038 13.3563 37.2222 14.4665C37.2345 15.22 36.9589 15.5481 36.1821 15.2948C35.4497 15.0566 34.7137 14.8083 33.9616 14.6511C32.983 14.449 32.6765 13.8166 32.8648 12.9384C33.6427 9.32821 35.0792 6.11721 38.5762 4.40942C40.5076 3.46758 42.4771 3.5137 44.3985 4.65514C46.9588 6.17705 49.1093 8.05328 50.6356 10.7091C52.3306 13.6594 52.0339 17.1535 49.4022 19.3565C47.2838 21.1304 44.9032 22.5801 42.7208 24.2816C41.8419 24.9665 41.0615 25.8622 40.4547 26.8053C39.5856 28.1551 40.1592 29.617 41.7274 29.7517C44.1757 29.9638 46.6548 29.9065 49.1154 29.8266C50.963 29.7655 51.3274 29.975 51.5194 31.845C51.837 34.9362 51.837 34.9363 48.8212 34.9563C48.4557 34.9587 48.0901 34.9563 47.7245 34.9563Z" fill="#251C1C"/>
<path d="M5.87792 38.0788C7.23562 38.337 7.85843 37.9354 8.17477 36.613C8.39388 35.6974 8.64009 34.7843 8.94043 33.8924C10.1221 30.3932 11.353 26.9115 12.5212 23.4074C13.3828 20.8226 13.352 20.8127 15.996 20.9698C16.1179 20.9761 16.2398 20.9797 16.3617 20.9885C17.9705 21.117 19.2851 21.616 19.6199 23.4834C19.7503 24.2069 20.0039 24.9081 20.191 25.6229C21.0711 28.9998 21.87 32.4003 22.8535 35.7448C23.5797 38.2123 23.688 38.1799 26.2028 38.1961C26.8921 38.1961 27.5815 38.2148 28.2708 38.1911C29.2531 38.1575 29.7947 37.5574 29.8119 36.6268C29.839 35.1935 30.0261 33.669 29.6322 32.3405C28.4924 28.4958 27.131 24.716 25.7917 20.9349C24.1891 16.4078 22.5249 11.9057 21.9833 7.07796C21.9365 6.65257 21.6312 6.0787 21.2816 5.89408C18.7213 4.54431 15.9628 3.92681 13.0837 3.92432C12.7723 3.92432 12.2725 4.24002 12.1802 4.51821C11.4687 6.65013 10.9197 8.83942 10.1664 10.9539C7.19622 19.3032 4.17797 27.6363 1.15114 35.9645C0.797867 36.94 1.05144 37.3091 2.04356 37.4289C3.32864 37.5823 4.60392 37.8368 5.87792 38.0788ZM2.66641 34.6882C4.28015 29.9915 5.81759 25.2686 7.48917 20.593C9.03521 16.2668 10.7154 11.9881 12.3365 7.68805C12.4387 7.41984 12.531 7.14656 12.6393 6.88085C13.3262 5.19177 13.7755 4.88373 15.5234 5.25049C16.9894 5.55861 18.4493 5.95524 19.8587 6.46421C20.3215 6.63137 20.8693 7.22896 20.9518 7.70425C21.7605 12.4197 23.1797 16.9342 24.8894 21.3889C26.2361 24.8968 27.3242 28.5083 28.4837 32.0885C28.6696 32.6611 28.6277 33.3086 28.6597 33.6304C28.6597 33.966 28.6597 34.0071 28.6597 34.0483C28.6474 36.9636 27.4805 37.7882 24.8119 36.668C24.4106 36.5008 24.0463 35.922 23.9195 35.4617C23.0135 32.1771 22.195 28.8701 21.3062 25.5805C20.9 24.076 20.4581 22.5741 19.9067 21.1208C19.738 20.6754 19.1866 20.1515 18.746 20.0816C17.1876 19.8371 15.5997 19.781 14.0254 19.635C13.1539 19.5552 12.707 19.9581 12.4214 20.7839C10.8742 25.2424 9.27156 29.6809 7.71937 34.1381C6.71494 37.0222 6.56228 37.1021 3.62776 36.3449C2.66765 36.0967 2.32914 35.6687 2.66641 34.6882Z" fill="#251C1C"/>
<path d="M14.4378 16.5123C17.6751 18.0742 18.7177 17.4081 18.8235 13.8079C18.8247 13.7667 18.8235 13.7255 18.8247 13.6843C18.8887 11.379 18.1612 10.8027 15.8557 11.3167C15.6662 11.3591 15.4311 11.4177 15.2735 11.3441C14.5817 11.016 14.3688 11.4726 14.2654 11.9866C14.0451 13.0744 13.7964 14.1671 13.7349 15.2686C13.7127 15.6803 14.0759 16.3377 14.4378 16.5123ZM14.8168 14.479C14.9018 12.9658 15.5074 12.2797 16.8024 12.468C17.2123 12.5279 17.5396 13.1778 18.0714 13.7317C17.515 14.5887 17.1211 15.195 16.7272 15.8013C16.1512 15.2673 14.7319 15.971 14.8168 14.479Z" fill="#251C1C"/>
</svg>
