<svg width="43" height="38" viewBox="0 0 43 38" fill="none" xmlns="http://www.w3.org/2000/svg">
<path d="M33.0127 33.3708C32.8599 34.4445 33.1162 34.8736 34.0658 35.0785C35.831 35.4583 37.5912 35.9548 39.3022 36.5948C40.6356 37.0927 41.181 36.9881 41.2947 35.3402C41.5169 32.1177 41.5485 28.8756 41.6343 25.6426C41.6937 23.4279 41.6041 21.2013 41.7745 19.0016C42.0927 14.9267 42.5271 10.8653 42.9677 6.80684C43.1142 5.4595 42.7796 4.57721 41.6785 4.13458C40.3173 3.58727 38.9587 3.03247 37.6013 2.4717C37.0975 2.26385 36.5318 2.14274 36.1151 1.78535C35.2098 1.01074 34.9118 0.970456 34.2918 2.13685C33.6226 3.39895 33.0758 4.75072 32.4495 6.04571C30.7664 9.52396 29.0668 12.9903 27.3824 16.4671C26.7826 17.7052 26.9164 18.1433 28.0112 18.7385C28.5352 19.0226 29.068 19.2887 29.5718 19.6192C31.5745 20.9366 31.596 20.9442 33.0279 18.8656C33.2274 18.574 33.3498 18.2107 33.5241 17.8937C34.0645 16.9097 34.6138 15.9301 35.1593 14.9507C35.2615 14.997 35.3651 15.0434 35.4674 15.0913C35.4194 15.673 35.3967 16.2592 35.3171 16.8349C34.5582 22.3484 33.8006 27.8633 33.0127 33.3708ZM37.4788 10.6725C37.3968 10.2971 37.2137 9.95317 37.0722 9.59577C36.7704 9.8141 36.3639 9.94718 36.1808 10.2627C34.7337 12.7555 33.3031 15.2617 31.9255 17.8084C31.3952 18.7878 30.8762 18.8237 30.0567 18.3063C28.4341 17.282 28.3559 17.2924 29.3054 15.3379C31.0997 11.6458 32.9458 7.98678 34.831 4.36049C35.0355 3.96721 35.706 3.57837 36.0533 3.68305C37.7516 4.19596 39.4373 4.80611 41.0725 5.55081C41.4689 5.73175 41.6583 6.5511 41.9424 7.07597C41.8679 7.12981 41.7922 7.18219 41.7177 7.23603C41.3376 11.1345 40.8868 15.0254 40.6052 18.9328C40.4348 21.306 40.5762 23.7092 40.4878 26.0943C40.3893 28.7695 40.1936 31.4387 40.0333 34.1109C39.9815 34.9633 39.6431 35.1621 38.9423 34.884C37.7819 34.4234 36.5987 34.0347 35.408 33.6967C34.591 33.4635 34.3044 33.0447 34.4597 31.9905C35.4648 25.1417 36.4169 18.2808 37.3867 11.4245C37.422 11.1718 37.5294 10.8983 37.4788 10.6725Z" fill="#251C1C"/>
<path d="M21.1965 22.7528C20.411 20.6792 18.4452 19.2995 16.0833 18.8212C15.9297 18.7902 15.7748 18.7619 15.6198 18.7336C14.9407 18.5032 14.2253 18.3253 13.4869 18.1905C13.146 18.0073 12.7958 17.8443 12.436 17.7015C13.2875 17.1719 14.1134 16.5966 14.903 15.9607C15.2654 15.6683 15.6279 15.3558 15.9836 15.0257C17.3565 14.0758 19.0138 12.948 19.8855 11.4659C19.9785 11.3932 20.0729 11.3204 20.1645 11.2463C21.5402 10.1388 21.6722 8.88838 20.5822 7.5208C20.4151 7.31061 20.2372 7.10847 20.0553 6.91041C19.4665 4.55656 17.1639 3.32784 14.872 2.91554C11.6814 1.19765 8.29147 0.770468 4.62259 2.2391C4.14428 2.1596 3.62287 2.2324 3.12569 2.45068C0.840552 3.45312 0.606063 6.30677 0.651873 8.47199C0.824336 16.6236 1.05072 24.7738 1.25148 32.9254C1.25956 33.2541 1.35389 33.525 1.50345 33.742C1.78236 35.2241 2.7902 35.8465 4.68595 36.1712C5.88376 36.3773 7.10446 36.4502 8.0072 36.5499C9.16593 36.4785 10.0107 36.4824 10.838 36.3679C15.1954 35.7629 18.5342 33.4482 21.2909 30.135C22.0872 29.1784 22.5614 28.1274 22.6746 27.0643C23.1718 25.174 22.5102 23.7768 21.1965 22.7528ZM16.3245 8.81962C16.3258 9.02846 16.2989 9.25212 16.2355 9.4933C16.0388 10.2519 15.6494 10.9485 15.155 11.5845C14.6241 12.1086 14.1013 12.5653 13.7348 12.9116C13.7092 12.9358 13.6823 12.9601 13.6567 12.9844C13.4869 13.0948 13.3185 13.2054 13.1474 13.3132C13.1447 13.3145 13.142 13.3172 13.1393 13.3186C11.4659 14.0111 9.63748 14.228 7.71075 14.0784C7.20683 14.0394 6.85923 13.9558 6.62075 13.7969C6.58437 11.7758 6.54798 9.75475 6.51161 7.7337C6.50352 7.27425 6.52915 6.76487 6.54128 6.24344C8.67281 6.44554 10.8043 6.64098 12.9345 6.85252C13.4721 6.90641 14.2765 6.98049 15.062 7.16778C15.5107 7.69729 15.9311 8.25103 16.3245 8.81962ZM8.38851 31.8192C8.07996 31.8111 7.60969 31.0472 7.53424 30.5824C7.39546 29.7268 7.49516 28.8322 7.49516 27.9537C7.49112 27.9537 7.48578 27.9537 7.48174 27.9537C7.48174 27.1924 7.50191 26.4297 7.47766 25.6684C7.44397 24.6309 7.76333 23.8429 8.34674 23.2379C10.1131 23.2473 11.8795 23.3631 13.6284 23.6286C13.879 23.6663 14.492 23.7404 15.1886 23.8751C15.322 23.9937 15.4527 24.115 15.5807 24.2389C15.9297 24.7927 16.2396 25.3707 16.5225 25.9649C16.6559 26.2451 16.7974 26.5079 16.955 26.7504C17.0332 27.5063 16.8284 28.2649 16.3299 28.9776C15.5403 29.6554 14.643 30.2239 13.8157 30.6901C13.2121 31.031 12.5909 31.3329 11.955 31.5983C10.8083 31.8246 9.60114 31.8515 8.38851 31.8192Z" fill="#39B100"/>
<path d="M0.424322 26.3031C0.371775 29.0437 0.129265 31.7815 0.00261209 34.5221C-0.0405037 35.4585 0.452646 36.0553 1.2961 36.4864C4.6241 38.1908 8.16902 38.1923 11.7018 37.656C16.4284 36.9365 19.8884 34.1056 22.6586 30.3829C24.5476 27.8444 24.4843 25.1349 22.4498 22.7231C21.4756 21.5684 20.3478 20.4689 19.0908 19.6484C17.4631 18.5867 15.6388 17.8294 13.7687 16.8755C14.1217 16.6963 14.5434 16.4794 14.9678 16.2666C17.4052 15.0485 19.7119 13.6351 21.5282 11.5629C22.8338 10.074 22.8526 8.4235 21.5511 6.90367C20.7952 6.0198 19.8466 5.30571 19.0409 4.46091C17.2233 2.55573 14.9813 1.3997 12.5035 0.631704C10.1887 -0.0837478 7.8834 -0.335753 5.56458 0.65052C4.4786 1.11267 3.38587 1.59903 2.25004 1.89276C1.14116 2.18109 0.80568 2.90877 0.714059 3.88157C0.670943 4.33563 0.715401 4.79636 0.708664 5.25446C0.621085 12.2702 0.561754 19.2874 0.424322 26.3031ZM1.43353 32.381C1.72726 26.3987 1.94554 20.411 2.08432 14.422C2.15304 11.4874 1.97518 8.5461 1.9132 5.60749C1.87278 3.69692 2.1759 3.3533 3.85741 2.56644C8.79282 0.258399 13.2203 1.38354 17.3365 4.51078C18.5087 5.40274 19.6756 6.37545 20.585 7.51801C21.6751 8.88559 21.543 10.136 20.1673 11.2435C18.4845 12.5976 16.6722 13.8252 14.79 14.8842C13.3793 15.6778 11.7625 16.0994 10.2588 16.7354C10.0109 16.8405 9.87074 17.2002 9.68076 17.4427C9.99605 17.6637 10.2857 18.0141 10.6306 18.0814C11.8257 18.3159 13.0478 18.4034 14.2416 18.6338C17.4093 19.2428 19.8035 21.0941 21.6723 23.6069C23.2218 25.6886 22.9672 28.1194 21.2924 30.1323C18.5357 33.4455 15.1969 35.7603 10.8395 36.3652C10.0122 36.4798 9.16739 36.4757 8.00866 36.5471C7.10592 36.4474 5.88522 36.3747 4.68741 36.1685C2.29314 35.7576 1.31227 34.8736 1.43353 32.381Z" fill="#251C1C"/>
<path d="M6.25414 10.4746C6.21776 10.4759 6.18137 10.4773 6.14499 10.4799C6.14499 11.0512 6.15176 11.6225 6.14368 12.1938C6.12616 13.5519 6.35385 13.9723 7.71065 14.0788C10.9026 14.328 13.8209 13.5708 16.2193 11.3126C16.8916 10.6793 17.0412 9.88307 16.5413 9.13798C15.8905 8.16653 15.1643 7.22879 14.3599 6.37995C12.5949 4.51654 10.0335 4.03554 7.64598 5.00969C7.44387 5.09188 7.1973 5.1983 7.00598 5.15114C5.98198 4.90322 5.90654 5.56212 5.94427 6.2614C6.02242 7.66805 6.14769 9.0706 6.25414 10.4746ZM9.30328 5.93522C11.8902 5.61993 14.5378 7.16007 15.4216 9.56916C15.5281 9.86019 15.3691 10.4382 15.1279 10.6363C13.1918 12.2289 10.8756 12.7894 8.4315 12.8082C8.10409 12.8109 7.56787 12.206 7.48433 11.8085C7.32939 11.0782 7.43986 10.2927 7.43986 9.53008C7.42234 9.53008 7.40343 9.53008 7.38591 9.53008C7.38591 9.07198 7.3981 8.61513 7.38328 8.15837C7.33343 6.63315 7.76997 6.1225 9.30328 5.93522Z" fill="#251C1C"/>
<path d="M7.47761 25.6684C7.50186 26.4297 7.48169 27.1924 7.48169 27.9537C7.48573 27.9537 7.49107 27.9537 7.49511 27.9537C7.49511 28.8322 7.39541 29.7268 7.53419 30.5824C7.60964 31.0472 8.07992 31.8111 8.38847 31.8192C11.1371 31.8933 13.8641 31.6603 15.9041 29.4978C17.4293 27.8796 17.2946 25.9231 15.6562 24.309C15.0876 23.7485 14.4516 23.2527 13.8237 22.7555C12.6044 21.7922 11.2705 21.6425 9.84629 22.2529C8.34128 22.8956 7.42237 23.9371 7.47761 25.6684ZM8.92202 25.6159C9.30198 23.3712 11.6302 22.4901 13.3912 23.9237C13.98 24.4034 14.5715 24.8965 15.0781 25.4611C16.0577 26.5511 15.962 27.8701 14.8396 28.7822C13.3117 30.0218 11.4403 30.251 9.57281 30.379C9.34106 30.3938 8.93142 29.9019 8.85327 29.584C8.732 29.0814 8.82097 28.5262 8.82097 27.9926C8.76303 27.9886 8.70374 27.9833 8.64445 27.9792C8.73473 27.191 8.78863 26.3974 8.92202 25.6159Z" fill="#251C1C"/>
</svg>
