<svg width="115" height="54" viewBox="0 0 115 54" fill="none" xmlns="http://www.w3.org/2000/svg">
<path d="M36.6047 35.9768C35.8732 35.7403 34.8188 36.2646 34.6941 37.1949C34.5972 37.9245 34.4988 38.6542 34.4018 39.3838C34.219 39.1785 34.0361 38.973 33.8532 38.7661C33.1023 37.9214 32.264 36.6007 31.1737 36.3113C28.7948 35.6781 27.9816 39.7664 30.305 40.1849C30.4962 40.2192 30.6763 40.2223 30.8467 40.2036C31.3136 40.7077 31.75 41.3347 32.1366 41.7703C32.882 42.6088 33.6274 43.4473 34.3727 44.2873C35.1223 45.1321 36.789 44.8599 36.9677 43.5189C37.2074 41.7205 37.4484 39.9205 37.6881 38.1206C37.8142 37.1825 37.4789 36.2584 36.6047 35.9768Z" fill="#39B100"/>
<path d="M8.08099 23.7646C7.3079 23.2294 6.45303 22.8203 5.50814 22.5621C4.51892 22.2914 3.84696 22.8747 3.52277 23.9466C3.36759 24.4599 3.01571 25.1102 2.61532 25.2751C1.72169 25.6407 1.96 26.232 2.17336 26.8542C2.29528 27.2074 2.50447 27.5325 2.7109 27.8405C2.76632 27.923 2.82174 28.0023 2.87854 28.0832C3.15563 29.1021 3.82483 29.9547 4.66719 30.5256C5.02187 31.3253 5.59822 32.0005 6.39902 32.3972C9.61883 33.9934 13.0105 29.5581 11.2301 26.2055C10.6427 25.101 9.42073 24.2095 8.08099 23.7646Z" fill="#39B100"/>
<path d="M50.5584 10.0235C49.1549 9.74502 47.7916 9.90524 46.74 11.1778C45.2618 12.9669 44.9763 15.176 45.1537 17.4692C45.1952 18.0074 45.3241 18.359 45.5611 18.5768C45.7786 19.4683 46.5502 20.1761 47.3607 19.9723C48.0105 20.3301 48.8847 20.1558 49.4154 19.3437C49.9626 18.5068 50.4379 17.6185 50.841 16.6928C51.4728 15.7345 51.8427 14.5319 51.9633 13.2329C52.0159 12.9995 52.0644 12.7647 52.1087 12.5283C52.2112 11.9698 52.0948 11.4797 51.8552 11.1047C51.6266 10.5353 51.1444 10.1402 50.5584 10.0235Z" fill="#39B100"/>
<path d="M37.3313 6.26802C37.4117 4.86944 36.9392 3.64968 36.1828 2.55757C35.6881 1.84195 35.0453 1.60393 34.2639 1.79218C33.6848 1.93374 33.096 2.03494 32.5293 2.22318C32.2121 2.32897 31.8754 2.51414 31.6454 2.77239C30.2391 4.35454 29.7515 6.36139 29.5562 9.05431C29.7792 10.0966 29.8873 11.7456 30.4802 13.1349C31.1092 14.6097 31.7756 15.3517 32.6914 15.2413C33.3939 15.7656 34.548 15.596 34.9774 14.7045C35.3584 13.9173 35.7103 13.0789 36.0123 12.2108C36.4044 11.6461 36.7134 10.9849 36.9199 10.361C37.3133 9.17401 37.4658 7.79726 37.3175 6.48269C37.323 6.41113 37.3272 6.33958 37.3313 6.26802Z" fill="#39B100"/>
<path d="M19.1765 7.5236C18.5544 7.08333 17.7938 6.8592 17.0734 6.6274C13.7053 5.54151 12.554 7.28391 12.0815 10.6007C11.8543 12.8253 14.5131 16.4439 16.3141 17.2575C16.576 17.3758 16.8199 17.4708 17.0498 17.5454C17.1593 17.6512 17.2729 17.7554 17.3907 17.8534C18.1083 18.4492 19.0213 17.9265 19.4896 17.2623C19.757 17.0616 20.0203 16.8017 20.2918 16.4735C22.1552 14.2239 21.5664 9.21154 19.1765 7.5236Z" fill="#39B100"/>
<path d="M102.493 43.9881C102.302 45.2237 102.623 45.7175 103.812 45.9533C106.022 46.3904 108.227 46.9616 110.369 47.6981C112.039 48.2712 112.722 48.1508 112.864 46.2544C113.143 42.546 113.182 38.8152 113.29 35.0948C113.364 32.5462 113.252 29.9839 113.465 27.4526C113.864 22.7633 114.407 18.0896 114.959 13.4193C115.143 11.8688 114.724 10.8535 113.345 10.3442C111.64 9.71435 109.939 9.07591 108.239 8.4306C107.608 8.1914 106.9 8.05204 106.378 7.64077C105.244 6.74938 104.871 6.70302 104.095 8.04526C103.257 9.49764 102.572 11.0532 101.788 12.5434C99.6803 16.5461 97.552 20.535 95.4427 24.5359C94.6917 25.9608 94.8593 26.4649 96.2302 27.1498C96.8864 27.4767 97.5536 27.783 98.1845 28.1633C100.692 29.6793 100.719 29.6881 102.512 27.2961C102.762 26.9606 102.915 26.5424 103.134 26.1776C103.81 25.0453 104.498 23.918 105.181 22.7909C105.309 22.8442 105.439 22.8977 105.567 22.9527C105.507 23.6221 105.479 24.2967 105.379 24.9592C104.429 31.3039 103.48 37.6503 102.493 43.9881ZM108.086 17.8677C107.983 17.4358 107.754 17.04 107.577 16.6287C107.199 16.8799 106.69 17.0331 106.46 17.3962C104.648 20.2648 102.857 23.1489 101.132 26.0795C100.468 27.2066 99.8178 27.2479 98.7916 26.6525C96.7598 25.4737 96.6618 25.4857 97.8509 23.2366C100.098 18.9879 102.409 14.7771 104.77 10.6041C105.026 10.1516 105.866 9.70411 106.301 9.82456C108.427 10.4148 110.538 11.1169 112.586 11.9739C113.082 12.1821 113.32 13.125 113.675 13.729C113.582 13.791 113.487 13.8513 113.394 13.9132C112.918 18.3994 112.354 22.8769 112.001 27.3734C111.787 30.1044 111.965 32.8698 111.854 35.6146C111.73 38.6931 111.485 41.7647 111.285 44.8398C111.22 45.8206 110.796 46.0495 109.918 45.7294C108.465 45.1994 106.984 44.7521 105.493 44.3632C104.47 44.0947 104.111 43.6129 104.305 42.3997C105.564 34.5183 106.756 26.6232 107.97 18.7332C108.015 18.4424 108.149 18.1276 108.086 17.8677Z" fill="#251C1C"/>
<path d="M63.4813 48.7841C65.7299 49.4095 68.0367 50.1111 70.3269 50.1267C74.3752 50.1531 78.3196 49.0658 82.167 47.6532C86.1613 46.1861 89.2979 43.4309 91.2805 39.2803C91.7461 38.3049 91.8167 36.533 91.3263 35.6416C89.3271 32.009 86.7833 28.9303 82.9622 27.5908C81.9605 27.2392 81.0018 26.7352 80.0237 26.3011C80.0445 26.172 80.0666 26.0414 80.0874 25.9107C81.5989 25.2759 83.1895 24.8091 84.5985 23.9644C86.2832 22.9532 87.9111 21.7507 89.3811 20.3817C90.5435 19.2989 90.689 17.4445 89.9727 16.1097C87.7338 11.9342 84.4502 9.18062 80.3409 7.79293C75.7218 6.23256 70.9683 6.41293 66.2217 6.88275C65.3405 6.96987 64.9554 7.64193 64.8847 8.47735C64.6894 10.8156 64.4192 13.1647 64.458 15.5045C64.5647 22.2018 64.8737 28.8976 63.8512 35.5498C63.6503 36.8613 63.5076 38.1835 63.3594 39.5027C63.0892 41.9125 62.7539 44.3193 62.6237 46.74C62.5863 47.4276 63.0546 48.6643 63.4813 48.7841ZM64.2668 45.6587C64.5522 42.7495 64.6894 39.814 65.1161 36.9313C66.043 30.6711 66.0097 24.3813 65.8864 18.0729C65.8365 15.5495 65.9751 13.0185 66.1233 10.4982C66.2259 8.74808 66.6734 8.40106 68.1987 8.22683C71.6499 7.83323 75.0512 8.09938 78.4595 8.82434C81.9855 9.57419 84.8465 11.5515 87.3112 14.3673C87.7227 14.8371 88.0857 15.3816 88.3849 15.9494C89.2813 17.6467 89.1331 19.0343 87.6617 20.0876C85.9798 21.2917 84.205 22.4149 82.3471 23.2067C80.1802 24.1308 77.8721 24.6318 75.6442 25.3879C75.2716 25.5139 74.9944 25.9962 74.673 26.3151C75.0554 26.6013 75.4253 27.1131 75.823 27.1411C81.4784 27.5534 86.1931 29.9321 89.5626 35.223C90.5948 36.8441 90.4923 38.5476 89.1054 40.3087C86.6504 43.4279 83.8199 45.8562 80.0195 46.6139C76.8413 47.247 73.6962 48.0841 70.4792 48.8449C68.6809 48.3657 66.9726 47.9021 65.2602 47.4572C64.3763 47.2285 64.1782 46.5719 64.2668 45.6587Z" fill="#251C1C"/>
<path d="M73.7501 31.2744C72.6487 30.7081 72.1679 31.3553 72.0543 32.4599C71.7731 35.187 71.5015 37.9173 71.3256 40.6537C71.2535 41.777 71.737 42.6201 72.8884 42.7228C73.7515 42.7975 74.6133 42.9095 75.4764 43.006C75.5083 43.0962 75.5415 43.1848 75.5748 43.275C77.3315 42.6854 79.1368 42.2281 80.8326 41.4643C82.2859 40.8093 83.2474 39.4154 83.4358 37.6403C83.6229 35.8684 82.3843 35.0874 81.269 34.1649C79.1133 32.3805 76.9021 30.9602 74.0937 31.3616C73.9829 31.3772 73.8554 31.3288 73.7501 31.2744ZM78.4163 33.9393C79.1368 34.4822 79.8877 34.9755 80.586 35.5511C82.2943 36.959 82.164 39.0359 80.18 39.9382C78.7419 40.5931 77.1695 41.0287 75.6233 41.2014C73.1821 41.4737 72.9313 41.0831 72.8315 38.3062C73.0241 36.9092 73.1433 35.4904 73.455 34.126C73.5547 33.6935 74.1381 33.1631 74.5523 33.0993C75.8976 32.8893 77.2331 33.0479 78.4163 33.9393Z" fill="#251C1C"/>
<path d="M71.37 22.8671C71.7635 22.8827 72.1597 22.8703 72.5532 22.8703C72.5795 22.9839 72.6044 23.0973 72.6294 23.2124C75.0955 22.4875 77.6475 22.013 80.0028 20.9738C82.6089 19.8242 83.0661 16.9227 81.3426 14.4554C78.9055 10.969 74.1908 9.74016 70.7895 11.7595C70.511 11.9259 70.2644 12.4688 70.2533 12.8453C70.166 15.6735 70.1425 18.505 70.0981 21.3348C70.0815 22.3087 70.4999 22.8298 71.37 22.8671ZM71.7233 17.2651C71.7565 17.2651 71.7912 17.2651 71.8244 17.2651C71.8244 16.5557 71.8217 15.8478 71.8258 15.1399C71.8355 13.4878 73.1046 11.9429 74.5704 12.1918C76.7068 12.5543 78.8363 13.0958 80.1982 15.3531C81.2678 17.1235 81.125 18.5173 79.4555 19.5426C77.3316 20.8462 74.9542 21.0843 72.5864 21.1434C72.3052 21.1512 71.8217 20.4682 71.7621 20.0466C71.6346 19.1397 71.7233 18.1938 71.7233 17.2651Z" fill="#251C1C"/>
<path d="M53.4228 12.4862C53.4158 9.08703 50.3983 7.00553 47.6606 8.51145C44.9105 10.0252 43.0637 14.5289 43.7911 17.9514C44.1998 19.8774 44.9784 20.4297 46.7324 20.4702C50.9456 20.5682 53.3189 16.5871 53.4228 12.4862ZM46.8778 18.8833C45.7334 18.9284 45.243 18.636 45.1529 17.4692C44.9756 15.1761 45.261 12.9669 46.7393 11.1779C47.7908 9.90531 49.1541 9.74508 50.5576 10.0236C51.3501 10.1807 51.9514 10.845 51.9944 11.766C52.1648 15.4157 50.5327 18.762 46.8778 18.8833Z" fill="#251C1C"/>
<path d="M23.4236 47.6448C24.1967 48.2904 24.9518 48.9688 25.7512 49.5739C28.4252 51.6041 31.3277 52.914 34.9382 53.0322C35.9842 52.8766 37.3586 52.7195 38.7177 52.4566C39.6086 52.2839 40.6048 52.1781 41.3266 51.6523C42.6552 50.6846 43.9423 49.5615 45.0188 48.2641C46.9931 45.8838 48.3107 43.0337 48.8233 39.8072C49.0851 38.1504 49.3373 36.4375 49.2334 34.7776C49.1059 32.7085 48.808 30.6658 47.7066 28.7896C46.6592 27.0037 45.9235 25.0109 44.2637 23.7507C42.8935 22.7115 41.5205 21.7221 39.761 22.0146C37.4431 22.3988 35.322 23.3167 33.6054 25.1586C32.9487 25.8634 32.3377 26.1014 31.4219 25.8245C29.546 25.2598 27.702 25.7187 26.0256 26.663C21.5782 29.1692 18.8821 36.0922 20.2787 41.3302C20.916 43.7229 21.5311 46.0673 23.4236 47.6448ZM23.6772 31.3644C25.3827 28.8753 27.4276 26.8342 30.4826 27.3927C33.1302 27.8781 35.5547 29.0448 37.1549 31.6771C37.5082 32.2574 37.9169 32.3227 38.3381 31.9322C38.8466 31.4592 38.7787 30.8215 38.3547 30.347C37.6676 29.58 36.9499 28.8302 36.1741 28.183C34.6417 26.9058 34.6306 26.148 36.2364 24.9455C37.5567 23.9561 39.0253 23.5267 40.6033 23.5204C42.4765 23.5126 43.7622 24.7853 44.7306 26.299C45.7032 27.8173 46.7077 29.5147 47.061 31.2929C48.3037 37.5639 46.9017 44.675 41.3183 48.6607C37.6939 51.2463 33.7578 51.5077 29.7178 49.6393C27.6077 48.6638 25.887 47.1128 24.3103 45.3673C23.6869 44.6781 23.3419 43.586 23.0648 42.6075C22.6312 41.0813 22.3637 39.4961 22.131 38.4257C22.2806 35.5866 22.3721 33.2717 23.6772 31.3644Z" fill="#251C1C"/>
<path d="M33.1011 43.3731C33.8645 44.1043 34.711 44.7297 35.4605 45.4765C36.0272 46.0412 36.6229 46.0303 37.0538 45.5044C38 44.3501 39.0031 43.1865 39.6737 41.833C40.3263 40.5184 40.6047 38.9658 41.0287 37.5112C41.3764 36.3227 40.9622 35.1077 39.9799 34.3469C39.1251 33.6858 38.0915 33.7822 37.2048 34.6269C36.8709 34.9474 36.5634 35.3037 36.2461 35.6444C35.746 36.1795 35.3455 36.2278 34.8661 35.5262C33.9656 34.2101 32.6619 33.723 31.3013 33.5784C29.6152 33.7137 28.2825 34.6861 28.9212 36.8874C29.7026 39.5835 31.2446 41.5949 33.1011 43.3731ZM32.1714 35.607C32.4679 35.859 33.0914 36.1686 33.4031 36.7053C33.8728 37.5111 34.1665 38.4601 34.4533 39.3811C34.7581 40.3597 35.2721 40.7159 35.9787 40.075C36.5828 39.5258 36.9859 38.6873 37.4487 37.9545C37.6814 37.5858 37.795 37.1082 38.0624 36.7878C38.2633 36.5466 38.7565 36.2698 38.8867 36.3756C39.1375 36.5763 39.398 37.0787 39.3412 37.3821C39.2082 38.093 38.9602 38.8071 38.6318 39.4372C38.061 40.5308 37.3932 41.5591 36.7698 42.6169C36.3943 43.2548 35.9482 43.3218 35.4259 42.8457C33.6802 41.2527 32.2157 39.3873 31.1282 37.172C30.7208 36.3428 31.0908 35.6288 32.1714 35.607Z" fill="#251C1C"/>
<path d="M31.0901 1.46849C27.7816 4.55035 26.8894 10.3299 29.519 14.941C30.1397 16.0269 31.0748 16.9478 32.2968 16.856C34.0799 16.7222 35.7702 15.9414 36.7262 14.2192C37.9939 11.9323 38.5369 9.29532 38.8916 6.44371C38.7032 5.64097 38.5356 4.66868 38.2474 3.74614C36.9575 -0.387366 33.7696 -1.02841 31.0901 1.46849ZM37.3316 6.26794C37.1681 9.12732 36.6347 11.8467 34.7449 13.9827C34.7006 14.0324 34.6618 14.09 34.6133 14.1335C32.5739 15.9739 31.4808 15.4792 30.4805 13.1348C29.8875 11.7455 29.7795 10.0966 29.5564 9.05423C29.7518 6.3613 30.2394 4.35446 31.6456 2.77231C31.8756 2.51406 32.2123 2.32889 32.5296 2.2231C33.0963 2.03486 33.6851 1.93366 34.2642 1.79209C35.0456 1.60385 35.6884 1.84186 36.183 2.55749C36.9395 3.64959 37.4119 4.86936 37.3316 6.26794Z" fill="#251C1C"/>
<path d="M18.0731 19.544C19.4225 19.614 20.6681 18.9498 21.6185 17.7519C23.59 15.2628 23.7909 11.375 22.1865 8.50471C20.6057 5.67799 18.0357 4.80063 15.3534 4.55483C13.6216 4.39459 11.9036 5.28752 11.1111 7.15592C10.1275 9.47081 9.82962 11.9739 11.1791 14.309C11.7513 15.3 12.4426 16.2459 13.2226 17.0347C14.5527 18.3819 15.9755 19.6389 18.0731 19.544ZM12.081 10.6002C12.5534 7.28344 13.7048 5.54104 17.0728 6.62692C17.7933 6.85872 18.5538 7.08286 19.1759 7.52312C21.5658 9.21107 22.1546 14.2234 20.2926 16.473C19.1454 17.8576 18.1576 18.0909 16.3136 17.2571C14.5125 16.4434 11.8537 12.8249 12.081 10.6002Z" fill="#251C1C"/>
<path d="M8.07425 33.328C8.41923 33.3094 8.76975 33.3313 9.1078 33.2644C11.1112 32.863 12.5992 31.6915 13.2337 29.4637C13.7962 27.4895 13.0882 25.7595 11.8122 24.5445C10.4628 23.2611 8.89723 22.2173 7.32057 21.2979C6.49899 20.8172 5.44745 20.6476 4.50534 20.6632C3.3277 20.6834 2.64743 21.6976 2.14174 22.8193C1.79398 23.5956 1.49057 24.3656 0.689775 24.7903C0.0884848 25.1093 -0.151238 25.7938 0.0967596 26.5981C1.17049 30.0875 4.29195 33.4338 8.07425 33.328ZM2.61555 25.2757C3.01595 25.1108 3.36783 24.4606 3.523 23.9472C3.8472 22.8753 4.51916 22.292 5.50838 22.5627C7.94263 23.2285 9.78532 24.8807 11.1417 27.1722C11.9605 28.5568 11.0101 30.6756 9.39876 31.2839C8.95957 31.4504 8.48295 31.4955 8.02298 31.595C5.61089 31.455 4.05504 29.8356 2.71114 27.8411C2.50471 27.5331 2.29552 27.208 2.1736 26.8548C1.96024 26.2326 1.72193 25.6413 2.61555 25.2757Z" fill="#251C1C"/>
</svg>
