<svg width="18" height="19" viewBox="0 0 18 19" fill="none" xmlns="http://www.w3.org/2000/svg">
<path d="M15.0509 0.23287C14.0211 0.794345 13.3289 2.02516 12.6429 2.95574C12.0067 3.81907 11.3938 4.69965 10.7949 5.58956C9.5396 7.45541 8.3356 9.35722 7.11761 11.2465C6.49851 12.2068 5.87786 13.1655 5.26186 14.1274C4.85898 13.5018 4.45298 12.8746 4.07966 12.2318C3.54766 11.3169 3.12454 10.3441 2.61121 9.42136C1.91433 8.1686 0.0414552 8.77231 0.00256668 10.1314C-0.0378774 11.4905 0.405457 12.7448 0.921897 13.9788C1.41345 15.1534 1.96877 16.3138 2.66254 17.3836C3.51342 18.6974 4.9943 19.4513 6.49695 18.7052C7.67917 18.1172 8.33561 16.8738 9.03094 15.8024C10.4729 13.5769 11.9056 11.345 13.3616 9.1304C14.0584 8.07001 14.7662 7.01746 15.502 5.98522C16.2829 4.89199 17.5117 3.71897 17.9115 2.44431C18.4404 0.752062 16.4851 -0.54913 15.0509 0.23287Z" fill="white"/>
</svg>
