<svg width="15" height="15" viewBox="0 0 15 15" fill="none" xmlns="http://www.w3.org/2000/svg">
    <path d="M7.50852 3.94009C5.57237 3.94009 3.96814 5.51666 3.96814 7.48047C3.96814 9.44427 5.54471 11.0208 7.50852 11.0208C9.47232 11.0208 11.0489 9.41661 11.0489 7.48047C11.0489 5.54432 9.44466 3.94009 7.50852 3.94009ZM7.50852 9.74852C6.26385 9.74852 5.24046 8.72513 5.24046 7.48047C5.24046 6.2358 6.26385 5.21241 7.50852 5.21241C8.75318 5.21241 9.77658 6.2358 9.77658 7.48047C9.77658 8.72513 8.75318 9.74852 7.50852 9.74852Z" fill="#4B4B4B" />
    <path d="M11.1893 4.65926C11.6323 4.65926 11.9914 4.30014 11.9914 3.85714C11.9914 3.41414 11.6323 3.05502 11.1893 3.05502C10.7463 3.05502 10.3872 3.41414 10.3872 3.85714C10.3872 4.30014 10.7463 4.65926 11.1893 4.65926Z" fill="#4B4B4B" />
    <path d="M13.2615 1.78295C12.5424 1.03615 11.519 0.648926 10.3573 0.648926H4.65951C2.25316 0.648926 0.648926 2.25316 0.648926 4.65951V10.3297C0.648926 11.519 1.03615 12.5424 1.81061 13.2892C2.55741 14.0083 3.55314 14.3679 4.68717 14.3679H10.3296C11.519 14.3679 12.5147 13.9807 13.2339 13.2892C13.9807 12.57 14.3679 11.5467 14.3679 10.3573V4.65951C14.3679 3.49783 13.9807 2.50209 13.2615 1.78295ZM13.1509 10.3573C13.1509 11.2147 12.8466 11.9062 12.3488 12.3764C11.8509 12.8466 11.1594 13.0956 10.3296 13.0956H4.68717C3.85739 13.0956 3.16591 12.8466 2.66805 12.3764C2.17018 11.8786 1.92125 11.1871 1.92125 10.3297V4.65951C1.92125 3.82974 2.17018 3.13826 2.66805 2.64039C3.13825 2.17018 3.85739 1.92125 4.68717 1.92125H10.385C11.2147 1.92125 11.9062 2.17018 12.4041 2.66805C12.8743 3.16591 13.1509 3.85739 13.1509 4.65951V10.3573Z" fill="#4B4B4B" />
</svg>