<svg width="17" height="18" viewBox="0 0 17 18" fill="none" xmlns="http://www.w3.org/2000/svg">
<mask id="path-1-inside-1" fill="white">
<path fill-rule="evenodd" clip-rule="evenodd" d="M8.50089 9C10.9862 9 13.0009 6.98528 13.0009 4.5C13.0009 2.01472 10.9862 0 8.50089 0C6.01561 0 4.00089 2.01472 4.00089 4.5C4.00089 6.98528 6.01561 9 8.50089 9ZM14.5113 11.4896C15.6295 12.6078 16.4039 14.0054 16.7667 15.5183C17.0242 16.5925 16.1055 17.5 15.0009 17.5H8.50089L2.00089 17.5C0.896325 17.5 -0.0224486 16.5925 0.235095 15.5183C0.597851 14.0054 1.37231 12.6078 2.49049 11.4896C4.08455 9.89553 6.24656 9 8.5009 9C10.7552 9 12.9172 9.89553 14.5113 11.4896Z"/>
</mask>
<path d="M8.50089 17.5V18.5V17.5ZM2.49049 11.4896L3.19759 12.1967L2.49049 11.4896ZM2.00089 17.5L2.00089 18.5L2.00089 17.5ZM16.7667 15.5183L15.7943 15.7515L16.7667 15.5183ZM12.0009 4.5C12.0009 6.433 10.4339 8 8.50089 8V10C11.5385 10 14.0009 7.53757 14.0009 4.5H12.0009ZM8.50089 1C10.4339 1 12.0009 2.567 12.0009 4.5H14.0009C14.0009 1.46243 11.5385 -1 8.50089 -1V1ZM5.0009 4.5C5.0009 2.567 6.5679 1 8.50089 1V-1C5.46333 -1 3.00089 1.46243 3.00089 4.5H5.0009ZM8.50089 8C6.5679 8 5.0009 6.433 5.0009 4.5H3.00089C3.00089 7.53757 5.46333 10 8.50089 10V8ZM17.7391 15.2852C17.3337 13.5943 16.4682 12.0322 15.2184 10.7825L13.8042 12.1967C14.7908 13.1833 15.4742 14.4165 15.7943 15.7515L17.7391 15.2852ZM8.50089 18.5H15.0009V16.5H8.50089V18.5ZM2.00089 18.5L8.50089 18.5V16.5L2.00089 16.5L2.00089 18.5ZM1.78338 10.7825C0.533631 12.0322 -0.331928 13.5943 -0.737343 15.2852L1.20753 15.7515C1.52763 14.4165 2.211 13.1833 3.19759 12.1967L1.78338 10.7825ZM8.5009 8C5.98134 8 3.56498 9.00089 1.78338 10.7825L3.19759 12.1967C4.60412 10.7902 6.51177 10 8.5009 10V8ZM15.2184 10.7825C13.4368 9.00089 11.0205 8 8.5009 8V10C10.49 10 12.3977 10.7902 13.8042 12.1967L15.2184 10.7825ZM2.00089 16.5C1.7181 16.5 1.48046 16.3827 1.33978 16.2313C1.2106 16.0923 1.16391 15.9334 1.20753 15.7515L-0.737343 15.2852C-1.18496 17.152 0.429446 18.5 2.00089 18.5L2.00089 16.5ZM15.7943 15.7515C15.8379 15.9334 15.7912 16.0923 15.662 16.2313C15.5213 16.3827 15.2837 16.5 15.0009 16.5V18.5C16.5723 18.5 18.1867 17.152 17.7391 15.2852L15.7943 15.7515Z" fill="#4B4B4B" mask="url(#path-1-inside-1)"/>
</svg>
