<svg width="34" height="33" viewBox="0 0 34 33" fill="none" xmlns="http://www.w3.org/2000/svg">
<path d="M30.289 24.1399C30.3586 24.1242 30.4301 24.0929 30.5016 24.039C32.6947 22.4201 32.9387 19.9781 32.9318 17.4842C33.0142 17.2294 33.0965 16.9756 33.1768 16.7209C33.4247 15.9359 33.8148 15.0334 33.5551 14.2044C33.4512 13.8742 33.2572 13.6067 33.0083 13.4215C33.0054 13.3558 33.0034 13.2911 32.9995 13.2265C32.9544 12.4758 31.9686 12.4866 31.8333 13.1686C31.5158 13.2421 31.4061 13.6047 31.4482 13.8859C31.6079 14.9286 31.608 15.9506 31.4825 16.9502C31.2934 17.6998 31.0308 18.4308 30.6907 19.1315C29.8402 20.8816 28.5222 22.376 27.9862 24.2761C27.9401 24.4407 27.9656 24.5877 28.0342 24.7063C27.3835 25.5774 26.6829 26.4055 25.9656 27.1825C25.9185 27.2335 25.8833 27.2874 25.8568 27.3413C25.7725 27.4168 25.6863 27.4903 25.601 27.5647C25.5128 27.5814 25.4247 27.6088 25.3384 27.6451C25.211 27.6147 25.0738 27.6196 24.9454 27.6764C23.941 28.1194 22.9934 28.6622 22.1037 29.3061C22.0752 29.3266 22.0488 29.3502 22.0233 29.3756C21.9978 29.3639 21.9724 29.3521 21.9439 29.3433C21.6411 29.2482 21.3168 29.4031 21.0345 29.4942C19.987 29.8303 17.5029 30.2144 17.987 31.8558C18.3212 32.9896 19.5794 32.6799 20.5789 32.1949C20.917 32.1498 21.2433 32.0263 21.5265 31.8303C21.6852 31.9303 21.8901 31.9548 22.1027 31.8333C23.6363 30.9611 25.1052 29.9871 26.5055 28.9151C26.7034 28.7632 26.7779 28.5123 26.7485 28.2869C28.2997 27.2649 29.4159 25.7714 30.289 24.1399ZM20.2712 31.0376C20.2585 31.0376 20.2457 31.0376 20.233 31.0366C20.2399 31.0121 20.2438 30.9886 20.2467 30.9651C20.3516 30.9386 20.4515 30.9131 20.5427 30.8847C20.4525 30.9386 20.3624 30.9896 20.2712 31.0376Z" fill="#39B100"/>
<path d="M1.28322 10.8547C0.143568 13.4858 -0.153388 16.3119 0.068075 19.1792C0.256221 21.6143 1.07352 23.7887 2.58162 25.7349C4.13186 27.7368 6.02702 29.3087 8.16815 30.6208C11.5234 32.6767 15.1354 33.4283 19.0228 32.7658C19.7283 32.6463 20.4153 32.4121 21.1208 32.3004C23.9185 31.8594 25.9998 30.1445 27.9264 28.2954C29.0503 27.2165 29.9342 25.8466 30.7515 24.5012C31.5492 23.189 32.0921 21.724 32.8045 20.3561C33.708 18.6245 33.9255 16.7754 33.854 14.8665C33.854 14.5647 33.8599 14.2629 33.853 13.9611C33.7815 11.0507 32.6712 8.52641 30.877 6.301C30.3694 5.67189 29.6393 5.20838 28.971 4.72527C26.5721 2.98982 23.9783 1.64046 21.1434 0.746766C20.1987 0.448869 19.2707 0.196046 18.2732 0.254842C18.0889 0.265621 17.9008 0.199979 17.7136 0.170582C12.8228 -0.576121 8.83448 1.16814 5.4802 4.62826C4.87657 5.25051 4.37881 5.97761 3.75949 6.58223C2.53165 7.78067 1.93095 9.36228 1.28322 10.8547ZM5.47532 5.36811C6.75804 3.77769 8.38376 2.70467 10.227 1.81294C11.9615 0.974121 13.7175 0.649758 15.5911 0.702674C16.7317 0.706594 17.8636 0.728153 18.8709 1.38862C19.0493 1.50523 19.3031 1.52583 19.5265 1.54934C21.6265 1.76787 23.5246 2.51947 25.3688 3.53369C26.7975 4.31959 28.1704 5.13977 29.409 6.21279C31.0034 7.59253 32.0019 9.29075 32.6055 11.2967C33.2513 13.4437 33.511 15.6142 32.9681 17.7769C32.5771 19.3389 32.046 20.9127 31.2836 22.3228C30.3566 24.0396 29.2571 25.7055 27.9871 27.1822C26.3281 29.1107 24.3252 30.6855 21.7421 31.2597C20.3075 31.5782 18.864 31.9721 17.4079 32.0564C13.8458 32.2621 10.6581 31.0647 7.70073 29.143C5.74284 27.8721 4.07499 26.3248 2.74033 24.4032C1.88388 23.1724 1.40469 21.823 1.04604 20.3708C0.399288 17.7495 0.736409 15.1899 1.26949 12.6293C1.74279 10.3569 2.93832 8.44408 4.39841 6.68022C4.76 6.24415 5.12059 5.8081 5.47532 5.36811Z" fill="#251C1C"/>
<path d="M4.54349 24.474C5.88207 26.2016 7.51852 27.5588 9.36666 28.6916C12.2633 30.4663 15.3814 31.115 18.7377 30.5437C19.3462 30.4398 19.9391 30.2379 20.5486 30.1419C22.9631 29.7607 24.7603 28.2801 26.4232 26.6838C27.3934 25.7528 28.1567 24.57 28.8623 23.4088C29.5512 22.276 30.0196 21.0109 30.635 19.8301C31.414 18.3358 31.6022 16.7385 31.5404 15.0912C31.5404 14.8306 31.5453 14.5699 31.5394 14.3093C31.4777 11.7967 30.5194 9.61836 28.9701 7.6977C28.5321 7.15384 27.902 6.75402 27.3248 6.33657C25.2542 4.83827 23.0151 3.67411 20.5682 2.90193C19.7519 2.64519 18.9513 2.42668 18.09 2.47764C17.9312 2.48744 17.7685 2.42962 17.6068 2.40512C13.3853 1.76033 9.94186 3.26648 7.04618 6.25231C6.52584 6.79029 6.09568 7.41744 5.56064 7.93974C4.50135 8.97454 3.98198 10.3396 3.42342 11.6282C2.43958 13.8987 2.18284 16.3397 2.37393 18.814C2.53659 20.9159 3.24215 22.7934 4.54349 24.474ZM3.41165 13.1598C3.8193 11.198 4.85215 9.5468 6.11233 8.024C6.42395 7.64771 6.73559 7.27144 7.0423 6.89122C8.14864 5.51835 9.55283 4.59231 11.1433 3.82307C12.6416 3.09891 14.1565 2.81865 15.7744 2.86372C16.7592 2.86764 17.7362 2.88528 18.6064 3.4556C18.7592 3.55653 18.9797 3.57514 19.1718 3.59474C20.9847 3.78289 22.6231 4.43258 24.2155 5.30863C25.4482 5.98674 26.6339 6.69523 27.703 7.62028C29.0798 8.81187 29.9412 10.2778 30.4625 12.0104C31.0201 13.8624 31.2445 15.736 30.7761 17.6038C30.438 18.9521 29.9794 20.3103 29.3219 21.5284C28.5213 23.01 27.5717 24.4485 26.4752 25.7234C25.0435 27.3883 23.3149 28.7475 21.0846 29.2423C19.846 29.5177 18.5995 29.8577 17.3432 29.9302C14.2682 30.1086 11.5166 29.0738 8.96292 27.4158C7.27353 26.3182 5.83307 24.9826 4.68067 23.3246C3.94181 22.2613 3.52829 21.0962 3.21863 19.8429C2.66008 17.5802 2.95109 15.3705 3.41165 13.1598Z" fill="#251C1C"/>
<path d="M28.04 18.5485C28.093 18.717 28.288 18.8415 28.4232 18.9845C28.5477 18.8189 28.7221 18.666 28.773 18.4808C28.7936 18.4044 28.5467 18.2555 28.3585 18.082C28.2125 18.2839 28.0097 18.4534 28.04 18.5485Z" fill="#251C1C"/>
<path d="M28.3712 13.5316C28.4447 13.4248 28.4065 13.0975 28.3154 13.0406C27.8784 12.7731 27.7098 13.1455 27.4658 13.4787C27.8059 13.9138 28.1184 13.8951 28.3712 13.5316Z" fill="#251C1C"/>
<path d="M27.1885 22.3274C27.5138 22.4558 27.6696 22.1697 27.6941 21.9169C27.7098 21.7512 27.5501 21.569 27.4991 21.4583C27.0425 21.3897 26.8485 21.5641 26.8661 21.8561C26.8769 22.0247 27.0366 22.2677 27.1885 22.3274Z" fill="#251C1C"/>
<path d="M25.2777 9.83027C25.7441 9.72542 25.6941 9.35303 25.6294 8.95812C25.2189 8.91795 24.8514 8.88562 24.7936 9.38048C24.7554 9.69503 24.9984 9.89299 25.2777 9.83027Z" fill="#251C1C"/>
<path d="M16.0341 17.4374C16.0634 18.871 16.0772 20.3047 16.0919 21.7393C16.0958 22.1557 16.2928 22.3165 16.7915 22.2596C16.9983 20.3791 16.5495 18.5192 16.7082 16.5035C17.1071 16.774 17.4138 16.9425 17.6725 17.166C18.2154 17.6344 18.7367 18.1273 19.26 18.6182C20.6123 19.8872 21.9557 21.165 23.3139 22.4282C23.6628 22.7525 24.0518 23.0328 24.4879 23.3865C24.6711 23.071 24.7926 22.8623 24.8798 22.7104C23.9156 21.7706 23.0239 20.8711 22.0988 20.0068C20.53 18.5388 18.9317 17.1013 17.3648 15.6324C17.0787 15.3639 16.8003 15.1463 16.4221 15.311C16.0272 15.4834 15.8567 15.8205 15.9204 16.2703C15.9762 16.6574 16.0262 17.0474 16.0341 17.4374Z" fill="#251C1C"/>
<path d="M23.6196 24.4727C23.4678 24.8 23.2963 25.0038 23.31 25.1948C23.3208 25.3448 23.5638 25.6005 23.6971 25.5966C24.0636 25.5849 24.1341 25.2674 24.0635 24.9714C24.0312 24.8323 23.8548 24.7274 23.6196 24.4727Z" fill="#251C1C"/>
<path d="M20.8817 6.95529C21.1257 6.93079 21.358 6.79262 21.7666 6.63191C21.4609 6.40653 21.307 6.21054 21.1992 6.23209C20.9797 6.27717 20.7837 6.44082 20.5789 6.55449C20.6808 6.69658 20.7945 6.96411 20.8817 6.95529Z" fill="#251C1C"/>
<path d="M16.4191 27.2634C16.3907 27.331 16.6886 27.5378 16.8366 27.6799C17.0306 27.4476 17.2462 27.2291 17.3981 26.9724C17.4255 26.9263 17.1903 26.7245 16.9787 26.4844C16.7435 26.7921 16.5289 27.0057 16.4191 27.2634Z" fill="#251C1C"/>
<path d="M14.7895 5.91786C15.012 5.78655 15.1884 5.57686 15.3824 5.39656C15.2325 5.26819 15.0394 5.00555 14.9414 5.03789C14.718 5.10845 14.5426 5.32501 14.2604 5.55235C14.5289 5.74442 14.7307 5.95314 14.7895 5.91786Z" fill="#251C1C"/>
<path d="M11.3549 7.20698C10.7708 6.84539 10.3867 6.84049 9.99176 7.30595C10.1152 7.51272 10.2378 7.71848 10.421 8.02422C10.7405 7.74396 10.9933 7.52349 11.3549 7.20698Z" fill="#251C1C"/>
<path d="M10.814 24.4797C10.7944 24.3464 10.52 24.1171 10.47 24.1426C10.2064 24.2778 9.97811 24.4807 9.63318 24.7364C9.9056 24.9598 10.0457 25.1441 10.227 25.2058C10.4828 25.292 10.8659 24.8364 10.814 24.4797Z" fill="#251C1C"/>
<path d="M7.37932 11.0575C7.58118 10.9674 7.75364 10.8126 8.01234 10.6274C7.79382 10.4402 7.60959 10.2511 7.58607 10.2687C7.40282 10.4098 7.2382 10.5833 7.10395 10.7714C7.08729 10.794 7.33522 11.0771 7.37932 11.0575Z" fill="#251C1C"/>
<path d="M6.77277 21.5147C7.06675 21.5568 7.33328 21.1403 7.23039 20.8101C7.19217 20.6866 7.04221 20.5974 6.83153 20.375C6.6424 20.7121 6.47387 20.9365 6.40233 21.1883C6.38175 21.2618 6.62872 21.4941 6.77277 21.5147Z" fill="#251C1C"/>
<path d="M4.49443 15.9922C4.82956 16.1784 5.03925 15.9383 5.21368 15.6894C5.26561 15.6159 5.2715 15.5091 5.31951 15.3445C5.17547 15.2621 5.09902 15.1926 5.0118 15.174C4.66099 15.1014 4.43755 15.2857 4.35131 15.5963C4.31995 15.711 4.39839 15.9383 4.49443 15.9922Z" fill="#251C1C"/>
</svg>
