<svg width="45" height="31" viewBox="0 0 45 31" fill="none" xmlns="http://www.w3.org/2000/svg">
<path d="M2.18488 4.20405C2.77686 4.22332 3.37073 4.25177 3.96087 4.21597C4.42528 4.18752 4.88966 4.15907 5.35406 4.13062C5.61013 4.13705 5.86616 4.14072 6.12039 4.1398C7.39705 4.13521 8.66821 4.12144 9.94395 4.0728C12.4349 3.97735 14.9249 3.88465 17.4149 3.77176C22.4582 3.54231 27.5061 3.3973 32.554 3.33581C35.4129 3.30093 38.2718 3.31378 41.1307 3.26789C41.9687 3.25412 42.7727 2.54008 42.7332 1.66542C42.6937 0.776988 42.0293 0.0877137 41.1307 0.0629331C36.0269 -0.0802435 30.9065 0.0464235 25.8035 0.188682C20.7547 0.329105 15.7059 0.519089 10.6727 0.944947C9.20792 1.06885 7.75592 1.22487 6.29938 1.42404C5.58441 1.52132 4.87959 1.64338 4.17105 1.78564C3.82045 1.85631 3.46889 1.93708 3.13297 2.0619C2.78788 2.18948 2.5144 2.40425 2.19868 2.58505C2.00686 2.69427 1.92608 2.86773 1.92791 3.04303C1.5507 3.13206 1.27264 3.33397 1.32588 3.79287C1.38186 4.26645 1.84254 4.19304 2.18488 4.20405Z" fill="#39B100"/>
<path d="M39.7659 0.185062C36.9244 0.25665 34.0848 0.38789 31.2442 0.477835C27.9227 0.582464 24.6003 0.635696 21.2806 0.776119C19.0706 0.868817 16.8669 1.09184 14.6578 1.22492C13.3563 1.30385 12.0493 1.29284 10.7479 1.37269C7.59251 1.56726 4.4408 1.80131 1.28633 2.00047C0.134491 2.07389 -0.18215 2.47038 0.09319 3.60019C0.289599 4.40601 0.602547 5.20266 0.66771 6.0195C0.994447 10.1138 1.25329 14.2136 1.54607 18.3116C1.61124 19.2165 1.67821 20.1261 1.81863 21.0218C2.21696 23.5669 2.39325 26.1248 2.33543 28.6992C2.31616 29.5913 2.48316 29.8254 3.39269 29.9089C4.21596 29.9851 5.05022 30.0291 5.87532 29.9897C7.80912 29.8988 9.7411 29.7584 11.6722 29.6216C15.0992 29.3802 18.5245 29.1288 21.9506 28.8782C23.1336 28.7919 24.3167 28.7112 25.4969 28.6019C27.6969 28.3973 29.8933 28.1421 32.0951 27.9668C34.4988 27.775 36.9071 27.63 39.3154 27.5033C40.6113 27.4354 41.91 27.2941 43.2004 27.6841C44.0374 27.9375 44.4706 27.5575 44.5027 26.6663C44.5119 26.391 44.4706 26.1138 44.4504 25.8375C44.3063 23.8679 44.1696 21.8983 44.0154 19.9297C43.786 17.0166 43.5143 14.1071 43.3151 11.1931C43.1141 8.247 42.6258 5.2871 43.6739 2.38043C43.8281 1.95274 43.9098 1.5847 44.3678 1.37544C44.8276 1.16527 45.1305 0.811004 44.9442 0.176805C43.2252 0.176805 41.4941 0.141008 39.7659 0.185062ZM1.32765 3.7911C1.26432 3.24501 1.66996 3.06144 2.15456 3.00178C2.82088 2.9201 3.48085 2.77784 4.14809 2.7246C6.26912 2.55573 8.39099 2.39879 10.5148 2.26938C12.444 2.1519 14.3769 2.09225 16.307 1.97753C19.2623 1.80223 22.2158 1.56451 25.1729 1.42501C27.1049 1.33415 29.0443 1.38645 30.979 1.34791C33.9407 1.29008 36.9006 1.20566 39.8624 1.14049C40.6425 1.12306 41.4244 1.13774 42.2771 1.13774C42.2771 1.45988 42.2771 1.7086 42.2771 2.07205C41.15 2.07205 40.0946 2.0537 39.0409 2.07573C36.4362 2.12988 33.8306 2.16659 31.2286 2.28315C29.7344 2.35015 28.2494 2.58694 26.7561 2.69891C23.2153 2.96416 19.6726 3.21105 16.1299 3.446C12.0742 3.71584 8.01842 3.96914 3.96175 4.21603C3.3716 4.25182 2.77773 4.22338 2.18575 4.20411C1.8425 4.19309 1.3818 4.26652 1.32765 3.7911ZM43.1691 21.5441C43.2334 22.6078 43.4142 23.6642 43.484 24.7279C43.5721 26.0587 43.1903 26.39 41.8778 26.4543C39.0767 26.591 36.2783 26.7691 33.4809 26.9536C31.5498 27.0812 29.6197 27.2243 27.6932 27.4042C24.7048 27.6841 21.723 28.021 18.7346 28.2936C17.0422 28.4487 15.3442 28.5542 13.6463 28.6295C10.8847 28.7534 8.12121 28.8507 5.35772 28.9186C4.7795 28.9333 4.1976 28.7727 3.5992 28.691C3.54138 28.333 3.42388 28.0513 3.4661 27.797C3.75612 26.0789 3.37897 24.4131 3.11556 22.7381C2.73376 20.3142 2.67866 17.8683 2.53181 15.426C2.35651 12.512 2.03067 9.6081 1.77552 6.69868C1.73789 6.27465 1.72875 5.84696 1.70122 5.33115C2.8448 5.20909 3.89659 5.0861 4.95206 4.98698C5.46235 4.93925 5.97721 4.94293 6.49026 4.91356C10.3156 4.69513 14.1419 4.49872 17.9645 4.24724C21.3521 4.02513 24.7352 3.7195 28.1228 3.48822C31.8656 3.23215 35.6056 2.80904 39.3667 3.11467C40.2643 3.18809 41.1592 3.29731 42.0669 3.39093C42.1082 3.63873 42.1522 3.78834 42.1559 3.93886C42.1898 5.59457 42.155 7.25487 42.2642 8.90599C42.4083 11.0692 42.7057 13.2224 42.8626 15.3856C43.0122 17.4351 43.0461 19.4928 43.1691 21.5441Z" fill="#251C1C"/>
<path d="M25.1719 10.0054C24.4634 8.58649 23.2225 8.44055 21.9413 8.23772C21.71 8.20101 21.4686 8.23313 21.2319 8.23313C19.9423 8.0872 18.7427 8.33133 17.5735 8.9224C14.8247 10.311 13.7646 13.8161 14.0739 16.4061C14.1336 16.9045 14.2502 17.4341 14.4897 17.8663C15.1386 19.0365 16.1078 19.8947 17.3431 20.4307C18.2123 20.8079 19.0787 21.197 19.9653 21.5293C21.6779 22.1708 23.4034 22.091 25.0169 21.2769C28.7771 19.3789 28.7514 14.9202 27.1278 12.5119C26.5367 11.6336 25.6354 10.9342 25.1719 10.0054ZM26.7671 18.0058C26.3889 19.4991 24.4202 20.9254 22.7177 20.9869C20.9473 21.0511 19.4026 20.3407 17.9222 19.5083C17.2476 19.1292 16.6621 18.573 16.0848 18.0453C15.0551 17.1037 14.8321 15.894 15.0854 14.576C15.2038 13.9565 15.3534 13.3398 15.5443 12.7395C16.1913 10.6974 17.9323 9.33173 20.0754 9.15276C20.3902 9.12615 20.705 9.10229 21.0198 9.07751C21.0235 9.05548 21.0271 9.03345 21.0308 9.01142C21.5732 9.08668 22.1304 9.11146 22.6544 9.25464C23.1042 9.37671 23.4126 9.66673 23.6558 10.1513C23.9807 10.8002 24.479 11.4087 25.0297 11.8906C26.9479 13.5692 27.3664 15.6398 26.7671 18.0058Z" fill="#251C1C"/>
<path d="M23.6348 13.7015C22.4885 13.0021 21.3376 12.3092 20.1692 11.6474C19.8893 11.4887 19.3496 11.2978 19.2514 11.4079C19.0284 11.6575 18.9173 12.0871 18.9201 12.4422C18.9274 13.3031 19.0247 14.1622 19.0862 15.0222C19.0284 15.0249 18.9705 15.0277 18.9127 15.0295C18.9127 15.6224 18.8861 16.2162 18.9192 16.8073C18.9687 17.6985 19.5121 17.9481 20.2803 17.4599C21.4119 16.7412 22.5472 16.029 23.6733 15.3012C24.5003 14.7661 24.4893 14.2228 23.6348 13.7015ZM20.2252 16.1061C20.2252 15.069 20.2252 14.1888 20.2252 13.1168C21.0834 13.584 21.7836 13.9658 22.5555 14.3861C22.0507 15.3911 21.1045 15.5866 20.2252 16.1061Z" fill="#251C1C"/>
</svg>
