<svg width="21" height="28" viewBox="0 0 21 28" fill="none" xmlns="http://www.w3.org/2000/svg">
    <path d="M0.0990595 3.98926C0.147379 4.78571 0.193047 5.58257 0.235741 6.37943C0.321128 7.9752 0.429017 9.56933 0.514404 11.1655C0.684516 14.346 0.830468 17.5289 0.9281 20.7143C0.95557 21.609 0.979396 22.5038 0.999915 23.3989C1.01018 23.8465 1.01944 24.294 1.02771 24.7416C1.03168 24.9586 1.03336 25.1757 1.03931 25.3927C1.04329 25.5331 1.05554 25.6728 1.07076 25.812C1.08929 25.984 1.15913 26.1113 1.23624 26.2506C1.43349 26.6056 1.84024 26.6306 2.03319 26.2506C2.07687 26.1646 2.11954 26.0839 2.15132 25.9901C2.19864 25.8517 2.20261 25.7039 2.20791 25.5557C2.21552 25.3395 2.2046 25.1212 2.19963 24.9046C2.19103 24.5111 2.18176 24.118 2.17216 23.7249C2.15197 22.9247 2.12914 22.1246 2.10332 21.3249C2.05169 19.725 1.98884 18.1259 1.9147 16.5273C1.84057 14.9283 1.75286 13.3309 1.64729 11.7343C1.54105 10.125 1.44177 8.51081 1.28986 6.90685C1.20546 6.01499 1.51391 5.12354 1.42256 4.23291C1.37491 3.76773 1.32394 3.30337 1.26536 2.83984C1.20844 2.3894 1.36266 1.79851 1.26536 1.35873C1.16111 0.888636 0.0222736 1.13228 0.00407096 1.60155C-0.011484 2.00571 0.0212988 2.41152 0.0391705 2.81568C0.0577041 3.20715 0.0755616 3.5982 0.0990595 3.98926Z" fill="#EF4036" />
    <path d="M5.77221 21.6193C5.82413 21.9622 6.27344 22.1816 6.58539 22.0807C6.76938 22.0214 6.90309 21.907 6.98159 21.7611C7.15085 21.791 7.33116 21.7468 7.46322 21.6026C7.8042 21.2299 7.74899 20.6721 7.69747 20.2033C7.65331 19.8029 7.60182 19.4032 7.55357 19.0031C7.44932 18.1352 7.33769 17.27 7.20809 16.4053C7.10179 15.6955 6.99835 14.9849 6.89287 14.2746C6.8667 13.875 6.84054 13.4753 6.81437 13.076C6.825 12.9073 6.83481 12.7385 6.84176 12.5697C6.85893 12.1607 6.90021 11.7291 6.82048 11.3266C6.79759 11.211 6.66267 11.1542 6.55473 11.1807C6.47991 11.101 6.38181 11.0577 6.26243 11.0532C5.95456 11.0414 5.77671 11.2465 5.74482 11.6543C5.73787 11.7418 5.73582 11.8305 5.73991 11.9183C5.7628 12.4099 5.79511 12.9011 5.81106 13.3932C5.8221 13.7262 5.83069 14.0593 5.83968 14.3923C5.80125 14.6714 5.76446 14.9509 5.73053 15.2305C5.56862 16.5545 5.48927 17.9055 5.54119 19.2389C5.57267 20.0366 5.65282 20.8302 5.77221 21.6193Z" fill="#39B100" />
    <path d="M10.2241 12.1491C10.3378 12.237 10.4666 12.2667 10.6013 12.2629C10.8508 12.4086 11.1774 12.4498 11.4328 12.5059C11.5668 12.5352 11.7018 12.5624 11.8372 12.588C11.8108 13.1024 11.7873 13.6172 11.7818 14.1325C11.7737 14.922 11.7935 15.7083 11.8119 16.4974C11.8489 18.0753 11.9032 19.6524 11.9245 21.2306C11.9304 21.6601 12.2566 22.0726 12.6555 22.0524C13.0456 22.0326 13.6811 22.2875 13.6734 21.8271C13.6477 20.2336 13.6037 18.0427 13.5009 16.4529C13.4499 15.6613 13.3094 14.9142 13.2202 14.1267C13.1688 13.6742 13.2676 13.2332 13.1982 12.784C13.4734 12.8178 13.3703 12.8033 13.6459 12.8359C14.0576 12.885 14.4847 12.9799 14.8407 12.6709C15.5903 12.0196 15.2942 10.4734 15.2942 10.4734C16.0798 10.4227 14.0235 10.4772 14.1431 10.4957C14.2609 10.5139 13.9993 10.4743 13.9981 10.4734C13.9299 10.4648 13.8617 10.4602 13.793 10.4582C13.6312 10.4532 13.469 10.4541 13.3072 10.4541C12.9747 10.4536 12.6419 10.4582 12.3098 10.4821C11.9245 10.5097 10.8956 9.86869 10.5173 9.95532C10.0825 10.0547 10.085 10.8711 9.96428 11.4334C9.903 11.7254 10.0113 11.9849 10.2241 12.1491Z" fill="#39B100" />
    <path d="M20.8718 23.8243C20.8085 22.3586 20.7633 20.8925 20.7113 19.4264C20.6686 18.2101 20.7028 16.9842 20.5613 15.7804C20.4395 14.7425 20.4822 13.7095 20.4286 12.6757C20.4036 12.1943 20.3838 11.7105 20.4048 11.2295C20.4851 9.37101 20.5786 7.51332 20.6762 5.65605C20.7157 4.90533 20.7936 4.1571 20.8258 3.40637C20.8646 2.51432 20.8738 1.6206 20.8936 0.727296C20.898 0.516961 20.894 0.306211 20.894 0.00442538C20.5839 0.00442538 20.36 -0.00679856 20.1378 0.00650329C19.117 0.0667773 18.0966 0.137027 17.0758 0.197716C16.3321 0.242194 15.5876 0.281268 14.8435 0.317017C14.2034 0.347778 13.563 0.379787 12.9221 0.394336C12.1244 0.412626 11.325 0.386854 10.5284 0.428006C9.55804 0.477888 8.59093 0.588042 7.62137 0.652058C6.68608 0.713994 5.74713 0.725219 4.81306 0.804199C3.89753 0.881516 2.98806 1.04114 2.07214 1.11679C1.50508 1.16376 0.931194 1.1222 0.360102 1.12053C0.258467 1.12012 0.156821 1.12053 0.00598151 1.12053C0.00598151 1.31175 -0.00895843 1.48259 0.00838406 1.64928C0.114052 2.6623 0.267712 3.67158 0.327805 4.68709C0.407258 6.02434 0.407265 7.367 0.455259 8.70675C0.50769 10.1733 0.560538 11.6398 0.641201 13.1047C0.729527 14.7105 0.861399 16.3133 0.952548 17.9191C1.0195 19.0967 1.04089 20.2769 1.10139 21.4549C1.18245 23.0428 1.4942 24.6158 1.36594 26.2182C1.34175 26.5204 1.45748 26.8409 1.72609 27.0097C2.06286 27.2217 2.43031 27.383 2.78845 27.5567C2.88041 27.6012 2.9889 27.6328 3.08932 27.6315C3.73059 27.6224 4.37388 27.6274 5.01353 27.5821C6.95347 27.4445 8.8934 27.3048 10.8301 27.1269C11.7101 27.0458 12.5809 26.8667 13.4577 26.7436C14.2305 26.6352 15.0032 26.4967 15.7804 26.4531C17.1142 26.3783 18.4503 26.3537 19.7724 26.1313C20.0079 26.0919 20.2374 26.005 20.4649 26.2078C20.5225 26.2594 20.7645 26.2024 20.8202 26.1214C20.923 25.9717 21.0057 25.7651 20.9997 25.586C20.9791 24.9978 20.8972 24.4121 20.8718 23.8243ZM2.32098 26.5599C2.06689 26.6318 1.71685 26.4701 1.67087 26.1791C1.40267 24.4844 1.47442 22.7664 1.32116 21.0617C1.04247 17.9636 0.83033 14.8593 0.685943 11.7516C0.540347 8.62236 0.463343 5.48978 0.462939 2.35719C0.462939 1.65469 1.52001 1.65593 1.52042 2.35719C1.52082 4.10763 1.54461 5.85766 1.59139 7.60726C1.67447 10.7203 1.82775 13.8309 2.04756 16.9369C2.15565 18.467 2.31293 19.9938 2.41618 21.5239C2.51458 22.9771 2.46258 24.4482 2.69085 25.8898C2.73643 26.1812 2.62104 26.4751 2.32098 26.5599ZM20.4733 24.6677C20.4713 25.428 20.3919 25.4858 19.6695 25.6521C18.8992 25.8291 18.122 25.8138 17.3449 25.872C16.0647 25.968 14.7919 26.1675 13.5174 26.3354C12.4155 26.4805 11.3193 26.6821 10.2142 26.7885C8.36665 26.9664 6.51507 27.097 4.66386 27.2275C4.11213 27.2662 3.55593 27.2375 2.99976 26.9224C2.96144 26.3857 2.90743 25.8183 2.88243 25.2497C2.8304 24.0704 2.80983 22.8894 2.74489 21.711C2.70335 20.9627 2.58881 20.2191 2.53638 19.4709C2.47629 18.6162 2.45733 17.7587 2.4053 16.9032C2.33392 15.7256 2.23672 14.5492 2.1734 13.3711C2.13024 12.5684 2.1246 11.7637 2.10605 10.9597C2.07943 9.79708 2.04878 8.63483 2.03385 7.47175C2.01813 6.25505 2.02535 5.03751 2.01003 3.82081C2.00398 3.33862 1.96808 2.85726 1.93783 2.3759C1.89992 1.77232 1.83581 1.58735 2.63599 1.45391C3.55796 1.30011 4.49242 1.21406 5.42488 1.1409C7.10267 1.00913 8.78209 0.897312 10.4619 0.801289C11.1197 0.763877 11.7815 0.809601 12.4405 0.78466C13.2544 0.7539 14.0671 0.673673 14.8814 0.642082C16.024 0.597188 17.1674 0.580144 18.3104 0.545643C18.6052 0.536498 18.8996 0.508233 19.194 0.487865C19.3675 0.47581 19.5405 0.449622 19.7135 0.451284C20.2463 0.456273 20.4133 0.588044 20.4439 1.13217C20.4859 1.88207 20.525 2.63694 20.4883 3.38559C20.4205 4.77896 20.2769 6.16859 20.2023 7.56196C20.1325 8.86471 20.0801 10.1704 20.0781 11.4748C20.0761 12.6907 20.1463 13.9069 20.1914 15.1228C20.2544 16.82 20.3338 18.5169 20.3862 20.2145C20.4302 21.6449 20.4455 23.0761 20.4733 24.5064C20.4745 24.5605 20.4737 24.6141 20.4733 24.6677Z" fill="#251C1C" />
    <path d="M15.4746 7.61213C15.6695 7.77988 15.8696 7.74798 16.0942 7.6914C16.9069 7.48648 17.7252 7.29142 18.5397 7.08979C18.8524 7.01249 18.8542 6.99637 18.6466 6.63159C17.6409 6.90395 16.6324 7.17433 15.6286 7.45392C15.557 7.47398 15.5231 7.55983 15.4746 7.61213Z" fill="#251C1C" />
    <path d="M13.2637 7.57379C13.3961 7.64809 13.5034 7.757 13.5663 7.73346C13.7 7.68408 13.8271 7.58256 13.9266 7.47227C14.212 7.15525 14.461 6.79946 14.7619 6.50089C15.5985 5.67164 16.4478 4.85624 17.3051 4.05053C17.6332 3.74181 17.7797 3.50138 17.6196 3.39017C17.2844 3.15713 17.1621 3.53 16.9901 3.69981C16.5366 4.14836 16.1069 4.62366 15.6578 5.07682C14.9633 5.77778 14.2582 6.46674 13.5632 7.16632C13.459 7.27107 13.3846 7.40721 13.2637 7.57379Z" fill="#251C1C" />
    <path d="M17.2022 16.5899C17.0148 16.6304 16.8637 16.8804 16.5781 17.146C16.8761 17.3969 17.0585 17.6588 17.2641 17.6837C17.3871 17.6984 17.6289 17.3629 17.6702 17.1497C17.7379 16.805 17.539 16.5182 17.2022 16.5899Z" fill="#251C1C" />
    <path d="M17.5949 18.9573C17.5288 18.8499 17.1344 18.7494 16.9993 18.8057C16.4252 19.0441 16.4757 19.4059 16.9235 19.8948C17.3015 19.5986 17.9126 19.4737 17.5949 18.9573Z" fill="#251C1C" />
    <path d="M15.0281 10.1033C14.2648 10.0954 13.5006 10.0859 12.7377 10.0542C11.7202 10.0116 10.6956 10.1508 9.6836 9.95842C9.43495 9.91089 9.27734 10.0192 9.14984 10.2085C8.81986 10.6979 8.81479 11.2313 8.86519 11.7697C8.90459 12.1843 9.06936 12.2858 9.54336 12.2922C9.8869 12.2971 10.2368 12.3084 10.5693 12.3748C10.743 12.4095 10.9616 12.5408 11.0268 12.6785C11.173 12.9867 11.2763 13.3221 11.3233 13.6545C11.3915 14.1366 11.3903 14.6263 11.4292 15.1118C11.4369 15.2035 11.4949 15.2918 11.5525 15.4404C11.5991 15.3337 11.6224 15.3042 11.6237 15.274C11.6669 14.3354 11.666 13.3991 11.3678 12.4857C11.2729 12.1941 11.0611 12.0137 10.7095 11.9794C10.402 11.9489 10.0936 11.9179 9.78734 11.8779C9.35739 11.8217 9.2155 11.6644 9.24345 11.292C9.28412 10.7552 9.42052 10.6115 10.0093 10.51C10.1694 10.4824 10.3351 10.4666 10.4982 10.4666C11.8083 10.4658 13.1202 10.3855 14.4287 10.5251C14.8752 10.5726 14.9569 10.6254 15.0294 11.017C15.0471 11.1128 15.0565 11.2106 15.0607 11.3079C15.0836 11.8613 14.8777 12.0507 14.2618 12.0345C13.8611 12.0243 13.46 11.9855 13.0601 11.9919C12.6475 11.9987 12.5505 12.1122 12.5797 12.477C12.6411 13.2527 12.6708 14.0325 12.7801 14.8032C12.8635 15.3944 12.9186 15.9856 12.9461 16.5782C12.9648 16.9736 12.9707 17.3697 12.9652 17.7674C12.9605 18.1107 12.9466 18.4744 13.2418 18.7894C13.2418 18.6781 13.2503 18.566 13.2401 18.4559C13.1825 17.8281 13.1084 17.2019 13.066 16.5737C13.0507 16.3511 13.1389 16.1236 13.1278 15.9003C13.0859 15.0609 13.0173 14.2226 12.9711 13.3832C12.9614 13.2074 12.977 13.0237 13.0245 12.8532C13.116 12.5238 13.2727 12.4182 13.6421 12.411C14.0784 12.4023 14.5151 12.3993 14.9514 12.4072C15.3674 12.4148 15.4767 12.3401 15.4733 11.9692C15.4691 11.4682 15.4496 10.9672 15.4292 10.4662C15.4203 10.244 15.3145 10.1063 15.0281 10.1033Z" fill="black" />
    <path d="M13.0503 19.843C13.0526 20.2579 13.0792 20.6776 13.0527 21.0855C13.0174 21.6266 12.7638 21.8068 12.5399 21.463C12.4703 21.3567 12.4186 21.151 12.4076 20.9796C12.3519 20.119 12.2964 19.2562 12.2717 18.3912C12.247 17.5245 12.2607 16.6538 12.2529 15.7853C12.252 15.6811 12.2235 15.5774 12.2078 15.4736C12.1911 15.4824 12.1747 15.4908 12.1582 15.4996C12.1824 17.6625 12.2066 19.8254 12.2313 22.0314C12.4658 22.0573 12.7157 22.1061 12.9655 22.1052C13.1293 22.1052 13.2653 21.8573 13.2634 21.569C13.259 20.8565 13.2134 20.1524 13.0503 19.4834C13.0503 19.6034 13.0496 19.7234 13.0503 19.843Z" fill="black" />
    <path d="M11.3298 6.63146C11.8052 6.31282 11.8427 5.90056 12.0622 5.53844C12.2791 5.18076 12.4448 4.81134 12.6412 4.44859C12.8397 4.08202 13.0484 3.71736 13.2633 3.33176C12.855 3.27717 12.6822 3.36413 12.6109 3.55297C12.5309 3.76592 12.4745 3.98364 12.3668 4.19088C12.0088 4.87831 11.7391 5.58573 11.1616 6.22491C11.0483 6.35059 10.9298 6.50991 11.3298 6.63146Z" fill="#251C1C" />
    <path d="M9.91741 3.95123C9.83365 3.32444 9.41487 3.15256 8.75924 3.47437C8.19372 3.7518 7.89217 4.18103 7.75873 4.68311C7.68133 4.97409 7.80435 5.26741 8.13014 5.4122C8.33983 5.50561 8.70032 5.57146 8.87477 5.48786C9.494 5.19128 9.8475 4.71768 9.94685 4.1857C9.93241 4.07034 9.92549 4.01102 9.91741 3.95123ZM8.50099 4.92645C8.39932 4.51264 8.50797 4.24502 8.8742 4.08388C8.96431 4.04418 9.12721 4.0325 9.20172 4.0736C9.27913 4.11657 9.32763 4.23941 9.32301 4.32535C9.30683 4.61119 8.96773 4.84799 8.50099 4.92645Z" fill="#251C1C" />
    <path d="M6.24989 5.5275C5.95513 5.5129 5.64881 5.63923 5.37399 5.91553C5.2224 6.06752 5.02607 6.24669 4.84256 6.25776C4.2721 6.29249 3.9308 6.70368 3.6511 7.16016C3.40776 7.55775 3.20341 8.03487 3.38736 8.55124C3.69764 9.42242 4.32128 9.88595 5.10938 9.93779C5.94668 9.99315 6.78001 9.8316 7.23656 8.87737C7.45154 8.42793 7.62795 7.92817 7.70951 7.4274C7.88237 6.36396 7.23613 5.52498 6.24989 5.5275ZM6.32123 9.2196C6.12841 9.37864 5.82788 9.36857 5.58276 9.4345C5.26051 9.39424 4.95382 9.38317 4.65773 9.31321C4.20871 9.20651 3.85854 8.70927 3.83239 8.19994C3.81155 7.7943 4.18032 7.02981 4.50168 6.92965C4.68652 6.87177 4.90948 6.93015 5.10717 6.97948C5.23173 7.01018 5.33588 7.136 5.45866 7.19237C5.73835 7.32121 5.95378 7.16167 5.87576 6.83604C5.79155 6.48425 5.81594 6.23864 6.11514 6.09168C6.41744 5.94371 6.77866 6.04387 6.9768 6.37755C7.108 6.59849 7.22504 6.88687 7.22327 7.14355C7.21662 7.98605 6.93025 8.71933 6.32123 9.2196Z" fill="#251C1C" />
    <path d="M7.52324 19.0507C7.45089 17.7988 7.39799 16.5458 7.35872 15.2927C7.32895 14.3444 7.3339 13.3949 7.32315 12.4461C7.31943 12.1064 7.3186 11.767 7.3095 11.4276C7.30372 11.2171 7.20988 11.0579 6.96472 11.0547C6.50831 11.0488 6.05188 11.0575 5.53056 11.0607C5.53056 11.4178 5.51652 11.6704 5.53471 11.9211C5.55373 12.1907 5.6364 12.4591 5.63351 12.7276C5.62028 13.9802 5.76663 15.2242 5.83856 16.4725C5.85923 16.8264 5.8179 17.1835 5.83279 17.5383C5.8456 17.8422 5.9196 18.1437 5.92952 18.4472C5.9659 19.5292 5.98451 20.6111 6.01386 21.6931C6.02213 22.0037 6.09406 22.077 6.42893 22.0955C6.69476 22.1101 6.96224 22.0924 7.22848 22.1034C7.54888 22.1172 7.66465 22.0624 7.71344 21.7865C7.74568 21.6052 7.73824 21.4144 7.72212 21.23C7.65969 20.5031 7.56499 19.7783 7.52324 19.0507ZM7.32561 21.172C7.30205 21.5094 7.1119 21.6655 6.83533 21.6608C6.55792 21.656 6.40163 21.5437 6.35905 21.2138C6.26934 20.5276 6.20153 19.8378 6.15068 19.148C6.0895 18.3191 6.04609 17.4886 6.01261 16.6585C5.97416 15.6944 5.95803 14.7295 5.92496 13.7654C5.90884 13.2908 5.87621 12.817 5.85305 12.3429C5.84892 12.2581 5.85095 12.1726 5.85798 12.0882C5.89023 11.6949 6.07007 11.497 6.38137 11.5084C6.6563 11.5187 6.82044 11.7228 6.84566 12.091C6.91222 13.0547 6.97796 14.018 7.04369 14.9818C7.03087 14.9825 7.01763 14.9833 7.00481 14.9841C7.10568 16.6758 7.20865 18.3676 7.30539 20.0593C7.32688 20.4298 7.35125 20.8031 7.32561 21.172Z" fill="black" />
    <path d="M6.65373 3.80791C6.76007 4.02044 6.86584 4.28034 7.01734 4.3864C7.18632 4.50503 7.34422 4.29669 7.46192 4.09045C7.67169 3.72366 7.75881 3.30698 7.73113 2.83288C7.71482 2.55579 7.65013 2.34787 7.44997 2.26026C7.25594 2.17517 7.0858 2.18271 6.93255 2.41327C6.73007 2.7176 6.62868 3.06972 6.6316 3.49017C6.63742 3.5979 6.61644 3.73288 6.65373 3.80791ZM7.43569 2.757C7.52834 3.37447 7.45258 3.61048 7.06335 3.919C6.85329 3.18668 6.96255 2.84545 7.43569 2.757Z" fill="#251C1C" />
    <path d="M4.37114 4.73893C4.96184 4.84383 5.22964 4.75154 5.43696 4.35602C5.49044 4.25428 5.5106 4.14135 5.52417 4.03244C5.55914 3.74526 5.22838 3.34085 4.94948 3.31707C4.67388 3.29356 4.16998 3.57215 4.04905 3.81978C4.02107 3.87739 4.01616 3.94044 4.00012 4.00063C3.98407 4.0611 3.97829 4.12444 3.94785 4.18148C3.87751 4.31532 3.69283 4.36089 3.52541 4.28122C3.43944 4.24052 3.38309 4.17145 3.30246 4.12416C3.1153 4.01352 2.91453 3.99862 2.73476 4.12645C2.57557 4.23995 2.41023 4.35574 2.2967 4.49044C2.2243 4.57671 2.18479 4.71342 2.23045 4.80285C2.32301 4.98398 2.47029 5.15423 2.61879 5.31874C2.83927 5.56265 2.9602 5.58156 3.30162 5.42737C3.4312 5.3689 3.55461 5.28922 3.63894 5.1998C3.7825 5.04732 3.89316 4.87966 4.04495 4.68276C4.16918 4.70425 4.27036 4.72116 4.37114 4.73893ZM5.07783 3.54263C5.32094 4.0247 5.23004 4.2239 4.68664 4.45891C4.18808 4.16141 4.34027 3.77679 5.07783 3.54263ZM2.94414 5.20868C2.5044 4.91806 2.48222 4.63231 2.88287 4.4271C2.97954 4.37752 3.15475 4.3437 3.2543 4.3715C3.35837 4.40045 3.45917 4.5062 3.48303 4.58932C3.56201 4.86303 3.41802 5.01866 2.94414 5.20868Z" fill="#251C1C" />
</svg>