<svg width="367" height="278" viewBox="0 0 367 278" fill="none" xmlns="http://www.w3.org/2000/svg">
<path d="M136.938 205.711C134.751 205.308 132.185 206.347 130.242 207.324C129.081 207.899 128.678 209.475 129.166 210.599C129.729 211.895 130.926 212.31 132.27 212.115C132.674 212.053 133.126 212.005 133.639 211.895C134.03 211.809 134.409 211.699 134.8 211.601C135.753 211.381 136.78 211.296 137.598 210.721C138.515 210.086 139.089 209.133 138.906 207.984C138.759 206.994 138.014 205.907 136.938 205.711Z" fill="#ED1B23"/>
<path d="M137.684 254.861C138.6 254.556 139.358 253.786 139.382 252.552C139.419 250.755 139.15 249.02 138.564 247.321C137.855 245.281 135.582 245.293 134.543 246.539C133.04 245.586 130.657 246.124 130.841 248.372C131.574 257.085 133.566 265.664 134.335 274.389C134.714 278.678 140.397 277.761 140.335 274.364C140.348 274.376 140.372 274.376 140.384 274.389C139.786 267.961 139.175 261.252 137.684 254.861Z" fill="#ED1B23"/>
<path d="M243.911 242.543C243.704 237.936 236.543 237.9 236.726 242.543C236.873 246.234 237.643 249.765 238.486 253.346C239.329 256.938 239.207 260.971 240.392 264.392C241.199 266.702 244.693 267.618 245.977 265.126C249.41 258.441 244.229 249.57 243.911 242.543Z" fill="#00AB2E"/>
<path d="M175.297 26.7276C174.967 25.1634 172.963 23.5748 171.949 22.4017C170.36 20.5687 168.796 18.7235 167.073 17.0127C166.621 16.5606 165.79 16.8905 165.79 17.5382C165.815 20.6543 165.766 23.7581 165.876 26.8742C165.888 27.2041 166.047 27.5708 166.364 27.7174C166.474 27.7663 166.597 27.7907 166.707 27.8396C167.049 28.6583 168.039 28.8905 168.662 28.4261C169.578 28.5972 170.495 28.6461 171.436 28.5728C173.525 28.8294 175.725 28.7072 175.297 26.7276Z" fill="#251C1C"/>
<path d="M253.663 41.7092C251.243 41.6114 248.836 42.0147 246.453 42.4057C244.962 42.6501 243.154 42.5645 242.738 44.2631C242.641 44.3364 242.628 44.4953 242.714 44.5931C242.689 45.2041 243.032 45.7784 243.655 45.9617C244.987 46.3283 246.087 47.0126 247.137 47.7825C247.602 48.2102 248.066 48.6379 248.531 49.0656C249.533 49.9698 250.889 51.4973 252.258 51.8639C254.897 52.5604 258.221 48.3324 258.612 46.0228C259.137 42.9556 256.168 41.8069 253.663 41.7092Z" fill="#251C1C"/>
<path d="M186.49 70.3283C185.232 66.4546 181.26 63.9128 177.313 65.8436C172.608 68.1531 171.741 75.2529 172.596 79.7743C172.657 80.1042 172.853 80.3242 173.097 80.4464C172.938 80.5564 172.853 80.7885 173.061 80.9352C175.761 82.8415 178.779 84.9433 181.81 86.2631C183.02 86.7885 183.924 87.1184 185.109 86.1897C187.077 84.65 186.588 80.8374 186.747 78.699C186.942 75.9739 187.358 73.0167 186.49 70.3283ZM185.17 77.0737C185.061 79.4199 185.855 84.8578 182.409 84.9311C181.92 84.9433 181.248 84.589 180.564 84.1613C180.564 84.149 180.588 84.149 180.588 84.1368C181.847 81.4606 182.617 78.6256 182.751 75.6684C182.812 74.1653 182.971 71.477 181.016 71.0126C179.061 70.5483 178.058 73.2733 177.496 74.6053C176.592 76.7193 175.7 79.481 176.287 81.8028C175.663 81.4973 175.052 81.204 174.429 80.9108C174.417 80.813 174.405 80.7152 174.38 80.6053C174.38 80.593 174.393 80.593 174.393 80.5808C174.38 80.4219 174.368 80.2875 174.356 80.1409C174.441 79.9943 174.49 79.8232 174.466 79.6032C174.111 76.0717 174.16 71.8191 176.714 69.0208C179.464 66.0024 183.533 67.1756 184.816 70.9882C185.439 72.9067 185.268 75.1063 185.17 77.0737Z" fill="#251C1C"/>
<path d="M225.63 78.442C224.42 74.5072 220.608 71.5622 216.807 74.3117C212.115 77.7088 210.123 85.945 208.987 91.2729C208.779 92.2627 210.331 92.5194 210.526 91.5296C211.272 87.778 212.384 84.1487 214.046 80.7027C215.366 77.9654 219.3 69.9369 223.883 77.6721C224.799 79.2241 224.848 81.7781 224.958 83.5499C225.117 86.165 225.349 94.1446 222.526 95.2933C221.952 95.5255 221.023 95.3666 220.046 95.0977C221.146 93.5458 221.414 90.6986 221.671 89.0611C221.952 87.277 221.744 80.0306 218.139 81.9247C216.539 82.7679 216.038 85.6396 215.549 87.1793C214.913 89.1956 214.315 91.2973 214.241 93.4114C212.738 93.057 211.235 92.7393 209.683 92.5682C209.329 92.5316 209.146 93.0326 209.488 93.1914C212.922 94.6945 217.907 96.833 221.634 96.9307C223.137 96.9674 223.553 96.9674 224.457 95.8065C227.402 92.0428 226.901 82.5723 225.63 78.442Z" fill="#251C1C"/>
<path d="M265.296 34.8047C262.437 28.1571 254.983 24.4056 247.284 22.8659C247.284 22.5971 247.235 22.316 247.064 22.0227C240.099 10.316 227.83 3.6195 214.632 1.38325C203.292 -0.535273 185.965 -1.75726 176.91 6.88222C171.753 6.34454 166.498 6.84556 161.403 8.50747C161.231 8.56857 161.097 8.65411 160.975 8.73965C160.963 8.75187 160.95 8.75188 160.938 8.7641C160.865 8.8252 160.816 8.91073 160.755 8.98405C160.572 9.21622 160.437 9.48507 160.474 9.77835C161.317 16.6704 161.745 23.8679 163.358 30.6377C162.991 30.5644 162.6 30.65 162.343 30.9921C155.011 40.4015 150.307 53.6968 152.567 65.6356C152.677 66.1977 152.836 66.7598 152.983 67.3097C152.983 67.322 153.007 67.3342 153.007 67.3586C153.105 67.7619 153.215 68.1651 153.337 68.5684C153.35 68.605 153.337 68.6295 153.35 68.6539C154.608 73.1631 156.612 77.44 159.007 81.436C160.987 84.7476 163.223 87.8881 165.545 90.9553C166.217 91.8473 166.877 92.886 167.622 93.8269C167.378 94.2546 167.146 94.719 166.926 95.2445C164.8 94.7801 162.612 94.4868 160.339 94.3769C157.174 94.218 153.594 94.0347 150.368 94.7679C150.478 95.2811 150.6 95.7943 150.747 96.3076C152.128 95.9532 153.57 95.7333 155.024 95.5866C155.329 95.4278 155.671 95.4033 156.001 95.5378C159.472 95.3056 163.077 95.5622 166.559 96.2954C166.242 97.4563 166.205 98.5439 166.388 99.5826C161.427 99.2404 156.405 100.096 152.152 102.796C151.529 103.187 152.091 104.226 152.775 103.933C157.407 101.892 161.867 100.536 166.608 100.499C167.586 103.701 170.629 106.255 173.696 107.978C179.402 111.191 185.989 113.318 191.903 109.884C192.6 114.809 199.7 117.081 204.05 117.754C206.494 118.132 209.708 118.096 212.543 117.265C212.58 117.301 212.628 117.338 212.665 117.375C214.791 119.648 215.317 122.238 216.539 124.951C216.747 125.428 217.577 125.44 217.626 124.841C217.883 121.786 216.294 118.951 213.936 116.752C215.378 116.141 216.661 115.31 217.577 114.124C220.449 116.385 222.624 119.33 223.199 122.483C223.357 123.35 224.592 123.24 224.567 122.348C224.445 118.242 221.415 115.383 218.152 113.305C218.188 113.244 218.237 113.208 218.262 113.147C218.396 112.878 218.457 112.621 218.543 112.352C230.054 110.544 240.771 102.65 247.565 93.4481C251.805 87.7048 256.009 80.2995 258.453 72.6132C258.636 71.9166 258.832 71.2323 259.089 70.5602C259.101 70.5358 259.113 70.5358 259.113 70.5114C259.113 70.4991 259.101 70.4991 259.101 70.4869C260.506 65.2935 261.032 60.0267 260.115 55.102C260.347 55.0776 260.579 55.0043 260.763 54.8821C264.258 52.5603 265.932 46.0593 266.909 42.1856C267.716 39.0084 267.936 36.4667 265.296 34.8047ZM176.409 107.196C174.282 106.181 170.726 103.432 168.979 100.597C170.189 100.707 171.423 100.866 172.681 101.171C173.011 101.244 173.085 100.743 172.767 100.658C171.386 100.279 169.969 100.01 168.539 99.8025C168.013 98.7149 167.781 97.6274 168.062 96.6498C171.875 97.5907 175.468 99.0082 178.413 100.731C178.571 100.829 178.743 100.56 178.584 100.45C175.455 98.1528 172.107 96.6253 168.563 95.6599C169.101 94.9267 169.993 94.2669 171.423 93.7781C177.704 91.5785 183.838 99.7903 188.445 105.656C188.738 106.108 189.081 106.523 189.447 106.927C190.083 107.721 190.681 108.43 191.231 109.041C186.637 111.326 180.734 109.236 176.409 107.196ZM204.392 109.823C208.058 109.334 212.408 110.629 216.026 112.988C215.757 113.391 215.353 113.733 214.694 113.965C213.973 114.625 213.129 115.065 212.188 115.322C209.854 113.684 207.129 112.621 204.747 112.475C204.429 112.45 204.343 112.902 204.661 112.976C206.897 113.464 208.999 114.381 210.808 115.725C209.207 116.092 207.484 116.141 205.895 116.079C201.606 115.908 194.518 113.782 192.368 109.542C192.392 109.493 192.404 109.444 192.404 109.395C192.441 109.322 192.441 109.224 192.429 109.138C192.539 109.138 192.649 109.102 192.734 109.041C192.967 109.053 193.187 108.98 193.333 108.809C193.492 108.796 193.651 108.747 193.773 108.662C195.838 108.98 197.977 108.576 199.688 107.306C199.712 107.281 199.736 107.257 199.773 107.232C200.702 106.988 201.643 106.756 202.584 106.56C204.392 106.194 206.274 105.876 208.131 105.778C209.195 105.79 210.246 105.802 211.309 105.815C214.632 105.754 216.087 107.208 215.696 110.153C216.184 110.947 216.343 111.607 216.319 112.181C212.653 110.067 208.632 108.43 204.368 109.383C204.05 109.432 204.087 109.872 204.392 109.823ZM262.205 47.1958L261.337 49.0654C260.433 50.0552 260.139 51.1061 260.469 52.2426C260.078 51.9737 259.553 51.9126 259.162 52.267L258.942 52.4625C258.392 52.9636 258.27 53.5868 258.661 54.2466C258.697 54.3077 258.734 54.3688 258.771 54.4299C258.526 54.5766 258.355 54.8332 258.392 55.212C258.759 59.0613 258.465 63.0205 257.683 66.9554C257.194 66.6132 256.559 66.4299 255.85 66.2466C253.137 65.5623 250.302 65.0857 247.541 64.6458C244.302 64.1203 239.463 63.4727 237.227 66.5765C235.199 69.3871 237.007 73.0286 239.341 74.9716C243.08 78.0999 248.579 79.0653 253.272 80.0551C252.319 82.0958 251.292 84.0999 250.18 86.0062C250.009 85.7862 249.777 85.603 249.496 85.4808C246.331 84.2465 242.983 82.8901 239.634 82.2302C237.154 81.7415 234.649 82.328 233.463 84.772C230.677 90.4787 236.567 95.4644 241.272 97.7373C234.954 103.933 227.28 107.807 218.848 111.057C219.117 107.965 216.575 105.191 213.545 104.189C210.123 103.053 205.663 103.481 201.459 104.519C201.814 103.517 201.411 102.442 200.347 101.868C198.624 100.927 196.669 101.745 195.227 102.809C194.702 103.2 194.091 103.664 193.565 104.189C193.553 104.189 193.529 104.202 193.516 104.202C192.734 101.171 190.046 96.1976 187.406 98.8249C186.82 99.4115 186.698 100.194 186.783 101C181.651 95.0001 174.368 88.829 169.749 91.5541C167.476 88.6824 162.123 80.5561 161.525 79.5785C159.838 76.8168 158.323 73.9207 157.138 70.9024C160.254 71.9778 164.445 70.7313 166.364 68.1407C168.282 65.5745 167.293 62.8006 164.787 61.1631C161.794 59.2079 158.433 57.3871 154.902 56.715C154.999 55.432 155.195 54.1611 155.427 52.9024C158.971 56.0185 163.956 58.0226 168.673 57.3749C170.812 57.0817 172.046 55.4809 171.765 53.3301C171.423 50.7273 169.345 48.6621 167.231 47.3179C165.863 46.4503 161.268 44.1896 158.091 44.0674C159.777 39.9249 161.952 35.929 164.189 32.1163C164.323 31.8964 164.335 31.6764 164.286 31.4687C164.555 31.3465 164.787 31.1143 164.787 30.7966C164.824 24.5034 163.785 18.0879 162.979 11.8069C166.462 13.9209 169.859 16.1694 173.06 18.6745C176.531 21.3873 179.537 24.7233 183.056 27.3262C183.96 27.9983 185.256 26.8984 184.535 25.9331C179.757 19.5787 172.18 14.5441 165.13 10.4016C174.038 8.80075 182.665 9.88832 190.852 14.2753C192.551 15.1795 193.773 12.4667 192.087 11.5625C188.323 9.54616 184.327 8.14089 180.233 7.35881C184.938 4.92705 190.388 3.75392 195.96 3.35066C197.109 6.5034 201.777 7.55433 204.783 8.14089C212.763 9.70504 220.901 10.5971 228.979 11.4403C229.797 11.5258 230.396 11.037 230.702 10.3893C235.675 13.3466 240.013 17.2691 243.325 22.2304C240.074 21.8883 236.909 21.9127 234.172 22.2793C232.241 22.5359 232.535 25.5787 234.478 25.2976C244.095 23.9412 254.543 26.2997 260.787 33.3628C256.816 32.9473 252.099 33.8516 248.873 34.6092C242.86 36.039 236.922 38.5685 231.606 41.6968C230.97 42.0756 231.557 42.9921 232.205 42.7843C239.537 40.4259 246.539 37.1021 254.335 36.4178C258.563 36.039 263.879 35.5624 264.368 40.6703C264.551 42.7355 263.036 45.2772 262.205 47.1958Z" fill="#251C1C"/>
<path d="M269.243 146.665C269.133 140.335 267.276 133.663 265.455 127.724C263.366 120.905 260.861 112.51 256.034 107.084C255.997 107.036 255.948 107.023 255.899 107.011C255.789 99.5692 254.494 91.773 252.27 85.1131C252.197 84.8687 251.977 84.8442 251.806 84.9298C251.781 84.8564 251.769 84.7709 251.744 84.6976C251.292 85.4552 250.84 86.2007 250.388 86.9705C251.659 91.223 252.832 95.5 253.455 99.9847C253.504 100.302 253.516 100.608 253.553 100.926C253.7 102.722 253.797 104.531 253.895 106.339C250.681 105.044 246.856 104.824 243.484 105.178C240.979 105.447 236.335 106.046 236.506 109.418C236.665 112.486 239.696 114.893 242.323 115.846C245.231 116.897 249.667 117.826 252.905 117.533C252.979 117.557 253.04 117.594 253.113 117.606C253.529 117.655 253.773 117.557 254.14 117.361C254.25 117.3 254.286 117.215 254.36 117.141C254.286 120.783 254.103 124.425 253.687 128.054C252.893 134.946 251.561 141.704 249.801 148.363C245.195 145.785 238.804 142.424 233.5 143.903C229.993 144.881 227.378 148.644 229.345 152.139C230.36 153.936 232.278 154.901 234.062 155.756C237.264 157.321 241.248 159.838 244.742 160.522C245.231 160.62 245.671 160.608 246.087 160.534C245.06 163.504 243.973 166.461 242.799 169.394C242.494 169.088 242.127 168.795 241.651 168.563C240.087 167.793 238.156 167.683 236.518 166.974C234.502 166.107 232.596 165.044 230.494 164.384C227.757 163.516 224.323 163.015 221.708 164.579C219.716 165.765 219.056 167.817 220.474 169.748C222.343 172.29 226.865 174.16 229.688 175.259C232.865 176.494 236.127 177.166 239.512 177.239C239.28 177.752 239.072 178.266 238.84 178.779C238.779 178.852 238.73 178.938 238.706 179.035C238.694 179.084 238.669 179.133 238.657 179.182C238.51 179.512 238.364 179.854 238.205 180.196C238.107 180.404 238.119 180.587 238.168 180.746C237.374 183.288 236.47 185.805 235.455 188.225C235.419 188.323 235.394 188.42 235.37 188.518C235.37 188.542 235.37 188.555 235.358 188.579C235.358 188.591 235.345 188.591 235.345 188.604C234.795 190.253 234.001 191.817 233.06 193.284C228.087 202.351 220.535 208.913 208.083 207.716C200.201 206.958 192.319 201.826 192.233 193.174C192.111 181.394 205.028 181.101 213.447 182.115C213.802 182.151 213.96 181.675 213.631 181.516C210.673 180.135 207.178 179.585 203.818 179.903C204.062 173.927 204.221 168.062 205.565 162.184C207.081 155.536 210.001 149.683 212.726 143.5C213.056 142.742 211.993 142.021 211.468 142.718C210.013 144.636 208.706 146.787 207.557 149.072C205.358 146.286 205.272 142.559 205.199 139.088C205.187 138.612 204.429 138.6 204.356 139.064C203.732 143.28 203.512 147.936 206.519 151.259C202.572 160.241 200.971 171.044 202.413 180.086C197.635 180.905 193.309 183.581 191.341 188.323C190.352 190.718 190.193 193.21 190.645 195.593C179.622 196.705 168.6 197.744 157.578 198.881C154.877 199.162 152.14 199.406 149.39 199.638C150.307 193.088 147.594 184.302 143.989 178.913C139.541 172.229 133.223 169.04 126.576 165.08C126.393 164.97 126.197 165.276 126.368 165.41C131.586 169.406 137.476 174.612 141.166 180.05C143.39 183.325 144.686 186.893 145.431 190.767C146.005 193.748 145.981 197.035 147.179 199.834C146.115 199.931 145.052 200.017 143.977 200.115C140.69 200.396 137.403 200.701 134.128 201.031C133.993 201.092 133.859 201.166 133.688 201.178C133.59 201.19 133.505 201.19 133.407 201.202C133.248 201.288 133.065 201.349 132.845 201.349H131.122C127.92 201.716 124.731 202.119 121.566 202.632C121.101 202.705 120.906 203.06 120.906 203.402L120.771 203.414C120.674 203.426 120.686 203.573 120.784 203.573L120.918 203.561C120.942 203.659 121.016 203.744 121.065 203.83C120.918 203.915 120.808 204.05 120.845 204.27C122.042 210.587 123.362 216.807 124.022 223.223C124.071 223.65 124.34 223.931 124.694 224.066C124.67 224.115 124.633 224.164 124.633 224.237C124.743 226.974 125.097 229.687 125.586 232.388C125.562 232.412 125.549 232.436 125.525 232.473C125.586 232.876 125.684 233.292 125.696 233.695C125.769 234.013 125.843 234.343 125.916 234.673C125.953 234.844 126.001 235.003 126.038 235.174C126.05 235.21 126.038 235.247 126.038 235.284C126.063 235.418 126.087 235.54 126.111 235.675C126.148 235.626 126.185 235.577 126.209 235.528C126.331 236.115 126.454 236.689 126.588 237.263C126.686 237.679 126.784 238.143 126.869 238.62C119.342 235.198 112.718 232.608 107.219 225.874C105.753 224.078 104.507 222.172 103.407 220.18C106.291 221.487 110.213 220.608 112.388 218.347C115.028 215.61 111.545 212.371 109.224 210.905C107.562 209.854 105.753 209.121 103.945 208.375C102.918 207.96 99.802 207.092 98.9588 206.09C98.9588 205.614 98.6288 205.21 98.1767 205.125C97.9812 204.135 97.7979 203.145 97.639 202.143C97.3213 200.139 97.0158 198.013 96.7592 195.801C97.1869 196.192 97.7001 196.583 98.3356 197.023C102.6 199.968 109.15 201.654 113.769 198.538C127.126 189.569 104.384 178.657 96.6981 174.868C97.9812 166.143 101.342 158.127 108.6 153.215C108.967 152.97 108.637 152.347 108.221 152.53C107.317 152.946 106.462 153.435 105.655 153.96C105.936 153.141 106.193 152.323 106.498 151.516C106.999 150.196 107.549 148.913 108.124 147.63C109.945 149.194 112.266 150.074 114.576 150.746C116.067 151.174 118.694 152.078 120.405 151.418C120.967 151.296 121.48 150.954 121.932 150.245C125.146 145.15 117.961 138.905 114.026 136.669C115.492 134.323 117.056 132.025 118.682 129.765C119.317 135.435 121.004 141.031 123.68 146.139C130.01 158.249 142.34 170.371 155.598 174.563C169.578 178.974 181.211 165.826 180.893 152.262C180.735 145.748 176.91 139.076 170.433 137.06C167.427 136.119 164.286 136.473 161.647 137.805C160.486 132.746 157.089 127.651 152.885 124.009C152.971 123.862 153.044 123.716 153.105 123.545C153.68 121.834 153.631 118.596 152.36 117.215C151.871 116.689 151.089 116.983 151.077 117.704C151.052 118.901 151.639 120.05 151.688 121.272C151.688 121.296 151.663 122.164 151.553 122.909C150.185 121.871 148.767 120.966 147.313 120.294C146.739 120.025 146.091 120.759 146.507 121.272C148.621 123.85 151.663 125.61 154.046 127.944C157.052 130.877 159.472 134.237 160.95 138.16C159.081 139.26 157.504 140.873 156.515 142.95C156.062 143.903 157.529 144.563 158.005 143.634C160.437 138.844 166.156 136.657 171.154 138.856C175.468 140.763 178.095 145.418 178.694 149.928C179.806 158.286 174.576 169.443 166.254 172.363C158.067 175.235 149.036 168.966 142.804 164.286C139.553 161.842 136.486 159.141 133.712 156.184C135.313 156.416 137.293 156.086 138.588 155.805C141.643 155.145 146.592 153.19 147.227 149.659C147.826 146.359 144.674 144.441 141.692 144.673C139.651 144.832 137.83 145.773 135.948 146.469C133.248 147.471 130.437 147.801 127.688 148.534C126.466 146.64 125.366 144.673 124.425 142.632C125.61 143.06 127.101 143.182 128.946 143.194C131.097 143.207 133.957 143.17 136.45 142.473C136.816 142.351 137.183 142.241 137.549 142.119C137.562 142.119 137.562 142.119 137.574 142.107V142.095C137.659 142.082 137.72 142.033 137.794 142.021C138.099 141.887 138.405 141.777 138.722 141.667C138.71 141.642 138.722 141.618 138.71 141.606C139.676 141.068 140.507 140.347 141.081 139.382C142.926 136.253 140.983 132.942 137.586 132.416C135.069 132.025 132.356 132.807 129.875 133.076C126.955 133.382 124.095 133.125 121.187 133.186C120.771 131.317 120.478 129.435 120.307 127.541C120.344 127.492 120.393 127.431 120.429 127.382C120.686 127.04 120.503 126.685 120.209 126.563C119.696 118.645 121.456 110.653 126.026 103.614C128.164 100.315 130.731 97.1986 133.553 94.2536C137.317 97.9806 140.726 103.137 145.749 105.19C149.525 106.742 154.816 105.716 155.146 100.901C155.219 99.7892 154.963 98.7138 154.547 97.6874C154.572 97.6751 154.596 97.6629 154.633 97.6507C154.596 97.5896 154.572 97.5407 154.535 97.4796C154.474 97.3819 154.462 97.2963 154.437 97.2108C154.413 97.1741 154.401 97.1252 154.388 97.0764C154.376 97.0275 154.364 96.9908 154.364 96.942C154.327 96.8198 154.278 96.6975 154.278 96.5387C154.217 96.5753 154.144 96.5998 154.095 96.6487C153.741 95.9644 153.35 95.3045 152.959 94.6813C151.346 92.0907 149.635 88.4858 147.24 86.5061C146.054 85.5286 144.832 85.1253 143.647 85.1131C146.922 82.498 150.295 80.054 153.655 77.72C154.963 77.0724 156.282 76.4247 157.272 75.4471C157.773 74.9583 157.284 74.3229 156.698 74.3351C157.113 73.4675 156.172 72.2211 155.146 72.8565C145.883 78.6243 135.325 86.4573 129.9 96.2577C127.749 98.6405 125.769 101.17 124.107 103.92C119.696 111.19 117.961 119.561 118.523 127.846C115.59 131.023 113.024 134.506 110.775 138.196C110.653 138.368 110.555 138.539 110.446 138.722C108.026 142.742 105.997 146.995 104.336 151.369C103.871 152.579 103.407 153.875 102.955 155.194C103.211 155.243 103.48 155.304 103.737 155.365C98.3111 159.862 95.5616 166.852 94.3397 174.453C94.1075 174.734 94.0097 175.137 94.2052 175.467C92.8855 184.815 93.7775 194.946 94.9018 202.412C96.2949 211.687 99.1299 220.925 105.276 228.184C110.372 234.196 118.56 240.502 126.661 241.271C126.942 241.296 127.187 241.223 127.407 241.113C127.749 242.554 128.201 243.96 128.91 245.023C129.46 245.854 130.23 246.404 131.109 246.795C131.097 246.831 131.073 246.856 131.073 246.893C131.085 247.785 131.122 248.664 131.158 249.544C131.317 250.082 131.439 250.632 131.5 251.218C132.27 258.905 133.028 266.591 133.627 274.302C133.651 274.302 133.676 274.302 133.688 274.302C134.03 275.683 134.519 276.88 135.289 277.516C136.217 278.286 138.063 277.919 139.101 277.87C139.223 277.87 139.346 277.858 139.468 277.846C139.81 278.005 140.213 277.98 140.519 277.797C143.293 277.675 146.079 277.516 148.853 277.369C155.684 277.015 162.502 276.587 169.321 276.123C195.606 274.363 221.842 271.821 247.749 266.97C248.36 266.86 248.885 266.359 248.799 265.675C248.689 264.795 248.555 263.915 248.433 263.035C248.47 263.047 248.494 263.047 248.531 263.047C248.506 262.913 248.47 262.791 248.445 262.656C248.36 262.351 248.335 262.045 248.286 261.74C248.274 261.74 248.262 261.74 248.262 261.74C247.467 256.094 246.453 250.485 245.231 244.913C244.669 243.899 244.266 242.811 244.095 241.601C244.009 241.039 244.034 240.477 244.083 239.915C243.96 239.39 243.838 238.864 243.704 238.339C243.887 238.168 244.021 237.972 244.18 237.789C244.266 237.887 244.376 237.948 244.498 238.021C244.657 237.557 244.84 237.104 245.072 236.665C245.06 236.689 245.036 236.726 245.023 236.75C245.048 236.713 245.072 236.665 245.097 236.628C245.268 236.298 245.451 235.98 245.647 235.662C245.598 235.662 245.549 235.675 245.5 235.662C247.174 231.703 246.355 226.021 244.938 220.95C245.036 220.925 245.133 220.925 245.231 220.876C247.443 219.813 249.643 218.762 251.867 217.736C253.101 217.162 253.162 215.524 251.952 214.889C246.747 212.151 244.645 207.178 243.594 201.789C243.63 201.801 243.643 201.826 243.679 201.838C247.895 203.585 255.41 202.534 258.942 199.663C262.388 196.864 260.897 192.221 257.94 189.703C255.985 188.041 253.529 187.052 251.023 186.538C249.606 186.257 248.152 186.135 246.71 186.098C245.61 186.074 243.606 186.575 242.433 186.367H242.421C242.298 186.27 242.164 186.196 242.017 186.16C242.054 184.791 242.164 183.422 242.372 182.078C242.628 180.465 243.056 178.767 243.606 177.031C247.48 180.355 255.264 181.602 260.054 182.897C263.378 183.789 270.184 186.563 272.641 182.445C274.865 178.73 271.553 173.536 268.865 171.105C264.123 166.815 257.146 165.068 251.182 163.052C253.724 160.009 256.681 157.516 259.932 156.099C260.274 155.952 260.078 155.426 259.724 155.549C253.993 157.602 248.824 162.319 245.072 167.952C246.282 164.86 247.406 161.732 248.445 158.579C249.728 156.502 250.193 153.264 250.669 151.369C250.669 151.345 250.669 151.333 250.669 151.308C252.954 143.194 254.616 134.909 255.349 126.49C255.789 121.443 255.899 116.347 255.716 111.276C255.716 111.166 255.716 111.056 255.728 110.946C255.765 110.518 255.801 110.103 255.863 109.7C255.899 109.431 255.887 109.162 255.85 108.893C257.769 115.211 261.142 121.211 263.023 127.59C263.463 129.093 263.818 130.596 264.148 132.111C262.058 132.27 260.03 133.418 258.331 134.543C256.84 135.532 254.909 136.742 254.983 138.771C255.019 139.895 255.447 140.701 256.107 141.312C256.144 141.349 256.18 141.386 256.217 141.41C256.339 141.52 256.474 141.618 256.62 141.704C256.706 141.765 256.791 141.814 256.877 141.862C259.406 143.292 263.83 142.852 266.176 142.779C266.421 144.111 266.665 145.443 266.958 146.763C264.734 146.64 262.425 147.019 260.787 147.581C260.616 147.642 260.653 147.875 260.824 147.887C262.901 148.095 264.954 148.278 267.007 148.73C268.095 148.974 269.195 149.414 270.294 149.659C288.148 157.174 292.327 180.526 288.209 197.756C285.74 208.082 280.351 217.528 272.775 224.958C269.182 228.477 265.113 231.447 260.763 233.964C255.875 236.787 250.632 238.204 245.451 240.306C245.06 240.465 245.219 241.027 245.622 241.003C256.168 240.477 267.068 233.646 274.547 226.595C282.808 218.799 288.416 208.461 290.897 197.402C295.211 178.73 289.663 153.325 269.243 146.665ZM239.537 181.125C239.586 181.076 239.622 181.015 239.671 180.942C239.5 181.773 239.366 182.591 239.28 183.41C239.121 184.901 239.048 186.441 239.036 187.993C238.461 187.993 237.912 188.041 237.374 188.151C238.18 185.83 238.877 183.459 239.537 181.125ZM144.258 202.18C148.804 201.679 153.337 201.117 157.81 200.677C168.918 199.589 180.014 198.38 191.121 197.268C192.441 201.435 195.582 205.113 199.407 207.166C207.154 211.308 218.274 210.697 225.508 205.736C230.164 202.534 233.182 198.05 235.406 193.101C235.724 199.675 236.799 206.2 237.276 212.762C237.276 212.787 237.288 212.799 237.288 212.823C234.673 213.618 231.838 214.119 229.296 214.693C217.993 217.247 206.482 218.921 194.946 220.021C172.914 222.135 150.82 221.952 128.714 222.049C127.883 216.172 127.309 209.5 124.951 203.988C131.39 203.634 137.83 202.925 144.258 202.18ZM235.981 239.108C232.486 239.866 228.612 240.025 226.034 240.367C213.447 242.066 200.787 243.141 188.115 243.862C175.749 244.559 163.358 244.913 150.979 245.206C148.046 245.28 145.113 245.365 142.181 245.451C140.238 245.5 137.806 245.793 135.509 245.646C134.641 238.791 133.04 230.506 130.168 224.212C165.24 224.726 200.897 223.98 235.04 215.475C236.738 223.333 237.557 230.836 235.981 238.84C235.956 238.937 235.969 239.023 235.981 239.108ZM121.969 204.172C122.775 204.135 123.57 204.074 124.376 204.037C124.474 210.001 126.173 216.159 126.991 222.074C126.674 222.074 126.356 222.074 126.038 222.074C125.158 216.025 124.022 209.94 121.969 204.172ZM129.924 243.483C128.763 242.212 128.018 238.021 127.541 235.333C127.468 235.223 127.407 235.125 127.382 234.966C127.37 234.856 127.358 234.758 127.346 234.648C127.248 233.964 127.187 233.267 127.126 232.583C127.089 232.546 127.052 232.498 127.004 232.461C126.429 229.711 125.953 226.937 125.354 224.188C125.354 224.176 125.342 224.176 125.342 224.164C126.894 224.188 128.445 224.212 129.997 224.237C130.254 231.092 131.953 238.644 133.578 245.39C132.16 245.072 130.877 244.522 129.924 243.483ZM135.777 273.691C134.8 271.112 134.678 267.838 134.25 265.1C133.309 259.125 132.625 253.1 131.965 247.088C133.492 247.565 135.289 247.601 137.024 247.54C136.205 256.766 137.354 266.664 138.784 275.829C136.999 275.597 136.657 275.988 135.777 273.691ZM177.973 273.288C166.62 274.155 155.244 274.827 143.879 275.561C142.987 275.622 141.961 275.793 140.959 275.878C139.798 266.457 139.309 256.864 137.879 247.504C139.162 247.43 140.372 247.333 141.386 247.32C158.018 247.223 174.661 246.856 191.256 245.842C206.164 244.937 221.476 243.923 236.225 241.137C236.848 249.361 237.643 257.793 238.755 265.956C238.767 266.053 238.804 266.127 238.84 266.2C218.677 269.609 198.343 271.736 177.973 273.288ZM246.429 264.893C244.474 265.259 242.518 265.589 240.551 265.919C240.551 265.87 240.575 265.833 240.575 265.785C240.417 257.671 239.085 248.884 237.007 241.003C237.924 240.819 238.852 240.66 239.757 240.477C240.49 240.318 241.15 240.098 241.749 239.829C243.777 248.102 245.341 256.436 246.429 264.893ZM238.266 238.497C239.83 230.689 239.537 222.489 236.103 215.219C237.508 214.864 238.914 214.522 240.307 214.131C242.665 219.874 244.144 225.984 243.997 232.229C243.911 235.601 241.455 237.434 238.266 238.497ZM243.472 213.263C243.936 213.129 244.205 212.579 244.168 212.127C244.156 212.054 244.156 211.98 244.144 211.919C245.231 213.593 246.588 215.06 248.237 216.245C246.918 216.905 245.61 217.577 244.29 218.237C244.266 218.249 244.241 218.274 244.217 218.298C243.63 216.538 243.019 214.913 242.457 213.557C242.799 213.447 243.142 213.361 243.472 213.263ZM240.71 211.479C240.539 211.626 240.355 211.675 240.184 211.687C239.867 211.895 239.5 212.078 239.048 212.261C239.036 212.261 239.024 212.261 239.024 212.274C238.95 211.76 238.901 211.247 238.828 210.746C238.657 210.526 238.584 210.221 238.657 209.866C238.669 209.805 238.681 209.732 238.694 209.671C237.912 203.5 237.447 197.28 236.237 191.182C236.286 191.06 236.347 190.938 236.396 190.803C236.861 190.583 237.252 190.485 237.618 190.449C237.875 190.351 238.144 190.314 238.425 190.375C241.822 190.424 241.932 195.936 241.956 198.685C241.969 202.204 243.777 208.84 240.71 211.479Z" fill="#251C1C"/>
<path d="M246.086 162.293C246.122 162.293 246.122 162.233 246.074 162.233L246.086 162.293Z" fill="#251C1C"/>
<path d="M206.58 123.521C200.678 117.9 191.256 118.657 183.863 120.16C183.215 120.295 182.861 120.686 182.739 121.138C177.069 114.173 168.454 109.615 160.877 116.348C160.804 116.421 160.853 116.568 160.963 116.519C166.951 114.136 173.048 114.539 178.181 118.731C182.849 122.543 184.706 127.932 186.735 133.37C187.199 134.629 188.898 133.92 188.641 132.698C187.969 129.582 186.307 126.026 184.022 122.812C184.156 122.812 184.278 122.824 184.437 122.8C191.183 121.346 200.14 120.307 206.384 123.839C206.568 123.949 206.739 123.667 206.58 123.521Z" fill="#251C1C"/>
<path d="M201.13 249.239C200.861 249.263 200.69 249.398 200.58 249.581C189.337 247.467 175.492 246.709 165.667 253.137C162.453 255.239 159.728 258.856 160.645 262.925C161.537 266.909 165.557 268.986 169.138 270.037C175.321 271.846 182.115 271.504 188.384 270.44C193.883 269.512 200.384 268.387 204.832 264.783C210.576 260.09 210.759 248.176 201.13 249.239ZM201.007 264.709C197.586 266.359 193.541 267.153 189.851 267.862C182.58 269.267 173.61 270.22 166.706 266.909C159.631 263.512 162.539 256.852 167.757 253.907C171.264 251.927 175.236 250.864 179.195 250.29C186.319 249.239 193.394 250.058 200.519 250.4C200.641 250.669 200.897 250.852 201.276 250.791C206.58 249.935 208.193 255.153 206.971 259.1C206.176 261.703 203.329 263.585 201.007 264.709Z" fill="#251C1C"/>
<path d="M230.543 223.211C215.769 222.917 201.069 224.995 186.417 226.62C179.293 227.414 172.132 228.123 164.971 228.502C157.48 228.905 149.904 228.074 142.45 228.636C141.57 228.697 141.35 229.919 142.242 230.188C155.513 234.27 171.765 231.642 185.293 230.164C200.372 228.514 215.354 226.632 230.555 226.571C232.718 226.571 232.718 223.247 230.543 223.211Z" fill="#251C1C"/>
<path d="M191.525 232.414C185.794 232.646 178.999 232.561 173.574 234.565C173.024 234.772 172.902 235.652 173.574 235.811C179.207 237.07 185.83 236.104 191.525 235.567C193.504 235.371 193.578 232.328 191.525 232.414Z" fill="#251C1C"/>
<path d="M205.884 237.081C197.757 238.34 189.582 239.219 181.37 239.647C174.539 240.002 167.476 239.427 160.731 240.503C160.047 240.613 160.095 241.688 160.731 241.835C168.075 243.472 176.189 242.678 183.643 242.226C191.342 241.761 198.979 240.869 206.605 239.696C208.315 239.415 207.594 236.812 205.884 237.081Z" fill="#251C1C"/>
<path d="M140.128 213.522C139.981 211.444 140.25 208.609 139.553 206.63C138.588 203.892 132.686 204.931 130.437 205.86C130.425 205.86 130.413 205.872 130.401 205.872C130.315 205.909 130.205 205.945 130.132 205.982C129.521 206.275 129.68 207.18 130.23 207.424C130.266 209.55 130.584 211.676 130.743 213.791C130.828 215 130.376 217.86 131.293 218.813C132.234 219.79 135.008 219.509 136.156 219.509C137.195 219.497 139.627 219.827 140.323 218.74C141.02 217.628 140.213 214.768 140.128 213.522ZM138.026 210.968C138.099 211.676 138.16 212.385 138.234 213.082C136.352 212.911 133.993 212.825 132.173 213.546C132.075 212.63 131.989 211.713 131.855 210.797C133.883 211.017 135.973 210.931 138.001 210.968C138.014 210.98 138.014 210.968 138.026 210.968ZM131.146 207.448C132.307 207.302 133.443 207.094 134.617 207.057C135.545 207.033 136.217 207.008 137.012 207.595C137.928 208.279 137.843 208.634 137.916 209.66C135.875 209.587 133.724 209.538 131.708 209.941C131.549 209.086 131.378 208.255 131.146 207.448ZM137.928 217.603C137.024 218.019 134.91 217.774 133.92 217.615C131.989 217.322 132.417 215.99 132.246 214.243C132.246 214.218 132.246 214.194 132.234 214.169C134.116 214.793 136.437 214.731 138.344 214.744C138.368 214.744 138.392 214.731 138.417 214.731C138.612 215.88 138.845 217.175 137.928 217.603Z" fill="#251C1C"/>
<path d="M151.529 213.827C150.673 213.57 149.757 213.79 148.877 213.998C148.828 213.033 148.571 212.067 148.474 211.126C148.352 209.892 148.315 208.658 148.266 207.424C149.28 207.473 150.331 207.546 151.199 207.033C151.541 206.837 151.59 206.251 151.199 206.067C150.099 205.53 148.865 205.835 147.679 205.933C146.372 206.043 145.089 206.165 143.83 206.556C143.598 206.629 143.574 206.984 143.83 207.045C144.967 207.314 146.115 207.363 147.264 207.375C146.958 209.464 146.641 212.214 147.301 214.328C146.58 214.487 145.859 214.658 145.174 214.976C144.796 215.159 144.881 215.819 145.297 215.892C146.396 216.088 147.484 215.965 148.596 215.892C149.647 215.819 150.82 215.904 151.724 215.33C152.335 214.963 152.225 214.035 151.529 213.827Z" fill="#251C1C"/>
<path d="M162.686 205.089C160.046 204.942 156.747 204.869 154.242 205.834C153.973 205.944 153.875 206.421 154.242 206.482C155.549 206.702 156.942 206.726 158.335 206.689C158.177 209.304 158.335 211.932 158.507 214.547C158.568 215.39 159.838 215.402 159.826 214.547C159.79 211.907 159.728 209.268 159.35 206.665C160.486 206.616 161.61 206.555 162.686 206.543C163.614 206.506 163.614 205.137 162.686 205.089Z" fill="#251C1C"/>
<path d="M82.3517 242.677C75.7285 241.809 68.6654 242.714 61.9811 242.836C55.1868 242.958 48.3926 242.995 41.5983 243.031C28.0097 243.08 14.4456 242.824 0.857075 243.031C-0.316037 243.044 -0.254938 244.681 0.857075 244.815C14.8244 246.453 28.8163 247.027 42.8692 247.272C55.6879 247.492 70.2662 248.909 82.8405 246.306C85.0645 245.842 84.2214 242.934 82.3517 242.677Z" fill="#251C1C"/>
<path d="M77.0117 224.396C70.5229 222.05 62.6166 224.946 56.7388 227.903C55.3946 228.588 56.3356 230.909 57.7775 230.372C60.9913 229.162 64.2907 228.294 67.7123 227.891C70.8528 227.525 73.8956 227.659 77.0117 226.975C78.4047 226.669 78.1725 224.812 77.0117 224.396Z" fill="#251C1C"/>
<path d="M364.033 237.57C332.75 239.036 301.443 240.014 270.136 240.576C268.962 240.601 268.975 242.336 270.136 242.385C301.431 243.753 332.726 243.814 364.033 242.666C367.308 242.544 367.308 237.411 364.033 237.57Z" fill="#251C1C"/>
<path d="M318.245 218.006C314.041 219.118 309.386 218.604 305.133 218.055C303.777 217.883 303.63 219.961 304.827 220.352C309.483 221.843 313.968 221.782 318.783 221.904C321.618 221.965 321.117 217.236 318.245 218.006Z" fill="#251C1C"/>
</svg>
