<svg width="288" height="296" viewBox="0 0 288 296" fill="none" xmlns="http://www.w3.org/2000/svg">
<path d="M53.3961 186.297C55.4733 184.077 52.0499 180.698 50.0708 182.971C49.0812 184.104 48.1273 185.254 47.2002 186.413C45.7738 185.022 44.3207 183.658 42.8943 182.285C41.8423 181.269 39.8364 182.642 40.7814 183.916C42.1365 185.735 43.4738 187.598 44.8556 189.426C43.6699 191.004 42.5198 192.6 41.4144 194.267C40.5853 195.515 42.3415 196.602 43.3578 195.764C44.6861 194.668 45.961 193.545 47.2091 192.395C47.9044 193.233 48.6177 194.062 49.3576 194.855C51.2387 196.879 54.0558 193.928 52.3441 191.869C51.6755 191.057 50.9712 190.282 50.2491 189.506C51.31 188.463 52.3619 187.393 53.3961 186.297Z" fill="#00AB2E"/>
<path d="M176.95 46.7258C175.907 45.7452 174.819 44.8091 173.705 43.9176C174.534 43.0796 175.345 42.2238 176.13 41.359C177.886 39.4066 175.14 36.6163 173.232 38.4616C172.234 39.4245 171.262 40.4318 170.317 41.4571C168.374 40.1733 166.341 39.0322 164.21 38.0694C162.739 37.4097 161.696 39.2462 162.962 40.209C164.647 41.4928 166.279 42.83 167.874 44.2029C166.796 45.4599 165.753 46.7258 164.745 48.0096C163.533 49.5519 165.378 51.4775 166.912 50.1759C168.204 49.0883 169.488 47.9472 170.754 46.7793C171.815 47.7689 172.858 48.7763 173.865 49.8282C175.818 51.8608 179.009 48.6604 176.95 46.7258Z" fill="#ED1B23"/>
<path d="M279.167 212.936C273.622 195.873 248.696 202.461 236.714 207.417C228.45 210.841 220.828 215.851 214.543 222.243C207.723 229.188 202.552 237.104 194.395 242.542C195.171 239.324 195.83 236.07 196.356 232.79C196.401 232.486 196.454 232.174 196.499 231.871C197.123 230.053 197.596 228.1 197.328 226.487C198.398 219.132 199.129 211.349 197.979 204.27C200.769 204.128 203.551 203.985 206.341 203.825C206.35 203.86 206.359 203.887 206.368 203.923C206.564 204.698 207.669 204.493 207.723 203.753C210.941 203.566 212.84 203.379 214.079 203.183C216.076 203.593 218.261 203.076 220.257 202.8C222.237 202.523 224.242 202.238 226.195 201.774C226.346 201.819 226.516 201.855 226.694 201.846C238.301 201.641 249.534 198.859 261.017 197.602C261.685 197.531 262.336 197.076 262.3 196.318C261.418 177.276 260.553 158.26 259.421 139.254C268.042 139.637 274.157 131.935 274.202 123.242C274.255 112.794 265.617 100.91 255.81 97.5673C255.614 97.496 255.427 97.4871 255.258 97.496C254.277 83.0449 253.412 69.6456 253.368 67.1584C253.341 67.0068 253.314 66.8552 253.296 66.7037C253.047 66.3828 252.868 65.9905 252.868 65.4734C252.868 64.9029 252.842 64.359 252.824 63.7974C252.815 63.735 252.806 63.6816 252.797 63.6191C252.806 63.6281 252.815 63.628 252.824 63.6369C252.788 62.5939 252.717 61.542 252.61 60.4989C252.494 60.4543 252.378 60.4186 252.262 60.4097C250.586 50.4874 248.268 37.8014 246.191 31.6144C245.05 28.2178 244.078 24.7677 240.485 23.2967C235.752 21.3533 228.967 22.4677 223.993 22.4944C209.791 22.5657 218.305 23.1363 204.139 24.1437C175.727 26.1584 147.467 29.8582 119.206 33.3707C91.0796 36.8653 62.9083 40.1014 34.5944 41.51C34.425 41.6437 34.2378 41.7686 34.0238 41.8666C33.8634 41.9736 33.6851 42.0627 33.4978 42.1251C32.8738 42.3302 32.2408 42.5174 31.6079 42.6868C31.3761 42.7848 31.1443 42.8651 30.9125 42.9186C30.9036 42.9186 30.8947 42.9186 30.8858 42.9186C30.8769 42.9186 30.868 42.9275 30.859 42.9275C31.0195 42.9186 31.171 42.9186 31.3315 42.9097C28.4609 44.5767 26.5709 47.8931 25.6438 51.3789C25.1713 54.3208 25.0465 57.343 24.6721 60.4097C25.2872 69.3871 25.8755 78.3734 26.4194 87.3597C26.4728 87.3686 26.5263 87.3775 26.5887 87.3775C27.0256 94.4649 27.721 101.534 28.2291 108.613C13.8136 113.73 7.99217 146.377 26.9632 147.964C27.8904 148.044 28.764 148.026 29.5753 147.955C29.5218 148.525 29.5842 149.123 29.6644 149.72C29.4505 151.726 29.6644 153.821 29.8606 155.773C30.5649 172.159 31.1889 188.545 31.6792 204.921C31.706 205.902 32.4816 206.695 33.4711 206.713C48.3056 207.043 63.1401 207.221 77.9835 207.257C75.9242 228.065 80.7026 248.72 91.2044 266.747C86.0516 266.934 81.0324 269.207 78.8037 273.977C73.8737 284.487 84.5895 293.367 94.0215 294.606C105.629 296.13 113.421 290.309 117.343 279.762C122.737 265.249 124.279 248.792 125.438 233.36C125.901 233.476 126.365 233.529 126.838 233.529C129.494 234.412 132.24 235.063 135.021 235.437C133.301 250.61 143.99 263.68 159.252 265.088C159.448 265.106 159.6 265.079 159.752 265.035C160.634 268.458 161.65 271.801 162.72 274.975C166.072 284.933 173.73 294.312 185.248 293.777C194.796 293.331 203.266 285.165 201.465 275.26C200.181 268.226 194.199 263.831 187.557 262.984C187.78 262.485 187.976 261.977 188.19 261.469C188.493 261.888 188.975 262.191 189.643 262.2C211.253 262.601 233.728 259.401 253.742 250.949C268.033 244.905 284.882 230.525 279.167 212.936ZM87.5315 203.245C87.576 203.174 87.6117 203.085 87.6206 202.969C88.1288 189.445 87.5404 175.707 86.5419 161.987C103.159 161.265 119.786 160.462 136.403 159.589C137.206 172.64 138.026 185.692 138.882 198.743C138.962 199.947 140.834 199.956 140.763 198.743C139.925 185.656 139.051 172.578 138.16 159.5C159.145 158.394 180.122 157.199 201.099 155.978C201.26 157.895 201.411 159.821 201.581 161.737C202.695 174.45 202.936 187.992 205.601 200.571C166.251 202.095 126.9 203.014 87.5315 203.245ZM151.131 111.608C145.737 112.188 140.335 112.776 134.941 113.356C134.005 100.144 133.06 86.9229 132.106 73.7109C138.989 73.0868 145.871 72.4717 152.762 71.9101C167.017 70.7422 181.281 69.7169 195.545 68.763C196.134 81.4401 196.856 94.0994 197.64 106.768C182.128 108.337 166.625 109.941 151.131 111.608ZM197.81 109.549C197.997 112.482 198.175 115.406 198.362 118.339C199.12 130.036 199.931 141.723 200.876 153.402C179.908 154.525 158.94 155.684 137.972 156.923C137.036 143.283 136.082 129.652 135.12 116.021C141.324 115.335 147.529 114.657 153.743 114.006C168.426 112.455 183.118 110.975 197.81 109.549ZM133.64 113.498C116.719 115.326 99.7985 117.198 82.8957 119.24C81.7457 105.751 80.3638 92.2986 78.7502 78.8726C96.277 77.1431 113.795 75.378 131.331 73.7822C132.097 87.0209 132.864 100.26 133.64 113.498ZM133.8 116.164C134.602 129.786 135.405 143.408 136.243 157.021C119.625 158.011 103.017 159.063 86.4082 160.204C85.4632 147.598 84.2151 135.01 83.1988 122.636C83.1809 122.395 83.1542 122.155 83.1364 121.914C100.021 119.997 116.906 118.036 133.8 116.164ZM259.546 192.423C258.752 196.773 254.322 195.382 250.452 195.641C242.946 196.158 235.368 196.675 227.96 198.021C227.799 197.959 227.621 197.932 227.425 197.923V197.896C224.76 198.173 222.13 198.69 219.455 198.93C217.155 199.144 214.837 198.957 212.742 199.991C212.608 200.054 212.51 200.143 212.412 200.223C211.271 200.303 209.8 200.384 207.83 200.464C208.071 187.234 205.753 173.496 204.665 160.4C204.54 158.858 204.398 157.315 204.273 155.773C229.369 154.311 231.74 152.831 256.827 151.44C257.504 161.193 258.173 170.937 258.868 180.69C259.118 184.221 260.188 188.937 259.546 192.423ZM261.445 112.616C261.552 112.553 261.65 112.491 261.757 112.42C261.935 112.304 262.042 112.081 261.979 111.867C261.364 109.71 258.315 109.139 256.042 109.121C255.846 106.215 255.641 103.255 255.436 100.304C266.74 104.396 278.124 123.599 267.15 133.53C259.911 140.083 249.668 134.386 247.172 126.291C245.701 121.522 246.245 115.371 250.845 112.429C252.61 111.368 254.518 110.851 256.577 110.877C258.146 110.868 259.581 111.261 260.883 112.054C260.669 112.393 261.106 112.821 261.445 112.616ZM27.3911 48.2676C28.1578 46.7698 29.1474 45.5753 30.2974 44.5144C29.4951 46.2796 29.8606 48.642 30.966 50.4428C28.0419 49.8633 26.6244 51.9405 25.9469 54.5615C26.1074 52.4041 26.357 50.2913 27.3911 48.2676ZM17.754 138.139C15.5164 129.117 19.0467 114.675 28.3539 110.984C28.452 112.446 28.5501 113.9 28.6214 115.362C28.7194 117.394 28.7373 119.445 28.7194 121.504C27.507 121.459 26.2054 121.647 24.8236 122.155C24.7077 122.199 24.7523 122.351 24.8771 122.333C34.4518 121.023 38.5883 131.364 36.9301 139.049C34.7638 149.114 20.0184 147.259 17.754 138.139ZM35.1649 203.138C34.5141 187.662 33.7029 172.203 32.7757 156.763C32.8381 156.602 32.8916 156.424 32.9006 156.219C32.9986 154.204 32.963 152.18 32.7847 150.174C32.6955 149.149 32.6598 148.178 32.2765 147.357C42.4752 143.711 40.3891 125.872 31.6971 122.173C31.5544 119.864 31.4028 117.581 31.2869 115.362C30.7699 105.805 29.9229 96.2211 27.8101 86.8693C27.088 78.1862 26.3213 69.503 25.5279 60.8288C26.357 56.4961 26.5977 52.1545 32.1606 51.6909C32.5172 51.6642 32.6866 51.3432 32.5439 51.0223C31.1443 48.0001 30.7877 45.2454 33.6405 42.9453C33.694 42.9008 33.694 42.8473 33.7207 42.8027C87.3442 40.3421 140.335 30.9725 193.816 26.6933C206.983 25.6414 220.195 24.8301 233.407 24.6697C234.192 24.741 234.94 24.8658 235.6 25.0709C244.729 27.9682 245.772 39.415 247.359 47.483C248.874 55.2034 251.718 85.6302 253.804 109.326C249.935 110.039 246.717 112.678 245.308 116.387C241.974 125.141 246.94 136.044 255.935 138.674C256.176 142.16 256.425 145.646 256.666 149.131C231.571 150.549 229.172 151.877 204.059 153.223C203.034 141.153 201.973 129.091 200.974 117.011C200.76 114.434 200.573 111.858 200.377 109.29C204.05 108.934 207.723 108.559 211.396 108.212C221.006 107.302 230.617 106.411 240.236 105.546C240.673 105.511 241.047 105.466 241.386 105.43C241.27 104.307 241.136 103.193 240.994 102.078C240.904 102.096 240.806 102.123 240.717 102.141C240.45 102.203 240.263 102.355 240.12 102.533C239.763 102.578 239.371 102.631 238.916 102.667C229.297 103.585 219.687 104.53 210.077 105.484C206.769 105.814 203.462 106.161 200.154 106.491C199.174 93.8765 198.237 81.2529 197.328 68.6294C201.786 68.3352 206.252 68.0142 210.71 67.7379C229.939 66.5522 226.935 66.8196 246.022 64.3234C246.958 64.1986 247.02 62.8614 246.022 62.8168C226.854 61.9609 229.85 64.2967 210.71 65.518C206.199 65.8033 201.679 66.1421 197.168 66.4452C196.294 54.3297 195.411 42.2232 194.44 30.1167C194.431 30.0008 194.252 29.9919 194.252 30.1167C194.466 42.2678 194.885 54.4189 195.429 66.5611C180.755 67.5685 166.09 68.6561 151.434 69.8863C144.935 70.4302 138.445 71.0007 131.946 71.5713C131.135 60.2582 130.314 48.954 129.503 37.6409C129.494 37.4805 129.245 37.4805 129.254 37.6409C129.913 48.9718 130.564 60.3028 131.215 71.6337C113.634 73.2027 96.0631 74.9233 78.5363 76.9827C77.2436 66.356 75.8172 55.7383 74.2392 45.1384C74.2125 44.9333 73.847 44.9779 73.8737 45.1919C74.9346 55.8542 75.9687 66.5165 76.9672 77.1788C63.6572 78.7656 50.365 80.5397 37.1262 82.608C37.0193 82.6258 37.046 82.8042 37.153 82.7952C50.4898 81.6185 63.8176 80.3169 77.1366 79.0064C78.4025 92.4858 79.606 105.974 80.7561 119.471C67.3123 121.103 53.8864 122.868 40.4961 124.803C40.514 125.382 40.5496 125.961 40.5763 126.541C54.0558 125.15 67.5263 123.67 80.9968 122.146C81.0503 122.743 81.1038 123.34 81.1483 123.938C82.1646 136.071 83.0383 148.213 83.8317 160.364C69.6748 161.345 55.5268 162.361 41.3876 163.502C41.2717 163.511 41.2628 163.699 41.3876 163.69C55.5713 163.244 69.7639 162.682 83.9476 162.076C83.9744 162.522 84.01 162.967 84.0368 163.422C84.8748 176.554 84.9907 189.9 86.5597 202.951C86.5776 203.067 86.6221 203.156 86.6756 203.227C69.5054 203.343 52.3352 203.308 35.1649 203.138ZM136.02 235.553C137.981 235.776 139.951 235.847 141.922 235.812C141.369 244.45 148.233 251.903 156.614 253.428C156.899 253.481 157.148 253.428 157.371 253.347C157.799 256.352 158.37 259.338 159.056 262.271C145.318 260.479 135.788 249.362 136.02 235.553ZM157.033 250.673C149.143 249.211 144.908 243.247 144.115 235.714C148.51 235.384 152.851 234.376 156.908 232.593C157.148 232.486 157.3 232.317 157.416 232.139C157.487 232.076 157.559 232.014 157.621 231.951C156.391 237.96 156.337 244.325 157.033 250.673ZM177.412 248.631C176.414 253.57 183.67 255.068 187.914 255.086C187.049 257.591 186.167 260.078 185.231 262.565C185.195 262.655 185.204 262.735 185.195 262.824C183.278 262.824 181.344 263.109 179.489 263.724C177.956 264.233 178.571 266.595 180.167 266.167C191.079 263.261 204.594 272.889 197.319 284.523C191.141 294.392 177.537 292.422 170.423 285.049C164.031 278.416 161.704 266.961 159.76 258.197C157.746 249.122 157.532 240.43 158.227 231.292C158.486 230.953 158.7 230.579 158.896 230.195C159.056 230.061 159.226 229.928 159.386 229.812C161.526 228.163 163.558 226.406 165.457 224.472C165.707 224.222 165.341 223.883 165.083 224.097C163.371 225.479 161.579 226.763 159.689 227.886C159.671 227.833 159.618 227.806 159.573 227.842C159.395 227.984 159.208 228.118 159.029 228.261C158.771 228.403 158.521 228.564 158.263 228.698C156.819 229.464 155.143 229.946 153.698 230.721C144.4 233.137 135.877 233.422 126.579 230.632C124.805 229.892 122.737 229.678 120.963 228.947C118.573 227.966 116.318 226.656 114.098 225.345C114 225.292 113.92 225.417 113.982 225.497C115.738 227.583 117.78 229.25 120.107 230.668C121.007 231.22 121.988 231.853 123.013 232.388C122.861 242.783 121.899 253.044 120.044 263.288C118.538 271.641 116.906 280.761 110.666 287.028C103.534 294.187 87.9772 294.383 82.2449 285.111C78.3312 278.782 81.603 271.57 88.5389 269.795C90.0544 269.412 91.5521 269.314 93.0498 269.394C93.3262 269.519 93.6204 269.537 93.9056 269.466C96.1611 269.68 98.4077 270.223 100.628 270.749C101.528 270.963 102.045 269.76 101.252 269.261C99.2992 268.021 96.9457 267.237 94.4941 266.898C91.7215 262.396 89.359 257.734 87.371 252.946C89.6354 253.909 93.0052 252.884 94.2801 250.994C96.1165 248.275 94.3158 245.511 91.989 243.924C89.7959 242.427 86.6043 241.223 84.2507 241.508C84.0813 241.499 83.9031 241.544 83.7337 241.606C83.7069 241.615 83.6802 241.633 83.6445 241.642C83.6088 241.66 83.5643 241.669 83.5286 241.696C83.5108 241.704 83.493 241.713 83.484 241.713C83.0026 240.011 82.5569 238.299 82.1736 236.578C82.4589 236.739 82.7976 236.873 83.181 236.953C84.3399 237.202 85.5523 236.997 86.7291 237.202C87.8791 237.407 89.0024 237.719 90.1703 237.853C91.8641 238.04 93.8165 238.04 95.2072 236.908C101.305 231.951 85.588 223.545 80.025 222.305C79.6328 217.331 79.5971 212.303 79.9181 207.248C118.787 207.311 157.674 206.366 196.499 204.351C195.741 210.573 195.625 216.787 195.171 223.01C190.9 222.983 186.363 224.24 182.467 225.809C179.757 226.897 177.145 229.099 178.063 232.353C178.99 235.66 182.779 237.238 185.774 238.058C188.315 238.754 190.892 239.494 192.799 238.566C192.327 240.581 191.801 242.587 191.248 244.575C191.132 244.477 191.007 244.388 190.856 244.352C187.156 243.452 178.402 243.728 177.412 248.631ZM267.248 238.522C260.972 244.388 252.824 247.775 244.774 250.414C226.97 256.263 208.347 258.812 189.626 258.402C189.554 258.402 189.492 258.411 189.421 258.42C189.938 257.092 190.437 255.754 190.9 254.417C191.837 253.749 192.425 252.625 191.881 251.529C192.648 249.148 193.316 246.741 193.94 244.317C201.402 241.767 206.894 235.981 212.296 230.061C212.956 234.938 214.962 242.917 220.124 240.091C222.513 238.78 222.718 235.705 222.789 233.307C222.896 229.723 222.13 226.13 220.846 222.805C220.703 222.421 220.463 222.109 220.195 221.824C221.684 220.433 223.226 219.123 224.858 217.973C225.865 217.268 226.89 216.591 227.933 215.94C227.238 218.686 227.648 222.457 227.612 224.445C227.532 228.216 228.04 231.47 231.232 233.815C232.186 234.519 233.826 234.207 234.602 233.378C236.964 230.864 237.445 227.815 237.365 224.454C237.267 220.665 237.891 215.04 235.761 211.732C238.185 210.636 240.673 209.691 243.213 208.888C242.821 211.26 244.274 214.184 244.283 216.627C244.292 219.399 244.248 222.02 245.87 224.4C246.993 226.041 249.668 226.389 250.72 224.4C252.503 221.022 253.769 217.465 254.277 213.676C254.589 211.322 254.963 208.585 253.965 206.339C261.703 205.073 270.921 205.055 274.603 211.715C279.586 220.692 273.988 232.228 267.248 238.522Z" fill="black"/>
<path d="M65.4839 180.707C64.2447 180.6 62.8184 181.572 61.7753 182.169C60.5094 182.892 59.5466 183.837 58.5392 184.871C58.2361 185.183 58.6194 185.664 58.9939 185.459C60.1796 184.808 61.4365 184.273 62.6311 183.64C63.7009 183.079 65.1541 182.767 65.9654 181.884C66.4022 181.421 66.0812 180.761 65.4839 180.707Z" fill="black"/>
<path d="M79.4818 178.186C76.9678 177.972 74.4538 178.73 71.9665 178.908C71.4851 178.944 71.4851 179.63 71.9665 179.657C74.4627 179.826 76.9678 180.593 79.4818 180.379C80.8904 180.254 80.8904 178.302 79.4818 178.186Z" fill="black"/>
<path d="M94.7635 181.403C92.7755 180.61 90.627 180.209 88.5052 180.021C88.1664 179.995 88.1041 180.53 88.425 180.61C90.4933 181.091 92.2762 181.938 94.0592 183.097C95.1201 183.784 96.0562 181.92 94.7635 181.403Z" fill="black"/>
<path d="M110.034 184.444C108.946 183.909 107.912 184.203 106.735 184.239C105.344 184.283 103.989 184.212 102.625 183.936C102.144 183.837 101.805 184.506 102.278 184.765C103.508 185.442 104.827 186.031 106.2 186.316C107.431 186.574 108.973 186.895 110.034 186.084C110.551 185.701 110.747 184.8 110.034 184.444Z" fill="black"/>
<path d="M123.059 180.859C121.981 180.743 121.134 181.759 120.314 182.339C119.386 182.998 118.415 183.569 117.39 184.05C116.917 184.273 117.283 184.879 117.719 184.826C118.967 184.656 120.216 184.389 121.392 183.943C122.391 183.56 123.666 183.15 123.915 181.991C124.058 181.376 123.657 180.921 123.059 180.859Z" fill="black"/>
<path d="M132.438 173.603C131.653 174.236 131.181 175.208 130.628 176.037C130.075 176.866 129.398 177.677 128.711 178.399C128.346 178.783 128.703 179.478 129.246 179.318C131.359 178.667 134.114 176.759 134.043 174.272C134.016 173.389 133.062 173.104 132.438 173.603Z" fill="black"/>
<path d="M147.02 161.7C145.968 161.941 145.362 162.77 144.666 163.536C143.909 164.374 143.276 165.328 142.571 166.211C142.447 166.363 142.607 166.63 142.803 166.505C143.775 165.881 144.809 165.328 145.736 164.633C146.592 164 147.412 163.501 147.769 162.449C147.929 161.985 147.448 161.602 147.02 161.7Z" fill="black"/>
<path d="M157.86 147.963C157.727 147.125 156.585 146.964 156.051 147.49C155.123 148.4 154.972 149.924 154.375 151.065C153.75 152.26 153.002 153.356 152.271 154.48C152.03 154.845 152.485 155.211 152.823 155.032C154.161 154.346 155.266 153.312 156.166 152.108C157.067 150.914 158.101 149.514 157.86 147.963Z" fill="black"/>
<path d="M159.511 137.693C159.181 137.061 158.165 137.061 157.835 137.693C157.273 138.754 157.523 139.815 157.657 140.956C157.79 142.097 157.951 143.203 158.183 144.326C158.281 144.808 159.047 144.808 159.145 144.326C159.377 143.203 159.538 142.097 159.671 140.956C159.823 139.806 160.064 138.754 159.511 137.693Z" fill="black"/>
<path d="M157.123 132.416C156.249 130.963 155.25 129.76 153.877 128.752C152.719 127.897 150.98 126.747 149.482 127.264C149.028 127.424 148.725 127.959 149.019 128.414C149.741 129.546 151.176 129.929 152.308 130.562C153.646 131.311 154.992 132.176 156.169 133.156C156.668 133.584 157.497 133.049 157.123 132.416Z" fill="black"/>
<path d="M146.353 124.838C145.105 124.285 143.83 123.563 142.475 123.314C141.388 123.117 139.988 122.734 139.168 123.635C138.927 123.902 138.909 124.303 139.168 124.562C139.926 125.337 140.977 125.097 141.985 125.186C143.34 125.311 144.642 125.373 145.925 125.863C146.505 126.095 146.933 125.097 146.353 124.838Z" fill="black"/>
<path d="M130.976 124.188C128.408 124.883 124.673 126.22 123.523 128.841C123.273 129.412 123.817 130.143 124.441 129.76C125.529 129.109 126.296 128.128 127.258 127.317C128.444 126.318 129.763 125.605 131.217 125.088C131.787 124.892 131.564 124.027 130.976 124.188Z" fill="black"/>
<path d="M122.807 133.896C121.595 135.332 119.91 138.104 121.06 139.994C121.336 140.449 122.067 140.377 122.201 139.843C122.415 139.013 122.21 138.122 122.299 137.266C122.415 136.152 122.727 135.251 123.396 134.351C123.654 134.012 123.083 133.575 122.807 133.896Z" fill="black"/>
<path d="M124.269 147.311C123.583 146.108 122.861 144.922 122.37 143.612C122.281 143.371 121.925 143.46 121.978 143.718C122.263 145.109 122.486 146.509 123.021 147.828C123.44 148.871 123.832 150.057 124.831 150.663C125.161 150.859 125.705 150.61 125.66 150.191C125.535 149.085 124.804 148.247 124.269 147.311Z" fill="black"/>
<path d="M133.95 154.523L129.956 152.09C129.225 151.644 128.351 152.723 129.029 153.293C130.215 154.301 131.391 155.299 132.577 156.306C133.834 157.376 135.35 155.37 133.95 154.523Z" fill="black"/>
<path d="M142.866 161.807C142.661 161.495 142.447 161.192 142.215 160.889C141.814 160.363 140.86 160.63 141.074 161.37C141.172 161.727 141.288 162.075 141.413 162.413C141.814 163.546 143.49 162.752 142.866 161.807Z" fill="black"/>
<path d="M154.419 166.773C153.251 166.265 152.065 165.891 150.844 165.534C150.042 165.302 149.551 166.461 150.273 166.88C151.37 167.522 152.457 168.12 153.634 168.61C154.677 169.056 155.462 167.228 154.419 166.773Z" fill="black"/>
<path d="M167.758 167.407C166.983 166.658 166.136 167.086 165.218 167.318C164.068 167.612 162.882 167.835 161.687 167.772C161.215 167.746 161.108 168.503 161.571 168.602C163.167 168.94 167.179 170.26 167.946 168.12C168.035 167.888 167.937 167.576 167.758 167.407Z" fill="black"/>
<path d="M173.872 164.626C172.686 165.428 172 166.739 170.52 167.149C169.771 167.354 169.985 168.379 170.698 168.442C172.508 168.611 175.262 167.452 174.986 165.259C174.924 164.76 174.389 164.278 173.872 164.626Z" fill="black"/>
<path d="M180.042 158.394C179.828 158.367 179.685 158.358 179.471 158.394C178.972 158.465 178.74 158.991 178.687 159.428C178.571 160.382 178.276 161.175 177.394 161.674C176.779 162.022 177.216 162.878 177.849 162.762C179.418 162.486 180.808 161.068 180.817 159.428C180.826 159 180.496 158.456 180.042 158.394Z" fill="black"/>
<path d="M181.004 147.705C181.013 149.265 181.396 150.843 181.655 152.376C181.744 152.947 182.707 152.947 182.805 152.376C183.054 150.843 183.447 149.265 183.456 147.705C183.456 146.127 180.995 146.127 181.004 147.705Z" fill="black"/>
<path d="M182.608 138.015C182.394 137.873 182.046 137.873 181.832 138.015C180.923 138.621 181.012 139.62 181.057 140.609C181.101 141.724 181.271 142.811 181.422 143.917C181.529 144.71 182.92 144.71 183.027 143.917C183.179 142.811 183.348 141.724 183.392 140.609C183.428 139.629 183.517 138.621 182.608 138.015Z" fill="black"/>
<path d="M182.868 127.762C182.574 127.165 181.584 127.307 181.433 127.949C181.21 128.948 181.406 129.964 181.397 130.971C181.388 132.05 181.388 133.111 181.255 134.19C181.174 134.867 182.155 134.885 182.36 134.341C183.1 132.398 183.849 129.741 182.868 127.762Z" fill="black"/>
<path d="M183.342 115.753C182.977 115.164 182.201 115.343 181.969 115.931C181.55 117.01 181.827 118.267 181.862 119.408C181.907 120.665 181.871 121.904 181.737 123.152C181.675 123.758 182.575 123.812 182.754 123.286C183.467 121.218 184.617 117.776 183.342 115.753Z" fill="black"/>
<path d="M181.388 99.3144C180.764 99.1628 180.06 99.7423 180.291 100.411C180.63 101.383 181.325 102.114 181.727 103.05C182.163 104.057 182.342 105.065 182.217 106.152C182.137 106.812 183.242 107.115 183.501 106.5C184.463 104.218 184.383 100.054 181.388 99.3144Z" fill="black"/>
<path d="M178.857 95.3384C177.244 94.1616 175.425 92.6907 173.41 92.343C172.768 92.2271 172.073 93.0562 172.697 93.5733C174.338 94.9373 176.611 95.4008 178.635 95.8911C178.973 95.9625 179.125 95.5256 178.857 95.3384Z" fill="black"/>
<path d="M161.818 52.3776L162.202 51.9942C162.228 51.9675 162.184 51.9229 162.157 51.9497C162.023 52.0834 161.899 52.2082 161.765 52.3419C161.382 52.021 160.722 51.9496 160.347 52.4935C159.322 53.9823 158.208 55.4176 157.423 57.049C157.085 57.7533 157.958 58.5467 158.556 57.9227C159.857 56.5587 160.847 54.954 161.917 53.4117C162.193 53.0105 162.077 52.6272 161.818 52.3776Z" fill="black"/>
<path d="M156.472 59.8039C155.473 60.5973 154.6 61.5512 153.949 62.6478C153.432 63.5304 152.79 64.7428 153.236 65.7413C153.361 66.0177 153.78 66.0355 153.976 65.8393C154.6 65.1886 154.626 64.0831 154.939 63.2451C155.366 62.0861 156.035 61.0966 156.891 60.2229C157.167 59.9466 156.766 59.5721 156.472 59.8039Z" fill="black"/>
<path d="M154.208 79.46C153.049 78.0425 152.157 76.2417 153.192 74.4944C153.414 74.1199 152.862 73.6653 152.576 74.0219C151.088 75.903 150.892 79.362 153.406 80.4942C154.092 80.8062 154.689 80.0484 154.208 79.46Z" fill="black"/>
<path d="M160.983 85.0685C160.216 84.391 159.432 83.7581 158.728 83.0092C158.193 82.4476 157.292 83.1696 157.667 83.8294C158.202 84.7654 158.799 85.7282 159.557 86.5038C160.243 87.2081 161.152 88.2333 162.231 87.9837C162.534 87.9124 162.811 87.5736 162.784 87.2616C162.713 86.2275 161.696 85.6926 160.983 85.0685Z" fill="black"/>
<path d="M170.789 91.7628C170.379 91.0585 169.755 90.6573 169.042 90.3007C168.31 89.9352 167.597 89.6054 166.893 89.1953C166.447 88.9278 165.921 89.5697 166.322 89.9352C166.929 90.479 167.455 91.0496 168.016 91.6291C168.569 92.1907 169.149 92.6989 169.933 92.8682C170.566 93.0109 171.128 92.3512 170.789 91.7628Z" fill="black"/>
<path d="M252.573 32.6677C252.457 32.2754 251.878 32.3556 251.869 32.7657C251.753 37.7046 252.11 42.8486 252.93 47.725C253.153 49.089 255.488 48.7859 255.364 47.3952C254.9 42.4741 253.937 37.4104 252.573 32.6677Z" fill="black"/>
<path d="M257.862 35.4558C257.684 34.8496 256.801 35.1081 256.926 35.7144C258.29 42.5432 257.523 49.3364 258.183 56.1653C258.317 57.5471 260.554 58.1444 260.831 56.5219C262.008 49.5237 259.832 42.0975 257.862 35.4558Z" fill="black"/>
<path d="M108.037 23.4844C105.532 21.3716 103.161 19.1072 100.691 16.9587C98.8192 15.3272 96.6707 12.4209 94.0229 12.6527C93.0601 12.733 92.3291 13.5353 92.5876 14.5338C93.2741 17.1994 96.5637 18.1533 98.7925 19.4103C101.672 21.0328 104.623 22.5216 107.476 24.1887C107.921 24.4472 108.438 23.8232 108.037 23.4844Z" fill="black"/>
<path d="M135.958 9.63C135.842 7.17838 136.314 4.67327 136.056 2.26623C135.895 0.750686 133.444 0.0731467 133.132 1.87397C132.347 6.45626 133.578 12.7146 134.968 17.1275C135.227 17.9476 136.609 17.8496 136.537 16.9135C136.359 14.4886 136.074 12.0638 135.958 9.63Z" fill="black"/>
<path d="M166.768 4.57449C162.783 8.26528 158.851 11.8313 155.356 16.0213C155.062 16.3779 155.517 16.8415 155.864 16.5295C159.796 13.017 164.111 9.62039 168.854 7.28467C170.993 6.22379 168.693 2.78258 166.768 4.57449Z" fill="black"/>
<path d="M57.2923 292.377C50.5169 290.647 42.0656 292.609 35.1921 293.197C34.363 293.268 34.363 294.409 35.1921 294.481C42.0745 295.078 50.5258 297.03 57.2923 295.301C58.7365 294.944 58.7365 292.751 57.2923 292.377Z" fill="black"/>
<path d="M145.944 282.525C144.696 282.124 143.341 282.552 142.057 282.712C140.676 282.882 139.294 283.007 137.903 283.122C137.136 283.185 137.136 284.246 137.903 284.317C139.294 284.442 140.676 284.558 142.057 284.727C143.35 284.888 144.687 285.325 145.944 284.914C147.121 284.531 147.121 282.9 145.944 282.525Z" fill="black"/>
<path d="M286.336 286.136C276.797 284.629 266.963 285.28 257.344 285.369C246.914 285.467 236.563 286.011 226.151 286.51C224.778 286.573 224.778 288.579 226.151 288.641C236.563 289.131 246.914 289.684 257.344 289.782C266.963 289.871 276.806 290.522 286.336 289.015C287.753 288.784 287.753 286.368 286.336 286.136Z" fill="black"/>
<path d="M35.0849 260.158C24.0125 258.42 11.6563 260.737 0.468036 261.049C-0.156012 261.067 -0.156012 262.003 0.468036 262.021C11.6563 262.333 24.0214 264.651 35.0849 262.913C36.4488 262.699 36.4488 260.372 35.0849 260.158Z" fill="black"/>
<path d="M242.508 163.333C242.499 163.235 242.338 163.2 242.321 163.306C241.616 167.728 241.598 172.56 242.347 176.973C242.428 177.481 243.266 177.356 243.239 176.848C243.025 172.355 242.757 167.835 242.508 163.333Z" fill="black"/>
<path d="M239.925 179.193C236.056 178.889 232.009 179.54 228.149 179.879C227.756 179.915 227.738 180.503 228.149 180.503C232.062 180.521 236.19 180.824 240.059 180.209C240.674 180.111 240.469 179.237 239.925 179.193Z" fill="black"/>
<path d="M243.899 182.02C243.845 181.672 243.239 181.753 243.284 182.1C243.658 185.363 243.596 188.786 244.202 192.005C244.282 192.424 244.888 192.299 244.906 191.907C245.102 188.679 244.362 185.212 243.899 182.02Z" fill="black"/>
<path d="M254.037 178.23C252.807 178.042 251.604 178.452 250.382 178.622C249.045 178.809 247.708 178.925 246.37 179.13C245.96 179.192 246.103 179.772 246.46 179.807C247.886 179.95 249.312 179.906 250.748 179.825C251.916 179.763 253.11 179.834 254.171 179.317C254.617 179.103 254.537 178.31 254.037 178.23Z" fill="black"/>
<path d="M249.622 171.5C249.052 172.008 248.704 172.641 248.267 173.265C247.795 173.933 247.287 174.575 246.752 175.19C246.333 175.672 246.983 176.349 247.465 175.895C248.588 174.834 250.059 173.532 250.514 172.017C250.674 171.482 250.006 171.161 249.622 171.5Z" fill="black"/>
<path d="M239.746 175.546C238.819 174.913 237.669 174.556 236.635 174.119C236.225 173.941 235.859 174.503 236.269 174.743C237.268 175.332 238.275 176.054 239.372 176.437C239.925 176.624 240.183 175.84 239.746 175.546Z" fill="black"/>
<path d="M239.718 183.053C238.469 183.544 237.284 184.337 236.392 185.344C235.893 185.906 236.374 186.726 237.106 186.575C238.523 186.28 239.789 185.416 240.654 184.275C241.082 183.713 240.368 182.804 239.718 183.053Z" fill="black"/>
<path d="M249.881 184.738C249.185 183.748 247.875 183.267 246.778 182.875C246.52 182.785 246.279 183.169 246.502 183.347C247.394 184.042 248.294 185.014 249.364 185.406C249.729 185.54 250.104 185.059 249.881 184.738Z" fill="black"/>
<path d="M243.197 177.838C241.085 177.838 241.076 181.128 243.197 181.128C245.319 181.128 245.319 177.838 243.197 177.838Z" fill="black"/>
</svg>
