<svg width="119" height="163" viewBox="0 0 119 163" fill="none" xmlns="http://www.w3.org/2000/svg">
<path d="M31.715 131.743C30.7282 133.772 29.7205 135.791 28.7169 137.811C28.4986 138.248 28.2718 138.685 28.0409 139.126C28.0787 139.151 28.1165 139.18 28.15 139.214C28.6287 139.688 29.1242 140.15 29.5987 140.625C30.8122 137.878 32.0089 135.136 32.9957 132.285C33.256 131.538 32.0635 131.025 31.715 131.743Z" fill="#251C1C"/>
<path d="M71.5923 36.7473C69.4509 36.8607 67.238 37.1379 65.1553 37.667C63.3917 38.1163 61.2629 38.7084 60.0242 40.1277C59.4951 39.2711 58.5797 38.7042 57.5132 38.6412C56.1737 38.5656 54.9686 39.2795 54.2464 40.3797C53.8181 40.0983 53.3058 39.9052 52.8523 39.6952C51.9412 39.2711 51.03 38.847 50.1188 38.4312C49.2286 38.0239 48.2503 37.394 47.2341 37.6208C46.4447 37.7972 46.0122 38.3472 45.7813 39.0443C45.395 40.0353 45.5209 41.2153 45.5461 42.2609C45.5671 43.2603 45.6259 44.2556 45.7183 45.2508C45.8527 46.6911 45.7435 49.9119 47.549 50.42C47.5532 50.42 47.5532 50.42 47.5574 50.42C48.1159 50.7224 48.8213 50.7727 49.3714 50.42C50.4757 49.7187 51.6388 48.8747 52.424 47.8123C53.1588 47.4553 53.8601 47.195 54.2464 46.4013C54.28 46.3342 54.3052 46.2628 54.3304 46.1956C54.8259 46.267 55.3381 46.1326 55.7664 45.8093C56.8707 46.3762 58.2354 45.9059 59.1046 44.9946C59.5623 44.5159 59.9444 43.9616 60.1963 43.3611C60.3517 43.6509 60.5952 43.9154 60.9395 44.1296C62.2328 44.9274 63.5345 45.7211 64.8488 46.4853C66.0161 47.1614 67.3346 47.6905 68.4053 48.5136C69.0645 49.0217 70.3074 48.5052 70.4334 47.6905C70.6518 46.2418 71.4496 45.087 71.9912 43.7642C72.5035 42.5003 72.873 41.1943 73.4273 39.9429C74.0277 38.5824 73.3559 36.655 71.5923 36.7473Z" fill="#EF4036"/>
<path d="M54.0279 58.1893C53.7046 58.4581 53.3897 58.731 53.0748 59.004C52.8942 59.1594 52.7011 59.3063 52.5373 59.4743C52.2854 59.2182 52.0082 58.9788 51.6975 58.7604C51.7227 58.7268 51.7437 58.6932 51.7647 58.6512C52.0964 57.9626 52.3736 57.2571 52.6507 56.5433C52.8187 56.1149 52.1762 55.905 51.9453 56.2451C51.538 56.8456 51.1349 57.4377 50.7737 58.0718C50.7485 58.1137 50.7317 58.1558 50.7192 58.1935C50.2657 57.9794 49.7786 57.8156 49.2831 57.7274C49.2957 57.7064 49.3083 57.6812 49.3125 57.6518C49.4511 57.0051 49.2327 56.2493 48.9724 55.6614C48.8884 55.4724 48.6029 55.5774 48.6029 55.7622C48.5987 56.0897 48.6071 56.4047 48.6281 56.7322C48.6449 57.0429 48.6239 57.3537 48.7037 57.656C48.7037 57.6602 48.7079 57.6602 48.7079 57.6644C48.267 57.6434 47.8219 57.6854 47.3978 57.8156C47.1164 57.9038 46.8645 58.0256 46.642 58.1809C46.3816 57.5175 45.9995 56.938 45.6426 56.3081C45.4998 56.0561 45.1387 56.2325 45.1933 56.497C45.3739 57.3579 45.4746 58.1767 45.8484 58.9788C45.5544 59.3987 45.3445 59.8858 45.1891 60.3897C44.6307 60.0412 43.9042 59.8606 43.2996 59.6339C42.7579 59.4281 42.3842 60.3141 42.9049 60.5745C43.5347 60.8894 44.2192 61.3555 44.9162 61.4899C44.9204 61.4899 44.9246 61.4899 44.933 61.4899C44.3199 64.7107 44.5341 68.9477 46.4992 71.5933C46.8225 72.0258 47.444 71.9754 47.6833 71.6101C48.4181 71.6227 49.1529 71.6395 49.8878 71.6353C50.1439 71.7822 50.4966 71.778 50.7485 71.6227C51.6387 71.6101 52.6045 71.6772 53.4695 71.5093C55.1281 71.1901 54.8215 69.2879 54.8174 68.0029C54.8048 65.4204 54.7166 62.5229 53.2763 60.3771C53.4695 60.2596 53.6458 60.1168 53.8306 59.9824C54.1707 59.7389 54.5108 59.4995 54.8467 59.2476C55.632 58.6765 54.788 57.5595 54.0279 58.1893ZM52.9194 70.2747C52.7053 70.4343 52.4533 70.4721 52.1972 70.4847C52.7095 68.847 52.6885 67.1001 52.3568 65.4162C52.13 64.253 51.6429 62.4011 50.0641 62.7161C48.5987 63.01 48.3384 65.0425 48.1956 66.2225C48.0108 67.7384 48.0612 69.3887 48.754 70.7702C48.4055 70.808 48.0612 70.8458 47.7127 70.8878C47.3978 69.733 46.9359 68.6328 46.6839 67.457C46.4068 66.1679 46.3145 64.8409 46.3858 63.5224C46.4488 62.4138 46.5118 60.5409 47.3936 59.7137C48.3425 58.8276 50.0137 59.5709 50.8787 60.2134C53.0832 61.8553 53.0916 64.8577 53.1839 67.3478C53.2091 68.0029 53.2301 68.6622 53.2217 69.3173C53.2133 69.8338 53.3099 69.9807 52.9194 70.2747Z" fill="#251C1C"/>
<path d="M76.8871 58.3237C76.3664 58.5505 75.9129 58.8276 75.4427 59.1467C75.1697 59.3315 74.8884 59.5457 74.6911 59.8102C74.3551 59.3441 73.9562 58.9788 73.5153 58.7184C73.5195 58.71 73.5279 58.7058 73.5321 58.6974C73.9184 58.0466 74.0444 57.3495 74.078 56.5978C74.1074 55.9637 73.1962 56.0057 73.1206 56.5978C73.0409 57.1857 72.8393 57.7652 72.6756 58.3363C72.6756 58.3405 72.6755 58.3489 72.6714 58.3531C72.1843 58.2145 71.6762 58.1809 71.1723 58.2523C71.1555 57.5426 71.0128 56.8876 70.7566 56.2073C70.6181 55.8335 69.9546 55.842 70.0008 56.3081C70.0722 57.0723 70.0512 57.8618 69.984 58.626C69.7573 58.7394 69.5389 58.8738 69.329 59.0334C69.3038 58.857 69.2114 58.6932 69.035 58.6135C68.4976 58.3699 67.9853 58.0549 67.494 57.7316C67.2463 57.5678 66.9902 57.8828 67.1119 58.1137C67.4101 58.6848 67.8048 59.1552 68.2876 59.5835C68.3758 59.6633 68.485 59.7136 68.5899 59.7388C68.275 60.1126 68.0315 60.5157 67.8383 60.9398C67.4184 60.5451 66.8096 60.3183 66.3099 60.0538C65.5667 59.6633 64.9159 60.7635 65.6507 61.1834C66.2049 61.4983 66.8054 61.9728 67.4562 62.0568C66.9104 64.2656 67.3387 66.8439 67.1707 68.9981C67.1161 69.733 68.296 69.8884 68.4556 69.1703C68.9721 66.8439 68.2456 64.379 68.9679 62.0946C69.3164 60.9944 70.0848 59.9026 71.2857 59.6507C72.6168 59.3693 73.6119 60.4695 73.9982 61.6243C74.7372 63.8415 74.4349 66.6844 74.3006 68.9813C74.246 69.8842 74.204 70.0479 73.297 70.0143C73.1836 70.0101 73.066 70.006 72.9527 70.0018C73.4859 68.448 73.6119 66.8481 73.3096 65.2272C73.1122 64.1648 72.7259 62.6237 71.4369 62.4767C68.5102 62.1408 68.9889 68.1247 69.308 69.8884C68.6613 69.8674 68.0189 69.838 67.3723 69.8044C66.8852 69.7792 66.902 70.5015 67.3723 70.5519C69.2744 70.7576 71.1723 71.0012 73.0786 71.1565C74.2963 71.2573 75.4469 71.3245 75.6484 69.8548C75.9003 67.9945 75.8962 66.0377 75.8248 64.1648C75.7744 62.9176 75.6652 61.6117 75.1109 60.4821C75.4847 60.4107 75.8668 60.1966 76.1775 60.0202C76.6562 59.7472 77.0803 59.4659 77.5044 59.1132C77.9704 58.7142 77.3616 58.1221 76.8871 58.3237Z" fill="#251C1C"/>
<path d="M64.8823 74.3902C64.2399 73.1179 62.9172 74.0375 62.3503 74.8017C61.9976 75.2805 61.7205 75.7886 61.5063 76.3219C60.7967 74.7765 59.2347 73.1472 58.1178 74.2558C57.2318 75.1335 57.9498 76.3723 58.5503 77.1701C59.2095 78.0478 60.2341 78.8498 61.309 79.1983C61.4644 79.3117 61.6449 79.3453 61.8255 79.3201C62.8668 79.4209 63.5303 78.4131 64.0299 77.5816C64.5002 76.8048 65.3484 75.3099 64.8823 74.3902Z" fill="#251C1C"/>
<path d="M92.6586 66.886C92.5788 66.4577 92.4318 66.0756 92.2303 65.7354C93.0659 64.7738 93.6999 63.661 93.7503 62.3466C93.7881 61.364 93.4606 60.457 92.8685 59.7683C93.1331 58.5548 92.8895 57.1144 92.4066 56.1402C92.2093 55.7455 91.9573 55.3885 91.6592 55.0778C91.4745 54.3303 91.2225 53.6039 90.9034 52.9026C90.8236 52.7304 90.6976 52.6381 90.5549 52.6045C90.8446 52.4365 91.0672 52.1467 91.1091 51.731C91.3905 48.6656 91.3947 45.6085 91.2855 42.5347C91.2645 41.888 90.5717 41.1574 89.8663 41.4513C87.8172 42.3164 85.7597 43.1688 83.7274 44.0674C82.8372 44.4622 81.9344 44.9367 80.9812 45.176C79.9105 45.4406 78.9699 45.134 77.9622 44.7687C76.5975 44.2774 75.2245 43.8449 73.8346 43.4585C74.1537 42.6523 74.4476 41.8335 74.6996 41.0062C75.1279 39.5995 75.9215 37.5083 74.7752 36.2233C73.6456 34.9593 71.4244 35.3876 69.9505 35.606C67.9854 35.8915 66.0119 36.3619 64.1601 37.0883C63.228 37.4537 62.3084 37.8988 61.435 38.3901C60.9689 38.6504 60.5196 38.9318 60.083 39.2341C59.936 39.3349 59.8352 39.4273 59.747 39.5155C58.798 38.5664 57.3536 38.1927 56.1569 39.1207C56.0603 39.1963 55.9848 39.2803 55.9344 39.3685C55.7832 39.3223 55.6026 39.4063 55.5732 39.6247C55.5564 39.7506 55.5313 39.8766 55.5019 40.0026C52.361 38.8982 49.9214 36.0091 46.3019 36.4752C44.8701 36.66 43.8833 37.4327 43.9085 38.9486C43.9295 40.5401 44.2066 42.1862 44.4376 43.7861C43.8287 43.9709 43.2241 44.164 42.6236 44.374C41.5739 44.7393 40.5241 45.302 39.4408 45.533C38.1937 45.8017 37.2783 44.8023 36.3671 44.0926C34.4482 42.6019 32.5251 41.1154 30.602 39.6289C29.9175 39.0998 29.0777 39.969 29.2457 40.6703C29.7832 42.9252 30.2241 45.197 30.6901 47.4646C31.0429 49.1737 31.2822 51.013 31.7399 52.7346C31.383 53.7131 31.362 54.8007 31.4166 55.8883C30.392 56.2326 29.5144 56.9213 28.9812 58.0929C28.4563 59.2392 28.5906 60.457 29.0945 61.5824C29.2373 61.8974 29.4178 62.2333 29.6278 62.5692C29.779 62.9639 29.9805 63.3377 30.224 63.6862C29.3045 64.5176 28.725 65.7606 28.7964 67.0708C28.8888 68.8512 29.8126 70.2202 31.1058 71.2028C30.4256 72.198 30.1317 73.4872 30.3794 74.7554C30.6985 76.3721 31.6853 77.5814 32.9576 78.4465C32.3361 79.2989 31.9918 80.3571 32.059 81.5245C32.143 82.9355 32.8232 84.128 33.8184 84.9805C33.2935 85.7783 32.987 86.7232 32.9996 87.7058C33.0164 88.7724 33.4363 89.797 34.1081 90.62C32.8526 91.8714 32.0968 93.5973 32.101 95.4449C32.101 96.226 32.5083 96.7467 33.0458 97.0155C31.912 98.628 30.9421 100.35 30.1695 102.147C27.142 109.176 27.3729 117.18 31.0135 123.907C29.5816 126.028 29.8377 128.867 31.7231 130.672C31.4669 131.214 31.2024 131.751 30.9379 132.285C31.0554 132.465 31.1814 132.642 31.32 132.81C31.6811 133.104 32.0254 133.41 32.3655 133.725C35.1914 128.107 37.2909 122.127 38.5422 115.954C38.7648 114.85 38.9579 113.737 39.1301 112.624C39.0503 111.184 38.9117 109.651 40.0958 108.614C40.163 108.555 40.2302 108.5 40.3016 108.45C40.2932 108.442 40.2848 108.433 40.2722 108.429C40.3268 108.4 40.3814 108.37 40.4402 108.345C40.4485 108.341 40.4569 108.341 40.4611 108.337C41.2631 107.782 42.2247 107.53 43.1737 107.266C43.1695 107.262 43.1653 107.257 43.1653 107.253C45.4495 105.909 47.1459 103.692 48.2125 101.294C49.7871 97.7503 50.144 93.7946 50.0348 89.9608C50.0348 89.9566 50.0306 89.9524 50.0306 89.9482C50.4925 90.1077 50.9544 90.2631 51.4205 90.4017C52.466 90.7166 53.5325 90.9938 54.6117 91.2289C53.352 94.5463 53.5073 98.1996 54.2086 101.63C54.8132 104.595 56.0855 107.723 58.5083 109.664C60.5658 111.314 63.7276 112.179 66.1756 110.835C68.5439 109.533 69.644 106.581 70.2655 104.116C70.7735 102.101 71.1389 100.035 71.3404 97.9645C71.5378 95.9698 72.05 93.4839 71.3992 91.5481C71.3446 91.3885 71.2648 91.2667 71.1682 91.1785C71.7435 91.0358 72.3146 90.8804 72.8772 90.704C73.6414 90.4647 74.3846 90.1917 75.1069 89.8894C74.5022 91.4473 74.771 93.6099 74.7542 95.2644C74.7374 97.1414 74.7835 99.0227 74.9179 100.896C75.0145 102.252 75.195 103.612 75.7325 104.872C76.2994 106.208 77.2399 107.005 78.1805 108.055C79.457 109.479 79.3352 111.427 79.5368 113.216C79.7341 114.984 79.9903 116.752 80.322 118.499C80.6075 120.002 80.9477 121.493 81.3382 122.971C81.3004 123.021 81.2668 123.072 81.229 123.122C80.7587 123.811 81.2038 124.541 81.842 124.793C82.2829 126.297 82.77 127.792 83.3033 129.266C83.6098 130.11 84.9661 129.744 84.6553 128.892C84.1305 127.451 83.6518 125.998 83.2193 124.529C84.3992 123.723 85.3272 122.265 85.9528 121.048C86.6582 119.67 87.1201 118.175 87.4225 116.664C88.0943 113.287 88.1405 109.76 88.0607 106.329C87.9851 103.205 87.4519 100.211 86.1334 97.4522C86.2467 97.3766 86.3517 97.2926 86.4525 97.2044L86.5365 97.2338C87.2251 97.4816 88.0985 97.196 88.594 96.6879C89.9292 95.3316 90.6221 92.9884 89.6395 91.2583C89.333 90.7124 88.7493 90.1749 88.0733 89.7844C89.249 89.2763 90.2484 88.2055 90.5339 87.0633C90.7438 86.2319 90.6515 85.434 90.3449 84.7495C90.9874 84.0399 91.4031 83.1622 91.4073 82.1166C91.4073 81.4153 91.2267 80.7687 90.9076 80.2144C91.4157 79.5887 91.781 78.8664 91.8818 77.9972C91.9783 77.1657 91.8398 76.3133 91.4031 75.5868C91.3359 75.4734 91.2603 75.3684 91.1805 75.2635C91.4409 75.0115 91.7012 74.7596 91.9489 74.4992C92.6376 73.7811 93.1373 72.9287 93.1121 71.8999C93.0869 70.9677 92.6586 70.2286 92.0455 69.6365C92.5662 68.8261 92.8517 67.9106 92.6586 66.886ZM78.0504 47.6158C78.0713 47.5696 78.0839 47.5192 78.0965 47.4688C78.1217 47.4772 78.1511 47.4856 78.1763 47.494C78.0797 47.641 78 47.7964 77.9286 47.9559C77.9622 47.8299 78.0042 47.7166 78.0504 47.6158ZM61.666 39.948C62.4092 39.6625 63.144 39.3769 63.904 39.1418C65.3023 38.705 66.7047 38.2893 68.145 38.0164C68.9722 37.8568 69.7994 37.7518 70.635 37.6636C71.2858 37.5964 72.2642 37.3151 72.894 37.5208C73.8976 37.8484 72.5497 41.1448 72.3104 41.8544C71.7771 43.4208 71.1137 44.9367 70.4208 46.4358C70.2739 46.7591 69.7784 48.3549 69.4509 48.485C69.0142 48.6572 67.7881 47.8509 67.4312 47.6452C67.3556 47.6032 67.2758 47.557 67.2002 47.515C67.0322 47.3344 66.8223 47.2169 66.5914 47.1665C65.7306 46.6752 64.8572 46.1797 64.0426 45.6506C64.0342 45.6464 64.0258 45.6379 64.0174 45.6337C63.5975 45.1424 63.039 44.7225 62.4428 44.4916C61.9347 44.1136 61.4224 43.7525 60.8724 43.4712C60.8808 43.3998 60.885 43.3242 60.8892 43.2528C62.3756 43.5677 64.0468 43.7105 65.2057 44.7729C66.373 45.8395 67.6033 43.6181 66.1253 43.1898C64.4289 42.6985 62.6485 42.014 60.8976 42.5011C60.8892 42.3458 60.8808 42.1946 60.864 42.0434C61.9053 41.8712 62.9424 41.6655 64.0006 41.6067C65.4576 41.5269 66.8349 41.8293 68.2583 42.1064C69.8456 42.4172 70.1941 40.0656 68.5565 39.9018C67.049 39.7506 65.508 39.9984 64.03 40.2923C62.8795 40.5191 61.7667 40.8214 60.7464 41.3631C60.6834 41.0944 60.6036 40.8424 60.507 40.6157C60.4818 40.5569 60.4566 40.5023 60.4272 40.4435C60.8345 40.3007 61.2629 40.1034 61.666 39.948ZM55.6866 42.9798C55.7874 42.0518 56.1023 41.2497 56.1527 40.3553C56.3878 40.5149 56.7238 40.5359 57.0471 40.2755C58.395 39.1879 59.6504 41.1574 59.747 42.2912C59.7764 42.6355 59.789 43.0428 59.7512 43.4376C59.4237 43.6895 59.2894 44.185 59.4279 44.5714C59.4111 44.5965 59.3943 44.6217 59.3733 44.6469C58.7351 44.4118 57.9835 44.5881 57.5132 45.0669C56.9337 45.0291 56.2829 44.9703 55.9344 44.4874C55.6404 44.0716 55.6362 43.4543 55.6866 42.9798ZM46.8898 38.2179C47.5364 38.1969 48.1789 38.3481 48.7919 38.5371C50.0096 38.9066 51.1139 39.5533 52.298 40.0194C53.373 40.4393 54.2548 40.5863 55.3339 40.5905C55.2289 40.9054 55.1072 41.2288 54.9812 41.5479C54.0574 41.3211 53.1547 41.2204 52.1847 41.2162C51.1014 41.212 49.808 41.107 48.7751 41.4093C47.6582 41.7411 48.1705 43.5383 49.2538 43.1436C50.1734 42.8119 50.9166 42.2954 51.9075 42.1442C52.6424 42.0308 53.415 42.0308 54.175 42.0896C54.1582 42.2912 54.1414 42.4927 54.1204 42.6985C54.1582 42.4969 54.196 42.2954 54.2338 42.098C54.4101 42.1106 54.5865 42.1316 54.7628 42.1484C54.5991 42.6187 54.4647 43.089 54.4185 43.5551C53.6879 43.7735 52.9909 44.0465 52.3149 44.416C51.9328 44.6217 51.5632 44.8401 51.1727 45.0333C50.8746 45.1802 50.5303 45.5414 50.2406 45.6506C49.5603 45.9151 49.279 46.7927 49.9214 47.2882C50.5471 47.7711 51.3785 47.3008 51.4247 46.5534C51.4331 46.4064 51.7648 46.0201 51.8572 45.8899C52.1427 45.4868 52.5374 45.239 52.9573 44.9997C53.4318 44.7267 53.9314 44.4916 54.4269 44.2564C54.4815 44.6511 54.6243 45.0375 54.9014 45.407C53.9902 45.9865 53.1882 46.8473 52.382 47.536C51.2903 48.4724 50.186 49.5936 48.9557 50.3411C48.2335 50.782 47.6246 50.8912 47.2845 50.0471C47.0619 49.5012 47.0829 48.737 46.9947 48.1449C46.789 46.7424 46.5203 45.3482 46.3061 43.9457C46.092 42.5473 45.8736 41.149 45.7308 39.7422C45.6343 38.831 45.8652 38.2515 46.8898 38.2179ZM32.9954 55.6069C33.3019 54.6579 33.5622 53.7047 33.516 52.7556C33.4951 52.3567 33.1843 52.0376 32.8316 51.9284C32.7686 50.3537 32.4999 48.7412 32.3067 47.2463C32.1094 45.7429 31.8449 44.248 31.5509 42.7573C32.6805 43.6769 33.8058 44.5965 34.9353 45.512C36.3588 46.671 37.6814 47.9559 39.6549 47.6368C39.6381 47.6746 39.6256 47.7124 39.6088 47.7543C39.2183 47.9685 38.8697 48.2415 38.6052 48.548C37.9082 49.3669 37.6856 50.2781 37.736 51.2061C37.144 51.1809 36.5351 51.3321 36.0018 51.689C34.6498 52.6003 34.3348 54.1036 34.4482 55.6027C34.4062 55.6279 34.3642 55.6489 34.3222 55.6741C33.8855 55.6153 33.4363 55.5901 32.9954 55.6069ZM49.4554 89.8642C48.1621 95.9195 47.4398 103.587 40.7971 106.237C39.5374 106.741 38.3281 107.148 37.9376 108.601C37.4883 110.281 37.4505 112.133 37.1314 113.846C36.5015 117.235 35.6197 120.577 34.4986 123.836C33.8184 125.818 33.0416 127.762 32.1766 129.669C31.0932 128.144 31.0806 125.91 32.2689 124.42C32.4579 124.184 32.5377 123.886 32.3739 123.609C30.539 120.472 29.6698 116.853 29.6404 113.208C30.4508 113.993 31.8826 114.186 32.966 113.93C33.8394 113.724 34.2467 112.788 34.0745 111.973C33.8688 110.974 33.2725 110.067 32.5881 109.323C32.0128 108.698 31.11 107.933 30.1905 107.87C30.4424 106.703 30.7783 105.552 31.1982 104.444C31.9834 105.607 33.6084 106.292 34.8093 106.787C35.5484 107.089 36.6695 106.451 36.7828 105.666C36.976 104.343 36.8038 103.172 36.0816 102.021C35.5315 101.143 34.5994 100.102 33.5203 99.8415C33.9737 99.1319 34.4566 98.4474 34.9731 97.7839C36.0606 98.5272 37.3707 98.6784 38.4414 97.3766C38.9831 96.7173 39.1973 95.8859 39.1301 95.0544C39.7473 95.2434 40.4486 95.2224 40.9944 94.8654C41.8174 94.3321 42.1071 93.5007 42.0609 92.6399C42.1197 92.6525 42.1785 92.6693 42.2373 92.6777C43.3836 92.8624 44.5803 92.4971 45.3739 91.6279C46.1424 90.788 46.3859 89.4652 46.1466 88.2811C47.2383 88.827 48.3594 89.3183 49.5057 89.7382C49.4889 89.7802 49.4638 89.818 49.4554 89.8642ZM70.1143 97.9477C70.0387 99.9297 69.8162 101.92 69.3501 103.852C68.5691 107.085 66.5032 110.545 62.6401 109.81C59.1214 109.143 57.3242 105.775 56.4508 102.613C55.4221 98.8925 55.2331 95.1594 55.1533 91.3297C55.5019 91.4011 55.8546 91.4641 56.2073 91.5271C56.8497 95.5667 57.9037 99.4636 59.852 103.088C59.999 103.365 60.4651 103.176 60.3643 102.873C59.1172 99.1613 57.8071 95.4491 56.8791 91.6404C61.0739 92.3039 65.4156 92.3123 69.56 91.5103C68.7538 93.3411 67.9098 95.1594 67.091 96.9861C66.7047 97.8553 66.31 98.7203 65.9447 99.598C65.4576 100.77 64.685 101.765 64.1895 102.92C64.0594 103.222 64.4373 103.453 64.6346 103.18C65.2981 102.256 65.6634 101.156 66.2554 100.186C66.8475 99.2159 67.3934 98.2332 67.8888 97.2044C68.6111 95.7053 69.2325 94.16 69.7952 92.5979C69.8204 93.3453 69.9589 94.1138 70.0135 94.8402C70.0891 95.8817 70.1563 96.9063 70.1143 97.9477ZM74.1537 88.8102C65.2645 92.4425 54.1288 91.6236 45.5335 86.8365C45.1598 86.32 44.6391 85.9379 43.9841 85.7951C43.8833 85.6775 43.7615 85.5726 43.6188 85.4844C43.2703 85.266 42.9091 85.0855 42.5354 84.9343C42.2205 84.7075 41.914 84.4682 41.6117 84.2288C41.683 83.7459 41.7082 83.2798 41.6704 82.8557C41.5529 81.4279 40.9062 80.1346 39.8985 79.2611C40.3016 78.4423 40.4696 77.5101 40.3226 76.5568C40.1672 75.549 39.6633 74.642 38.9411 73.9575C39.6633 72.8657 40.0245 71.5765 39.7641 70.195C39.592 69.267 39.1133 68.4271 38.4456 67.7804C38.5254 67.7259 38.6052 67.6713 38.6724 67.6125C39.5374 66.9154 40.0874 65.9496 40.0706 64.82C40.0496 63.6106 39.214 62.4432 38.1727 61.8805C38.0257 61.8008 37.8662 61.7252 37.6982 61.6538C38.0467 61.5488 38.3742 61.4018 38.6472 61.2129C39.6549 60.52 40.1714 59.4324 40.2764 58.2818C40.8558 58.1936 41.4185 57.9375 41.8846 57.4882C42.5396 56.8583 42.8378 56.0226 42.842 55.1702C43.3668 55.0568 43.8539 54.8174 44.2738 54.3765C44.9415 53.6753 45.1052 52.764 45.0086 51.8612C45.0296 51.8444 45.0548 51.8276 45.0758 51.8108C45.3613 51.5673 45.5923 51.2817 45.7519 50.95C46.1676 51.731 46.873 52.2223 47.8849 52.2349C49.4049 52.2517 50.6269 50.9584 51.7228 50.0765C51.9747 49.875 52.2309 49.6734 52.487 49.4718C52.3484 50.1605 52.5248 50.8492 53.205 51.4287C54.5109 52.5373 55.8168 51.752 56.8329 50.5216C57.3452 50.9626 58.0086 51.1641 58.8568 50.9248C59.2012 50.8282 59.4909 50.677 59.726 50.4838C59.7596 50.5048 59.789 50.5258 59.8184 50.5468C61.1789 51.3699 63.1944 51.6093 64.3281 50.2949C64.5465 50.0429 64.706 49.7532 64.8152 49.4466C64.9873 49.6566 65.2183 49.8204 65.5164 49.896C66.31 50.0975 67.1246 49.644 67.4228 48.9679C68.0988 49.4046 68.8 49.7994 69.497 50.0639C70.6602 50.5048 71.395 49.1737 71.8988 47.9769C72.0164 48.2373 72.1718 48.4766 72.3733 48.6656C73.0578 49.3039 74.0781 49.4256 74.9011 48.9763C75.0061 48.9175 75.1111 48.8462 75.216 48.7664C74.9221 49.6986 74.9977 50.7736 75.4722 51.7184C76.1524 53.0664 77.4289 53.7928 78.8062 53.9356C79.0329 55.1618 79.5956 56.3082 80.5403 57.2194C81.145 57.8031 81.8672 58.244 82.6398 58.5422C82.5097 58.6345 82.3837 58.7311 82.2703 58.8445C81.4683 59.634 81.3675 60.8181 81.863 61.8008C82.2367 62.5398 82.854 63.0269 83.572 63.3419C83.0639 63.724 82.6734 64.2447 82.5097 64.8578C82.2073 65.9916 82.7154 66.97 83.509 67.6965C83.3327 67.9568 83.1815 68.2298 83.0555 68.5237C82.56 69.6743 82.5097 70.9425 82.8708 72.0763C82.0562 72.597 81.4137 73.3948 81.1492 74.3522C80.8595 75.3853 81.0652 76.4644 81.5943 77.3589C81.5985 77.4974 81.6111 77.6318 81.6363 77.7662C79.8937 79.6391 79.3016 82.3769 80.2464 84.7369C79.3562 84.8293 78.5164 85.7153 78.1301 86.7106C76.8872 87.5378 75.5478 88.2433 74.1537 88.8102ZM85.4531 111.129C85.1886 110.974 84.9115 110.957 84.6091 110.953C84.6679 110.953 84.5882 110.94 84.5336 110.936C84.5252 110.919 84.3404 110.835 84.3194 110.818C83.5762 110.31 82.2703 110.789 82.1192 111.713C81.9344 112.838 82.2031 113.888 82.9841 114.745C83.4712 115.278 84.1892 115.668 84.9241 115.761C84.6553 117.113 84.269 118.448 83.6602 119.687C83.3159 120.388 82.875 120.976 82.4173 121.552C82.1696 120.548 81.9386 119.544 81.7329 118.528C81.3466 116.617 81.0274 114.698 80.8007 112.763C80.6327 111.326 80.6747 109.685 79.9525 108.387C79.2428 107.102 77.8362 106.468 76.9964 105.292C76.0642 103.982 75.8711 102.252 75.7535 100.694C75.6191 98.8799 75.5604 97.0574 75.489 95.2392C75.4554 94.3405 75.4344 93.4461 75.4176 92.5475C75.4008 91.6614 75.5016 90.683 75.2202 89.8432C75.216 89.8348 75.2118 89.8264 75.2034 89.8222C76.1188 89.4359 76.9922 88.9907 77.832 88.5036C77.8698 89.5996 78.3527 90.7166 79.2177 91.2751C79.0413 91.5481 78.9069 91.8546 78.8314 92.2074C78.4996 93.6897 79.4024 95.1342 80.385 96.1588C81.3465 97.1624 82.6482 98.0401 84.0759 98.0443C84.6427 99.4216 85.0164 100.824 85.2432 102.273C85.2264 102.269 85.2096 102.264 85.1928 102.264C85.071 102.243 84.9535 102.256 84.8317 102.298C84.7939 102.315 84.7645 102.332 84.7351 102.344C84.7183 102.344 84.6931 102.344 84.6595 102.348C84.5462 102.365 84.4328 102.378 84.3194 102.395C84.1641 102.416 84.1599 102.42 84.3068 102.395C84.1473 102.416 83.9877 102.437 83.8281 102.458C83.7064 102.474 83.5804 102.491 83.4586 102.525C82.4299 102.798 81.7077 103.654 81.6783 104.734C81.6237 106.783 83.7022 107.849 85.5287 107.644C85.5287 108.803 85.5119 109.966 85.4531 111.129ZM89.7823 53.4779C89.5135 53.0706 89.1776 52.7094 88.7619 52.4407C87.5736 51.6638 85.2432 51.5421 84.311 52.7472C84.2102 52.5751 84.1809 52.3609 84.2522 52.0964C84.5672 50.9374 83.3915 49.455 82.1234 49.9673C81.8672 50.0723 81.6321 50.1227 81.4137 50.1395C81.1618 50.0052 80.8721 49.938 80.5697 49.9464C79.9609 49.5768 79.6753 48.737 79.7971 47.83C79.9273 47.8384 80.0617 47.8467 80.196 47.8425C81.3339 47.8299 82.3753 47.41 83.3998 46.9565C85.3356 46.0999 87.2419 45.1844 89.1482 44.2648C89.2574 46.7549 89.1566 49.2493 88.9341 51.731C88.8753 52.3651 89.2952 52.7095 89.7823 52.764C89.7613 52.8312 89.7445 52.9026 89.7277 52.974C89.7487 52.9656 89.7697 52.9614 89.7949 52.9572C89.7067 53.1042 89.6857 53.2889 89.7823 53.4779Z" fill="#251C1C"/>
<path d="M64.8908 102.004C64.3239 101.344 63.5009 101.622 63.0516 102.226C62.8878 102.449 62.7367 102.68 62.5939 102.915C62.1152 102.142 61.3594 101.63 60.4692 101.953C59.6294 102.26 59.474 103.184 59.8016 103.927C60.0661 104.527 60.7463 105.439 61.4266 105.691C61.4098 106.232 62.1194 106.711 62.6443 106.237C63.3455 105.607 63.9754 104.922 64.5465 104.171C65.0378 103.536 65.5164 102.73 64.8908 102.004Z" fill="#EF4036"/>
<path d="M67.5825 83.3303C67.339 83.515 67.0954 83.6536 66.8183 83.7754C66.2766 84.0147 65.7098 84.1323 65.1177 84.0609C64.681 84.0105 64.2947 83.8594 63.9882 83.6326C63.5977 83.41 63.2534 83.1077 62.7873 83.0741C61.9559 83.0111 61.4394 83.5612 61.0951 84.2205C60.7172 83.6242 60.2133 83.1077 59.4743 83.3261C58.8403 83.515 58.3784 83.9181 57.7569 84.0777C57.1901 84.2751 56.5854 84.3255 55.88 84.1239C55.7204 84.0777 55.5651 84.0189 55.4055 83.9475C56.6232 85.8498 58.9285 86.9794 61.1875 87.076C62.3254 87.1264 63.3793 86.9962 64.3199 86.6687C65.5796 86.1186 66.6881 85.2241 67.4481 84.0693C67.6329 83.746 67.7924 83.3975 67.9352 83.0195C67.8344 83.0867 67.6455 83.2841 67.5825 83.3303Z" fill="#EF4036"/>
<path d="M36.4303 49.5927C35.7249 48.5135 34.7171 47.3461 33.6674 46.5986C33.5456 46.5105 33.4155 46.6533 33.4407 46.775C33.68 48.1104 33.8437 49.4919 34.1923 50.8105C34.1839 50.8357 34.1797 50.8609 34.1755 50.8861C34.1251 51.0792 34.2175 51.285 34.3644 51.4068C34.3644 51.411 34.3644 51.411 34.3686 51.4152C34.4232 51.5831 34.6416 51.6125 34.7465 51.5117C34.7969 51.4991 34.8515 51.4782 34.9019 51.4446C35.5317 50.9868 37.0602 50.5627 36.4303 49.5927ZM35.9264 49.9958C35.8802 50.0042 35.5779 50.1218 35.263 50.2478C35.263 50.2058 35.263 50.1638 35.263 50.1176C35.4687 50.0588 35.6409 49.8279 35.5107 49.5843C35.4184 49.4121 35.326 49.24 35.2378 49.072C35.2588 49.1014 35.2798 49.1308 35.3008 49.1602C35.4184 49.3198 35.8593 49.958 35.9264 49.9958ZM33.9781 47.4637C34.0579 47.5603 34.1335 47.6568 34.2133 47.7534C34.1671 47.7702 34.1251 47.7996 34.0915 47.8332C34.0537 47.7072 34.0159 47.5855 33.9781 47.4637Z" fill="#251C1C"/>
<path d="M48.3428 126.683C47.5156 129.904 46.6044 133.099 45.815 136.328C45.4286 137.907 45.0801 139.495 44.7358 141.086C44.3999 142.636 43.9674 144.206 43.854 145.794C43.8162 146.297 44.5762 146.369 44.7106 145.911C45.1725 144.362 45.3447 142.707 45.6302 141.116C45.9199 139.511 46.2265 137.912 46.5204 136.307C47.1082 133.103 47.6751 129.883 48.4141 126.708C48.4267 126.658 48.3554 126.637 48.3428 126.683Z" fill="#251C1C"/>
<path d="M58.8065 132.448C57.7231 137.793 56.8246 143.324 56.7952 148.787C56.791 149.425 57.7441 149.417 57.7819 148.787C58.0926 143.341 58.3194 137.945 59.1298 132.54C59.1592 132.326 58.8485 132.234 58.8065 132.448Z" fill="#251C1C"/>
<path d="M74.1243 144.621C73.6624 142.131 72.9359 139.704 72.5118 137.201C72.071 134.598 71.8064 131.969 71.6805 129.328C71.6679 129.03 71.2144 129.025 71.2144 129.328C71.2395 131.994 71.4117 134.657 71.7434 137.306C72.0584 139.826 72.3817 142.463 73.2089 144.873C73.4104 145.453 74.2334 145.218 74.1243 144.621Z" fill="#251C1C"/>
<path d="M89.7448 140.871C89.094 139.158 88.4264 137.453 87.7461 135.752C86.8098 133.409 85.7264 131.209 84.5759 128.971C84.5507 128.925 84.5213 128.887 84.4919 128.857C84.2316 127.992 83.9377 127.144 83.4506 126.363C83.1315 125.855 82.4008 126.086 82.3589 126.657C82.2539 128.181 82.7745 129.575 83.2406 131.024C83.7151 132.498 84.2442 133.955 84.8321 135.391C85.7894 137.747 86.9063 140.019 88.103 142.257C88.6321 141.778 89.178 141.304 89.7448 140.871Z" fill="#251C1C"/>
<path d="M69.6276 80.0928C68.9599 80.0928 68.9599 81.1258 69.6276 81.1258C70.2952 81.13 70.2952 80.0928 69.6276 80.0928Z" fill="#251C1C"/>
<path d="M87.834 47.4353C87.7333 46.7634 86.8473 46.692 86.4316 47.0658C85.9235 47.5193 85.4658 47.9686 85.0459 48.4851C84.9157 48.5859 84.8066 48.7245 84.7436 48.8798C84.7058 48.9428 84.689 49.01 84.689 49.0772C84.6596 49.2494 84.6806 49.4299 84.7688 49.6105C84.8989 49.8709 85.0753 50.0808 85.2852 50.2194C85.6044 50.5511 85.9613 50.8409 86.3686 51.0802C86.8431 51.3616 87.5695 51.1138 87.6913 50.5427C87.9054 49.5139 87.9852 48.4767 87.834 47.4353Z" fill="#251C1C"/>
<path d="M108.338 58.4835C108.044 57.5344 107.716 56.598 107.41 55.6532C107.263 55.1787 107.074 54.7168 106.906 54.2506L106.385 52.8523C106.297 52.6213 106.217 52.3862 106.121 52.1552L105.831 51.4665L105.251 50.0892C103.668 46.4401 101.8 42.9001 99.6205 39.5492C97.4371 36.2024 94.9555 33.032 92.1422 30.1639C89.3331 27.2916 86.2216 24.6881 82.7953 22.5465C79.3773 20.3965 75.6696 18.679 71.7814 17.5074C67.8973 16.3274 63.8369 15.7144 59.7723 15.6934C55.7077 15.6976 51.6431 16.3022 47.7507 17.4654C43.8582 18.6286 40.1379 20.3377 36.7074 22.4793C36.4848 22.6011 36.2833 22.7523 36.0691 22.8908L35.4393 23.3149L34.1838 24.1632L32.9745 25.0744L32.3698 25.5321C32.1683 25.6833 31.9625 25.8303 31.7736 25.9983L30.6146 26.9725C30.2325 27.3 29.8336 27.6108 29.4725 27.9635L28.3682 28.9965L27.8139 29.513C27.6292 29.6852 27.4612 29.8741 27.2849 30.0505C24.4422 32.906 21.9102 36.0512 19.6763 39.3854C15.2128 46.0621 11.9502 53.4864 9.84235 61.1919L9.11593 64.0978L9.02775 64.4632L8.95217 64.8285L8.80101 65.5634L8.49447 67.0289C8.44408 67.2724 8.3937 67.516 8.34331 67.7637L8.22155 68.5028L7.978 69.9809C7.79745 70.9636 7.69248 71.9546 7.56651 72.9414C7.08363 76.8971 6.86948 80.8821 6.90307 84.863C6.96185 88.8439 7.28097 92.8121 7.84363 96.7468C7.9906 97.7294 8.12077 98.7162 8.31812 99.6905L8.59106 101.156L8.72961 101.887L8.89338 102.613L9.22091 104.066L9.38465 104.792L9.46443 105.158L9.56102 105.519L10.3294 108.395C12.5381 116.021 15.8175 123.353 20.239 129.958C22.4477 133.263 24.9418 136.379 27.7384 139.218C27.9105 139.394 28.0785 139.583 28.259 139.755L28.8007 140.268L29.884 141.296C30.2367 141.649 30.6273 141.96 31.0052 142.287L32.1431 143.262C32.3278 143.43 32.5294 143.577 32.7267 143.728L33.323 144.185L34.5113 145.101L35.7458 145.953L36.363 146.377C36.5688 146.516 36.7704 146.667 36.9887 146.793C40.3647 148.943 44.0178 150.682 47.864 151.883C51.7061 153.079 55.7329 153.734 59.7723 153.776C63.8117 153.793 67.8637 153.226 71.7394 152.076C75.6192 150.934 79.3227 149.233 82.7449 147.1C86.1712 144.971 89.2911 142.384 92.1044 139.524C94.9177 136.66 97.4035 133.498 99.5911 130.156C101.775 126.809 103.643 123.273 105.226 119.624L105.806 118.251L106.095 117.562C106.192 117.331 106.272 117.096 106.36 116.865L106.881 115.467C107.049 115.001 107.237 114.539 107.384 114.064C107.691 113.12 108.014 112.183 108.312 111.234L109.135 108.374C111.159 100.698 112.129 92.7827 112.163 84.8672C112.142 76.9516 111.176 69.0319 109.152 61.3557L108.338 58.4835ZM108.602 108.215L107.704 111.028C107.38 111.961 107.036 112.88 106.7 113.804C106.54 114.27 106.335 114.719 106.15 115.173L105.583 116.534C105.487 116.76 105.398 116.991 105.298 117.214L104.987 117.881L104.365 119.217C102.673 122.761 100.7 126.167 98.449 129.366C96.2068 132.57 93.6748 135.564 90.8867 138.281C90.7145 138.449 90.5466 138.63 90.366 138.794L89.8243 139.285L88.7452 140.263C88.3925 140.599 88.0062 140.893 87.6325 141.204L86.503 142.128C86.3182 142.287 86.1208 142.426 85.9235 142.569L85.3398 143.001L84.1683 143.866L82.9548 144.664L82.346 145.063C82.1444 145.193 81.9471 145.336 81.7329 145.454C78.4283 147.473 74.8844 149.09 71.1851 150.199C67.4858 151.303 63.6395 151.92 59.7723 151.954L58.3237 151.916L57.5972 151.899C57.3537 151.895 57.1144 151.895 56.875 151.866L55.4306 151.74L54.7083 151.677C54.4648 151.664 54.2297 151.61 53.9903 151.576L52.5543 151.358C52.3149 151.316 52.0756 151.295 51.8363 151.24L51.1266 151.085L49.7074 150.774C49.468 150.728 49.2371 150.656 49.002 150.593L48.3007 150.396C44.5636 149.346 40.9735 147.763 37.6185 145.764C37.4044 145.651 37.2028 145.508 36.9971 145.378L36.3798 144.979L35.1496 144.185L33.9612 143.325L33.3692 142.892C33.1718 142.749 32.9703 142.607 32.7855 142.451L31.6476 141.523C31.2697 141.212 30.8792 140.914 30.5223 140.578L29.4306 139.596L28.8847 139.104C28.7041 138.941 28.5362 138.76 28.3598 138.588C25.5549 135.846 23.0355 132.81 20.8101 129.568C18.593 126.322 16.6657 122.87 15.0449 119.288C13.4241 115.702 12.072 111.994 11.0265 108.198L10.3 105.338L10.2119 104.981L10.1363 104.62L9.98512 103.898L9.67858 102.454C9.62819 102.214 9.57361 101.971 9.52742 101.731L9.40566 101.005L9.16212 99.5519C8.98156 98.5861 8.87239 97.6076 8.74642 96.6334C8.25514 92.7323 8.04938 88.7976 8.07877 84.8714C8.14176 80.9451 8.45248 77.023 9.02354 73.1471C9.17051 72.1771 9.30068 71.2071 9.50223 70.2497L9.77518 68.8051L9.91372 68.0829L10.0775 67.369L10.405 65.9371L10.5688 65.2232L10.6485 64.8663L10.7451 64.5135L11.5135 61.6833C13.718 54.1835 16.9722 46.9818 21.3685 40.5528C23.5646 37.3404 26.0504 34.3295 28.8091 31.6084C28.9812 31.4362 29.145 31.2599 29.3214 31.0961L29.8588 30.6048L30.9296 29.6222C31.2781 29.2863 31.6644 28.9923 32.0339 28.6816L33.1508 27.7577C33.3356 27.5982 33.5329 27.4596 33.7261 27.3168L34.3098 26.8843L35.4729 26.0192L36.6822 25.2214L37.2868 24.8225C37.4884 24.6923 37.6857 24.5495 37.8957 24.4361C41.1877 22.4247 44.719 20.8164 48.4057 19.7288C52.0882 18.6328 55.9219 18.0617 59.7639 18.0449C63.606 18.0407 67.4438 18.6118 71.1347 19.6868C74.8298 20.766 78.3696 22.3659 81.6783 24.369C81.8925 24.4823 82.0898 24.6251 82.2914 24.7553L82.9002 25.15L84.1137 25.9437L85.2852 26.8003L85.8731 27.2286C86.0663 27.3714 86.2678 27.51 86.4526 27.6696L87.5821 28.585C87.9558 28.8957 88.3463 29.1855 88.699 29.5214L89.7824 30.4956L90.324 30.9827C90.5046 31.1465 90.6725 31.3229 90.8447 31.495C93.6328 34.2077 96.169 37.1934 98.4154 40.3932C100.666 43.5888 102.644 46.9902 104.336 50.5343L104.957 51.8697L105.268 52.5373C105.373 52.7599 105.457 52.9909 105.554 53.2176L106.121 54.5782C106.305 55.0317 106.507 55.481 106.671 55.9471C107.007 56.8709 107.355 57.7906 107.674 58.7228L108.573 61.5363C110.819 69.0907 111.903 76.9894 111.936 84.8882C111.928 92.7533 110.849 100.656 108.602 108.215Z" fill="#251C1C"/>
<path d="M118.642 78.1652C118.508 75.9355 118.302 73.7141 118.016 71.4969C117.449 67.0667 116.597 62.6701 115.455 58.3449C114.88 56.1823 114.22 54.0407 113.49 51.9243C112.763 49.8079 111.953 47.7125 111.063 45.6548C109.278 41.5354 107.175 37.5462 104.718 33.7668C102.258 29.9917 99.4568 26.4182 96.2824 23.1848C94.6994 21.5681 93.0282 20.027 91.273 18.5867C89.5137 17.1505 87.6703 15.811 85.7388 14.5974C81.8841 12.1702 77.7104 10.2218 73.3266 8.89905C68.9471 7.57209 64.366 6.89182 59.7808 6.87502C55.1955 6.87082 50.6102 7.5469 46.2181 8.84866C41.826 10.1588 37.6396 12.0989 33.7723 14.5176C29.8967 16.9322 26.3528 19.8338 23.1405 23.0462C19.9325 26.267 17.073 29.8112 14.5578 33.5737C9.52328 41.1029 5.8492 49.4804 3.47678 58.1685C1.10436 66.8651 0.058808 75.8851 0.159583 84.8546C0.218369 89.3436 0.566879 93.8199 1.20512 98.2585C1.52844 100.476 1.92736 102.68 2.39764 104.872C2.86373 107.064 3.40539 109.239 4.02264 111.389C6.50423 119.99 10.1993 128.258 15.1877 135.711C17.6777 139.436 20.4952 142.951 23.6486 146.151C26.7937 149.355 30.283 152.248 34.0873 154.679C37.8915 157.106 42.0107 159.08 46.3441 160.436C50.6774 161.78 55.2207 162.507 59.7766 162.553C64.3324 162.591 68.9009 161.94 73.2763 160.655C77.6516 159.366 81.8254 157.434 85.6842 155.028C89.5431 152.622 93.0702 149.716 96.2446 146.491C99.4191 143.262 102.224 139.696 104.689 135.93C107.149 132.155 109.257 128.165 111.042 124.05C111.932 121.993 112.742 119.901 113.473 117.781C114.208 115.664 114.867 113.523 115.438 111.36C116.58 107.035 117.437 102.638 118.004 98.2123C118.289 95.9993 118.499 93.7738 118.634 91.5482C118.776 89.3226 118.848 87.0886 118.852 84.8588C118.852 82.6248 118.78 80.395 118.642 78.1652ZM117.672 98.1703C117.042 102.575 116.102 106.938 114.829 111.192C114.195 113.321 113.481 115.425 112.688 117.499C111.89 119.57 111.017 121.61 110.063 123.609C108.157 127.607 105.932 131.449 103.395 135.056C100.868 138.672 98.0082 142.044 94.8632 145.105C93.2885 146.634 91.6426 148.087 89.9168 149.434C88.1994 150.791 86.4022 152.046 84.5379 153.184C80.8134 155.469 76.8202 157.304 72.6506 158.555C68.4768 159.802 64.1351 160.466 59.7766 160.512C57.5973 160.525 55.4138 160.399 53.2514 160.105C51.0889 159.815 48.9432 159.361 46.8353 158.774C42.6196 157.589 38.5718 155.792 34.7969 153.533C31.0136 151.278 27.5285 148.519 24.354 145.441C21.188 142.35 18.3453 138.928 15.8385 135.27C13.336 131.609 11.1693 127.716 9.34273 123.672C7.52038 119.628 5.99614 115.442 4.82043 111.163C2.45221 102.605 1.39828 93.7108 1.49906 84.8546C1.56624 80.4244 1.90216 76.0068 2.5488 71.6313C2.87212 69.4435 3.27101 67.2725 3.74129 65.1141C4.20738 62.9557 4.74907 60.8183 5.36632 58.6977C7.84791 50.2404 11.5136 42.1149 16.4726 34.8671C18.95 31.2473 21.7507 27.8501 24.8663 24.7805C27.9778 21.7109 31.4041 18.9604 35.116 16.6886C38.8279 14.4168 42.8043 12.5902 46.9655 11.364C51.1225 10.1378 55.4474 9.49533 59.7766 9.48273C64.1099 9.47434 68.4348 10.1042 72.6044 11.3136C76.7698 12.5314 80.763 14.3454 84.4875 16.6088C86.3519 17.7384 88.149 18.9856 89.8706 20.3335C91.5964 21.6773 93.2508 23.1176 94.8254 24.6419C97.9704 27.699 100.834 31.0626 103.366 34.6739C105.906 38.281 108.136 42.1149 110.038 46.1126C110.991 48.1114 111.869 50.148 112.667 52.2182C113.46 54.2884 114.174 56.3923 114.808 58.5213C116.081 62.7793 117.021 67.1381 117.655 71.5431C118.285 75.948 118.583 80.3992 118.6 84.8546C118.596 89.31 118.302 93.7654 117.672 98.1703Z" fill="#251C1C"/>
<path d="M73.7928 8.65133C71.1726 7.03043 68.5483 5.42633 65.8903 3.86421C64.5635 3.08316 63.2408 2.2979 61.9181 1.51264C60.8222 0.861763 59.6171 -0.0326747 58.2818 0.000919115C57.1775 0.0261145 56.1655 1.03393 55.3341 1.66801C54.276 2.47846 53.2431 3.31411 52.2353 4.18755C50.056 6.0772 47.9356 8.09283 46.1216 10.3394C46.0418 10.4402 46.1678 10.5746 46.2644 10.4822C48.1455 8.68072 50.0014 6.86665 52.0085 5.20796C53.0331 4.36391 54.087 3.54927 55.162 2.77241C56.2033 2.02075 57.3706 0.878553 58.7563 1.26908C59.974 1.61342 61.1329 2.66323 62.1743 3.3561C63.35 4.14135 64.5257 4.92661 65.6972 5.71606C68.0444 7.29497 70.4168 8.8235 72.7976 10.3478C73.8642 11.0365 74.8677 9.31901 73.7928 8.65133Z" fill="#251C1C"/>
<path d="M58.7477 2.64167C58.4328 2.32673 57.9709 2.20915 57.5426 2.32253C57.53 2.32673 57.5174 2.32672 57.5048 2.33092C57.4082 2.37291 57.3074 2.41491 57.2109 2.4569C57.0681 2.53249 56.9505 2.64167 56.8665 2.77184C56.707 2.97761 56.5894 3.24635 56.602 3.5151C56.6104 3.73346 56.6692 3.94342 56.77 4.13658C56.9085 4.40113 57.2193 4.62789 57.5048 4.70348C57.5174 4.70768 57.53 4.70767 57.5426 4.71187C57.9583 4.82105 58.4496 4.71607 58.7477 4.39273C58.9702 4.14918 59.1088 3.85103 59.1088 3.5151C59.1088 3.20436 58.9702 2.86843 58.7477 2.64167Z" fill="#251C1C"/>
<path d="M22.3975 76.4734C18.6268 80.2695 14.8939 84.1076 11.182 87.9541C11.0519 88.0885 11.2534 88.2859 11.3878 88.1599C15.2341 84.4478 19.0719 80.7147 22.8678 76.9437C23.1659 76.6414 22.6957 76.1711 22.3975 76.4734Z" fill="#251C1C"/>
<path d="M20.067 104.948C18.6604 106.321 17.2831 107.719 15.8933 109.109C15.57 109.433 16.0738 109.936 16.3972 109.613C17.787 108.223 19.1853 106.842 20.5583 105.439C20.8732 105.12 20.3903 104.637 20.067 104.948Z" fill="#251C1C"/>
<path d="M106.112 75.8896C102.816 79.2364 99.5325 82.5873 96.3455 86.0391C96.1439 86.2575 96.4505 86.564 96.6688 86.3624C100.12 83.1752 103.471 79.8915 106.818 76.5951C107.28 76.1458 106.566 75.4319 106.112 75.8896Z" fill="#251C1C"/>
<path d="M103.618 109.063C99.2385 113.333 94.9682 117.701 90.7104 122.093C90.4081 122.408 90.8741 122.878 91.1891 122.572C95.5812 118.314 99.9481 114.043 104.218 109.663C104.601 109.273 104.009 108.681 103.618 109.063Z" fill="#251C1C"/>
<path d="M44.8285 27.3416L41.5995 30.596C41.2552 30.9446 41.7884 31.4821 42.1411 31.1377L45.3953 27.9043C45.7564 27.5432 45.1896 26.9763 44.8285 27.3416Z" fill="#251C1C"/>
<path d="M76.1315 25.7581C74.1916 27.5974 72.3819 29.5794 70.5301 31.5068C70.19 31.8596 70.7275 32.4013 71.0718 32.0485C72.9235 30.1211 74.8257 28.2272 76.5892 26.2158C76.858 25.9051 76.4339 25.4683 76.1315 25.7581Z" fill="#251C1C"/>
</svg>
