<svg width="120" height="164" viewBox="0 0 120 164" fill="none" xmlns="http://www.w3.org/2000/svg">
<path d="M92.5175 138.599C93.6972 137.179 94.9022 135.776 96.1998 134.465C96.2546 132.043 96.263 129.62 96.2293 127.197C96.2209 126.645 95.8248 126.245 95.3614 126.114C95.4541 125.908 95.5426 125.701 95.6184 125.487C95.7322 125.162 95.3783 124.833 95.0623 124.93C92.2815 125.811 91.026 129.451 90.7816 132.072C90.5625 134.415 91.1861 136.728 92.3826 138.713C92.429 138.675 92.4753 138.637 92.5175 138.599Z" fill="#47AD4B"/>
<path d="M24.5451 129.827C24.739 129.953 24.9328 130.08 25.1224 130.198C24.6589 130.29 24.2502 130.707 24.2713 131.2C24.3387 132.566 24.4188 133.948 24.5241 135.33C25.3372 136.185 26.0956 137.087 26.8666 137.98C26.9635 138.089 27.0099 138.207 27.0309 138.325C27.6966 138.89 28.3834 139.434 29.0659 139.973C29.3566 140.2 29.6473 140.432 29.9381 140.66C31.143 138.439 31.6992 135.755 30.8944 133.303C30.0223 130.644 27.7093 129.119 25.055 128.626C24.3261 128.495 23.9047 129.401 24.5451 129.827ZM26.9593 137.327C26.8919 136.64 26.8287 135.953 26.7571 135.271C26.9045 135.932 26.9635 136.627 26.9593 137.327Z" fill="#47AD4B"/>
<path d="M62.0627 40.7032C60.2595 40.56 58.2582 41.015 56.4592 41.2046C54.6222 41.3984 52.4945 41.4195 50.7545 42.0852C49.9877 42.3802 49.4062 42.9911 49.4062 43.8549C49.4062 44.6049 49.9708 45.4897 50.7545 45.6245C52.6799 45.9574 54.7191 45.6372 56.653 45.4644C58.5911 45.2917 60.7482 45.338 62.6189 44.8113C64.9825 44.1498 64.3547 40.8844 62.0627 40.7032Z" fill="#E5332A"/>
<path d="M52.5841 125.781C52.4788 125.503 52.4408 125.216 52.4703 124.921C52.4703 124.264 51.9142 123.994 51.4255 124.091C51.2696 124.015 51.0968 123.982 50.9325 123.99C50.7218 123.847 50.4691 123.78 50.2373 123.83C49.9171 123.506 49.3778 123.565 49.0113 123.864C48.6784 123.573 48.1097 123.628 47.76 123.935C47.5451 123.86 47.3049 123.855 47.0985 123.931C46.753 123.506 46.0241 123.501 45.6829 123.923C45.4343 123.775 45.1141 123.754 44.8529 123.855C44.5158 123.695 44.0523 123.771 43.7827 124.074C43.6605 124.053 43.5341 124.062 43.4077 124.096C43.058 123.965 42.6072 124.032 42.3755 124.39C41.9963 124.976 41.9837 125.65 42.2196 126.299C42.405 126.813 42.9653 127.074 43.433 126.834C43.6184 126.969 43.8543 127.037 44.1745 126.986C44.2082 126.982 44.2377 126.969 44.2714 126.965C44.5453 127.289 44.9582 127.323 45.2868 127.15C45.3037 127.171 45.3163 127.192 45.3332 127.213C45.6196 127.572 46.2811 127.542 46.6013 127.213C46.951 127.407 47.4018 127.374 47.6799 127.091C47.8695 127.146 48.0844 127.133 48.274 127.066C48.67 127.466 49.3315 127.534 49.6938 126.994C50.0899 127.091 50.5323 126.973 50.7134 126.573C50.7261 126.539 50.7429 126.51 50.7556 126.476C50.7682 126.476 50.7766 126.472 50.7893 126.472C50.8019 126.48 50.8103 126.489 50.823 126.497C51.1937 127.39 52.8917 126.902 52.5841 125.781Z" fill="#E5332A"/>
<path d="M37.3564 124.812C37.3648 124.77 37.3016 124.748 37.289 124.795C36.8592 126.505 36.4 128.208 35.9492 129.91C35.7849 129.661 35.6037 129.417 35.4563 129.143C35.0307 128.351 34.7822 127.47 34.7021 126.577C34.6684 126.211 34.1881 126.223 34.1417 126.577C34.0153 127.55 34.0743 128.511 34.3861 129.446C34.6178 130.142 34.9128 130.959 35.5869 131.292C35.1445 132.986 34.7147 134.684 34.3398 136.394C33.8342 138.691 33.3286 141.16 33.2148 143.604C33.653 144.063 34.087 144.522 34.5336 144.973C34.4914 143.92 34.4619 142.862 34.5462 141.792C34.6979 139.875 35.0602 137.987 35.4352 136.104C35.7596 134.473 36.0419 132.83 36.3115 131.187C36.3579 131.119 36.3832 131.043 36.3747 130.955C36.3705 130.93 36.3663 130.904 36.3621 130.879C36.6907 128.857 37.0025 126.83 37.3564 124.812Z" fill="#1D1D1B"/>
<path d="M84.9167 142.109C84.9926 143.217 84.9546 144.354 84.9546 145.484C85.3507 145.176 85.7678 144.89 86.206 144.637C86.1596 143.714 86.0669 142.795 85.9953 141.927C85.8184 139.745 85.5066 137.567 85.0684 135.422C84.5586 132.932 83.8971 130.315 82.966 127.833C83.0545 127.821 83.1388 127.783 83.2062 127.703C83.7918 127.003 84.1204 126.127 84.428 125.276C84.7356 124.421 85.1611 123.397 85.0895 122.478C85.0726 122.276 84.8072 122.179 84.6934 122.373C84.2258 123.152 84.0488 124.126 83.6528 124.951C83.3326 125.617 82.9197 126.237 82.5995 126.898C82.0307 125.508 81.3734 124.172 80.5982 122.942C80.4886 122.769 80.1853 122.878 80.2569 123.085C80.931 125.112 81.7905 127.071 82.4351 129.11C83.1008 131.208 83.6359 133.357 84.0572 135.519C84.4828 137.697 84.7693 139.897 84.9167 142.109Z" fill="#1D1D1B"/>
<path d="M94.2728 107.992C94.5383 109.037 94.7363 110.095 94.8837 111.161C94.3023 111.43 93.8684 112.062 93.447 112.522C92.8993 113.12 92.3474 113.718 91.7997 114.312C91.4668 114.675 91.9808 115.193 92.3432 114.856C92.933 114.3 93.5271 113.743 94.117 113.192C94.3992 112.926 94.7447 112.656 95.0354 112.353C95.1281 113.234 95.1913 114.118 95.2377 115.003C95.1281 114.915 94.9764 114.881 94.8037 114.936C94.6857 114.974 94.572 115.02 94.4582 115.071C94.5088 114.839 94.5509 114.607 94.5677 114.371C94.593 114.017 94.1591 113.925 93.9358 114.11C93.683 114.316 93.4133 114.43 93.1268 114.574C92.9457 114.666 93.0552 114.906 93.2195 114.923C93.3501 114.936 93.4765 114.936 93.5987 114.919C93.4597 115.302 93.3122 115.677 93.0889 116.044C92.8614 116.415 93.2448 116.988 93.6872 116.824C93.7799 116.79 93.8768 116.748 93.9695 116.71C93.8557 117.03 93.7462 117.35 93.6577 117.679C93.5271 118.172 94.2897 118.538 94.513 118.041C94.8079 117.375 95.0059 116.676 95.2798 116.002C95.3303 117.472 95.343 118.947 95.3472 120.413C95.3598 125.048 95.2124 129.683 94.9217 134.309C94.888 134.857 94.85 135.405 94.8121 135.953C95.343 135.367 95.8865 134.794 96.4468 134.238C96.7713 129.569 96.9272 124.896 96.9061 120.215C96.8682 112.298 96.5438 102.729 89.4782 97.6228C86.5121 95.4781 82.577 94.4163 79.1179 95.8236C79.1348 95.7267 79.1348 95.6298 79.1095 95.5371C78.7472 94.2183 78.4059 92.8953 78.0351 91.5765C83.2721 88.9767 87.7381 84.7211 88.408 78.6285C88.8968 74.1664 87.6918 69.3294 86.3267 65.1075C85.6863 63.1272 84.7215 61.5555 83.2427 60.1061C81.9492 58.8379 82.5433 57.0977 82.3452 55.4839C82.459 54.8477 82.5095 54.2031 82.5095 53.5584C82.6528 53.4615 82.7623 53.3014 82.8003 53.0654C83.2089 50.5921 83.2426 48.161 83.1963 45.6624C83.1879 45.1525 82.6275 44.5753 82.0756 44.8113C80.6052 45.4306 79.1769 46.1511 77.736 46.8337C76.9945 47.1834 76.2529 47.5416 75.5114 47.9039C74.8204 48.241 73.9483 48.873 73.1689 48.8815C72.4948 48.8899 71.7743 48.5402 71.1297 48.359C70.3755 48.1441 69.6171 47.9545 68.8545 47.7817C67.4305 47.4615 65.998 47.2382 64.5529 47.0402C62.1261 46.7115 59.6782 46.5851 57.2345 46.6567C56.8764 46.5851 56.5098 46.6104 56.1433 46.7031C53.1856 46.8632 50.2406 47.314 47.3714 48.064C44.3084 48.8646 41.3212 49.998 38.5152 51.4685C36.7583 50.4404 34.993 49.4292 33.1139 48.6329C32.0311 48.1736 29.3304 46.7242 28.4414 48.1399C28.0496 48.7635 28.3108 49.5682 28.4625 50.2255C28.7237 51.3463 28.9976 52.4671 29.2841 53.5837C29.8318 55.7368 30.4638 57.8519 31.1463 59.9629C31.121 60.0345 31.1168 60.1103 31.1253 60.1777C31.1547 60.3758 31.1758 60.5738 31.2011 60.7718C31.2222 60.9319 31.3064 61.0373 31.4075 61.0878C31.4075 61.0878 31.4075 61.0879 31.4075 61.0921C31.3949 61.1047 31.3823 61.1216 31.3738 61.1384C28.2097 68.1791 28.5847 76.8841 32.5325 83.5287C34.2641 86.4445 36.6277 88.9767 39.4379 90.877C40.0994 91.3236 40.7819 91.7197 41.4813 92.0779C41.199 93.1396 40.9462 94.2014 40.7145 95.2717C40.5207 96.1733 40.1542 97.1804 40.0952 98.1242C39.9351 98.1157 39.7792 98.12 39.6191 98.1326C39.4379 97.9598 39.1851 97.8671 38.8986 97.9556C37.3482 98.4317 35.9283 99.1312 34.6391 100.003C33.3498 100.69 32.1659 101.592 31.1379 102.599C28.492 105.19 26.7941 108.633 25.5891 112.092C23.9038 116.925 23.314 122.006 23.3435 127.1C23.2255 129.038 23.1834 130.968 23.2044 132.868C23.2086 133.269 23.2213 133.673 23.2297 134.073C23.8448 134.617 24.4178 135.207 24.9698 135.809C24.8434 131.819 25.0119 127.816 25.4838 123.856C26.2548 117.375 27.4513 110.406 31.5719 105.119C32.8232 103.509 34.3315 102.097 36.0505 101.023C36.08 101.015 36.1095 101.01 36.1432 100.998C37.2934 100.543 38.3973 99.9486 39.5096 99.4135C39.6654 99.3376 39.7665 99.2323 39.8297 99.1059C39.834 99.1017 39.8424 99.1017 39.8466 99.0975C39.973 99.0596 40.0994 99.0258 40.2258 98.9879C40.407 99.3208 40.7356 99.5315 41.1443 99.7126C42.2692 100.214 43.4026 100.703 44.5359 101.183C48.9556 103.062 53.3752 104.937 57.7949 106.817C58.2415 107.006 58.9577 106.804 58.8945 106.185C58.6754 104.048 58.7386 101.912 59.0883 99.818C59.0715 100.26 59.063 100.707 59.0462 101.149C58.9956 102.59 58.983 104.031 58.9704 105.472C58.9409 108.422 58.9072 111.367 58.9072 114.316C58.9072 120.139 58.7766 126 59.2063 131.811C59.2232 132.021 59.4127 132.102 59.5602 132.051C59.5181 134.444 59.6192 136.842 59.4759 139.231C59.3917 140.663 59.2526 142.062 59.2358 143.499C59.2231 144.514 59.2231 145.534 59.2231 146.549H60.4239C60.4239 145.597 60.4239 144.645 60.4113 143.693C60.3944 142.189 60.268 140.726 60.1711 139.231C59.9815 136.26 60.1964 133.277 60.0279 130.302C60.0194 130.18 59.9352 130.117 59.8425 130.109C60.1374 124.859 60.0321 119.571 60.0321 114.316C60.0321 111.434 59.9984 108.552 59.9731 105.666C59.9605 104.225 59.952 102.784 59.9015 101.343C59.8678 100.412 59.8678 99.4809 59.7709 98.5582C60.3439 101.015 60.9042 103.475 61.4688 105.936C61.5657 106.357 62.1724 106.656 62.5432 106.374C67.4768 102.662 72.7813 99.4051 78.2458 96.5399C78.2837 96.7759 78.4986 96.9907 78.7724 96.9023C82.1051 95.8658 85.5515 96.6832 88.3659 98.6677C91.5174 100.892 93.3417 104.314 94.2728 107.992ZM85.7916 68.4108C85.6484 68.335 85.4883 68.2929 85.3156 68.2676C85.4546 68.2212 85.5894 68.1749 85.7242 68.1243C85.7495 68.2212 85.7706 68.3181 85.7916 68.4108ZM57.3272 105.06C53.7628 103.606 50.1985 102.152 46.6341 100.699C45.6735 100.307 44.7129 99.9107 43.748 99.5273C43.0781 99.2618 41.2454 98.8742 41.1358 98.12C41.0726 97.6902 41.2538 97.1129 41.3086 96.679C41.3676 96.1818 41.4308 95.6846 41.4898 95.1874C41.6119 94.2014 41.7046 93.2197 41.7805 92.2295C44.3969 93.5062 47.2281 94.193 50.1605 94.5554C53.0045 94.9051 55.9242 95.1537 58.8482 95.2085C57.6348 98.3559 57.1039 101.701 57.3272 105.06ZM54.2221 93.5315C50.3417 93.2745 46.3223 92.9416 42.7621 91.2478C40.9505 90.3883 39.2862 89.2548 37.8032 87.915C39.1261 87.4599 39.6823 85.686 39.3115 84.422C38.945 83.1875 37.8664 82.1509 36.5477 82.0667C36.0337 82.033 35.5828 82.1804 35.111 82.3616C34.7233 82.5091 34.1461 82.8883 33.8891 82.981C33.8512 82.9936 33.8133 83.0105 33.7796 83.0273C33.4931 82.5512 33.2277 82.0625 32.9749 81.5653C33.2951 81.5442 33.6237 81.4473 33.9523 81.3209C35.2795 80.8026 36.6656 79.9304 37.4451 78.7085C38.2709 77.4108 37.3903 76.2647 35.9957 76.1173C34.7276 75.9824 33.3288 76.3827 32.1828 77.0189C31.8499 77.0695 31.5761 77.2128 31.3612 77.4108C31.1885 76.7998 31.0368 76.1847 30.9062 75.5611C33.531 75.3504 39.6317 74.7647 38.1403 70.8547C36.9901 67.8462 33.076 67.4291 30.4427 68.6552C30.607 66.1819 31.0915 63.7339 31.7699 61.3069C31.7867 61.2437 31.7699 61.1848 31.7404 61.1384C31.7488 61.1216 31.7614 61.1047 31.7699 61.0878C31.8963 61.0246 31.9848 60.8898 31.9468 60.696C31.9848 60.578 32.0058 60.46 32.01 60.3294C32.0185 60.0598 31.8836 59.8659 31.6772 59.7859C31.1716 57.5696 30.6744 55.3491 30.1689 53.1328C29.9119 52.0121 29.6422 50.8871 29.4273 49.7536C29.3683 49.4418 29.1788 49.0795 29.4147 48.8098C29.6675 48.5233 29.9708 48.7256 30.3079 48.8225C30.8809 48.9826 31.4413 49.1932 31.9932 49.4166C33.0507 49.8463 34.0703 50.373 35.0688 50.9292C35.5913 51.2241 36.1095 51.5275 36.6235 51.8351C37.108 52.1258 37.6262 52.5893 38.1571 52.7747C38.8649 53.0233 39.7034 52.3323 40.3269 52.0373C41.3886 51.5359 42.4672 51.0809 43.5669 50.6722C45.8378 49.8295 48.193 49.1806 50.5819 48.734C50.3459 49.8168 50.8136 51.2873 51.4498 52.0036C52.5242 53.2129 54.2473 52.9264 54.892 51.4475C55.0942 50.9798 55.2374 50.3646 55.2585 49.741C55.2627 49.7705 55.267 49.7958 55.2712 49.8253C55.486 51.1314 57.0828 51.498 57.9971 50.63C58.1825 50.4531 58.3426 50.2424 58.4732 50.0107C58.6375 50.2719 58.865 50.491 59.1473 50.6637C60.3944 51.418 61.8353 50.5163 62.3367 49.3112C62.48 48.9615 62.5432 48.5781 62.4884 48.2157C64.6624 48.4348 66.8153 48.8267 68.9177 49.4039C70.1059 49.7326 71.2645 50.2424 72.4611 50.5247C73.4849 50.7649 74.2854 50.4236 75.2039 50.0022C77.3062 49.0374 79.4423 48.0978 81.5152 47.057C81.5869 48.9109 81.4268 50.7902 81.1697 52.6104C81.1403 52.821 81.1824 53.0106 81.2709 53.1665C81.1192 54.1146 80.9886 55.0795 81.0096 56.0275C81.0139 56.196 81.0981 56.314 81.2077 56.3772C81.2077 56.4573 81.2035 56.5373 81.2035 56.6216C81.2035 56.6974 81.2203 56.7648 81.2498 56.8196C81.1866 57.7297 81.1023 58.6398 81.4141 59.5078C81.6585 60.1777 82.1093 60.6581 82.6149 61.1468C83.2932 61.8041 83.8325 62.5415 84.2538 63.3884C84.8352 64.564 85.1934 65.8491 85.5009 67.1342C83.1963 67.1763 78.1278 68.3224 78.9199 71.3139C79.3201 72.8139 81.1023 73.6355 82.4548 74.0274C83.6387 74.3729 85.7327 74.7942 86.8913 74.0021C86.9081 74.1454 86.9292 74.2844 86.9418 74.4277C87.0008 74.9965 87.0388 75.5611 87.0514 76.1215C86.154 75.8645 85.1217 75.9656 84.2075 76.0077C83.4112 76.0456 82.5433 76.0751 81.8144 76.4417C80.5378 77.0779 79.6109 79.3574 80.5251 80.5751C81.4605 81.8181 84.06 83.415 85.6484 82.745C85.6863 82.7282 85.7158 82.7113 85.7495 82.6945C85.3282 83.5667 84.7973 84.4009 84.14 85.1846C84.1316 85.1973 84.1232 85.2057 84.1148 85.2141C84.0769 85.1931 84.0347 85.1762 83.9926 85.1636C83.7862 85.0667 83.5586 84.9908 83.3185 84.9487C83.2384 84.9192 83.1584 84.8939 83.0783 84.8644C83.1415 84.6959 83.0868 84.4852 82.914 84.3841C82.2273 83.9922 81.0981 84.2113 80.5083 84.7212C79.8426 85.2984 79.9184 86.3686 80.1839 87.1228C80.2976 87.4515 80.5462 87.6158 80.8032 87.6495C80.9085 87.7801 81.0434 87.877 81.1992 87.9529C79.4634 89.2717 77.5085 90.3208 75.5114 91.1256C68.7998 93.8307 61.3466 94.0076 54.2221 93.5315ZM33.9523 73.5049C33.9987 73.4375 34.0492 73.3659 34.0956 73.2942C34.1672 73.3237 34.2388 73.3532 34.3105 73.3785C34.1925 73.4249 34.0703 73.467 33.9523 73.5049ZM62.6148 104.491C61.8648 101.402 61.1107 98.318 60.4029 95.2169C64.8436 95.1916 69.2716 94.686 73.468 93.3882C74.5634 93.0512 75.6631 92.6467 76.7417 92.1748C77.0661 93.2408 77.4074 94.3026 77.7444 95.3644C72.3557 97.8503 67.3462 100.926 62.6148 104.491Z" fill="#1D1D1B"/>
<path d="M60.4746 73.4205C60.66 72.6537 60.917 71.3939 60.0702 70.9177C59.2402 70.4542 58.3849 71.3054 57.9467 71.9416C57.7697 72.1944 57.6307 72.4641 57.5254 72.7422C57.2347 72.3967 56.8934 72.1017 56.4974 71.8995C55.937 71.6087 54.968 71.4402 54.6941 72.1986C54.4118 72.9781 55.2418 74.3601 55.6421 74.9921C56.2066 75.8812 56.9271 76.9598 57.774 77.6593C57.774 77.7225 57.774 77.7815 57.7782 77.8447C57.7908 77.9921 57.9425 78.0469 58.0562 77.9584C58.0773 77.9416 58.0942 77.9247 58.111 77.9079C58.1237 77.9163 58.1405 77.9289 58.1532 77.9374C58.2332 77.9879 58.3006 77.891 58.2711 77.8194C58.2627 77.8025 58.2543 77.7899 58.2501 77.773C58.4607 77.5455 58.6208 77.2674 58.7219 76.9683C59.4171 75.8475 60.1586 74.7183 60.4746 73.4205Z" fill="#1D1D1B"/>
<path d="M52.6921 69.1441C52.6542 67.3871 52.4141 65.6301 52.195 63.8899C52.0138 62.4573 51.7104 60.9531 50.6403 59.8956C48.3947 57.6877 45.6097 59.8492 44.5691 62.1076C43.2166 65.0402 43.3725 68.4784 44.5101 71.4404C44.5017 71.4447 44.489 71.4447 44.4806 71.4489C44.173 71.5247 44.2615 71.9924 44.5733 71.9334C44.6533 71.9166 44.7334 71.9039 44.8092 71.8913C45.0199 72.005 45.2937 71.9418 45.4791 71.7733C46.09 71.668 46.7052 71.5795 47.3203 71.4994C47.5099 71.5711 47.6995 71.6301 47.8849 71.6638C48.007 71.7143 48.125 71.727 48.2346 71.7101C48.7823 71.7438 49.3131 71.6006 49.8229 71.2551C49.8356 71.2466 49.844 71.2382 49.8566 71.2256C50.0336 71.2087 50.2148 71.1919 50.3917 71.1792C50.9268 71.1413 51.7736 71.2845 52.2708 70.977C52.8522 70.623 52.7048 69.7129 52.6921 69.1441ZM51.4661 69.9994C51.2933 70.1385 50.8004 70.1048 50.5645 70.1469C50.4423 70.168 50.3243 70.1891 50.2021 70.2101C50.24 70.1385 50.2653 70.0584 50.278 69.9699C50.4886 68.2593 50.1516 66.6118 49.6249 64.9854C49.3468 64.1174 49.0098 62.0234 47.691 62.3309C46.5366 62.6006 46.3428 64.7958 46.2501 65.727C46.1027 67.1975 46.0942 69.2537 46.7473 70.5935C46.722 70.6989 46.722 70.8042 46.7431 70.9095C46.3934 70.9896 46.0395 71.0697 45.6898 71.1539C45.6814 71.1244 45.6771 71.0949 45.6687 71.0612C44.7924 68.6216 44.6533 65.7902 45.4496 63.3085C45.7614 62.3436 46.2796 61.2986 47.1433 60.7172C48.4452 59.845 49.6628 60.5824 50.1937 61.9054C50.615 62.9503 50.7709 64.1385 50.9774 65.2424C51.2386 66.6202 51.2217 68.0486 51.4703 69.4138C51.4745 69.536 51.4745 69.6582 51.4787 69.7803C51.7147 69.9405 51.7104 70.0121 51.4661 69.9994Z" fill="#1D1D1B"/>
<path d="M69.5882 62.6761C69.3733 61.3657 69.2933 59.8573 68.5222 58.7197C66.8412 56.2295 63.8287 58.8714 62.9777 60.7042C62.3752 61.9978 62.1308 63.4303 62.0592 64.8461C61.9833 66.3503 62.0213 68.0904 62.6996 69.4682C62.3625 69.5904 62.4089 70.1466 62.8133 70.1129C63.8414 70.0202 64.8736 69.9781 65.9058 70.0202C66.8412 70.0581 67.7807 70.2561 68.716 70.2688C69.9589 70.2856 70.0811 69.3924 70.1275 68.3222C70.2117 66.3924 69.9 64.568 69.5882 62.6761ZM68.9309 68.7772C68.8804 69.1901 69.0405 69.1817 68.5475 69.1986C68.379 69.2028 68.2062 69.1986 68.0335 69.1901C68.0335 69.1817 68.0377 69.1733 68.0419 69.1649C68.2737 68.0399 68.4169 61.7702 66.1081 62.5961C65.2233 62.9121 64.7388 64.1508 64.5281 64.9809C64.1742 66.3755 64.3891 67.8334 64.2922 69.2491C64.0773 69.2702 63.8624 69.2955 63.6476 69.325C63.597 68.1578 63.2852 67.0286 63.2642 65.8489C63.2431 64.6649 63.3611 63.4472 63.6939 62.3053C63.9804 61.3152 64.4649 60.2871 65.2781 59.6172C65.7542 59.2253 66.5041 58.8166 67.1361 59.0568C67.6964 59.2674 67.9535 59.8573 68.122 60.3882C68.8804 62.7857 68.7835 65.3601 68.9014 67.8376C68.9099 68.1326 68.9688 68.4823 68.9309 68.7772Z" fill="#1D1D1B"/>
<path d="M36.5632 54.4393C34.8484 53.605 33.121 52.7455 31.3262 52.0966C31.0607 51.9997 30.7616 52.3031 30.8585 52.5643C31.2251 53.5797 31.5537 54.5952 31.9581 55.5938C32.3373 56.5207 32.8303 57.3255 33.3148 58.1935C33.3822 58.3157 33.5634 58.2314 33.5339 58.1008C33.5297 58.0839 33.5255 58.0671 33.5212 58.0502C33.8246 58.164 34.1954 58.1008 34.4861 57.869C35.295 57.2286 35.9902 56.4154 36.7191 55.6822C37.0603 55.3452 37.0266 54.6668 36.5632 54.4393Z" fill="#1D1D1B"/>
<path d="M79.7213 51.376C79.8814 51.1232 79.8013 50.8156 79.6201 50.6007C79.0177 49.8928 77.7663 50.5459 77.0964 50.7987C76.3338 51.0895 75.3522 51.3254 74.9182 52.0544C74.8676 52.0291 74.8213 52.0038 74.7707 51.9827C74.6106 51.9111 74.4421 52.0586 74.5264 52.2271C74.6022 52.383 74.6907 52.5263 74.7834 52.6695C74.8297 52.8675 74.9603 53.0487 75.1331 53.1709C75.4659 53.6133 75.8367 54.0262 76.1864 54.4644C76.8647 55.3114 77.5178 56.1835 78.1666 57.0557C78.6722 57.7341 79.6159 57.3254 79.498 56.4953C79.3758 55.64 79.3126 54.8015 79.3337 53.9378C79.3547 53.2046 79.3126 52.0249 79.7213 51.376Z" fill="#1D1D1B"/>
<path d="M61.5032 109.108C60.3656 109.108 60.3614 110.878 61.5032 110.878C62.645 110.878 62.645 109.108 61.5032 109.108Z" fill="#1D1D1B"/>
<path d="M61.9485 113.31C60.6213 113.31 60.6213 115.37 61.9485 115.37C63.2714 115.37 63.2757 113.31 61.9485 113.31Z" fill="#1D1D1B"/>
<path d="M62.0365 118.113C60.8441 118.113 60.8399 119.967 62.0365 119.967C63.2288 119.967 63.233 118.113 62.0365 118.113Z" fill="#1D1D1B"/>
<path d="M63.207 123.456C63.0132 123.275 62.7731 123.165 62.4992 123.165C62.2422 123.165 61.9726 123.275 61.7914 123.456C61.6187 123.629 61.4881 123.915 61.4965 124.164C61.5091 124.421 61.5934 124.69 61.7914 124.871C61.9852 125.053 62.2254 125.166 62.4992 125.166C62.7562 125.166 63.0259 125.057 63.207 124.871C63.3798 124.699 63.5104 124.412 63.502 124.164C63.4893 123.902 63.4051 123.637 63.207 123.456Z" fill="#1D1D1B"/>
<path d="M63.1876 127.737C62.9432 127.513 62.6441 127.37 62.3028 127.37C61.9826 127.37 61.6455 127.509 61.418 127.737C61.2032 127.952 61.0388 128.31 61.0515 128.622C61.0641 128.946 61.1737 129.279 61.418 129.506C61.6624 129.73 61.9657 129.873 62.3028 129.873C62.623 129.873 62.9601 129.734 63.1876 129.506C63.4024 129.291 63.5668 128.933 63.5541 128.622C63.5373 128.297 63.4319 127.96 63.1876 127.737Z" fill="#1D1D1B"/>
<path d="M62.3035 132.54C60.6561 132.54 60.6519 135.098 62.3035 135.098C63.9509 135.102 63.9509 132.54 62.3035 132.54Z" fill="#1D1D1B"/>
<path d="M62.4778 137.794C61.3824 137.794 61.3824 139.496 62.4778 139.496C63.5733 139.496 63.5733 137.794 62.4778 137.794Z" fill="#1D1D1B"/>
<path d="M62.5673 141.818C61.514 141.818 61.514 143.453 62.5673 143.453C63.6206 143.453 63.6206 141.818 62.5673 141.818Z" fill="#1D1D1B"/>
<path d="M61.9011 146.55H62.6974C63.1314 146.217 63.0008 145.332 62.2972 145.332C61.602 145.332 61.4672 146.217 61.9011 146.55Z" fill="#1D1D1B"/>
<path d="M52.5758 123.178C52.007 122.857 51.177 122.984 50.5534 122.996C50.4481 122.996 50.3385 123.001 50.2332 123.005C50.2838 122.904 50.3006 122.786 50.2585 122.655C49.8456 121.404 49.1926 120.182 48.6027 119.002C48.3246 118.442 47.8865 117.683 47.1365 118.008C46.4455 118.303 46.079 119.39 45.8431 120.034C45.4512 121.113 45.2616 122.255 44.676 123.253C44.6549 123.291 44.6423 123.325 44.6339 123.363C43.6943 123.472 42.7548 123.599 41.8152 123.717C41.5961 123.746 41.5793 124.088 41.8152 124.075C41.9416 124.071 42.068 124.067 42.1944 124.062C42.1691 124.918 41.8911 126.22 42.3208 126.986L42.325 126.991C42.2997 128.259 42.4388 129.552 42.5652 130.795C42.6874 132.001 42.9528 133.294 43.6901 134.284C45.0299 136.092 47.5283 136.395 49.6097 136.538C50.545 136.602 51.7121 136.623 52.3061 135.746C52.6558 135.232 52.6642 134.512 52.7401 133.918C52.8412 133.104 52.9212 132.287 52.9844 131.47C53.1151 129.772 53.174 128.061 53.1698 126.359C53.1614 125.499 53.4942 123.696 52.5758 123.178ZM46.9848 119.727C47.048 119.596 47.1197 119.47 47.1997 119.347C47.3472 118.913 47.4694 118.85 47.562 119.158C47.7811 119.272 48.0297 120.148 48.1393 120.388C48.5395 121.26 48.8639 122.179 49.3105 123.026C48.7502 123.043 48.194 123.064 47.6337 123.093C46.9216 123.131 46.2054 123.19 45.4934 123.266C46.1675 122.149 46.3866 120.881 46.9848 119.727ZM52.0196 128.251C51.9522 129.902 51.7963 131.55 51.5688 133.184C51.4677 133.922 51.5098 134.958 50.7472 135.304C50.2838 135.515 49.538 135.43 49.0409 135.43C47.7474 135.434 46.3444 135.354 45.2237 134.638C43.9471 133.821 43.6564 132.384 43.391 131.002C43.1592 129.797 42.9401 128.63 42.818 127.433C43.3067 127.673 43.9682 127.686 44.4443 127.753C46.9638 128.099 49.4748 128.061 51.9606 127.522C51.9901 127.517 52.0154 127.505 52.0407 127.496C52.0323 127.745 52.0281 127.998 52.0196 128.251ZM52.0575 125.786C52.0575 126.017 52.0575 126.249 52.0533 126.481C51.9859 126.451 51.9059 126.435 51.8132 126.447C49.9762 126.666 48.135 126.801 46.2854 126.784C45.4259 126.776 44.5622 126.729 43.707 126.633C42.957 126.548 42.9064 126.338 42.6874 125.651C42.641 125.499 42.5947 125.347 42.5525 125.192C42.5652 125.179 42.5778 125.158 42.5652 125.133L42.5062 125.015C42.4725 124.88 42.4388 124.745 42.4093 124.606C42.4135 124.606 42.4177 124.606 42.4219 124.602C42.4893 124.56 42.5146 124.471 42.4683 124.404C42.443 124.366 42.4009 124.353 42.3629 124.353C42.3461 124.252 42.3292 124.151 42.3166 124.05C43.8334 123.995 45.3375 124.016 46.8542 124.041C48.3963 124.071 49.9889 123.974 51.5225 124.163C52.0997 124.235 51.9564 124.142 52.0365 124.64C52.0997 125.01 52.0575 125.415 52.0575 125.786Z" fill="#1D1D1B"/>
<path d="M63.7717 100.88C63.3841 100.652 62.908 100.737 62.5878 101.032C62.5751 101.044 62.5625 101.057 62.5498 101.065C62.1917 101.394 62.1917 102.047 62.5498 102.38C62.5625 102.393 62.5751 102.405 62.5878 102.414C62.8785 102.683 63.2871 102.772 63.6579 102.616C63.9992 102.473 64.2773 102.11 64.2604 101.723C64.2393 101.386 64.0708 101.057 63.7717 100.88Z" fill="#1D1D1B"/>
<path d="M55.3116 101.521C54.094 101.521 54.094 103.408 55.3116 103.408C56.5293 103.408 56.5293 101.521 55.3116 101.521Z" fill="#1D1D1B"/>
<path d="M93.8805 109.159C93.1475 110.015 92.6966 111.038 91.8751 111.852C91.0282 112.69 90.0255 113.373 88.9469 113.874C88.6435 114.017 88.8584 114.527 89.1744 114.418C90.3667 114.005 91.4369 113.411 92.368 112.551C93.198 111.784 94.2513 110.638 94.4662 109.496C94.5209 109.189 94.1249 108.873 93.8805 109.159Z" fill="#1D1D1B"/>
<path d="M70.804 44.0983C69.5948 43.9803 68.3477 44.1784 67.1343 44.2542C66.3085 44.3048 65.4785 44.3553 64.6527 44.4059C64.8928 44.1405 65.0361 43.7865 65.0066 43.3652C64.8718 41.3596 64.2608 39.3034 63.8732 37.3315C63.4856 35.3596 63.275 33.2276 62.6725 31.3105C61.9941 29.1447 59.7064 29.6546 57.92 29.8105C56.0114 29.9748 54.1112 30.2192 52.2237 30.5478C50.3404 30.8765 48.4655 31.2768 46.6117 31.7487C45.7607 31.9678 44.9896 32.2416 44.5093 33.0253C44.029 33.809 44.0838 34.6812 44.2945 35.545C45.1287 38.9495 46.4643 42.2697 48.0231 45.4129C45.7354 45.5562 43.4476 45.7205 41.164 45.9396C40.3214 46.0197 40.4984 47.1868 41.2947 47.2079C46.1988 47.3385 51.1156 47.1868 56.0198 47.0899C58.4382 47.0393 60.8566 46.9761 63.275 46.9045C64.4505 46.8708 65.6259 46.8329 66.8014 46.7949C68.078 46.7528 69.4642 46.8708 70.7155 46.6222C72.03 46.3694 72.346 44.2458 70.804 44.0983ZM56.003 44.9368C53.9174 45.0674 51.8277 45.1854 49.7379 45.3076C49.4683 44.6081 49.2113 43.9045 48.9669 43.1924C48.9753 43.1924 48.988 43.1924 48.9964 43.1924C50.075 43.0618 51.1325 42.7332 52.2069 42.5688C53.2854 42.4003 54.3724 42.2613 55.4552 42.1222C56.4833 41.9916 57.5155 41.8947 58.5477 41.8188C59.5673 41.7472 60.6712 41.6082 61.6908 41.7767C61.834 42.5393 61.9984 43.2936 62.2343 44.0183C62.3017 44.2289 62.4028 44.3975 62.525 44.5323C60.351 44.6671 58.177 44.7978 56.003 44.9368Z" fill="#1D1D1B"/>
<path d="M66.7886 79.0154C66.7086 78.2022 65.8828 77.4817 65.0528 77.7977C64.425 78.0379 64.3829 78.7036 64.9306 79.0575C65.0022 79.1039 65.116 79.0449 65.1118 78.9564C65.0739 78.4592 65.7943 79.0786 65.8617 79.2008C65.63 79.698 65.3309 79.8538 64.9601 79.6685C64.8211 79.66 64.7031 79.6095 64.6104 79.5168C64.2059 79.2808 63.89 78.9732 63.4349 78.8089C62.4533 78.4508 61.2946 78.4761 60.3382 78.8721C59.7947 79.0954 59.4198 79.5294 59.504 80.153C59.5756 80.6713 60.0728 81.2316 60.65 81.1642C61.4926 81.0631 62.2805 81.0505 63.1189 81.16C63.7931 81.2443 64.4292 81.2906 65.0991 81.1221C66.0134 80.8861 66.8855 80.0182 66.7886 79.0154Z" fill="#1D1D1B"/>
<path d="M57.5053 79.5044C56.6668 79.7614 55.9295 80.208 55.1122 80.4987C54.674 80.6546 54.0884 80.9032 53.6123 80.8527C52.7696 80.7642 53.212 79.9215 53.7976 79.6392C53.844 79.6181 53.8229 79.5381 53.7723 79.5423C52.8454 79.6434 51.889 80.781 52.6432 81.6069C53.1277 82.1378 53.9914 82.4201 54.6782 82.5001C55.129 82.5507 55.5672 82.5128 56.0054 82.3864C56.4014 82.2726 57.0924 81.8007 57.5053 81.8597C59.6624 82.1715 59.2917 78.9566 57.5053 79.5044Z" fill="#1D1D1B"/>
<path d="M61.0779 82.7863C60.0541 82.702 58.8154 82.9127 57.8379 83.216C57.5936 83.2919 57.5978 83.6332 57.8379 83.709C58.8154 84.0166 60.0541 84.2315 61.0779 84.1514C61.9543 84.0798 61.9543 82.8579 61.0779 82.7863Z" fill="#1D1D1B"/>
<path d="M118.852 85.147C118.844 89.6133 118.549 94.0838 117.917 98.5037C117.285 102.924 116.346 107.301 115.069 111.574C114.429 113.706 113.712 115.821 112.92 117.898C112.12 119.975 111.239 122.023 110.283 124.029C108.37 128.04 106.137 131.891 103.592 135.515C101.056 139.143 98.1867 142.526 95.031 145.598C93.451 147.131 91.7995 148.589 90.0678 149.946C88.3446 151.307 86.5414 152.562 84.6749 153.708C80.9378 156.001 76.9311 157.838 72.7473 159.097C68.5594 160.345 64.203 161.015 59.8296 161.061C57.643 161.074 55.4521 160.943 53.2823 160.652C51.1083 160.361 48.9596 159.906 46.8446 159.317C42.6145 158.124 38.553 156.325 34.7653 154.058C30.9692 151.796 27.4722 149.023 24.2871 145.939C21.1103 142.838 18.258 139.4 15.7427 135.73C13.8594 132.978 12.1657 130.092 10.6615 127.109C10.1644 126.115 9.68408 125.112 9.22484 124.096C7.39209 120.039 5.86269 115.838 4.68721 111.544C2.30675 102.957 1.24924 94.0332 1.35036 85.147C1.41777 80.7018 1.75482 76.2693 2.40366 71.8788C2.72807 69.6878 3.12833 67.5053 3.60021 65.3395C4.06787 63.178 4.61138 61.0292 5.23493 58.9056C7.72494 50.4155 11.3989 42.2666 16.3747 34.99C18.8604 31.358 21.6749 27.9493 24.8011 24.8693C27.923 21.7934 31.3568 19.0336 35.0855 16.7499C38.81 14.4746 42.7999 12.6418 46.971 11.4072C51.142 10.1769 55.4816 9.53225 59.8296 9.51961C64.1777 9.51119 68.5173 10.1474 72.6968 11.3567C76.8805 12.5786 80.883 14.403 84.6202 16.6741C86.4908 17.8075 88.2941 19.0547 90.0215 20.4114C91.7531 21.7555 93.4131 23.2007 94.9931 24.7344C98.153 27.7976 101.022 31.1768 103.567 34.7962C106.112 38.4155 108.349 42.2666 110.262 46.2778C111.218 48.2792 112.099 50.327 112.899 52.4042C113.695 54.4815 114.412 56.5924 115.048 58.7286C116.325 62.9969 117.268 67.3746 117.904 71.7904C118.541 76.2103 118.836 80.6808 118.852 85.147ZM112.394 85.147C112.373 77.2047 111.404 69.2581 109.373 61.5559L108.551 58.6865C108.252 57.7342 107.928 56.7904 107.62 55.8424C107.473 55.3663 107.283 54.907 107.114 54.4351L106.592 53.0362C106.504 52.8003 106.424 52.5643 106.327 52.3368L106.036 51.6458L105.454 50.2638C103.866 46.6023 101.995 43.0503 99.8088 39.688C97.6179 36.3341 95.1279 33.1529 92.305 30.2709C89.4864 27.3931 86.3644 24.7808 82.9265 22.6277C79.4969 20.4704 75.7766 18.7471 71.8794 17.5715C67.9822 16.3876 63.908 15.7724 59.8296 15.7513C55.7471 15.7513 51.6687 16.3623 47.7672 17.5252C43.8616 18.6923 40.1287 20.4072 36.6865 22.5603C36.4632 22.6825 36.2568 22.8342 36.0461 22.9732L35.4141 23.3945L34.1544 24.2457L32.9368 25.16L32.3301 25.6192C32.132 25.7709 31.9256 25.9184 31.736 26.0869L30.5731 27.0645C30.1855 27.3931 29.7895 27.7049 29.4272 28.0588L28.3149 29.0954L27.7629 29.6094C27.5776 29.7821 27.409 29.9718 27.2279 30.1487C24.3797 33.0181 21.835 36.174 19.5935 39.5195C15.1149 46.2189 11.8455 53.6683 9.72621 61.4L8.99732 64.3157L8.90463 64.678L8.8288 65.0488L8.67711 65.782L8.36956 67.2525C8.319 67.4968 8.26844 67.7454 8.22209 67.9898L8.09991 68.7314L7.85555 70.2103C7.67438 71.1963 7.56483 72.1906 7.44265 73.185C6.95813 77.1541 6.73904 81.1527 6.77275 85.147C6.83595 89.1414 7.15615 93.1231 7.72072 97.0711C7.86818 98.0571 7.99458 99.0472 8.19682 100.025L8.47067 101.495L8.60971 102.228L8.77402 102.957L9.09843 104.415L9.26276 105.144L9.34702 105.511L9.4397 105.869L10.2149 108.759C11.5969 113.542 13.4043 118.206 15.6458 122.651C16.9898 125.318 18.4939 127.909 20.1581 130.395C22.37 133.711 24.8769 136.838 27.6829 139.686C27.8556 139.867 28.0242 140.053 28.2053 140.225L28.7488 140.739L29.8401 141.772C30.194 142.126 30.5858 142.437 30.965 142.766L32.1068 143.744C32.2921 143.908 32.4944 144.055 32.6924 144.211L33.2907 144.666L34.4788 145.585L35.7217 146.436L36.341 146.866C36.5475 147.005 36.7497 147.152 36.9688 147.279C40.352 149.436 44.0217 151.18 47.8768 152.385C51.7319 153.586 55.7723 154.244 59.8296 154.286C63.8828 154.303 67.9443 153.738 71.8373 152.579C75.7303 151.433 79.4463 149.727 82.8801 147.59C86.3181 145.454 89.4485 142.859 92.2713 139.989C95.0942 137.116 97.5884 133.939 99.7835 130.589C101.97 127.231 103.849 123.679 105.438 120.018L106.019 118.64L106.306 117.949C106.402 117.721 106.482 117.485 106.575 117.249L107.098 115.851C107.266 115.383 107.456 114.919 107.603 114.443C107.911 113.495 108.235 112.556 108.53 111.603L109.356 108.734C111.387 101.032 112.36 93.0894 112.394 85.147Z" fill="#47AD4B"/>
<path d="M31.0564 132.072C31.1828 131.962 31.3134 131.857 31.4441 131.752C31.6631 131.579 31.9454 131.844 31.7558 132.068C31.5957 132.253 31.4146 132.422 31.2208 132.573C31.4483 133.336 31.5831 134.17 31.6252 135.025C31.6674 135.017 31.7095 135.009 31.7516 135.004C32.135 134.945 32.3035 135.485 31.9159 135.594C31.8232 135.62 31.7306 135.645 31.6379 135.666C31.6294 136.378 31.5578 137.098 31.4188 137.794C31.5747 137.84 31.7348 137.891 31.8864 137.941C32.1435 138.034 32.0423 138.43 31.7769 138.354C31.6252 138.312 31.4735 138.261 31.3261 138.215C31.2334 138.582 31.1281 138.94 30.9975 139.285C31.0059 139.289 31.0101 139.289 31.0185 139.294C31.2165 139.361 31.1997 139.69 30.968 139.677C30.9258 139.673 30.8837 139.669 30.8416 139.664C30.6646 140.073 30.4624 140.465 30.2222 140.819L30.4792 141.051C30.8373 141.392 31.2292 141.687 31.6084 141.999L32.7502 142.93C32.9397 143.09 33.142 143.229 33.34 143.372L33.9341 143.806L35.1222 144.674L36.3609 145.471L36.976 145.871C37.1824 146.002 37.3847 146.141 37.5996 146.259C38.7582 146.95 39.9421 147.586 41.1513 148.171C40.8774 146.132 41.442 144.135 42.0234 142.193C42.0613 142.066 42.2509 142.121 42.2214 142.247C41.7875 144.219 41.442 146.128 41.8085 148.142C41.8338 148.268 41.7917 148.369 41.7159 148.441C43.852 149.44 46.0597 150.27 48.318 150.906L49.0173 151.104C49.2533 151.171 49.485 151.243 49.7252 151.289L49.7504 151.294C49.4471 148.673 49.9906 145.803 50.6731 143.33C50.7405 143.073 51.1155 143.183 51.065 143.436C50.7827 144.885 50.6352 146.368 50.6015 147.843C50.572 149.086 50.749 150.299 50.8164 151.53L51.1492 151.601L51.8613 151.757C52.0972 151.812 52.3416 151.837 52.5817 151.879L54.0226 152.098C54.2628 152.132 54.4987 152.183 54.7431 152.2L55.4678 152.258L56.9171 152.385C57.1615 152.414 57.4016 152.414 57.646 152.419L58.3707 152.435L59.1922 152.457C59.1248 149.945 59.0364 147.405 59.0995 144.902C59.1206 143.992 60.4899 143.992 60.511 144.902C60.5699 147.409 60.4857 149.95 60.4141 152.461C64.0964 152.372 67.7577 151.766 71.2799 150.712C71.6507 150.598 72.0257 150.48 72.3964 150.358C72.4049 148.993 72.4386 147.674 72.2068 146.284C72.1731 146.082 72.468 145.993 72.5186 146.2C72.8009 147.443 73.0537 148.808 73.0621 150.131C74.937 149.478 76.7697 148.694 78.5477 147.792C78.5435 147.788 78.5435 147.784 78.5393 147.775C78.2865 146.907 78.3413 145.892 78.2781 144.99C78.2444 144.464 79.0491 144.476 79.0954 144.99C79.167 145.766 79.3398 146.612 79.2976 147.405C80.1656 146.945 81.0209 146.461 81.8593 145.947C82.0742 145.829 82.2722 145.69 82.4744 145.555L83.0853 145.155L84.3029 144.354L85.4784 143.486L86.0641 143.052C86.2621 142.909 86.4601 142.77 86.6455 142.61L87.7788 141.683C88.1496 141.371 88.5414 141.076 88.8953 140.739L89.9781 139.757L90.5216 139.264C90.7028 139.1 90.8671 138.923 91.0441 138.754C91.3221 138.48 91.596 138.207 91.8699 137.929C91.6044 137.364 91.3895 136.766 91.2252 136.15C91.141 136.176 91.0609 136.197 90.9809 136.222C90.7618 136.285 90.6186 135.952 90.825 135.847C90.9219 135.801 91.0146 135.746 91.1073 135.691C90.9556 135.034 90.8629 134.356 90.8081 133.677C90.6354 133.669 90.4627 133.656 90.2941 133.643C90.0961 133.631 90.0961 133.353 90.2941 133.34C90.4585 133.327 90.6227 133.302 90.7829 133.273C90.7407 132.43 90.7702 131.583 90.8629 130.77C90.7534 130.736 90.6438 130.698 90.5385 130.665C90.2056 130.563 90.3489 130.104 90.6775 130.159C90.766 130.172 90.8545 130.18 90.943 130.184C90.9725 129.999 91.002 129.818 91.0357 129.636C91.1663 128.979 91.3769 128.364 91.6592 127.795L91.5412 127.724C91.3685 127.618 91.4865 127.298 91.6887 127.382C91.7393 127.403 91.7898 127.424 91.8446 127.445C92.2154 126.797 92.6872 126.224 93.256 125.752C93.1591 125.608 93.0622 125.461 92.9737 125.309C92.7715 124.976 93.2602 124.584 93.5214 124.888C93.6394 125.027 93.7658 125.158 93.8922 125.288C94.3851 124.976 94.9371 124.728 95.5396 124.555C95.7586 124.492 95.8724 124.799 95.6912 124.913C95.2489 125.191 94.798 125.457 94.3683 125.752C94.4441 125.819 94.5116 125.891 94.5874 125.954C95.0593 126.358 94.3051 127.1 93.9133 126.628C93.8248 126.518 93.7363 126.409 93.652 126.299C93.4161 126.506 93.197 126.729 93.0032 126.986C92.8263 127.222 92.6788 127.475 92.5566 127.732L92.8178 127.837C93.2181 128.002 92.94 128.579 92.5945 128.368C92.5145 128.318 92.4344 128.271 92.3544 128.221C92.1395 128.832 92.0215 129.476 91.9331 130.121C92.1226 130.104 92.308 130.087 92.5018 130.096C93.0117 130.108 93.1591 130.922 92.624 131.014C92.3628 131.061 92.1016 131.052 91.8362 131.014C91.7898 131.693 91.7982 132.354 91.8488 133.007C92.0131 132.965 92.1774 132.923 92.3417 132.885C92.7167 132.805 92.8347 133.302 92.4976 133.445C92.3122 133.521 92.1142 133.576 91.912 133.614C91.971 134.09 92.051 134.57 92.1521 135.042C92.367 134.916 92.5819 134.798 92.8136 134.701C93.0959 134.579 93.2771 134.992 93.0959 135.181C92.8726 135.417 92.603 135.594 92.3122 135.742C92.4218 136.188 92.544 136.639 92.6746 137.094C94.836 134.823 96.8288 132.388 98.6321 129.809C100.886 126.599 102.871 123.181 104.568 119.625L105.188 118.281L105.5 117.611C105.605 117.388 105.693 117.156 105.79 116.933L106.355 115.563C106.54 115.108 106.747 114.658 106.907 114.19C107.244 113.263 107.594 112.336 107.914 111.405L108.815 108.582C111.069 100.998 112.152 93.0678 112.173 85.1465H112.392C112.359 93.0889 111.385 101.031 109.355 108.733L108.529 111.603C108.234 112.555 107.91 113.495 107.602 114.443C107.455 114.919 107.265 115.382 107.096 115.85L106.574 117.249C106.481 117.485 106.401 117.721 106.304 117.948L106.018 118.639L105.436 120.017C103.848 123.679 101.969 127.231 99.7823 130.589C97.5872 133.938 95.093 137.115 92.2701 139.989C89.4473 142.858 86.3168 145.454 82.8789 147.59C79.4451 149.726 75.7291 151.433 71.8361 152.579C67.9431 153.737 63.8815 154.302 59.8284 154.285C55.7711 154.243 51.7306 153.586 47.8756 152.385C44.0205 151.18 40.3508 149.435 36.9676 147.278C36.7485 147.152 36.5462 147.004 36.3398 146.865L35.7205 146.436L34.4776 145.584L33.2894 144.666L32.6912 144.211C32.4931 144.055 32.2909 143.907 32.1055 143.743L30.9638 142.766C30.5846 142.437 30.1927 142.125 29.8388 141.771L28.7476 140.739L28.2041 140.225C28.0229 140.052 27.8544 139.867 27.6817 139.686C24.8757 136.837 22.3688 133.711 20.1569 130.395C18.4927 127.909 16.9885 125.318 15.6445 122.651L16.2302 122.356C17.5658 125.002 19.0699 127.555 20.7383 130.003C22.9671 133.256 25.495 136.302 28.3136 139.054C28.4864 139.226 28.6549 139.403 28.8361 139.572L29.3838 140.065L29.4133 140.09C29.5313 139.795 29.6492 139.509 29.763 139.218C29.645 139.142 29.5355 139.054 29.4301 138.965C29.2827 138.843 29.4765 138.594 29.6366 138.7C29.7208 138.759 29.8093 138.805 29.902 138.855C30.0284 138.514 30.1422 138.177 30.2433 137.827C29.9779 137.726 29.7082 137.625 29.4428 137.528C29.2869 137.473 29.3501 137.242 29.5102 137.284C29.7841 137.355 30.0579 137.427 30.3318 137.499C30.416 137.17 30.4834 136.837 30.5214 136.488C30.5509 136.256 30.5677 136.024 30.5804 135.792C30.1717 135.805 29.7588 135.78 29.3627 135.721C29.2574 135.704 29.27 135.544 29.3627 135.523C29.7714 135.422 30.1843 135.316 30.5972 135.223C30.6014 134.516 30.5256 133.804 30.3613 133.117C30.1548 133.222 29.9399 133.319 29.7251 133.403C29.624 133.445 29.5902 133.302 29.6577 133.247C29.8641 133.091 30.0663 132.923 30.2644 132.754C30.1 132.198 29.8725 131.667 29.5692 131.179C29.506 131.225 29.4386 131.267 29.3712 131.309C29.3417 131.339 29.3122 131.372 29.2785 131.402C29.2574 131.427 29.2237 131.423 29.2026 131.406C29.1563 131.431 29.1142 131.457 29.0678 131.482C28.9456 131.545 28.8024 131.381 28.9161 131.28C29.0636 131.141 29.2026 130.993 29.3332 130.841C29.0973 130.521 28.8277 130.226 28.5159 129.965C28.36 130.142 28.1999 130.311 28.0356 130.475C27.8418 130.669 27.5426 130.37 27.7364 130.176C27.8881 130.024 28.0314 129.864 28.1662 129.704C27.6817 129.392 27.1424 129.211 26.6031 129.038C26.4683 129.32 26.3334 129.607 26.207 129.889C26.1733 129.961 26.0638 129.906 26.0806 129.834C26.1607 129.54 26.2323 129.24 26.3082 128.941C25.7899 128.773 25.2759 128.583 24.8251 128.267C24.7872 128.242 24.783 128.166 24.8378 128.158C25.4192 128.061 25.988 128.065 26.5357 128.158C26.6368 127.85 26.7505 127.547 26.9022 127.256C26.9865 127.087 27.2309 127.209 27.1971 127.382C27.134 127.673 27.0413 127.959 26.9359 128.242C27.5637 128.402 28.1535 128.672 28.6844 129.034C28.8993 128.731 29.1015 128.423 29.2995 128.103C29.4344 127.884 29.7419 128.073 29.6366 128.301C29.4723 128.65 29.27 128.983 29.0467 129.299C29.3627 129.548 29.6492 129.83 29.9147 130.138C29.9947 130.037 30.0748 129.94 30.1548 129.843C30.3402 129.628 30.6183 129.902 30.5172 130.121C30.4413 130.277 30.3528 130.424 30.2475 130.559C30.5803 131.018 30.8542 131.528 31.0522 132.063C31.0522 132.063 31.0564 132.068 31.0564 132.072Z" fill="#1D1D1B"/>
<path d="M8.19696 100.024C7.99473 99.0469 7.86833 98.0567 7.72087 97.0708C7.1563 93.1228 6.8361 89.1411 6.7729 85.1467C6.73919 81.1523 6.95828 77.1538 7.4428 73.1847C7.56498 72.1903 7.67453 71.1959 7.8557 70.21L8.10006 68.731L8.22224 67.9895C8.26859 67.7451 8.31915 67.4965 8.36971 67.2521L8.67726 65.7816L8.82895 65.0485L8.90478 64.6777L8.99747 64.3153L9.72636 61.3996C11.8456 53.6679 15.115 46.2185 19.5937 39.5191C21.8351 36.1736 24.3799 33.0177 27.228 30.1484C27.4092 29.9714 27.5777 29.7818 27.7631 29.609L28.315 29.095L29.4273 28.0585C29.7896 27.7046 30.1857 27.3928 30.5733 27.0641L31.7362 26.0866C31.9257 25.9181 32.1322 25.7706 32.3302 25.6189L32.9369 25.1596L34.1545 24.2453L35.4143 23.3942L36.0463 22.9728C36.2569 22.8338 36.4634 22.6821 36.6867 22.5599C40.1289 20.4069 43.8618 18.692 47.7674 17.5248C51.6688 16.3619 55.7472 15.751 59.8298 15.751C63.9082 15.772 67.9824 16.3872 71.8796 17.5712C75.7768 18.7467 79.4971 20.4701 82.9266 22.6273C86.3646 24.7804 89.4866 27.3928 92.3052 30.2706C95.1281 33.1526 97.6181 36.3337 99.8089 39.6877C101.996 43.05 103.866 46.6019 105.455 50.2634L106.036 51.6455L106.327 52.3365C106.424 52.564 106.504 52.7999 106.592 53.0359L107.115 54.4348C107.283 54.9067 107.473 55.3659 107.62 55.8421C107.928 56.7901 108.252 57.7339 108.551 58.6861L109.373 61.5555C111.404 69.2577 112.373 77.2043 112.394 85.1467H112.175C112.141 77.2254 111.054 69.2999 108.8 61.7156L107.898 58.8926C107.574 57.9614 107.228 57.0387 106.891 56.1075C106.727 55.644 106.525 55.1932 106.339 54.7339L105.771 53.3688C105.674 53.1412 105.585 52.9137 105.484 52.6904L105.172 52.0162L104.549 50.6764C102.851 47.1202 100.866 43.7115 98.6082 40.5009C96.3541 37.2902 93.8093 34.2944 91.0117 31.5725C90.8348 31.404 90.6705 31.227 90.4893 31.0627L89.9458 30.5739L88.8588 29.5964C88.5049 29.2593 88.1131 28.9686 87.7381 28.6568L86.6048 27.7383C86.4194 27.5782 86.2171 27.4391 86.0233 27.2959L85.4335 26.8661L84.258 26.0023L83.0404 25.2102L82.4295 24.8099C82.2272 24.6793 82.0292 24.536 81.8143 24.4223C78.4985 22.4125 74.9426 20.8071 71.2392 19.7243C67.5316 18.6456 63.6849 18.0726 59.8298 18.0768C55.9747 18.0937 52.1281 18.6709 48.4331 19.7664C44.7339 20.8619 41.1906 22.4757 37.8832 24.4939C37.6726 24.6077 37.4745 24.7509 37.2723 24.8815L36.6656 25.2818L35.4522 26.0824L34.2851 26.9504L33.6995 27.3843C33.5057 27.5276 33.3077 27.6709 33.1223 27.8268L32.0016 28.7579C31.6308 29.0697 31.2432 29.3647 30.8935 29.7017L29.8191 30.6877L29.2841 31.1807C29.1029 31.345 28.9386 31.5262 28.7658 31.6947C25.9978 34.4293 23.5035 37.4503 21.3 40.6736C16.8888 47.1244 13.6236 54.3463 11.4116 61.8757L10.6406 64.7156L10.5437 65.0695L10.4637 65.4277L10.2994 66.1482L9.97072 67.585L9.80641 68.3013L9.66737 69.026L9.39351 70.4712C9.19128 71.4361 9.06066 72.4094 8.9132 73.3827C8.34021 77.2717 8.03265 81.2071 7.96945 85.1467C7.93574 89.0863 8.1422 93.0343 8.63514 96.9486C8.76154 97.9261 8.87108 98.9079 9.05224 99.8769L9.29661 101.339L9.41879 102.068C9.46514 102.312 9.5157 102.552 9.56626 102.793L9.87383 104.242L10.0297 104.967L10.1055 105.329L10.194 105.687L10.9271 108.557C11.972 112.366 13.3329 116.086 14.955 119.684C15.3636 120.586 15.7892 121.475 16.2316 122.356L15.6459 122.651C13.4045 118.206 11.597 113.541 10.2151 108.759L9.43985 105.868L9.34717 105.51L9.26291 105.144L9.09858 104.415L8.77417 102.957L8.60986 102.228L8.47082 101.495L8.19696 100.024Z" fill="#1D1D1B"/>
<path d="M3.88229 111.771C3.26295 109.609 2.71943 107.426 2.25177 105.231C1.77989 103.032 1.37963 100.82 1.05522 98.595C0.414809 94.1414 0.0651168 89.6498 0.00613194 85.1457C-0.0907718 76.1457 0.958314 67.0952 3.33456 58.3691C5.71502 49.6473 9.40159 41.2414 14.4532 33.6867C16.9811 29.9156 19.8461 26.3552 23.065 23.1277C26.2839 19.9002 29.8441 16.9929 33.7328 14.5702C37.6132 12.139 41.8138 10.1966 46.2208 8.87781C50.6278 7.57163 55.2286 6.89327 59.8295 6.89748C64.4261 6.91433 69.0227 7.59691 73.4213 8.92837C77.8156 10.2556 82.0078 12.2107 85.8755 14.646C87.8094 15.8637 89.659 17.2078 91.4243 18.6488C93.1854 20.094 94.8623 21.6404 96.4549 23.2626C99.6401 26.5069 102.446 30.0968 104.919 33.8805C107.384 37.6726 109.495 41.6796 111.285 45.8088C112.179 47.8776 112.992 49.9759 113.721 52.1037C114.458 54.2273 115.115 56.3761 115.692 58.5461C116.838 62.8859 117.694 67.2974 118.262 71.7426C118.549 73.9631 118.755 76.1963 118.89 78.4336C119.029 80.6667 119.101 82.9083 119.101 85.1457H118.852C118.835 80.6794 118.54 76.2089 117.904 71.789C117.268 67.3733 116.324 62.9955 115.048 58.7273C114.412 56.591 113.695 54.4801 112.899 52.4029C112.099 50.3256 111.218 48.2779 110.262 46.2765C108.349 42.2653 106.112 38.4142 103.567 34.7948C101.022 31.1754 98.1528 27.7962 94.9929 24.7331C93.4129 23.1994 91.7529 21.7541 90.0213 20.41C88.2939 19.0533 86.4906 17.8061 84.62 16.6727C80.8829 14.4017 76.8803 12.5772 72.6966 11.3553C68.5171 10.1461 64.1775 9.50983 59.8295 9.51825C55.4814 9.53089 51.1418 10.1756 46.9708 11.4059C42.7997 12.6404 38.8098 14.4733 35.0853 16.7486C31.3566 19.0322 27.9228 21.7921 24.8009 24.8679C21.6747 27.9479 18.8602 31.3566 16.3744 34.9886C11.3986 42.2653 7.72473 50.4141 5.23472 58.9042C4.61117 61.0278 4.06766 63.1767 3.6 65.3382C3.12812 67.5039 2.72786 69.6865 2.40345 71.8775C1.75461 76.2679 1.41756 80.7005 1.35015 85.1457C1.24903 94.0319 2.30654 102.956 4.687 111.543C5.86248 115.837 7.39189 120.037 9.22463 124.095C9.68387 125.11 10.1642 126.113 10.6613 127.108L9.99986 127.44C7.47615 122.426 5.44117 117.164 3.88229 111.771Z" fill="#1D1D1B"/>
<path d="M73.8842 8.68065C71.2551 7.05426 68.6219 5.44471 65.9549 3.87731C64.6235 3.0936 63.2964 2.30569 61.9692 1.51777C60.8696 0.864682 59.6604 -0.0327855 58.3206 0.000922233C57.2125 0.026203 56.1971 1.03743 55.3629 1.67367C54.3012 2.48686 53.2647 3.32534 52.2536 4.20174C50.0669 6.0978 47.9392 8.12026 46.1191 10.3745C46.0391 10.4756 46.1655 10.6104 46.2624 10.5177C48.1499 8.71015 50.0121 6.88993 52.026 5.22561C53.0541 4.37871 54.1116 3.5613 55.1902 2.78181C56.235 2.0276 57.4063 0.881536 58.7967 1.27339C60.0185 1.61889 61.1813 2.67226 62.2262 3.36748C63.4059 4.15539 64.5856 4.94331 65.7611 5.73544C68.1163 7.3197 70.4967 8.8534 72.8856 10.3829C73.96 11.0739 74.967 9.35059 73.8842 8.68065Z" fill="#1D1E1B"/>
<path d="M58.7906 2.65168C58.4746 2.33567 58.0112 2.2177 57.5814 2.33146C57.5688 2.33567 57.5561 2.33567 57.5435 2.33989C57.4466 2.38202 57.3455 2.42416 57.2486 2.46629C57.1053 2.54213 56.9873 2.65168 56.9031 2.7823C56.743 2.98876 56.625 3.25842 56.6376 3.52808C56.6461 3.74718 56.7051 3.95786 56.8062 4.15168C56.9452 4.41712 57.257 4.64465 57.5435 4.72049C57.5561 4.72471 57.5688 4.72471 57.5814 4.72892C57.9985 4.83847 58.4915 4.73313 58.7906 4.4087C59.0139 4.16432 59.1529 3.86516 59.1529 3.52808C59.1572 3.21629 59.0181 2.87921 58.7906 2.65168Z" fill="#1D1E1B"/>
<path d="M95.4696 59.0527C94.4163 60.1187 93.363 61.1847 92.3097 62.2507C91.9558 62.6088 92.5035 63.1608 92.8616 62.8026C93.9276 61.7493 94.9935 60.6959 96.0595 59.6425C96.4386 59.2633 95.8446 58.6692 95.4696 59.0527Z" fill="#1D1D1B"/>
<path d="M25.5839 94.8974C22.9633 97.5772 20.3427 100.257 17.7263 102.937C17.5577 103.109 17.819 103.371 17.9917 103.202L26.0305 95.344C26.3212 95.0617 25.8704 94.6109 25.5839 94.8974Z" fill="#1D1D1B"/>
<path d="M21.5039 70.9432C19.2456 73.1932 17.0168 75.4642 14.8007 77.7563C14.451 78.1187 14.9903 78.6622 15.3526 78.3083C17.6446 76.092 19.9155 73.8631 22.1654 71.6047C22.5951 71.1749 21.9336 70.5134 21.5039 70.9432Z" fill="#1D1D1B"/>
<path d="M73.181 31.9936L69.6082 35.5751C69.1996 35.988 69.8357 36.6242 70.2444 36.2113C71.4368 35.0189 72.6333 33.8307 73.8257 32.6383C74.2512 32.2254 73.5981 31.5723 73.181 31.9936Z" fill="#1D1D1B"/>
<path d="M35.9473 30.9318C33.3225 33.3335 30.8494 35.9079 28.3299 38.4192C27.997 38.752 28.5153 39.2703 28.8481 38.9374C31.3592 36.4178 33.9334 33.9445 36.335 31.3195C36.5709 31.0582 36.2086 30.6959 35.9473 30.9318Z" fill="#1D1D1B"/>
<path d="M15.0853 136.176C13.2105 133.37 11.5168 130.45 10 127.441L10.6615 127.108C12.1656 130.091 13.8593 132.978 15.7426 135.729C18.2579 139.399 21.1102 142.837 24.287 145.938C27.4722 149.023 30.9691 151.795 34.7652 154.058C38.5529 156.324 42.6144 158.124 46.8445 159.316C48.9595 159.906 51.1083 160.361 53.2823 160.652C55.4521 160.942 57.6429 161.073 59.8296 161.06C64.2029 161.014 68.5594 160.344 72.7473 159.097C76.931 157.837 80.9378 156 84.6749 153.708C86.5413 152.562 88.3446 151.306 90.0678 149.945C91.7994 148.589 93.451 147.131 95.0309 145.597C98.1866 142.525 101.056 139.142 103.592 135.514C106.137 131.891 108.37 128.04 110.283 124.028C111.239 122.023 112.12 119.975 112.92 117.898C113.712 115.82 114.429 113.705 115.069 111.573C116.346 107.301 117.285 102.923 117.917 98.5032C118.549 94.0832 118.844 89.6128 118.852 85.1465H119.101C119.097 87.3838 119.025 89.6254 118.882 91.8585C118.743 94.0959 118.536 96.3248 118.25 98.5495C117.677 102.99 116.817 107.402 115.676 111.742C115.098 113.912 114.437 116.061 113.7 118.184C112.971 120.308 112.158 122.406 111.264 124.471C109.474 128.604 107.359 132.603 104.89 136.391C102.484 140.065 99.7539 143.549 96.6783 146.714C96.6699 146.743 96.6572 146.768 96.6404 146.798C96.6446 146.798 96.6446 146.802 96.6488 146.802C96.5982 146.874 96.5477 146.937 96.4971 147.004C96.3497 147.236 96.2738 147.527 95.9958 147.636C95.9283 147.662 95.8652 147.674 95.802 147.674C95.743 147.721 95.6798 147.763 95.6124 147.805C95.5997 147.813 95.5913 147.818 95.5787 147.826C92.6168 150.729 89.36 153.35 85.8209 155.558C81.9532 157.972 77.7652 159.91 73.3708 161.204C68.9807 162.493 64.4009 163.146 59.8296 163.108C55.2541 163.062 50.6996 162.333 46.3473 160.985C41.9993 159.624 37.8661 157.648 34.049 155.208C30.2318 152.768 26.7349 149.869 23.575 146.65C20.4108 143.44 17.5838 139.913 15.0853 136.176Z" fill="#1D1D1B"/>
</svg>
