<svg width="16" height="16" viewBox="0 0 16 16" fill="none" xmlns="http://www.w3.org/2000/svg">
<path d="M8.68022 9.45975H12.161C11.55 11.1868 9.89524 12.4251 7.95794 12.4108C5.6073 12.3935 3.66363 10.5134 3.57238 8.16485C3.47456 5.64743 5.4946 3.56822 7.99115 3.56822C9.13266 3.56822 10.1744 4.00308 10.9597 4.71564C11.1457 4.88446 11.4289 4.88553 11.6118 4.71336L12.8903 3.51033C13.0902 3.32216 13.0909 3.0044 12.8916 2.8156C11.6461 1.63591 9.97541 0.900594 8.13302 0.864623C4.20339 0.787918 0.891075 4.0092 0.863703 7.93877C0.836087 11.8978 4.03775 15.1159 7.99115 15.1159C11.7931 15.1159 14.8989 12.1396 15.1069 8.3904C15.1125 8.34339 15.1161 6.7548 15.1161 6.7548H8.68022C8.41641 6.7548 8.20259 6.96858 8.20259 7.23233V8.98222C8.20259 9.24597 8.41646 9.45975 8.68022 9.45975Z" fill="white"/>
</svg>
