<svg width="86" height="105" viewBox="0 0 86 105" fill="none" xmlns="http://www.w3.org/2000/svg">
    <path d="M15.0845 0.206416C15.7815 0.603029 15.9981 1.63171 16.2302 2.3523C16.4768 3.11964 16.839 4.02142 16.349 4.76455C15.9165 5.42084 15.1427 5.56112 14.4352 5.66131C12.7284 5.90346 10.9893 5.81578 9.2712 5.80743C7.55065 5.79908 5.83007 5.79657 4.10952 5.75398C3.35355 5.73561 2.40111 5.85086 1.8125 5.24968C1.28372 4.71028 1.09373 3.80182 0.973256 3.07206C0.832572 2.22122 0.786469 1.24096 1.74458 0.907808C1.76721 0.900293 1.79067 0.893613 1.81412 0.886934C1.67505 0.630596 1.77531 0.251512 2.14077 0.275726C5.63199 0.512859 9.12967 0.475282 12.6161 0.168011C13.3712 0.101213 14.3795 -0.195206 15.0845 0.206416ZM14.9357 3.73586C14.9681 3.725 14.9834 3.71833 14.9535 3.7225C15.0651 3.7058 15.0117 3.57972 14.9357 3.73586ZM2.62346 3.29499C2.6469 3.38349 2.67034 3.47367 2.69622 3.56217C2.75039 3.46949 2.82236 3.38684 2.9113 3.32255C2.75849 3.2808 2.64367 3.19479 2.56363 3.08457C2.58626 3.16139 2.60729 3.2332 2.62346 3.29499ZM14.352 2.83909C14.4749 2.86665 14.5743 2.91675 14.6511 2.98438C14.6139 2.85496 14.5751 2.72555 14.5355 2.59696C14.4886 2.6863 14.4247 2.77063 14.352 2.83909ZM2.42456 2.38738C2.42618 2.42746 2.4294 2.46921 2.43425 2.51096C2.43991 2.46754 2.44881 2.42411 2.46094 2.38237C2.448 2.3832 2.43588 2.38571 2.42456 2.38738Z" fill="#39B100"/>
    <path d="M0.116896 6.63951C0.102214 5.93445 -0.0576711 5.24661 0.0222652 4.52108C0.117699 3.66372 0.190304 2.81863 0.480685 1.99484C0.643004 1.53463 0.933386 1.21446 1.2776 0.902469C1.54107 0.664176 1.84531 0.695282 2.15282 0.686274C2.22542 0.683818 2.298 0.66827 2.3706 0.656806C2.86735 0.578194 3.36492 0.601939 3.86656 0.613403C4.46853 0.626505 5.07294 0.689543 5.67654 0.556885C5.93755 0.499564 6.23039 0.471733 6.45959 0.731317C6.52322 0.804197 6.70346 0.795186 6.82908 0.790273C7.34622 0.769801 7.86256 0.719854 8.3797 0.712484C9.36993 0.696925 10.361 0.707576 11.352 0.69775C11.6155 0.695293 11.8789 0.637153 12.1424 0.636334C13.2175 0.633877 14.2892 0.542966 15.3651 0.538052C15.9385 0.535596 16.512 0.485655 17.0862 0.46682C17.5153 0.452081 17.9443 0.443079 18.3734 0.452086C18.7249 0.459456 19.0756 0.503663 19.4264 0.521679C19.7804 0.538875 20.1352 0.539707 20.4892 0.556085C20.7405 0.568368 20.9909 0.593751 21.2568 0.615042C21.9256 0.487297 22.5088 0.803386 23.1067 1.04741C23.2111 1.08999 23.3017 1.17842 23.3824 1.26195C23.5586 1.4421 23.7307 1.62635 23.8898 1.82125C24.0015 1.95718 24.119 2.10129 24.1793 2.26261C24.309 2.609 24.4379 2.96193 24.5072 3.32387C24.6459 4.05022 24.7577 4.78229 24.8564 5.51519C24.9436 6.16046 25.0489 6.80328 25.0228 7.4633C24.995 8.14461 25.0333 8.82837 25.0472 9.51049C25.0594 10.1042 25.0856 10.697 25.0913 11.2907C25.0953 11.6756 25.0293 12.0646 25.0733 12.4429C25.1231 12.8613 25.1312 13.265 25.0635 13.681C24.9877 14.147 24.8922 14.6129 25.013 15.0944C25.0521 15.2516 24.9852 15.4441 24.9412 15.6136C24.7626 16.2973 24.42 16.9025 24.004 17.4626C23.7633 17.7869 23.4632 18.0489 23.0292 18.0956C22.5007 18.1521 21.9737 18.2266 21.4452 18.2823C21.0928 18.32 20.7364 18.3707 20.384 18.3609C19.114 18.3233 17.8448 18.261 16.5756 18.2119C16.0389 18.1906 15.9704 18.2504 15.8912 18.781C15.8782 18.8686 15.8741 18.9603 15.8815 19.048C15.91 19.3878 15.9443 19.7268 15.9777 20.0658C16.034 20.639 15.9793 21.2221 16.1841 21.7822C16.2542 21.9763 16.2159 22.217 16.0201 22.3464C15.7404 22.5306 15.2567 22.3595 15.1751 22.0303C15.0837 21.6626 14.857 21.4014 14.6278 21.1295C14.5226 21.0051 14.4132 20.8814 14.3268 20.7447C13.8733 20.0314 13.4271 19.3133 12.9768 18.5976C12.7574 18.2487 12.4671 18.0383 12.0266 18.0653C11.6881 18.0858 11.3455 18.0768 11.0062 18.0604C10.4613 18.035 9.91804 17.9777 9.37317 17.9605C8.48653 17.9335 7.59256 17.9891 6.71326 17.8982C5.62923 17.7861 4.53541 17.7656 3.46035 17.5371C3.09575 17.4585 2.73767 17.3807 2.40487 17.2219C1.62427 16.8493 1.00272 16.3072 0.827348 15.4162C0.674 14.6326 0.546754 13.8391 0.479869 13.044C0.339572 11.3857 0.241697 9.72505 0.138921 8.06436C0.109557 7.59105 0.1275 7.11445 0.116896 6.63951ZM1.07205 11.8615C1.07531 11.9065 1.08347 11.9516 1.07695 11.995C1.00843 12.5002 1.05899 13.0014 1.14464 13.4984C1.25149 14.124 1.34449 14.7554 1.50191 15.3696C1.66831 16.0181 2.16914 16.3956 2.74582 16.6699C3.6031 17.0794 4.52887 17.1629 5.45956 17.2268C6.07784 17.2685 6.69369 17.3562 7.31279 17.3791C7.78343 17.3963 8.25651 17.3136 8.72716 17.3275C9.73126 17.3561 10.7346 17.4184 11.7378 17.4683C12.0315 17.4831 12.3121 17.4986 12.6008 17.3603C12.9891 17.1744 13.2289 17.2825 13.357 17.696C13.6196 18.5468 14.1212 19.2682 14.5756 20.0142C14.7493 20.3 15.0144 20.5309 15.2746 20.8282C15.4712 20.4998 15.45 20.205 15.4092 19.9127C15.3252 19.3133 15.2305 18.7147 15.1408 18.1161C15.1049 17.877 15.1743 17.6788 15.3611 17.5199C15.4842 17.4151 15.6099 17.3668 15.7681 17.4282C16.3293 17.6477 16.9272 17.6346 17.512 17.6698C18.1458 17.7075 18.7828 17.6804 19.4183 17.687C19.9754 17.6919 20.5357 17.7435 21.0888 17.7034C21.6573 17.6616 22.238 17.5945 22.7764 17.4217C23.1027 17.316 23.4273 17.0376 23.6296 16.7494C23.9126 16.3465 24.0945 15.8699 24.1508 15.3589C24.221 14.7292 24.3213 14.1019 24.3955 13.4722C24.4208 13.2528 24.4061 13.0284 24.4134 12.8065C24.4297 12.3176 24.4542 11.8279 24.4632 11.3382C24.4746 10.7445 24.4844 10.15 24.473 9.55553C24.4599 8.85867 24.3979 8.16098 24.4045 7.46412C24.4134 6.40204 24.203 5.36943 24.039 4.32946C23.9689 3.89136 23.915 3.4418 23.7715 3.02663C23.4501 2.09393 22.8587 1.46912 21.809 1.3381C20.7054 1.20134 19.6034 1.15221 18.4949 1.15713C18.1711 1.15795 17.8481 1.10226 17.5242 1.08997C17.1107 1.07442 16.6963 1.06705 16.2828 1.07278C15.4271 1.08425 14.5707 1.09982 13.715 1.12602C12.9189 1.15059 12.1236 1.19644 11.3275 1.221C10.9442 1.23247 10.5592 1.21528 10.1758 1.21119C9.05182 1.20054 7.92779 1.17842 6.80379 1.1817C6.03868 1.18416 5.27277 1.23574 4.50767 1.23738C3.93343 1.23901 3.35839 1.17678 2.78415 1.17842C1.88691 1.18088 1.07123 1.75982 0.907282 2.62783C0.800428 3.19367 0.698461 3.771 0.695198 4.34339C0.687041 5.59136 0.71641 6.84096 0.780848 8.08729C0.846102 9.34755 0.972538 10.6037 1.07205 11.8615Z" fill="#251C1C"/>
    <path d="M50.2724 48.3689C50.1199 48.1806 50.0213 47.9743 49.9406 47.7456C49.9181 47.6873 49.9002 47.62 49.8778 47.5483C49.8329 47.5169 49.7926 47.4855 49.7432 47.4541C49.7343 47.4496 49.7298 47.4452 49.7208 47.4407C49.5056 47.8263 49.2813 48.2075 49.0347 48.5797C49.0482 48.5976 49.0616 48.6156 49.0751 48.638C49.5818 49.5483 49.9047 50.5349 50.0437 51.5663C50.111 52.073 50.1065 52.5618 50.0392 53.0686C49.9719 53.5887 49.7791 54.0686 49.6536 54.5753C49.6356 54.647 49.528 54.6157 49.5459 54.5439C49.6491 54.0551 49.5908 53.5573 49.5549 53.0686C49.519 52.5977 49.4473 52.1223 49.3531 51.6605C49.1917 50.8578 48.8957 50.0954 48.4786 49.3914C48.4473 49.4317 48.4159 49.4766 48.389 49.5169C48.528 49.7501 48.6446 49.9743 48.7118 50.203C48.8598 50.7187 48.8867 51.0057 48.9271 51.5125C49.0078 52.5259 48.9899 53.5528 48.8688 54.5663C48.6894 56.0865 48.2096 57.7009 47.5235 59.1583C47.7028 59.2256 47.7567 59.387 47.7163 59.526C47.7163 59.6112 47.6849 59.7009 47.6221 59.7637C47.6132 59.7906 47.5997 59.8175 47.5863 59.8444C47.4876 60.0238 47.2455 60.1449 47.0392 60.1045C46.7073 60.6965 46.3396 61.2615 45.936 61.7996C46.0122 61.8758 46.0661 61.979 46.0795 62.1001C46.0974 62.266 46.1692 62.3916 46.1244 62.5664C46.0885 62.7234 46.0078 62.8714 45.936 63.0149C45.8239 63.2436 45.7028 63.4633 45.5728 63.6741C45.2947 64.1315 44.9539 64.5485 44.5907 64.9432C43.2992 66.3557 41.7028 67.4544 40.1153 68.4993C39.1826 69.1136 38.2363 69.7101 37.2318 70.1944C36.456 70.5666 35.2453 70.8042 34.8506 71.6652C34.8192 71.7325 34.7161 71.6832 34.7341 71.6159C34.7654 71.5172 34.8013 71.4231 34.8462 71.3379C34.6175 71.6114 34.4022 71.8984 34.2363 72.2123C34.0435 72.5711 33.9179 72.9478 33.7878 73.3244C33.743 73.4545 33.6982 73.5845 33.6533 73.7146C33.6892 73.7908 33.7251 73.8715 33.7565 73.9523C33.8013 73.9523 33.8461 73.9343 33.8731 73.8895C34.1376 73.4052 34.5771 73.0509 35.0031 72.7101C35.4516 72.3469 35.9045 72.0016 36.3843 71.6787C37.2812 71.0733 38.205 70.5217 39.1467 69.9881C41.1557 68.849 43.1288 67.6024 44.9405 66.1629C45.4427 65.7638 45.9181 65.3512 46.3755 64.9118C46.38 64.9118 46.3844 64.9028 46.3889 64.8983C47.5773 63.6606 48.5549 62.2481 49.3038 60.6965C50.25 58.7323 50.815 56.5664 50.9495 54.387C51.0168 53.2973 50.9899 52.1986 50.8464 51.1178C50.7253 50.1896 50.5011 49.2748 50.2724 48.3689Z" fill="#EF4036"/>
    <path d="M39.6133 68.0192C40.3891 67.4318 41.1604 66.8399 41.8914 66.1986C42.5999 65.5797 43.2771 64.9161 43.8286 64.1492C43.8376 64.1358 43.8466 64.1223 43.8555 64.1089C43.6313 64.3197 43.3981 64.5214 43.1604 64.7232C41.5057 66.1089 39.6537 67.2345 37.9496 68.5619C37.111 69.2166 36.2411 69.8713 35.4922 70.6292C35.9047 70.3377 36.4025 70.1269 36.8285 69.8892C37.8106 69.3466 38.7209 68.6919 39.6133 68.0192Z" fill="#EF4036"/>
    <path d="M32.6626 70.544C32.4698 70.1493 32.259 69.7592 32.0617 69.3646C31.8241 68.8982 31.6626 68.3915 31.4384 67.9116C31.1559 67.2973 30.8196 66.7053 30.4384 66.1403C30.3756 66.1403 30.3173 66.1224 30.268 66.0865C30.1873 66.0596 30.1155 65.9968 30.0752 65.9206C30.0527 65.9026 30.0303 65.8847 30.0124 65.8578C29.9048 65.7367 29.8599 65.5484 29.9003 65.3825C29.3173 64.6067 28.6626 63.8757 27.9854 63.1986C26.2993 61.5035 24.2858 60.064 22.528 58.4093C22.4428 58.4317 22.3486 58.4452 22.2544 58.4496C22.2679 58.5034 22.2813 58.5573 22.2858 58.6156C22.2948 58.629 22.3037 58.6424 22.3127 58.6559C22.4293 58.8398 22.3576 59.0192 22.223 59.0954C22.1647 59.1582 22.0795 59.1985 21.9943 59.203C21.9674 59.2165 21.9405 59.2254 21.9136 59.2344C21.6849 59.3062 21.3665 59.1895 21.2813 58.9429C21.2185 58.759 21.1423 58.5797 21.0526 58.4048C20.9853 58.2702 21.0122 58.1357 21.0885 58.0326C21.075 57.786 21.4203 57.6066 21.6445 57.8263C21.6535 57.8353 21.6625 57.8442 21.667 57.8532C21.7297 57.8667 21.7925 57.8891 21.8553 57.9205C21.8867 57.9384 21.9136 57.9564 21.9405 57.9788C21.9585 57.9474 21.9719 57.9205 21.9898 57.8891C21.1244 57.0236 20.3396 56.0864 19.7073 55.0236C19.4876 54.6514 19.2858 54.2657 19.1109 53.8666C19.1064 53.8621 19.1019 53.8576 19.0974 53.8532C19.0212 53.8083 18.9674 53.7321 18.9449 53.6469C18.927 53.6244 18.9136 53.602 18.9001 53.5706C18.8463 53.4675 18.8284 53.333 18.8553 53.2119C18.5145 52.2388 18.3485 51.2298 18.4472 50.2298C18.344 50.1087 18.2454 49.9876 18.1467 49.8665C18.1198 49.9697 18.0884 50.0683 18.066 50.1625C17.9853 50.4764 17.9091 50.7814 17.8866 51.1087C17.8418 51.7634 17.8956 52.4271 18.0346 53.0639C18.3216 54.3733 18.9719 55.6469 19.8822 56.629C19.9629 56.7142 19.8463 56.8218 19.7566 56.7545C18.5862 55.8442 17.788 54.6155 17.3799 53.1895C17.1736 52.4764 17.0884 51.7455 17.0795 51.0056C17.0705 50.3733 17.0122 49.454 17.4965 48.9786C17.2857 48.6647 17.0839 48.3419 16.9001 48.01C16.788 48.0504 16.6803 48.1087 16.5862 48.1804C16.5682 48.2208 16.5548 48.2656 16.5413 48.3105C16.3709 48.8575 16.2992 49.4181 16.2633 49.9876C16.1826 51.3285 16.3081 52.7365 16.6579 54.046C16.7521 54.324 16.8552 54.5976 16.9674 54.8666C17.4651 56.064 18.1243 57.1537 18.8867 58.1671C18.8867 58.1671 18.8867 58.1671 18.8867 58.1716C19.353 58.7411 19.8508 59.2792 20.371 59.7815C21.8598 61.221 23.51 62.4856 25.102 63.8129C26.4339 64.925 27.6536 66.1538 28.8644 67.396C29.3532 67.8578 29.8285 68.3332 30.2859 68.8264C30.2859 68.8264 30.2904 68.8309 30.2949 68.8354C30.7792 69.3153 31.2501 69.8085 31.6357 70.3825C31.6851 70.4543 31.7299 70.5215 31.7747 70.5933C32.4474 71.4812 33.0438 72.4274 33.5326 73.4454C33.6313 73.4633 33.7434 73.4095 33.7793 73.3198C33.7927 73.2839 33.7927 73.2436 33.7793 73.1987C33.4564 72.2884 33.0887 71.4095 32.6626 70.544Z" fill="#39B100"/>
    <path d="M31.1153 100.45C31.6175 100.805 32.4696 100.764 33.0301 100.778C33.7028 100.796 34.5189 100.926 35.1154 100.563C35.3396 100.733 35.5728 100.881 35.8015 100.998C36.4024 101.307 37.0705 101.486 37.7477 101.513C37.7836 101.531 37.8239 101.545 37.8688 101.549C38.0481 101.563 38.2275 101.567 38.4024 101.558C38.5324 101.563 38.6625 101.563 38.797 101.554C38.8733 101.549 38.9271 101.522 38.9719 101.486C39.1244 101.455 39.2769 101.415 39.4248 101.365C39.4473 101.356 39.4652 101.347 39.4876 101.334C39.6894 101.598 39.8957 101.859 40.1154 102.11C40.5639 102.625 41.0571 103.119 41.5953 103.545C41.6356 103.554 41.6805 103.558 41.7208 103.567C42.9944 104.343 44.555 104.697 46.0213 104.374C47.4877 104.051 48.7747 102.935 49.2277 101.491C49.4833 100.675 49.416 99.7733 49.0797 98.993C49.981 98.6791 50.851 98.2576 51.6761 97.7823C52.5416 97.2845 53.3667 96.724 54.1425 96.0962C54.4116 95.8809 54.6717 95.6567 54.9228 95.419C54.9273 95.437 54.9318 95.4549 54.9408 95.4728C54.9497 95.4639 54.9587 95.4549 54.9677 95.4459C54.9632 95.428 54.9587 95.41 54.9542 95.3921C55.0529 95.2979 55.1515 95.2038 55.2502 95.1006L55.2547 95.0961C55.2591 95.1006 55.2592 95.1096 55.2636 95.1141C55.313 95.0558 55.3623 94.9975 55.4071 94.9392C55.5955 94.7464 55.7838 94.549 55.8959 94.3158C55.9811 94.2037 56.0663 94.0872 56.1471 93.9661C57.2682 92.3607 58.0484 90.5176 58.5417 88.6252C59.5058 84.9525 59.5283 80.8582 58.322 77.2169C61.3938 72.0868 64.4028 66.9163 67.3535 61.719C70.2728 56.5709 73.1787 51.4049 75.9231 46.1582C78.5196 41.194 80.9322 36.1042 82.7349 30.7903C83.6318 28.1445 84.3672 25.4494 84.8874 22.7049C84.9547 22.3372 85.0264 21.9695 85.0892 21.5973C85.2058 20.9157 85.3134 20.2296 85.4076 19.5435C85.4883 18.9426 85.5556 18.3372 85.6049 17.7318C85.6811 16.7676 85.717 15.799 85.6856 14.8394C85.6587 14.0277 85.569 13.207 85.3807 12.4133C85.3672 12.3505 85.3493 12.2833 85.3313 12.2205C85.2237 11.8079 85.0892 11.4088 84.9232 11.0187C84.5062 10.05 83.8963 9.18455 83.0084 8.5119C82.0039 7.74507 80.7887 7.31906 79.5779 7.00067C78.394 6.68676 77.1877 6.43565 75.9814 6.23386C71.3535 5.46703 66.1158 5.52981 62.3848 8.78097C58.8466 11.8662 57.8421 16.9739 58.2547 21.4628C58.5013 24.1534 59.1875 26.7498 59.9498 29.3284C59.9588 29.3777 59.9722 29.4315 59.9946 29.4808C60.8287 32.2791 61.7435 35.0639 62.2906 37.9294C63.2368 42.907 63.2682 48.0775 62.4296 53.0731C61.5866 58.1091 59.905 62.9656 57.4475 67.441C56.9677 68.3155 56.4789 69.181 55.9587 70.0285C55.6762 69.0419 55.3668 68.0644 55.0843 67.0868C54.7973 66.1047 54.5103 65.1181 54.2143 64.136C54.3309 63.8446 54.1919 63.589 53.9811 63.3558C53.6762 62.3378 53.3623 61.3154 53.0484 60.3019C52.6492 59.0194 52.2457 57.7368 51.8465 56.4543C51.8241 56.3781 51.7793 56.3288 51.7255 56.2974C51.7927 55.8983 51.851 55.4947 51.8959 55.0911C52.1246 52.9475 52.0214 50.6201 51.3129 48.5484C51.2501 48.2031 51.1156 47.8533 50.99 47.5349C50.8824 47.0057 50.6985 46.5035 50.4429 46.0282C51.1963 44.3465 51.6941 42.5573 51.8779 40.7321C51.9856 39.6738 51.9811 38.602 51.8645 37.5437C51.721 36.2567 51.3936 35.019 51.0573 33.7724C50.6941 32.427 50.4115 31.0952 50.3667 29.7005C50.3263 28.3014 50.4295 26.9023 50.3174 25.5077C50.2636 24.8126 50.1604 24.122 49.9721 23.4494C49.8958 23.1624 49.5999 23.0144 49.3174 23.0771C46.3935 23.7588 43.7926 25.4583 41.9495 27.8126C39.3621 25.9651 36.1961 25.0816 33.0481 25.1669C33.0256 25.1669 33.0032 25.1624 32.9808 25.1624C32.936 25.1624 32.8911 25.1669 32.8507 25.1713C30.8911 25.2521 28.9359 25.705 27.1421 26.5436C25.9 27.122 24.8237 27.9113 23.7699 28.7813C22.7385 29.6333 21.6353 30.6243 20.299 30.9472C19.6936 31.0907 19.0703 31.0324 18.5053 30.7723C17.8236 30.4539 17.2496 29.9472 16.5904 29.5795C15.5725 29.0145 14.1285 28.853 13.2227 29.7319C12.6083 30.3239 12.6531 31.1669 12.9267 31.9158C13.2765 32.871 13.6487 33.8172 14.0119 34.7634C14.7025 36.5796 15.3976 38.3957 16.0882 40.2164C15.9985 40.3554 15.9671 40.5258 16.0433 40.6917C15.3752 42.5841 15.4648 44.6918 16.2182 46.5483C16.2496 46.629 16.2855 46.7098 16.3214 46.7905C15.7653 47.647 15.6173 48.8399 15.6218 49.795C15.6263 50.2883 15.6666 50.7771 15.7384 51.2569C15.7518 51.5394 15.7743 51.8175 15.8146 52.0955C15.7474 52.1179 15.6891 52.1628 15.6397 52.239C15.0657 53.0955 14.5411 54.0014 14.124 54.9431C14.0837 55.0417 14.0388 55.1359 13.9985 55.2346C13.7473 55.7144 13.5141 56.2032 13.2989 56.7009C13.2361 56.7772 13.1958 56.8669 13.1868 56.9655C12.7473 58.0283 12.3931 59.127 12.1016 60.2436C11.9132 60.7997 11.7249 61.3557 11.5365 61.9118C11.4648 62.1225 11.5007 62.3333 11.6038 62.5082C11.1643 64.858 10.9446 67.2616 10.7876 69.598C10.7204 70.589 10.6621 71.5756 10.6128 72.5667C7.88178 75.2348 6.92661 79.5443 6.75172 83.2439C6.51405 88.3158 7.93559 93.7912 12.0836 97.0468C13.1554 97.8899 14.3258 98.5536 15.6263 98.9706C16.1465 99.1365 16.698 99.2352 17.2496 99.2845C17.4424 99.3204 17.6353 99.3563 17.8281 99.3832C18.003 99.4101 18.2317 99.4594 18.4649 99.4908C18.429 99.9034 18.4694 100.325 18.5905 100.72C18.9447 101.885 19.9044 102.684 21.0075 103.123C23.1197 103.966 26.2901 103.72 27.5009 101.527C27.6175 101.316 27.7072 101.096 27.7789 100.876C27.9718 100.921 28.1736 100.939 28.3305 100.957C28.8955 101.02 29.4651 101.029 30.0256 100.926C30.4337 100.859 30.8059 100.693 31.1153 100.45ZM37.8284 100.325C37.7656 100.325 37.7163 100.334 37.6714 100.356C37.371 100.334 37.075 100.271 36.788 100.177C36.1378 99.9617 35.4024 99.5267 35.0526 98.9168C34.6535 98.2173 35.1557 97.4549 35.6849 96.993C36.0391 96.6791 36.4472 96.4414 36.8553 96.2038C37.1064 96.9258 37.3844 97.6657 37.6984 98.3832C38.0257 99.0513 38.3889 99.706 38.7925 100.334C38.4652 100.325 38.1468 100.325 37.8284 100.325ZM61.8915 31.6916C61.914 31.723 61.9409 31.7589 61.9678 31.7903C61.9812 31.8934 61.9947 31.9966 62.0171 32.0997C61.9723 31.9652 61.9319 31.8306 61.8915 31.6916ZM56.2457 71.0868C59.2458 67.024 61.3534 62.3737 62.6673 57.5036C63.9723 52.6605 64.4566 47.5753 64.0799 42.5752C64.044 42.1088 64.0037 41.6379 63.9499 41.1716C64.349 41.6918 65.192 41.6873 65.7929 41.7545C66.4163 41.8218 67.0396 41.8442 67.6629 41.759C68.9096 41.5841 70.0441 40.7545 70.1562 39.4316C70.2549 38.2433 69.2414 37.4406 68.1652 37.2836C68.0127 37.2612 67.8647 37.2477 67.7212 37.2433C67.7078 37.2298 67.6988 37.2164 67.6853 37.2074C67.1068 36.6603 66.2862 36.8576 65.7346 37.3285C65.6674 37.3868 65.6046 37.4451 65.5418 37.5078C65.2055 37.5392 64.8647 37.5213 64.5642 37.3868C64.2682 37.2522 63.9902 37.3464 63.8243 37.5303C63.6898 37.4675 63.5328 37.4406 63.3848 37.4451C63.2234 36.6334 63.044 35.8307 62.8377 35.028C62.627 34.2073 62.3938 33.3957 62.1561 32.5885C62.1875 32.6602 62.2189 32.7275 62.2593 32.7948C62.7391 33.584 63.9992 33.8262 64.8422 33.8531C65.8019 33.8845 66.7616 33.6334 67.6539 33.306C68.5643 32.9697 69.4746 32.5705 70.3311 32.1131C71.2056 31.6423 72.0352 31.01 72.524 30.1266C72.9724 29.3149 73.1383 28.2925 72.6989 27.4404C72.5195 27.0907 72.237 26.8037 71.8782 26.6377C71.2908 26.3732 70.7257 26.548 70.1742 26.8037C69.8872 26.9382 69.6002 27.0637 69.3087 27.1848C69.1562 27.1579 69.0037 27.14 68.8558 27.131C68.1427 27.0907 67.3804 27.2969 66.784 27.6916C66.6181 27.7992 66.4611 27.9203 66.3176 28.0548C64.5463 28.3687 62.6763 28.3777 60.9274 28.0593C60.8781 28.0503 60.8332 28.0503 60.7884 28.0503C60.6763 27.6557 60.5642 27.2655 60.4565 26.8709C60.3041 26.3148 60.165 25.7543 60.035 25.1848C60.1785 25.2924 60.3579 25.3686 60.5821 25.418C61.3355 25.5794 62.1202 25.6512 62.8871 25.7229C65.8916 26.0009 68.9454 25.7857 71.8872 25.1086C73.2594 24.7946 74.6496 24.3821 75.8693 23.6601C76.9545 23.0144 78.264 21.8933 77.9456 20.4628C77.5868 18.8394 75.4074 19.0905 74.1608 19.086C72.6181 19.0816 71.0755 19.1444 69.5284 19.1264C67.8333 19.1085 66.1831 18.9201 64.5328 18.5345C63.6808 18.3327 62.8377 18.0995 61.9857 17.9067C61.1337 17.7093 60.2772 17.5165 59.4251 17.3237C59.609 15.7407 60.0305 14.1891 60.7749 12.7182C61.7794 10.7272 63.3445 9.13075 65.3579 8.15764C67.4118 7.16211 69.7526 6.89754 72.0128 6.96032C74.3895 7.02759 76.7527 7.45808 79.0532 8.04553C80.2191 8.3415 81.421 8.70923 82.3806 9.45812C83.2551 10.1397 83.8291 11.1128 84.1475 12.1667C84.847 14.4716 84.5555 17.0232 84.273 19.3731C83.9457 22.0502 83.3762 24.7005 82.6452 27.2924C81.1474 32.5885 78.9501 37.6513 76.4971 42.5662C73.9455 47.6739 71.1473 52.6605 68.3535 57.6382C65.4252 62.8535 62.4386 68.0374 59.3937 73.181C58.8646 74.0779 58.3309 74.9748 57.7928 75.8716C57.7525 75.7864 57.7166 75.6967 57.6807 75.6115C57.4385 75.0824 57.1695 74.5667 56.8511 74.0824C56.8601 74.0465 56.8601 74.0061 56.8556 73.9658C56.7121 73.0016 56.4923 72.0509 56.2412 71.1047C56.2412 71.0913 56.2457 71.0868 56.2457 71.0868ZM62.7077 29.3956C62.9095 29.4225 63.1113 29.4494 63.3176 29.4674C63.2727 29.5436 63.2324 29.6243 63.2055 29.7095C63.192 29.7499 63.1786 29.7903 63.1696 29.8351C63.0171 29.6781 62.8646 29.5346 62.7077 29.3956ZM65.4835 32.4495C65.5194 32.3867 65.5508 32.3194 65.5642 32.2522C65.6091 32.2432 65.6584 32.2387 65.7032 32.2342C65.923 32.288 66.1472 32.3105 66.358 32.2925C66.1741 32.3419 65.9902 32.3822 65.8019 32.4181C65.7167 32.436 65.627 32.4495 65.5373 32.4584C65.5239 32.4584 65.5014 32.4539 65.4835 32.4495ZM66.7526 29.6871C66.7616 29.6557 66.766 29.6288 66.775 29.6019C66.784 29.575 66.7974 29.5481 66.8064 29.5212C66.8378 29.4988 66.8692 29.4808 66.9006 29.4584C66.8468 29.5301 66.7974 29.6064 66.7526 29.6871ZM70.9544 27.9427C71.1159 27.8709 71.2728 27.8171 71.4074 27.9427C71.2728 27.9472 71.1383 27.9561 71.0038 27.9741C70.9858 27.9651 70.9679 27.9516 70.9544 27.9427ZM67.9051 24.0189C67.9903 23.9606 68.071 23.8978 68.1472 23.8305C68.34 23.8619 68.5284 23.8798 68.7123 23.9023C68.7661 23.9067 68.8244 23.9112 68.8782 23.9157C68.5553 23.9561 68.228 23.9919 67.9051 24.0189ZM74.6002 20.7632C74.7437 20.7632 74.8828 20.7677 75.0263 20.7722C74.8962 20.7811 74.7706 20.7991 74.6451 20.826C74.6316 20.8036 74.6137 20.7811 74.6002 20.7632ZM76.2998 20.8529C76.2998 20.8484 76.2998 20.8484 76.2998 20.8439C76.3133 20.8394 76.3222 20.8439 76.3267 20.8529C76.3177 20.8574 76.3088 20.8529 76.2998 20.8529C76.2998 20.8574 76.2998 20.8619 76.3043 20.8664C76.3043 20.8664 76.3088 20.8664 76.3133 20.8664C76.3178 20.8664 76.3222 20.8664 76.3267 20.8664C76.3267 20.8753 76.3222 20.8843 76.3133 20.8978C76.3133 20.8843 76.3088 20.8753 76.3088 20.8664C76.3043 20.8664 76.2998 20.8664 76.2998 20.8664C76.2998 20.8708 76.2998 20.8798 76.2998 20.8843C76.2998 20.8933 76.2998 20.8977 76.2998 20.9067C76.2953 20.9246 76.2415 21.0726 76.2415 21.0771C76.2056 21.1489 76.1653 21.2206 76.1204 21.2924C76.0397 21.0188 75.811 20.8439 75.542 20.7901C75.5823 20.7901 75.6227 20.7901 75.6585 20.7946C75.9007 20.8036 76.116 20.7991 76.2864 20.8574C76.2908 20.8529 76.2953 20.8529 76.2998 20.8484V20.8529C76.2953 20.8529 76.2953 20.8529 76.2998 20.8529ZM33.6579 73.7146C33.6176 73.625 33.5772 73.5353 33.5324 73.4501C33.0436 72.4321 32.4472 71.4859 31.7745 70.598C31.3126 69.9881 30.8193 69.4007 30.2947 68.8401C30.2947 68.8401 30.2902 68.8356 30.2857 68.8312C29.8283 68.3379 29.3529 67.8625 28.8642 67.4006C27.9359 66.5262 26.9628 65.6921 25.9807 64.8849C23.4964 62.84 20.8461 60.7638 18.8909 58.1808C18.8909 58.1808 18.8909 58.1808 18.8909 58.1763C18.1241 57.1628 17.4694 56.0731 16.9716 54.8758C16.8595 54.6067 16.7563 54.3287 16.6622 54.0552C16.3169 52.7502 16.1913 51.3421 16.2676 49.9968C16.3034 49.4273 16.3752 48.8623 16.5456 48.3197C16.559 48.2748 16.5725 48.2345 16.5904 48.1896C16.6442 48.0461 16.7025 47.9071 16.7743 47.7815C16.8191 47.8622 16.8595 47.943 16.9043 48.0192C17.0882 48.3511 17.29 48.6739 17.5007 48.9878C17.0164 49.4677 17.0702 50.3825 17.0837 51.0148C17.0927 51.7547 17.1824 52.4856 17.3842 53.1987C17.7922 54.6202 18.5905 55.8489 19.7609 56.7637C19.8506 56.831 19.9672 56.7234 19.8864 56.6382C18.9761 55.6561 18.3304 54.3825 18.0389 53.0731C17.8999 52.4363 17.8416 51.7726 17.8909 51.1179C17.9133 50.795 17.9896 50.4856 18.0703 50.1717C18.0972 50.073 18.1241 49.9744 18.151 49.8757C18.2496 49.9968 18.3483 50.1224 18.4514 50.239C19.021 50.9161 19.6532 51.5439 20.3349 52.1179C23.9044 55.1359 28.7341 56.7503 33.3844 56.7996C37.9854 56.8445 42.5056 55.2928 45.9406 52.2076C46.842 51.4004 47.6626 50.4946 48.3891 49.5215C48.4205 49.4811 48.4519 49.4408 48.4788 49.3959C48.8958 50.0955 49.1918 50.8578 49.3532 51.665C49.4429 52.1269 49.5192 52.6067 49.555 53.0731C49.5909 53.5664 49.6537 54.0641 49.5461 54.5485C49.5326 54.6202 49.6402 54.6516 49.6537 54.5798C49.7792 54.0731 49.9721 53.5933 50.0393 53.0731C50.1066 52.5619 50.1111 52.0776 50.0438 51.5708C49.9048 50.5349 49.5819 49.5529 49.0752 48.6425C49.0617 48.6201 49.0528 48.6022 49.0348 48.5842C49.277 48.212 49.5057 47.8353 49.7209 47.4452C49.7434 47.4048 49.7658 47.369 49.7882 47.3286C49.8241 47.3959 49.851 47.4766 49.8779 47.5528C49.9003 47.6201 49.9183 47.6918 49.9407 47.7501C50.0214 47.9788 50.1201 48.1851 50.2725 48.3735C50.5012 49.2793 50.7254 50.1941 50.8465 51.1179C50.99 52.1986 51.0214 53.2973 50.9497 54.387C50.8107 56.5619 50.2501 58.7279 49.3039 60.6965C48.555 62.2526 47.5729 63.6652 46.3891 64.8984C46.3846 64.9074 46.3801 64.9118 46.3756 64.9118C46.0483 65.2526 45.703 65.58 45.3442 65.8939C43.5774 67.432 41.5504 68.6294 39.5683 69.8626C37.5459 71.1227 35.51 72.4456 33.8552 74.181C33.8239 74.1048 33.7925 74.0286 33.7566 73.9523C33.7297 73.8671 33.6938 73.7909 33.6579 73.7146ZM32.5055 27.4315C32.5055 27.4449 32.501 27.4629 32.501 27.4763C32.4965 27.4943 32.4965 27.5122 32.492 27.5346C32.4786 27.5122 32.4651 27.4898 32.4561 27.4673C32.4741 27.4584 32.492 27.4449 32.5055 27.4315ZM15.3527 35.3329C15.0478 34.5347 14.7429 33.732 14.4334 32.9293C14.2855 32.5392 14.133 32.149 13.9895 31.7589C13.8729 31.4495 13.6846 31.0593 13.8101 30.7275C13.9446 30.3598 14.4021 30.2252 14.7518 30.1938C15.3438 30.14 15.8415 30.3732 16.3348 30.6826C16.9088 31.0414 17.4424 31.4674 18.0613 31.7454C18.6846 32.028 19.3618 32.1535 20.0434 32.0728C21.3842 31.9114 22.5232 31.1311 23.5591 30.3149C24.5861 29.5122 25.5412 28.6378 26.6758 27.9831C27.4605 27.5301 28.2857 27.1714 29.1422 26.8934C29.1511 27.1714 29.0929 27.4449 29.1018 27.7274C29.1108 28.1041 29.1915 28.4853 29.3081 28.844C29.4112 29.1714 29.5099 29.5481 29.752 29.8037C30.057 30.1176 30.5548 30.1983 30.9359 29.9741C31.3261 29.7454 31.501 29.297 31.5772 28.8261C31.7835 29.1893 32.0301 29.5212 32.2857 29.7857C32.6355 30.1445 33.3261 30.0862 33.5638 29.6198C33.6893 29.3777 33.7925 29.131 33.8777 28.8754C34.0346 29.1669 34.2947 29.3732 34.7342 29.4136C35.0122 29.436 35.2589 29.2431 35.4024 29.0279C35.7477 28.5122 35.9181 27.8799 35.9898 27.27C36.0212 27.0099 36.0391 26.714 35.9988 26.4404C38.0571 26.8081 40.0347 27.6333 41.685 28.9203C41.963 29.14 42.2859 29.1086 42.4966 28.8171C44.0841 26.5974 46.4384 24.992 49.0573 24.261C49.564 26.714 49.0617 29.2745 49.4564 31.7499C49.6537 32.9876 49.9766 34.1894 50.2411 35.4047C49.9362 35.4181 49.6178 35.4854 49.3263 35.5123C48.8779 35.5571 48.4295 35.5796 47.999 35.7141C47.2142 35.9607 46.4877 36.5347 46.1604 37.3016C45.9899 37.6962 46.0079 38.2612 46.4698 38.4765C47.2904 38.8576 48.1424 39.1132 49.0483 39.1805C49.5819 39.2209 50.2097 39.1805 50.6851 38.9204C50.6851 39.3375 50.6627 39.759 50.6268 40.1761C50.0932 40.1536 49.573 40.1133 49.0573 40.3016C48.5505 40.4855 48.1245 40.777 47.6985 41.1043C47.259 41.4407 46.8465 41.7904 46.6805 42.342C46.4967 42.9519 46.7164 43.5886 47.1111 44.055C47.6581 44.7052 48.6537 45.0147 49.4967 44.8174C49.0797 45.8533 48.5595 46.8443 47.9541 47.7771C47.4743 48.508 46.9451 49.2031 46.3666 49.8488C43.528 53.0193 39.6177 54.961 35.3844 55.3467C31.0211 55.7503 26.5368 54.665 22.8327 52.3332C21.1555 51.2793 19.6398 49.9654 18.4514 48.378C18.3214 48.2076 18.2003 48.0282 18.0792 47.8533C17.994 47.7277 17.9133 47.6021 17.8326 47.4721C18.1824 47.5214 18.5456 47.508 18.8864 47.4632C19.3752 47.4004 19.8281 47.2569 20.2721 47.0371C20.7026 46.8174 21.1824 46.499 21.3169 46.0102C21.6488 44.8039 20.2228 44.2927 19.308 44.1626C18.8192 44.0954 18.3393 44.1043 17.8461 44.1626C17.4649 44.2075 17.0478 44.2747 16.6936 44.4452C16.6936 44.212 16.6398 43.9878 16.5994 43.7501C16.577 43.6156 16.559 43.4855 16.5456 43.351C17.4828 43.4945 18.4604 43.5124 19.3976 43.3734C20.308 43.2389 21.5322 42.7635 21.3439 41.62C21.1734 40.5617 19.9985 40.4451 19.142 40.333C18.7564 40.2792 18.3707 40.2523 17.9851 40.1895C17.6981 40.1446 17.42 40.0684 17.1375 40.0012C16.5411 38.4406 15.9447 36.889 15.3527 35.3329ZM8.64412 78.3425C8.67103 78.3918 8.69794 78.4412 8.72933 78.4905C8.69345 78.4771 8.65309 78.4725 8.61722 78.4681C8.62619 78.4277 8.63515 78.3829 8.64412 78.3425ZM26.6937 100.267C26.2632 100.944 25.6937 101.491 25.1645 102.083C24.9807 102.163 24.7923 102.226 24.5995 102.276C23.03 102.679 20.6398 102.352 19.8012 100.773C19.6757 100.536 19.595 100.276 19.568 100.011C19.5994 99.8854 19.6308 99.7644 19.6712 99.6523C19.8102 99.289 20.0389 98.9661 20.3169 98.6926C20.6264 98.3877 20.9761 98.141 21.3304 97.8944C21.6936 97.6343 22.0927 97.2979 22.5053 97.1365C22.6174 97.0917 22.5771 96.9302 22.456 96.9527C22.169 97.0065 21.8865 96.9706 21.5995 97.0154C21.3259 97.0558 21.0524 97.1141 20.7923 97.2128C20.5591 97.298 20.3349 97.4101 20.1241 97.5401C19.5411 95.0602 19.0837 92.5535 18.7474 90.0333C18.8281 90.0422 18.9133 90.0467 18.994 90.0512C19.6622 90.0826 20.3349 90.0153 20.9896 89.8853C21.6219 89.7597 22.3573 89.5759 22.882 89.1857C23.4515 88.7642 23.6578 88.0467 23.4425 87.374C23.2363 86.7193 22.7026 86.2799 22.0748 86.0467C21.4829 85.8269 20.8147 85.7821 20.1869 85.7462C19.5546 85.7103 18.9133 85.6834 18.2855 85.7731C18.2631 85.4816 18.2407 85.1902 18.2182 84.8987C18.6801 84.9121 19.1958 84.7731 19.6398 84.6969C20.0972 84.6161 20.5501 84.5175 20.9896 84.3695C21.8596 84.078 23.2138 83.5354 23.465 82.5354C23.6488 81.8044 23.2587 81.1991 22.5905 80.93C22.0927 80.7282 21.577 80.5623 21.0703 80.3829C20.5546 80.199 20.0389 80.0152 19.5187 79.8538C19.0209 79.6968 18.5097 79.5712 18.0075 79.6923C17.9985 78.9928 17.9985 78.2887 18.0075 77.5847C18.0299 75.6429 18.1017 73.7102 18.2855 71.7729C18.3169 71.4142 17.7743 71.4276 17.7339 71.7729C17.3169 75.2348 17.0478 78.7192 17.1151 82.2036C17.1824 85.6431 17.4873 89.0781 18.0209 92.4773C18.299 94.2576 18.6443 96.0244 19.0479 97.7823C19.012 97.7778 18.9806 97.7778 18.9447 97.7778C14.4648 98.0513 11.1957 94.1051 9.4244 90.4638C9.21364 90.0333 9.01632 89.5938 8.82349 89.1543C8.70242 88.6924 8.60376 88.2261 8.52304 87.7552C8.61273 87.7956 8.71139 87.8314 8.81004 87.8583C9.04771 87.9301 9.30332 87.975 9.49615 88.0781C9.69795 88.1857 9.84593 88.3113 10.0163 88.4682C10.4648 88.8629 10.8953 89.2709 11.4469 89.5176C12.124 89.818 12.7966 89.8404 13.4693 89.522C13.8011 89.3651 13.9805 88.8763 13.8684 88.5355C13.6487 87.8628 13.263 87.3113 12.8056 86.7776C12.3706 86.2709 12.0074 85.8135 11.6486 85.2529C11.2451 84.6251 10.7518 84.1184 10.1195 83.7238C9.83248 83.5444 9.53651 83.3874 9.21364 83.2753C9.06117 83.2215 8.90421 83.1677 8.74726 83.1273C8.5634 83.078 8.38403 83.0825 8.20017 83.0466C8.16429 83.0377 8.12842 83.0377 8.09255 83.0421C8.10151 82.5489 8.12842 82.0511 8.17326 81.5623C8.20465 81.1632 8.24053 80.7596 8.28986 80.3605C8.38852 80.4681 8.49614 80.5668 8.59031 80.652C9.0253 81.0332 9.51409 81.2663 10.0208 81.5309C11.0522 82.078 11.7563 83.0601 12.9895 83.2125C13.6801 83.2977 14.4693 83.0018 14.4962 82.1901C14.5142 81.6341 14.1106 81.0869 13.7294 80.7147C13.0209 80.0286 12.0747 79.643 11.263 79.1004C10.8146 78.7999 10.3885 78.4412 10.0074 78.0555C9.68001 77.7282 9.37508 77.3201 9.00287 77.0286C9.17776 76.4636 9.38404 75.912 9.6262 75.3739C10.3751 73.7012 11.5903 72.3559 12.8101 71.0195C12.7697 71.024 12.7249 71.0375 12.6845 71.0599C12.2765 71.2707 11.8953 71.5083 11.541 71.7729C11.55 71.3245 11.5634 70.876 11.5724 70.4276C11.5814 70.0868 11.5904 69.746 11.6038 69.4052C11.7159 69.4769 11.8549 69.5307 12.0253 69.5621C12.6083 69.6653 13.2092 69.7146 13.7967 69.7505C14.3258 69.7819 15.003 69.894 15.4873 69.6159C16.0164 69.311 16.1285 68.6697 15.8146 68.1675C15.5366 67.719 15.0074 67.4141 14.5769 67.1226C13.7159 66.5441 12.8146 66.0509 11.828 65.737C11.9177 64.7997 12.0298 63.8625 12.1778 62.9297C12.2227 62.9387 12.2675 62.9432 12.3168 62.9477C12.9222 62.9611 13.4962 63.1629 13.985 63.5127C14.5231 63.8939 14.9805 64.3782 15.5545 64.719C16.6846 65.3872 18.2855 65.7594 19.577 65.3558C20.3977 65.1002 20.882 64.3378 20.6264 63.4858C20.438 62.8625 19.9133 62.3243 19.4784 61.858C18.6667 60.9835 17.7339 60.2302 16.8236 59.4588C15.8101 58.6023 14.9222 57.6472 14.0298 56.6785C14.0568 56.6202 14.0837 56.5664 14.1106 56.5081C14.3124 56.0552 14.5186 55.6068 14.7384 55.1628C15.1016 54.4274 15.5097 53.7144 15.9626 53.0282C16.4738 55.4139 17.7339 57.6786 19.2855 59.5485C22.2138 63.0822 26.1556 65.5845 29.2991 68.9029C30.9942 70.6877 32.5144 72.746 33.2723 75.1138C33.3709 75.4232 33.7835 75.5712 34.0212 75.3111C37.3127 71.737 41.954 69.9478 45.6581 66.8805C48.6268 64.4275 50.6358 61.0463 51.5012 57.3333C51.7882 58.4723 52.0797 59.6113 52.3667 60.7503C51.2322 61.3064 50.3353 62.3647 49.8286 63.5082C49.5685 64.0912 49.2546 64.9611 49.9183 65.4096C50.4788 65.7908 51.425 65.5486 52.0304 65.3872C52.4609 65.2706 52.9901 65.1047 53.434 64.8535C53.573 65.3827 53.7165 65.9119 53.86 66.441C52.6851 66.8581 51.5371 67.3468 50.5371 68.1137C50.268 68.32 49.9272 68.5352 49.7568 68.8357C49.5281 69.2303 49.6761 69.7146 50.0752 69.9298C50.7613 70.3065 51.6896 70.0913 52.4116 69.9433C52.7927 69.8626 53.1739 69.7863 53.5551 69.7011C53.9228 69.6249 54.3219 69.5711 54.6403 69.3603C54.6493 69.3558 54.6582 69.3469 54.6717 69.3379C54.7704 69.6742 54.8645 70.015 54.9632 70.3514C55.1919 71.1361 55.4161 71.9164 55.6762 72.6877C55.6493 72.6653 55.6224 72.6429 55.5955 72.6205C54.8107 71.9747 53.8107 71.5128 52.8241 71.7819C53.7838 72.1092 54.6538 72.6653 55.3443 73.4187C56.8287 75.0376 57.4789 77.2349 57.7211 79.3963C57.156 79.6923 56.6 79.9973 56.017 80.2529C55.4161 80.5174 54.7928 80.7192 54.1829 80.9659C53.5192 81.2349 52.9138 81.5937 52.5192 82.2125C52.0618 82.9256 52.1066 83.8269 52.8869 84.2888C54.165 85.0511 55.869 84.4727 57.0439 83.791C57.3399 83.6206 57.6762 83.4368 57.9856 83.226C57.9812 84.0556 57.9318 84.8852 57.8287 85.7058C57.6493 85.7238 57.4744 85.7641 57.3264 85.8449C56.9991 86.0198 56.7166 86.2754 56.3982 86.4637C55.6314 86.9211 54.7076 86.957 53.9766 87.5041C53.1829 88.096 52.6582 89.0916 52.9273 90.0961C53.0483 90.549 53.3309 90.9032 53.6537 91.2306C54.0349 91.6162 54.4251 92.0019 54.8107 92.3831C54.5058 92.7239 54.1874 93.0513 53.86 93.3697C52.9452 94.2486 51.9452 95.0289 50.9317 95.7957C50.4429 96.1679 49.9497 96.5266 49.4474 96.8764C49.0259 97.1724 48.6178 97.4863 48.1649 97.7195C47.9586 97.5446 47.7299 97.3966 47.4788 97.28C47.2814 97.1903 47.0797 97.1186 46.8734 97.0648C46.9227 96.8675 46.972 96.6612 46.9945 96.4594C47.0707 96.289 47.1514 96.1186 47.2321 95.9482C47.4115 95.4056 47.5774 94.8629 47.7344 94.3114C48.2142 92.6163 48.5954 90.8943 48.8779 89.1588C49.1156 87.6924 49.2905 86.2081 49.3891 84.7193C49.3981 84.6924 49.407 84.67 49.416 84.6431C49.4833 84.4054 49.4609 84.1318 49.4429 83.8673C49.4922 82.8628 49.5012 81.8538 49.4788 80.8493C49.5326 80.6879 49.5326 80.513 49.4653 80.3695C49.4429 79.7461 49.4071 79.1228 49.3532 78.4995C49.1873 76.5129 48.9227 74.5129 48.3667 72.5936C48.3129 72.4052 47.99 72.4321 48.0124 72.6429C48.1873 74.3828 48.3981 76.1228 48.4877 77.8717C48.5281 78.5981 48.5505 79.3246 48.5595 80.0511C48.1514 80.0286 47.7433 80.0555 47.3442 80.1677C47.3218 80.1721 47.2994 80.1811 47.2814 80.1856C46.5505 80.1721 45.7971 80.2977 45.1334 80.4143C44.5101 80.5219 43.8868 80.6699 43.2904 80.8807C42.6312 81.1138 42.0123 81.5444 41.945 82.3022C41.824 83.6341 43.5998 84.1453 44.5729 84.5175C45.7613 84.9704 47.0572 85.2978 48.3308 85.383C48.3353 85.383 48.3398 85.383 48.3443 85.383C48.3084 85.7776 48.2635 86.1677 48.2142 86.5579C48.1245 86.531 48.0393 86.5041 47.9451 86.4817C47.6402 86.4054 47.3398 86.3516 47.0258 86.3113C46.3756 86.2216 45.7164 86.1498 45.0572 86.1453C44.4518 86.1409 43.7747 86.2081 43.2276 86.4817C42.6087 86.7866 42.2321 87.5714 42.5818 88.2171C42.8554 88.7238 43.5011 89.0288 43.9944 89.2799C44.5236 89.549 45.0796 89.7732 45.6491 89.9391C46.2366 90.1095 46.8554 90.2261 47.4698 90.2665C47.5236 90.271 47.5729 90.271 47.6223 90.2665C47.407 91.3248 47.1559 92.3786 46.8644 93.4235C46.6043 94.3517 46.3173 95.271 46.0079 96.1858C45.9227 96.4414 45.833 96.6926 45.7433 96.9437C44.9406 96.9661 44.1334 97.2083 43.4339 97.6074C43.7119 97.4818 44.0034 97.3876 44.3128 97.3428C45.3218 97.1948 46.3487 97.6432 46.9765 98.437C46.981 98.4415 46.981 98.4415 46.9855 98.446C47.1873 98.5895 47.3711 98.7554 47.5281 98.9437C48.2366 99.7913 48.2501 101.065 47.4519 101.863C47.3891 101.926 47.3218 101.989 47.2501 102.047C46.7344 102.59 45.9855 102.926 45.2456 103.011C44.8778 103.051 44.5101 103.038 44.1469 102.98C44.1962 102.944 44.241 102.908 44.2859 102.868C43.7478 102.85 43.2096 102.729 42.7119 102.504C42.7074 102.504 42.7029 102.504 42.7029 102.509C42.6626 102.491 42.6267 102.468 42.5863 102.446C42.4383 102.374 42.2948 102.294 42.1603 102.204C41.5011 101.769 40.9316 101.208 40.4338 100.572C40.2903 100.397 40.1558 100.213 40.0257 100.024C39.9226 100.024 39.8239 99.9706 39.7612 99.8361C39.6849 99.6836 39.6177 99.5267 39.5459 99.3697C39.4562 99.3563 39.3755 99.3025 39.3262 99.1814C38.936 98.271 38.5369 97.3562 38.1916 96.419C37.2723 94.1275 36.8194 91.688 36.3486 89.2709C35.7163 86.0063 35.0526 82.504 35.3575 79.1363C35.3575 79.069 35.3575 79.0062 35.3575 78.9389C35.353 77.9075 35.353 76.8089 35.501 75.7461C35.353 76.329 35.2409 76.9255 35.1602 77.5219C35.1019 77.7954 35.0481 78.0735 34.9988 78.3515C34.8687 78.208 34.7476 78.0555 34.6355 77.8986C34.2275 77.4501 33.9943 76.9254 33.8687 76.338C33.8552 76.2797 33.8104 76.0196 33.8149 75.8133C33.3664 75.8985 33.3844 76.616 33.4382 76.9434C33.483 77.2214 33.5638 77.5084 33.6714 77.782C33.9136 78.3874 34.3127 78.9389 34.8598 79.2618C34.5638 81.513 34.5907 83.8224 34.7521 86.0556C34.9763 89.1902 35.5952 92.2979 36.5593 95.2889C35.9719 95.558 35.4113 95.9347 34.9629 96.3248C34.223 96.9616 33.7162 97.9392 33.9449 98.9303C33.9853 99.1141 34.0571 99.289 34.1467 99.4549C33.7701 99.4415 33.3844 99.4774 33.0391 99.4818C32.6848 99.4863 32.2185 99.4684 31.7924 99.5446C31.8552 99.3921 31.9045 99.2262 31.9359 99.0558C32.1019 98.159 31.9225 97.2038 31.4202 96.4459C31.1467 96.0334 30.8148 95.6836 30.4382 95.3697C30.3709 95.3114 30.2992 95.2531 30.2229 95.1903C30.77 93.6208 31.2095 92.0199 31.4651 90.3696C31.5682 89.7014 31.631 89.0288 31.6579 88.3561C31.6624 88.2171 31.6669 88.0826 31.6714 87.948C32.0032 85.9346 32.1512 83.8852 32.1826 81.8672C32.1871 81.7237 32.1871 81.5802 32.1871 81.4367C32.3306 81.3291 32.4606 81.1991 32.5772 81.069C32.8328 80.782 33.057 80.4681 33.2274 80.1228C33.5682 79.4501 33.8553 78.6161 33.6131 77.8717C33.6086 77.8537 33.5996 77.8403 33.5952 77.8223C33.5458 77.7147 33.4606 77.6475 33.362 77.6205C33.3396 77.9793 33.2274 78.356 33.1691 78.5892C32.9808 79.3336 32.6579 79.9838 32.1871 80.5488C32.2005 80.1138 32.1736 79.6744 32.1602 79.2708C32.1602 79.2663 32.1602 79.2618 32.1602 79.2618C32.1377 78.4546 32.0974 77.6519 32.048 76.8447C31.9987 76.0779 30.8014 76.0734 30.8507 76.8447C31.1063 80.9255 31.1019 85.1812 30.2364 89.2216C30.2184 89.6387 30.1915 90.0602 30.1556 90.4772C29.7924 91.8988 29.3798 93.3069 28.9538 94.7015C28.3664 96.6074 27.7655 98.585 26.6937 100.267ZM53.7479 68.2841C53.6627 68.311 53.5685 68.3469 53.5282 68.3558C53.4609 68.3693 53.3892 68.3872 53.3219 68.4007C53.4519 68.3244 53.5865 68.2572 53.721 68.1899C53.73 68.2258 53.7389 68.2527 53.7479 68.2841ZM57.7031 82.1184C57.6852 82.1139 57.6673 82.1094 57.6538 82.1049C57.7076 82.0825 57.7614 82.0601 57.7031 82.1184ZM28.2991 99.8002C28.7431 98.993 29.0839 98.1141 29.4247 97.28C29.5996 96.845 29.7745 96.4056 29.9359 95.9661C30.0749 96.0692 30.2095 96.1724 30.344 96.2845C30.631 96.5266 30.918 96.7733 31.1422 97.0827C31.5682 97.6746 31.8821 98.7016 31.1422 99.2038C30.5996 99.5715 29.8552 99.7509 29.2139 99.8002C29.057 99.8137 28.6848 99.7868 28.2991 99.8002Z" fill="#251C1C"/>
    <path d="M66.3578 91.123C65.1963 90.9884 64.0618 91.0422 62.9003 91.0871C62.1156 91.1185 62.1156 92.2755 62.9003 92.3068C64.0618 92.3517 65.2008 92.4055 66.3578 92.271C67.0977 92.1858 67.0977 91.2082 66.3578 91.123Z" fill="#251C1C"/>
    <path d="M64.7614 97.885C65.5328 97.8177 65.5328 96.7505 64.7614 96.6832C62.7076 96.5083 60.6941 96.6608 58.6403 96.7325C57.9318 96.7594 57.9318 97.8087 58.6403 97.8357C60.6941 97.9074 62.7076 98.0599 64.7614 97.885Z" fill="#251C1C"/>
    <path d="M55.9811 45.6288C56.5909 45.6468 57.1963 45.6647 57.8062 45.6782C58.3847 45.6961 58.999 45.7454 59.5416 45.5122C59.9094 45.3598 59.9138 44.9113 59.5416 44.7589C58.9945 44.5302 58.3847 44.5795 57.8062 44.593C57.1963 44.6109 56.5909 44.6288 55.9811 44.6423C55.3488 44.6647 55.3488 45.6109 55.9811 45.6288Z" fill="#251C1C"/>
    <path d="M54.1204 96.6121C54.1383 96.7107 54.1607 96.8049 54.1787 96.9036C54.1787 96.8811 54.1787 96.8587 54.1787 96.8363C54.1562 96.76 54.1383 96.6838 54.1204 96.6121Z" fill="#251C1C"/>
    <path d="M45.8376 19.8304C45.3084 19.799 45.3398 20.5703 45.8376 20.6331C47.0484 20.79 48.0304 19.8438 49.0394 19.3326C49.5955 19.0546 50.1785 18.8349 50.7794 18.6779C51.3399 18.5299 52.2144 18.5748 52.618 18.1308C52.8467 17.8797 52.8018 17.512 52.5148 17.3281C52.026 17.0097 51.304 17.2878 50.7883 17.4492C50.1829 17.6331 49.5955 17.8752 49.0305 18.1622C48.4923 18.4402 47.9946 18.7766 47.5058 19.1353C46.999 19.4941 46.4878 19.8663 45.8376 19.8304Z" fill="#251C1C"/>
    <path d="M45.1559 55.1759C45.2366 55.4226 45.555 55.5392 45.7882 55.4674C45.8196 55.4584 45.842 55.4495 45.8689 55.436C45.9541 55.4315 46.0393 55.3912 46.0976 55.3284C46.2322 55.2522 46.2994 55.0728 46.1873 54.8889C46.1784 54.8755 46.1694 54.862 46.1604 54.8486C46.1559 54.7948 46.147 54.741 46.129 54.6871C46.2411 54.6782 46.3488 54.6647 46.4519 54.6333C46.7255 54.6064 46.99 54.5122 47.2456 54.3687C47.5909 54.1759 48.1963 53.8934 48.0349 53.4001C47.8735 52.9113 47.3039 52.9562 46.9273 53.1355C46.4385 53.3642 46.0707 53.7499 45.8151 54.2163C45.7882 54.1939 45.7568 54.1759 45.7299 54.158C45.6716 54.1266 45.6088 54.1042 45.5461 54.0907C45.5371 54.0817 45.5281 54.0728 45.5236 54.0638C45.2994 53.8441 44.9541 54.0235 44.9676 54.2701C44.8913 54.3732 44.8644 54.5078 44.9317 54.6423C45.0169 54.8127 45.0976 54.9876 45.1559 55.1759ZM47.2681 53.6243C47.3129 53.6019 47.3577 53.5885 47.4071 53.584C47.3981 53.5929 47.3936 53.6064 47.3847 53.6199C47.295 53.714 47.1873 53.8082 47.0752 53.8934C47.0483 53.8486 47.008 53.8082 46.9586 53.7858C47.0528 53.723 47.1604 53.6647 47.2681 53.6243Z" fill="#251C1C"/>
    <path d="M47.8062 56.7949C47.3533 56.5483 46.9721 56.9698 46.8197 57.3599C46.6223 57.8622 46.6134 58.3958 46.7479 58.907C46.712 58.9115 46.6806 58.916 46.6448 58.925C46.5775 58.9384 46.5147 58.9698 46.4609 59.0012C46.4475 59.0012 46.4385 59.0012 46.425 59.0012C46.1111 58.9922 45.9811 59.3644 46.1605 59.5349C46.1739 59.6604 46.2457 59.777 46.3892 59.8308C46.573 59.8981 46.7524 59.9743 46.9228 60.0685C46.9587 60.0864 46.9946 60.0999 47.0349 60.1089C47.2457 60.1492 47.4834 60.0281 47.582 59.8488C47.5955 59.8219 47.6089 59.795 47.6179 59.7681C47.6762 59.7053 47.7121 59.6156 47.7121 59.5304C47.7524 59.3914 47.6941 59.2299 47.5192 59.1626C47.5058 59.1582 47.4923 59.1537 47.4789 59.1492C47.4609 59.1447 47.4475 59.1402 47.4295 59.1357C47.3892 59.0999 47.3443 59.0685 47.295 59.0371C47.3712 58.9564 47.4385 58.8712 47.4923 58.777C47.6762 58.5707 47.8017 58.3196 47.8914 58.0416C48.0125 57.6649 48.2636 57.046 47.8062 56.7949ZM47.443 57.8173C47.3937 57.8039 47.3354 57.8039 47.286 57.8173C47.3129 57.7097 47.3488 57.5886 47.4026 57.49C47.4206 57.4451 47.443 57.4003 47.4744 57.3644C47.4744 57.3779 47.4789 57.3868 47.4833 57.4048C47.4789 57.5348 47.4654 57.6783 47.443 57.8173Z" fill="#251C1C"/>
    <path d="M42.5191 19.6644C43.6178 18.3236 44.5102 16.8168 45.3936 15.3325C45.8331 14.5881 46.2636 13.8347 46.6761 13.0769C47.0797 12.3369 47.6582 11.5118 47.8645 10.6912C47.9138 10.4939 47.8779 10.2203 47.7031 10.0858C47.6134 10.014 47.5416 9.95572 47.4295 9.92433C47.2367 9.87052 46.9542 9.91535 46.8241 10.0858C46.3084 10.745 46.0125 11.6149 45.6358 12.3638C45.2456 13.1396 44.8465 13.9065 44.4429 14.6733C43.6313 16.2025 42.7164 17.6778 41.9496 19.2294C41.7837 19.5657 42.2456 20.0007 42.5191 19.6644Z" fill="#251C1C"/>
    <path d="M44.4789 29.4538C45.2637 29.808 46.026 30.2071 46.7929 30.5973C47.0574 30.7318 47.3534 30.5659 47.3714 30.2654C47.4072 29.5838 47.3983 28.8932 47.34 28.2116C47.34 28.2026 47.3444 28.1981 47.3444 28.1892C47.3579 28.1174 47.3489 28.0457 47.331 27.9784C47.34 27.956 47.3444 27.9291 47.3534 27.9066C47.4117 27.7362 47.3534 27.5883 47.2503 27.4851C47.2189 27.2609 47.1785 27.0412 47.1337 26.8214C47.0799 26.5658 46.7391 26.5031 46.5642 26.669C46.0171 27.2071 45.47 27.7407 44.9363 28.2833C44.7435 28.4403 44.5596 28.6107 44.3937 28.7946C44.2323 28.9784 44.2188 29.3372 44.4789 29.4538ZM46.6269 29.5479C46.6269 29.5793 46.6269 29.6107 46.6269 29.6466C46.5866 29.6242 46.5417 29.6018 46.5014 29.5838C46.5462 29.5749 46.5866 29.5659 46.6269 29.5479ZM46.479 27.6286C46.4476 27.6914 46.4207 27.7542 46.3893 27.817C46.3713 27.7946 46.3534 27.7721 46.331 27.7497C46.3803 27.7138 46.4296 27.6735 46.479 27.6286ZM45.6718 28.8215C45.618 28.9022 45.5642 28.9874 45.5103 29.0681C45.479 29.0502 45.4476 29.0322 45.4117 29.0143C45.5014 28.947 45.5866 28.8843 45.6718 28.8215Z" fill="#251C1C"/>
    <path d="M22.994 47.212C23.7429 46.1134 24.7788 45.4766 25.9313 45.1402C25.8102 45.7053 25.9223 46.2434 26.1824 46.7232C25.308 47.508 24.9223 48.7188 25.0927 49.8668C25.1331 50.1313 25.5232 50.0148 25.4873 49.7591C25.3393 48.7008 25.7026 47.7143 26.3618 47.0147C26.734 47.5394 27.29 47.9699 27.882 48.23C29.1555 48.786 30.6623 48.7143 31.8776 48.0326C32.2004 47.8533 32.4964 47.6291 32.7655 47.3779C32.7699 47.4138 32.7744 47.4497 32.7789 47.4811C32.8103 47.6694 32.8731 47.8667 32.9942 48.0147C33.0211 48.0775 33.0704 48.1134 33.1197 48.1268C33.1332 48.1358 33.1466 48.1403 33.1601 48.1448C33.4247 48.4228 33.8327 48.5887 34.2139 48.5887C34.9359 48.5887 35.5951 48.0416 35.9808 47.4318C35.9942 47.4407 36.0032 47.4452 36.0166 47.4542C37.2543 48.1762 39.0301 48.3914 40.205 47.4273C40.788 46.9519 41.1019 46.2568 41.3485 45.5662C41.5055 45.1178 41.6624 44.638 41.7163 44.1582C41.7252 44.1582 41.7342 44.1582 41.7387 44.1582C43.0078 44.2927 44.0706 44.8353 45.1199 45.5214C45.389 45.6963 45.6939 45.2972 45.4652 45.0775C44.5235 44.1716 43.1199 43.7456 41.8418 43.6559C41.806 43.6559 41.7656 43.6514 41.7297 43.6514C41.7163 43.4631 41.6849 43.2747 41.6266 43.0864C41.5279 42.7859 41.3799 42.5303 41.1916 42.3061C41.6938 42.2254 42.2006 42.185 42.7118 42.194C43.3531 42.2075 43.9674 42.3689 44.6042 42.4048C44.8508 42.4182 44.9674 42.0281 44.7342 41.9204C44.1513 41.6559 43.4562 41.6155 42.8194 41.6155C42.1423 41.6155 41.4562 41.6918 40.797 41.8622C40.7745 41.8667 40.7566 41.8756 40.7342 41.8801C40.084 41.3868 39.214 41.1267 38.4382 40.9832C37.5368 40.8173 36.5458 40.7007 35.6937 41.1222C35.6848 41.1267 35.6803 41.1312 35.6758 41.1312C35.8238 40.5438 35.7834 39.9294 35.4023 39.333C35.2498 39.0908 34.9628 39.0235 34.7072 39.1491C33.9942 39.5034 33.4695 40.176 33.2587 40.9339C32.9134 40.7007 32.5368 40.5213 32.1152 40.4586C31.7699 40.4092 31.3708 40.4182 31.1107 40.6828C30.8103 40.9832 30.9045 41.4048 31.0793 41.7411C31.2901 42.1492 31.595 42.5124 31.9628 42.8039C31.178 42.6649 30.3663 42.6514 29.6174 42.6783C28.2049 42.7321 26.7205 43.2658 26.1017 44.6111C25.9582 44.6425 25.8192 44.6739 25.6757 44.7142C24.429 45.064 23.2182 45.8219 22.6218 47.0012C22.5097 47.2434 22.8415 47.4318 22.994 47.212ZM34.3664 47.8353C33.9762 47.9743 33.3484 47.8174 33.3036 47.3376C33.2946 47.2613 33.2632 47.2075 33.2184 47.1761C33.2094 47.1178 33.196 47.064 33.1825 47.0102C33.1735 46.9923 33.169 46.9744 33.1556 46.9609C33.2991 46.786 33.4336 46.6021 33.5547 46.4093C33.77 46.0595 33.9628 45.6201 34.0659 45.1761C34.1691 45.5035 34.3305 45.8039 34.5233 46.0909C34.752 46.4228 35.0301 46.7232 35.335 46.9788C35.0525 47.3062 34.7924 47.6829 34.3664 47.8353ZM34.4919 43.5573C34.7206 43.5259 34.752 43.1895 34.5951 43.064C34.6041 43.055 34.6085 43.046 34.6175 43.0371C34.6937 43.3151 35.1332 43.2703 35.205 43.0057C35.5816 41.6559 37.0794 41.6604 38.205 41.8666C38.6445 41.9474 39.1736 42.0595 39.64 42.2658C38.8104 42.629 38.0525 43.1312 37.3799 43.7546C37.3171 43.8129 37.4023 43.925 37.4696 43.8712C37.8911 43.5528 38.353 43.2747 38.8283 43.046C38.7969 43.0729 38.8059 43.1357 38.8597 43.1357C38.9225 43.1357 38.9225 43.0371 38.8597 43.0371C38.8552 43.0371 38.8507 43.0371 38.8463 43.0415C39.2633 42.8442 39.6938 42.6783 40.1378 42.5483C40.3844 42.7232 40.5862 42.9429 40.7118 43.2209C40.779 43.3644 40.8149 43.5169 40.8284 43.6694C39.8553 43.7456 38.8956 44.0371 38.1063 44.6021C38.0436 44.647 38.0794 44.7725 38.1646 44.7366C39.0212 44.4003 39.9046 44.1716 40.8149 44.1357C40.7656 44.4945 40.64 44.8532 40.5324 45.1761C40.3575 45.7008 40.1467 46.2658 39.7476 46.6694C38.9225 47.5035 37.4516 47.3421 36.4785 46.8757C35.9359 46.6156 35.474 46.2434 35.0749 45.7949C34.8641 45.5573 34.6893 45.2882 34.5188 45.0192C34.4112 44.8488 34.2632 44.6469 34.1601 44.4496C34.1601 44.3689 34.1556 44.2927 34.1467 44.212C34.1422 44.1671 34.1152 44.1268 34.0794 44.0999C34.2453 44.055 34.3754 43.8487 34.2005 43.7142C34.1422 43.6694 34.0794 43.6245 34.0211 43.5842C34.178 43.5842 34.335 43.5797 34.4919 43.5573ZM32.317 41.5707C32.2542 41.5841 32.1915 41.6066 32.1332 41.638C32.0973 41.5841 32.0659 41.5303 32.0345 41.472C32.1376 41.4944 32.2273 41.5303 32.317 41.5707ZM26.9089 44.9205C28.0524 44.7456 29.2632 44.795 30.4067 44.9429C30.5053 44.9564 30.5278 44.7905 30.4291 44.768C29.3663 44.5618 28.2856 44.4048 27.2138 44.4631C27.7699 43.8532 28.7071 43.5752 29.5008 43.5259C30.2273 43.481 30.9627 43.5303 31.6892 43.5797C32.4516 43.629 33.2184 43.7501 33.9135 44.0864H33.9179C33.9045 44.0999 33.8866 44.1133 33.8776 44.1402C33.6309 44.6425 33.4516 45.1537 33.1421 45.629C32.8282 46.1044 32.4695 46.5349 32.0345 46.8981C31.169 47.6156 29.9986 47.9071 28.8999 47.6605C28.2407 47.5125 27.4291 47.0954 27.0165 46.4811C27.6891 46.0551 28.5188 45.8577 29.3842 46.0102C29.4336 46.0192 29.456 45.9474 29.4067 45.934C28.5546 45.7232 27.6488 45.8353 26.882 46.2389C26.7699 45.9923 26.7205 45.7232 26.7609 45.4272C26.7833 45.2434 26.8371 45.073 26.9089 44.9205Z" fill="#251C1C"/>
    <path d="M39.6225 66.3513C39.8153 66.3827 40.0036 66.423 40.192 66.4858C40.4386 66.5621 40.7211 66.3737 40.7974 66.145C40.8063 66.1136 40.8153 66.0867 40.8198 66.0598C40.8646 65.9881 40.8826 65.8939 40.8646 65.8087C40.8781 65.6562 40.7794 65.4948 40.5597 65.4813C40.5463 65.4813 40.5283 65.4813 40.5104 65.4813C40.4611 65.4499 40.4117 65.4275 40.3579 65.4096C40.4162 65.3154 40.4655 65.2168 40.5059 65.1181C40.6449 64.8804 40.7256 64.6113 40.757 64.3199C40.8019 63.9252 40.9319 63.2705 40.4341 63.1136C39.9409 62.9566 39.6494 63.4454 39.5687 63.8535C39.4655 64.3827 39.5597 64.9073 39.7884 65.3871C39.757 65.3961 39.7211 65.4096 39.6897 65.423C39.627 65.4499 39.5731 65.4903 39.5238 65.5351C39.5104 65.5351 39.5014 65.5396 39.488 65.5396C39.1785 65.5934 39.1202 65.9791 39.3265 66.1091C39.3803 66.2257 39.47 66.3289 39.6225 66.3513ZM40.1741 63.8625C40.183 63.8131 40.1965 63.7683 40.2234 63.7279C40.2279 63.7414 40.2323 63.7504 40.2368 63.7683C40.2593 63.8983 40.2727 64.0373 40.2772 64.1808C40.2234 64.1764 40.1696 64.1853 40.1247 64.2122C40.1292 64.0956 40.1427 63.9701 40.1741 63.8625Z" fill="#251C1C"/>
    <path d="M36.8597 37.974C37.196 36.965 37.1242 35.8529 37.3171 34.8125C37.4023 34.3596 37.5458 33.8932 37.9001 33.5793C38.2229 33.2968 38.6624 33.2161 39.0211 33.4762C39.6579 33.9381 39.788 34.9156 39.9046 35.6331C39.9584 35.9515 39.9987 36.2654 40.0346 36.5838C40.1064 37.2655 40.1377 37.9471 40.1333 38.6287C39.9449 38.6377 39.7611 38.6421 39.5727 38.6421C39.5772 38.6287 39.5772 38.6197 39.5817 38.6063C39.6803 37.9471 39.8373 37.2744 39.7745 36.6062C39.77 36.5704 39.7655 36.539 39.7611 36.5031C39.6983 36.0098 39.4786 35.0502 38.8956 34.9201C38.2633 34.7766 37.9404 35.5031 37.8552 35.9964C37.7252 36.7722 37.6669 37.548 37.6758 38.3283C37.6713 38.3686 37.6669 38.4045 37.6669 38.4448C37.6624 38.4897 37.6669 38.53 37.6713 38.5704C37.4113 38.548 37.1556 38.5166 36.8955 38.4807C36.6265 38.4448 36.5009 38.8484 36.779 38.8977C37.9808 39.1175 39.196 39.2162 40.4158 39.1937C40.5772 39.1892 40.6983 39.0637 40.7028 38.9067C40.7656 37.6018 40.6759 36.2878 40.4292 35.0053C40.2723 34.1712 39.936 33.1443 39.0794 32.7856C38.0794 32.364 37.1556 33.1667 36.8283 34.0726C36.6265 34.6331 36.5906 35.252 36.5278 35.8394C36.4516 36.5255 36.3171 37.2206 36.3888 37.9112C36.4247 38.1668 36.77 38.2341 36.8597 37.974Z" fill="#251C1C"/>
    <path d="M36.6043 10.4983C36.7747 11.4804 36.9316 12.4669 37.0975 13.449C37.4294 15.4401 37.6671 17.4536 38.102 19.4222C38.1872 19.8034 38.7702 19.7137 38.7747 19.3325C38.7882 17.2787 38.5236 15.2293 38.2724 13.1934C38.1469 12.1799 37.9989 11.1665 37.8464 10.153C37.7702 9.6418 37.6895 9.13505 37.6088 8.62383C37.5236 8.09916 37.4563 7.80768 37.0168 7.48481C36.824 7.34579 36.5549 7.4624 36.4383 7.63729C36.1334 8.09918 36.2366 8.46241 36.3307 8.97811C36.4249 9.48485 36.5191 9.99159 36.6043 10.4983Z" fill="#251C1C"/>
    <path d="M35.0392 61.0415C35.2231 61.1087 35.4024 61.185 35.5773 61.2747C35.806 61.3957 36.1155 61.2612 36.2365 61.0504C36.25 61.0235 36.2634 60.9966 36.2724 60.9697C36.3307 60.9069 36.3666 60.8172 36.3621 60.732C36.4069 60.584 36.3352 60.4092 36.1244 60.3509C36.1065 60.3464 36.093 60.3419 36.0751 60.3419C36.0347 60.306 35.9899 60.2746 35.9406 60.2433C36.0168 60.1625 36.0841 60.0728 36.1379 59.9831C36.3173 59.7769 36.4428 59.5257 36.5325 59.2432C36.6491 58.862 36.8957 58.2432 36.4338 57.9966C35.9764 57.7544 35.5997 58.1804 35.4473 58.5661C35.25 59.0683 35.25 59.602 35.3845 60.1132C35.3486 60.1177 35.3172 60.1222 35.2814 60.1311C35.2141 60.1491 35.1513 60.176 35.102 60.2119C35.0885 60.2119 35.0796 60.2119 35.0661 60.2119C34.7522 60.2074 34.6266 60.5751 34.806 60.7455C34.824 60.8711 34.8957 60.9876 35.0392 61.0415ZM36.0392 58.6961C36.0572 58.6513 36.0796 58.6064 36.111 58.5706C36.111 58.584 36.1155 58.593 36.1199 58.6109C36.1199 58.741 36.1065 58.88 36.0841 59.0235C36.0347 59.01 35.9764 59.01 35.9271 59.028C35.9495 58.9159 35.9899 58.7948 36.0392 58.6961Z" fill="#251C1C"/>
    <path d="M34.851 71.3381C34.8062 71.4233 34.7703 71.5174 34.7389 71.6161C34.721 71.6834 34.8241 71.7327 34.8555 71.6654C35.2501 70.8044 36.4564 70.5712 37.2367 70.1946C38.2412 69.7102 39.1874 69.1138 40.1201 68.4994C41.7076 67.4501 43.304 66.3514 44.5955 64.9433C44.9543 64.5487 45.2951 64.1317 45.5776 63.6743C45.7077 63.459 45.8332 63.2393 45.9409 63.0151C46.0081 62.8716 46.0888 62.7236 46.1292 62.5666C46.1741 62.3873 46.1023 62.2617 46.0844 62.1002C46.0709 61.9792 46.0171 61.876 45.9409 61.7998C45.7929 61.6518 45.5552 61.6204 45.3579 61.7998C45.2817 61.8671 45.1785 61.8985 45.1068 61.9702C45.0171 62.0599 44.9677 62.1765 44.9184 62.2886C44.8153 62.5173 44.7077 62.746 44.5866 62.9658C44.3668 63.3559 44.1292 63.7415 43.8691 64.1048C43.8601 64.1182 43.8511 64.1317 43.8422 64.1451C43.2906 64.9075 42.609 65.5711 41.9049 66.1945C41.174 66.8357 40.4027 67.4277 39.6269 68.0151C38.7345 68.6923 37.8242 69.347 36.851 69.8896C36.425 70.1273 35.9228 70.3336 35.5147 70.6295C35.2277 70.8179 34.999 71.0466 34.851 71.3381Z" fill="#251C1C"/>
    <path d="M32.6175 65.9521C32.2094 65.5978 31.7072 65.4185 31.178 65.3736C31.187 65.3422 31.1915 65.3063 31.196 65.2705C31.2049 65.2032 31.196 65.1359 31.1825 65.0731C31.187 65.0642 31.1915 65.0507 31.196 65.0418C31.3036 64.7503 30.9987 64.5036 30.7834 64.6158C30.6578 64.5844 30.5233 64.6158 30.4291 64.7323C30.3036 64.8848 30.1735 65.0283 30.03 65.1583C29.9628 65.2166 29.9224 65.2974 29.9089 65.3781C29.8731 65.544 29.9179 65.7324 30.0211 65.8534C30.039 65.8759 30.0614 65.8983 30.0838 65.9162C30.1242 65.9924 30.1959 66.0552 30.2767 66.0821C30.326 66.118 30.3843 66.1359 30.4471 66.1359C30.5412 66.1359 30.6399 66.0911 30.7161 65.9835C30.7251 65.97 30.7341 65.9566 30.743 65.9431C30.7924 65.9162 30.8372 65.8848 30.8821 65.849C30.9359 65.9476 30.9942 66.0373 31.0614 66.1225C31.196 66.3646 31.3933 66.5664 31.6265 66.7413C31.9448 66.979 32.4471 67.4185 32.8283 67.0687C33.205 66.7234 32.9314 66.2256 32.6175 65.9521ZM32.3529 66.5664C32.2319 66.5216 32.1018 66.4633 31.9762 66.396C32.0076 66.3512 32.0256 66.2974 32.0256 66.248C32.1197 66.3108 32.2184 66.3826 32.2991 66.4633C32.335 66.4947 32.3664 66.5306 32.3933 66.5754C32.3843 66.5709 32.3709 66.5664 32.3529 66.5664Z" fill="#251C1C"/>
    <path d="M28.8419 59.2072C28.3128 59.1085 27.7881 59.2072 27.3083 59.4359C27.2993 59.4045 27.2858 59.3686 27.2724 59.3372C27.241 59.2744 27.2051 59.2206 27.1603 59.1713C27.1603 59.1578 27.1558 59.1489 27.1558 59.1354C27.102 58.826 26.7163 58.7722 26.5863 58.9785C26.4652 59.0143 26.3621 59.1085 26.3396 59.261C26.3083 59.4538 26.2679 59.6421 26.2096 59.8305C26.1334 60.0771 26.3217 60.3596 26.5504 60.4359C26.5818 60.4448 26.6087 60.4538 26.6356 60.4583C26.7074 60.5076 26.8015 60.5211 26.8867 60.5031C27.0392 60.5166 27.2006 60.4134 27.2141 60.1982C27.2141 60.1803 27.2141 60.1668 27.2141 60.1489C27.2455 60.104 27.2679 60.0502 27.2858 60.0009C27.38 60.0592 27.4787 60.1085 27.5773 60.1444C27.815 60.2834 28.0841 60.3596 28.38 60.3955C28.7747 60.4403 29.4294 60.5614 29.5863 60.0682C29.7388 59.5749 29.2545 59.2834 28.8419 59.2072ZM28.9271 59.8664C28.7971 59.8888 28.6581 59.9067 28.5146 59.9067C28.5191 59.8529 28.5101 59.7991 28.4832 59.7542C28.5953 59.7587 28.7208 59.7722 28.8285 59.8036C28.8778 59.8125 28.9226 59.826 28.9675 59.8484C28.954 59.8574 28.9406 59.8619 28.9271 59.8664Z" fill="#251C1C"/>
    <path d="M25.8998 40.7499C26.0567 40.7096 26.1823 40.5033 26.0971 40.3239C25.6397 39.3284 25.1867 38.4001 25.0971 37.2925C25.0208 36.3777 25.0836 34.9606 26.1688 34.6512C27.1554 34.3687 27.985 35.5346 28.3393 36.2925C28.7473 37.1624 28.9312 38.1849 28.9985 39.1356C29.0209 39.4674 28.9805 39.7589 28.6935 39.9562C28.7025 39.8979 28.698 39.8306 28.6801 39.7634C28.6576 39.6288 28.6263 39.4943 28.5904 39.3643C28.5455 39.1132 28.5141 38.862 28.4603 38.6154C28.3751 38.2432 28.263 37.8755 28.1105 37.5257C27.8908 37.0189 27.4244 36.0503 26.7294 36.2432C26.0253 36.436 25.7697 37.2477 25.8639 37.8979C25.9939 38.8217 26.4424 39.6961 26.8146 40.5347C26.828 40.5661 26.846 40.584 26.8684 40.593C26.5545 40.6692 26.2361 40.741 25.9177 40.8038C25.7473 40.8351 25.7877 41.1042 25.9581 41.1042C26.698 41.0908 27.4334 40.9652 28.1375 40.7365C28.6397 40.5751 29.2227 40.3822 29.4469 39.8531C29.6756 39.3105 29.5097 38.593 29.429 38.0324C29.3438 37.427 29.2092 36.8261 28.9805 36.2566C28.5635 35.2297 27.7159 34.0413 26.5007 33.983C25.1778 33.9203 24.5275 35.288 24.4468 36.4091C24.3437 37.8306 24.7159 39.5661 25.671 40.6602C25.7338 40.7499 25.8235 40.7724 25.8998 40.7499Z" fill="#251C1C"/>
    <path d="M23.0567 56.898C22.5993 57.1133 22.2495 57.4631 21.9939 57.8891C21.976 57.9205 21.9625 57.9474 21.9446 57.9788C21.9177 57.9564 21.8908 57.9384 21.8594 57.9205C21.8011 57.8846 21.7383 57.8622 21.6711 57.8532C21.6621 57.8442 21.6576 57.8353 21.6486 57.8263C21.4244 57.6066 21.0791 57.7859 21.0926 58.0326C21.0163 58.1357 20.9894 58.2658 21.0567 58.4048C21.1464 58.5797 21.2226 58.759 21.2854 58.9429C21.3661 59.1895 21.6845 59.3061 21.9177 59.2344C21.9491 59.2254 21.976 59.212 21.9984 59.203C22.0836 59.1985 22.1688 59.1582 22.2271 59.0954C22.3617 59.0191 22.4289 58.8398 22.3168 58.6559C22.3078 58.6424 22.2989 58.629 22.2899 58.6156C22.2854 58.5617 22.2765 58.5034 22.2585 58.4496C22.3527 58.4451 22.4424 58.4317 22.5321 58.4093C22.55 58.4048 22.5679 58.4003 22.5814 58.3958C22.8549 58.3734 23.1195 58.2747 23.3796 58.1312C23.7249 57.9384 24.3303 57.6559 24.1689 57.1626C24.0029 56.6738 23.4334 56.7231 23.0567 56.898ZM23.5097 57.3868C23.42 57.481 23.3168 57.5752 23.2002 57.6604C23.1733 57.6155 23.133 57.5752 23.0836 57.5528C23.1778 57.49 23.2899 57.4317 23.3931 57.3913C23.4379 57.3689 23.4827 57.3554 23.5321 57.351C23.5276 57.3599 23.5186 57.3734 23.5097 57.3868Z" fill="#251C1C"/>
    <path d="M21.3619 55.3959C21.8104 55.1448 21.6579 54.5976 21.4157 54.2568C21.0974 53.8218 20.6534 53.5304 20.1467 53.3689C20.1601 53.3375 20.1736 53.3061 20.187 53.2748C20.2095 53.2075 20.2184 53.1447 20.2184 53.0774C20.2274 53.0685 20.2319 53.0595 20.2408 53.0505C20.4157 52.7904 20.1736 52.481 19.9359 52.5438C19.8238 52.49 19.6848 52.4855 19.5637 52.5797C19.4067 52.7008 19.2498 52.8084 19.0749 52.907C18.9583 52.9743 18.8866 53.0909 18.8641 53.2209C18.8417 53.342 18.8552 53.4765 18.909 53.5797C18.9224 53.6066 18.9404 53.6335 18.9538 53.6559C18.9763 53.7411 19.0301 53.8174 19.1063 53.8622C19.1108 53.8667 19.1153 53.8712 19.1197 53.8757C19.2229 53.9833 19.4023 54.0057 19.5547 53.8667C19.5682 53.8532 19.5771 53.8443 19.5906 53.8308C19.6444 53.8174 19.6937 53.795 19.7431 53.7681C19.77 53.8757 19.8103 53.9788 19.8552 54.073C19.9314 54.3376 20.0749 54.5797 20.2633 54.8039C20.5189 55.1089 20.909 55.647 21.3619 55.3959ZM21.0211 54.795C20.9135 54.7232 20.8014 54.638 20.6938 54.5438C20.7341 54.508 20.7655 54.4631 20.7745 54.4093C20.8507 54.49 20.9359 54.5842 20.9897 54.6829C21.0211 54.7232 21.0435 54.7636 21.057 54.8129C21.048 54.8084 21.0391 54.7994 21.0211 54.795Z" fill="#251C1C"/>
    <path d="M17.429 35.9784C18.012 35.3685 18.438 34.6421 18.9985 34.0188C19.0793 33.9291 19.1062 33.8259 19.0882 33.7318C19.151 33.5748 19.1331 33.382 19.003 33.2519C18.5366 32.7945 17.9537 32.4761 17.4066 32.1309C16.846 31.7766 16.2676 31.3999 15.6173 31.2205C15.5007 31.1891 15.4335 31.2833 15.4469 31.3775C15.3752 31.3416 15.272 31.3775 15.2765 31.4761C15.3527 32.3595 15.5276 33.2161 15.7429 34.0771C15.9223 34.7856 16.0433 35.7497 16.5815 36.2878C16.6846 36.391 16.8999 36.4448 17.0299 36.3461C17.1599 36.2475 17.29 36.1309 17.3976 36.0054C17.4111 35.9964 17.42 35.9874 17.429 35.9784ZM15.5859 31.6959C15.568 31.6376 15.5501 31.5837 15.5321 31.5254C15.568 31.5703 15.6039 31.6152 15.6442 31.6555C15.6218 31.6645 15.6039 31.6779 15.5859 31.6959Z" fill="#251C1C"/>
</svg>
