<svg width="96" height="85" viewBox="0 0 96 85" fill="none" xmlns="http://www.w3.org/2000/svg">
<path d="M54.464 64.3123C54.8114 64.3722 55.1347 64.3722 55.4342 64.3483C56.2725 65.1507 57.063 66.1568 57.7577 66.8514C59.0991 68.1929 60.4405 69.5343 61.7819 70.8757C63.1353 72.2291 66.1296 71.798 66.441 69.6421C66.5728 68.7917 66.6925 67.9533 66.8243 67.103C67.7226 65.7855 68.6328 64.48 69.4352 63.1146C70.0221 62.1086 70.4653 60.9707 70.7048 59.821C70.8126 59.3299 70.3335 58.5394 69.8904 58.2041C69.6508 58.0364 68.7646 58.4796 68.4052 58.8628C68.1298 59.1622 67.9382 59.5455 67.7465 59.9287C67.6028 58.8388 66.98 57.9046 65.7823 57.5693C64.4648 57.186 62.5725 58.0244 62.3449 59.5215C62.1772 60.6234 62.0095 61.7373 61.8418 62.8392C61.3508 61.4259 60.8238 59.9767 60.0214 58.743C59.4584 57.8807 58.3445 57.3896 57.8056 56.9824C56.6318 57.0064 55.9252 57.4256 55.7096 58.0484C51.6853 57.4136 50.3799 63.6536 54.464 64.3123Z" fill="#EF4036"/>
<path d="M14.521 38.0348C13.1317 37.1844 11.5986 36.5257 9.89783 36.1065C8.12524 35.6753 6.91558 36.6095 6.32871 38.3223C6.05324 39.1487 5.41848 40.1907 4.69986 40.4542C3.09494 41.041 3.52608 41.9872 3.90934 42.9813C4.12492 43.5442 4.50818 44.0712 4.87947 44.5623C4.97529 44.694 5.08308 44.8258 5.1789 44.9455C5.68193 46.5744 6.87969 47.9398 8.38879 48.862C9.02357 50.1435 10.0655 51.2214 11.5028 51.8562C17.2877 54.4073 23.3839 47.317 20.1861 41.9513C19.1201 40.1667 16.9284 38.7414 14.521 38.0348Z" fill="#39B100"/>
<path d="M90.8499 16.045C88.3228 15.6019 85.8795 15.8534 83.9871 17.8895C81.3282 20.752 80.8132 24.2852 81.1366 27.9621C81.2085 28.8245 81.448 29.3874 81.8672 29.7347C82.2624 31.16 83.6518 32.2978 85.101 31.9744C86.2747 32.5493 87.8437 32.2619 88.7898 30.9684C89.7719 29.6269 90.6223 28.2017 91.3529 26.7285C92.4907 25.1954 93.1495 23.2672 93.365 21.1951C93.4609 20.8238 93.5447 20.4406 93.6286 20.0693C93.8082 19.171 93.6046 18.3925 93.1734 17.7937C92.7662 16.8595 91.9039 16.2247 90.8499 16.045Z" fill="#39B100"/>
<path d="M67.0877 10.0337C67.2314 7.79401 66.3811 5.84176 65.0277 4.09312C64.1414 2.94333 62.9796 2.56008 61.5783 2.87148C60.5363 3.09904 59.4824 3.25473 58.4643 3.56613C57.8894 3.73381 57.2906 4.03324 56.8714 4.44046C54.3442 6.9676 53.4699 10.1774 53.1226 14.4891C53.5178 16.1539 53.7214 18.8009 54.7874 21.0166C55.9132 23.3761 57.1109 24.5618 58.7637 24.3941C60.0213 25.2325 62.0933 24.957 62.8718 23.5318C63.5545 22.2742 64.1893 20.9328 64.7283 19.5434C65.4349 18.6332 65.9858 17.5792 66.3571 16.5851C67.0637 14.6808 67.3393 12.477 67.0758 10.381C67.0638 10.2613 67.0757 10.1535 67.0877 10.0337Z" fill="#39B100"/>
<path d="M34.4622 12.0321C33.3484 11.3255 31.983 10.9662 30.6775 10.5949C24.6291 8.85824 22.5571 11.6489 21.7068 16.9547C21.2996 20.5118 26.0783 26.3087 29.3121 27.6142C29.7792 27.8058 30.2224 27.9495 30.6296 28.0693C30.8332 28.237 31.0368 28.4046 31.2404 28.5604C32.5339 29.5185 34.1748 28.6801 35.0132 27.6142C35.4923 27.2908 35.9714 26.8716 36.4504 26.3566C39.804 22.7635 38.75 14.7389 34.4622 12.0321Z" fill="#39B100"/>
<path d="M83.9751 32.7535C91.5446 32.9092 95.8083 26.5375 96 19.9741C95.988 14.5366 90.5625 11.195 85.6399 13.6143C80.6934 16.0337 77.3758 23.2438 78.6813 28.7293C79.4239 31.8074 80.8252 32.6937 83.9751 32.7535ZM83.9871 17.8901C85.8795 15.854 88.3227 15.6025 90.8499 16.0457C92.2751 16.2972 93.353 17.3631 93.4369 18.8363C93.7483 24.6691 90.8139 30.0348 84.2386 30.2264C82.1785 30.2983 81.3042 29.8312 81.1366 27.9628C80.8252 24.2858 81.3402 20.7526 83.9871 17.8901Z" fill="#251C1C"/>
<path d="M71.4478 35.2315C67.2798 35.8423 63.4711 37.3155 60.3931 40.2618C59.2073 41.3877 58.1174 41.7709 56.4646 41.3278C53.099 40.4295 49.7815 41.1601 46.7633 42.6692C38.7746 46.6815 33.9239 57.7602 36.4391 66.1441C37.5889 69.9767 38.6907 73.7255 42.0922 76.2526C43.4815 77.2827 44.8349 78.3726 46.2722 79.3427C51.0749 82.5885 56.2969 84.6845 62.7765 84.8761C64.6569 84.6246 67.1241 84.373 69.5674 83.9538C71.1723 83.6784 72.9569 83.5107 74.2504 82.6723C76.6339 81.1273 78.9454 79.3188 80.8857 77.2468C84.4308 73.4381 86.8023 68.8748 87.7245 63.7128C88.1916 61.0658 88.6468 58.3231 88.4671 55.6642C88.2395 52.3586 87.7005 49.0889 85.7243 46.0826C83.8439 43.2321 82.5145 40.0343 79.5322 38.0222C77.077 36.3454 74.6097 34.7644 71.4478 35.2315ZM80.3826 42.0823C82.1313 44.5137 83.9398 47.2324 84.5746 50.0829C86.8023 60.1196 84.2871 71.4978 74.2504 77.8815C67.735 82.0256 60.6685 82.4328 53.3985 79.4505C49.6018 77.8935 46.5117 75.4023 43.6852 72.6116C42.5593 71.5098 41.9485 69.7611 41.4455 68.1921C40.667 65.7488 40.1879 63.2097 39.7687 61.497C40.0322 56.9458 40.1998 53.2449 42.5473 50.1907C45.6134 46.2024 49.2904 42.9447 54.7759 43.831C59.5307 44.6095 63.8903 46.4779 66.7648 50.6938C67.3996 51.616 68.1302 51.7238 68.8967 51.101C69.8069 50.3464 69.6872 49.3284 68.9326 48.5619C67.699 47.3282 66.4055 46.1305 65.0162 45.1005C62.2614 43.0525 62.2375 41.8428 65.124 39.9145C67.4954 38.3335 70.1303 37.6389 72.9689 37.6269C76.3344 37.6269 78.646 39.663 80.3826 42.0823Z" fill="#251C1C"/>
<path d="M65.1357 57.0419C64.2374 57.9043 63.5188 57.9762 62.6565 56.8503C61.0396 54.7424 58.6921 53.9639 56.2488 53.7363C53.2186 53.9519 50.8232 55.5089 51.973 59.0301C53.3743 63.3418 56.153 66.5637 59.4826 69.4142C60.8599 70.5879 62.381 71.582 63.7224 72.7797C64.7404 73.69 65.8064 73.666 66.5849 72.8276C68.2856 70.9832 70.0822 69.1148 71.2918 66.9469C72.4656 64.839 72.9686 62.3597 73.7232 60.0362C74.346 58.1319 73.6034 56.1916 71.8428 54.97C70.3098 53.904 68.4533 54.0597 66.8603 55.4131C66.2615 55.9281 65.7105 56.503 65.1357 57.0419ZM68.3934 58.8744C68.7527 58.4912 69.639 58.048 69.8786 58.2157C70.3337 58.5391 70.8008 59.3415 70.693 59.8326C70.4534 60.9704 70.0103 62.1202 69.4234 63.1263C68.3934 64.8749 67.1957 66.5277 66.0819 68.2165C65.3992 69.2345 64.6087 69.3423 63.6625 68.5758C60.5245 66.0247 57.8896 63.0424 55.9373 59.4973C55.2067 58.1678 55.8655 57.03 57.8177 56.9941C58.3447 57.4013 59.4706 57.8923 60.0335 58.7547C60.8719 60.0482 61.4108 61.5573 61.9258 63.0304C62.4768 64.5994 63.399 65.1624 64.6686 64.1443C65.7585 63.27 66.4771 61.9286 67.3155 60.7429C67.7107 60.156 67.9144 59.3894 68.3934 58.8744Z" fill="#251C1C"/>
<path d="M55.8651 2.35568C49.9245 7.29019 48.3196 16.5364 53.0385 23.9142C54.1524 25.6509 55.8291 27.1241 58.0329 26.9804C61.2427 26.7648 64.2729 25.5191 65.9976 22.7644C68.2732 19.1115 69.2554 14.8836 69.8901 10.3204C69.5548 9.03883 69.2553 7.48182 68.7283 5.99667C66.4168 -0.626596 60.6798 -1.64463 55.8651 2.35568ZM67.0875 10.0329C66.7881 14.6081 65.8299 18.9558 62.4404 22.3812C62.3566 22.465 62.2968 22.5489 62.2009 22.6207C58.536 25.5671 56.5717 24.7766 54.7752 21.0278C53.7092 18.8001 53.5176 16.1651 53.1104 14.5003C53.4577 10.1886 54.332 6.97879 56.8592 4.45165C57.2784 4.03246 57.8772 3.74501 58.4521 3.57734C59.4702 3.27791 60.5241 3.11023 61.5661 2.88267C62.9674 2.58325 64.1292 2.96651 65.0155 4.10433C66.3809 5.84099 67.2312 7.79323 67.0875 10.0329Z" fill="#251C1C"/>
<path d="M32.4741 31.28C34.8935 31.3878 37.1332 30.3338 38.8459 28.4055C42.3911 24.4291 42.7503 18.2011 39.8639 13.6139C37.0253 9.08661 32.4022 7.6853 27.5875 7.29006C24.4735 7.03854 21.3954 8.46382 19.9701 11.4581C18.1975 15.1589 17.6705 19.1712 20.0899 22.908C21.1199 24.489 22.3655 26.0101 23.7668 27.2677C26.1502 29.4235 28.7014 31.4237 32.4741 31.28ZM21.7068 16.9675C22.5572 11.6617 24.6292 8.87103 30.6776 10.6077C31.9711 10.979 33.3364 11.3383 34.4623 12.0449C38.762 14.7517 39.816 22.7763 36.4744 26.3694C34.4143 28.5851 32.6418 28.9564 29.3242 27.627C26.0784 26.3095 21.2996 20.5246 21.7068 16.9675Z" fill="#251C1C"/>
<path d="M21.2279 39.28C18.8085 37.2199 15.994 35.5551 13.1554 34.082C11.6823 33.3154 9.78992 33.04 8.08919 33.0639C5.98124 33.0879 4.74757 34.7168 3.84929 36.5133C3.22649 37.7589 2.67556 38.9925 1.23832 39.6633C0.160395 40.1783 -0.270794 41.2681 0.172354 42.5617C2.10065 48.1429 7.70591 53.4967 14.5088 53.329C15.1316 53.305 15.7664 53.3409 16.3653 53.2332C19.9703 52.5864 22.6412 50.718 23.779 47.1489C24.7851 43.9869 23.5155 41.2202 21.2279 39.28ZM16.8922 50.0593C16.1018 50.3228 15.2514 50.3946 14.425 50.5623C10.0893 50.3347 7.29865 47.7477 4.8793 44.5498C4.50801 44.0588 4.13673 43.5438 3.90917 42.9689C3.5259 41.9748 3.09477 41.0286 4.69969 40.4417C5.41831 40.1783 6.05307 39.1363 6.32854 38.3098C6.91541 36.5971 8.11308 35.6629 9.89765 36.0941C14.2693 37.16 17.5869 39.807 20.0182 43.4719C21.4914 45.6996 19.7787 49.0891 16.8922 50.0593Z" fill="#251C1C"/>
</svg>
