<svg width="102" height="66" viewBox="0 0 102 66" fill="none" xmlns="http://www.w3.org/2000/svg">
<path d="M2.66361 64.2939C3.05709 64.4061 3.51311 64.4733 3.96249 64.4556C4.41407 64.6575 4.93574 64.6657 5.37088 64.3683C5.8641 64.0319 6.37047 63.7108 6.84616 63.3473C7.32842 62.9778 7.80083 62.3817 7.73177 61.6841C7.59915 60.3479 7.02918 59.2443 5.95615 58.5219C5.08589 57.9352 3.87039 57.7062 2.89052 58.0946C2.13315 58.143 1.4383 58.4286 0.856299 59.0707C-0.0687681 60.093 -0.352731 61.7526 0.549319 62.8857C1.08858 63.5621 1.86239 64.0661 2.66361 64.2939Z" fill="#EF4036"/>
<path d="M84.7884 13.2821C86.1157 13.2679 87.3883 12.5195 88.0383 11.3722C89.0685 10.1623 89.1102 8.04825 87.8048 6.89856C87.1823 6.35086 86.4237 6.17263 85.6927 6.60465C85.6017 6.65894 85.5118 6.71914 85.4252 6.78524C84.8267 6.90682 84.2569 7.27746 83.8469 7.9432C83.3855 8.69156 83.2704 9.64766 83.5499 10.481C83.426 10.8717 83.3613 11.3002 83.3646 11.7476C83.3701 12.5703 84.0124 13.2903 84.7884 13.2821Z" fill="#39B100"/>
<path d="M78.2309 19.4154C76.7205 19.5145 75.2398 19.7317 73.8358 18.7862C73.1694 18.3377 72.6455 18.7154 72.5655 19.5665C72.5282 19.9607 72.5489 20.3951 72.6651 20.7681C73.5716 23.6777 74.0538 26.6641 74.1711 29.7284C74.1952 30.3835 74.3224 31.0374 74.4232 31.6878C74.6479 33.1267 74.8869 34.5632 75.128 36.0528C74.7367 36.1803 74.4813 36.3184 74.2171 36.342C70.9761 36.6348 67.7329 36.9098 64.4908 37.1919C60.3093 37.5566 56.1488 38.0666 52.0397 39.0238C50.378 39.4122 48.6989 39.6164 46.989 39.1962C45.8711 38.9223 45.3812 39.5739 45.6486 40.7354C45.8624 41.6585 46.0344 42.598 46.1517 43.54C46.3764 45.353 46.5243 47.1756 46.7523 48.9874C46.9222 50.3401 46.6504 50.7368 45.3669 50.8158C41.8869 51.0307 38.4048 51.2207 34.9259 51.471C31.1643 51.7436 27.4377 52.5239 23.641 52.335C22.671 52.2878 22.0867 53.179 22.2829 54.1929C22.4945 55.2848 22.8189 56.3577 22.9493 57.4602C23.0907 58.6571 23.0929 59.8776 23.1039 61.0887C23.1105 61.8961 22.9844 62.7046 22.991 63.5132C23.0008 64.6711 23.3407 65.004 24.4444 65.063C25.718 65.1303 26.9949 65.148 28.263 65.2625C33.2632 65.7146 38.2612 65.4195 43.257 65.2401C45.71 65.1527 48.1564 64.8824 50.6083 64.7656C53.3889 64.6334 56.174 64.5861 58.9569 64.4905C62.2549 64.376 65.554 64.2356 68.8531 64.1329C70.5038 64.0821 72.1577 64.14 73.8061 64.0609C77.2949 63.8933 80.7815 63.6572 84.2702 63.4719C85.6819 63.3975 87.1001 63.4282 88.5118 63.3326C90.7248 63.1815 92.9312 62.9171 95.1452 62.7884C96.8386 62.6893 98.5397 62.733 100.237 62.6964C101.839 62.6633 102.271 62.0247 101.847 60.3781C101.709 59.8422 101.42 59.2567 101.515 58.7645C101.695 57.8356 101.568 56.9798 101.463 56.0697C101.135 53.251 100.898 50.4192 100.639 47.5922C100.342 44.3568 100.051 41.1202 99.7727 37.8824C99.7168 37.2261 99.8659 36.5132 99.6796 35.9124C99.0198 33.7948 99.1348 31.5886 99.0098 29.4285C98.8268 26.2415 98.9046 23.0368 98.8685 19.838C98.8542 18.5112 97.974 17.7817 96.8287 18.0993C96.2401 18.2622 95.6362 18.4121 95.0323 18.4546C91.1259 18.7284 87.2174 18.9857 83.3089 19.2171C81.6166 19.3174 79.9199 19.3032 78.2309 19.4154ZM68.6174 62.8557C69.3518 61.9551 70.0424 61.32 70.9762 61.0934C71.6601 60.927 72.367 60.8491 73.0674 60.7865C75.1257 60.6035 77.1875 60.4466 79.4092 60.266C79.6053 60.9777 79.7632 61.5467 79.9824 62.3422C76.1923 62.9501 72.5238 62.9797 68.6174 62.8557ZM87.7337 45.0792C89.6068 44.901 91.4822 44.7534 93.5252 44.5787C94.242 46.6928 94.0031 48.7325 93.853 50.8831C89.8096 51.4828 85.8671 52.067 81.9246 52.6513C81.8578 52.5486 81.7898 52.4459 81.7219 52.3433C81.9817 51.8416 82.2227 51.3281 82.5022 50.8418C83.2431 49.5517 84.0454 48.3005 84.7392 46.982C85.4155 45.6989 86.4645 45.1996 87.7337 45.0792ZM87.2273 43.5034C87.8411 42.3266 88.5228 41.3398 89.7997 40.7342C89.9762 43.1469 89.3986 43.7418 87.2273 43.5034ZM85.798 53.4316C86.5949 54.8032 86.5675 56.1925 86.573 57.5464C86.5774 58.3349 86.1959 58.5662 85.1601 58.6347C82.8595 58.7846 80.5578 58.9239 78.255 59.062C77.0855 59.1328 75.9149 59.1895 74.4177 59.2697C74.8375 58.8932 74.9997 58.7055 75.1948 58.5792C76.8093 57.5405 78.4172 56.5053 79.6568 54.9236C79.8958 54.6178 80.3518 54.4266 80.7354 54.3487C82.3883 54.0147 84.0509 53.742 85.798 53.4316ZM93.3827 61.7391C89.312 62.2655 85.3366 62.2738 81.2988 62.2844C80.9206 60.4725 81.1136 60.0736 82.5165 59.9897C86.037 59.7808 89.5619 59.6392 93.0857 59.4775C93.1657 59.4739 93.2501 59.5542 93.4792 59.6687C93.4518 60.2766 93.42 60.9494 93.3827 61.7391ZM99.6061 60.7794C98.1155 61.5903 96.5131 61.4593 94.7528 61.6281C94.7912 61.058 94.7824 60.574 94.8679 60.109C94.9676 59.5601 95.2679 59.2402 95.8587 59.2603C96.6106 59.2862 97.3669 59.2567 98.1188 59.2001C98.795 59.1493 99.4669 59.0289 100.182 58.9345C100.698 60.1196 100.64 60.2164 99.6061 60.7794ZM100.055 57.5475C95.9661 58.0445 92.0072 58.3644 87.9025 58.3053C87.772 56.929 87.5956 55.6389 87.5452 54.3428C87.497 53.1506 87.7983 52.8319 88.9141 52.6962C89.8019 52.5888 90.6963 52.5498 91.5885 52.479C92.2889 52.4223 92.9893 52.3633 93.8617 52.2913C93.9308 52.8414 93.991 53.3171 94.1017 54.1953C94.6158 53.4139 94.9424 52.9169 95.3622 52.2795C96.7092 52.2795 98.1955 52.2795 99.8396 52.2795C100.163 53.9911 100.04 55.7274 100.055 57.5475ZM99.0416 44.2942C99.285 46.2572 99.5294 48.2391 99.8012 50.4287C98.1078 50.5503 96.6687 50.6541 95.0345 50.7722C95.0148 48.965 94.9666 47.257 94.9896 45.5502C95.0016 44.6401 95.6987 44.3816 96.3662 44.3143C97.2035 44.2305 98.053 44.2942 99.0416 44.2942ZM98.4662 37.2356C98.6361 38.9908 98.7928 40.6197 98.9561 42.3053C96.2686 42.7137 93.7861 43.0891 91.3232 43.4633C91.195 42.5567 91.0919 41.7824 90.9736 41.0116C90.8124 39.9528 91.103 39.2611 92.0445 38.796C94.0206 37.8199 96.0801 37.1954 98.4662 37.2356ZM93.5811 19.7872C94.8317 19.7152 96.1404 19.4532 97.3537 20.5308C97.6288 25.4141 97.9028 30.2772 98.1834 35.2738C97.2781 35.5122 96.5284 35.805 95.7579 35.8947C93.0846 36.2086 91.0383 37.8376 89.0182 39.5208C87.1275 41.0966 85.7651 43.1717 84.4608 45.2952C82.8255 47.9558 81.2242 50.6423 79.5154 53.2486C78.1245 55.3721 76.155 56.7897 74.0177 57.9347C71.6481 59.2024 69.2838 60.4619 67.4578 62.6279C67.1904 62.9454 66.6379 63.1095 66.2116 63.1237C61.6805 63.2783 57.1473 63.3373 52.6184 63.5226C48.6551 63.6855 44.6983 64.029 40.735 64.1954C35.6362 64.4091 30.5362 64.4421 25.4593 63.7091C24.8072 63.6147 24.2514 63.4235 24.4246 62.6362C24.9036 60.456 24.2438 58.3903 23.9512 56.2987C23.6169 53.9014 23.6103 53.8317 25.9011 53.6901C29.529 53.4658 33.1569 53.2462 36.7838 52.9925C37.5335 52.9405 38.27 52.6974 39.0197 52.6313C41.3674 52.4235 43.7185 52.25 46.0695 52.0895C46.3863 52.0682 46.7183 52.1638 47.0296 52.2594C47.9152 52.5333 48.4194 52.2512 48.4676 51.3033C48.4918 50.8265 48.3021 50.3319 48.1771 49.8538C48.039 49.3238 47.765 48.8139 47.7245 48.2804C47.5689 46.2537 47.4713 44.2211 47.3804 42.1896C47.3365 41.2276 47.4527 41.106 48.3942 40.9325C50.3003 40.5796 52.2107 40.2526 54.1156 39.895C56.2924 39.4854 58.4581 38.9943 60.6447 38.6556C62.0817 38.4337 63.5472 38.4313 64.9983 38.3062C67.2551 38.1114 69.5097 37.886 71.7664 37.6912C72.8482 37.598 73.9322 37.5082 75.0172 37.4917C75.4217 37.4858 75.8295 37.6888 76.2482 37.801C77.387 36.8248 77.2916 36.8649 76.7512 35.5004C76.2766 34.3035 75.9479 33.0122 75.7396 31.7279C75.3198 29.1275 75.0228 26.5024 74.6798 23.8878C74.6008 23.2847 74.5121 22.6803 74.4748 22.0724C74.4233 21.2355 74.6512 20.9688 75.4053 20.9286C79.3521 20.7162 83.2991 20.5297 87.2438 20.2912C89.3603 20.1637 91.4668 19.91 93.5811 19.7872Z" fill="#251C1C"/>
<path d="M93.9307 7.24974C94.2957 7.14705 94.6574 6.62414 94.8009 6.20393C94.8689 6.00208 94.4535 5.36114 94.2157 5.33399C93.6391 5.26789 92.9859 5.31392 92.4609 5.55708C91.9315 5.8026 91.6432 6.39161 91.9545 7.29696C92.6406 7.29696 93.3213 7.42208 93.9307 7.24974Z" fill="#251C1C"/>
<path d="M92.5979 14.5412C92.816 14.7111 93.2807 14.8138 93.4582 14.6793C93.7235 14.4786 93.9493 14.0525 93.9832 13.6996C94.0424 13.061 92.805 11.844 92.0224 11.8086C91.8712 11.9231 91.5149 12.0588 91.3889 12.3221C91.2639 12.5817 91.253 13.0633 91.4021 13.2841C91.7254 13.7645 92.1474 14.1906 92.5979 14.5412Z" fill="#251C1C"/>
<path d="M88.5041 3.12408C89.0412 2.51147 89.5859 1.97676 90.0156 1.34997C90.1625 1.13515 90.0802 0.665354 89.9782 0.359636C89.9256 0.206187 89.4785 0.023228 89.4094 0.0905096C88.971 0.515446 88.5392 0.968712 88.2038 1.48572C87.9078 1.94371 87.7281 2.4973 88.5041 3.12408Z" fill="#251C1C"/>
<path d="M86.7439 23.3613C86.2342 24.4072 84.7535 24.8097 85.3892 25.9464C86.3373 26.2887 87.0815 26.4221 87.6822 26.8104C88.3179 27.2212 88.1644 28.0286 87.4498 28.3237C87.1056 28.4665 86.6793 28.3886 86.3483 28.5491C86.0315 28.7026 85.7476 29.0024 85.5372 29.3081C85.4561 29.425 85.6183 29.7354 85.6742 29.9762C86.4535 29.7932 87.1407 29.6421 87.8236 29.4722C88.6193 29.2739 89.1826 28.8005 89.3799 27.9034C89.5761 27.0052 89.2823 26.3076 88.6313 25.7575C88.3046 25.4825 87.9649 25.224 87.6306 24.9572C87.8947 23.778 89.1837 23.1418 88.868 21.7324C87.6854 21.8056 86.6135 21.8446 85.5459 21.9437C84.6855 22.024 84.5343 22.5008 85.0034 23.5455C85.5262 23.49 86.0567 23.4345 86.7439 23.3613Z" fill="#251C1C"/>
<path d="M85.6543 13.9751C86.9016 14.0212 87.8858 13.2539 88.721 12.3155C90.0966 10.7692 90.1854 8.73188 88.9381 7.07699C88.6553 6.70281 88.2717 6.18817 87.9023 6.15393C85.5875 5.94501 82.9185 7.44763 82.9635 10.48C82.9624 12.3521 84.0958 13.9197 85.6543 13.9751ZM84.054 10.107C84.2272 9.33152 84.6086 8.56073 85.3189 8.10628C85.6356 7.90444 86.1234 7.9186 86.5147 7.97762C86.8194 8.02248 87.088 8.30459 87.3861 8.45331C88.7112 9.11315 88.9359 9.94059 87.9977 11.1198C87.6163 11.599 87.0857 12.0039 86.5486 12.2612C85.3101 12.8538 83.8918 11.6498 84.054 10.107Z" fill="#251C1C"/>
<path d="M4.86871 65.0161C6.36154 64.6159 7.20664 63.3942 7.5245 61.9258C7.92127 60.0963 7.84231 58.3906 5.45292 57.4097C5.1526 57.287 4.86219 57.1359 4.51036 56.9718C4.5531 56.3769 4.46315 55.7654 4.65496 55.2839C5.42768 53.3291 6.13033 51.3107 7.15405 49.5106C8.46164 47.2077 10.3205 45.4395 12.3921 43.8401C14.1227 42.5051 15.9377 41.7756 17.9665 41.4687C19.6994 41.2066 21.3797 41.6092 22.8638 42.511C23.9554 43.1732 24.8892 44.1635 25.8242 45.0901C26.2878 45.5493 26.5585 46.2268 26.9838 46.7426C27.2063 47.0117 27.5997 47.3316 27.8682 47.288C28.2113 47.2325 28.5456 46.8713 28.8032 46.5632C28.9358 46.405 28.9128 46.0793 28.9237 45.8267C29.0059 44.0089 29.5826 42.3433 30.3125 40.738C30.9132 39.416 31.608 38.1436 32.2273 36.831C34.563 31.8793 38.3838 28.7123 42.9565 26.4484C44.0547 25.9054 45.2308 25.687 46.4168 25.9172C48.587 26.3386 50.5708 27.277 52.2905 28.7725C52.7497 29.1715 53.0599 29.7723 53.4336 30.2834C53.6846 30.6269 53.9291 30.9763 54.1659 31.3103C55.2411 30.6045 55.3781 30.2929 55.5195 29.2388C55.6334 28.3948 55.7924 27.5331 56.0884 26.7482C56.7427 25.0095 57.5253 23.3274 58.2026 21.5994C59.8665 17.3535 62.3534 13.7109 65.5506 10.7233C67.8895 8.53965 70.4038 6.54717 73.2722 5.13189C75.8041 3.88305 78.1968 3.99519 80.5665 5.49309C80.9676 5.74687 81.3436 6.04669 81.8817 6.43149C82.1064 5.77402 82.3048 5.19563 82.4911 4.64912C80.7166 3.26453 78.9421 2.5563 76.8399 2.71802C74.3946 2.9057 72.2672 3.88777 70.3096 5.35852C68.762 6.52238 67.2603 7.75824 65.7828 9.02478C63.2926 11.1601 61.1773 13.6979 59.542 16.6241C58.4043 18.6579 57.5417 20.8711 56.5783 23.0158C55.8012 24.7451 55.0569 26.4909 54.2722 28.2874C53.9707 28.082 53.6989 27.9628 53.5049 27.7586C52.2675 26.4531 50.8053 25.5454 49.1908 24.9174C47.3254 24.1927 45.4708 23.9637 43.533 24.7675C41.0746 25.7874 38.8967 27.3041 36.8559 29.0263C35.5691 30.1123 34.3832 31.4001 33.365 32.7799C31.5697 35.2127 30.2873 37.9984 29.1397 40.8455C28.6564 42.0435 28.1971 43.2534 27.659 44.6321C26.9663 43.964 26.4193 43.3431 25.7869 42.8462C24.8421 42.1049 23.905 41.2857 22.8462 40.79C19.888 39.4066 16.9209 39.8067 14.081 41.2432C11.7113 42.4413 9.71001 44.1753 7.97277 46.3224C5.69188 49.1423 4.10153 52.3128 3.35511 55.9472C3.13262 57.0273 2.87173 57.8854 1.95433 58.5854C0.663182 59.5698 0.307012 61.7559 0.988756 63.1357C1.85135 64.8815 3.07448 65.4977 4.86871 65.0161ZM4.35248 59.0729C5.81023 59.1272 6.66403 59.8177 6.58183 60.9709C6.47003 62.5538 5.32028 63.9549 3.84609 63.8711C2.64591 63.8027 1.84474 62.797 1.88529 61.3923C1.93681 59.6725 2.64373 59.0079 4.35248 59.0729Z" fill="#251C1C"/>
<path d="M64.1891 44.3622C64.6812 43.4745 65.0079 42.5278 64.9126 41.4726C64.8106 40.3595 64.1705 39.7929 63.1797 40.0172C62.6875 40.1281 62.2097 40.3961 61.768 40.6711C61.3109 40.9568 61.186 41.4195 61.4315 42.1289C62.1538 41.8727 62.8246 41.6355 63.5162 41.39C63.8998 42.2847 63.8044 43.046 63.3441 43.6586C62.8497 44.3161 62.247 44.8945 61.6332 45.4292C60.8725 46.0914 60.8199 46.2212 61.3 47.1549C62.5561 47.1549 63.7562 47.1549 65.0791 47.1549C65.0791 46.4975 65.0791 45.9509 65.0791 45.4174C64.541 45.3466 64.1541 45.297 63.605 45.225C63.8725 44.8355 64.051 44.6124 64.1891 44.3622Z" fill="#251C1C"/>
<path d="M38.8726 58.8445C38.5077 58.8622 38.1449 58.9378 37.621 59.0098C37.507 57.5024 37.3985 56.0683 37.2725 54.4004C36.7672 54.5893 36.3035 54.6058 36.1446 54.8501C35.5418 55.7767 34.7197 56.2807 33.7705 56.6667C33.068 56.9512 33.0471 57.4753 33.5765 58.2166C34.4742 57.6606 35.3368 57.1282 36.3112 56.5263C36.3112 57.4552 36.3112 58.2307 36.3112 58.9885C34.6495 59.2458 34.4797 59.4961 34.871 60.7921C36.1172 60.7402 37.3305 60.6906 38.5449 60.6411C38.6863 60.6352 38.8299 60.6505 38.968 60.6233C39.424 60.5372 39.8065 60.3129 39.789 59.7534C39.7725 59.162 39.4448 58.8162 38.8726 58.8445Z" fill="#251C1C"/>
</svg>
