<svg width="76" height="100" viewBox="0 0 76 100" fill="none" xmlns="http://www.w3.org/2000/svg">
<path d="M29.1075 57.2791C32.8585 57.1088 36.6027 56.8862 40.339 56.6053C42.1725 56.4676 44.0049 56.3161 45.8339 56.1526C47.4827 56.005 49.0917 55.8309 50.5215 55.2244C51.6656 54.7384 51.3129 53.325 49.7822 53.4014C42.0999 53.7853 34.1263 53.8375 26.6379 55.1473C24.8157 55.466 25.5879 57.3533 27.4169 57.0339C27.5972 57.0021 27.7774 56.9748 27.9577 56.9453C28.1868 57.1618 28.5689 57.3041 29.1075 57.2791Z" fill="#EF4036"/>
<path d="M61.8562 18.6369C61.8521 18.4891 61.8428 18.3423 61.8231 18.1954C61.549 16.1413 59.5789 14.4958 57.3108 14.6011C56.7015 14.6291 56.1473 14.7894 55.6656 15.0464C55.2224 15.0049 54.7719 15.0253 54.3339 15.1161C54.2062 14.6909 53.9862 14.2967 53.6956 13.9489C53.5015 13.431 53.1828 12.943 52.7406 12.5372C51.4649 11.368 49.6245 11.3999 48.3374 12.315C48.218 12.3565 48.0997 12.4058 47.9824 12.4628C47.6918 12.6039 47.4354 12.7739 47.2101 12.9642C46.8385 12.9005 46.4534 12.9295 46.087 13.0328C46.0475 12.5459 45.9105 12.0667 45.6531 11.6251C44.72 10.0241 42.5733 9.39598 40.7413 9.8559C39.887 10.0704 39.1739 10.5129 38.6601 11.0965C38.1951 11.0985 37.7301 11.1796 37.2889 11.3468C37.2215 11.2791 37.153 11.2125 37.0803 11.1497C36.0735 10.2714 34.7272 9.92837 33.4515 10.1496C32.7062 10.0781 31.9432 10.1941 31.2768 10.5245C29.6721 11.3197 28.9943 13.2117 29.5144 14.7856C29.1833 14.8465 28.8604 14.9643 28.5646 15.1266C27.3138 13.9459 25.1164 13.7324 23.5677 14.7121C23.2085 14.9392 22.9033 15.2281 22.6563 15.5557C22.4549 15.6542 22.2618 15.7693 22.0791 15.9007C21.5622 16.2746 21.1408 16.7413 20.8398 17.2572C20.0135 18.0138 19.5828 19.0804 19.6845 20.1713C19.2299 20.3356 18.8177 20.6477 18.5022 21.1424C18.4762 21.1821 18.4555 21.2236 18.4326 21.2642C17.2555 21.6574 16.4262 22.586 16.1802 23.6189C15.6497 24.1174 15.3031 24.7803 15.3062 25.4982C15.3103 26.4586 15.9124 27.2644 16.7366 27.7707C16.174 27.82 15.6134 28.0209 15.1287 28.3997C14.6574 28.7678 14.3897 29.1863 14.2838 29.6133C13.7627 29.9718 13.4254 30.4491 13.2707 30.9602C12.5151 31.7332 12.4113 32.9565 12.9894 33.8492C12.9977 33.8628 13.0081 33.8743 13.0164 33.8878C12.8814 34.055 12.7735 34.2367 12.6988 34.427C12.4497 34.2937 12.1736 34.1903 11.8694 34.1266C10.4577 33.828 9.01174 34.5488 8.39932 35.6803C6.80807 37.0272 7.39143 39.2958 9.09997 40.2959C10.6881 41.2254 12.6064 40.7404 13.6299 39.4205C14.6865 38.8369 15.3114 37.8485 15.5533 36.7479C15.9384 36.6397 16.3037 36.4648 16.611 36.2387C17.376 35.6773 17.8296 34.8232 17.9479 33.9313C18.1441 33.7362 18.3144 33.5197 18.4514 33.2878C19.0212 32.8714 19.4748 32.3168 19.7343 31.6878C21.0972 30.5467 21.9556 28.6104 22.1248 27.0895C22.6542 26.5716 23.0289 25.9185 23.1472 25.1696C23.1576 25.1059 23.1649 25.042 23.1711 24.9783C23.9911 24.6874 24.7707 24.2179 25.4288 23.6294C25.7827 23.5289 26.1284 23.3879 26.4585 23.2005C26.91 22.9444 27.3335 22.5975 27.6999 22.1926C28.576 21.7559 29.2849 21.1337 29.8766 20.4119C30.0447 20.4525 30.215 20.4834 30.3852 20.5017C31.7782 20.6525 33.247 20.1162 34.4065 19.2853C35.3521 18.9133 36.2084 18.2978 36.8987 17.5905C37.7218 18.0543 38.7141 18.1848 39.6597 18.0157C40.3718 18.4051 41.198 18.637 42.0211 18.6727C43.0623 18.7181 44.0795 18.4853 45.0531 18.1577C45.2742 18.3867 45.5254 18.5906 45.8015 18.7607C46.8997 19.437 48.2814 19.7259 49.6131 19.6148C50.2878 20.3201 51.277 20.7858 52.3066 20.9926C52.862 21.6767 53.6416 22.1791 54.5311 22.4014C55.4342 23.4459 57.0493 23.8305 58.57 23.2923C60.0689 22.7618 61.193 21.5279 61.6435 20.1134C61.8043 19.6409 61.8822 19.1432 61.8584 18.6456C61.8563 18.6418 61.8562 18.6389 61.8562 18.6369ZM42.7706 13.4822C42.7374 13.3846 42.699 13.2879 42.6554 13.1932C42.7426 13.2164 42.7893 13.3063 42.7706 13.4822Z" fill="#39B100"/>
<path d="M59.945 84.9662C59.0652 84.2441 58.0767 84.3772 57.1442 84.9076C56.7701 84.8406 56.3633 84.934 56.0219 85.2785C55.945 85.3559 55.867 85.4314 55.789 85.5069C54.8986 85.7835 54.1284 86.3422 53.5688 87.0529C53.4413 87.2153 53.3159 87.3946 53.1968 87.5843C52.4065 88.1024 51.5814 88.5546 50.729 88.9444C50.5403 88.9481 50.3528 88.9614 50.1673 88.9822C48.9871 89.1171 47.9113 89.5664 47.0483 90.2223C40.946 91.7513 33.9702 90.9019 27.9238 89.2691C27.2894 89.0973 26.792 89.3267 26.5085 89.7014C23.4368 87.9439 20.4916 91.0859 20.2777 93.6843C20.1639 95.0585 20.8405 96.4885 22.1777 97.2256C23.6266 98.025 25.4169 97.6683 26.7878 96.9095C27.7035 96.4026 28.4296 95.6777 28.8721 94.8679C28.8774 94.8613 28.8827 94.8537 28.889 94.8471C28.8827 95.2011 28.9333 95.5418 29.0344 95.8637C29.0344 95.8741 29.0344 95.8845 29.0344 95.8948C28.9027 96.8245 29.1197 97.7664 29.8405 98.5498C31.5254 100.385 34.673 100.054 36.5571 98.6848C36.8985 98.4365 37.2041 98.1505 37.4675 97.8372C38.3832 99.2963 40.1978 100.276 42.1124 99.9316C42.9681 99.7777 43.7352 99.3747 44.3432 98.8254C44.4507 98.7858 44.555 98.7395 44.6573 98.6904C44.6804 98.6791 44.7036 98.6687 44.7278 98.6565C44.7331 98.6536 44.7395 98.6508 44.7447 98.648C45.3875 98.328 45.927 97.8363 46.2895 97.2454C47.9545 98.8641 50.8659 99.3558 53.0209 97.9778C54.5709 96.9868 55.2769 95.4304 55.1652 93.9146C55.2052 93.8042 55.239 93.6919 55.2685 93.5787C56.5172 93.5654 57.67 92.9368 58.5277 92.1336C59.5825 91.1463 60.3412 89.8637 60.6257 88.5187C60.8681 87.3776 61.003 85.8354 59.945 84.9662Z" fill="#39B100"/>
<path d="M20.5845 28.0967C21.4469 27.1697 22.3857 26.3171 23.4003 25.5396C23.5907 25.3938 23.3199 25.1405 23.131 25.2856C22.1165 26.0631 21.1776 26.9157 20.3153 27.8426C20.1537 28.0157 20.4222 28.2704 20.5845 28.0967Z" fill="#251C1C"/>
<path d="M68.7923 29.852C68.7726 30.4799 68.7137 31.1038 68.6226 31.7257C68.576 32.0402 69.0624 32.1764 69.11 31.8588C69.2022 31.2329 69.2695 30.6059 69.2943 29.9748C69.3119 29.5148 69.4288 28.8346 69.0966 28.4494C68.4435 27.6914 67.5731 28.5775 67.2326 29.1461C67.0659 29.4237 67.5028 29.6747 67.6694 29.3981C67.8795 29.0477 68.3763 28.1913 68.7985 29.1225C68.8751 29.2936 68.7975 29.6737 68.7923 29.852Z" fill="#251C1C"/>
<path d="M16.925 58.5939C15.6889 57.8453 14.4518 57.0966 13.2157 56.348C12.8991 56.157 12.6219 56.7483 12.9396 56.9393C14.1756 57.6879 15.4127 58.4366 16.6487 59.1852C16.9653 59.3776 17.2427 58.7863 16.925 58.5939Z" fill="#251C1C"/>
<path d="M15.7002 49.658C15.4688 49.3316 14.7473 49.6166 14.9769 49.9408C16.2744 51.7753 17.7707 53.5304 19.471 55.212C19.771 55.5097 20.496 55.2292 20.1926 54.9292C18.494 53.2476 16.9977 51.4925 15.7002 49.658Z" fill="#251C1C"/>
<path d="M64.6742 51.5189C63.7801 52.4627 62.886 53.4065 61.992 54.3503C61.6978 54.6605 61.9564 55.5867 62.2495 55.2787C63.1436 54.3349 64.0377 53.391 64.9317 52.4472C65.227 52.137 64.9684 51.2109 64.6742 51.5189Z" fill="#251C1C"/>
<path d="M62.7037 57.8895C61.4653 57.2611 60.2231 57.113 58.9615 57.476C58.5659 57.5905 58.5607 58.9562 58.9615 58.8389C60.1664 58.4898 61.3519 58.6017 62.5362 59.2022C62.9305 59.4032 63.0993 58.0878 62.7037 57.8895Z" fill="#251C1C"/>
<path d="M58.1029 62.1961C57.8271 62.0083 57.4104 62.3096 57.6874 62.4974C58.9098 63.328 60.1334 64.1594 61.3558 64.99C61.6316 65.1778 62.0484 64.8764 61.7714 64.6887C60.549 63.8572 59.3265 63.0266 58.1029 62.1961Z" fill="#251C1C"/>
<path d="M45.0394 29.2692C45.123 26.0755 42.5944 22.9824 38.7581 23.3271C35.3614 23.6323 33.9671 27.3281 34.8248 30.1412C34.2468 29.9133 33.5719 29.893 32.9196 30.1219C32.4902 30.2726 32.003 30.5266 31.7832 30.9254C31.3941 31.6323 32.035 31.7347 31.4013 31.3976C31.2805 31.3339 31.1402 31.3948 31.0989 31.5126C30.8264 32.2813 30.8687 32.6309 31.3528 33.3436C31.5479 33.6304 31.9876 33.3301 31.7543 33.0539C31.7543 33.049 31.7543 33.0442 31.7543 33.0393C31.6274 33.0123 31.5128 32.936 31.456 32.7931C31.4137 32.6869 31.3332 32.5961 31.295 32.486C31.2445 32.3402 31.2527 32.1924 31.2899 32.0447C31.3477 31.8226 31.6852 31.6623 31.8978 31.813C31.9772 31.8699 32.0474 31.9355 32.1186 32.0002C32.0556 31.2035 32.7069 30.5247 33.5708 30.373C34.3283 30.2398 35.0612 30.5565 35.5948 31.0548C35.6639 30.9853 35.7371 30.9196 35.8135 30.8569C34.352 28.204 35.7433 23.7926 39.4197 23.9104C43.2353 24.0321 45.1499 27.6217 44.1653 30.7323C44.3583 30.8028 44.5481 30.8781 44.7359 30.9582C44.7721 30.8491 44.8103 30.74 44.8403 30.6289C45.9415 27.6332 48.3751 30.2291 49.0243 31.36C49.7075 32.5527 49.3247 33.051 47.9035 33.3108C46.2893 33.6063 44.2127 33.2499 42.5614 33.219C39.0007 33.1533 35.4399 33.1205 31.8781 33.0819C31.8017 33.0809 31.8028 33.189 31.8781 33.1919C35.1148 33.3503 38.3504 33.5087 41.5902 33.6101C44.1167 33.6903 47.4111 34.3229 49.8582 33.728C49.947 33.7067 50.0296 33.6333 50.0502 33.5483C50.717 30.7642 47.0345 27.5087 45.0394 29.2692Z" fill="#251C1C"/>
<path d="M38.1755 34.2942C34.7951 33.6804 31.2507 34.0911 27.8649 34.4761C27.6897 34.4958 27.6842 34.8686 27.8649 34.858C31.308 34.6625 34.739 35.0413 38.1755 34.9307C38.4817 34.9201 38.4608 34.3457 38.1755 34.2942Z" fill="#251C1C"/>
<path d="M73.5263 55.4021C74.24 54.7937 74.7187 54.0515 75.1536 53.2833C75.3876 52.8681 75.6312 52.4271 75.7092 51.9756C75.8224 51.3213 75.4079 50.7636 75.0404 50.226C74.7284 49.7716 74.223 49.5745 73.661 49.4501C73.1995 49.3487 73.1461 49.145 73.4602 48.8321C73.6365 48.658 73.8491 48.5059 73.9901 48.3117C75.0639 46.8299 75.6397 45.24 75.2337 43.453C75.2048 43.3258 75.1739 43.1862 75.0938 43.0819C74.597 42.4314 74.146 41.7475 73.2935 41.3849C72.927 41.229 72.817 40.9324 72.9901 40.5641C73.4281 39.6333 73.8928 38.7102 74.2603 37.7584C74.5841 36.9175 74.8715 36.0508 74.6952 35.1324C74.5905 34.592 74.2935 34.1634 73.6792 34.0658C72.9933 33.9558 72.287 33.9481 71.5893 33.9013C71.4248 33.8898 71.2571 33.8994 71.1289 33.8994C71.4024 33.1532 71.6887 32.4721 71.8992 31.7719C72.317 30.3857 72.3629 28.9853 71.7475 27.6374C71.2582 26.566 70.0851 26.0886 68.9483 26.6702C68.7902 26.7506 68.6138 26.8042 68.3574 26.9046C68.4493 26.4043 68.4996 25.9996 68.6 25.6065C68.9814 24.1084 68.9076 22.6974 67.726 21.4605C66.9012 20.5976 65.8296 20.2294 64.6074 20.2475C63.9824 20.2571 63.3595 20.4322 62.7228 20.5345C62.7046 20.5087 62.6672 20.4752 62.6576 20.436C62.6373 20.3499 62.6191 20.2618 62.6202 20.1748C62.633 18.9656 62.5112 17.7823 62.0379 16.6276C61.7035 15.8097 61.3295 15.0454 60.4716 14.569C59.057 13.7827 57.6703 13.9281 56.3124 14.701C55.6724 15.0655 55.5944 15.032 55.542 14.3624C55.4897 13.7109 55.2353 13.1379 54.5879 12.8069C54.0676 12.541 53.5056 12.3057 52.9286 12.1727C52.388 12.0493 51.8827 12.0024 51.9062 11.3529C51.9084 11.2888 51.8582 11.1893 51.7994 11.1625C51.2748 10.9224 51.1263 10.4307 50.826 10.0385C50.1594 9.1689 49.4863 8.30028 48.7587 7.47185C48.0034 6.60994 47.3099 5.6438 46.3569 4.99904C45.1539 4.18783 44.1261 3.23696 43.0406 2.32817C42.9006 2.21146 42.8066 2.04791 42.7019 1.90059C42.3173 1.35819 41.9551 0.802347 41.5502 0.272382C41.2649 -0.101655 41.0278 -0.0825378 40.7009 0.280976C40.1677 0.875991 39.6537 1.4863 39.0928 2.05931C37.5682 3.61573 36.0276 5.15973 34.4848 6.70179C32.8876 8.29934 31.2861 9.89402 29.6717 11.4772C28.9057 12.2291 28.0296 12.9016 27.3426 13.7052C26.817 14.3193 26.272 14.57 25.412 14.5729C23.7837 14.5767 22.3895 15.2472 21.2057 16.1809C20.664 16.6085 20.3585 17.2781 19.9493 17.8396C19.6896 18.1946 19.6982 18.5811 19.914 18.9302C20.0849 19.2057 20.3371 19.4458 20.5797 19.6802C20.898 19.9873 20.8649 20.1834 20.4172 20.3155C19.9054 20.4676 19.3938 20.6311 18.8692 20.7354C17.4418 21.0185 16.1832 21.5552 15.2099 22.5615C14.4674 23.3297 13.8081 24.139 13.963 25.2295C14.0773 26.0369 14.5293 26.7219 15.087 27.3523C15.2248 27.5082 15.3659 27.6632 15.4599 27.7674C14.5101 28.174 13.603 28.4973 12.7707 28.9355C11.6949 29.5018 11.2183 30.4536 11.0206 31.5212C10.9148 32.0981 11.1745 32.5821 11.5762 33.0184C11.7097 33.1647 11.9106 33.3445 11.5676 33.4631C11.1477 33.6076 10.7119 33.7196 10.2781 33.8315C8.76956 34.2199 7.60393 34.9803 6.98853 36.3081C6.82186 36.6688 6.77378 37.0734 6.63702 37.4475C6.32505 38.2969 6.59537 38.9886 7.29517 39.5874C7.67018 39.9089 7.66055 40.0313 7.22464 40.3058C6.06436 41.0386 5.04505 41.8957 4.26192 42.9604C3.69246 43.7343 3.39017 44.5733 3.77373 45.4849C3.94788 45.8991 4.16476 46.3353 4.4949 46.6491C4.89555 47.0298 4.91472 47.1724 4.37731 47.4575C3.59097 47.8746 2.77256 48.2649 2.06742 48.7766C1.2971 49.3344 0.678483 50.0489 0.772502 51.0209C0.802417 51.3232 0.97554 51.635 1.16251 51.8981C1.57598 52.4835 1.9788 53.0919 2.50125 53.5961C3.06109 54.1385 3.12627 54.1223 2.45638 54.614C1.55145 55.2779 1.17534 56.1809 1.06423 57.17C0.926402 58.4088 1.29495 59.4649 2.66891 60.0494C2.68387 60.0561 2.70739 60.0637 2.70846 60.0733C2.73303 60.2206 2.83135 60.4177 2.76083 60.5086C2.39437 60.9869 1.95102 61.4183 1.59738 61.9033C1.19139 62.461 0.705281 63.0216 0.515105 63.6444C0.239458 64.5503 -0.0918093 65.4763 0.023578 66.4472C0.0727245 66.8538 0.0877364 67.2719 0.212739 67.6603C0.473429 68.4696 0.814162 69.2559 1.75222 69.6481C2.03214 69.7648 2.33236 69.8576 2.63365 69.915C3.09199 70.002 3.07927 70.267 2.94572 70.5473C2.47242 71.5413 2.00441 72.5399 1.48303 73.5147C0.927462 74.5574 0.773608 75.5935 1.47875 76.6085C1.89436 77.2064 2.39436 77.7574 3.30463 77.7928C3.74588 77.81 4.18287 77.8923 4.62198 77.9477C5.32178 78.0348 5.3464 78.0491 5.27909 78.6517C5.15409 79.7873 4.89012 80.9228 4.91683 82.0545C4.9382 82.9231 5.23204 83.8118 5.56111 84.6412C5.89872 85.4945 6.69688 86.0589 7.54412 86.5295C7.70438 86.6195 7.90839 86.6539 8.09856 86.6902C8.40199 86.7476 8.71076 86.7772 9.01526 86.8318C9.82511 86.9762 10.6349 87.0834 11.448 86.8538C11.7973 86.7553 11.9416 86.8567 11.9982 87.1953C12.1799 88.2658 12.3807 89.3343 12.6168 90.3962C12.8829 91.5948 13.6532 92.4998 14.7857 93.1589C14.9865 93.2765 15.2269 93.3674 15.462 93.4048C16.5806 93.5827 17.6746 93.5061 18.7516 93.1464C19.0155 93.0584 19.273 92.626 19.5999 92.978C19.7987 93.1923 19.8691 93.5042 19.9898 93.7739C20.0262 93.8553 20.0315 93.9471 20.0647 94.0303C20.4375 94.9764 20.7367 95.9197 21.6096 96.6773C22.8222 97.7287 24.8116 98.0568 26.2636 97.28C26.6503 97.0733 27.0659 96.9107 27.4687 96.728C27.5979 96.881 27.7101 96.9767 27.771 97.0934C28.4206 98.3169 29.614 99.0134 30.91 99.5405C31.5927 99.8188 32.3908 99.9451 33.1472 99.9843C34.2787 100.044 35.424 99.9623 36.3567 99.2592C36.8033 98.9224 37.2147 98.5484 37.6378 98.1868C37.8824 97.9783 38.1174 97.852 38.4593 98.0615C38.9102 98.338 39.3686 98.6164 39.859 98.8297C41.9819 99.75 44.1058 100.381 46.2949 98.9205C46.7469 98.6192 46.9712 98.2863 46.9712 97.8281C46.9712 97.4799 46.9071 97.124 46.812 96.7844C46.6785 96.307 46.7576 96.1884 47.3014 96.2535C47.8014 96.3128 48.2928 96.4506 48.7929 96.4793C49.951 96.5462 51.1188 96.5108 52.2706 96.6208C54.0131 96.7863 55.2172 96.0086 56.2311 94.9085C56.4768 94.6426 56.5623 94.2131 56.5997 93.8486C56.6414 93.4296 56.5912 92.9924 56.4993 92.5782C56.4277 92.2548 56.5409 92.1314 56.855 92.0281C57.3561 91.8645 57.8508 91.678 58.3348 91.4771C59.6265 90.9395 60.8103 90.2278 61.5967 89.1669C62.4172 88.0601 62.7312 86.8021 62.2227 85.4744C62.1532 85.2936 62.0924 85.1108 62.0261 84.9291C61.8904 84.5579 62.0112 84.2948 62.3755 84.0614C63.3702 83.4233 64.3766 82.792 65.3157 82.0908C66.616 81.1217 67.804 80.0848 68.2378 78.5064C68.5893 77.2236 68.444 76.1311 67.3233 75.2147C67.1171 75.0453 67.0988 74.8875 67.3115 74.6933C67.9611 74.1002 68.6 73.4966 69.2335 72.8901C69.4002 72.7303 69.5573 72.5562 69.6833 72.3687C70.1972 71.6073 70.709 70.8448 71.1973 70.07C71.5114 69.5725 71.8426 69.0741 72.0562 68.5403C72.2753 67.9912 72.5381 67.4441 72.3052 66.8003C72.0028 65.9623 71.4633 65.3252 70.6824 64.8182C70.2529 64.5398 70.2283 64.3331 70.4954 64.0165C71.0745 63.3315 71.6418 62.638 72.2101 61.9454C72.3661 61.757 72.4997 61.5541 72.6557 61.3657C73.3555 60.5229 73.9527 59.6391 74.0595 58.56C74.1193 57.9573 73.9922 57.4235 73.3597 57.0724C73.1674 56.9653 72.9965 56.818 72.8479 56.664C72.7785 56.5922 72.7219 56.4276 72.7668 56.3635C72.9976 56.0297 73.2133 55.6681 73.5263 55.4021ZM27.7999 14.2572C28.2754 13.7358 28.7881 13.2412 29.2807 12.7323C30.505 11.4667 31.7059 10.1829 32.9538 8.93835C33.972 7.92338 35.0768 6.97926 36.0854 5.95855C37.6174 4.40979 39.1014 2.82367 40.6004 1.24908C41.0139 0.814779 41.1506 0.810998 41.5256 1.27113C41.6026 1.36583 41.6827 1.46246 41.735 1.56961C42.5449 3.20638 44.0375 4.28735 45.5931 5.29658C46.5835 5.94038 47.3249 6.77257 48.0172 7.64309C48.7886 8.61023 49.498 9.61662 50.217 10.6153C50.4361 10.9195 50.5974 11.2572 50.8228 11.6428C50.6604 11.7442 50.5579 11.8532 50.435 11.8761C50.1145 11.9364 49.7844 11.9479 49.4618 11.9977C48.5269 12.1411 47.7299 12.5296 47.0803 13.1408C46.811 13.3953 46.6251 13.4019 46.4595 13.0767C45.9734 12.1229 45.1539 11.4161 44.2191 10.845C43.1688 10.2021 41.9594 10.0528 40.6891 10.137C39.7061 10.203 39.1816 10.6564 38.9038 11.4581C38.7157 12.0024 38.6174 11.9833 38.0896 11.6609C36.6024 10.755 35.0137 10.2078 33.1932 10.7741C32.8107 10.8928 32.442 11.0687 32.0948 11.2591C30.6183 12.0674 29.6568 13.268 28.9142 14.6369C28.8234 14.8034 28.6033 15.0444 28.4655 15.033C28.1962 15.0119 27.9185 14.8636 27.6994 14.7067C27.6353 14.6599 27.6984 14.3672 27.7999 14.2572ZM71.6161 56.8869C71.9163 57.0017 72.2197 57.1135 72.506 57.2522C73.224 57.5976 73.4227 58.0989 73.2015 58.8078C72.8607 59.9069 72.1888 60.8424 71.4356 61.735C70.6663 62.6457 69.9697 63.6166 68.8703 64.2633C68.584 64.4316 68.6599 64.6431 68.8885 64.8047C68.9985 64.8832 69.1534 64.93 69.2955 64.9492C70.3201 65.0869 70.8617 65.7451 71.3361 66.4664C71.803 67.1762 71.584 67.8956 71.1877 68.5279C70.3885 69.8059 69.569 71.083 68.6278 72.2778C68.1 72.9475 67.3297 73.4727 66.6331 74.0265C66.2645 74.3193 65.8104 74.4934 65.2784 74.4724C65.1256 74.4657 64.9653 74.6072 64.8082 74.6818C64.9044 74.8243 64.9643 75.0157 65.1042 75.098C65.3329 75.2319 65.6074 75.3161 65.8745 75.3811C67.7143 75.8336 67.8489 76.7089 67.5743 78.0539C67.289 79.4515 66.2784 80.477 65.0775 81.3264C64.0251 82.0697 62.8947 82.7241 61.8028 83.4224C61.6426 83.5248 61.4994 83.6482 61.3573 83.7696C60.775 84.2661 60.8071 84.2509 61.212 84.8966C61.7707 85.7891 61.8252 86.7323 61.4534 87.7042C61.01 88.8617 60.1586 89.6672 58.962 90.2498C57.963 90.7357 56.9405 91.1423 55.8379 91.3795C55.4116 91.4704 55.3839 91.6876 55.4843 92.0042C55.6222 92.4404 55.7482 92.8805 55.8614 93.3224C56.0281 93.971 55.6179 94.3661 55.1424 94.8023C53.9832 95.8632 52.5451 95.8795 51.0718 95.7819C49.8976 95.7054 48.7256 95.5743 47.5557 95.4442C47.1348 95.3973 46.7223 95.2844 46.3067 95.2012C45.9606 95.1323 45.8024 95.2424 45.8548 95.5696C45.9146 95.9474 45.9007 96.3454 46.0321 96.7022C46.5172 98.0242 45.9413 98.5226 44.3622 98.8536C43.6667 98.999 42.8644 98.8478 42.1336 98.7197C41.0353 98.5274 39.9818 98.1763 39.1313 97.4876C38.8087 97.2264 38.5758 96.8791 38.2766 96.5931C38.1345 96.4563 37.9326 96.3683 37.7585 96.2593C37.6602 96.4143 37.5052 96.5597 37.4721 96.7252C37.3449 97.3757 36.9326 97.8683 36.3877 98.2557C35.2456 99.066 33.9528 99.3625 32.5115 99.0344C32.1002 98.9406 31.6429 98.9397 31.2775 98.7723C29.816 98.1036 28.5852 97.2168 28.0456 95.7474C27.8832 95.3064 27.6546 95.2596 27.271 95.5714C26.4687 96.2238 25.6139 96.7749 24.459 96.7787C23.1267 96.7835 22.1855 96.2018 21.5327 95.2098C20.9547 94.3326 20.7314 93.3521 20.5839 92.3562C20.5583 92.1821 20.5893 91.9966 20.5358 91.8311C20.4771 91.6493 20.3948 91.414 20.2388 91.3375C20.1266 91.282 19.8499 91.4149 19.696 91.5211C18.8616 92.098 17.9557 92.5007 16.8926 92.6088C15.618 92.7389 14.7751 92.1831 14.1105 91.2867C13.3071 90.201 13.1179 88.9584 13.0122 87.7148C12.9587 87.069 13.1296 86.4099 13.1788 85.7556C13.1895 85.6121 13.166 85.4007 13.0656 85.3338C12.9587 85.262 12.7247 85.2878 12.573 85.3366C12.3444 85.4102 12.1414 85.5461 11.9224 85.6456C10.3711 86.3497 8.30799 86.0838 7.05583 84.9951C6.43081 84.4508 6.17119 83.7247 6.01414 82.9862C5.63165 81.1888 5.8838 79.4505 6.71715 77.7793C6.93938 77.3335 6.82712 77.147 6.29292 77.1011C5.50872 77.0341 4.72242 76.9959 3.94035 76.9174C2.59951 76.7816 1.78218 75.8431 2.12407 74.6809C2.61874 73.003 3.3089 71.3844 4.49803 69.9772C4.61555 69.8366 4.74063 69.6931 4.81542 69.5343C4.87952 69.3984 4.95534 69.1832 4.88376 69.1029C4.80149 69.0082 4.56641 69.0005 4.39547 68.9928C3.89225 68.9679 3.37622 69.0168 2.88583 68.9364C1.97555 68.7862 1.30249 68.086 1.15719 67.2709C0.747992 64.9674 1.59201 63.012 3.2726 61.314C3.63159 60.9505 4.14868 60.7114 4.59955 60.4216C4.71814 60.3451 4.8912 60.3192 4.97881 60.2245C5.1177 60.0771 5.2064 59.8907 5.31644 59.7204C5.12947 59.6276 4.95323 59.4869 4.75344 59.4524C4.33784 59.3788 3.91041 59.3597 3.48733 59.3224C2.5888 59.243 2.18073 58.4968 2.15829 57.9401C2.09312 56.3454 2.55788 55.0406 4.58891 54.3757C4.79083 54.3088 4.9137 54.0486 5.07396 53.8783C4.90195 53.774 4.74379 53.618 4.55468 53.5731C3.58351 53.3445 2.93177 52.7772 2.43176 52.0377C2.30462 51.8493 2.19989 51.6503 2.08129 51.4581C1.72017 50.8707 1.80672 50.1676 2.38366 49.6778C3.33133 48.8742 4.42327 48.2591 5.62308 47.7894C6.02053 47.6344 6.38695 47.401 6.73312 47.1638C7.02479 46.9638 6.92337 46.7448 6.6317 46.6128C6.4287 46.5209 6.20433 46.4578 5.98211 46.409C4.63806 46.1173 4.34212 44.515 4.95325 43.6129C5.67869 42.5424 6.67228 41.7254 7.81226 41.0491C8.17445 40.8348 8.65951 40.7545 9.1029 40.6894C9.50248 40.6301 9.92875 40.7172 10.3283 40.656C10.5238 40.6263 10.683 40.4062 10.8593 40.2723C10.7076 40.1594 10.574 39.992 10.4009 39.9451C9.97893 39.8313 9.52912 39.8007 9.10603 39.6888C7.69681 39.3186 7.22567 38.5274 7.63166 37.2628C8.15411 35.6375 9.4565 34.81 11.2012 34.369C11.9587 34.1777 12.6617 34.2973 13.3818 34.414C13.7323 34.4714 14.0315 34.4293 14.1682 34.1289C14.305 33.8286 13.9898 33.7434 13.7729 33.6143C13.3295 33.3503 12.8904 33.0795 12.4641 32.7935C11.9844 32.4711 11.8551 31.5203 12.1307 30.9061C12.5677 29.9323 13.5015 29.5028 14.4631 29.0618C15.1821 28.7317 15.9438 28.8675 16.6821 28.7719C17.0165 28.7288 17.3658 28.658 17.3776 28.3414C17.3851 28.1577 17.149 27.8985 16.9449 27.7875C16.2333 27.401 15.603 26.9639 15.1778 26.3C14.5698 25.3501 14.6478 24.4193 15.3786 23.5459C16.3519 22.3846 17.6308 21.6997 19.1971 21.384C20.1405 21.1946 21.0732 20.9592 21.9984 20.7086C22.2014 20.654 22.4878 20.4503 22.4932 20.3078C22.4996 20.1251 22.303 19.8887 22.1203 19.7567C21.7538 19.4908 21.3307 19.288 20.9429 19.045C20.5593 18.8049 20.5241 18.4739 20.6812 18.1047C21.3137 16.6267 22.5957 15.8241 24.24 15.4625C25.1406 15.2645 26.0755 15.0875 27.0093 15.3429C27.3992 15.4491 27.8875 15.5218 28.1204 15.7686C28.5019 16.1714 28.7978 16.5904 29.4346 16.709C29.6055 16.7406 29.708 17.0026 29.8822 17.1021C30.02 17.1805 30.2208 17.171 30.3939 17.2007C30.395 17.0543 30.4527 16.883 30.3886 16.7635C30.1397 16.2947 29.8406 15.847 29.5895 15.3793C29.5361 15.2798 29.5724 15.1153 29.6248 15.0024C30.4784 13.1389 31.8566 11.7623 34.1109 11.2543C34.9752 11.0592 35.8033 11.2974 36.5982 11.5997C36.8396 11.6915 37.0704 11.8053 37.2979 11.923C37.767 12.166 38.126 12.4865 38.2766 12.9773C38.3172 13.1083 38.4753 13.2106 38.579 13.3254C38.7264 13.2097 38.9369 13.1188 39.0106 12.9734C39.2168 12.5583 39.3739 12.1229 39.5395 11.6925C39.7778 11.0745 40.2703 10.7895 40.9851 10.7493C43.4915 10.6096 44.9114 11.5604 46.0204 13.6373C46.1476 13.8755 46.2244 14.1357 46.3569 14.371C46.4135 14.4714 46.5599 14.6044 46.654 14.5977C46.7875 14.5872 46.9649 14.4887 47.0311 14.3815C48.0162 12.8098 50.0205 12.056 51.9564 12.5515C52.6028 12.717 53.2449 12.8959 53.8838 13.0805C54.4896 13.2565 54.8731 13.6401 54.9095 14.2026C54.9426 14.7096 54.8443 15.2214 54.8315 15.7313C54.8262 15.9341 54.8956 16.1378 54.9308 16.3406C55.1221 16.2431 55.3763 16.1876 55.4971 16.0422C56.34 15.0281 58.1008 14.4274 59.447 14.7546C60.2173 14.9421 60.775 15.4204 61.1255 16.0346C61.7152 17.0697 62.0037 18.1831 61.9524 19.3578C61.9995 19.3645 62.0464 19.3722 62.0934 19.3789C61.9353 20.0304 61.7676 20.6799 61.6277 21.3342C61.5988 21.471 61.6789 21.626 61.7078 21.7723C61.8702 21.7446 62.0667 21.7609 62.1896 21.6825C63.0069 21.1678 63.8531 20.7334 64.9012 20.8052C66.7292 20.9286 68.1769 22.3071 68.1727 23.9477C68.1673 25.3778 67.7773 26.7334 67.1021 28.0286C67.0262 28.176 67.0797 28.3777 67.0733 28.5537C67.2763 28.5002 67.5209 28.4935 67.6726 28.3845C68.1534 28.0391 68.5765 27.6297 69.0637 27.2939C69.8596 26.7458 70.6962 26.94 71.1204 27.7694C71.5979 28.7059 71.6685 29.6941 71.4879 30.7043C71.2529 32.0234 70.927 33.3043 69.7677 34.2695C69.6716 34.3499 69.6684 34.5202 69.6214 34.6483C69.7976 34.6885 70.0124 34.8062 70.1449 34.7546C70.927 34.4523 71.7518 34.4896 72.568 34.4608C72.7464 34.4542 72.9313 34.4685 73.1055 34.5039C73.8907 34.6627 74.0413 34.8799 74.0915 35.5983C74.1567 36.5081 73.6973 37.2905 73.3832 38.0989C72.9761 39.1502 72.4451 40.1623 71.9676 41.1916C71.802 41.5475 71.9142 41.7618 72.2903 41.8048C73.4805 41.9426 74.4549 42.947 74.5692 44.0089C74.7668 45.8312 73.9121 47.2557 72.5798 48.5203C72.3138 48.7729 72.0008 48.9852 71.7198 49.2263C71.6119 49.3181 71.4366 49.5046 71.4623 49.5352C71.567 49.6624 71.724 49.8031 71.8864 49.8337C72.2368 49.8987 72.6022 49.9055 72.9623 49.9227C74.3331 49.9868 75.2326 51.3021 74.6909 52.4558C74.0926 53.731 73.1877 54.7794 72.1204 55.7428C71.9131 55.9303 71.6941 56.1072 71.4804 56.289C71.1952 56.53 71.2475 56.7453 71.6161 56.8869Z" fill="#251C1C"/>
<path d="M67.3425 40.9105C67.1991 40.1407 67.1698 39.3468 66.9511 38.5971C66.5797 37.3179 66.0963 36.0665 65.6642 34.8026C65.501 34.325 65.4121 33.8166 65.1788 33.3707C64.7278 32.5086 64.1963 31.682 63.7025 30.8381C63.2944 30.1384 62.9429 29.4062 62.4773 28.7401C61.7783 27.7396 61.001 26.7843 60.2571 25.8107C59.9809 25.4502 59.7465 25.0514 59.4159 24.741C58.7661 24.1316 58.0483 23.5847 57.3829 22.9888C56.1535 21.8874 54.6176 21.2435 53.1089 20.5688C52.4654 20.2805 51.7173 20.1892 51.0812 19.8922C49.9972 19.3876 48.9646 18.7898 47.9078 18.2343C46.3436 17.4107 44.6329 16.9407 42.9087 16.5082C42.8197 16.4861 42.7036 16.5553 42.6 16.5822C42.4807 16.614 42.3614 16.6755 42.2422 16.6745C40.9092 16.662 39.5763 16.6341 38.2423 16.6265C37.8918 16.6236 37.5182 16.612 37.1928 16.71C35.9593 17.081 34.7059 17.4222 33.5288 17.9143C32.3078 18.4246 31.1275 19.0416 30.0007 19.7125C28.877 20.3833 27.8181 21.1532 26.775 21.9298C26.1546 22.392 25.6168 22.9485 25.0466 23.4666C24.1112 24.3152 23.1308 25.1254 22.2582 26.025C20.9912 27.3321 19.7733 28.6814 18.5942 30.0568C17.8534 30.9198 17.1806 31.8406 16.555 32.7786C15.9711 33.6542 15.4711 34.5807 14.9657 35.4985C14.294 36.7181 13.6233 37.9398 13.0092 39.1844C12.5927 40.0263 12.2736 40.9085 11.9116 41.7735C11.3194 43.1863 10.5975 44.5664 10.1674 46.0196C9.48004 48.3426 8.98099 50.7137 8.41809 53.0684C8.33648 53.4115 8.36572 53.7747 8.30713 54.1236C8.15228 55.0386 7.93153 55.9459 7.82272 56.8657C7.69926 57.9181 7.73383 58.9887 7.58107 60.0373C7.35717 61.575 7.5026 63.1022 7.66373 64.6207C7.82904 66.1671 8.11573 67.7117 8.47879 69.2312C8.79686 70.5584 9.27178 71.8559 9.72482 73.1534C10.0115 73.9741 10.3464 74.7862 10.7293 75.5734C11.085 76.3028 11.5349 76.9948 11.943 77.7032C12.4263 78.5441 12.825 79.4245 13.5061 80.1665C14.1444 80.8623 14.6675 81.6495 15.3319 82.3223C16.0936 83.0921 16.9431 83.7908 17.777 84.4982C18.1045 84.7749 18.5586 84.9393 18.841 85.2439C19.9062 86.3896 21.4128 86.9153 22.751 87.6775C23.0774 87.8639 23.4143 88.0331 23.745 88.2109C23.9385 88.3147 24.1175 88.4512 24.3236 88.5213C25.3594 88.8731 26.4319 89.146 27.3442 89.7563C27.4447 89.8236 27.5755 89.8562 27.6958 89.8937C28.7641 90.2291 29.8259 90.5829 30.9036 90.8885C31.8338 91.1528 32.7723 91.4152 33.7275 91.5767C34.6389 91.7305 35.5753 91.7736 36.5044 91.8275C38.0728 91.9188 39.5951 92.4609 41.2148 92.1216C42.6001 91.8314 44.0198 91.6881 45.4197 91.4536C46.2128 91.32 46.9411 91.0596 47.6358 90.729C47.889 90.8539 48.2437 90.8029 48.3002 90.4819C48.3064 90.4483 48.3085 90.4147 48.3138 90.381C48.6653 90.1869 49.0116 89.9802 49.3548 89.765C50.4398 89.0845 51.5311 88.4319 52.5146 87.6179C54.2985 86.1426 55.3866 84.2088 56.7008 82.425C57.0732 81.9195 57.2783 81.3102 57.5817 80.7595C58.2105 79.6187 58.9031 78.5047 59.4796 77.3428C60.1744 75.9396 60.7823 74.4999 61.4132 73.0708C61.8652 72.0482 62.2921 71.0159 62.7346 69.9904C63.1532 69.0197 63.5947 68.0577 63.9954 67.0802C64.3909 66.1162 64.6765 65.109 65.1411 64.1757C65.6433 63.1695 65.9028 62.119 66.1361 61.0512C66.428 59.723 66.7053 58.3918 67.0192 57.0675C67.1688 56.4399 67.4199 55.8334 67.5695 55.2058C67.7432 54.4744 67.9399 53.7344 67.9818 52.9905C68.1094 50.7396 68.168 48.4858 68.2621 46.0062C68.2318 45.7755 68.1931 45.32 68.1094 44.8721C67.8625 43.5506 67.5873 42.233 67.3425 40.9105ZM46.2871 90.3792C44.2312 90.95 42.1261 91.2691 39.9906 91.3133C38.913 91.3354 37.8269 91.099 36.7461 90.9712C36.2617 90.9135 35.7782 90.851 35.2938 90.7904C34.1324 90.8212 32.9763 90.777 31.861 90.6021C30.211 90.3435 28.6667 89.7294 27.1977 88.9759C27.2144 88.9605 27.2312 88.9471 27.2396 88.926C28.0222 86.8615 28.0902 84.8932 29.9463 83.267C32.0169 81.4525 35.1086 81.3073 37.2242 83.1286C37.7034 83.5409 38.4191 82.8884 37.9462 82.4655C37.8227 82.355 37.6961 82.254 37.5684 82.1569C43.0112 79.9127 46.9839 85.5131 47.3512 89.963C47.0143 90.1293 46.6638 90.2744 46.2871 90.3792ZM52.7155 85.2133C52.7124 85.2805 52.7249 85.342 52.7458 85.3997C51.4348 86.7125 49.8466 87.8303 48.3619 88.9663C48.3096 88.308 48.1558 87.6419 47.9194 86.9913C47.5103 85.614 46.9944 84.3204 47.1085 82.8441C47.119 82.7163 46.8982 82.6904 46.8657 82.8144C46.7192 83.368 46.6093 83.9484 46.5664 84.5299C44.4038 81.6745 40.6508 79.9003 37.197 81.8993C32.5735 78.9151 25.7162 83.8119 26.9278 88.8346C26.2853 88.4954 25.6555 88.134 25.0403 87.762C25.3991 87.4727 25.6126 86.999 25.7916 86.6068C26.0678 85.9975 26.1703 85.3612 26.3838 84.7375C26.4162 84.6452 26.2676 84.6135 26.2299 84.6981C25.9851 85.2565 25.6157 85.8158 25.2359 86.3088C24.9587 86.6683 24.5444 86.9394 24.287 87.2998C24.2473 87.2748 24.2054 87.2498 24.1656 87.2248C24.0662 87.2805 23.9522 87.2777 23.7785 87.1797C23.0356 86.7654 22.2761 86.3733 21.5447 85.9427C21.5709 85.8793 21.5886 85.8101 21.5981 85.7342C21.733 84.6731 21.0739 83.0719 19.766 82.8729C20.8238 80.3385 23.1308 78.5941 25.4871 76.9334C25.7894 77.3207 26.2341 77.6148 26.6997 77.8493C27.3013 78.1511 27.8412 77.2938 27.2354 77.0074C26.7604 76.7825 26.2697 76.5662 25.9213 76.1799C25.6441 75.8723 25.5749 75.4062 25.6356 74.9785C25.8846 75.3158 26.1451 75.6503 26.4266 75.9781C26.7572 76.3635 27.4907 75.8503 27.1727 75.4495C26.5177 74.6249 25.9066 73.7733 25.3793 72.8833C26.0751 72.6738 26.82 72.0894 26.5354 71.4503C26.2362 70.7795 25.146 70.767 24.4188 70.9534C24.2692 70.5853 24.1311 70.2124 24.0191 69.8289C24.1625 69.8357 24.3121 69.8107 24.4565 69.7434C25.1471 69.4263 25.7947 68.9121 25.7403 68.1345C25.69 67.4166 24.9315 66.7592 24.4188 66.2719C24.2399 66.1018 24.0369 66.0413 23.8434 66.0547C24.0725 64.8678 24.5099 63.7106 24.9274 62.4496C24.9451 62.3958 24.9325 62.3487 24.9043 62.3102C25.0905 62.1805 25.1962 61.9143 25.01 61.6942C24.3111 60.8658 23.3914 59.1434 23.8465 58.0526C24.2462 57.0924 26.7907 58.3063 27.6707 58.265C28.1645 58.4178 28.7232 58.4755 29.2746 58.5331C32.2021 58.8359 35.2248 58.5081 38.1544 58.3649C41.0871 58.2227 44.023 58.0324 46.9578 57.9526C47.8398 57.9286 48.726 58.0536 49.4071 57.7816C49.4218 57.7807 49.4354 57.7826 49.4501 57.7778C50.4796 57.4779 51.4808 57.1184 52.4831 56.7542C52.0584 57.9719 51.2884 59.3684 51.3166 60.4976C51.3459 61.6721 52.6077 62.8648 52.9278 63.9874C53.0293 64.342 53.0963 64.6948 53.1486 65.0456C52.4152 64.7803 51.2873 65.2272 50.6846 65.5011C49.4553 66.0585 49.5588 67.2205 50.3372 68.1047C50.8227 68.6573 51.8303 69.3532 52.7113 69.3561C52.5596 69.8097 52.3765 70.2566 52.1746 70.6987C51.867 70.3719 51.4568 70.1634 50.9368 70.2326C50.2348 70.3249 49.8277 70.9265 49.9784 71.5532C50.0893 72.0126 50.5758 72.5623 51.1272 72.6517C50.5957 73.5224 50.0046 74.3643 49.3946 75.1688C49.0315 75.6493 49.8769 76.0876 50.2431 75.6243C50.511 75.2841 50.7736 74.9382 51.0289 74.5854C51.0676 74.7719 51.1199 74.7709 51.2633 74.9919C51.8136 75.8415 52.5668 76.5047 53.0324 77.4225C53.8287 78.9911 54.0422 80.6297 54.3989 82.2847C53.3935 83.1036 52.7615 83.9302 52.7155 85.2133ZM26.9759 48.3772C26.956 48.0687 26.9236 47.7621 26.8838 47.4565C26.8901 47.4401 26.8954 47.4228 26.8985 47.4046C27.0795 46.0196 27.2501 44.6453 27.6006 43.2854C27.723 42.8087 27.8569 42.405 27.7575 42.0417C35.1945 42.0965 42.6711 41.7995 50.1112 41.5736C49.8779 45.5372 49.632 49.5008 49.405 53.4644C49.4029 53.5057 49.404 53.5556 49.404 53.6018C41.9032 53.8113 34.1963 53.4903 26.7542 54.2716C26.6234 52.3283 27.1004 50.3321 26.9759 48.3772ZM49.2638 56.141C48.4927 57.4164 46.7632 57.2376 45.4909 57.3077C43.209 57.4327 40.926 57.5384 38.643 57.6527C36.5819 57.7556 34.5175 57.896 32.4542 57.9392C31.364 57.9613 29.4316 58.1622 28.4721 57.7518C27.2396 57.2241 26.8974 55.8104 26.775 54.5754C34.2433 55.078 41.9283 54.4648 49.4301 54.3956C49.4636 55.0492 49.4877 55.769 49.2638 56.141ZM67.3644 47.1692C67.2818 49.1298 67.2619 51.0933 67.1133 53.0491C67.0421 53.9804 66.7481 54.8993 66.5336 55.8191C66.1298 57.5481 65.6882 59.2694 65.3043 61.0022C64.9841 62.441 64.4003 63.7952 63.8353 65.158C63.0296 67.1014 62.2408 69.0495 61.432 70.9909C61.1568 71.6512 60.8451 72.298 60.5458 72.9496C60.0729 73.9818 59.6083 75.017 59.1176 76.0425C58.7368 76.8383 58.3246 77.6225 57.9176 78.4077C57.859 78.5211 57.7533 78.6134 57.6204 78.7748C57.4551 79.1525 57.2752 79.5206 57.0482 79.8656C57.0471 79.9425 57.0313 80.0224 57.0031 80.0839C56.6149 80.921 56.1943 81.7389 55.644 82.4982C55.5215 80.673 55.08 78.7278 54.1562 77.1199C53.6477 76.2328 52.389 74.4595 51.1115 74.4691C52.8295 72.0702 54.174 69.3849 54.2232 66.4708C54.2452 65.1503 54.0108 63.799 53.4385 62.5813C52.818 61.2598 52.3607 60.6044 52.6882 59.1031C52.8996 58.1401 53.2847 57.2174 53.4699 56.239C53.5337 55.9026 53.2083 55.6893 52.8776 55.8209C52.0176 56.1631 51.1597 56.4994 50.3143 56.8637C50.6292 56.1313 50.5528 55.1414 50.5612 54.3091C50.782 54.1582 50.7913 53.8237 50.5894 53.6642C50.671 52.409 50.7453 51.1529 50.8217 49.8968C50.9912 47.1105 51.1596 44.3243 51.326 41.538C53.1968 41.4842 55.0644 41.4352 56.9278 41.3997C56.5166 44.578 56.3596 47.8794 56.7855 51.0721C56.7614 51.1048 56.7436 51.1404 56.7373 51.1779C56.7258 51.2586 56.73 51.3403 56.729 51.422C56.3042 51.5335 55.8888 51.7132 55.486 51.8698C54.9984 52.0611 54.4931 52.2159 54.0798 52.5292C53.8298 52.7185 54.1112 53.0126 54.3634 52.9761C54.8562 52.904 55.2956 52.6618 55.7423 52.4667C56.0792 52.3196 56.4382 52.1755 56.7698 52.0015C56.7709 52.0121 56.7718 52.0217 56.7729 52.0314C56.5887 52.312 56.4319 52.6109 56.2551 52.8925C55.9684 53.35 55.6754 53.8046 55.3626 54.2467C55.1784 54.5081 55.6189 54.8319 55.8386 54.5849C56.1996 54.1784 56.5479 53.7652 56.8514 53.3211C56.8984 53.2519 56.9477 53.1799 56.9969 53.1087C57.1036 53.6249 57.2113 54.14 57.3044 54.6599C57.3494 54.9098 57.8255 54.8541 57.7899 54.5994C57.7251 54.1342 57.6988 53.621 57.658 53.1058C57.9008 53.4576 58.1635 53.7959 58.4617 54.0881C58.6594 54.2812 58.9785 54.0352 58.8508 53.8122C58.5213 53.2365 58.0316 52.7031 57.5545 52.2043C57.5514 52.189 57.5503 52.1726 57.5482 52.1572C57.8108 52.385 58.0912 52.5974 58.3727 52.8031C58.6991 53.0433 59.0099 53.2884 59.3991 53.4355C59.7538 53.5691 59.9201 53.1193 59.7328 52.9079C59.4765 52.6176 59.1103 52.4186 58.7776 52.2091C58.4281 51.99 58.0776 51.7632 57.701 51.5864C57.6089 51.5431 57.5189 51.5508 57.4436 51.5844C57.4331 51.5786 57.4237 51.57 57.4122 51.5652C57.385 51.4729 57.3515 51.3845 57.318 51.297C57.34 47.7746 57.4133 44.3108 57.883 40.7875C57.9353 40.3924 57.4353 40.3069 57.1664 40.5164C57.1005 40.4866 57.0241 40.4664 56.932 40.4683C55.0141 40.5077 53.091 40.5338 51.1659 40.5539C50.9504 40.4011 50.6073 40.403 50.3781 40.5626C40.5996 40.6587 30.7477 40.6221 21.0466 41.4093C20.717 41.4362 20.7087 41.8725 21.0466 41.886C22.7594 41.9571 24.4753 42.0013 26.1933 42.0253C26.1923 42.1522 26.2341 42.2782 26.3315 42.3877C26.3179 42.456 26.3032 42.5732 26.2885 42.7414C26.2749 42.825 26.2634 42.9076 26.2508 42.9912C26.2446 42.8336 26.2414 42.6751 26.2435 42.5165C26.2445 42.4444 26.1316 42.4473 26.1242 42.5165C26.0207 43.4411 26.0385 44.3637 26.1012 45.2863C26.1107 45.5064 26.1285 45.7265 26.1525 45.9457C26.2833 47.4786 26.4852 49.0134 26.3994 50.5608C26.2948 52.4609 25.4881 55.4192 26.3576 57.2203C26.3754 57.2558 26.3994 57.2828 26.4193 57.3174C25.8962 57.1694 25.3448 57.078 24.8593 56.9838C24.1771 56.8512 23.5023 56.6225 23.1706 57.3174C22.4215 58.8801 23.3558 61.0272 24.4021 62.2535C24.446 62.3054 24.4941 62.34 24.5433 62.3621C22.1201 66.5448 22.7291 70.8534 25.3982 74.6478C25.0968 75.1005 25.0382 75.7733 25.1491 76.2452C25.1794 76.374 25.2275 76.4932 25.284 76.6076C23.5838 76.9171 21.9967 78.2414 20.8866 79.3919C19.6719 80.6509 18.8118 82.0964 18.4111 83.7331C16.5079 82.2328 14.8862 80.5 13.5449 78.5221C12.2443 76.6028 11.3948 74.5133 10.5065 72.42C9.69769 70.5123 9.26035 68.543 8.91089 66.5516C8.42855 63.8 8.38139 61.0272 8.75282 58.2545C9.02381 56.2352 9.24255 54.2082 9.58259 52.1985C9.83161 50.73 10.1664 49.2653 10.5975 47.8332C11.0872 46.2013 11.6992 44.5982 12.3071 42.9989C12.7727 41.7754 13.2686 40.5577 13.8357 39.3717C14.4362 38.1194 15.1028 36.8922 15.8038 35.6841C16.5948 34.3212 17.4077 32.9641 18.3013 31.657C18.9374 30.7248 19.6792 29.8434 20.4513 28.9996C21.6472 27.6915 22.8828 26.4123 24.1509 25.1629C25.0141 24.3123 25.9704 23.5415 26.8702 22.7217C28.2388 21.4742 29.8658 20.5448 31.4854 19.625C32.6091 18.9878 33.8584 18.5409 35.0375 17.9834C36.3015 17.3856 37.647 17.1906 39.0479 17.2281C40.315 17.2617 41.5831 17.303 42.8501 17.3415C42.9296 17.3443 43.0143 17.3453 43.0886 17.3684C44.0281 17.6615 44.9531 18.0076 45.9105 18.2401C47.1043 18.5314 48.1558 19.106 49.0974 19.7576C50.2776 20.5746 51.7142 20.6976 52.9613 21.2897C54.7013 22.1143 56.4999 22.8514 57.7199 24.3546C57.8057 24.4593 57.9144 24.5564 58.0326 24.6285C58.7608 25.0735 59.2495 25.703 59.7214 26.3633C60.5479 27.5214 61.4237 28.6497 62.2576 29.8031C62.5045 30.1443 62.6813 30.5277 62.8874 30.8929C63.4252 31.8473 63.9735 32.7969 64.4903 33.7608C64.6431 34.0463 64.6964 34.3759 64.8063 34.6816C65.2133 35.8137 65.6893 36.9287 66.0147 38.08C66.3003 39.0882 66.4165 40.1368 66.6101 41.168C66.7293 41.8062 66.8381 42.4463 66.9783 43.0807C67.2765 44.431 67.422 45.791 67.3644 47.1692Z" fill="#251C1C"/>
<path d="M50.6587 60.8121C50.7045 60.8754 50.7644 60.9079 50.8266 60.9188C50.892 61.1015 51.013 61.219 51.1853 61.1394C51.5495 60.9694 51.5396 60.2731 51.6367 59.7648C51.7762 59.0286 51.9867 58.3014 52.2396 57.6538C52.317 57.4567 52.1873 57.2594 52.074 57.3028C52.0511 57.2847 52.026 57.2758 51.9976 57.2848C51.6574 57.3952 51.3543 57.6285 51.0413 57.8727C50.7971 58.0644 50.4635 58.2146 50.2662 58.5185C50.1092 58.7609 50.1048 59.0594 50.168 59.3705C50.2672 59.8498 50.4221 60.4865 50.6587 60.8121Z" fill="#251C1C"/>
<path d="M47.9311 72.3182C46.8287 72.0195 45.6998 71.9312 44.5668 71.8636C44.5668 71.8446 44.5719 71.8284 44.5719 71.8094C44.5719 71.193 44.0862 70.7107 43.4757 70.3616C44.7713 70.0658 46.1078 69.943 47.4586 69.9887C47.6274 69.9944 47.6253 69.7556 47.4586 69.7451C45.9268 69.6462 44.4615 69.7861 43.0278 70.1371C42.5953 69.9468 42.1433 69.8146 41.7793 69.7451C41.2976 69.6529 40.8314 69.6405 40.3927 69.7052C40.6187 69.1744 40.7005 68.636 40.4265 68.149C40.2986 67.9217 39.9591 67.9064 39.773 68.071C39.3762 68.4191 39.0725 68.812 38.8527 69.2419C38.5162 68.5589 38.0039 67.9958 37.3106 68.4648C37.1593 68.5675 37.0417 68.7454 37.1092 68.9262C37.2861 69.4066 37.5173 69.8593 37.7934 70.2855C36.3168 69.4551 34.1826 69.3342 33.434 70.6793C32.2325 70.6422 31.03 70.6955 29.8765 70.8733C29.8571 70.8762 29.8632 70.9029 29.8806 70.9038C31.0198 70.959 32.1477 71.0008 33.2756 71.056C33.2572 71.115 33.2357 71.1691 33.2213 71.2319C33.1324 71.6353 33.2479 71.9635 33.477 72.2327C32.3542 72.4791 31.2376 72.7625 30.1404 73.0355C30.0585 73.0555 30.0934 73.1715 30.1752 73.1535C31.3685 72.8814 32.566 72.6884 33.7675 72.5048C34.2777 72.89 35.0252 73.1183 35.5825 73.2562C36.193 73.4084 36.7881 73.4456 37.3424 73.3609C37.3045 74.0867 37.6655 74.5994 38.5991 74.7344C39.5481 74.8724 40.4397 74.3692 40.6248 73.4978C42.3039 73.9744 44.4042 73.6034 44.5525 71.9882C45.6722 72.1423 46.7868 72.3706 47.9065 72.4905C48.0139 72.5019 48.0292 72.3449 47.9311 72.3182ZM37.0448 72.7539C36.3812 72.6978 35.6868 72.7302 35.06 72.4867C34.9649 72.4505 34.8687 72.403 34.7747 72.3507C35.2624 72.2765 35.7512 72.2023 36.24 72.1205C36.5028 72.0777 36.3853 71.7218 36.1317 71.7542C35.5396 71.8293 34.9465 71.934 34.3555 72.0501C34.1315 71.8398 33.97 71.582 33.9546 71.2871C33.9505 71.2196 33.9658 71.1597 33.975 71.0959C34.9802 71.152 35.9854 71.2205 36.9968 71.3299C37.1737 71.349 37.2166 71.0674 37.0397 71.0379C36.0897 70.8828 35.1039 70.7696 34.111 70.7116C34.4372 70.2103 35.2093 69.9592 35.8392 70.0866C36.102 70.0781 36.3689 70.1057 36.6184 70.1685C36.9927 70.2636 37.4446 70.4196 37.6461 70.743C37.823 70.8629 38.007 71.0274 38.2013 71.2548C38.2954 71.349 38.3874 71.445 38.4805 71.5402C38.5122 71.6448 38.594 71.7294 38.6983 71.7789C38.3148 72.1584 37.8915 72.4067 37.4314 72.5313C37.3802 72.6683 37.2524 72.771 37.0448 72.7539ZM38.637 74.2008C38.0296 74.1228 37.7473 73.7775 37.598 73.3105C38.1154 73.1906 38.5929 72.9585 38.9979 72.5847C39.2821 72.8929 39.6779 73.1401 40.1237 73.3247C39.9856 73.9867 39.3456 74.293 38.637 74.2008ZM43.8326 71.8188C43.2047 71.7817 42.5769 71.739 41.9531 71.6572C41.7926 71.6363 41.7782 71.8608 41.9245 71.8513C42.5595 71.8085 43.1884 71.8379 43.8162 71.9007C43.443 73.1763 40.2138 73.5397 39.3793 71.7979C39.3435 71.7237 39.277 71.6819 39.2024 71.6543C39.2034 71.6524 39.2045 71.6524 39.2055 71.6505C39.3814 71.6039 39.5173 71.447 39.4457 71.2776C39.6186 71.0198 39.815 70.7392 39.997 70.4462C40.8079 70.1333 41.7987 70.0067 42.5881 70.2493C42.0155 70.4091 41.4459 70.5994 40.8804 70.8267C40.6565 70.9171 40.8498 71.231 41.0748 71.1359C41.7231 70.86 42.3897 70.6403 43.0667 70.4653C43.2497 70.5766 43.4184 70.7088 43.5524 70.8857C43.8101 71.2282 43.8858 71.543 43.8326 71.8188Z" fill="#251C1C"/>
<path d="M38.5016 44.4106C41.5185 44.5736 44.5918 44.8044 47.6098 44.5403C48.1176 44.4967 48.1339 43.6952 47.6098 43.6906C44.5777 43.6665 41.5283 44.0191 38.5016 44.1833C38.3627 44.1902 38.3627 44.4025 38.5016 44.4106Z" fill="#251C1C"/>
<path d="M45.4537 77.6822C44.9294 77.8235 44.4665 78.0382 43.9147 78.1318C43.1957 78.2548 42.4776 78.2348 41.7518 78.1619C41.5663 78.1431 41.5425 78.3792 41.7088 78.4207C42.5412 78.6272 43.4103 78.6844 44.2756 78.609C44.8398 78.5601 45.5012 78.4941 45.8201 78.0722C45.9649 77.8806 45.7235 77.6087 45.4537 77.6822Z" fill="#251C1C"/>
<path d="M44.5428 76.703C41.6965 77.1613 39.1914 77.6036 36.2801 76.9989C36.2637 76.9957 36.2576 77.0136 36.2732 77.0174C38.8891 77.7303 42.1512 78.0492 44.6979 76.9735C44.9014 76.8876 44.762 76.668 44.5428 76.703Z" fill="#251C1C"/>
<path d="M39.8118 67.6933C41.1285 67.8396 42.4465 67.9248 43.7752 67.9618C43.962 67.9665 44.133 67.8489 44.1788 67.7155C44.6498 66.3418 45.7894 62.5765 42.8741 62.1661C40.0985 61.7752 39.6913 65.3822 39.6166 67.094C39.3841 67.2839 39.3938 67.646 39.8118 67.6933ZM40.6238 65.3229C40.8165 64.7866 41.1767 63.0044 42.0754 62.8868C42.5512 63.0174 43.027 63.1471 43.5029 63.2777C43.7077 63.5509 43.8331 63.8426 43.8812 64.152C43.9692 64.4883 43.9933 64.819 43.9728 65.1608C43.9294 65.8852 43.6944 66.5966 43.4475 67.295C43.1066 67.2802 42.7693 67.2505 42.4308 67.2255C42.7934 66.8957 42.7933 66.4094 42.8813 65.9722C43.0005 65.3785 43.1463 64.7828 43.0054 64.1863C42.8885 63.6907 41.979 63.688 41.6839 64.0641C41.2755 64.5837 41.1562 65.221 40.9948 65.8055C40.878 66.2307 40.6972 66.704 40.9478 67.0866C40.6478 67.0523 40.3479 67.0245 40.0479 66.9819C40.0407 66.981 40.0358 66.9837 40.0286 66.9828C40.2226 66.428 40.4238 65.8759 40.6238 65.3229Z" fill="#251C1C"/>
<path d="M31.4647 67.9597C32.2966 67.8544 33.1171 67.6901 33.9346 67.4776C34.049 67.4486 34.1294 67.3042 34.1301 67.1698C34.1407 65.7771 34.0756 61.9887 32.2155 62.1412C30.4449 62.2865 30.9245 65.788 31.2252 67.4267C31.1214 67.651 31.2003 67.9933 31.4647 67.9597ZM31.8738 62.9746C32.1905 63.0091 32.5064 63.0445 32.8231 63.0799C33.0027 63.3014 33.1383 63.5547 33.23 63.8398C33.3512 64.143 33.4331 64.4526 33.4891 64.7813C33.6096 65.4776 33.6088 66.1966 33.5998 66.9056C33.3891 66.9546 33.1777 66.9892 32.9663 67.0291C33.1209 66.6478 33.0224 66.1866 32.9876 65.7545C32.9406 65.1689 32.9095 64.5761 32.7034 64.0359C32.5322 63.5865 31.9768 63.7526 31.873 64.1657C31.7291 64.734 31.7852 65.3614 31.8049 65.9469C31.8193 66.3736 31.8048 66.8557 32.0344 67.1726C31.8442 67.1962 31.6556 67.2252 31.4647 67.2406C31.4601 67.2416 31.4578 67.2443 31.4533 67.2452C31.4593 66.6823 31.47 66.1203 31.4806 65.5575C31.4904 65.0127 31.3502 63.2533 31.8738 62.9746Z" fill="#251C1C"/>
<path d="M25.5312 60.2597C25.2749 59.8289 24.9896 59.489 24.6787 59.303C24.6782 59.303 24.6774 59.303 24.6765 59.303C24.6729 59.2922 24.6703 59.2805 24.6663 59.2697C24.6338 59.1787 24.557 59.2296 24.5477 59.3383C24.505 59.8112 24.557 60.3125 24.5987 60.7776C24.6387 61.2182 24.6943 61.6755 24.8422 61.9996C24.9026 62.1337 25.0199 62.1876 25.0949 62.0721C25.2602 61.8145 25.5343 61.3857 25.5081 60.8804C25.6027 60.7855 25.6418 60.4457 25.5312 60.2597Z" fill="#251C1C"/>
</svg>
