<svg width="97" height="88" viewBox="0 0 97 88" fill="none" xmlns="http://www.w3.org/2000/svg">
    <path d="M28.0817 0.833398C25.4083 1.44022 24.5771 3.01414 23.6869 4.11664C22.741 5.29069 21.3516 6.67044 23.2311 7.80744C24.8904 8.81158 27.8585 9.02621 30.5723 9.17951C37.1196 9.54999 43.7908 9.41585 50.3815 9.40308C56.9815 9.3903 63.5816 9.38645 70.1816 9.3213C73.0815 9.2932 76.7351 9.46952 78.993 8.5497C81.0214 7.72441 81.7502 6.33445 82.2123 5.21789C82.752 3.91609 82.9288 2.41628 79.2535 1.90654C79.1667 1.89505 79.0767 1.88483 78.9868 1.87461C79.5202 1.4824 79.1356 0.902397 77.7337 0.939445C64.3415 1.30226 50.9244 1.24477 37.5507 0.774637C34.6539 0.672435 30.7863 0.218907 28.0817 0.833398ZM28.6525 6.23352C28.5285 6.21691 28.4695 6.2067 28.5842 6.21309C28.1562 6.18754 28.361 5.99462 28.6525 6.23352ZM75.8822 5.55898C75.7922 5.6944 75.7023 5.83237 75.6031 5.96778C75.3953 5.82598 75.1192 5.69952 74.778 5.60115C75.3642 5.53727 75.8046 5.40568 76.1117 5.23704C76.0248 5.35457 75.9442 5.46444 75.8822 5.55898ZM30.8917 4.86145C30.4203 4.90361 30.0389 4.98026 29.7443 5.08374C29.8869 4.88573 30.0357 4.68772 30.1877 4.49098C30.3676 4.62768 30.6126 4.7567 30.8917 4.86145ZM76.6451 4.17032C76.6389 4.23164 76.6265 4.29552 76.6079 4.3594C76.5862 4.29296 76.5521 4.22653 76.5056 4.16265C76.5552 4.16393 76.6017 4.16777 76.6451 4.17032Z" fill="#39B100" />
    <path d="M96.5485 26.6223C96.6052 23.9035 97.2228 21.2509 96.914 18.4531C96.5454 15.1469 96.2649 11.888 95.1433 8.71121C94.5163 6.93652 93.3947 5.70186 92.0651 4.49873C91.0474 3.57981 89.8723 3.69976 88.6845 3.66502C88.4041 3.65555 88.1237 3.5956 87.8433 3.55139C85.9245 3.24824 84.0026 3.3398 82.0649 3.38401C79.7398 3.43454 77.4052 3.67763 75.0737 3.16606C74.0655 2.94502 72.9344 2.83769 72.049 3.83872C71.8033 4.11976 71.107 4.08502 70.6218 4.06607C68.6243 3.98713 66.6299 3.79452 64.6324 3.7661C60.8075 3.7061 56.9795 3.74717 53.1514 3.70928C52.1338 3.6998 51.1161 3.4756 50.0985 3.47244C45.9459 3.46297 41.806 3.11239 37.6503 3.09344C35.4354 3.08396 33.2205 2.89138 31.0024 2.81875C29.3452 2.76191 27.6879 2.72719 26.0306 2.76193C24.6727 2.79035 23.318 2.96082 21.9632 3.0303C20.5959 3.09661 19.2252 3.09982 17.8578 3.16298C16.8875 3.21034 15.9202 3.30823 14.893 3.39033C12.3095 2.89771 10.0569 4.11664 7.74747 5.05767C7.34419 5.22187 6.99451 5.56288 6.68259 5.88498C6.00205 6.5797 5.3372 7.29023 4.72282 8.04179C4.29118 8.56599 3.83755 9.12173 3.6044 9.74382C3.10345 11.0796 2.60564 12.4406 2.33783 13.8363C1.80222 16.6373 1.3705 19.4604 0.989265 22.2867C0.652144 24.775 0.245704 27.2539 0.346518 29.7991C0.453643 32.4264 0.305625 35.0632 0.252066 37.6937C0.204802 39.9831 0.103972 42.2694 0.081915 44.5588C0.0661602 46.0429 0.321432 47.5429 0.151297 49.0018C-0.0408956 50.6155 -0.0725119 52.1723 0.188986 53.7764C0.482 55.5732 0.85066 57.37 0.384366 59.2268C0.233137 59.8331 0.491453 60.5752 0.661588 61.2289C1.35158 63.8657 2.67492 66.1993 4.28176 68.3593C5.21119 69.6098 6.37054 70.6203 8.04669 70.8003C10.0883 71.0182 12.1238 71.3055 14.1654 71.5203C15.5265 71.6655 16.9032 71.8613 18.2643 71.8234C23.1699 71.6781 28.0722 71.4381 32.9747 71.2487C35.0478 71.1666 35.3125 71.3971 35.6181 73.4433C35.6685 73.7812 35.6843 74.1349 35.6559 74.4728C35.5457 75.7833 35.4133 77.0907 35.2841 78.398C35.0667 80.6085 35.2779 82.8568 34.4871 85.0168C34.2161 85.7652 34.3641 86.6935 35.1203 87.1925C36.2009 87.903 38.0692 87.243 38.3843 85.9736C38.7372 84.5557 39.613 83.5484 40.4984 82.5C40.9048 82.02 41.3271 81.5431 41.6611 81.0158C43.4129 78.2653 45.1362 75.4959 46.8754 72.736C47.7229 71.3907 48.8445 70.5792 50.5458 70.6834C51.8534 70.7623 53.1767 70.7276 54.4874 70.6644C56.592 70.5665 58.6904 70.3455 60.795 70.2792C64.2197 70.175 67.6728 70.3897 71.0692 70.0392C75.2564 69.6066 79.4814 69.5276 83.634 68.6466C85.0423 68.3435 86.4254 68.0434 87.7109 67.4308C90.7261 65.994 93.1269 63.9036 93.8043 60.4679C94.3966 57.4459 94.8881 54.386 95.1464 51.3197C95.6884 44.9251 96.0664 38.5211 96.4634 32.117C96.5768 30.2918 96.5075 28.4539 96.5485 26.6223ZM92.8591 46.7598C92.8465 46.9334 92.8149 47.1072 92.8402 47.2745C93.1048 49.2229 92.9095 51.1554 92.5787 53.0722C92.166 55.4848 91.8068 57.9195 91.1987 60.2879C90.5559 62.7889 88.6214 64.2446 86.3939 65.3025C83.0826 66.8814 79.5067 67.2035 75.9118 67.4498C73.5236 67.6108 71.1448 67.9488 68.7535 68.0372C66.9355 68.1035 65.1082 67.7845 63.2903 67.8382C59.4118 67.9487 55.5365 68.1887 51.6612 68.3813C50.5269 68.4382 49.4431 68.4982 48.3278 67.9646C46.8281 67.2477 45.9018 67.6645 45.4071 69.2592C44.3926 72.5402 42.455 75.3222 40.7001 78.199C40.029 79.3011 39.0051 80.1916 38 81.3379C37.2407 80.0716 37.3226 78.9348 37.4802 77.8075C37.8047 75.4959 38.1702 73.1876 38.5168 70.8792C38.6554 69.9571 38.3875 69.1929 37.666 68.5803C37.1903 68.1761 36.705 67.9898 36.0938 68.2266C33.9261 69.0729 31.6167 69.0224 29.3577 69.1582C26.9097 69.3035 24.449 69.1993 21.9946 69.2245C19.8427 69.2435 17.6782 69.4424 15.5421 69.2877C13.3461 69.1266 11.1028 68.8677 9.02342 68.2014C7.76316 67.794 6.50921 66.7204 5.72786 65.6088C4.63458 64.0552 3.93194 62.2173 3.71454 60.2468C3.44359 57.8184 3.05606 55.3996 2.76935 52.9712C2.67168 52.1249 2.72848 51.2597 2.70012 50.4039C2.63711 48.5187 2.54263 46.6303 2.50798 44.7419C2.46387 42.4525 2.42602 40.1599 2.47013 37.8674C2.52054 35.1801 2.75995 32.4896 2.73474 29.8023C2.70008 25.7066 3.51295 21.7246 4.14622 17.7142C4.41718 16.0247 4.62521 14.2911 5.17973 12.6901C6.42108 9.09333 8.70532 6.68388 12.7602 6.17863C17.023 5.65128 21.2795 5.46182 25.5612 5.48077C26.8121 5.48392 28.0597 5.26917 29.3105 5.2218C30.9079 5.16181 32.5085 5.1334 34.1059 5.1555C37.4109 5.19971 40.7191 5.25976 44.0241 5.36081C47.0991 5.45554 50.171 5.63235 53.246 5.72709C54.7268 5.7713 56.2138 5.70502 57.6946 5.68923C62.0362 5.64818 66.3779 5.56289 70.7195 5.57552C73.6748 5.58499 76.6333 5.78391 79.5886 5.79023C81.8066 5.79655 84.0278 5.55656 86.2459 5.56288C89.7116 5.57235 92.8622 7.80491 93.4955 11.1522C93.9082 13.3343 94.3021 15.5606 94.3147 17.7679C94.3462 22.5804 94.2328 27.3992 93.9839 32.2054C93.7318 37.0653 93.2435 41.9094 92.8591 46.7598Z" fill="#251C1C" />
    <path d="M35.7497 43.6488C36.1793 42.8736 36.6857 42.1648 37.2489 41.509C37.4879 41.3706 37.6829 41.1648 37.8087 40.8934C38.8174 39.8502 39.9784 38.953 41.2192 38.1551C43.4521 36.7201 46.0161 35.7581 48.0929 34.0883C50.1821 32.408 51.3429 29.8349 50.5897 27.17C50.1825 25.7273 49.3208 24.4905 48.1946 23.5514C47.0498 22.4973 45.8937 21.5267 44.4635 20.8529C43.836 20.5574 43.1417 20.4098 42.447 20.3986C42.4451 20.3984 42.4431 20.3982 42.4395 20.396C40.9818 20.0562 39.6945 20.8595 38.554 21.6758C38.0943 22.0063 37.971 22.4471 38.0635 22.8589C37.9442 23.0348 37.8324 23.2133 37.7242 23.394C36.287 24.6763 35.2536 26.5014 35.3037 28.3336C35.3239 29.0639 35.7417 29.7099 36.5211 29.7863C37.047 29.8384 37.6715 29.4897 37.8913 28.9806C37.9759 29.0015 38.0645 29.0208 38.1587 29.0425C38.3593 28.3587 38.4962 27.8076 38.6856 27.2727C38.8161 26.9036 38.9359 26.526 39.0869 26.1645C39.667 26.2771 40.3307 26.0741 40.6585 25.4073C41.0517 24.6097 42.0687 24.3437 42.907 24.3176C43.0073 24.336 43.1073 24.3583 43.2065 24.3882C45.7417 25.1285 45.7535 28.3546 44.7559 30.2983C43.4332 32.8764 40.6963 34.8187 38.3051 36.3263C38.2624 36.3533 38.2196 36.3802 38.175 36.4071C37.9967 36.4452 37.817 36.4793 37.6356 36.5095C36.2235 36.7426 35.4362 37.6073 34.996 38.764C33.8827 39.8825 33.153 41.2501 33.3406 43.1136C33.4478 44.209 35.1968 44.6456 35.7497 43.6488Z" fill="#39B100" />
    <path d="M55.3585 45.0763C56.9661 45.8522 58.5453 44.5498 58.9175 43.0085C59.3263 41.3128 59.1623 39.3783 59.2093 37.645C59.2904 34.7826 59.3386 31.9212 59.3582 29.0592C59.4361 27.6515 59.4739 26.2403 59.5096 24.8308C59.5278 24.1231 59.465 23.418 58.5018 23.2678C58.3766 23.2491 58.2568 23.2347 58.142 23.2284C57.3825 22.6215 55.9965 22.8434 55.9583 24.0836C55.7516 30.6423 55.2614 37.1877 54.4896 43.7024C54.4171 44.3284 54.8331 44.8225 55.3585 45.0763Z" fill="#39B100" />
    <path d="M37.1922 51.5558C38.3355 50.511 38.6713 48.4225 37.2159 47.4679C36.5366 47.0198 35.6481 47.0914 34.987 47.5272C34.9093 47.5799 34.8372 47.6351 34.7707 47.6926C33.2715 47.8239 32.3224 49.5873 33.0215 50.9673C33.8222 52.5466 35.9589 52.683 37.1922 51.5558Z" fill="#39B100" />
    <path d="M56.5089 54.2279C56.5344 54.0476 56.5614 53.8732 56.59 53.7008C57.085 53.6233 57.5597 53.4057 57.9314 53.0483C58.9161 52.1029 59.0684 50.3288 57.839 49.4921C57.3385 49.1521 56.759 49.0991 56.2439 49.2517C55.9457 49.1678 55.6115 49.1864 55.2747 49.3009C53.8247 49.7901 53.4561 51.6181 54.2835 52.7865C54.4486 53.6179 55.1452 54.0213 56.5089 54.2279Z" fill="#39B100" />
    <path d="M53.2117 46.4088C55.0171 46.5102 56.499 46.6388 57.9825 46.6426C58.3304 46.6425 58.8002 46.2841 58.9941 45.9591C59.2037 45.6085 59.1864 45.1073 59.2155 44.6678C59.4408 41.303 59.5802 37.9308 59.8873 34.5752C60.2334 30.7771 60.7225 26.9916 61.1563 23.2012C61.281 22.1128 61.04 21.7956 59.9702 21.7648C59.0194 21.7368 58.067 21.7048 57.1158 21.7248C56.3186 21.7411 55.5423 21.8707 55.45 22.8965C55.305 24.5424 55.0926 26.1901 55.0608 27.8382C54.9505 33.7155 53.9858 39.4964 53.1752 45.2947C53.1179 45.7048 53.1994 46.1329 53.2117 46.4088ZM56.1871 26.5728C56.2557 25.8158 56.3488 25.0418 56.5791 24.326C56.8941 23.3466 57.4935 23.1092 58.5039 23.2674C59.4671 23.4176 59.53 24.1227 59.5118 24.8303C59.4647 26.6751 59.4136 28.5195 59.2766 30.3583C59.0118 33.9099 58.6896 37.4583 58.3829 41.0061C58.3271 41.6393 58.2445 42.2721 58.1431 42.8993C57.789 45.1303 57.2041 45.4209 54.923 44.3704C55.1434 40.8861 55.3557 37.3415 55.6004 33.7997C55.7686 31.389 55.9675 28.979 56.1871 26.5728Z" fill="#251C1C" />
    <path d="M52.8326 49.2506C52.8778 51.1381 52.9808 53.023 53.0653 55.0524C54.348 55.2846 55.4636 55.5154 56.5906 55.682C57.5448 55.8237 58.0858 55.3986 58.1015 54.5005C58.1274 52.9844 58.1286 51.4661 58.1006 49.951C58.0803 48.8499 57.7247 48.5015 56.6059 48.4164C55.7257 48.3504 54.8443 48.2977 53.9612 48.2641C53.2926 48.2398 52.8156 48.5495 52.8326 49.2506ZM54.7449 50.0802C56.4957 49.9289 56.8547 50.1738 56.8393 51.7235C56.8327 52.5186 56.636 53.3104 56.5091 54.2275C54.1213 53.8654 53.7792 52.905 54.7449 50.0802Z" fill="#251C1C" />
    <path d="M43.6419 32.6863C41.9714 33.8461 40.2459 34.8454 38.138 35.1671C35.0289 35.639 33.9622 36.8616 33.393 40.0288C33.2933 40.5928 33.1482 41.1489 33.0541 41.7153C32.8039 43.2251 33.1629 43.5565 34.645 43.3795C35.7676 43.2459 36.9133 43.1143 38.0356 43.1805C39.4312 43.2649 39.64 43.1411 39.5569 41.6635C39.4652 40.064 39.6865 39.6684 41.1117 38.9809C41.3946 38.8463 41.7143 38.7937 42.0054 38.6752C45.0052 37.4576 47.5103 35.6602 49.5312 33.0533C51.3027 30.7684 51.4911 28.3018 51.1282 25.6579C51.0546 25.119 50.8044 24.5339 50.4608 24.1134C49.0522 22.3883 47.5844 20.7446 45.4864 19.7544C42.7093 18.4431 39.7435 19.0121 37.6879 21.2931C35.7327 23.4599 35.2928 26.3157 34.1344 28.841C34.0274 29.0737 34.4941 29.8625 34.8135 29.9464C36.2055 30.3111 37.6409 30.5106 39.434 30.8396C39.5005 30.0844 39.5233 29.4118 39.6273 28.754C39.7425 28.0146 39.7699 27.2002 40.1136 26.5712C41.0539 24.8647 42.5435 24.7979 43.7711 26.3322C44.1657 26.8263 44.5095 27.3755 44.7922 27.9405C45.6469 29.6494 45.2121 31.5965 43.6419 32.6863ZM46.4893 29.3373C46.2153 27.0356 45.2182 25.047 43.0428 23.9309C41.7628 23.2761 40.3692 23.9107 39.403 25.5188C39.0809 26.0555 38.8935 26.6771 38.6834 27.2736C38.4941 27.8085 38.3571 28.3596 38.1565 29.0434C36.3373 28.641 36.1478 28.3918 36.4043 26.8979C36.7127 25.0992 37.5061 23.5104 38.6225 22.0943C39.9402 20.4229 42.5161 19.9387 44.4632 20.854C46.1039 21.6251 47.3852 22.7893 48.7008 24.0218C51 26.1752 50.0263 31.8399 47.8622 33.3887C47.0356 33.9789 46.3409 34.7538 45.5093 35.3359C44.6899 35.9095 43.7973 36.3979 42.8909 36.8255C42.0889 37.2027 41.188 37.3732 40.391 37.7585C39.239 38.3124 38.1919 38.9409 37.9482 40.4416C37.7727 41.5178 36.8086 41.923 35.7402 41.6367C34.9291 41.4192 34.5005 40.678 34.7287 39.6583C35.0839 38.0694 35.8761 36.7996 37.6333 36.5104C40.0012 36.1174 42.0629 35.0977 44.027 33.7466C45.6147 32.6545 46.7213 31.3066 46.4893 29.3373Z" fill="#251C1C" />
    <path d="M32.5667 50.9793C32.5253 52.3229 32.8695 52.6704 34.178 52.653C35.1209 52.64 36.0842 52.5692 36.9997 52.7363C37.9211 52.9021 38.3204 52.4932 38.55 51.7639C38.6826 51.3489 38.6998 50.8911 38.7272 50.4495C38.8992 47.7547 38.3763 47.1243 35.7205 46.7924C35.4705 46.7511 35.2191 46.7021 34.9679 46.6742C33.1925 46.4717 32.6568 46.9242 32.5945 48.7004C32.568 49.4592 32.5913 50.2204 32.5667 50.9793ZM34.2383 47.9534C35.1045 48.1123 35.9427 48.067 36.5157 48.4346C36.9959 48.744 37.334 49.5099 37.432 50.1202C37.5455 50.8394 36.9 50.9882 36.2692 50.9922C35.9597 50.9937 35.6539 51.1052 35.3422 51.1527C34.5587 51.2759 34.0985 50.8932 34.0643 50.1464C34.0323 49.4843 34.1622 48.8173 34.2383 47.9534Z" fill="#251C1C" />
</svg>