<svg width="31" height="38" viewBox="0 0 31 38" fill="none" xmlns="http://www.w3.org/2000/svg">
<path d="M4.7497 25.6488C5.17931 24.8736 5.68569 24.1648 6.24893 23.509C6.48792 23.3706 6.68294 23.1648 6.80872 22.8934C7.81739 21.8502 8.97844 20.953 10.2192 20.1551C12.4521 18.7201 15.0161 17.7581 17.0929 16.0883C19.1821 14.408 20.3429 11.8349 19.5897 9.17003C19.1825 7.72728 18.3208 6.49051 17.1946 5.55141C16.0498 4.49726 14.8937 3.52668 13.4635 2.85294C12.836 2.55742 12.1417 2.40978 11.447 2.39855C11.4451 2.39839 11.4431 2.39822 11.4395 2.39597C9.98183 2.05616 8.69447 2.85953 7.55395 3.67584C7.09432 4.0063 6.97097 4.44712 7.06347 4.85888C6.94419 5.0348 6.83236 5.2133 6.72419 5.39404C5.287 6.67625 4.25364 8.50144 4.30366 10.3336C4.32391 11.0639 4.74172 11.7099 5.52109 11.7863C6.04696 11.8384 6.67152 11.4897 6.89127 10.9806C6.97591 11.0015 7.06453 11.0208 7.15871 11.0425C7.35925 10.3587 7.49624 9.80763 7.68559 9.2727C7.81611 8.90365 7.93589 8.52597 8.08689 8.16449C8.66702 8.27709 9.33069 8.07413 9.65851 7.40725C10.0517 6.60967 11.0687 6.3437 11.907 6.31761C12.0073 6.33605 12.1073 6.3583 12.2065 6.38819C14.7417 7.12851 14.7535 10.3546 13.7559 12.2983C12.4332 14.8764 9.69626 16.8187 7.30514 18.3263C7.2624 18.3533 7.21964 18.3802 7.17499 18.4071C6.99674 18.4452 6.81695 18.4793 6.63555 18.5095C5.22351 18.7426 4.43618 19.6073 3.99602 20.764C2.88269 21.8825 2.15303 23.2501 2.3406 25.1136C2.44784 26.209 4.19678 26.6456 4.7497 25.6488Z" fill="#39B100"/>
<path d="M24.3585 27.0763C25.9661 27.8522 27.5453 26.5498 27.9175 25.0085C28.3263 23.3128 28.1623 21.3783 28.2093 19.645C28.2904 16.7826 28.3386 13.9212 28.3582 11.0592C28.4361 9.65146 28.4739 8.24025 28.5096 6.83075C28.5278 6.12314 28.465 5.41798 27.5018 5.26779C27.3766 5.24908 27.2568 5.23471 27.142 5.22845C26.3825 4.62147 24.9965 4.8434 24.9583 6.08356C24.7516 12.6423 24.2614 19.1877 23.4896 25.7024C23.4171 26.3284 23.8331 26.8225 24.3585 27.0763Z" fill="#39B100"/>
<path d="M6.19217 33.5558C7.33552 32.511 7.67131 30.4225 6.21591 29.4679C5.53656 29.0198 4.6481 29.0914 3.987 29.5272C3.90932 29.5799 3.83723 29.6351 3.77065 29.6926C2.27148 29.8239 1.32236 31.5873 2.02148 32.9673C2.82221 34.5466 4.95891 34.683 6.19217 33.5558Z" fill="#39B100"/>
<path d="M25.5089 36.2279C25.5344 36.0476 25.5614 35.8732 25.59 35.7008C26.085 35.6233 26.5597 35.4057 26.9314 35.0483C27.9161 34.1029 28.0684 32.3288 26.839 31.4921C26.3385 31.1521 25.759 31.0991 25.2439 31.2517C24.9457 31.1678 24.6115 31.1864 24.2747 31.3009C22.8247 31.7901 22.4561 33.6181 23.2835 34.7865C23.4486 35.6179 24.1452 36.0213 25.5089 36.2279Z" fill="#39B100"/>
<path d="M22.2117 28.4088C24.0171 28.5102 25.499 28.6388 26.9825 28.6426C27.3304 28.6425 27.8002 28.2841 27.9941 27.9591C28.2037 27.6085 28.1864 27.1073 28.2155 26.6678C28.4408 23.303 28.5802 19.9308 28.8873 16.5752C29.2334 12.7771 29.7225 8.99158 30.1563 5.20123C30.281 4.11284 30.04 3.79559 28.9702 3.76479C28.0194 3.73677 27.067 3.70479 26.1158 3.72478C25.3186 3.74106 24.5423 3.87066 24.45 4.89655C24.305 6.54244 24.0926 8.19005 24.0608 9.83823C23.9505 15.7155 22.9858 21.4964 22.1752 27.2947C22.1179 27.7048 22.1994 28.1329 22.2117 28.4088ZM25.1871 8.57282C25.2557 7.81584 25.3488 7.04183 25.5791 6.32599C25.8941 5.34663 26.4935 5.10918 27.5039 5.26738C28.4671 5.41757 28.53 6.12274 28.5118 6.83035C28.4647 8.67513 28.4136 10.5195 28.2766 12.3583C28.0118 15.9099 27.6896 19.4583 27.3829 23.0061C27.3271 23.6393 27.2445 24.2721 27.1431 24.8993C26.789 27.1303 26.2041 27.4209 23.923 26.3704C24.1434 22.8861 24.3557 19.3415 24.6004 15.7997C24.7686 13.389 24.9675 10.979 25.1871 8.57282Z" fill="#251C1C"/>
<path d="M21.8326 31.2506C21.8778 33.1381 21.9808 35.023 22.0653 37.0524C23.348 37.2846 24.4636 37.5154 25.5906 37.682C26.5448 37.8237 27.0858 37.3986 27.1015 36.5005C27.1274 34.9844 27.1286 33.4661 27.1006 31.951C27.0803 30.8499 26.7247 30.5015 25.6059 30.4164C24.7257 30.3504 23.8443 30.2977 22.9612 30.2641C22.2926 30.2398 21.8156 30.5495 21.8326 31.2506ZM23.7449 32.0802C25.4957 31.9289 25.8547 32.1738 25.8393 33.7235C25.8327 34.5186 25.636 35.3104 25.5091 36.2275C23.1213 35.8654 22.7792 34.905 23.7449 32.0802Z" fill="#251C1C"/>
<path d="M12.6419 14.6863C10.9714 15.8461 9.24588 16.8454 7.13796 17.1671C4.02893 17.639 2.96218 18.8616 2.39297 22.0288C2.29332 22.5928 2.14819 23.1489 2.0541 23.7153C1.80387 25.2251 2.16292 25.5565 3.64497 25.3795C4.76764 25.2459 5.91326 25.1143 7.03562 25.1805C8.43122 25.2649 8.64004 25.1411 8.55686 23.6635C8.46519 22.064 8.68654 21.6684 10.1117 20.9809C10.3946 20.8463 10.7143 20.7937 11.0054 20.6752C14.0052 19.4576 16.5103 17.6602 18.5312 15.0533C20.3027 12.7684 20.4911 10.3018 20.1282 7.6579C20.0546 7.11903 19.8044 6.53385 19.4608 6.11343C18.0522 4.38835 16.5844 2.74456 14.4864 1.75445C11.7093 0.443132 8.74355 1.01215 6.68792 3.29312C4.73268 5.45993 4.29282 8.3157 3.13437 10.841C3.02738 11.0737 3.49414 11.8625 3.81349 11.9464C5.20554 12.3111 6.64092 12.5106 8.43397 12.8396C8.5005 12.0844 8.52328 11.4118 8.62735 10.754C8.74245 10.0146 8.76995 9.20017 9.11365 8.57121C10.0539 6.86468 11.5435 6.79794 12.7711 8.33218C13.1657 8.82629 13.5095 9.37549 13.7922 9.94047C14.6469 11.6494 14.2121 13.5965 12.6419 14.6863ZM15.4893 11.3373C15.2153 9.03565 14.2182 7.04697 12.0428 5.93088C10.7628 5.27613 9.3692 5.91067 8.40302 7.51882C8.08091 8.0555 7.89355 8.67709 7.6834 9.27361C7.49406 9.80853 7.35707 10.3596 7.15653 11.0434C5.33727 10.641 5.14779 10.3918 5.40431 8.89792C5.71267 7.09921 6.50606 5.51043 7.62254 4.09426C8.94024 2.4229 11.5161 1.93869 13.4632 2.85401C15.1039 3.62509 16.3852 4.78928 17.7008 6.02183C20 8.17517 19.0263 13.8399 16.8622 15.3887C16.0356 15.9789 15.3409 16.7538 14.5093 17.3359C13.6899 17.9095 12.7973 18.3979 11.8909 18.8255C11.0889 19.2027 10.188 19.3732 9.391 19.7585C8.23899 20.3124 7.1919 20.9409 6.94823 22.4416C6.77271 23.5178 5.80862 23.923 4.74024 23.6367C3.92911 23.4192 3.50046 22.678 3.72866 21.6583C4.08389 20.0694 4.87611 18.7996 6.63328 18.5104C9.00117 18.1174 11.0629 17.0977 13.027 15.7466C14.6147 14.6545 15.7213 13.3066 15.4893 11.3373Z" fill="#251C1C"/>
<path d="M1.56674 32.9793C1.52526 34.3229 1.86951 34.6704 3.17798 34.653C4.1209 34.64 5.08422 34.5692 5.99974 34.7363C6.92114 34.9021 7.32042 34.4932 7.54996 33.7639C7.68261 33.3489 7.69984 32.8911 7.72721 32.4495C7.89924 29.7547 7.37628 29.1243 4.72053 28.7924C4.47046 28.7511 4.21912 28.7021 3.96788 28.6742C2.19252 28.4717 1.6568 28.9242 1.59452 30.7004C1.56804 31.4592 1.5913 32.2204 1.56674 32.9793ZM3.23825 29.9534C4.10451 30.1123 4.9427 30.067 5.51574 30.4346C5.99589 30.744 6.33396 31.5099 6.43205 32.1202C6.54552 32.8394 5.90001 32.9882 5.26925 32.9922C4.95967 32.9937 4.65387 33.1052 4.34217 33.1527C3.55869 33.2759 3.09847 32.8932 3.06432 32.1464C3.0323 31.4843 3.16215 30.8173 3.23825 29.9534Z" fill="#251C1C"/>
</svg>
