<svg width="48" height="33" viewBox="0 0 48 33" fill="none" xmlns="http://www.w3.org/2000/svg">
    <path d="M20.8132 10.4009C21.4605 10.4763 21.5345 8.88645 20.8885 8.81104C15.8493 8.22359 10.6305 9.10404 5.56099 9.42751C4.91312 9.46898 4.83294 11.0586 5.48575 11.0173C10.5552 10.6939 15.774 9.81405 20.8132 10.4009Z" fill="#39B100" />
    <path d="M41.5205 14.1048C42.1604 14.1347 42.1592 13.0736 41.5205 13.0438C36.5383 12.8114 31.4478 13.5622 26.4782 13.9374C25.8431 13.9854 25.8382 15.0464 26.4782 14.9984C31.4478 14.6232 36.5383 13.8729 41.5205 14.1048Z" fill="#39B100" />
    <path d="M20.5205 16.1048C21.1604 16.1347 21.1592 15.0736 20.5205 15.0438C15.5383 14.8114 10.4478 15.5622 5.47815 15.9374C4.84305 15.9854 4.83818 17.0464 5.47815 16.9984C10.4478 16.6232 15.5383 15.8729 20.5205 16.1048Z" fill="#39B100" />
    <path d="M42.3144 23.9645C42.9263 23.9716 42.8911 22.9781 42.2805 22.9709C37.5172 22.9158 32.6821 23.7849 27.9503 24.2983C27.3456 24.364 27.3749 25.3577 27.9843 25.2919C32.716 24.7785 37.5512 23.9098 42.3144 23.9645Z" fill="#39B100" />
    <path d="M19.5051 19.9304C20.1133 19.9886 20.1596 18.7419 19.5525 18.6837C14.8176 18.2303 9.93553 18.9281 5.18544 19.1889C4.57839 19.2224 4.52635 20.4689 5.13804 20.4356C9.88814 20.1747 14.7702 19.4774 19.5051 19.9304Z" fill="#EF4036" />
    <path d="M41.2896 6.33595C41.9436 6.37233 41.944 5.10905 41.2912 5.07267C36.2 4.78956 30.9966 5.67684 25.9173 6.11709C25.2682 6.17345 25.2616 7.43672 25.9157 7.38036C30.995 6.94012 36.1984 6.05335 41.2896 6.33595Z" fill="#EF4036" />
    <path d="M46.081 28.6429C46.6864 28.5823 47.2736 28.5854 47.6186 28.0103C47.8759 27.5805 47.667 26.6513 47.6459 26.2427L47.4794 23.2068C47.2766 19.5384 47.0647 15.8699 46.8528 12.2015C46.6501 8.72377 46.5592 5.17337 45.8086 1.75616C45.6512 1.03277 45.5725 0.391102 44.84 0.100533C44.3891 -0.0780454 43.6959 0.0369589 43.2238 0.0309054C42.0766 0.0157716 40.9264 0.0218369 39.7763 0.0430243C32.3123 0.188309 24.8967 0.796681 17.4206 0.660477C15.1869 0.621129 -0.627927 -0.407977 0.107575 3.33915C0.128762 3.45114 0.222593 3.47234 0.307342 3.4451C-0.21326 8.13355 0.044008 12.8311 0.234694 17.5347C0.328523 19.8592 0.425387 22.1807 0.516189 24.5053C0.564618 25.7553 0.610019 27.0054 0.658448 28.2554C0.691742 29.1725 0.528294 30.3045 0.797676 31.1823C1.05192 31.9995 1.39394 32.0268 2.16274 31.936C3.53386 31.7756 4.81115 31.3791 6.22162 31.37C7.40811 31.3609 8.59764 31.4699 9.77504 31.6061C14.7571 32.1751 19.5333 32.6563 24.5517 32.1025C24.6697 32.0903 24.7696 32.0389 24.8423 31.9632C28.1202 31.9481 31.4345 30.7041 34.6308 30.0987C38.4324 29.3814 42.2431 29.0303 46.081 28.6429ZM24.1703 31.2186C24.0492 31.2247 23.9645 31.2822 23.9161 31.37C19.7694 31.7665 15.7014 31.5788 11.5669 31.037C9.56619 30.7737 7.54432 30.5074 5.52547 30.6103C4.67495 30.6526 3.8214 30.7525 2.9951 30.9493C2.17484 31.146 2.19906 31.4245 1.69056 30.6859C1.26984 30.0776 1.36368 29.339 1.32736 28.6338C0.888479 20.1952 0.12573 11.6627 0.470781 3.21203C0.797671 1.54429 5.64049 1.65022 6.86632 1.56244C8.55828 1.43835 10.2563 1.38689 11.9513 1.37176C15.6106 1.34149 19.27 1.48073 22.9324 1.40507C26.7642 1.32334 30.5901 1.08422 34.4189 0.899584C36.459 0.802728 38.502 0.717978 40.5451 0.690737C41.4713 0.67863 42.7092 0.478869 43.6082 0.696796C44.4647 0.50611 44.9884 0.917758 45.176 1.93475C45.2517 2.29796 45.3213 2.66116 45.3818 3.02437C46.0508 6.91981 46.084 10.9182 46.2747 14.859C46.3686 16.7568 46.4624 18.6546 46.5623 20.5493C46.641 22.0112 46.983 23.7728 46.9376 25.3225C46.9315 25.3165 46.9315 25.3104 46.9255 25.3043C45.9115 24.1057 46.4684 22.7558 46.3867 21.4755C46.1567 17.8585 45.7844 14.2567 45.1942 10.679C44.7946 8.2758 44.4587 5.86044 44.0652 3.45417C43.926 2.60668 43.5688 2.12543 42.5216 2.02555C39.0589 1.69563 35.5933 1.92264 32.1307 1.85908C28.9314 1.85908 25.7109 1.61694 22.5449 1.93172C19.6786 2.21623 16.8183 2.4856 13.9399 2.6551C10.3077 2.86697 6.68472 3.17571 3.05564 3.42391C2.32316 3.47536 1.84191 3.71448 1.94179 4.54381C2.45634 8.74496 1.7057 12.9461 2.00838 17.1563C2.27473 20.8671 2.88614 24.5477 2.88614 28.2827C2.88614 29.8959 3.40371 30.247 4.98671 29.9807C11.355 28.9122 17.802 28.7639 24.2187 28.2736C24.2036 29.2573 24.1885 30.238 24.1703 31.2186ZM23.3803 11.1542C23.3016 15.5703 23.6981 20.6613 23.9009 25.7614C23.9766 27.6198 23.6346 27.9346 21.764 27.9679C16.667 28.0647 11.6062 28.549 6.56063 29.2664C3.60348 29.6871 3.64888 29.6356 3.5157 26.6906C3.37344 23.5488 3.01023 20.4222 2.59254 17.3016C2.3958 15.8457 2.40186 14.3717 2.57741 12.9128C2.84074 10.6972 2.89825 8.49071 2.55925 6.2842C2.23539 4.18666 2.42305 4.08071 4.56297 3.83251C10.2956 3.1636 16.0949 3.42996 21.8125 2.57339C22.9929 2.39784 23.4227 2.90028 23.3985 4.05045C23.347 6.19037 23.3803 8.32725 23.3803 11.1542ZM24.4457 27.1355C24.3913 26.8934 24.3731 26.5726 24.3731 26.1337C24.3913 20.0983 23.7526 14.0811 23.8404 8.04275C23.8374 6.53239 23.8767 5.02203 23.8253 3.51168C23.795 2.60365 24.0825 2.20109 25.039 2.27979C30.7051 2.73985 36.3893 2.15872 42.0585 2.52798C43.0089 2.58852 43.3176 2.90027 43.4477 3.84764C43.8382 6.74123 44.4889 9.60152 44.8068 12.5012C45.2456 16.4904 45.9267 20.4706 45.7965 24.5113C45.7783 25.0834 45.4968 25.2196 44.9914 25.3407C41.3139 26.2093 37.5637 26.5483 33.8166 26.9146C31.262 27.1658 28.7044 27.4049 26.1528 27.6864C25.6353 27.7439 25.2781 27.7591 25.0148 27.7106C25.0148 27.6319 25.0178 27.5532 25.0178 27.4745C25.0208 27.1355 24.6788 27.0266 24.4457 27.1355ZM24.9573 31.2459C24.9754 30.238 24.9936 29.227 25.0027 28.2191C32.1458 27.641 39.2769 27.075 46.3292 25.7553C46.5078 25.722 46.8014 25.6766 46.9255 25.5707C46.9134 25.8007 46.8892 26.0277 46.8528 26.2457C46.4806 28.5218 43.0179 28.0648 41.211 28.2766C39.5553 28.4703 37.9088 28.7094 36.2652 28.9879C34.4129 29.3027 32.5696 29.672 30.7384 30.1048C28.8376 30.5527 26.9247 31.2459 24.9573 31.2459Z" fill="#251C1C" />
    <path d="M31.3406 21.3635C34.4582 21.0427 37.5515 20.3496 40.7145 20.8672C40.9839 20.9126 41.3501 20.9731 41.4046 20.6795C41.4893 20.2194 41.0414 20.3102 40.7599 20.2436C38.9499 19.8108 37.1308 20.1195 35.3389 20.2769C32.5876 20.516 29.8545 20.9791 27.1152 21.3454C27.1273 21.4785 27.1425 21.6117 27.1546 21.7449C28.562 21.8327 29.9483 21.5058 31.3406 21.3635Z" fill="#251C1C" />
    <path d="M41.4595 10.9335C40.3941 10.3675 27.5727 10.5158 26.8887 10.9426C31.6831 11.8628 36.3715 10.7883 41.4595 10.9335Z" fill="#251C1C" />
    <path d="M26.5525 18.2188C29.9515 17.9675 33.3566 17.7768 36.7496 17.4681C38.1692 17.338 39.6039 17.3864 41.3291 17.2623C40.6905 16.6509 40.2728 16.775 39.8914 16.775C35.3634 16.7659 30.8747 17.4621 26.3527 17.568C26.1015 17.5741 25.7383 17.5377 25.8049 17.9403C25.8806 18.3761 26.2377 18.243 26.5525 18.2188Z" fill="#251C1C" />
    <path d="M26.5525 14.7896C29.9515 14.5383 33.3566 14.3477 36.7496 14.0389C38.1692 13.9088 39.6039 13.9572 41.3291 13.8331C40.6905 13.2217 40.2728 13.3458 39.8914 13.3458C35.3634 13.3367 30.8747 14.0329 26.3527 14.1388C26.1015 14.1449 25.7383 14.1085 25.8049 14.5111C25.8806 14.95 26.2377 14.8138 26.5525 14.7896Z" fill="#251C1C" />
    <path d="M26.5525 6.78957C29.9515 6.53834 33.3566 6.34766 36.7496 6.03894C38.1692 5.90878 39.6039 5.9572 41.3291 5.8331C40.6905 5.22169 40.2728 5.3458 39.8914 5.3458C35.3634 5.33672 30.8747 6.03287 26.3527 6.13881C26.1015 6.14486 25.7383 6.10855 25.8049 6.51111C25.8806 6.94696 26.2377 6.81378 26.5525 6.78957Z" fill="#251C1C" />
    <path d="M27.5244 24.9232C32.4157 24.8656 37.2676 24.1604 42.1406 23.7306C37.2131 23.2796 32.3914 24.3572 27.5244 24.9232Z" fill="#251C1C" />
    <path d="M20.3111 8.497C17.2026 8.33961 14.1153 8.66346 11.028 8.91771C9.39662 9.05088 7.74401 8.8935 6.13378 9.30514C5.89164 9.36568 5.52842 9.32027 5.62831 9.71678C5.69187 9.97405 5.96428 9.89536 6.19129 9.8772C9.67811 9.64112 13.174 9.4716 16.6548 9.16287C18.1682 9.0297 19.6846 8.94193 21.2827 9.00247C21.0345 8.36382 20.6259 8.51214 20.3111 8.497Z" fill="#251C1C" />
    <path d="M5.67382 16.5119C10.6498 16.1608 15.6258 15.8067 20.6018 15.4525C20.6018 15.274 20.6048 15.0984 20.6048 14.9229C15.6137 15.2286 10.6135 15.4434 5.64355 16.07C5.65566 16.2153 5.66474 16.3636 5.67382 16.5119Z" fill="#251C1C" />
    <path d="M19.058 22.8313C18.2468 22.011 9.12717 22.4711 5.67969 23.6061C10.1381 23.8119 14.5178 22.798 19.058 22.8313Z" fill="#251C1C" />
    <path d="M5.67676 27.1474C10.6043 26.2938 15.3684 26.2454 20.4413 25.5704C18.9582 24.8471 6.67256 26.1849 5.67676 27.1474Z" fill="#251C1C" />
    <path d="M6.36719 12.9826C11.1253 12.4862 15.8954 12.1593 20.6535 11.6599C15.8349 11.4964 11.0556 11.7416 6.36719 12.9826Z" fill="#251C1C" />
    <path d="M4.16016 20.0467C9.50239 19.5624 14.8688 19.6986 20.2201 19.1296C14.8537 18.9328 9.48725 19.0509 4.16016 20.0467Z" fill="#251C1C" />
</svg>