<svg width="43" height="54" viewBox="0 0 43 54" fill="none" xmlns="http://www.w3.org/2000/svg">
    <path d="M23.4877 22.7071C22.9415 22.3615 22.2569 23.0439 22.5968 23.5655C22.7326 23.7741 22.8619 23.9616 22.9207 24.1573C23.0025 24.4287 23.0174 24.5801 23.0388 24.8468C23.0826 25.3824 23.0725 25.9231 23.0062 26.4566C22.8849 27.433 22.5241 28.482 22.0084 29.3668C21.4638 30.3015 20.737 31.1208 19.8851 31.8078C18.9793 32.5386 17.966 33.1313 17.0356 33.8307C16.5316 34.2097 16.0046 34.5902 15.5696 35.0439C15.3612 35.2612 15.1501 35.4925 15.0053 35.7546C14.8583 36.0198 14.7792 36.3031 14.6723 36.5822C14.6435 36.6579 14.7664 36.7057 14.8065 36.6367C14.9524 36.3823 15.1918 36.1954 15.4232 36.0152C15.6696 35.8231 15.917 35.6413 16.1799 35.4703C16.67 35.1516 17.1766 34.8596 17.6913 34.5794C18.7912 33.9805 19.8696 33.3229 20.8594 32.5643C21.8267 31.8233 22.6481 30.9679 23.2499 29.9219C23.8543 28.8709 24.2252 27.7291 24.3786 26.5385C24.4598 25.9092 24.47 25.2717 24.4 24.6408C24.3193 23.9224 24.1584 23.1319 23.4877 22.7071Z" fill="#EF4036" />
    <path d="M14.053 35.139C13.9472 34.9306 13.8329 34.7258 13.7244 34.5184C13.5951 34.2719 13.5059 34.0068 13.3851 33.7541C12.94 32.8221 12.2443 31.9914 11.4968 31.2688C10.0102 29.8314 8.06367 28.7408 6.96989 26.9647C6.42113 26.0728 6.10908 25.045 6.34472 24.0631C6.42861 23.7141 6.23251 23.3441 5.86329 23.2463C5.51383 23.1537 5.10133 23.3596 5.0153 23.71C4.47776 25.9076 5.74253 27.9889 7.3327 29.4706C8.14756 30.2297 9.05005 30.8952 9.91941 31.5946C10.7562 32.2678 11.5123 33.0218 12.2715 33.7737C12.6947 34.1926 13.15 34.5678 13.4904 35.0531C13.843 35.5559 14.1599 36.085 14.4586 36.6187C14.5174 36.7237 14.7044 36.6522 14.6622 36.5364C14.4874 36.0583 14.2844 35.5945 14.053 35.139Z" fill="#39B100" />
    <path d="M7.98822 28.4331C7.9442 28.5082 7.92841 28.6077 7.9679 28.7073C8.01925 28.8364 8.06383 28.9685 8.09938 29.1056C8.14678 29.2881 8.33017 29.3732 8.4639 29.3205C8.48083 29.3141 8.49606 29.3054 8.51129 29.2967C8.56151 29.2938 8.6106 29.2636 8.64446 29.216C8.7212 29.1583 8.76183 29.0277 8.69525 28.8913C8.69017 28.8812 8.68452 28.8711 8.67944 28.861C8.67719 28.8198 8.67042 28.7802 8.66196 28.7405C8.72628 28.7354 8.78891 28.7225 8.84816 28.7008C9.00672 28.6821 9.15964 28.6114 9.30804 28.5053C9.50779 28.3624 9.85764 28.1539 9.76284 27.7903C9.66861 27.4281 9.34133 27.4635 9.12352 27.5948C8.84139 27.7643 8.62866 28.0479 8.48139 28.392C8.46559 28.3768 8.44866 28.3625 8.43173 28.3502C8.39731 28.3257 8.36064 28.3091 8.32396 28.2997C8.31888 28.2932 8.31437 28.2867 8.30985 28.281C8.1812 28.1194 7.98088 28.2521 7.98822 28.4331ZM9.3182 27.9606C9.34359 27.9447 9.37067 27.9346 9.39832 27.9296C9.39437 27.9368 9.38986 27.9447 9.38534 27.9548C9.33343 28.0248 9.27306 28.0933 9.20647 28.1568C9.19124 28.1222 9.16754 28.094 9.13989 28.0789C9.19406 28.0334 9.25782 27.9887 9.3182 27.9606Z" fill="#251C1C" />
    <path d="M8.36763 26.8642C8.66234 26.7601 8.56197 26.5341 8.40152 26.3945C8.19376 26.2141 7.90161 26.0946 7.57111 26.0272C7.58134 26.0143 7.58965 26.0014 7.59732 25.9877C7.61139 25.961 7.61842 25.9336 7.61842 25.9069C7.62289 25.9029 7.62736 25.8989 7.63184 25.8948C7.74563 25.7871 7.58709 25.6608 7.43111 25.685C7.35631 25.662 7.26682 25.6612 7.18819 25.6995C7.08655 25.7492 6.98171 25.7943 6.86984 25.8339C6.72153 25.8863 6.68572 26.0244 6.76052 26.1128C6.77011 26.1241 6.78033 26.1342 6.7912 26.1435C6.80463 26.1786 6.84171 26.2096 6.88965 26.2286C6.95614 26.2766 7.07823 26.2911 7.18307 26.2302C7.19074 26.2258 7.19841 26.2205 7.20608 26.2157C7.24124 26.2096 7.27449 26.2008 7.30709 26.1907C7.32563 26.2351 7.34993 26.2778 7.38125 26.3174C7.43111 26.4268 7.52508 26.5269 7.6491 26.6197C7.81595 26.7452 8.07165 26.9688 8.36763 26.8642ZM7.98407 26.4566C8.03522 26.4901 8.08827 26.5297 8.12535 26.5696C8.14453 26.5858 8.15923 26.6035 8.16946 26.6225C8.16243 26.6205 8.15476 26.6181 8.14453 26.6161C8.07293 26.587 8.00006 26.5514 7.93038 26.5115C7.95723 26.4974 7.9764 26.4776 7.98407 26.4566Z" fill="#251C1C" />
    <path d="M11.1939 29.892C11.2096 29.8993 11.2248 29.9043 11.2394 29.9079C11.2786 29.9426 11.3283 29.9549 11.3738 29.9419C11.456 29.9527 11.5417 29.8768 11.5491 29.7158C11.5496 29.7036 11.5496 29.6913 11.5501 29.679C11.5653 29.6437 11.5778 29.6068 11.5883 29.5678C11.6385 29.6112 11.6913 29.648 11.7452 29.6747C11.8723 29.778 12.0177 29.8343 12.1741 29.8588C12.3854 29.892 12.7364 29.9837 12.819 29.6177C12.9011 29.2531 12.6396 29.0379 12.4205 28.9816C12.1364 28.9086 11.8566 28.9802 11.5998 29.1506C11.5946 29.126 11.5878 29.1022 11.5799 29.0791C11.5647 29.0329 11.5438 28.9924 11.5203 28.9577C11.5192 28.9491 11.5187 28.9405 11.5177 28.9318C11.4894 28.7036 11.2823 28.6625 11.2112 28.8155C11.1463 28.8437 11.0924 28.9123 11.0799 29.0227C11.0637 29.1657 11.0417 29.3065 11.0103 29.4451C10.969 29.6285 11.071 29.835 11.1939 29.892ZM12.4121 29.4242C12.4382 29.43 12.4628 29.4422 12.4853 29.4588C12.479 29.4617 12.4728 29.4646 12.4649 29.4697C12.3964 29.4877 12.3216 29.4986 12.2447 29.5007C12.2479 29.4617 12.2416 29.4206 12.2275 29.3881C12.2881 29.391 12.3546 29.4011 12.4121 29.4242Z" fill="#251C1C" />
    <path d="M12.9469 32.7141C12.9699 32.7683 13.0124 32.8115 13.0606 32.8307C13.1341 32.8939 13.246 32.8884 13.3178 32.7615C13.323 32.7518 13.3281 32.7416 13.3333 32.732C13.362 32.7134 13.3884 32.6908 13.4137 32.6661C13.4441 32.7354 13.4791 32.7999 13.5193 32.8575C13.5985 33.0263 13.7128 33.169 13.8511 33.2933C14.0377 33.46 14.334 33.7681 14.559 33.5231C14.7835 33.2788 14.6222 32.9289 14.4373 32.7375C14.1973 32.4891 13.9034 32.3628 13.5922 32.3319C13.5968 32.3086 13.6003 32.2846 13.602 32.2605C13.606 32.2125 13.6026 32.1658 13.5939 32.1219C13.5962 32.1144 13.5997 32.1068 13.602 32.0986C13.6663 31.8927 13.4872 31.7219 13.3586 31.8001C13.2857 31.7802 13.207 31.8008 13.1507 31.8831C13.0778 31.9902 13.0009 32.0904 12.9154 32.183C12.8023 32.3058 12.816 32.5432 12.9096 32.6709C12.9217 32.6866 12.9343 32.701 12.9469 32.7141ZM14.0923 32.9426C14.148 32.9851 14.2065 33.038 14.2524 33.095C14.2748 33.1176 14.2932 33.143 14.3081 33.1718C14.3012 33.1698 14.2938 33.1684 14.2846 33.167C14.2122 33.1361 14.137 33.0957 14.0636 33.0462C14.0819 33.0161 14.0923 32.979 14.0923 32.9426Z" fill="#251C1C" />
    <path d="M22.4508 27.542C22.1717 27.4088 21.9382 27.6376 21.8434 27.8473C21.7209 28.1189 21.7173 28.4062 21.7989 28.6841C21.7779 28.6862 21.7569 28.6894 21.7365 28.6937C21.6957 28.7026 21.6579 28.7169 21.6243 28.7359C21.6171 28.7359 21.6099 28.7348 21.6027 28.7348C21.4106 28.7311 21.3308 28.9303 21.44 29.0222C21.4484 29.0904 21.4928 29.1537 21.5799 29.1817C21.6933 29.2177 21.8025 29.2594 21.9088 29.3102C22.0492 29.3772 22.2407 29.3049 22.3139 29.1913C22.3229 29.177 22.3307 29.1627 22.3367 29.1485C22.374 29.1147 22.3944 29.0671 22.3944 29.0201C22.4214 28.9403 22.3782 28.8442 22.2491 28.8146C22.2395 28.8125 22.2293 28.8104 22.2191 28.8083C22.1939 28.7882 22.1663 28.7707 22.1369 28.7549C22.1837 28.711 22.2251 28.6641 22.2587 28.6144C22.371 28.503 22.4496 28.3671 22.5042 28.2155C22.5786 28.0106 22.7311 27.6756 22.4508 27.542ZM22.2275 28.094C22.1963 28.0856 22.1615 28.0856 22.1315 28.0951C22.1477 28.0359 22.1711 27.9715 22.2023 27.9176C22.2131 27.8928 22.2281 27.87 22.2467 27.85C22.2479 27.8563 22.2491 27.8637 22.2509 27.8716C22.2509 27.9419 22.2431 28.0174 22.2275 28.094Z" fill="#251C1C" />
    <path d="M15.4708 29.7961C15.5852 29.8315 15.6959 29.8726 15.8035 29.9222C15.9457 29.9882 16.1381 29.9154 16.2113 29.8014C16.2203 29.7871 16.2276 29.7728 16.2343 29.7581C16.2712 29.7243 16.2917 29.6763 16.2911 29.6293C16.3177 29.5491 16.2736 29.454 16.1429 29.4245C16.1332 29.4224 16.1229 29.4208 16.1127 29.4187C16.0873 29.3986 16.0588 29.3812 16.0298 29.3659C16.0764 29.3215 16.1181 29.2746 16.1514 29.2249C16.2639 29.113 16.3419 28.9768 16.3958 28.8248C16.4684 28.62 16.6196 28.2843 16.3365 28.1523C16.054 28.0209 15.8205 28.251 15.7267 28.4606C15.6051 28.7324 15.6039 29.0196 15.6886 29.2973C15.6674 29.2994 15.6463 29.3025 15.6257 29.3073C15.5846 29.3162 15.5464 29.331 15.5132 29.35C15.5059 29.35 15.4987 29.349 15.4914 29.349C15.2978 29.3463 15.2192 29.5459 15.3299 29.6367C15.3377 29.7058 15.3825 29.7686 15.4708 29.7961ZM16.0885 28.5292C16.0994 28.5044 16.1139 28.4817 16.1326 28.4611C16.1338 28.4675 16.135 28.4743 16.1369 28.4828C16.1369 28.553 16.1296 28.629 16.1145 28.7055C16.083 28.6971 16.0479 28.6976 16.0177 28.7071C16.0346 28.648 16.0576 28.5836 16.0885 28.5292Z" fill="#251C1C" />
    <path d="M17.7688 32.7907C17.7825 32.8556 17.8168 32.91 17.872 32.9225C17.9435 32.9393 18.0135 32.9617 18.0828 32.9931C18.1745 33.0355 18.2781 32.934 18.307 32.8111C18.3106 32.7954 18.3131 32.7802 18.3149 32.7656C18.3326 32.7263 18.3388 32.6766 18.3323 32.6311C18.3377 32.5489 18.3001 32.4626 18.22 32.4547C18.2139 32.4542 18.2077 32.4542 18.2016 32.4537C18.1843 32.438 18.1655 32.426 18.1464 32.4155C18.1684 32.3653 18.1868 32.3125 18.2002 32.2591C18.2521 32.132 18.281 31.9875 18.2937 31.8311C18.311 31.6202 18.3579 31.2692 18.1753 31.1855C17.9933 31.1017 17.8847 31.3628 17.8558 31.582C17.8183 31.8662 17.8533 32.1461 17.9374 32.4035C17.9251 32.4087 17.9132 32.4155 17.9017 32.4229C17.8785 32.438 17.8583 32.4584 17.841 32.482C17.8367 32.483 17.8323 32.4835 17.828 32.4846C17.7136 32.5123 17.6923 32.719 17.7688 32.7907ZM18.0767 31.5909C18.08 31.5648 18.0857 31.5407 18.0944 31.5177C18.0958 31.524 18.0973 31.5303 18.0995 31.5381C18.1081 31.6066 18.1135 31.6815 18.1143 31.7584C18.0948 31.7552 18.0742 31.761 18.0576 31.7751C18.0597 31.715 18.0652 31.6485 18.0767 31.5909Z" fill="#251C1C" />
    <path d="M20.9328 26.7377C20.9802 26.8594 21.1636 26.9161 21.2974 26.881C21.3143 26.8767 21.3301 26.871 21.3448 26.8652C21.395 26.8633 21.4441 26.8431 21.4779 26.8113C21.5547 26.7728 21.5953 26.6858 21.5287 26.5949C21.5236 26.5881 21.518 26.5814 21.5129 26.5747C21.5107 26.5473 21.5039 26.5208 21.4954 26.4943C21.5598 26.4909 21.6224 26.4823 21.6817 26.4679C21.8402 26.4554 21.9932 26.4082 22.1416 26.3375C22.3419 26.2423 22.6912 26.1033 22.597 25.8609C22.5027 25.6194 22.1754 25.643 21.9576 25.7305C21.6754 25.8435 21.4627 26.0326 21.3154 26.262C21.2996 26.2519 21.2827 26.2423 21.2658 26.2341C21.2313 26.2178 21.1947 26.2067 21.158 26.2005C21.1529 26.1961 21.1484 26.1918 21.1439 26.188C21.0152 26.0797 20.8149 26.1687 20.8222 26.2894C20.7782 26.3394 20.7624 26.4058 20.8019 26.4722C20.8527 26.5578 20.8973 26.6458 20.9328 26.7377ZM22.1517 25.9744C22.1771 25.9638 22.2042 25.9571 22.2319 25.9537C22.2279 25.9585 22.2234 25.9638 22.2189 25.9705C22.167 26.0172 22.1066 26.0629 22.04 26.1052C22.0248 26.0821 22.0011 26.0638 21.9734 26.0532C22.0276 26.0229 22.0908 25.9927 22.1517 25.9744Z" fill="#251C1C" />
    <path d="M41.1804 13.4531C41.6652 12.0283 42.0654 10.5735 42.3453 9.09497C42.6073 7.71123 42.8222 6.26693 42.7751 4.85476C42.7327 3.58002 42.3919 2.2521 41.3265 1.44492C40.7824 1.03265 40.1224 0.803067 39.4672 0.631416C38.8252 0.463451 38.1732 0.325994 37.5185 0.218054C35.0109 -0.195803 32.1735 -0.161549 30.1533 1.59024C28.2364 3.25251 27.6918 6.00629 27.9156 8.42415C28.0501 9.87423 28.4211 11.2732 28.835 12.6638C28.8387 12.6912 28.8466 12.7186 28.8598 12.7465C29.3108 14.2555 29.8072 15.7546 30.1031 17.2984C30.617 19.9811 30.6318 22.767 30.1777 25.4597C29.7199 28.1729 28.8101 30.7919 27.4779 33.2035C27.2181 33.6742 26.9529 34.1412 26.6703 34.5988C26.5163 34.068 26.3506 33.5404 26.1966 33.0144C26.041 32.4842 25.8843 31.9545 25.7261 31.4248C25.7891 31.2674 25.7139 31.1299 25.5996 31.0046C25.4334 30.4549 25.2656 29.9058 25.0936 29.3577C24.8766 28.6668 24.6591 27.976 24.4421 27.2852C24.4294 27.2446 24.4051 27.2178 24.376 27.2015C24.4135 26.9861 24.4442 26.7697 24.4675 26.5512C24.5903 25.397 24.5347 24.1412 24.1521 23.0245C24.1193 22.837 24.0452 22.6506 23.9764 22.4774C23.9192 22.192 23.8176 21.9224 23.6805 21.6649C24.0886 20.7598 24.358 19.7952 24.4575 18.8101C24.5152 18.2388 24.5141 17.6617 24.4501 17.0909C24.3723 16.398 24.195 15.7293 24.0124 15.0585C23.8149 14.3335 23.6615 13.6168 23.6392 12.8633C23.617 12.1104 23.672 11.3559 23.6128 10.604C23.5831 10.2296 23.5265 9.85687 23.427 9.49408C23.3847 9.34034 23.2243 9.25868 23.0729 9.29396C21.4878 9.66148 20.0805 10.5777 19.0823 11.8471C17.6798 10.852 15.965 10.3744 14.2597 10.4203C14.2476 10.4192 14.2359 10.4181 14.2232 10.4181C14.1994 10.4181 14.1756 10.4202 14.1523 10.4234C13.089 10.4655 12.0321 10.7114 11.0593 11.1637C10.3866 11.4765 9.80231 11.9019 9.2323 12.37C8.67288 12.8291 8.07481 13.3641 7.35132 13.5363C7.02424 13.6142 6.68604 13.5826 6.38066 13.441C6.01071 13.2693 5.69898 12.9961 5.34331 12.7991C4.79289 12.4943 4.01064 12.4074 3.51843 12.8802C3.185 13.2003 3.20934 13.6542 3.35754 14.0581C3.54595 14.5725 3.74919 15.0816 3.94501 15.5929C4.31973 16.5723 4.69497 17.5517 5.06969 18.531C5.01994 18.6058 5.003 18.6974 5.04428 18.788C4.68227 19.8073 4.72991 20.9436 5.14008 21.9451C5.15808 21.9893 5.17713 22.033 5.19618 22.0767C4.89397 22.539 4.81405 23.1809 4.81776 23.6953C4.81988 23.9622 4.84158 24.2239 4.88074 24.4819C4.88815 24.633 4.90139 24.7841 4.92097 24.9342C4.88551 24.9473 4.85269 24.9716 4.82676 25.0105C4.51555 25.4723 4.23081 25.9594 4.00588 26.4691C3.98312 26.5212 3.96036 26.5739 3.93813 26.6265C3.80158 26.885 3.67562 27.1488 3.56024 27.4168C3.5269 27.4568 3.50414 27.5058 3.49938 27.5595C3.26174 28.1319 3.06962 28.7237 2.9119 29.3271C2.80975 29.6267 2.70708 29.9263 2.60493 30.2264C2.5663 30.3402 2.58535 30.4528 2.63987 30.5471C2.40223 31.8145 2.2842 33.1097 2.19846 34.3671C2.16194 34.9 2.13125 35.4338 2.10426 35.9672C0.625511 37.4062 0.107896 39.7283 0.0136884 41.7217C-0.115451 44.4539 0.655675 47.4067 2.90132 49.1591C3.48244 49.6129 4.1165 49.972 4.822 50.1969C5.10462 50.2869 5.40153 50.3406 5.70215 50.3659C5.80589 50.3864 5.91015 50.4048 6.01494 50.4201C6.11074 50.4343 6.23247 50.4596 6.35896 50.477C6.33885 50.6992 6.36214 50.9261 6.42776 51.1394C6.62094 51.7675 7.14067 52.1977 7.73768 52.4352C8.88035 52.8896 10.5983 52.7558 11.2541 51.5738C11.3171 51.4606 11.3668 51.3426 11.4054 51.2226C11.5097 51.2468 11.6187 51.2563 11.7039 51.2663C12.0099 51.301 12.3179 51.3052 12.6211 51.2499C12.8493 51.2083 13.0514 51.1188 13.2176 50.9888C13.4902 51.1799 13.9528 51.1578 14.256 51.1652C14.6207 51.1741 15.0626 51.2452 15.386 51.0509C15.5072 51.1426 15.6342 51.2215 15.7581 51.2847C16.0835 51.4511 16.4456 51.5474 16.8113 51.5637C16.8303 51.5737 16.8526 51.5811 16.878 51.5832C16.9753 51.5917 17.0717 51.5932 17.168 51.588C17.2389 51.5895 17.3093 51.5895 17.3813 51.5853C17.421 51.5832 17.4527 51.569 17.4771 51.5485C17.5597 51.5316 17.6417 51.51 17.7227 51.4827C17.7338 51.479 17.7449 51.4732 17.756 51.4669C17.8645 51.6101 17.9778 51.7501 18.0953 51.886C18.3377 52.1645 18.6044 52.4304 18.8976 52.661C18.9204 52.6652 18.9426 52.6695 18.9654 52.6727C19.655 53.0918 20.4997 53.2813 21.2952 53.1065C22.0901 52.9317 22.7877 52.3304 23.0327 51.5532C23.1714 51.1131 23.1343 50.627 22.9517 50.2079C23.4392 50.0384 23.9113 49.8109 24.3585 49.5566C24.828 49.2891 25.2752 48.9869 25.6949 48.6473C25.8399 48.5299 25.9817 48.4098 26.1178 48.2829C26.1209 48.2929 26.1241 48.3024 26.1273 48.3124C26.132 48.3071 26.1368 48.3024 26.1416 48.2971C26.1389 48.2876 26.1363 48.2782 26.1336 48.2687C26.1881 48.2176 26.2416 48.1655 26.2935 48.1123C26.294 48.1118 26.2951 48.1107 26.2956 48.1102C26.2966 48.1139 26.2977 48.1171 26.2988 48.1207C26.3252 48.0897 26.3517 48.0581 26.3776 48.027C26.4803 47.9233 26.5819 47.8159 26.6417 47.6922C26.6878 47.6306 26.7333 47.5679 26.7777 47.5047C27.3848 46.6385 27.8077 45.645 28.076 44.6256C28.5973 42.6458 28.6095 40.4402 27.9569 38.4788C29.6199 35.7134 31.2505 32.9286 32.8489 30.1253C34.4313 27.3505 36.0043 24.5662 37.491 21.7387C38.8972 19.0602 40.205 16.318 41.1804 13.4531ZM29.8908 13.9317C29.9041 13.9496 29.9178 13.9681 29.9316 13.9854C29.9379 14.0407 29.9464 14.0965 29.9575 14.1513C29.9358 14.0786 29.9136 14.0054 29.8908 13.9317ZM13.9723 11.6355C13.9713 11.6439 13.9707 11.6523 13.9697 11.6607C13.9686 11.6713 13.9665 11.6818 13.9649 11.6924C13.958 11.6808 13.9517 11.6681 13.9448 11.6565C13.9543 11.6497 13.9639 11.6429 13.9723 11.6355ZM4.68015 15.8946C4.51449 15.4629 4.34884 15.0316 4.18318 14.5999C4.10273 14.3898 4.02123 14.1802 3.94131 13.9702C3.87833 13.8038 3.77724 13.5932 3.84287 13.4131C3.91538 13.2156 4.16254 13.1414 4.35308 13.1251C4.67433 13.0977 4.94266 13.223 5.20941 13.3883C5.52009 13.5811 5.80853 13.8101 6.14461 13.9606C6.48175 14.1123 6.84853 14.1802 7.21742 14.136C7.94462 14.0496 8.55962 13.6269 9.12169 13.1888C9.67741 12.7549 10.195 12.2842 10.81 11.9314C11.234 11.6882 11.6828 11.4928 12.1464 11.3432C12.1506 11.4938 12.1205 11.6402 12.1236 11.7924C12.1284 11.9962 12.1718 12.201 12.2343 12.3948C12.2909 12.5701 12.3428 12.7749 12.4756 12.9108C12.6418 13.0803 12.9096 13.1224 13.1165 13.0018C13.3272 12.8791 13.4214 12.6364 13.4637 12.3837C13.5759 12.5801 13.7088 12.7575 13.8485 12.9002C14.0385 13.094 14.4116 13.0629 14.5413 12.8113C14.6085 12.6812 14.6646 12.5469 14.7096 12.4095C14.7953 12.5669 14.9356 12.678 15.1743 12.6996C15.3246 12.7133 15.459 12.608 15.5374 12.4922C15.7247 12.2141 15.8168 11.8724 15.8554 11.5434C15.8718 11.4044 15.8824 11.2438 15.8607 11.0958C16.9748 11.2938 18.0466 11.7387 18.9405 12.4316C19.0919 12.549 19.2665 12.5343 19.3814 12.3753C20.2403 11.179 21.518 10.3134 22.9364 9.92004C23.2116 11.2416 22.9385 12.6222 23.1528 13.9565C23.2598 14.6231 23.4344 15.2728 23.5784 15.9268C23.4127 15.9347 23.2407 15.9705 23.083 15.9857C22.8406 16.01 22.5977 16.0226 22.3637 16.0952C21.9377 16.2274 21.546 16.5365 21.3677 16.9498C21.2761 17.1625 21.2856 17.4674 21.5344 17.5827C21.979 17.7891 22.4405 17.925 22.9316 17.9613C23.2216 17.9829 23.5614 17.9618 23.8181 17.8202C23.8171 18.0461 23.8054 18.2719 23.7853 18.4968C23.4953 18.4847 23.2153 18.4641 22.9343 18.5652C22.6585 18.6647 22.4288 18.8211 22.1981 18.9975C21.9604 19.1791 21.7366 19.3682 21.6455 19.6652C21.5455 19.9932 21.6662 20.336 21.88 20.5892C22.1758 20.9394 22.7146 21.1068 23.1724 21.001C22.7686 21.9951 22.1901 22.9202 21.4762 23.7142C19.9392 25.4233 17.8211 26.4685 15.5257 26.6781C13.162 26.894 10.7333 26.3111 8.72528 25.0542C7.71916 24.4245 6.81677 23.6226 6.1499 22.638C6.10439 22.5706 6.06046 22.5022 6.01706 22.4337C6.20653 22.46 6.40236 22.4537 6.58919 22.4295C6.85382 22.3953 7.10045 22.3194 7.33861 22.1989C7.57096 22.0815 7.83242 21.9087 7.90545 21.6444C8.08487 20.9941 7.31321 20.7188 6.81783 20.6487C6.55214 20.6113 6.29281 20.6176 6.02659 20.6498C5.82124 20.6745 5.59471 20.7103 5.40259 20.803C5.40312 20.6777 5.37401 20.5555 5.3502 20.4281C5.33696 20.3565 5.32796 20.2844 5.32214 20.2117C5.8297 20.2886 6.35896 20.2991 6.86599 20.2238C7.35873 20.1511 8.02189 19.8953 7.92133 19.2776C7.82871 18.7069 7.19254 18.6452 6.72733 18.5831C6.5188 18.5552 6.30974 18.5394 6.10227 18.5052C5.94667 18.4794 5.7953 18.4399 5.64288 18.4036C5.32268 17.569 5.00141 16.7318 4.68015 15.8946ZM5.17501 23.7932C5.19353 23.4867 5.23217 23.1829 5.32585 22.8891C5.35919 22.7838 5.401 22.6885 5.44917 22.599C5.56931 22.8228 5.70109 23.0397 5.84346 23.2498C5.58095 23.5078 5.61165 24.0017 5.61641 24.3434C5.62224 24.742 5.66934 25.1369 5.77995 25.5208C6.00118 26.2879 6.43252 26.9498 7.06658 27.441C7.11421 27.4779 7.17772 27.42 7.13432 27.3736C6.64105 26.8434 6.29015 26.1573 6.13455 25.4523C6.05887 25.1085 6.02818 24.7504 6.05411 24.3987C6.06681 24.2234 6.10703 24.0586 6.15096 23.8895C6.16472 23.8369 6.18113 23.7832 6.19542 23.7284C6.54632 24.1692 6.94485 24.574 7.37778 24.9384C9.31222 26.5649 11.9289 27.4363 14.446 27.461C16.9372 27.4858 19.3861 26.6502 21.2486 24.9879C21.7572 24.5335 22.2192 24.0243 22.6247 23.473C22.8506 23.8511 23.0121 24.2618 23.0994 24.6951C23.1497 24.9437 23.1888 25.2017 23.2079 25.4544C23.228 25.7192 23.2608 25.9883 23.2047 26.2505C23.1962 26.289 23.2545 26.3053 23.264 26.2669C23.3312 25.9936 23.436 25.7345 23.4731 25.4544C23.509 25.1806 23.5117 24.9184 23.4752 24.6446C23.4005 24.0875 23.2238 23.5573 22.9501 23.0655C22.9438 23.0545 22.9369 23.0439 22.9295 23.0344C23.074 22.8143 23.2095 22.5885 23.336 22.3573C23.3746 22.4279 23.3937 22.5169 23.4175 22.5832C23.4619 22.708 23.5138 22.8186 23.5969 22.9192C23.7207 23.4078 23.8414 23.9001 23.9086 24.3992C23.987 24.9816 24.0023 25.5739 23.9653 26.1605C23.8906 27.3336 23.5858 28.5004 23.0729 29.5598C22.5537 30.6319 21.8281 31.5802 20.9263 32.3615C19.9699 33.1903 18.8711 33.8353 17.7983 34.5008C16.7033 35.1806 15.5993 35.893 14.7043 36.8271C13.8384 34.7572 12.1527 33.225 10.4374 31.8181C8.56544 30.2833 6.51456 28.7195 5.55608 26.4232C5.49521 26.2774 5.43911 26.1294 5.38777 25.9799C5.20041 25.2759 5.13161 24.5172 5.17501 23.7932ZM1.04468 39.0738C1.0595 39.1006 1.07432 39.127 1.08967 39.1528C1.06956 39.1459 1.04944 39.1422 1.02933 39.1396C1.03462 39.1175 1.03992 39.0959 1.04468 39.0738ZM13.2335 50.3143C12.9403 50.5123 12.5365 50.6086 12.1893 50.6365C12.1041 50.6434 11.9029 50.6307 11.6928 50.6365C11.9326 50.2016 12.1178 49.7277 12.3025 49.2775C12.3989 49.0432 12.4915 48.8079 12.5804 48.5709C12.6555 48.6257 12.7291 48.682 12.8006 48.7415C12.9578 48.8726 13.1123 49.0043 13.233 49.1707C13.4648 49.4908 13.6341 50.0437 13.2335 50.3143ZM16.8557 50.9193C16.8229 50.9193 16.7943 50.9251 16.77 50.9356C16.607 50.9235 16.4471 50.8892 16.291 50.8376C15.9391 50.7218 15.5395 50.487 15.3505 50.1574C15.1346 49.7809 15.4072 49.3697 15.6914 49.1212C15.884 48.9532 16.1037 48.8232 16.3244 48.6947C16.4614 49.0848 16.6107 49.4813 16.7801 49.8704C16.9579 50.2305 17.1548 50.5828 17.3734 50.9214C17.2013 50.9209 17.0288 50.9198 16.8557 50.9193ZM27.6859 43.056C27.5886 43.0649 27.4938 43.0876 27.4144 43.1307C27.2377 43.226 27.0858 43.3624 26.9127 43.4646C26.4978 43.7094 25.9971 43.7305 25.6012 44.0248C25.1725 44.3439 24.8867 44.882 25.0333 45.4222C25.0995 45.666 25.2524 45.8561 25.4271 46.0325C25.6345 46.2415 25.8447 46.4479 26.0542 46.6554C25.8902 46.8391 25.7171 47.0161 25.5387 47.1867C25.0423 47.6605 24.5014 48.0818 23.9536 48.4935C23.6885 48.6931 23.4212 48.8879 23.1491 49.0769C22.92 49.236 22.7003 49.406 22.4537 49.5318C22.342 49.4376 22.2176 49.3565 22.0811 49.2939C21.9747 49.2449 21.8652 49.2059 21.753 49.1769C21.78 49.0701 21.8054 48.9584 21.8191 48.85C21.8615 48.7578 21.9043 48.6657 21.9488 48.5741C22.0456 48.2819 22.1367 47.9886 22.2208 47.6922C22.4802 46.7791 22.6866 45.8514 22.8395 44.9152C22.9687 44.1243 23.0629 43.3251 23.1169 42.5237C23.1216 42.51 23.1264 42.4963 23.1306 42.4821C23.1661 42.3541 23.156 42.2061 23.1438 42.0645C23.1698 41.5222 23.1767 40.9793 23.1634 40.437C23.1941 40.3507 23.1936 40.2548 23.156 40.1785C23.1438 39.842 23.1243 39.5055 23.0962 39.1701C23.0057 38.0997 22.8628 37.0214 22.5617 35.9878C22.532 35.8867 22.3579 35.9003 22.369 36.0135C22.4622 36.9524 22.577 37.8891 22.6268 38.8321C22.6474 39.2233 22.6606 39.6151 22.6659 40.0068C22.4447 39.9942 22.224 40.0094 22.007 40.07C21.9959 40.0731 21.9837 40.0769 21.9721 40.08C21.5762 40.0726 21.1687 40.1395 20.8077 40.2022C20.47 40.2606 20.1334 40.3396 19.8101 40.4528C19.4523 40.5781 19.1183 40.8114 19.0818 41.2184C19.0178 41.9361 19.9784 42.2125 20.5044 42.412C21.1475 42.6558 21.8509 42.8327 22.54 42.878C22.5426 42.878 22.5453 42.878 22.5484 42.878C22.5278 43.0897 22.5045 43.3008 22.4791 43.512C22.4315 43.4972 22.3833 43.483 22.3341 43.4709C22.1684 43.4304 22.0049 43.4019 21.8361 43.3788C21.4836 43.3303 21.1268 43.2924 20.7707 43.2908C20.4425 43.2892 20.0768 43.3251 19.7783 43.4709C19.4427 43.6352 19.2395 44.0591 19.4269 44.406C19.5745 44.6793 19.9238 44.8446 20.1917 44.9799C20.4775 45.1247 20.7791 45.2453 21.0872 45.3343C21.4058 45.4265 21.7418 45.4902 22.0732 45.5112C22.1012 45.5128 22.1287 45.5128 22.1557 45.5112C22.0398 46.0825 21.9033 46.6496 21.7461 47.212C21.6058 47.7122 21.4502 48.2081 21.2825 48.6999C21.2359 48.8368 21.1877 48.9732 21.1385 49.1096C20.7034 49.1212 20.2657 49.2512 19.8868 49.4665C20.0376 49.3986 20.1954 49.3492 20.3621 49.3249C20.9093 49.2454 21.4645 49.4866 21.8048 49.9152C21.8064 49.9168 21.8075 49.9188 21.8085 49.9204C21.9176 49.9973 22.0176 50.0868 22.1033 50.1895C22.486 50.6455 22.4939 51.3316 22.062 51.7628C22.0271 51.7975 21.9906 51.8302 21.9525 51.8607C21.672 52.1535 21.2676 52.3341 20.867 52.3794C20.6674 52.402 20.4674 52.3946 20.271 52.3636C20.297 52.3441 20.3224 52.3241 20.3473 52.303C20.0572 52.294 19.764 52.2282 19.4946 52.1077C19.493 52.1082 19.4914 52.1087 19.4899 52.1092C19.4687 52.0987 19.448 52.0866 19.4269 52.0756C19.3475 52.0366 19.2702 51.9939 19.1961 51.9455C18.8378 51.7122 18.5298 51.4079 18.2614 51.0646C18.1852 50.9688 18.1117 50.8708 18.0413 50.7697C17.9857 50.7692 17.9317 50.7397 17.8978 50.6686C17.8581 50.5854 17.82 50.5017 17.7814 50.418C17.7338 50.4112 17.6893 50.3806 17.6623 50.3169C17.4512 49.8272 17.2336 49.3323 17.0484 48.8273C16.5514 47.5921 16.3048 46.2773 16.0507 44.9757C15.7072 43.216 15.3489 41.3289 15.5135 39.5124C15.513 39.4771 15.5125 39.4418 15.512 39.4066C15.5088 38.8511 15.5098 38.2576 15.5897 37.6853C15.5088 38.0002 15.45 38.3198 15.405 38.6426C15.3733 38.7905 15.3442 38.939 15.3182 39.088C15.2484 39.0096 15.1817 38.929 15.1208 38.8437C14.9001 38.6031 14.7731 38.3203 14.7054 38.0028C14.6985 37.9707 14.6725 37.8322 14.6768 37.7201C14.4333 37.7648 14.4428 38.1534 14.472 38.3298C14.5519 38.81 14.8128 39.326 15.2436 39.5798C15.0838 40.7919 15.0975 42.0377 15.1843 43.2413C15.3061 44.9305 15.64 46.6059 16.1645 48.2166C15.8464 48.3619 15.5437 48.5657 15.2997 48.7737C14.8985 49.117 14.6239 49.644 14.7482 50.1784C14.771 50.2764 14.8091 50.3706 14.8578 50.4612C14.6546 50.4523 14.445 50.4717 14.2571 50.4749C14.0655 50.478 13.8125 50.4686 13.5828 50.508C13.6167 50.4254 13.6437 50.3375 13.6606 50.2437C13.749 49.7599 13.6537 49.2465 13.3817 48.8368C13.234 48.6141 13.0546 48.4267 12.8487 48.2566C12.8117 48.2261 12.7725 48.1929 12.7318 48.1602C13.0292 47.3146 13.2674 46.4506 13.4044 45.5607C13.46 45.2006 13.4955 44.8388 13.5103 44.475C13.5135 44.4007 13.5156 44.327 13.5167 44.2533C13.6955 43.1676 13.777 42.064 13.7935 40.9767C13.7945 40.8993 13.795 40.8219 13.7956 40.7445C13.8723 40.6866 13.9432 40.616 14.0062 40.5449C14.1449 40.3896 14.265 40.2211 14.3592 40.0358C14.5439 39.6735 14.6985 39.2244 14.5688 38.8216C14.545 38.7484 14.4921 38.7042 14.4323 38.6878C14.4206 38.88 14.3603 39.0843 14.328 39.2101C14.2248 39.6103 14.0517 39.9615 13.7956 40.2664C13.8019 40.0321 13.7892 39.7957 13.7813 39.5772C13.7813 39.5751 13.7807 39.5735 13.7807 39.5714C13.768 39.137 13.7479 38.7031 13.7204 38.2693C13.6945 37.8565 13.0451 37.8533 13.071 38.2693C13.2086 40.4686 13.2081 42.7611 12.7381 44.9389C12.7275 45.1643 12.7127 45.3901 12.6937 45.6155C12.4952 46.3805 12.2729 47.1414 12.0432 47.8933C11.7304 48.9158 11.406 49.981 10.8238 50.8898C10.5893 51.2557 10.2818 51.5506 9.99602 51.8676C9.89758 51.9102 9.79543 51.9444 9.69064 51.9718C8.84118 52.1908 7.54609 52.0129 7.09199 51.1631C7.02424 51.0362 6.98084 50.8956 6.96443 50.7529C6.9819 50.6855 6.99883 50.6192 7.02106 50.5602C7.09621 50.3638 7.2206 50.1911 7.37038 50.0436C7.53709 49.8793 7.72762 49.7467 7.91869 49.6124C8.11557 49.4734 8.33204 49.2917 8.55486 49.2033C8.61678 49.1791 8.59402 49.0917 8.52733 49.1038C8.37067 49.1317 8.21824 49.1138 8.06264 49.1375C7.91445 49.1601 7.7652 49.1917 7.62442 49.2433C7.49898 49.2891 7.37725 49.3492 7.2624 49.4208C6.94644 48.0839 6.70033 46.7338 6.51774 45.3759C6.56166 45.3807 6.60665 45.3833 6.65164 45.3854C7.01312 45.4012 7.37831 45.3659 7.73292 45.2959C8.07588 45.2279 8.47388 45.1295 8.75809 44.9199C9.06771 44.6919 9.17726 44.3055 9.06294 43.9427C8.9518 43.5894 8.66176 43.3524 8.32198 43.2266C8.00231 43.1086 7.63765 43.0828 7.29998 43.0639C6.95808 43.0444 6.61036 43.0312 6.27005 43.0792C6.25734 42.9217 6.24517 42.7643 6.23352 42.6069C6.4828 42.6142 6.76384 42.54 7.0036 42.4984C7.25129 42.4557 7.49686 42.401 7.73556 42.322C8.2066 42.1661 8.9391 41.8713 9.07617 41.3348C9.17673 40.942 8.9645 40.6145 8.60248 40.4697C8.33256 40.3612 8.05312 40.2722 7.77843 40.1759C7.49898 40.0774 7.21953 39.9778 6.93638 39.8899C6.66699 39.8067 6.39072 39.7378 6.11762 39.8036C6.11339 39.4255 6.11286 39.0469 6.11762 38.6683C6.12979 37.6216 6.16896 36.5791 6.2674 35.536C6.28539 35.3433 5.99007 35.3491 5.96784 35.536C5.74291 37.4015 5.59577 39.2786 5.63229 41.1589C5.66881 43.0123 5.83447 44.8641 6.12291 46.6954C6.27428 47.6542 6.46058 48.6073 6.67863 49.5534C6.66011 49.5513 6.64159 49.5503 6.62253 49.5513C4.19589 49.6993 2.42498 47.5726 1.46597 45.6097C1.35218 45.3769 1.24474 45.1411 1.13994 44.9041C1.07485 44.6556 1.02086 44.4039 0.976935 44.1506C1.02669 44.1717 1.07855 44.1907 1.13253 44.207C1.26061 44.246 1.39981 44.2707 1.50354 44.326C1.6131 44.3844 1.69196 44.4529 1.78511 44.5345C2.02751 44.7477 2.26092 44.9689 2.56101 45.1005C2.92672 45.2616 3.29297 45.2743 3.65816 45.1021C3.83811 45.0173 3.93496 44.7556 3.87515 44.5714C3.75713 44.208 3.54648 43.9111 3.29826 43.6247C3.06168 43.3519 2.86639 43.106 2.67003 42.8032C2.45039 42.4652 2.18523 42.193 1.84121 41.9798C1.68667 41.8839 1.52366 41.7976 1.35112 41.7391C1.2675 41.7107 1.18282 41.6822 1.09761 41.6585C0.998107 41.6312 0.901249 41.6343 0.802278 41.6159C0.783224 41.6122 0.763644 41.6112 0.74459 41.6128C0.748295 41.3458 0.763113 41.0793 0.789046 40.814C0.804924 40.5981 0.826099 40.3822 0.853091 40.1663C0.907075 40.2243 0.963704 40.2775 1.01663 40.3238C1.25162 40.5291 1.51731 40.6545 1.79093 40.7988C2.35036 41.0931 2.73143 41.6217 3.39829 41.7033C3.77354 41.7491 4.20064 41.5912 4.21546 41.1536C4.22552 40.8535 4.00694 40.5576 3.79947 40.3586C3.4147 39.9889 2.9029 39.782 2.46256 39.4893C2.21857 39.3271 1.98993 39.1328 1.78193 38.9269C1.60357 38.75 1.43845 38.5304 1.2368 38.3725C1.3326 38.0681 1.44427 37.7701 1.57447 37.4816C1.98094 36.5801 2.63933 35.8561 3.29879 35.1348C3.27603 35.1385 3.25274 35.1453 3.23051 35.1569C3.00981 35.2701 2.8034 35.398 2.61022 35.5397C2.61552 35.298 2.62081 35.0563 2.62716 34.8147C2.63193 34.6309 2.63775 34.4471 2.64463 34.2634C2.70602 34.3023 2.78064 34.3313 2.87326 34.3471C3.18923 34.4019 3.51367 34.4303 3.83334 34.4498C4.11967 34.4672 4.48698 34.5266 4.74843 34.3776C5.03582 34.2144 5.09668 33.868 4.92679 33.5963C4.77542 33.3546 4.48856 33.1892 4.25675 33.0339C3.79153 32.7217 3.30091 32.4568 2.76741 32.2862C2.81452 31.7802 2.87644 31.2753 2.95689 30.773C2.98177 30.7782 3.00664 30.7814 3.03257 30.7819C3.36071 30.7882 3.67033 30.8988 3.93708 31.0873C4.22923 31.2937 4.47639 31.5543 4.78706 31.737C5.39994 32.0972 6.2674 32.2983 6.96602 32.0809C7.40954 31.9429 7.67205 31.5317 7.53444 31.0741C7.43283 30.7372 7.14915 30.4486 6.9131 30.1959C6.47328 29.7241 5.96678 29.3187 5.47404 28.9038C4.92679 28.4431 4.44516 27.9265 3.96089 27.4042C3.97571 27.3736 3.99 27.3431 4.00429 27.312C4.1149 27.0688 4.22552 26.8266 4.3446 26.587C4.54202 26.1895 4.76325 25.8056 5.0083 25.4365C5.28563 26.7223 5.9689 27.9434 6.8083 28.9517C8.39502 30.8578 10.529 32.2035 12.2337 33.9927C13.1509 34.9557 13.9745 36.0641 14.3862 37.3404C14.4397 37.5063 14.6636 37.5869 14.7927 37.4473C16.5768 35.5202 19.0908 34.5561 21.0962 32.9044C22.7035 31.5807 23.7927 29.7589 24.2627 27.7591C24.4188 28.373 24.575 28.9875 24.7327 29.6014C24.1177 29.9016 23.6324 30.4718 23.3566 31.0873C23.2153 31.4027 23.0454 31.8692 23.4064 32.113C23.7091 32.3173 24.223 32.1888 24.5496 32.1014C24.7824 32.0387 25.0693 31.9487 25.3101 31.8139C25.3863 32.0993 25.4631 32.3847 25.5409 32.67C24.9036 32.8949 24.2818 33.1597 23.7398 33.5715C23.5942 33.6821 23.4101 33.7995 23.3169 33.9606C23.1931 34.1744 23.274 34.4345 23.4889 34.5514C23.861 34.7546 24.3643 34.6372 24.7539 34.5577C24.9603 34.5151 25.1672 34.4724 25.3736 34.4282C25.5731 34.3855 25.788 34.3566 25.9621 34.2434C25.9674 34.2397 25.9727 34.236 25.978 34.2323C26.0299 34.4139 26.0823 34.5961 26.1352 34.7773C26.2585 35.199 26.3808 35.6208 26.5205 36.0362C26.5057 36.0236 26.4919 36.011 26.4766 35.9988C26.0505 35.6513 25.5107 35.4023 24.9756 35.5471C25.4948 35.7224 25.9674 36.0241 26.3411 36.4285C27.1461 37.2999 27.4981 38.4867 27.6277 39.6509C27.3223 39.8094 27.0212 39.9742 26.7058 40.1132C26.3797 40.2564 26.0426 40.3638 25.7134 40.497C25.3535 40.6423 25.027 40.8361 24.8131 41.1694C24.566 41.5532 24.5908 42.0398 25.0116 42.2894C25.7044 42.6995 26.628 42.3883 27.2625 42.0219C27.4213 41.9303 27.6039 41.8313 27.7722 41.717C27.768 42.164 27.7405 42.6116 27.6859 43.056ZM25.48 33.6526C25.4345 33.6663 25.3826 33.6868 25.3604 33.6915C25.3233 33.7 25.2858 33.7079 25.2487 33.7158C25.3196 33.6763 25.3916 33.6383 25.4647 33.6025C25.4689 33.6194 25.4742 33.6362 25.48 33.6526ZM27.6224 41.1089C27.6129 41.1068 27.6039 41.1047 27.5949 41.102C27.6251 41.0873 27.6547 41.0773 27.6224 41.1089ZM28.5386 36.2858C28.2507 36.7696 27.9617 37.2525 27.6722 37.7348C27.6515 37.688 27.6314 37.6411 27.6103 37.5942C27.4801 37.3099 27.3335 37.0309 27.1599 36.7708C27.1641 36.7507 27.1646 36.7297 27.1614 36.7081C27.0831 36.1894 26.9651 35.6761 26.8285 35.1658C26.8296 35.1643 26.8312 35.1627 26.8323 35.1611C28.4587 32.9707 29.5982 30.4665 30.31 27.8407C31.0176 25.2301 31.2791 22.4905 31.0753 19.7941C31.0563 19.5419 31.033 19.2897 31.006 19.0381C31.2224 19.3192 31.6797 19.3171 32.0036 19.3514C32.3424 19.3872 32.679 19.3998 33.0172 19.3535C33.6914 19.2603 34.3075 18.8132 34.3684 18.0982C34.4229 17.4584 33.8735 17.0256 33.2903 16.9414C33.2088 16.9298 33.1288 16.9235 33.0489 16.9214C33.042 16.9145 33.0357 16.9077 33.0288 16.9014C32.7155 16.6065 32.2714 16.7139 31.9729 16.9667C31.9364 16.9972 31.902 17.0299 31.8697 17.0636C31.6866 17.0799 31.503 17.0709 31.3394 16.9972C31.178 16.9246 31.0287 16.9745 30.9388 17.0735C30.8652 17.0398 30.7816 17.024 30.6995 17.0277C30.6138 16.5912 30.5154 16.1568 30.4037 15.7261C30.2899 15.2849 30.1645 14.8468 30.0343 14.4103C30.0507 14.4493 30.0692 14.4867 30.0904 14.5214C30.3502 14.9474 31.0319 15.0769 31.4887 15.0906C32.0073 15.1064 32.5287 14.9727 33.0119 14.7957C33.5057 14.6151 33.9984 14.3998 34.462 14.1528C34.9363 13.9001 35.3851 13.5579 35.6492 13.0814C35.8921 12.6438 35.9821 12.0925 35.7434 11.6339C35.646 11.447 35.493 11.2895 35.2999 11.2021C34.9828 11.0589 34.6753 11.1542 34.3768 11.2922C34.2212 11.3638 34.0651 11.4322 33.9079 11.4965C33.8243 11.4817 33.7417 11.4722 33.6634 11.468C33.276 11.4464 32.8642 11.5581 32.5398 11.7692C32.4503 11.8272 32.3656 11.893 32.2873 11.9646C31.3267 12.1326 30.3148 12.1399 29.3669 11.9682C29.3404 11.9635 29.315 11.9624 29.2912 11.964C29.2293 11.7524 29.1689 11.5402 29.1112 11.3274C29.0297 11.0289 28.953 10.7261 28.8831 10.4197C28.962 10.4766 29.0583 10.5198 29.1784 10.545C29.5865 10.6309 30.0115 10.6708 30.4259 10.7093C32.0534 10.8593 33.7089 10.742 35.3014 10.3771C36.045 10.2065 36.7971 9.98585 37.4571 9.59569C38.0446 9.24818 38.7538 8.64215 38.5823 7.87288C38.387 6.9983 37.2084 7.13254 36.5335 7.13043C35.6973 7.12727 34.8606 7.16206 34.0243 7.15311C33.1071 7.14258 32.2127 7.04253 31.3193 6.83297C30.8583 6.72503 30.4021 6.59972 29.9406 6.49494C29.478 6.39016 29.0154 6.28483 28.5523 6.18005C28.6529 5.326 28.881 4.48984 29.2832 3.69741C29.8273 2.62538 30.6768 1.76452 31.7655 1.23904C32.879 0.701447 34.1466 0.558756 35.3708 0.594034C36.659 0.630892 37.9387 0.862559 39.1851 1.17795C39.8165 1.33802 40.4675 1.53602 40.9888 1.9404C41.4636 2.30845 41.7743 2.83234 41.9468 3.39995C42.3247 4.6431 42.1691 6.01683 42.014 7.28315C41.8372 8.72586 41.5287 10.1533 41.1317 11.5512C40.3204 14.4051 39.1301 17.1346 37.8011 19.7836C36.4198 22.5369 34.9034 25.2243 33.3903 27.907C31.8062 30.7187 30.1883 33.5114 28.5386 36.2858ZM30.3338 12.6933C30.4434 12.7086 30.5529 12.7212 30.663 12.7312C30.6381 12.7723 30.6175 12.816 30.6016 12.8612C30.5937 12.8834 30.5873 12.9055 30.582 12.9281C30.5016 12.8471 30.419 12.7686 30.3338 12.6933ZM31.838 14.3392C31.8586 14.3055 31.874 14.2692 31.883 14.2318C31.9078 14.2281 31.9327 14.225 31.9581 14.2224C32.0761 14.2503 32.1979 14.2639 32.3127 14.2539C32.2132 14.2803 32.1127 14.3034 32.011 14.3224C31.9639 14.3313 31.9163 14.3387 31.8676 14.3451C31.8576 14.3429 31.8475 14.3413 31.838 14.3392ZM32.5239 12.8502C32.5276 12.8344 32.5318 12.8191 32.5371 12.8039C32.5424 12.7886 32.5488 12.7739 32.5546 12.7591C32.571 12.7475 32.5879 12.7365 32.6049 12.726C32.5758 12.7665 32.5493 12.8081 32.5239 12.8502ZM34.8002 11.9109C34.8881 11.8714 34.9733 11.8424 35.0447 11.9119C34.9712 11.914 34.8981 11.9193 34.8256 11.9282C34.8177 11.9219 34.8087 11.9161 34.8002 11.9109ZM33.1479 9.79684C33.1934 9.7642 33.2373 9.72996 33.2802 9.69416C33.3834 9.70995 33.4871 9.72152 33.5872 9.73205C33.6168 9.73521 33.647 9.73787 33.6766 9.73997C33.5009 9.76209 33.3247 9.78105 33.1479 9.79684ZM36.7749 8.04081C36.8516 8.04187 36.9284 8.04397 37.0051 8.04555C36.9353 8.05028 36.8665 8.06032 36.7992 8.07506C36.7918 8.06295 36.7839 8.05135 36.7749 8.04081ZM37.6963 8.08977C37.6958 8.08819 37.6953 8.08717 37.6953 8.08612C37.7016 8.08454 37.7085 8.0856 37.7096 8.09244C37.7164 8.09455 37.7201 8.09663 37.7096 8.09768C37.709 8.1019 37.7064 8.10768 37.7016 8.11558C37.7006 8.10821 37.699 8.10294 37.6984 8.0982C37.6963 8.0982 37.6942 8.0982 37.6926 8.0982C37.6926 8.10136 37.6926 8.10454 37.6926 8.10823C37.6926 8.11244 37.6921 8.11612 37.6921 8.11928C37.6889 8.12928 37.6609 8.20775 37.6593 8.21091C37.6408 8.24987 37.6185 8.28882 37.5942 8.32568C37.5503 8.17772 37.4264 8.08454 37.2819 8.05506C37.3031 8.05611 37.3248 8.05664 37.346 8.05717C37.4772 8.06296 37.5931 8.05978 37.6857 8.09085C37.6873 8.08927 37.69 8.0882 37.6932 8.08714C37.6932 8.0882 37.6932 8.08871 37.6926 8.08977C37.6937 8.08977 37.6947 8.08977 37.6963 8.08977Z" fill="#251C1C" />
    <path d="M20.2879 12.9092C20.7487 13.0691 21.1969 13.2492 21.6485 13.424C21.8059 13.4848 21.9795 13.4095 21.9892 13.2743C22.0117 12.9665 22.0059 12.6565 21.9691 12.3491C21.9697 12.346 21.9709 12.3429 21.9714 12.3398C21.9783 12.3081 21.9755 12.2755 21.9645 12.2447C21.9691 12.2337 21.9743 12.2231 21.9789 12.2121C22.0122 12.1368 21.98 12.069 21.918 12.0214C21.8985 11.921 21.8766 11.8211 21.8496 11.722C21.8186 11.6066 21.6175 11.578 21.5163 11.6546C21.1957 11.8959 20.8734 12.1368 20.5579 12.3821C20.4441 12.4534 20.3361 12.5301 20.2384 12.6133C20.1419 12.6943 20.135 12.8564 20.2879 12.9092ZM21.552 12.9524C21.5514 12.9669 21.5514 12.9819 21.5508 12.9964C21.5261 12.9867 21.5014 12.977 21.4767 12.9674C21.5026 12.9647 21.5278 12.9599 21.552 12.9524ZM21.4629 12.0875C21.4451 12.1161 21.4279 12.1443 21.41 12.1729C21.3997 12.1624 21.3888 12.1522 21.3767 12.1434C21.4055 12.1245 21.4342 12.106 21.4629 12.0875ZM20.99 12.623C20.9578 12.66 20.9262 12.6969 20.8958 12.7353C20.8768 12.7273 20.8579 12.7199 20.8395 12.7119C20.8883 12.6816 20.9389 12.652 20.99 12.623Z" fill="#251C1C" />
    <path d="M10.5782 19.0885C10.3602 18.4916 10.1455 17.9339 10.1023 17.2665C10.0665 16.717 10.0962 15.8664 10.6121 15.6792C11.082 15.5089 11.4761 16.211 11.6448 16.6665C11.8386 17.1895 11.9269 17.803 11.9585 18.3759C11.9696 18.5755 11.9501 18.751 11.8126 18.869C11.8177 18.8332 11.8163 18.7938 11.806 18.7522C11.7963 18.6717 11.7814 18.5919 11.7628 18.5121C11.7419 18.3624 11.7275 18.2097 11.701 18.063C11.6606 17.8382 11.6071 17.6192 11.5342 17.4073C11.4291 17.1021 11.2075 16.5221 10.877 16.6371C10.5419 16.754 10.4206 17.24 10.4639 17.631C10.5257 18.1863 10.7385 18.7111 10.9175 19.2165C10.924 19.2347 10.9333 19.2453 10.9435 19.2511C10.7938 19.2981 10.6428 19.3392 10.4908 19.3768C10.41 19.3967 10.4295 19.5587 10.5103 19.557C10.8622 19.5493 11.2112 19.4725 11.5463 19.3357C11.7851 19.2382 12.0626 19.1237 12.1681 18.8062C12.2768 18.4798 12.1969 18.0501 12.1588 17.712C12.1174 17.3475 12.0542 16.987 11.9445 16.6454C11.7461 16.029 11.3432 15.3141 10.7641 15.28C10.1358 15.243 9.82484 16.0643 9.78627 16.7381C9.73701 17.5928 9.915 18.6347 10.3681 19.2934C10.475 19.4472 10.6372 19.2506 10.5782 19.0885Z" fill="#251C1C" />
    <path d="M16.7037 17.6447C16.8458 17.078 16.8157 16.4538 16.8964 15.869C16.9314 15.6156 16.9916 15.3523 17.1431 15.1773C17.2794 15.0199 17.4639 14.9732 17.6154 15.1197C17.8835 15.3792 17.9395 15.9288 17.9885 16.3304C18.0568 16.8877 18.0861 17.4505 18.084 18.015C18.0054 18.0194 17.9263 18.021 17.8477 18.0226C17.8489 18.0161 17.8497 18.0095 17.8505 18.0023C17.8934 17.614 17.9654 17.2168 17.9275 16.8219C17.9012 16.5449 17.8098 16.0073 17.5635 15.9321C17.2975 15.851 17.1608 16.2602 17.1258 16.5361C17.0706 16.9705 17.0455 17.4061 17.0496 17.846C17.0484 17.868 17.0467 17.8899 17.0459 17.9119C17.0447 17.9365 17.0455 17.9595 17.0476 17.9815C16.9384 17.9683 16.8297 17.9519 16.721 17.9322C16.6078 17.9119 16.5551 18.1378 16.6724 18.1664C17.1789 18.2887 17.6904 18.3463 18.2055 18.3331C18.2739 18.3315 18.3241 18.2602 18.3274 18.1708C18.3537 17.4373 18.3154 16.7012 18.2129 15.9799C18.1458 15.5103 18.0045 14.9354 17.6446 14.733C17.223 14.4955 16.8334 14.948 16.6963 15.4554C16.6111 15.7708 16.5971 16.1164 16.5691 16.4467C16.5365 16.8318 16.4809 17.2229 16.5102 17.6096C16.5209 17.755 16.6671 17.7917 16.7037 17.6447Z" fill="#251C1C" />
    <path d="M8.77461 22.4248C9.19421 21.8725 9.77278 21.5519 10.418 21.3813C10.3503 21.665 10.4136 21.9374 10.559 22.1774C10.07 22.5723 9.85365 23.1822 9.95035 23.7605C9.9722 23.8923 10.1924 23.8353 10.1722 23.7054C10.0897 23.1718 10.2929 22.6771 10.6617 22.3245C10.8709 22.5896 11.1807 22.8045 11.5129 22.9358C12.2253 23.2166 13.0678 23.1792 13.7464 22.8369C13.9267 22.7459 14.0927 22.6348 14.2424 22.5075C14.2446 22.5266 14.2468 22.5443 14.2495 22.5596C14.2659 22.655 14.302 22.7548 14.3708 22.8291C14.3867 22.86 14.4124 22.8782 14.4402 22.8861C14.4473 22.8895 14.455 22.893 14.4626 22.8955C14.6112 23.0351 14.8396 23.1183 15.0532 23.1187C15.4564 23.1202 15.8252 22.8448 16.0399 22.5359C16.0465 22.5394 16.053 22.5438 16.0601 22.5473C16.7524 22.9107 17.7456 23.0179 18.4034 22.534C18.7285 22.2945 18.9061 21.9453 19.0426 21.5967C19.1312 21.3714 19.218 21.13 19.2486 20.8875C19.253 20.888 19.2579 20.888 19.2623 20.8885C19.9731 20.9568 20.5648 21.2288 21.1532 21.5745C21.3045 21.6635 21.4744 21.4619 21.3455 21.3503C20.8194 20.8949 20.0343 20.679 19.3202 20.6357C19.2989 20.6342 19.2776 20.6338 19.2568 20.6328C19.2503 20.5374 19.2328 20.4424 19.1989 20.349C19.1448 20.1985 19.0607 20.0682 18.9558 19.9556C19.2371 19.9143 19.5207 19.8936 19.8059 19.899C20.1643 19.9059 20.509 19.9866 20.8642 20.0043C21.0024 20.0112 21.0685 19.8154 20.9374 19.7613C20.6096 19.6266 20.2238 19.6084 19.8671 19.6079C19.4885 19.6074 19.1038 19.6458 18.7372 19.7313C18.7258 19.7343 18.7137 19.7372 18.7023 19.7402C18.3379 19.4913 17.8527 19.361 17.4167 19.2892C16.9119 19.2061 16.3595 19.1476 15.882 19.359C15.8788 19.3605 15.8755 19.3625 15.8716 19.3639C15.9552 19.0679 15.9328 18.7601 15.7198 18.4586C15.6329 18.3357 15.4728 18.3032 15.3302 18.3666C14.9308 18.5452 14.6375 18.8825 14.52 19.2646C14.326 19.1476 14.1162 19.0566 13.8802 19.0261C13.6879 19.0015 13.465 19.0049 13.3175 19.1382C13.1503 19.2897 13.2033 19.5012 13.3005 19.6703C13.4191 19.8764 13.5907 20.0589 13.7944 20.2064C13.3563 20.1371 12.9006 20.1287 12.4832 20.143C11.6921 20.1695 10.8644 20.438 10.5175 21.1152C10.4382 21.1304 10.359 21.1467 10.2798 21.1668C9.58156 21.3434 8.90519 21.724 8.57083 22.3196C8.50417 22.4401 8.68938 22.5365 8.77461 22.4248ZM15.2051 20.5861C15.334 20.5703 15.3499 20.4021 15.2614 20.3377C15.2658 20.3333 15.2696 20.3284 15.2739 20.3239C15.3166 20.4641 15.5613 20.4419 15.6023 20.3087C15.8121 19.63 16.6513 19.6315 17.2807 19.7343C17.5276 19.7746 17.8216 19.8312 18.0822 19.9349C17.6189 20.1169 17.1949 20.3692 16.8185 20.6834C16.7846 20.7119 16.8305 20.7685 16.8687 20.7424C17.1058 20.5811 17.3615 20.4429 17.6298 20.3269C17.6123 20.3396 17.6178 20.3716 17.6462 20.3716C17.6817 20.3716 17.6822 20.3215 17.6462 20.3215C17.6435 20.3215 17.6413 20.3224 17.6391 20.3229C17.8713 20.2231 18.1133 20.141 18.3603 20.0761C18.4974 20.1641 18.6105 20.2748 18.681 20.4139C18.7176 20.4867 18.7378 20.562 18.746 20.6387C18.2035 20.678 17.6648 20.8236 17.2249 21.1088C17.19 21.1314 17.2097 21.1944 17.2572 21.1772C17.7369 21.007 18.2313 20.8929 18.7389 20.8737C18.7116 21.0542 18.6422 21.2342 18.5815 21.3975C18.4826 21.6616 18.3641 21.9463 18.1423 22.1484C17.6817 22.5679 16.8573 22.4882 16.3142 22.2532C16.0115 22.1224 15.752 21.9355 15.5291 21.7102C15.4111 21.5907 15.3127 21.456 15.2193 21.3203C15.1603 21.2342 15.0756 21.1339 15.0193 21.034C15.0188 20.9937 15.0172 20.9544 15.0122 20.9156C15.0095 20.8924 14.9942 20.8723 14.974 20.8585C15.0685 20.8359 15.139 20.7311 15.0423 20.6638C15.0095 20.6406 14.9756 20.619 14.9412 20.5979C15.0297 20.6003 15.1177 20.5969 15.2051 20.5861ZM14.9702 21.399C15.0281 21.5647 15.1171 21.7157 15.227 21.8588C15.3548 22.0255 15.5094 22.176 15.6821 22.3063C15.5193 22.4725 15.3723 22.6633 15.1363 22.7386C14.9194 22.8079 14.5681 22.7293 14.5424 22.4873C14.5386 22.4494 14.5205 22.4224 14.4959 22.4057C14.491 22.3771 14.485 22.3486 14.4752 22.3216C14.4719 22.3122 14.467 22.3039 14.4615 22.2965C14.5424 22.209 14.6178 22.1165 14.6844 22.0196C14.8046 21.843 14.9106 21.6232 14.9702 21.399ZM13.99 19.5852C13.954 19.5911 13.9196 19.603 13.889 19.6197C13.8693 19.5926 13.8507 19.5646 13.8343 19.5366C13.8884 19.5479 13.9398 19.5646 13.99 19.5852ZM10.8797 21.5258C10.895 21.4339 10.9239 21.3498 10.9638 21.2731C11.6036 21.1845 12.2811 21.2106 12.9192 21.2844C12.9744 21.2908 12.9869 21.2062 12.9323 21.1968C12.3373 21.0926 11.7347 21.0139 11.1354 21.0429C11.4452 20.736 11.9696 20.5954 12.4149 20.5703C12.8203 20.5472 13.2328 20.5728 13.6382 20.5969C14.0643 20.6224 14.4932 20.6834 14.8811 20.8526C14.8822 20.8531 14.8828 20.8531 14.8839 20.8536C14.8751 20.8595 14.8669 20.8678 14.8604 20.8796C14.7238 21.1329 14.6238 21.3906 14.4501 21.6286C14.2758 21.8677 14.0753 22.0835 13.8305 22.267C13.3475 22.6294 12.6908 22.7745 12.0767 22.6505C11.7074 22.5758 11.2539 22.3653 11.0223 22.056C11.3976 21.8406 11.8615 21.7422 12.3472 21.8199C12.3745 21.8244 12.3865 21.7885 12.3586 21.7821C11.8822 21.6754 11.3752 21.7319 10.9463 21.935C10.8835 21.8106 10.8556 21.6738 10.8797 21.5258Z" fill="#251C1C" />
    <path d="M15.2806 35.4078C15.2701 35.4407 15.3267 35.4646 15.3429 35.4317C15.554 35.0121 16.2018 34.8972 16.6187 34.7146C17.1576 34.4782 17.6651 34.1874 18.1642 33.888C19.0158 33.3769 19.87 32.84 20.5629 32.1516C20.7562 31.9594 20.9385 31.7549 21.0882 31.5328C21.1589 31.4284 21.2244 31.3206 21.2836 31.2105C21.3208 31.1409 21.3642 31.0675 21.3836 30.9921C21.4067 30.9049 21.369 30.8443 21.3585 30.7638C21.3365 30.5869 21.1249 30.4877 20.9688 30.6169C20.9295 30.6498 20.873 30.6655 20.8337 30.7008C20.7855 30.7447 20.7593 30.8009 20.7316 30.8562C20.675 30.9683 20.6179 31.0794 20.5525 31.1871C20.4315 31.3855 20.2985 31.58 20.1518 31.7635C19.8554 32.1359 19.4914 32.4601 19.1122 32.7623C18.7205 33.0751 18.3072 33.3644 17.8919 33.651C17.4148 33.9804 16.9267 34.2999 16.4029 34.5654C15.9834 34.7795 15.4298 34.9435 15.2806 35.4078Z" fill="#251C1C" />
</svg>