<svg width="116" height="56" viewBox="0 0 116 56" fill="none" xmlns="http://www.w3.org/2000/svg">
<path d="M35.2079 22.3388C34.0382 21.6066 32.7396 21.2455 31.2272 21.5924C30.3322 21.7977 29.4812 22.2679 28.6329 22.6758C27.9235 23.0156 27.2452 23.4348 26.5584 23.8284C26.1137 24.0833 26.0542 24.3977 26.3898 24.8508C27.1319 25.8548 27.8838 26.8518 28.5777 27.8941C28.5366 27.996 28.497 28.098 28.4587 28.2013C27.5241 27.0557 26.428 26.0815 25.1847 25.515C25.138 25.4711 25.0927 25.4258 25.0459 25.3819C24.2048 24.5888 23.3424 23.8114 22.4346 23.1147C19.7653 21.0642 16.3553 21.4735 14.3784 24.8991C14.0456 25.474 13.6804 26.0291 13.3816 26.6252C12.767 27.8488 12.4413 29.1559 12.5616 30.293C12.5545 33.4806 13.4254 36.1288 14.6801 38.6126C16.0495 41.3202 17.4854 43.9923 19.0077 46.5993C19.3065 47.1105 19.6237 47.6048 19.9551 48.0862C21.1262 50.5644 22.7009 52.7792 25.0219 54.1868C27.0738 55.4316 29.7403 55.9711 31.9933 54.977C32.6816 54.6725 33.3032 54.2449 33.8116 53.7295C34.6981 54.8666 36.2204 54.6599 37.0659 53.5468C42.2884 46.6716 44.7255 36.8877 42.3295 28.4492C41.3694 25.0633 38.8402 22.0471 35.2079 22.3388ZM36.6452 46.69C36.6665 46.5159 36.6863 46.3416 36.709 46.1674C36.7812 46.1462 36.852 46.1222 36.9214 46.0939C36.8322 46.2935 36.7387 46.4918 36.6452 46.69Z" fill="#39B100"/>
<path d="M106.467 31.1411C106.247 35.3767 106.087 39.6151 105.904 43.852C105.87 44.638 106.071 45.1463 107.034 45.2454C109.104 45.4607 111.172 45.751 113.222 46.1121C115.353 46.4874 115.758 46.2183 115.9 43.995C115.947 43.2473 116.033 42.494 115.986 41.7519C115.703 37.2756 115.288 32.8049 115.104 28.3258C114.862 22.3923 114.817 16.4504 114.613 10.5156C114.59 9.87407 114.147 8.74829 113.779 8.69731C110.887 8.28805 107.968 7.99778 105.05 7.90573C104.547 7.88874 103.828 8.8969 103.526 9.5738C103.073 10.5948 102.997 11.7788 102.589 12.8267C101.14 16.5439 99.6305 20.2385 98.1167 23.9317C97.5233 25.3804 97.8448 26.23 99.3275 27.0159C102.801 28.854 102.863 28.9009 104.376 25.2997C105.092 23.5919 105.866 21.9066 106.613 20.2116C106.735 20.2456 106.855 20.2782 106.977 20.3107C107.018 20.6846 107.113 21.0626 107.091 21.4336C106.892 24.6709 106.637 27.9039 106.467 31.1411ZM106.929 16.7124C105.436 19.5389 104.073 22.4321 102.572 25.2544C102.314 25.7372 101.511 26.3632 101.134 26.2626C100.258 26.0304 99.3246 25.5178 99.5073 24.2787C99.5569 23.9332 99.5994 23.5705 99.7381 23.2576C101.704 18.8436 103.625 14.4084 105.698 10.044C106.347 8.67887 112.313 9.07824 112.99 10.4377C113.137 10.7337 113.15 11.1132 113.164 11.4573C113.45 18.2943 113.702 25.1326 114.015 31.9681C114.141 34.7083 114.395 37.4441 114.609 40.4505C114.528 41.2817 114.409 42.3721 114.315 43.4654C114.231 44.4651 113.724 44.7044 112.785 44.475C111.333 44.1224 109.866 43.8151 108.393 43.5716C107.432 43.413 107.212 42.9202 107.27 42.0139C107.796 33.7438 108.297 25.4739 108.764 17.1996C108.795 16.6317 108.484 16.044 108.332 15.4662C107.855 15.8769 107.202 16.1941 106.929 16.7124Z" fill="#251C1C"/>
<path d="M52.4559 44.9652C51.7563 47.2664 51.728 47.258 53.8465 48.3724C57.9546 50.5348 58.2392 50.4286 59.9456 46.1024C62.564 39.4637 65.222 32.8407 67.7653 26.1737C68.2284 24.9601 68.8897 24.5408 70.0736 24.572C73.2173 24.6541 76.3611 24.7306 79.5049 24.7617C80.5981 24.7716 80.9039 25.2801 81.0427 26.3096C81.9958 33.4298 83.0012 40.5428 84.0675 47.646C84.1355 48.0991 84.8124 48.7393 85.2769 48.8072C87.1999 49.089 89.1513 49.1838 91.0928 49.3481C92.033 49.4274 92.4891 48.9148 92.5896 48.0538C92.6463 47.561 92.5995 47.0569 92.5995 46.2242C92.5712 45.8589 92.5868 45.148 92.4508 44.4668C91.1792 38.0575 89.7942 31.6695 88.6217 25.2432C87.7182 20.2926 86.9394 15.3108 86.3743 10.3133C86.1208 8.07022 84.9087 7.37917 83.0479 6.98549C78.4088 6.00413 73.7526 5.91906 69.0356 6.31132C67.4354 6.44443 66.6962 6.96708 66.1127 8.40159C64.252 12.9756 62.2015 17.4717 60.3138 22.0343C58.8269 25.6298 57.3442 29.2366 56.091 32.9156C54.74 36.885 53.6765 40.9506 52.4559 44.9652ZM66.876 10.5569C67.0516 10.1448 67.1111 9.64493 67.3844 9.32206C67.8106 8.81651 68.3304 8.12686 68.8898 8.0419C70.8072 7.75301 72.7599 7.69492 75.5553 7.48251C77.603 7.80113 80.455 8.24441 83.307 8.69048C84.3833 8.859 84.9356 9.47497 85.09 10.5739C85.7215 15.0643 86.3772 19.5505 87.0668 24.0325C87.2325 25.1116 87.6134 26.1566 87.806 27.2328C88.8652 33.121 89.899 39.0149 90.9328 44.9073C90.9837 45.2004 90.9696 45.5048 90.9724 45.8051C90.9894 47.578 90.8237 47.7975 89.1187 47.5327C85.4411 46.9635 85.3378 47.4973 84.8393 43.6936C84.035 37.5633 83.3014 31.4231 82.6571 25.2744C82.507 23.854 82.068 23.231 80.6052 23.1815C76.6217 23.0483 72.6424 22.7722 68.6575 22.6759C68.1675 22.6645 67.4014 23.299 67.196 23.8087C64.9473 29.4094 62.8048 35.0526 60.5886 40.6674C59.8012 42.6613 58.9062 44.6127 58.0396 46.574C57.6615 47.4307 57.2706 48.187 56.0315 47.6743C54.0376 46.8488 53.5803 46.4096 54.0122 44.995C55.6138 39.7497 57.0284 34.4281 58.9671 29.3061C61.3674 22.9676 64.2208 16.799 66.876 10.5569Z" fill="#251C1C"/>
<path d="M71.6895 19.3805C74.0162 19.5986 76.3386 19.9101 78.6709 20.0234C79.4441 20.0617 80.4495 19.8394 80.9862 19.3437C82.289 18.1414 81.5144 13.8011 79.8703 13.1356C78.382 12.5323 76.7549 12.2689 75.1221 11.8384C74.1294 12.1754 72.8054 12.2151 72.4273 12.8326C71.5168 14.3265 70.9602 16.0626 70.4376 17.7549C70.1714 18.6187 70.6657 19.2856 71.6895 19.3805ZM72.2121 16.2142C73.1212 13.7573 76.9248 12.5408 78.8677 14.3449C79.6438 15.0643 79.6777 16.6518 79.8547 17.8724C79.8816 18.0579 78.8464 18.3978 78.5717 18.5324C76.5255 18.2959 74.8417 18.0948 73.158 17.9078C72.0392 17.7832 71.8694 17.1389 72.2121 16.2142Z" fill="#251C1C"/>
<path d="M13.3049 38.5475C14.3104 40.632 15.2492 42.7689 16.4047 44.7486C18.1083 47.6686 19.877 50.5715 22.2957 52.86C23.3635 53.8711 24.5544 54.725 25.7029 55.6299C25.9054 55.7885 26.1716 55.933 26.4095 55.9358C27.8964 55.9542 29.4117 56.1128 30.8618 55.8508C31.7298 55.695 32.5441 54.9276 33.296 54.3073C34.1655 53.5908 35.0633 52.8402 35.7176 51.9056C36.3038 51.0687 37.1167 50.437 37.3999 49.2489C37.6859 48.0523 38.5087 47.0257 38.9561 45.8588C39.6175 44.1354 40.2519 42.3865 40.7178 40.5909C41.1837 38.7981 41.5844 36.9501 41.726 35.0992C41.8889 32.9609 42.0008 30.766 41.1865 28.6957C40.6979 27.4552 40.3765 26.0943 39.7067 24.9884C39.0964 23.9787 38.1674 23.1701 37.2908 22.3926C35.743 21.019 34.0678 19.7814 31.9705 20.0023C30.8135 20.1255 29.6481 20.5219 28.5648 21.0076C27.4971 21.4849 26.5441 22.268 25.5046 22.8345C25.2214 22.9874 24.747 22.9661 24.4581 22.8075C23.6297 22.3529 22.8636 21.7611 22.0479 21.2711C18.6209 19.2092 15.2987 20.7627 13.3162 23.7493C11.3988 26.6409 11.1312 27.7427 11.1581 30.599C11.0491 33.2244 12.0418 35.932 13.3049 38.5475ZM13.3814 26.6253C13.6802 26.0291 14.0455 25.4741 14.3783 24.8992C16.3552 21.4736 19.7651 21.0643 22.4345 23.1148C23.3422 23.8115 24.2046 24.5889 25.0458 25.3819C26.4378 26.6947 27.6061 28.1986 28.1824 30.1698C28.2447 30.3808 28.351 30.6244 28.5053 30.742C28.7163 30.902 29.0364 31.0889 29.2304 31.0138C29.4046 30.9473 29.6085 30.5027 29.5604 30.2917C29.4131 29.6417 29.2516 28.9449 28.9118 28.4068C28.1301 27.1762 27.2521 26.0178 26.3897 24.8509C26.0541 24.3977 26.1135 24.0834 26.5582 23.8285C27.245 23.4348 27.9233 23.0157 28.6328 22.6758C29.481 22.268 30.3321 21.7978 31.2271 21.5925C33.7222 21.0218 35.634 22.3713 37.3461 24.1428C39.3881 26.2585 39.9744 29.0695 40.1641 31.9824C40.3666 35.1049 39.5396 38.1241 38.7211 41.0243C37.9423 43.7772 36.5956 46.3658 35.2927 48.8978C34.368 50.6991 33.0638 52.2143 31.3021 53.1885C30.1339 53.8357 28.9797 54.0637 27.6699 54.0637C26.2311 54.0651 25.0047 53.6842 23.954 52.6872C22.0677 50.8987 20.3543 48.9048 19.0076 46.5994C17.4853 43.9923 16.0493 41.3202 14.68 38.6127C13.4253 36.1288 12.5544 33.4807 12.5615 30.2931C12.4411 29.1559 12.7668 27.8488 13.3814 26.6253Z" fill="#251C1C"/>
<path d="M45.3203 17.3257C46.4744 15.0798 47.1032 12.6852 47.0678 10.0923C47.1329 10.0725 47.1981 10.0513 47.2632 10.0314C46.9757 8.77818 46.7718 7.48957 46.3583 6.28872C46.1997 5.82707 45.605 5.35971 45.1391 5.24642C43.7768 4.91788 42.4725 5.12611 41.4133 6.29439C40.1402 7.69492 39.629 9.4706 39.3798 11.3554C39.132 13.2304 38.7185 15.1067 39.435 16.9944C39.8386 18.0593 40.4135 18.8452 41.4402 19.1864C43.0914 19.7359 44.4069 19.1001 45.3203 17.3257ZM41.3765 17.2493C40.9602 16.19 40.6854 14.9864 40.6613 13.8365C40.6358 12.6116 41.0125 11.3809 41.1428 10.1447C41.2844 8.80648 41.9231 7.8152 42.8082 6.98253C43.2103 6.60443 43.6918 6.30145 44.2243 6.66114C44.7794 7.03641 44.9889 7.61979 44.928 8.34483C44.9068 8.6054 44.9734 8.88718 45.0484 9.14208C45.1759 9.57966 45.3416 10.0017 45.428 10.2495C45.3132 11.17 45.2821 11.8625 45.1292 12.521C44.9054 13.4853 44.6604 14.4582 44.2965 15.3645C43.9991 16.1079 43.5856 16.8315 43.0928 17.4333C42.498 18.1612 41.722 18.123 41.3765 17.2493Z" fill="#251C1C"/>
<path d="M31.584 0.86351C31.3206 0.978214 30.9807 0.906076 30.6777 0.877754C29.5632 0.775795 28.5719 1.0321 27.8044 2.00497C27.296 2.65071 26.7735 3.28219 26.2637 3.92652C24.9298 5.61027 24.9085 7.63537 25.1238 9.67598C25.3631 11.9517 25.9012 14.1126 27.6289 15.6434C28.7278 16.6162 29.9272 17.2663 31.3433 16.6149C31.8049 16.401 32.2397 15.9535 32.5385 15.4961C33.9914 13.2601 34.8311 10.1588 34.8226 7.37329C34.7858 5.21515 34.2222 3.24681 33.095 1.47102C32.7113 0.864931 32.2835 0.563296 31.584 0.86351ZM31.4849 14.3165C30.8491 15.5924 29.593 15.7284 28.6697 14.6861C28.0211 13.954 27.3952 13.0802 27.0766 12.1399C26.6503 10.8867 26.5328 9.50593 26.2836 8.18188C26.3572 6.76861 26.4535 6.17107 27.078 5.22936C27.5934 4.45051 28.2392 3.7722 28.7263 2.97494C29.6921 1.39457 32.251 2.50344 32.7608 3.95777C34.0608 7.66371 33.1078 11.0679 31.4849 14.3165Z" fill="#251C1C"/>
<path d="M13.8177 14.9904C14.3841 15.4676 15.0596 15.816 15.7237 16.1148C17.4117 16.8753 19.1833 15.8132 19.7129 13.5758C19.8744 12.8918 19.9678 12.1865 20.1009 11.4431C19.8149 9.45626 19.6789 7.41006 18.5418 5.66967C17.8224 4.56795 17.1526 3.42653 16.4262 2.33188C15.8781 1.50771 15.0766 1.09705 14.1745 1.03333C13.5727 0.990842 12.9595 1.09988 12.8434 1.98919C12.825 2.1393 12.7146 2.3305 12.597 2.4013C10.9104 3.42231 10.4969 5.2392 10.4998 7.07305C10.5054 10.214 11.4669 13.0036 13.8177 14.9904ZM11.9258 6.03075C12.1807 4.25213 13.4084 3.72537 14.6121 3.19717C15.5567 2.78225 15.8101 3.94192 16.3567 4.42339C16.3978 4.4588 16.4304 4.50423 16.463 4.54813C17.7969 6.4188 18.8831 8.39281 18.7896 10.946C18.6027 11.7971 18.4795 12.6723 18.2175 13.4936C17.8338 14.6945 16.7249 15.1575 15.7082 14.5939C15.2281 14.3277 14.7126 14.0642 14.3331 13.6621C12.3662 11.579 11.4896 9.08528 11.9258 6.03075Z" fill="#251C1C"/>
<path d="M3.3102 20.3476C4.32271 21.3842 5.31398 22.4067 6.67061 22.8513C8.92787 23.592 10.7844 22.1206 10.8693 19.5348C10.8764 19.3069 10.8693 19.0788 10.8693 18.8509C10.9076 15.9946 9.79734 13.6977 7.99322 11.7463C6.7683 10.4208 5.46971 9.22559 3.76331 8.69738C2.14329 8.19608 -0.0785797 9.95055 0.00213809 11.7986C0.145164 15.0811 1.04585 18.0238 3.3102 20.3476ZM3.53396 10.2862C5.02653 10.5921 6.1849 11.5352 7.18042 12.712C8.51438 14.2909 9.70815 15.9747 9.51415 18.3991C9.51415 18.5959 9.52119 18.8537 9.5127 19.11C9.43764 21.2158 8.01024 22.1475 6.31658 21.1237C5.65385 20.7243 5.08598 20.1253 4.49971 19.5844C2.44495 17.6882 1.66045 15.1321 1.44237 12.2971C1.35316 11.1515 2.49879 10.0752 3.53396 10.2862Z" fill="#251C1C"/>
</svg>
