<svg width="122" height="52" viewBox="0 0 122 52" fill="none" xmlns="http://www.w3.org/2000/svg">
<path d="M84.149 22.3261C83.6819 21.1196 83.2147 19.9131 82.7459 18.7083L80.4627 12.8152C79.8686 11.2823 79.3879 9.46958 77.8933 8.48233C76.8304 7.7815 75.605 7.65976 74.3627 7.66136C73.1627 6.92532 71.79 6.45013 70.3429 6.36692C69.219 6.30132 67.7313 6.46458 66.8089 7.13821C66.5516 7.32542 66.3569 7.5638 66.2063 7.83261L65.9253 7.83902C64.9318 7.85982 64.1059 8.47261 63.8114 9.36065C62.0731 14.6217 60.5853 19.9467 59.3447 25.3214C59.0891 25.9742 58.8352 26.6288 58.5847 27.2832C56.2862 33.2803 54.1723 39.338 51.9533 45.3623C51.4896 46.62 51.955 47.1688 53.2752 47.4872C54.4397 47.7673 55.2843 47.9577 55.9308 47.9977C56.7873 49.3722 59.6493 49.0522 60.0505 47.0649C60.5701 46.9673 61.066 46.6872 61.435 46.1608C64.771 41.4182 66.4111 36.17 67.3995 30.7377C70.4563 30.7441 73.5113 30.6321 76.5613 30.3985C76.9303 31.4833 77.2654 32.581 77.5819 33.6786C78.804 37.898 79.9295 42.1398 81.1752 46.3528C81.3495 46.9432 81.8505 47.6857 82.4023 47.9001C84.9158 48.8841 86.4593 48.6969 87.1888 47.2808C88.074 46.9208 88.7105 46.0759 88.3686 44.9223C88.3195 44.7591 88.2721 44.5959 88.223 44.4327C89.5957 45.9512 92.6659 44.9447 92.016 42.6214C90.0577 35.6371 87.419 28.8416 84.149 22.3261ZM70.0873 15.3834C73.2574 14.7242 74.2577 15.4634 74.1697 18.4203C74.168 18.4731 74.1698 18.5259 74.1681 18.5787C74.0276 23.0493 72.6786 23.9934 68.5522 22.2301C68.7959 19.9564 69.0244 17.6811 69.3036 15.425C69.5203 15.5082 69.8334 15.4362 70.0873 15.3834Z" fill="#39B100"/>
<path d="M121.144 45.5401C120.925 43.452 120.575 41.3592 120.043 39.3255C119.612 37.6758 118.562 37.1973 116.741 37.3765C114.634 37.5845 112.527 37.783 110.418 37.9862C110.414 37.9302 110.411 37.8725 110.408 37.8165C109.572 37.8165 108.713 37.9286 107.904 37.7862C106.984 37.6246 106.107 37.2341 105.212 36.9413C105.64 36.0101 106.005 35.0469 106.525 34.1637C106.748 33.7829 107.271 33.5428 107.688 33.2804C109.128 32.3763 110.58 31.4883 112.033 30.5987C116.198 28.045 119.916 25.12 120.754 20.1341C120.952 18.9613 120.947 17.5597 120.448 16.5116C118.038 11.449 114.25 7.53834 108.867 5.15423C105.816 3.80377 102.737 4.00859 99.9122 5.64066C95.3186 8.29358 93.4212 12.7147 91.8641 17.2829C91.6677 17.8557 91.771 18.5437 91.8404 19.1677C91.9555 20.2141 92.4802 20.8558 93.7107 21.0462C95.3 21.291 96.8673 21.7038 98.4193 22.1214C100.808 22.7646 101.466 22.2351 101.192 19.8397C101.029 18.4253 100.769 17.0029 100.797 15.59C100.865 12.3419 104.042 10.1946 107.163 11.1834C113.815 13.2891 116.051 21.5215 111.144 26.1697C110.078 27.181 108.619 27.8689 107.244 28.5281C105.858 29.1937 104.269 29.4993 102.92 30.2162C101.241 31.1074 99.2588 31.9571 98.2179 33.3604C95.5217 36.9957 94.6297 41.2536 94.8582 45.6858C94.9107 46.7114 95.5657 47.3131 96.7183 47.3323C98.9491 47.3707 101.178 47.4298 103.407 47.4554C108.526 47.5162 113.646 47.5322 118.764 47.6298C120.399 47.6618 121.304 47.0874 121.144 45.5401ZM113.908 45.705C113.908 45.7242 113.908 45.7418 113.908 45.7594C108.781 45.7594 103.654 45.7882 98.5294 45.745C96.4713 45.729 96.1429 45.3145 96.175 43.3416C96.2224 40.4919 96.9519 37.7814 98.3821 35.2981C98.9424 34.3253 99.8614 33.3731 100.868 32.8291C102.791 31.7874 104.841 30.8915 106.936 30.2066C115.198 27.5105 118.468 19.011 111.389 12.2442C109.049 10.0057 106.418 8.83444 103.109 10.1593C100.802 11.0825 99.445 12.6987 99.4281 15.1516C99.4179 16.5756 99.4416 17.9997 99.467 19.4238C99.4839 20.3902 99.1048 20.811 98.0368 20.4862C97.0298 20.1806 96.0176 19.8621 94.9835 19.6605C93.6379 19.4013 93.2164 18.5902 93.4754 17.4637C94.5451 12.8331 96.5203 8.71448 101.329 6.52398C103.984 5.31593 106.693 5.37509 109.335 6.83915C112.855 8.79124 115.812 11.1978 117.911 14.6044C120.241 18.3885 119.834 22.8702 116.215 25.696C113.302 27.9713 110.029 29.8306 107.028 32.0131C105.819 32.8916 104.746 34.0405 103.912 35.2501C102.717 36.9814 103.505 38.8566 105.662 39.0294C109.028 39.3014 112.437 39.2279 115.82 39.1255C118.361 39.0471 118.862 39.3158 119.126 41.7143C119.563 45.6793 119.563 45.6794 115.416 45.705C114.913 45.7082 114.411 45.705 113.908 45.705Z" fill="#251C1C"/>
<path d="M56.3674 49.7098C58.2343 50.041 59.0907 49.5258 59.5257 47.8297C59.827 46.6552 60.1655 45.4841 60.5785 44.34C62.2033 39.8518 63.8959 35.386 65.5021 30.8914C66.6869 27.5761 66.6446 27.5633 70.2802 27.7649C70.4477 27.7729 70.6153 27.7776 70.7829 27.7888C72.9951 27.9536 74.8026 28.5936 75.263 30.9889C75.4424 31.917 75.7911 32.8163 76.0484 33.7331C77.2586 38.0645 78.357 42.4263 79.7094 46.716C80.708 49.881 80.8569 49.8395 84.3148 49.8603C85.2626 49.8603 86.2105 49.8842 87.1583 49.8538C88.509 49.8106 89.2537 49.041 89.2774 47.8473C89.3146 46.0089 89.5719 44.0535 89.0303 42.3494C87.463 37.418 85.591 32.5698 83.7495 27.72C81.5458 21.9134 79.2575 16.1387 78.5128 9.9464C78.4484 9.40077 78.0287 8.6647 77.548 8.42789C74.0275 6.69661 70.2345 5.90457 66.2756 5.90137C65.8474 5.90137 65.1602 6.3063 65.0333 6.66312C64.055 9.39765 63.3001 12.2057 62.2643 14.9179C58.1801 25.6272 54.03 36.3157 49.868 46.9978C49.3822 48.249 49.7309 48.7225 51.0951 48.8761C52.8621 49.073 54.6157 49.3994 56.3674 49.7098ZM51.9515 45.3608C54.1705 39.3366 56.2845 33.2786 58.583 27.2816C60.7088 21.7325 63.0191 16.2444 65.2482 10.7289C65.3887 10.3849 65.5156 10.0344 65.6646 9.69357C66.609 7.52707 67.2268 7.13196 69.6302 7.60238C71.6461 7.9976 73.6534 8.50634 75.5914 9.15917C76.2278 9.37358 76.981 10.1401 77.0944 10.7497C78.2064 16.798 80.1579 22.5885 82.5088 28.3024C84.3605 32.8018 85.8567 37.4341 87.4511 42.0263C87.7067 42.7607 87.6491 43.5912 87.6931 44.004C87.6931 44.4345 87.6931 44.4872 87.6931 44.54C87.6762 48.2794 86.0717 49.337 82.4022 47.9002C81.8505 47.6858 81.3495 46.9433 81.1751 46.3529C79.9294 42.1399 78.8039 37.8981 77.5819 33.6787C77.0233 31.749 76.4157 29.8226 75.6574 27.9585C75.4255 27.3872 74.6673 26.7152 74.0614 26.6256C71.9186 26.312 69.7352 26.24 67.5704 26.0528C66.3721 25.9504 65.7577 26.4672 65.365 27.5264C63.2374 33.2451 61.0338 38.9381 58.8995 44.6552C57.5184 48.3545 57.3085 48.457 53.2734 47.4858C51.9532 47.1674 51.4878 46.6185 51.9515 45.3608Z" fill="#251C1C"/>
<path d="M68.1366 22.0479C72.588 24.0512 74.0215 23.1968 74.1671 18.579C74.1688 18.5262 74.1671 18.4734 74.1687 18.4206C74.2568 15.4636 73.2564 14.7245 70.0863 15.3837C69.8256 15.4381 69.5024 15.5133 69.2857 15.4189C68.3345 14.9981 68.0417 15.5837 67.8995 16.243C67.5966 17.6382 67.2547 19.0398 67.17 20.4527C67.1396 20.9807 67.6389 21.8239 68.1366 22.0479ZM68.6578 19.4398C68.7746 17.499 69.6074 16.6189 71.3879 16.8605C71.9516 16.9373 72.4017 17.7709 73.1329 18.4814C72.3678 19.5806 71.8262 20.3582 71.2846 21.1359C70.4925 20.451 68.541 21.3535 68.6578 19.4398Z" fill="#251C1C"/>
<path d="M39.2632 17.3015C40.6691 17.995 42.0826 17.8077 43.3801 16.9757C46.9325 14.6997 48.3625 11.3881 49.0414 7.58533C48.8337 6.59459 48.7449 5.49808 48.3595 4.49377C47.7499 2.91401 45.507 2.19061 44.1809 3.17728C42.6425 4.32138 41.1539 5.56047 39.8699 6.93258C37.9838 8.94935 37.752 11.5144 37.5216 14.0197C37.3967 15.3796 37.8618 16.6093 39.2632 17.3015ZM38.9291 12.3002C39.1759 10.6933 39.3114 8.97918 40.5939 7.71429C41.893 6.43175 43.35 5.27549 44.783 4.10968C45.3791 3.62381 46.0234 3.77165 46.6059 4.2548C47.6205 5.09761 47.7062 6.1916 47.6611 7.14027C48.063 9.96049 45.6199 15.0403 42.0886 16.4124C40.6255 16.9811 39.328 16.6255 38.9697 15.229C38.7319 14.2966 38.7816 13.2611 38.9291 12.3002Z" fill="#251C1C"/>
<path d="M29.6362 23.19C27.8147 23.2766 26.3123 24.0688 24.7889 24.8955C24.4773 25.0643 23.9186 25.0918 23.61 24.9345C22.2903 24.2607 20.9062 23.9548 18.7882 23.988C17.3262 23.9981 14.564 25.1466 13.5065 26.6745C11.4258 29.6799 10.7907 32.8411 12.6077 36.2433C14.7258 40.2081 16.8318 44.1844 18.7822 48.2272C19.4637 49.6397 20.4629 50.5299 21.82 51.1748C23.8258 52.1285 25.8779 52.0637 27.5331 50.6786C29.3411 49.1679 30.9679 47.4221 32.4823 45.6287C34.1165 43.6939 35.5546 41.6018 37.0301 39.5472C37.8509 38.4031 38.7917 37.2719 39.286 35.9936C39.8672 34.4931 40.1188 32.8498 40.342 31.2468C40.5951 29.426 39.7862 27.9932 38.2149 26.9457C37.6861 26.5937 37.2278 26.1464 36.7005 25.7915C34.5734 24.3602 32.4044 23.0602 29.6362 23.19ZM39.0313 31.8066C38.6973 34.0978 37.7656 36.1394 36.5522 38.1131C34.223 41.902 31.3499 45.281 28.1922 48.4307C27.3594 49.2603 26.209 49.9688 25.069 50.3035C23.0513 50.8951 21.104 49.8071 20.1393 47.9733C18.2234 44.3273 16.1982 40.7318 14.3692 37.0454C13.6188 35.5333 12.8998 33.8611 12.7994 32.225C12.6256 29.423 13.836 27.0814 16.6207 25.767C19.0938 24.5997 21.4545 25.0672 23.7119 26.3325C24.4189 26.7293 25.0196 27.3022 25.6937 27.7596C25.8719 27.8793 26.2674 27.9802 26.3483 27.8965C26.513 27.7263 26.6614 27.3743 26.582 27.1896C26.4052 26.7741 26.0846 26.4148 25.785 25.9748C27.7788 24.3083 30.8286 23.825 33.0231 25.0268C34.6918 25.9387 36.2571 27.0497 37.7701 28.1938C38.9489 29.0855 39.2395 30.3725 39.0313 31.8066Z" fill="#251C1C"/>
<path d="M24.4067 15.9091C24.9474 17.4277 27.0827 18.6422 28.694 16.7888C29.8556 15.4524 30.9429 13.994 31.7349 12.4329C33.4159 9.11529 33.6748 5.59063 32.2513 2.13938C31.4093 0.0980027 29.957 -0.821438 27.8096 0.912999C24.7309 3.40231 23.2301 6.49666 23.3679 10.3621C23.271 10.3826 23.1755 10.4033 23.0786 10.4239C23.5057 12.2582 23.7768 14.1438 24.4067 15.9091ZM26.4603 3.73865C27.3129 2.77524 28.4199 2.01599 29.4694 1.23469C29.6239 1.11867 30.1887 1.29932 30.3931 1.50346C31.6122 2.718 31.8 4.33934 31.9348 5.89167C32.268 9.76441 30.855 13.0864 28.1488 15.8915C27.1327 16.9445 26.3573 16.9342 25.6622 15.6829C25.0655 14.6094 24.852 13.3185 24.5718 12.101C24.44 11.5297 24.5491 10.9055 24.5491 10.3783C24.3674 7.89336 24.8066 5.60673 26.4603 3.73865Z" fill="#251C1C"/>
<path d="M17.2697 14.9619C18.2704 13.3302 18.6507 11.5532 18.7506 9.09737C18.6104 8.11833 18.5538 6.50295 18.1004 4.98777C17.7887 3.95388 16.9938 3.01198 16.2795 2.1207C15.7054 1.4063 14.7927 1.25265 13.8398 1.43228C12.1219 1.75314 11.157 2.78706 10.571 4.24191C9.7418 6.3042 10.2056 8.37884 10.4234 10.4521C10.6336 12.4472 11.6522 14.072 13.1822 15.4597C14.6824 16.8199 16.2437 16.6362 17.2697 14.9619ZM13.8354 14.6411C12.1383 13.0533 11.5164 11.0938 11.3389 8.96025C11.2584 7.99355 11.0855 7.009 11.2033 6.05876C11.3092 5.20724 11.5642 4.26656 12.0921 3.58644C13.4029 1.89712 14.9046 1.79152 16.2721 3.63853C16.9819 4.59563 17.386 5.67062 17.4502 6.8622C17.5024 7.82753 17.7127 8.78608 17.8096 9.45249C17.7231 11.4051 17.3174 12.9655 16.3943 14.3943C15.6189 15.5955 14.8942 15.6311 13.8354 14.6411Z" fill="#251C1C"/>
<path d="M3.1809 16.5861C3.12317 16.5112 3.06547 16.4363 3.00774 16.3629C2.32592 16.7878 1.59416 17.1609 0.973187 17.6521C0.043288 18.3882 -0.278166 19.359 0.263235 20.4091C0.793715 21.439 1.36014 22.4733 2.07785 23.3938C3.02023 24.6009 4.09991 25.7978 5.86766 25.9044C6.47615 25.9419 7.32644 25.6797 7.69933 25.2692C8.51534 24.3746 8.89293 23.2251 8.49507 22.0483C8.14714 21.0212 7.80075 19.9366 7.15325 19.0695C6.21243 17.8134 5.13744 16.5414 3.1809 16.5861ZM7.33579 23.4023C7.1314 24.9235 6.22022 25.3138 4.84254 24.4337C3.18089 23.3721 2.22607 21.792 1.41475 20.1542C1.0793 19.4772 1.22596 18.718 1.92495 18.211C2.88137 17.5167 3.72071 17.5066 4.58664 18.0958C6.32006 19.2769 7.14701 20.9089 7.38104 22.6101C7.35764 23.0307 7.36075 23.218 7.33579 23.4023Z" fill="#251C1C"/>
</svg>
