<svg width="120" height="49" viewBox="0 0 120 49" fill="none" xmlns="http://www.w3.org/2000/svg">
<path d="M82.1418 30.4829C81.1647 27.964 78.7193 26.288 75.7812 25.7069C75.5901 25.6693 75.3974 25.6349 75.2046 25.6005C74.3599 25.3206 73.4699 25.1045 72.5514 24.9408C72.1274 24.7182 71.6916 24.5202 71.2441 24.3467C72.3034 23.7035 73.3308 23.0046 74.3129 22.2321C74.7638 21.8769 75.2147 21.4973 75.6571 21.0963C77.365 19.9423 79.4266 18.5724 80.511 16.772C80.6267 16.6836 80.744 16.5952 80.858 16.5052C82.5693 15.1598 82.7335 13.6409 81.3776 11.9796C81.1698 11.7242 80.9485 11.4787 80.7222 11.2381C79.9898 8.37868 77.1254 6.88606 74.2744 6.38522C70.3055 4.29837 66.0885 3.77944 61.5246 5.56349C60.9296 5.46693 60.281 5.55536 59.6625 5.82051C56.8199 7.03825 56.5282 10.5048 56.5852 13.135C56.7997 23.0373 57.0813 32.938 57.3311 42.8403C57.3411 43.2397 57.4585 43.5688 57.6445 43.8323C57.9915 45.6327 59.2452 46.3888 61.6034 46.7832C63.0934 47.0336 64.6119 47.1221 65.7349 47.2432C67.1763 47.1565 68.2272 47.1613 69.2563 47.0222C74.6766 46.2873 78.8299 43.4754 82.2592 39.4506C83.2497 38.2885 83.8397 37.0119 83.9805 35.7205C84.599 33.4241 83.776 31.7268 82.1418 30.4829ZM76.0812 13.5573C76.0829 13.811 76.0494 14.0827 75.9706 14.3757C75.7259 15.2972 75.2415 16.1435 74.6264 16.916C73.966 17.5527 73.3157 18.1075 72.8598 18.5281C72.8279 18.5576 72.7944 18.5871 72.7626 18.6165C72.5514 18.7507 72.3419 18.885 72.1291 19.016C72.1257 19.0176 72.1223 19.0209 72.119 19.0225C70.0373 19.8638 67.7629 20.1273 65.3661 19.9456C64.7393 19.8981 64.3069 19.7967 64.0102 19.6035C63.965 17.1484 63.9197 14.6933 63.8744 12.2382C63.8644 11.68 63.8963 11.0613 63.9113 10.4278C66.5629 10.6734 69.2144 10.9108 71.8642 11.1677C72.533 11.2332 73.5336 11.3232 74.5107 11.5507C75.0689 12.194 75.5918 12.8666 76.0812 13.5573ZM66.2092 41.4966C65.8254 41.4867 65.2404 40.5588 65.1465 39.9941C64.9739 38.9547 65.0979 37.868 65.0979 36.8008C65.0929 36.8008 65.0863 36.8008 65.0812 36.8008C65.0812 35.8761 65.1063 34.9495 65.0762 34.0248C65.0343 32.7645 65.4315 31.8071 66.1573 31.0722C68.3546 31.0837 70.5518 31.2244 72.7274 31.5468C73.0391 31.5926 73.8017 31.6827 74.6683 31.8463C74.8342 31.9904 74.9968 32.1377 75.156 32.2883C75.5901 32.961 75.9756 33.6631 76.3276 34.3849C76.4935 34.7253 76.6695 35.0445 76.8656 35.3391C76.9628 36.2573 76.7081 37.1789 76.0879 38.0447C75.1058 38.868 73.9895 39.5587 72.9604 40.125C72.2095 40.5391 71.4368 40.9058 70.6457 41.2282C69.2194 41.5032 67.7177 41.5358 66.2092 41.4966Z" fill="#39B100"/>
<path d="M118.88 42.7396C118.985 40.936 119.04 39.1291 119.079 37.3221C119.118 35.5871 118.864 35.2401 117.093 35.1844C114.864 35.114 112.626 35.142 110.4 35.2615C108.53 35.3629 106.669 35.6559 104.804 35.8637C104.729 35.7573 104.655 35.6509 104.579 35.5445C104.973 35.1223 105.34 34.6721 105.766 34.2842C108.997 31.3413 112.117 28.3036 114.515 24.6373C116.345 21.8369 116.865 18.6682 115.794 15.6877C114.265 11.437 111.589 7.89993 107.444 5.45627C103.693 3.24503 99.7959 3.8818 96.8745 6.23052C93.6414 8.83131 91.9938 12.2946 91.3032 16.2768C91.1926 16.9152 90.6412 17.4831 90.2825 18.0788C90.1099 18.3636 89.7328 18.6599 89.7713 18.9038C89.8132 19.1886 90.1752 19.5929 90.4585 19.6469C92.505 20.038 94.5565 20.4718 96.6281 20.6535C98.15 20.7877 98.6729 20.1117 98.8187 18.547C98.9042 17.6255 98.9712 16.691 99.1958 15.7973C99.6835 13.8561 100.683 13.2096 102.717 13.3847C104.791 13.5615 106.44 14.5435 107.628 16.141C108.728 17.619 108.927 19.2131 108.012 20.9726C106.822 23.2575 104.866 24.7781 102.912 26.3166C100.064 28.5557 96.9499 30.6115 95.2805 33.8833C93.938 36.5152 92.9777 39.3517 92.0324 42.157C91.0954 44.9362 91.4122 45.2717 94.3235 45.2684C97.5466 45.2635 100.771 45.239 103.994 45.2063C105.935 45.1866 107.878 45.0885 109.819 45.1097C111.998 45.1326 114.178 45.3569 116.354 45.2947C118.035 45.2488 118.782 44.3813 118.88 42.7396ZM117.621 38.0259C117.519 39.2256 117.465 40.4335 117.302 41.6267C117.074 43.3044 116.525 43.725 114.746 43.7479C114.415 43.7528 114.083 43.7495 113.749 43.7495C113.744 43.6202 113.739 43.4909 113.734 43.3616C108.771 43.4892 103.808 43.6431 98.8455 43.7282C97.3807 43.7528 95.9125 43.5565 94.4442 43.5123C93.4956 43.4845 93.3565 43.0163 93.519 42.2323C94.6437 36.8147 97.141 32.2416 101.785 28.8748C103.723 27.4721 105.526 25.8812 107.3 24.2772C112.148 19.8907 110.05 14.758 104.794 12.4223C101.358 10.8953 98.978 11.9918 97.7645 15.609C97.4729 16.4749 97.3253 17.4095 97.2683 18.3228C97.2214 19.0888 96.8862 19.2999 96.1974 19.2295C96.1505 19.2246 96.1018 19.2279 96.0549 19.2214C95.0292 19.0446 93.7201 19.1706 93.0732 18.5895C92.6223 18.1836 92.9877 16.8006 93.1419 15.8792C93.8978 11.3748 95.8873 7.69538 100.517 5.95225C102.111 5.3532 103.756 5.37933 105.374 6.05694C110.072 8.02267 113.002 11.6023 114.399 16.2228C115.417 19.5847 114.607 22.9383 112.13 25.567C109.152 28.7275 105.922 31.659 102.85 34.7361C102.333 35.2516 102.064 36.0029 101.68 36.6461C102.519 36.9702 103.373 37.5987 104.194 37.5611C106.509 37.4579 108.803 37.0127 111.116 36.8343C112.861 36.7001 114.624 36.7721 116.377 36.7443C117.281 36.7295 117.695 37.1469 117.621 38.0259Z" fill="#251C1C"/>
<path d="M56.3025 34.7958C56.2371 38.125 55.9355 41.4508 55.7779 44.78C55.7243 45.9175 56.3377 46.6424 57.3869 47.1662C61.5268 49.2367 65.9365 49.2384 70.3312 48.587C76.2108 47.713 80.5149 44.2741 83.9609 39.7518C86.3108 36.6681 86.232 33.3767 83.7012 30.4469C82.4894 29.0443 81.0865 27.7086 79.5227 26.7118C77.498 25.4221 75.2286 24.5022 72.9022 23.3434C73.3414 23.1257 73.866 22.8623 74.3939 22.6037C77.4259 21.1241 80.2954 19.4071 82.5548 16.8898C84.1789 15.0812 84.2023 13.0762 82.5832 11.2299C81.643 10.1562 80.4629 9.28876 79.4607 8.26252C77.1997 5.94817 74.4108 4.54386 71.3285 3.61091C68.449 2.7418 65.5813 2.43567 62.6967 3.63377C61.3458 4.19517 59.9865 4.78599 58.5736 5.1428C57.1942 5.49306 56.7769 6.37703 56.6629 7.55876C56.6093 8.11034 56.6646 8.67001 56.6562 9.22651C56.5473 17.749 56.4735 26.2733 56.3025 34.7958ZM57.5579 42.1791C57.9233 34.9119 58.1948 27.6382 58.3675 20.3629C58.4529 16.7981 58.2317 13.2251 58.1546 9.65535C58.1043 7.33445 58.4814 6.91703 60.5731 5.96117C66.7125 3.15743 72.2201 4.52422 77.3405 8.3231C78.7986 9.40663 80.2502 10.5882 81.3815 11.9762C82.7374 13.6375 82.5732 15.1565 80.8619 16.5019C78.7685 18.1468 76.5142 19.6379 74.1727 20.9244C72.4179 21.8885 70.4066 22.4006 68.5361 23.1732C68.2277 23.3009 68.0534 23.7379 67.8171 24.0325C68.2093 24.3009 68.5696 24.7265 68.9987 24.8083C70.4854 25.0931 72.0056 25.1994 73.4906 25.4793C77.431 26.2191 80.4094 28.4681 82.7341 31.5206C84.6615 34.0493 84.3448 37.0021 82.2614 39.4474C78.8322 43.4722 74.6789 46.2841 69.2585 47.019C68.2294 47.1581 67.1785 47.1531 65.7371 47.2399C64.6141 47.1187 63.0956 47.0304 61.6056 46.78C58.6272 46.2808 57.4071 45.207 57.5579 42.1791Z" fill="#251C1C"/>
<path d="M63.5546 15.5683C63.5094 15.5699 63.4641 15.5716 63.4189 15.5748C63.4189 16.2688 63.4273 16.9627 63.4172 17.6567C63.3954 19.3066 63.6787 19.8173 65.3665 19.9466C69.3371 20.2494 72.9674 19.3295 75.9508 16.5863C76.7872 15.817 76.9732 14.8498 76.3514 13.9446C75.5419 12.7646 74.6385 11.6254 73.6379 10.5943C71.4422 8.33066 68.256 7.74636 65.286 8.92972C65.0346 9.02956 64.7279 9.15883 64.4899 9.10155C63.2161 8.80039 63.1223 9.60079 63.1692 10.4503C63.2664 12.159 63.4222 13.8628 63.5546 15.5683ZM67.3476 10.054C70.5657 9.67103 73.8591 11.5419 74.9586 14.4684C75.091 14.822 74.8933 15.5241 74.5933 15.7647C72.1848 17.6994 69.3036 18.3803 66.2632 18.4032C65.8559 18.4064 65.1889 17.6716 65.085 17.1887C64.8922 16.3016 65.0296 15.3474 65.0296 14.421C65.0078 14.421 64.9843 14.421 64.9625 14.421C64.9625 13.8645 64.9777 13.3095 64.9592 12.7547C64.8972 10.9019 65.4403 10.2815 67.3476 10.054Z" fill="#251C1C"/>
<path d="M65.0765 34.0253C65.1067 34.9501 65.0816 35.8767 65.0816 36.8014C65.0866 36.8014 65.0933 36.8014 65.0983 36.8014C65.0983 37.8686 64.9743 38.9553 65.1469 39.9947C65.2408 40.5593 65.8258 41.4873 66.2096 41.4971C69.6288 41.5872 73.0211 41.3041 75.5586 38.6771C77.4559 36.7114 77.2884 34.3347 75.2503 32.3739C74.543 31.693 73.7519 31.0908 72.9708 30.4869C71.454 29.3166 69.7947 29.1348 68.0231 29.8763C66.1509 30.657 65.0078 31.9221 65.0765 34.0253ZM66.8733 33.9616C67.346 31.2348 70.2422 30.1644 72.4328 31.9059C73.1652 32.4886 73.901 33.0876 74.5312 33.7734C75.7497 35.0976 75.6307 36.6998 74.2346 37.8079C72.3339 39.3137 70.0059 39.5921 67.6829 39.7476C67.3946 39.7656 66.885 39.1681 66.7878 38.7818C66.6369 38.1713 66.7476 37.4969 66.7476 36.8487C66.6755 36.8438 66.6018 36.8373 66.528 36.8324C66.6403 35.8749 66.7074 34.9109 66.8733 33.9616Z" fill="#251C1C"/>
<path d="M37.3478 16.4232C37.4372 18.7642 39.4363 20.0969 41.8684 19.427C43.3285 19.0242 44.3975 18.0987 45.4864 17.1588C47.9262 15.0563 48.895 12.391 49.049 9.4187C49.1353 7.74756 46.7433 6.15778 44.9997 6.61199C43.1622 7.09048 41.7636 8.17316 40.4437 9.37295C38.5014 11.1384 37.3062 13.218 37.3462 15.8047C37.3462 16.0104 37.3386 16.2175 37.3478 16.4232ZM41.3185 10.2471C42.3905 9.18157 43.6381 8.32741 45.2462 8.05175C46.3613 7.85892 47.5935 8.8345 47.4995 9.87146C47.2639 12.4382 46.4183 14.7521 44.2065 16.4689C43.575 16.9589 42.9635 17.5016 42.2504 17.863C40.4252 18.7899 38.8881 17.9457 38.808 16.0389C38.7987 15.8061 38.8064 15.5747 38.8064 15.3948C38.5969 13.2009 39.8815 11.6754 41.3185 10.2471Z" fill="#251C1C"/>
<path d="M35.1524 1.31877C35.0283 1.25071 34.9132 1.06766 34.8938 0.923981C34.7727 0.0709955 34.1312 -0.0334419 33.5018 0.00739253C32.5598 0.0694004 31.721 0.462656 31.1484 1.25363C30.3889 2.30172 29.6891 3.39674 28.9371 4.45239C27.7484 6.12055 27.6064 8.08206 27.3074 9.98766C27.4464 10.7 27.5436 11.3745 27.7141 12.0309C28.2673 14.1769 30.1183 15.1949 31.8825 14.4659C32.5778 14.1785 33.2835 13.8458 33.8756 13.3876C36.3336 11.4835 37.3383 8.80952 37.3428 5.79685C37.3458 4.03945 36.9137 2.29728 35.1524 1.31877ZM33.3373 12.1142C32.9396 12.4998 32.4013 12.7523 31.899 13.0079C30.8359 13.5478 29.6772 13.1047 29.2765 11.9523C29.0029 11.1643 28.8728 10.3265 28.6784 9.51135C28.5797 7.0628 29.716 5.17072 31.111 3.37703C31.1439 3.33468 31.1783 3.29082 31.2202 3.25755C31.7928 2.79627 32.0575 1.68322 33.0443 2.08249C34.3032 2.58914 35.5875 3.09276 35.8521 4.79873C36.3081 7.72671 35.3931 10.1178 33.3373 12.1142Z" fill="#251C1C"/>
<path d="M37.3349 27.1167C37.3631 24.6567 37.0862 23.7067 35.1001 21.2169C33.0489 18.6441 29.6085 17.3054 26.0585 19.0817C25.2158 19.5031 24.4221 20.0141 23.5631 20.4055C23.2654 20.5414 22.7737 20.5604 22.4805 20.4286C21.4038 19.9407 20.4174 19.2666 19.3111 18.8548C18.19 18.4362 16.9829 18.095 15.7863 17.989C13.6136 17.7974 11.8794 18.8643 10.277 20.0481C9.36912 20.7181 8.40789 21.414 7.77402 22.2838C7.08239 23.2379 6.74922 24.4081 6.2442 25.4777C5.40002 27.2608 5.5155 29.1526 5.68434 30.9942C5.83096 32.5884 6.24561 34.1812 6.72842 35.7251C7.20975 37.2717 7.86736 38.779 8.55307 40.2632C9.01662 41.2675 9.86818 42.1522 10.1644 43.1837C10.4576 44.2071 11.2989 44.7521 11.9061 45.4724C12.5829 46.277 13.5129 46.924 14.4134 47.541C15.1924 48.0752 16.0351 48.7357 16.9341 48.8716C18.4358 49.0972 20.0042 48.9599 21.543 48.945C21.7903 48.9423 22.0658 48.8172 22.2746 48.6813C23.4638 47.9011 24.6975 47.1659 25.8038 46.2948C28.3082 44.3227 30.1387 41.822 31.9041 39.3064C33.1008 37.6007 34.0708 35.7604 35.1134 33.965C36.4212 31.7117 37.449 29.3795 37.3349 27.1167ZM29.2086 40.9005C27.8135 42.8875 26.0393 44.604 24.0874 46.1452C22.9988 47.0041 21.7281 47.3331 20.2397 47.3317C18.8816 47.3304 17.6879 47.1347 16.4779 46.5775C14.6533 45.7375 13.3042 44.4328 12.3445 42.8807C10.9967 40.6994 9.60164 38.4705 8.79597 36.0975C7.94735 33.6009 7.09276 30.9996 7.30159 28.3087C7.49708 25.7998 8.10432 23.3778 10.2192 21.5566C11.992 20.029 13.972 18.867 16.5549 19.359C17.482 19.5357 18.3632 19.9407 19.2415 20.2914C19.9761 20.5849 20.678 20.945 21.3904 21.2848C21.8495 21.505 21.9118 21.7755 21.5637 22.1656C20.6707 23.1699 19.7613 24.1689 18.9527 25.2289C18.6017 25.6924 18.4343 26.293 18.2803 26.8529C18.2314 27.0351 18.4417 27.417 18.6224 27.4741C18.8238 27.5393 19.1556 27.3776 19.3733 27.2404C19.5347 27.1398 19.6443 26.9291 19.708 26.7484C20.3048 25.0495 21.5148 23.7543 22.9559 22.6236C23.8267 21.94 24.7183 21.2698 25.6587 20.6691C28.4237 18.9037 31.9545 19.2557 34.0012 22.2063C34.3463 22.7024 34.7239 23.1808 35.0334 23.6945C35.6703 24.7478 36.0065 25.8745 35.8821 26.8544C35.8895 29.5998 34.989 31.8802 33.6887 34.0208C32.2714 36.353 30.7844 38.6553 29.2086 40.9005Z" fill="#251C1C"/>
<path d="M15.8198 14.46C17.2683 15.0552 18.4955 14.4614 19.6218 13.5757C21.3909 12.1797 21.9416 10.2115 22.1861 8.13832C22.4073 6.27649 22.3853 4.43347 21.0204 2.89801C20.499 2.30999 19.963 1.73482 19.4416 1.1468C18.6566 0.259736 17.6417 0.0268794 16.5008 0.12033C16.1904 0.144771 15.8418 0.210927 15.5708 0.107413C14.8562 -0.167188 14.4182 0.108795 14.0243 0.660871C12.8702 2.27828 12.2933 4.07256 12.2552 6.03933C12.2464 8.57831 13.1061 11.4035 14.5955 13.4407C14.9001 13.859 15.3453 14.2659 15.8198 14.46ZM14.367 2.92525C14.8899 1.60113 17.5099 0.590497 18.497 2.02963C18.9964 2.75711 19.6584 3.37529 20.1856 4.08552C20.8242 4.94382 20.9238 5.48871 20.9999 6.77545C20.7436 7.98312 20.6235 9.24108 20.1886 10.3826C19.8605 11.2395 19.219 12.0359 18.5556 12.703C17.611 13.6533 16.3251 13.5297 15.6734 12.3666C14.0126 9.40639 13.0372 6.30384 14.367 2.92525Z" fill="#251C1C"/>
<path d="M8.50279 14.1504C9.23108 12.4229 8.80949 10.704 8.55801 8.98799C8.30507 7.26334 7.78467 5.63689 6.49236 4.35424C5.41519 3.28535 4.08947 3.0946 2.70558 3.39504C2.23169 3.4976 1.62841 3.92523 1.46706 4.34845C1.04695 5.44767 0.839062 6.6277 0.546875 7.77602C0.61229 7.79336 0.679176 7.81226 0.746044 7.83103C0.709703 10.2042 1.34782 12.3983 2.52238 14.4537C3.44982 16.0787 4.78576 16.6608 6.46475 16.1581C7.50702 15.8447 8.0914 15.1254 8.50279 14.1504ZM7.25553 11.26C7.23082 12.3116 6.95317 13.4137 6.5287 14.3829C6.17836 15.1846 5.38906 15.2192 4.78579 14.5533C4.28427 14.0015 3.86418 13.3387 3.56181 12.6583C3.19113 11.8278 2.94396 10.938 2.71573 10.054C2.56019 9.45164 2.52823 8.81758 2.41194 7.97548C2.49916 7.7487 2.66777 7.36152 2.79715 6.96141C2.87419 6.72741 2.94104 6.47037 2.91923 6.23059C2.85818 5.56759 3.07047 5.03313 3.6345 4.6908C4.17671 4.36003 4.66655 4.63725 5.07503 4.98392C5.9734 5.74658 6.62321 6.65369 6.76712 7.87857C6.8994 9.01101 7.2817 10.1377 7.25553 11.26Z" fill="#251C1C"/>
</svg>
