<svg width="118" height="50" viewBox="0 0 118 50" fill="none" xmlns="http://www.w3.org/2000/svg">
<path d="M116.302 24.7763C116.215 24.0546 115.763 23.6181 115.244 23.4765C115.339 20.9744 115.436 18.4705 115.531 15.9684L115.804 8.82415C115.85 7.61047 115.897 6.39678 115.943 5.18309C115.988 4.02684 116.226 2.65809 115.329 1.74304C113.722 0.104368 111.102 1.18597 109.647 2.41114C108.06 3.74734 106.837 5.60807 105.608 7.25632C102.654 11.2171 100.03 15.4133 97.7513 19.7875C97.1408 20.9591 98.2842 22.0311 99.2726 21.8971C99.3792 22.0311 99.5052 22.146 99.6447 22.2264C100.375 22.6476 101.122 22.3279 101.589 21.7229C104.405 18.0723 107.22 14.4217 110.036 10.7729C110.182 19.4085 110.325 28.0441 110.47 36.6796C110.521 39.666 110.571 42.6504 110.62 45.6368C110.647 47.2888 113.029 47.4305 113.409 46.0541C113.521 46.0196 113.629 45.966 113.734 45.8933C116.568 43.889 116.967 40.4394 117.002 37.2386C117.042 33.0749 116.804 28.9112 116.302 24.7763Z" fill="#39B100"/>
<path d="M85.6237 7.85822C82.9157 5.06456 79.0667 3.65835 75.224 3.33128C71.4531 3.01045 67.022 3.52919 64.1684 6.21869C61.2769 8.94569 60.3384 13.2789 59.5686 16.9934C58.6533 21.4161 58.2378 25.9452 58.3517 30.4575C58.4571 34.5824 58.7039 39.1614 60.5704 42.9301C62.1775 46.1737 65.3221 48.4632 68.8484 49.307C72.5624 50.1965 76.4894 49.4007 79.71 47.4174C83.5062 45.0758 86.0856 41.2926 87.3405 37.0886C87.621 36.1511 88.0428 34.9907 87.9437 34.0012C87.8446 33.0075 87.0473 32.6596 86.1468 32.5637C83.443 32.2762 80.7244 32.0887 78.0143 31.8512C77.7169 31.8242 77.312 32.1054 77.2698 32.4116C76.9007 35.0866 76.1836 39.3156 72.9863 40.0489C71.1388 40.4739 69.2512 39.326 68.2199 37.8677C67.0451 36.2053 66.714 34.1033 66.5854 32.1262C66.2985 27.6639 66.7794 23.1494 67.9415 18.8308C68.5025 16.7496 69.1795 14.6372 70.1328 12.6956C70.8414 11.2519 71.7989 9.73108 73.2605 8.92902C75.146 7.89572 77.118 8.92486 78.1155 10.6331C79.3472 12.7435 78.9465 15.3705 78.6449 17.6683C78.5711 18.235 79.0646 18.4662 79.5138 18.3725C79.6256 18.4454 79.7648 18.4912 79.9356 18.4892L88.3444 18.4642C88.646 18.4642 89.0425 18.2308 89.0889 17.9038C89.614 14.2018 88.2242 10.5394 85.6237 7.85822ZM75.0933 6.97908C70.5398 6.73117 68.4308 12.3498 67.2666 15.7538C65.5772 20.6995 64.8011 25.9723 64.9952 31.1867C65.0858 33.5887 65.3579 36.1178 66.6233 38.2281C67.6884 40.0031 69.5317 41.3885 71.6408 41.626C76.3144 42.1509 78.0544 37.1553 78.6681 33.4324C80.5599 33.5991 82.4496 33.7637 84.3414 33.9304C84.8434 33.9741 85.3453 34.0158 85.8473 34.0616C86.3809 34.1116 86.4463 34.1158 86.345 34.6824C86.1847 35.5657 85.9422 36.4407 85.6596 37.2948C84.5502 40.6281 82.4918 43.6946 79.5434 45.7029C76.8269 47.5529 73.4609 48.5487 70.1623 48.0174C67.0367 47.5133 64.0756 45.7821 62.4137 43.078C60.4333 39.8573 60.157 35.7261 59.963 32.0533C59.75 28.0201 59.9482 23.9577 60.5894 19.9704C60.8952 18.06 61.298 16.1663 61.7957 14.2955C62.2281 12.6664 62.73 11.0331 63.5568 9.54984C64.3772 8.07905 65.5013 6.86034 67.0198 6.07494C68.5932 5.26247 70.407 4.94164 72.1638 4.82915C76.055 4.57915 80.2035 5.40413 83.3164 7.83739C86.0582 9.98107 87.9268 13.4456 87.6632 16.9413C85.204 16.9475 82.7428 16.9559 80.2836 16.9621C80.5536 14.7351 80.6886 12.4352 79.7078 10.3519C78.86 8.55195 77.1517 7.09158 75.0933 6.97908Z" fill="#251C1C"/>
<path d="M117.197 38.2936C116.903 32.5218 116.496 26.7559 116.302 20.9784C116.081 14.3989 116.083 7.8059 116.571 1.23783C116.589 1.0062 116.426 0.738189 116.22 0.6329C114.184 -0.414239 111.773 -0.084974 109.844 1.05597C107.775 2.27923 106.379 4.32565 105.116 6.29741C102.017 11.1349 98.9507 15.9897 95.8673 20.8368C95.6832 21.1258 95.7859 21.4417 95.9778 21.6867C96.3305 22.1328 96.6813 22.5807 97.034 23.0268C97.4178 23.513 98.005 23.199 98.1619 22.7281C100.98 23.2794 103.513 21.1411 105.001 18.9397C106.358 16.9334 107.207 14.4257 109.057 12.81C109.308 18.2103 109.461 23.6145 109.509 29.0205C109.536 31.8978 109.532 34.7769 109.501 37.6542C109.486 39.1397 109.463 40.6252 109.432 42.1107C109.408 43.2249 109.158 44.5841 109.957 45.5029C111.418 47.1875 114.042 46.4352 115.406 45.0531C117.184 43.2536 117.319 40.6654 117.197 38.2936ZM115.689 41.3488C115.387 43.0832 113.771 45.7901 111.565 44.9439C110.406 44.4998 110.837 42.798 110.856 41.8293C110.883 40.4836 110.904 39.1378 110.92 37.792C110.949 35.1004 110.955 32.407 110.933 29.7154C110.887 23.6336 110.713 17.5537 110.414 11.4795C110.389 10.9569 109.829 10.5951 109.346 10.8746C106.988 12.2357 105.815 14.6956 104.538 16.9641C103.296 19.1713 100.978 22.1596 98.0321 21.2483C97.8073 21.1794 97.6174 21.2177 97.4701 21.3153C97.4274 21.2598 97.3829 21.2062 97.3402 21.1507C100.055 16.8818 102.771 12.6128 105.488 8.34192C106.691 6.44864 107.844 4.41754 109.594 2.95307C111.083 1.70684 113.244 0.939194 115.122 1.67238C114.37 12.274 114.875 22.9042 115.496 33.4982C115.577 34.888 115.662 36.2778 115.742 37.6676C115.813 38.887 115.901 40.139 115.689 41.3488Z" fill="#251C1C"/>
<path d="M30.0852 30.7574C29.915 29.7648 28.5724 29.8155 28.0943 30.5013C27.6837 31.091 27.265 31.6807 26.8246 32.2491C26.2114 32.0089 25.5415 31.9022 24.777 32.0089C22.732 32.2918 20.8519 33.3164 19.3391 34.672C19.1797 34.752 19.023 34.8347 18.8663 34.9228C18.4044 35.1896 18.1153 35.9288 18.4746 36.3931C20.1387 38.5411 22.9481 38.1515 25.0633 36.8574C25.8873 36.353 26.6112 35.7313 27.2731 35.0429C27.7566 35.4458 28.2213 35.8754 28.6967 36.2783C29.3775 36.8547 30.5796 36.5078 30.5553 35.5178C30.5201 33.9168 30.3554 32.3345 30.0852 30.7574Z" fill="#39B100"/>
<path d="M39.7907 27.8516C39.6583 26.0451 39.3342 24.2119 38.0726 22.8137C36.8813 21.4928 35.1524 20.8124 33.5099 20.228C30.3088 19.0886 25.5462 18.5256 23.8606 22.3147C23.8119 22.4268 23.7822 22.5362 23.7687 22.6456C23.2744 22.4348 22.7719 22.2373 22.264 22.0559C20.6108 21.4662 18.6658 20.7644 16.8883 21.1086C13.86 21.6983 12.0609 25.338 11.0965 27.9183C8.96238 33.6286 9.82142 40.7132 13.9113 45.3935C16.2642 48.0859 19.4141 48.6596 22.8611 48.5155C26.3296 48.3741 29.6929 47.6964 32.5375 45.631C38.1645 41.5431 40.2769 34.5199 39.7907 27.8516ZM32.27 43.0987C30.1872 44.9319 27.6344 45.9245 24.8763 46.2261C22.1047 46.5276 18.8036 46.7971 16.5155 44.9212C12.6336 41.7379 11.5071 35.734 12.4607 31.0563C12.747 29.6448 13.2036 28.2652 13.8654 26.9817C14.484 25.7783 15.2755 24.3587 16.4371 23.5875C17.9013 22.6162 20.03 23.5475 21.5185 24.0678C23.1663 24.6442 24.7277 25.4074 26.2216 26.3013C27.4237 27.0191 28.5178 25.1619 27.3211 24.4441C26.7808 24.1212 26.2324 23.817 25.6732 23.5315C25.6975 23.4888 25.7218 23.4461 25.7434 23.3981C27.0077 20.5536 30.6411 21.4822 32.9318 22.2987C34.1259 22.723 35.4225 23.2006 36.3302 24.1159C37.3135 25.1085 37.5161 26.5227 37.6134 27.8489C38.0186 33.4098 36.6111 39.2749 32.27 43.0987Z" fill="#251C1C"/>
<path d="M6.22662 9.39704C4.46531 8.16425 0.894065 7.96145 0.359189 10.6325C0.194404 10.7873 0.0782568 11.0007 0.0512429 11.2756C-0.224299 14.1147 0.596919 17.6157 2.86609 19.5556C3.91153 20.4521 5.4027 21.0045 6.72098 20.3214C7.87988 19.721 8.43094 18.4749 8.71459 17.2741C9.38454 14.4189 8.76593 11.1742 6.22662 9.39704ZM6.71828 17.0846C6.52107 17.7891 6.15637 18.7631 5.25411 18.6537C4.35995 18.5469 3.6657 17.6557 3.23888 16.9486C2.27448 15.3582 1.89628 13.5437 1.99623 11.7159C2.1205 11.6011 2.21235 11.4383 2.25287 11.2195C2.56083 9.48776 5.12444 10.894 5.76197 11.5824C7.12618 13.0554 7.23424 15.2408 6.71828 17.0846Z" fill="#251C1C"/>
<path d="M20.6899 8.11855C20.2604 5.41548 18.0777 2.94989 15.1034 3.52359C14.6307 3.61432 14.4146 3.93986 14.393 4.29742C14.058 4.2654 13.7095 4.38548 13.4718 4.73237C11.9266 6.98182 11.7483 9.96773 12.9829 12.396C13.9689 14.3305 16.4298 16.0516 18.6774 15.1497C21.2626 14.1144 21.0438 10.344 20.6899 8.11855ZM17.5185 13.4313C15.9733 13.5194 14.8171 11.985 14.4092 10.6935C13.8689 8.9831 14.1688 7.19262 15.1818 5.717C15.2493 5.61827 15.2952 5.51954 15.3222 5.42081C15.4195 5.42882 15.5222 5.42615 15.6302 5.4048C17.6995 5.00721 18.6801 7.43544 18.8206 9.03113C18.9232 10.1919 19.2771 13.3326 17.5185 13.4313Z" fill="#251C1C"/>
<path d="M33.9975 3.13946C33.0277 0.807296 30.1183 -1.11127 27.814 0.745923C27.7681 0.78328 27.7276 0.820637 27.6924 0.860663C27.452 0.903357 27.2224 1.04211 27.0576 1.30361C25.4422 3.85459 23.9753 7.33949 25.9609 10.1066C27.5115 12.268 30.5019 13.0258 32.5252 11.0325C34.5513 9.03392 35.0672 5.71445 33.9975 3.13946ZM30.9071 9.85044C29.5213 10.9525 27.7519 9.685 27.2008 8.30811C26.3985 6.30149 27.6708 4.02536 28.7271 2.35229C28.8919 2.3256 29.0567 2.25356 29.2106 2.13081C29.8184 1.6425 30.7288 2.12814 31.2286 2.54174C31.9093 3.10744 32.2767 3.94798 32.455 4.79119C32.8143 6.49095 32.3361 8.71371 30.9071 9.85044Z" fill="#251C1C"/>
<path d="M42.0531 6.94977C41.8937 7.01382 41.7667 7.10454 41.6668 7.21127C41.6019 7.22728 41.5398 7.24597 41.475 7.27532C39.2355 8.25194 38.6547 10.971 38.417 13.1404C38.2765 14.4212 38.4359 15.7768 39.4084 16.7267C40.2945 17.5913 41.5938 17.7914 42.6717 17.1563C43.7441 16.5239 44.6491 15.3445 45.3812 14.3679C46.1835 13.2952 46.7562 12.0437 46.7778 10.6908C46.8129 8.31332 44.5492 5.95714 42.0531 6.94977ZM44.6788 11.486C44.306 12.9163 43.0337 14.3839 41.8964 15.3018C41.1832 15.8755 40.5565 15.3258 40.3863 14.544C40.2215 13.7888 40.4025 12.951 40.5484 12.2092C40.7969 10.931 41.1643 9.53544 42.4718 8.9644C42.5934 8.91104 42.6879 8.84433 42.7663 8.76961C44.3655 8.29197 45.0138 10.1999 44.6788 11.486Z" fill="#251C1C"/>
</svg>
