<svg width="52" height="38" viewBox="0 0 52 38" fill="none" xmlns="http://www.w3.org/2000/svg">
<path d="M27.883 13.9934C27.5054 12.9655 27.1277 11.9376 26.7486 10.9111L24.9028 5.89038C24.4225 4.58442 24.0338 3.04001 22.8256 2.19891C21.9662 1.60182 20.9756 1.4981 19.9712 1.49946C19.001 0.872384 17.8913 0.467531 16.7214 0.396644C15.8128 0.340752 14.61 0.479842 13.8642 1.05376C13.6563 1.21325 13.4989 1.41635 13.3771 1.64537L13.1499 1.65083C12.3467 1.66855 11.679 2.19063 11.4409 2.94721C10.0356 7.42947 8.83279 11.9662 7.82978 16.5453C7.62316 17.1015 7.41788 17.6591 7.21536 18.2167C5.35713 23.326 3.6481 28.4871 1.85418 33.6196C1.47925 34.6911 1.85556 35.1587 2.92288 35.43C3.86431 35.6685 4.54711 35.8308 5.06982 35.8649C5.76221 37.0359 8.07608 36.7632 8.40038 35.0701C8.82046 34.987 9.22141 34.7483 9.51972 34.2998C12.2167 30.2593 13.5426 25.788 14.3418 21.1599C16.813 21.1653 19.2829 21.0699 21.7487 20.8708C22.047 21.7951 22.3179 22.7303 22.5738 23.6654C23.5618 27.2602 24.4717 30.8741 25.4788 34.4635C25.6198 34.9665 26.0248 35.599 26.4709 35.7817C28.5029 36.6201 29.7508 36.4605 30.3406 35.2541C31.0562 34.9474 31.5708 34.2276 31.2944 33.2447C31.2547 33.1056 31.2164 32.9666 31.1767 32.8276C32.2864 34.1213 34.7686 33.2638 34.2431 31.2844C32.6599 25.334 30.5267 19.5444 27.883 13.9934ZM16.5147 8.07844C19.0776 7.5168 19.8863 8.14653 19.8152 10.6658C19.8138 10.7107 19.8152 10.7558 19.8139 10.8007C19.7003 14.6096 18.6097 15.4139 15.2736 13.9116C15.4707 11.9745 15.6554 10.036 15.8812 8.11385C16.0563 8.18474 16.3094 8.12343 16.5147 8.07844Z" fill="#39B100"/>
<path d="M5.42256 37.3235C6.93185 37.6057 7.6242 37.1667 7.97586 35.7217C8.21943 34.7211 8.49313 33.7233 8.82701 32.7486C10.1406 28.9248 11.509 25.1201 12.8075 21.2908C13.7654 18.4662 13.7312 18.4553 16.6704 18.6271C16.8059 18.6339 16.9414 18.6379 17.0768 18.6474C18.8653 18.7878 20.3266 19.3331 20.6988 21.3739C20.8439 22.1645 21.1258 22.9307 21.3338 23.7118C22.3121 27.4021 23.2002 31.1181 24.2935 34.7729C25.1008 37.4693 25.2213 37.434 28.0168 37.4517C28.7831 37.4517 29.5494 37.4721 30.3157 37.4462C31.4076 37.4094 32.0097 36.7537 32.0289 35.7367C32.059 34.1704 32.267 32.5045 31.8291 31.0527C30.562 26.8513 29.0486 22.7208 27.5598 18.5889C25.7782 13.6417 23.9282 8.72189 23.3261 3.44625C23.2741 2.98139 22.9347 2.35428 22.5461 2.15252C19.6999 0.677523 16.6335 0.00272643 13.4329 0C13.0867 0 12.5311 0.344995 12.4285 0.648992C11.6376 2.97873 11.0273 5.37115 10.1899 7.6818C6.88804 16.8058 3.5328 25.9121 0.168016 35.0129C-0.224702 36.079 0.057179 36.4824 1.16007 36.6133C2.58864 36.7809 4.00631 37.059 5.42256 37.3235ZM1.85247 33.6183C3.64638 28.4858 5.35549 23.3246 7.21371 18.2153C8.93237 13.4877 10.8002 8.81195 12.6023 4.11294C12.7159 3.81985 12.8185 3.52121 12.9389 3.23085C13.7024 1.38505 14.2019 1.04843 16.145 1.44922C17.7747 1.78593 19.3975 2.21936 20.9643 2.77555C21.4788 2.95823 22.0878 3.61126 22.1794 4.13065C23.0785 9.2836 24.6561 14.217 26.5568 19.085C28.0538 22.9184 29.2634 26.865 30.5524 30.7774C30.759 31.4031 30.7125 32.1107 30.748 32.4624C30.748 32.8291 30.748 32.874 30.748 32.919C30.7344 36.1048 29.4372 37.0059 26.4706 35.7817C26.0245 35.5991 25.6195 34.9665 25.4785 34.4635C24.4714 30.8742 23.5615 27.2603 22.5735 23.6655C22.122 22.0215 21.6307 20.3801 21.0177 18.792C20.8302 18.3053 20.2172 17.7328 19.7274 17.6564C17.995 17.3892 16.2298 17.3279 14.4797 17.1684C13.5109 17.0811 13.0142 17.5215 12.6967 18.4239C10.9767 23.296 9.19511 28.1463 7.46961 33.0171C6.35303 36.1689 6.18333 36.2562 2.92116 35.4287C1.85385 35.1574 1.47754 34.6898 1.85247 33.6183Z" fill="#251C1C"/>
<path d="M14.9382 13.7559C18.537 15.4627 19.696 14.7348 19.8137 10.8005C19.815 10.7555 19.8136 10.7105 19.815 10.6655C19.8862 8.1463 19.0774 7.51657 16.5145 8.07821C16.3038 8.12456 16.0424 8.18859 15.8673 8.10816C15.0983 7.74964 14.8615 8.24863 14.7466 8.81027C14.5017 9.999 14.2253 11.1931 14.1568 12.3968C14.1322 12.8467 14.5359 13.5651 14.9382 13.7559ZM15.3596 11.5339C15.454 9.88033 16.1273 9.13054 17.5668 9.33639C18.0225 9.40182 18.3864 10.112 18.9776 10.7173C18.3591 11.6538 17.9212 12.3163 17.4833 12.9789C16.8429 12.3954 15.2652 13.1643 15.3596 11.5339Z" fill="#251C1C"/>
<path d="M42.6691 21.7933C42.472 25.5517 42.3293 29.3125 42.1663 33.0721C42.136 33.7695 42.3154 34.2206 43.1744 34.3086C45.0212 34.4996 46.8655 34.7572 48.6947 35.0776C50.5959 35.4106 50.9572 35.1718 51.0835 33.199C51.1252 32.5356 51.2023 31.8671 51.1606 31.2087C50.9079 27.2367 50.5378 23.2697 50.3736 19.2952C50.1576 14.0302 50.1172 8.75775 49.9353 3.49152C49.9151 2.9223 49.5196 1.92336 49.1912 1.87812C46.6116 1.51498 44.0081 1.2574 41.4045 1.17573C40.9561 1.16065 40.3144 2.05523 40.0453 2.65586C39.6411 3.56184 39.5728 4.61241 39.209 5.54226C37.9167 8.84072 36.5701 12.1191 35.2197 15.3962C34.6904 16.6816 34.9772 17.4355 36.2998 18.1329C39.3985 19.7639 39.4541 19.8054 40.8032 16.61C41.4424 15.0946 42.1322 13.5992 42.7992 12.0951C42.9078 12.1253 43.0152 12.1542 43.1238 12.1831C43.1605 12.5148 43.2451 12.8503 43.2249 13.1795C43.048 16.052 42.8207 18.9208 42.6691 21.7933ZM43.0809 8.99018C41.7494 11.4983 40.5329 14.0655 39.1938 16.5698C38.9639 16.9983 38.2477 17.5537 37.9117 17.4645C37.1297 17.2584 36.2973 16.8035 36.4602 15.7041C36.5044 15.3975 36.5423 15.0757 36.6661 14.798C38.4195 10.8813 40.1337 6.94579 41.9831 3.07308C42.5617 1.86176 47.8838 2.21614 48.4876 3.42243C48.619 3.68505 48.6303 4.02184 48.643 4.32718C48.8981 10.3938 49.123 16.4617 49.4021 22.5271C49.5146 24.9586 49.7407 27.3862 49.9314 30.0538C49.8594 30.7914 49.7533 31.759 49.67 32.729C49.5942 33.6162 49.1419 33.8285 48.3044 33.625C47.0096 33.3121 45.7009 33.0394 44.3871 32.8233C43.5293 32.6826 43.3335 32.2453 43.3853 31.4411C43.854 24.1028 44.3011 16.7646 44.718 9.42249C44.7458 8.91861 44.4679 8.39711 44.3328 7.88444C43.907 8.24884 43.3247 8.53028 43.0809 8.99018Z" fill="#251C1C"/>
</svg>
