<svg width="49" height="38" viewBox="0 0 49 38" fill="none" xmlns="http://www.w3.org/2000/svg">
<path d="M20.6674 22.1844C19.9015 20.1626 17.9848 18.8174 15.6818 18.351C15.5321 18.3208 15.381 18.2932 15.2299 18.2656C14.5678 18.0409 13.8702 17.8675 13.1503 17.7361C12.8179 17.5574 12.4763 17.3985 12.1256 17.2592C12.9559 16.7429 13.7611 16.182 14.531 15.5619C14.8844 15.2768 15.2378 14.9721 15.5846 14.6502C16.9233 13.7241 18.5392 12.6245 19.3891 11.1794C19.4798 11.1084 19.5718 11.0375 19.6611 10.9653C21.0024 9.88537 21.1312 8.66617 20.0684 7.33274C19.9055 7.1278 19.7321 6.9307 19.5547 6.73758C18.9806 4.4425 16.7354 3.24445 14.5008 2.84245C11.3898 1.16744 8.08452 0.750923 4.50723 2.18289C4.04086 2.10538 3.53246 2.17636 3.04769 2.38919C0.819606 3.3666 0.590971 6.14901 0.635638 8.26017C0.803795 16.2082 1.02453 24.155 1.22027 32.1031C1.22816 32.4236 1.32013 32.6878 1.46596 32.8993C1.7379 34.3444 2.72058 34.9512 4.569 35.2679C5.73691 35.4689 6.92714 35.5399 7.80734 35.6371C8.93714 35.5675 9.76082 35.5713 10.5675 35.4597C14.8161 34.8698 18.0715 32.6128 20.7594 29.3824C21.5358 28.4496 21.9982 27.4249 22.1086 26.3884C22.5934 24.5452 21.9483 23.1829 20.6674 22.1844ZM15.917 8.59913C15.9183 8.80276 15.892 9.02083 15.8303 9.25599C15.6385 9.99562 15.2588 10.6749 14.7766 11.295C14.259 11.806 13.7493 12.2513 13.392 12.5889C13.367 12.6126 13.3407 12.6362 13.3158 12.6599C13.1502 12.7676 12.986 12.8754 12.8192 12.9805C12.8166 12.9818 12.8139 12.9844 12.8113 12.9858C11.1797 13.661 9.39692 13.8725 7.51829 13.7267C7.02695 13.6886 6.68803 13.6071 6.4555 13.4521C6.42003 11.4815 6.38455 9.51091 6.34908 7.54032C6.3412 7.09234 6.36619 6.59567 6.37801 6.08726C8.45633 6.28432 10.5346 6.47488 12.6116 6.68113C13.1358 6.73368 13.9201 6.80592 14.686 6.98852C15.1235 7.50482 15.5334 8.04473 15.917 8.59913ZM8.17913 31.0245C7.87829 31.0166 7.41975 30.2718 7.34618 29.8186C7.21087 28.9843 7.30808 28.1121 7.30808 27.2555C7.30414 27.2555 7.29893 27.2555 7.29499 27.2555C7.29499 26.5133 7.31466 25.7696 7.29102 25.0273C7.25817 24.0157 7.56955 23.2473 8.1384 22.6575C9.8607 22.6667 11.583 22.7796 13.2882 23.0384C13.5325 23.0751 14.1303 23.1474 14.8095 23.2788C14.9396 23.3944 15.067 23.5127 15.1918 23.6335C15.5321 24.1735 15.8342 24.737 16.1101 25.3163C16.2401 25.5896 16.3781 25.8458 16.5318 26.0823C16.608 26.8193 16.4083 27.5589 15.9223 28.2539C15.1524 28.9147 14.2774 29.4691 13.4708 29.9236C12.8823 30.256 12.2766 30.5503 11.6565 30.8091C10.5386 31.0298 9.36149 31.0561 8.17913 31.0245Z" fill="#39B100"/>
<path d="M48.2655 32.0221C48.3483 30.5744 48.3916 29.1241 48.4218 27.6738C48.4521 26.2812 48.2537 26.0026 46.8651 25.9579C45.1178 25.9015 43.3639 25.9239 41.6193 26.0198C40.1532 26.1012 38.695 26.3364 37.2328 26.5032C37.1737 26.4178 37.1158 26.3324 37.0567 26.247C37.3655 25.9081 37.6532 25.5467 37.9869 25.2354C40.5197 22.8733 42.9646 20.4351 44.8446 17.4923C46.2791 15.2445 46.6864 12.7012 45.8469 10.3089C44.6488 6.89715 42.5508 4.05808 39.3019 2.09668C36.3618 0.321828 33.3074 0.832931 31.0175 2.71813C28.4834 4.80565 27.1919 7.58549 26.6507 10.7818C26.564 11.2942 26.1318 11.75 25.8506 12.2282C25.7153 12.4568 25.4197 12.6946 25.4499 12.8903C25.4827 13.1189 25.7665 13.4434 25.9885 13.4867C27.5926 13.8007 29.2006 14.1489 30.8244 14.2947C32.0173 14.4025 32.4271 13.8599 32.5414 12.604C32.6084 11.8643 32.661 11.1142 32.837 10.3969C33.2193 8.83883 34.0023 8.31988 35.5972 8.46044C37.2223 8.60233 38.515 9.39054 39.4464 10.6727C40.3082 11.859 40.4645 13.1386 39.7472 14.5508C38.8145 16.3848 37.2814 17.6053 35.7496 18.8402C33.5176 20.6374 31.0766 22.2875 29.7682 24.9136C28.7159 27.0261 27.9631 29.3028 27.2222 31.5545C26.4878 33.7852 26.7361 34.0545 29.018 34.0519C31.5443 34.0479 34.072 34.0283 36.5983 34.002C38.1196 33.9862 39.6422 33.9074 41.1635 33.9245C42.8713 33.9429 44.5805 34.1228 46.2857 34.0729C47.6034 34.0361 48.1893 33.3398 48.2655 32.0221ZM47.2789 28.2386C47.1987 29.2016 47.1567 30.1711 47.0293 31.1288C46.8506 32.4754 46.4197 32.813 45.0258 32.8314C44.7657 32.8354 44.5056 32.8327 44.2441 32.8327C44.2402 32.7289 44.2363 32.6251 44.2323 32.5213C40.3424 32.6238 36.4524 32.7473 32.5625 32.8156C31.4143 32.8354 30.2635 32.6778 29.1126 32.6423C28.3691 32.62 28.26 32.2442 28.3875 31.6149C29.269 27.2665 31.2264 23.5959 34.8667 20.8935C36.3854 19.7677 37.799 18.4907 39.1889 17.2033C42.9895 13.6825 41.3448 9.56268 37.2249 7.68799C34.5318 6.46228 32.6663 7.34244 31.7151 10.2458C31.4866 10.9407 31.3709 11.6909 31.3262 12.424C31.2894 13.0388 31.0267 13.2083 30.4868 13.1518C30.45 13.1478 30.4119 13.1505 30.3751 13.1452C29.5711 13.0033 28.5451 13.1045 28.038 12.6381C27.6846 12.3123 27.971 11.2022 28.0919 10.4626C28.6844 6.84721 30.2438 3.8939 33.8723 2.49477C35.1216 2.01395 36.4117 2.03492 37.6795 2.57881C41.3619 4.1566 43.6583 7.02977 44.7539 10.7384C45.5513 13.4368 44.9168 16.1286 42.9751 18.2385C40.6406 20.7753 38.109 23.1283 35.701 25.5981C35.2964 26.0119 35.0848 26.6149 34.784 27.1312C35.4422 27.3913 36.1109 27.8958 36.7546 27.8656C38.5689 27.7828 40.3673 27.4254 42.1803 27.2822C43.5479 27.1745 44.9299 27.2323 46.3041 27.21C47.0122 27.1981 47.3367 27.5332 47.2789 28.2386Z" fill="#251C1C"/>
<path d="M0.413729 25.6465C0.362494 28.3186 0.126038 30.9881 0.00254688 33.6602C-0.0394925 34.5733 0.441346 35.1551 1.26374 35.5755C4.50865 37.2374 7.96508 37.2388 11.4097 36.7159C16.0182 36.0144 19.3919 33.2542 22.0929 29.6244C23.9348 27.1493 23.873 24.5074 21.8893 22.1559C20.9395 21.03 19.8399 19.9579 18.6142 19.1579C17.0272 18.1227 15.2484 17.3843 13.4249 16.4542C13.7691 16.2795 14.1803 16.068 14.5941 15.8605C16.9707 14.6729 19.2198 13.2947 20.9907 11.2742C22.2637 9.82254 22.2821 8.21321 21.0131 6.73132C20.2761 5.86952 19.3511 5.17325 18.5655 4.34955C16.7933 2.49193 14.6073 1.36476 12.1914 0.615934C9.93438 -0.0816571 7.68659 -0.327371 5.42566 0.63428C4.3668 1.08489 3.30135 1.55911 2.19387 1.8455C1.11267 2.12664 0.785566 2.83615 0.696232 3.78467C0.654193 4.22739 0.697541 4.67662 0.690972 5.12329C0.60558 11.9639 0.54773 18.8059 0.413729 25.6465ZM1.39774 31.5726C1.68414 25.7397 1.89697 19.9014 2.03229 14.0619C2.09929 11.2006 1.92587 8.33274 1.86544 5.4675C1.82603 3.60463 2.12158 3.26959 3.76111 2.50237C8.57331 0.251948 12.8902 1.349 16.9037 4.39817C18.0466 5.26786 19.1844 6.21628 20.0711 7.33033C21.1339 8.66376 21.0052 9.88296 19.6639 10.9628C18.023 12.2831 16.256 13.48 14.4207 14.5126C13.0453 15.2864 11.4688 15.6975 10.0027 16.3176C9.76095 16.42 9.62432 16.7708 9.43908 17.0073C9.7465 17.2227 10.0289 17.5643 10.3652 17.63C11.5305 17.8586 12.7221 17.944 13.8861 18.1686C16.9747 18.7624 19.3091 20.5675 21.1313 23.0176C22.6421 25.0473 22.3938 27.4174 20.7608 29.3801C18.0729 32.6105 14.8175 34.8675 10.5689 35.4574C9.76227 35.569 8.93853 35.565 7.80872 35.6347C6.92852 35.5375 5.7383 35.4666 4.57039 35.2656C2.23589 34.8649 1.27951 34.003 1.39774 31.5726Z" fill="#251C1C"/>
<path d="M6.09827 10.2131C6.0628 10.2144 6.02732 10.2157 5.99185 10.2183C5.99185 10.7753 5.99845 11.3323 5.99057 11.8893C5.97349 13.2136 6.19549 13.6235 7.51842 13.7273C10.6306 13.9703 13.4762 13.232 15.8146 11.0302C16.4702 10.4127 16.616 9.63633 16.1286 8.90984C15.4941 7.96264 14.786 7.04832 14.0017 6.22067C12.2807 4.40378 9.78329 3.93479 7.45536 4.88462C7.2583 4.96476 7.01789 5.06852 6.83134 5.02253C5.83291 4.78081 5.75935 5.42325 5.79614 6.10508C5.87233 7.47661 5.99449 8.84414 6.09827 10.2131ZM9.07129 5.78704C11.5937 5.47963 14.1751 6.98131 15.0369 9.33026C15.1407 9.61403 14.9857 10.1776 14.7505 10.3707C12.8627 11.9236 10.6044 12.4701 8.22128 12.4885C7.90204 12.4911 7.37921 11.9012 7.29776 11.5137C7.14668 10.8017 7.25439 10.0357 7.25439 9.29216C7.23731 9.29216 7.21887 9.29216 7.20179 9.29216C7.20179 8.84549 7.21368 8.40005 7.19923 7.95469C7.15062 6.46755 7.57627 5.96965 9.07129 5.78704Z" fill="#251C1C"/>
<path d="M7.29115 25.0277C7.31479 25.7699 7.29512 26.5136 7.29512 27.2559C7.29907 27.2559 7.30427 27.2559 7.30821 27.2559C7.30821 28.1124 7.211 28.9847 7.34631 29.8189C7.41988 30.2722 7.87842 31.017 8.17926 31.0249C10.8593 31.0972 13.5182 30.87 15.5072 28.7614C16.9944 27.1836 16.863 25.276 15.2655 23.7021C14.7111 23.1556 14.091 22.6723 13.4788 22.1875C12.2899 21.2482 10.9893 21.1023 9.6007 21.6974C8.13326 22.3241 7.23728 23.3395 7.29115 25.0277ZM8.69949 24.9765C9.06997 22.7878 11.3401 21.9287 13.0571 23.3265C13.6312 23.7942 14.208 24.275 14.7019 24.8255C15.657 25.8883 15.5637 27.1744 14.4694 28.0638C12.9796 29.2724 11.1549 29.4958 9.33404 29.6206C9.10807 29.6351 8.70866 29.1555 8.63246 28.8455C8.51423 28.3554 8.60096 27.8141 8.60096 27.2939C8.54447 27.2899 8.48666 27.2847 8.42886 27.2808C8.51688 26.5122 8.56944 25.7385 8.69949 24.9765Z" fill="#251C1C"/>
</svg>
