<svg width="43" height="38" viewBox="0 0 43 38" fill="none" xmlns="http://www.w3.org/2000/svg">
<path d="M42.2835 19.1273C42.2162 18.5702 41.8676 18.2332 41.4666 18.1239C41.5399 16.1923 41.6147 14.2592 41.688 12.3276L41.899 6.81219C41.9349 5.87521 41.9708 4.93824 42.0067 4.00126C42.0411 3.10863 42.2252 2.05194 41.5324 1.34552C40.2921 0.0804536 38.2693 0.915455 37.1457 1.8613C35.9203 2.89286 34.9763 4.32935 34.0277 5.60181C31.7475 8.65953 29.7217 11.899 27.9623 15.276C27.491 16.1805 28.3737 17.0081 29.1367 16.9046C29.219 17.0081 29.3163 17.0967 29.424 17.1588C29.9881 17.4839 30.5641 17.2371 30.9247 16.7701C33.0986 13.9518 35.2725 11.1335 37.4464 8.31667C37.5586 14.9834 37.6693 21.6501 37.7816 28.3168C37.8205 30.6223 37.8594 32.9263 37.8968 35.2318C37.9177 36.5072 39.7565 36.6166 40.0497 35.554C40.1365 35.5274 40.2203 35.486 40.3011 35.4298C42.4885 33.8825 42.7967 31.2193 42.8236 28.7483C42.8551 25.5339 42.671 22.3196 42.2835 19.1273Z" fill="#39B100"/>
<path d="M21.0684 4.85874C18.9778 2.70201 16.0064 1.61641 13.0398 1.36391C10.1286 1.11623 6.70774 1.51669 4.50479 3.59301C2.27253 5.69827 1.54797 9.04353 0.953679 11.9111C0.247041 15.3255 -0.0737072 18.822 0.0142154 22.3056C0.0956253 25.49 0.286118 29.025 1.72707 31.9345C2.96776 34.4386 5.3954 36.2061 8.11775 36.8575C10.985 37.5442 14.0167 36.9298 16.503 35.3987C19.4337 33.591 21.425 30.6703 22.3938 27.4248C22.6103 26.701 22.936 25.8052 22.8595 25.0413C22.7829 24.2741 22.1675 24.0055 21.4722 23.9316C19.3849 23.7096 17.2861 23.5649 15.1939 23.3815C14.9643 23.3606 14.6517 23.5777 14.6191 23.8142C14.3342 25.8792 13.7806 29.1441 11.3123 29.7102C9.88598 30.0383 8.42874 29.1521 7.63255 28.0263C6.72564 26.7429 6.47001 25.1201 6.37069 23.5938C6.14926 20.1488 6.52049 16.6637 7.41762 13.3296C7.85072 11.723 8.37338 10.0921 9.10932 8.59321C9.6564 7.47866 10.3956 6.3046 11.5239 5.6854C12.9796 4.88769 14.5019 5.68219 15.2721 7.00099C16.2229 8.6302 15.9136 10.6583 15.6807 12.4322C15.6237 12.8697 16.0047 13.0482 16.3516 12.9758C16.4378 13.0321 16.5453 13.0675 16.6772 13.0659L23.1688 13.0466C23.4016 13.0466 23.7077 12.8665 23.7436 12.614C24.149 9.75601 23.076 6.92862 21.0684 4.85874ZM12.9388 4.18004C9.42357 3.98865 7.79536 8.32623 6.8966 10.9542C5.59241 14.7723 4.99324 18.8429 5.14304 22.8685C5.21305 24.7228 5.42308 26.6753 6.4 28.3045C7.22224 29.6748 8.64529 30.7443 10.2735 30.9277C13.8816 31.3329 15.2248 27.4762 15.6986 24.6022C17.1591 24.7309 18.618 24.8579 20.0785 24.9866C20.466 25.0204 20.8535 25.0525 21.241 25.0879C21.6529 25.1265 21.7034 25.1297 21.6253 25.5672C21.5015 26.2491 21.3143 26.9246 21.0961 27.584C20.2397 30.1573 18.6506 32.5247 16.3743 34.0751C14.2772 35.5033 11.6786 36.272 9.13212 35.8619C6.71913 35.4727 4.43314 34.1362 3.15013 32.0486C1.62125 29.5622 1.40795 26.373 1.25816 23.5375C1.09371 20.4239 1.24676 17.2877 1.74173 14.2094C1.97782 12.7346 2.28881 11.2726 2.67306 9.82838C3.00684 8.57069 3.39435 7.30979 4.03261 6.16468C4.66597 5.02922 5.5338 4.08836 6.7061 3.48204C7.92074 2.8548 9.32099 2.60712 10.6773 2.52027C13.6813 2.32728 16.884 2.96416 19.2872 4.84266C21.4038 6.4976 22.8464 9.1722 22.6429 11.8709C20.7444 11.8757 18.8443 11.8822 16.9458 11.887C17.1542 10.1677 17.2584 8.39217 16.5013 6.78387C15.8468 5.3943 14.528 4.26689 12.9388 4.18004Z" fill="#251C1C"/>
<path d="M42.9749 29.5629C42.7475 25.1071 42.4333 20.6557 42.2837 16.1955C42.1131 11.116 42.1146 6.02621 42.4917 0.955613C42.5051 0.77679 42.3795 0.569887 42.2209 0.488604C40.6484 -0.319795 38.7872 -0.0656005 37.2985 0.815214C35.7006 1.75958 34.6233 3.33943 33.6478 4.86164C31.2555 8.59624 28.8886 12.3441 26.5082 16.0861C26.366 16.3093 26.4453 16.5531 26.5934 16.7423C26.8657 17.0866 27.1365 17.4325 27.4089 17.7768C27.7051 18.1522 28.1584 17.9098 28.2796 17.5463C30.455 17.9719 32.4105 16.3211 33.5596 14.6215C34.6069 13.0727 35.2622 11.1367 36.6911 9.88938C36.8841 14.0585 37.0022 18.2305 37.0397 22.4041C37.0606 24.6253 37.0576 26.848 37.0337 29.0693C37.0217 30.2161 37.0037 31.3629 36.9798 32.5098C36.9618 33.3699 36.7688 34.4192 37.3853 35.1286C38.5134 36.4291 40.5392 35.8483 41.5925 34.7813C42.9644 33.3921 43.0692 31.394 42.9749 29.5629ZM41.8109 31.9216C41.5775 33.2605 40.3297 35.3503 38.6271 34.697C37.7324 34.3542 38.0645 33.0403 38.0795 32.2925C38.1004 31.2536 38.1169 30.2146 38.1289 29.1757C38.1513 27.0978 38.1558 25.0184 38.1393 22.9405C38.1034 18.2453 37.9688 13.5516 37.7384 8.86226C37.7189 8.4588 37.2865 8.17948 36.914 8.39525C35.0931 9.44602 34.188 11.3451 33.202 13.0964C32.2429 14.8004 30.4535 17.1073 28.1794 16.4039C28.0058 16.3507 27.8592 16.3802 27.7455 16.4556C27.7126 16.4127 27.6782 16.3714 27.6452 16.3285C29.7414 13.0328 31.8375 9.73716 33.9351 6.44002C34.8642 4.9784 35.7544 3.41037 37.1055 2.27979C38.2545 1.31769 39.9228 0.725064 41.3725 1.29109C40.792 9.47558 41.1825 17.6822 41.6613 25.8608C41.7241 26.9337 41.79 28.0067 41.8513 29.0796C41.9067 30.021 41.974 30.9876 41.8109 31.9216Z" fill="#251C1C"/>
</svg>
