<svg width="33" height="40" viewBox="0 0 33 40" fill="none" xmlns="http://www.w3.org/2000/svg">
<path d="M2.90875 6.3808C2.668 6.11566 2.40822 5.82147 2.09647 5.50672C2.54851 5.4058 2.99705 5.32198 3.44389 5.245C3.61189 5.10987 3.80587 5.01579 4.01024 4.98842C4.23193 4.69591 4.59563 4.5146 4.99571 4.48039C5.74564 4.41538 6.4973 4.35036 7.24724 4.28536C7.47239 4.26654 7.68717 4.33154 7.87075 4.44957C8.32452 4.14851 8.97402 4.09551 9.44684 4.52144L9.63391 4.69078C9.65815 4.69078 9.68239 4.68907 9.70663 4.68736C10.0011 4.16735 10.6904 3.84063 11.2758 4.08866C11.6551 3.40272 12.8155 3.14441 13.4407 3.98601C13.5775 4.16904 13.7161 4.3521 13.8547 4.53171C14.0954 4.51803 14.3344 4.50434 14.5734 4.48895C14.9631 4.11604 15.5572 3.97916 16.049 4.36746C16.4162 4.32983 16.7834 4.29736 17.1488 4.26656C17.5022 4.05274 17.9421 3.98604 18.311 4.18789C18.5673 4.1742 18.8253 4.16219 19.0816 4.15364C19.4592 3.94666 19.9355 3.89879 20.3304 4.13142C20.7634 4.13142 21.1981 4.13996 21.6328 4.15878C22 3.9518 22.4624 3.90903 22.859 4.15707C23.0721 3.37876 24.2602 3.03326 24.9253 3.63366C25.0309 3.72946 25.1366 3.82523 25.2422 3.91932C25.7428 3.71234 26.3575 3.79788 26.7057 4.39999C27.0763 5.03803 27.4469 5.67606 27.8176 6.31411C28.2661 7.08557 27.7691 7.83823 27.0902 8.03837C27.2184 8.25561 27.35 8.47282 27.485 8.68664C27.9059 9.35376 27.5387 10.0414 26.9655 10.3322C26.9655 10.3852 26.9655 10.4383 26.9655 10.4896C26.9741 10.5033 26.9828 10.5169 26.9914 10.5306C27.2685 10.9737 27.2027 11.4219 26.962 11.7571C26.962 12.2207 26.9655 12.686 26.9724 13.1495C26.9741 13.2504 26.9776 13.3497 26.981 13.4506C27.5214 14.3674 28.0618 15.2826 28.6022 16.1995C29.2032 17.219 28.0012 18.3582 27.0573 17.9135C26.988 18.0725 26.891 18.2076 26.7645 18.3171C26.5065 18.9877 25.6647 19.4512 25.0395 19.039C24.8906 19.896 23.8012 20.4741 23.0063 19.7198L22.2512 19.0031C22.2096 19.0031 22.168 19.0013 22.1264 19.0013C21.8025 19.5521 21.108 19.8909 20.4984 19.4495C20.2386 19.2614 19.984 19.0663 19.7329 18.8713C19.719 18.8696 19.7051 18.8696 19.6913 18.8679C19.7086 19.8019 18.2867 20.2826 17.5784 19.636C17.5004 19.5658 17.4259 19.4923 17.348 19.4221C16.9947 20.0619 16.0733 20.3424 15.4325 19.7283C15.2749 19.5778 15.1224 19.4204 14.9666 19.2682C14.6392 19.7301 14.0555 19.9712 13.4597 19.559C13.0978 19.3092 12.7549 19.0407 12.4275 18.7585C12.0881 18.9244 11.681 18.9432 11.3242 18.714C11.2757 18.6832 11.229 18.6507 11.1805 18.6182C10.8912 18.9996 10.3457 19.2083 9.83822 19.1211C9.61826 19.0834 9.40529 19.0287 9.20092 18.9569C8.99655 19.1416 8.72288 19.2648 8.3938 19.2887L4.3497 19.5813C3.02129 19.677 2.87758 17.9819 3.73836 17.3507C5.95525 15.7205 8.17389 14.092 10.3908 12.4619C9.84869 12.0513 9.30652 11.6425 8.76269 11.232C8.37473 11.4886 7.84996 11.5775 7.4239 11.3654C6.10935 10.7103 5.06851 9.77628 4.19561 8.61309C4.01029 8.36848 3.98253 8.05888 4.057 7.7698C3.79548 7.53203 3.53048 7.29766 3.26029 7.06845C3.03168 6.87516 2.92607 6.63225 2.90875 6.3808Z" fill="#39B100"/>
<path d="M25.0065 19.7078C23.9137 19.7386 22.8156 19.742 21.7262 19.6701C18.7369 19.4768 15.7528 19.2117 12.7634 19.0287C11.8507 18.9739 10.9275 19.1022 10.0079 19.1313C7.18652 19.2202 4.36525 19.3058 1.54391 19.3844C1.37764 19.3896 1.09875 19.3708 1.05891 19.2818C0.922089 18.9722 0.726398 18.5788 0.819923 18.3051C0.909985 18.0399 1.31704 17.8655 1.60454 17.6807C3.43694 16.5039 5.26407 15.3219 7.11379 14.1724C7.95205 13.6506 8.71759 13.1016 9.03973 11.9264C8.35561 11.4235 7.69227 10.8984 6.9943 10.4262C4.95233 9.04924 2.86885 7.7321 0.858065 6.31233C-0.181103 5.5785 -0.139606 5.45193 0.265667 4.40336C2.24182 4.2973 4.11926 4.19808 5.99843 4.09716C6.28593 4.08176 6.57343 4.05952 6.86093 4.04926C12.3893 3.85083 17.9159 3.61648 23.4443 3.48305C24.8697 3.44884 25.7427 3.10846 26.3281 1.66645C27.1438 -0.341747 30.4951 -0.564157 31.8408 1.15838C32.7743 2.35406 32.6375 4.28187 31.3299 5.47755C30.6146 6.13441 30.36 6.81864 30.3306 7.70642C30.3029 8.55828 30.1695 9.40847 30.1608 10.2603C30.0656 19.0851 29.9859 27.9099 29.9045 36.7347C29.8993 37.359 29.9772 37.992 29.9097 38.6095C29.804 39.5572 29.3624 39.9472 28.4895 40.0173C27.3499 40.1097 26.8649 39.7863 26.7852 38.6214C26.6588 36.8065 26.5757 34.9831 26.6121 33.1665C26.69 29.2972 26.8701 25.4279 26.9809 21.5586C27.0329 19.7625 26.8718 19.6565 25.0065 19.7078ZM28.3648 37.6926C29.7123 27.4566 28.8393 17.1641 29.203 6.90076C29.2134 6.62878 28.9294 6.34484 28.4358 6.05917C28.3319 6.62879 28.157 7.19498 28.1344 7.76631C28.0652 9.52648 28.0392 11.2901 28.0253 13.0502C27.9665 20.2722 27.9179 27.4943 27.8642 34.7163C27.8556 35.7221 27.8764 36.7227 28.3648 37.6926ZM29.1701 4.86349C30.5037 4.82586 31.1948 4.05094 31.1411 2.6517C31.103 1.69549 30.5072 1.04722 29.7122 1.09854C28.5102 1.17722 27.1888 2.14198 27.1957 2.93739C27.2027 3.92952 28.1881 4.88915 29.1701 4.86349ZM27.1732 17.0718C27.0763 15.7666 26.9931 14.458 26.9741 13.1495C26.9446 11.1549 26.9897 9.15871 26.9706 7.16419C26.962 6.38246 26.8632 5.60242 26.8095 4.87714C23.1326 3.96884 19.5717 4.00647 16.0161 4.37082C11.5217 4.83097 6.94584 4.42559 2.09639 5.50666C2.87403 6.29352 3.333 6.95039 3.95823 7.35237C5.98288 8.65753 8.05423 9.89425 10.1412 11.1002C10.6937 11.4201 11.3969 11.5518 11.3207 12.3558C11.2583 13.0246 10.8132 13.3735 10.1845 13.7037C8.45951 14.6086 6.80383 15.6417 5.14116 16.6578C4.66661 16.9486 4.26476 17.3557 3.6274 17.874C5.64685 18.5326 7.46715 18.3752 9.27703 18.3461C10.5985 18.3256 11.9252 18.2384 13.2397 18.3256C16.0593 18.5104 18.8703 18.8644 21.6916 18.9927C23.1118 19.0577 24.5546 18.8251 25.9747 18.6404C26.8321 18.5309 27.2391 17.9698 27.1732 17.0718Z" fill="#251C1C"/>
</svg>
