<svg width="250" height="163" viewBox="0 0 250 163" fill="none" xmlns="http://www.w3.org/2000/svg">
    <path d="M212.758 79.5008C210.749 79.5908 209.33 81.0573 209.216 83.0427C209.152 84.1619 209.064 85.2811 209.059 86.4025C209.057 86.9599 209.051 87.5238 209.072 88.0813C209.1 88.8038 209.329 89.6293 209.465 90.1203C209.48 90.116 209.497 90.1117 209.512 90.1074C209.718 90.9414 210.245 91.649 211.161 92.0177C212.385 92.5109 214.22 92.1721 214.816 90.8192C215.095 90.1889 215.431 89.6507 215.573 88.9625C215.7 88.3557 215.772 87.7275 215.865 87.1143C216.068 85.7635 216.176 84.4021 216.302 83.0427C216.469 81.1924 214.546 79.4193 212.758 79.5008Z" fill="#EF4036" />
    <path d="M244.304 32.8228C244.066 30.7731 244.061 28.3074 242.447 26.8044C240.802 25.2736 238.062 25.4859 236.896 27.5206C235.98 29.1157 236.274 30.7774 236.448 32.4926C236.373 32.662 236.311 32.8464 236.265 33.0458C235.215 37.8206 235.492 42.619 236.735 47.3359C237.653 50.8157 242.916 50.8522 243.819 47.3359C244.617 44.2206 244.762 40.6165 244.668 37.4047C244.621 35.8738 244.482 34.3408 244.304 32.8228Z" fill="#EF4036" />
    <path d="M2.39841 147.731C2.42843 147.846 2.46267 147.96 2.49912 148.072C2.49484 148.082 2.49064 148.091 2.48635 148.102C2.03181 149.109 2.11332 150.254 3.0567 150.962C3.58414 151.356 4.36227 151.53 5.03765 151.363C5.33567 151.875 5.79239 152.295 6.30482 152.503C6.82368 152.711 7.31694 152.75 7.77362 152.655C7.93228 153.056 8.20016 153.421 8.6011 153.721C9.57878 154.452 11.2405 154.551 12.0982 153.513C12.2161 153.372 12.334 153.232 12.4541 153.091C12.5549 153.112 12.6578 153.131 12.7586 153.151C12.8615 153.258 12.9729 153.361 13.0994 153.455C14.0535 154.169 15.3656 154.238 16.3475 153.582C18.8497 153.785 21.3561 153.951 23.8668 154.09C24.0984 156.466 27.5502 157.887 29.3727 155.972C29.8637 155.458 30.3546 154.943 30.8478 154.429C31.1694 154.444 31.4889 154.456 31.8105 154.472C32.0978 154.525 32.3937 154.54 32.6918 154.51C34.3148 154.581 35.94 154.652 37.563 154.727C38.0433 154.748 38.5258 154.761 39.0061 154.77C39.214 154.997 39.4648 155.203 39.7586 155.374C41.1736 156.202 42.7237 155.805 43.7808 154.75C44.1495 154.746 44.5184 154.744 44.8829 154.744C45.003 154.48 45.1037 154.227 45.1981 153.985C45.7727 153.828 46.3302 153.535 46.8404 153.11C50.4317 150.132 53.0175 146.255 54.7198 141.94C54.8742 141.547 54.9062 141.112 54.8505 140.672C55.2429 140.093 55.646 139.5 56.0705 138.882C55.0071 138.736 54.3359 138.601 53.7891 138.533C53.5876 138.333 53.3689 138.166 53.1352 138.044C51.8317 137.356 50.3074 137.478 49.171 138.395C48.8323 138.271 48.474 138.198 48.116 138.183C47.9638 137.456 47.563 136.781 46.9476 136.322C45.629 135.338 44.0016 135.505 42.7795 136.571C42.6573 136.678 42.5395 136.787 42.4173 136.892C41.1244 136.189 39.5483 136.354 38.4055 137.424C38.0346 137.771 37.6682 138.121 37.2994 138.468C37.2329 138.385 37.1599 138.303 37.0827 138.226C36.0707 137.214 34.2933 137.045 33.1419 137.917C33.0326 137.801 32.9147 137.692 32.7818 137.594C31.6776 136.768 29.9752 136.74 28.9868 137.819C28.916 137.896 28.8453 137.973 28.7724 138.05C27.8955 136.74 25.9616 136.138 24.5594 137.542L24.3986 137.703C24.0363 137.654 23.6739 137.606 23.3115 137.553C22.0187 137.356 20.728 137.175 19.4416 137.023C19.2979 136.824 19.1285 136.65 18.942 136.509C17.9085 135.737 16.5084 135.793 15.5521 136.684C13.616 136.584 11.6821 136.603 9.74389 136.798C9.08996 136.541 8.28598 136.537 7.69636 136.922C7.16249 136.172 6.04331 135.814 5.30147 136.665C4.83407 137.201 4.3988 137.756 3.98928 138.327C3.69126 138.595 3.45541 138.934 3.29247 139.364C2.18828 141.116 1.34351 143.009 0.764617 145.046C0.363678 146.431 1.27064 147.473 2.39841 147.731Z" fill="#EF4036" />
    <path d="M55.2924 150.592L55.3395 150.611C54.8271 151.559 54.7584 152.674 55.3309 153.6C55.198 153.89 55.065 154.177 54.9385 154.473C55.5432 154.537 55.8969 154.602 56.2336 154.608C56.4222 155.333 56.8425 156.004 57.3914 156.413C58.6821 157.378 60.3286 157.247 61.525 156.18C61.6472 156.31 61.7759 156.43 61.9153 156.536C63.1653 157.47 64.9663 157.477 66.1391 156.379C66.1777 156.413 66.2163 156.448 66.2549 156.478C67.625 157.537 69.5009 157.389 70.7616 156.21C71.139 155.856 71.51 155.498 71.881 155.14C73.2918 155.787 74.7111 155.468 75.7574 154.473C77.3912 154.469 79.0227 154.467 80.6565 154.464C81.5999 155.078 82.8585 155.2 83.9863 154.46C84.9576 154.46 85.9288 154.462 86.8979 154.464C87.3203 154.554 87.7619 154.559 88.1971 154.466C88.3129 154.466 88.4308 154.466 88.5466 154.466C89.3613 156.278 92.0349 157.166 93.6322 155.493C93.7866 155.331 93.941 155.168 94.0954 155.007C95.221 155.721 96.9149 155.738 97.8519 154.647C97.9977 154.477 98.1412 154.306 98.287 154.134C98.5571 153.988 98.8016 153.795 99.0267 153.549C100.266 153.847 101.366 153.283 102.153 152.235C103.915 149.887 105.043 147.012 106.355 144.389C106.733 143.635 106.842 142.796 106.655 142.031C106.938 141.585 107.226 141.133 107.521 140.665C106.928 140.616 106.336 140.571 105.744 140.526C105.682 140.472 105.62 140.419 105.553 140.369C104.841 139.838 103.808 139.589 102.89 139.778C102.037 139.377 101.021 139.332 100.144 139.857C100.092 139.797 100.041 139.737 99.9853 139.681C98.7439 138.44 96.8484 138.543 95.5835 139.649C94.4471 138.519 92.4703 138.157 91.0102 139.486C90.933 139.557 90.8558 139.628 90.7786 139.7C90.5921 139.694 90.4078 139.688 90.2212 139.679C89.2585 139.051 88 138.944 86.943 139.565C86.7864 139.561 86.6277 139.555 86.4712 139.55C85.8087 138.881 84.6251 138.547 83.8018 139.154C83.6668 139.254 83.5338 139.357 83.4009 139.46C82.1573 139.426 80.918 139.394 79.6787 139.362C78.9026 139.076 77.9913 139.029 77.213 139.299C76.8571 139.291 76.5013 139.282 76.1454 139.274C75.9224 138.727 75.5664 138.238 75.1226 137.906C73.8254 136.937 72.1103 137.042 70.9182 138.157C70.7853 138.281 70.6544 138.405 70.5215 138.528C69.6553 137.912 68.6476 137.895 67.7214 138.268C67.299 137.162 65.8068 136.435 64.8977 137.567C63.2468 139.623 61.6472 141.718 60.0949 143.849C59.1087 145.204 58.1997 146.647 57.2306 148.032C56.5124 148.841 55.8091 149.677 55.2924 150.592Z" fill="#EF4036" />
    <path d="M175.975 143.392C175.758 142.993 175.471 142.641 175.132 142.388C173.976 141.524 171.995 141.402 170.983 142.635C170.859 142.787 170.73 142.935 170.606 143.085C169.502 142.26 167.862 142.084 166.65 143.207C166.142 143.169 165.636 143.124 165.132 143.066C164.931 143.042 164.736 143.027 164.545 143.017C164.51 143.006 164.478 142.993 164.444 142.984C164.369 142.819 164.279 142.663 164.17 142.521C162.516 140.379 160.087 141.842 158.709 143.394C156.464 145.924 154.504 148.801 152.673 151.638C151.981 152.71 152.212 154.249 153.044 155.178C152.969 155.338 152.892 155.493 152.819 155.656C153.406 155.819 153.747 155.982 154.092 155.999C154.183 156.003 154.27 156.007 154.36 156.012C154.866 156.181 155.417 156.239 155.923 156.14C156.101 156.515 156.376 156.861 156.766 157.152C157.954 158.04 159.502 157.933 160.597 156.925L161.119 156.445C161.252 156.595 161.399 156.734 161.567 156.861C162.624 157.652 163.779 157.643 164.834 157.105C165.928 158.214 167.786 158.537 169.317 157.187C171.706 155.081 173.972 152.193 174.658 149.026C174.723 148.728 174.744 148.441 174.731 148.167C175.128 147.594 175.529 147.026 175.943 146.466C176.386 145.868 176.476 145.103 176.328 144.374C176.532 144.065 176.74 143.746 176.965 143.411C176.635 143.402 176.305 143.396 175.975 143.392Z" fill="#EF4036" />
    <path d="M149.138 142.466C148.705 142.449 148.273 142.432 147.84 142.415C147.401 142.012 146.871 141.707 146.301 141.549C146.112 141.296 145.892 141.068 145.645 140.877C144.346 139.874 142.146 139.808 140.999 141.154C140.784 141.407 140.566 141.656 140.347 141.907C139.311 141.304 137.999 141.27 136.955 141.849C135.688 140.661 133.827 140.751 132.53 141.804C132.512 141.787 132.5 141.767 132.482 141.75C131.32 140.588 129.219 140.466 128.012 141.643C127.899 141.634 127.783 141.628 127.669 141.619C127.082 141.403 126.451 141.358 125.851 141.484C125.802 141.48 125.755 141.476 125.705 141.474C124.603 140.545 123.145 140.545 121.959 141.223C121.713 141.225 121.469 141.233 121.231 141.248C120.236 140.612 118.778 140.429 117.819 141.139C117.815 141.143 117.809 141.148 117.804 141.15C117.045 140.479 115.883 140.528 115.154 141.227C111.915 144.336 109.042 147.713 106.151 151.128C105.918 151.392 105.688 151.66 105.472 151.932C104.402 153.197 104.23 155.033 105.472 156.274C106.76 157.563 108.503 157.301 109.814 156.274C110.478 155.753 111.121 155.195 111.756 154.627C113.415 154.638 115.075 154.642 116.734 154.679C117.834 155.502 119.239 155.551 120.371 154.87C121.582 155.886 123.475 156.145 124.725 154.9C124.745 154.9 124.764 154.9 124.781 154.902C125.467 155.187 126.205 155.206 126.893 155.002C127.899 156.158 129.697 156.658 131.19 155.826C131.593 155.601 131.987 155.365 132.377 155.123C132.716 155.133 133.055 155.142 133.394 155.153C134.408 155.663 135.469 155.674 136.43 155.264C137.545 156.017 139.082 156.233 140.257 155.464C140.31 155.429 140.362 155.391 140.416 155.354C141.533 155.328 142.358 154.953 143.091 153.864C143.128 153.81 143.166 153.759 143.203 153.705C143.244 153.686 143.284 153.669 143.325 153.647C145.34 152.593 146.681 150.813 147.272 148.731C147.731 148.079 148.162 147.404 148.561 146.703C148.576 146.675 148.591 146.647 148.606 146.619C149.399 145.519 150.154 144.353 150.285 142.826C149.804 142.67 149.476 142.481 149.138 142.466Z" fill="#EF4036" />
    <path d="M3.07817 152.578C5.94262 153.575 8.81986 154.846 11.7829 155.185C18.5603 155.959 25.387 156.396 32.2051 156.692C45.4103 157.26 58.6113 156.388 71.8144 156.287C85.5792 156.18 99.3463 156.195 113.111 156.33C121.692 156.413 130.268 156.81 138.846 157.091C143.739 157.25 148.632 157.417 153.52 157.659C159.137 157.936 164.751 158.332 170.368 158.62C177.838 158.999 185.31 159.31 192.78 159.677C200.426 160.05 208.073 160.429 215.717 160.854C220.324 161.111 224.93 161.437 229.533 161.782C232.198 161.981 234.855 162.279 237.05 162.49C239.471 162.335 241.405 162.164 243.341 162.104C245.768 162.026 247.23 160.682 248.21 158.622C249.884 155.093 250.24 151.362 249.863 147.533C249.732 146.197 248.973 145.305 247.608 145.093C245.243 144.722 242.88 144.259 240.498 144.089C234.694 143.68 228.879 143.384 223.067 143.099C217.625 142.833 212.179 142.593 206.733 142.425C201.47 142.265 196.202 142.254 190.938 142.102C181.429 141.825 171.92 141.508 162.414 141.167C159.845 141.075 157.255 140.991 154.732 140.569C153.816 140.414 153.085 140.146 152.139 140.498C151.395 140.772 150.505 140.745 149.689 140.708C142.403 140.38 135.12 140.048 127.836 139.664C117.693 139.13 107.554 138.438 97.4038 138.019C84.7646 137.498 72.1166 137.149 59.471 136.808C53.0131 136.632 46.5424 136.804 40.091 136.51C34.9538 136.276 29.8402 135.541 24.7095 135.093C21.4934 134.812 18.2496 134.78 15.0463 134.4C10.9576 133.916 7.14978 134.898 3.45128 136.366C2.56364 136.718 1.77031 137.769 1.32649 138.686C-0.262255 141.975 -0.176435 145.511 0.314554 149.014C0.537536 150.624 1.48084 152.022 3.07817 152.578ZM182.703 143.673C186.946 143.804 191.189 143.933 195.432 144.061C200.031 144.203 204.632 144.321 209.229 144.488C215.134 144.7 221.045 144.823 226.937 145.226C232.633 145.616 238.315 146.255 243.991 146.902C246.692 147.211 247.415 148.204 247.404 150.965C247.4 151.885 247.43 152.824 247.256 153.718C246.433 157.936 244.001 159.788 238.834 159.975C235.976 160.078 233.103 160.009 230.245 159.867C217.711 159.241 205.179 158.534 192.645 157.908C186.376 157.597 180.1 157.404 173.828 157.138C173.215 157.112 172.606 156.945 171.609 156.778C172.551 155.011 173.194 153.377 174.195 152.007C176.035 149.486 178.145 147.162 180.023 144.666C180.775 143.667 181.678 143.641 182.703 143.673ZM165.134 143.067C168.829 143.491 172.591 143.313 176.97 143.41C175.687 145.329 174.798 146.789 173.783 148.159C171.982 150.596 170.081 152.961 168.275 155.397C167.669 156.216 167 156.608 165.96 156.553C162.006 156.34 158.051 156.192 154.097 156C153.752 155.982 153.411 155.819 152.823 155.656C154.406 152.097 156.496 149.04 158.683 146.008C160.33 143.725 162.182 142.728 165.134 143.067ZM151.983 145.234C153.115 143.472 154.412 142.233 157.041 143.082C156.209 146.233 154.075 148.474 152.465 151.002C151.878 151.926 150.962 152.663 150.467 153.624C149.442 155.618 147.956 156.139 145.763 155.41C145.859 155.015 145.857 154.544 146.072 154.211C148.023 151.208 150.045 148.249 151.983 145.234ZM123.683 141.298C132.129 142.095 140.649 142.112 149.138 142.466C149.476 142.481 149.804 142.67 150.276 142.822C150.12 144.655 149.065 145.967 148.123 147.269C146.503 149.509 144.624 151.57 143.085 153.86C142.283 155.05 141.374 155.388 140.096 155.35C132.528 155.12 124.959 154.893 117.391 154.689C114.987 154.623 112.584 154.644 110.18 154.61C109.295 154.597 108.407 154.535 107.206 154.479C109.194 150.687 111.486 147.539 114.209 144.642C116.842 141.844 119.685 140.92 123.683 141.298ZM113.09 141.013C111.128 146.111 106.323 149.091 104.655 154.259C103.919 154.301 103.158 154.346 102.142 154.404C103.935 149.104 107.68 145.412 110.448 140.886C111.344 140.929 112.05 140.963 113.09 141.013ZM107.517 140.667C105.682 143.553 104.142 146.025 102.547 148.463C101.591 149.921 100.433 151.259 99.5778 152.771C98.8445 154.063 97.9525 154.516 96.4731 154.505C88.1649 154.441 79.8567 154.462 71.5485 154.486C66.4714 154.501 61.3942 154.574 56.3171 154.612C55.9548 154.617 55.5925 154.544 54.9385 154.475C57.4621 148.502 61.7803 144.145 65.5581 138.989C79.1793 139.422 93.0664 139.475 107.517 140.667ZM61.6387 139.167C61.3042 139.99 61.1112 140.882 60.631 141.574C58.0109 145.354 55.2751 149.053 52.6787 152.85C51.5381 154.518 50.1681 155.144 47.9404 154.458C48.768 153.182 49.4928 151.937 50.3418 150.783C52.8503 147.376 55.3996 143.997 57.9553 140.622C58.785 139.529 59.589 138.29 61.6387 139.167ZM3.26033 139.432C3.69343 138.197 4.73121 137.704 6.00907 137.406C11.8002 136.06 17.5119 136.669 23.3072 137.55C28.022 138.264 32.8312 138.478 37.6081 138.609C42.7667 138.748 47.936 138.519 53.0989 138.485C53.8107 138.48 54.5247 138.667 56.0663 138.879C54.1216 141.707 52.5843 144.091 50.8927 146.36C49.2975 148.5 47.5116 150.498 45.8757 152.608C45.4469 153.159 45.2624 153.898 44.8787 154.741C42.5009 154.741 40.0246 154.837 37.5589 154.724C29.9968 154.374 22.4239 154.13 14.8897 153.461C11.7315 153.18 8.62695 152.039 5.56309 151.081C3.69991 150.5 2.5722 149.121 2.25488 147.033C1.84966 144.37 2.4027 141.883 3.26033 139.432Z" fill="#251C1C" />
    <path d="M247.011 10.9865C247.88 7.30734 246.709 4.23704 244.756 1.37473C243.463 -0.522763 241.364 -0.434857 240.271 1.50766C239.374 3.09426 238.47 4.85454 238.27 6.6191C237.541 13.0341 236.919 19.4748 236.617 25.9242C236.349 31.6423 236.561 37.3841 236.561 43.1152C236.587 43.1152 236.611 43.1152 236.636 43.1152C236.746 45.4222 236.906 47.7271 236.954 50.0362C237.048 54.6567 236.896 59.2878 237.179 63.8932C237.764 73.4707 238.774 83.0246 239.211 92.6043C239.52 99.4374 239.857 106.251 241.128 112.968C241.636 115.649 242.342 118.363 244.207 120.543C245.451 121.997 246.587 121.993 247.824 120.55C248.952 119.233 249.374 117.694 249.554 115.981C250.532 106.725 249.535 97.512 248.855 88.3097C248.358 81.5924 247.042 74.933 246.639 68.2135C246.051 58.4473 245.834 48.6511 245.697 38.8635C245.605 32.3134 245.854 25.7526 246.09 19.2025C246.188 16.4517 246.383 13.6516 247.011 10.9865ZM238.907 22.4572C239.235 18.0405 239.501 13.6173 239.983 9.2177C240.23 6.97716 240.74 4.72161 242.237 2.8863C244.216 4.01407 244.764 5.03892 244.61 6.66197C244.353 9.39993 244.151 12.1443 243.965 14.8887C243.768 17.8282 243.626 20.7699 243.435 23.7094C243.405 24.1553 243.236 24.5927 243.178 24.8457C241.69 24.91 240.352 24.97 238.898 25.0322C238.898 24.2775 238.838 23.362 238.907 22.4572ZM240.652 28.7479C243.632 34.6548 243.896 44.5774 241.139 47.4848C239.582 46.5242 239.649 44.7897 239.456 43.3703C238.8 38.4754 238.388 33.557 240.652 28.7479ZM246.593 86.6159C247.116 93.0545 247.668 99.4952 247.959 105.947C248.103 109.159 247.751 112.398 247.496 115.616C247.43 116.461 246.883 117.267 246.557 118.093C246.325 118.086 246.092 118.08 245.858 118.076C245.523 117.565 245.013 117.096 244.88 116.538C244.156 113.498 243.465 110.445 242.886 107.375C242.528 105.473 242.318 103.537 242.164 101.607C241.561 94.0686 240.972 86.5259 240.446 78.9809C239.84 70.2375 238.926 61.509 239.064 52.7248C239.072 52.1888 239.119 51.6507 239.139 51.3033C240.631 50.9217 241.958 50.5829 243.399 50.2163C243.433 50.3557 243.575 50.6966 243.594 51.0439C243.871 56.1124 244.066 61.1874 244.421 66.2517C244.64 69.3734 245.112 72.478 245.448 75.5933C245.847 79.2661 246.295 82.9346 246.593 86.6159Z" fill="#251C1C" />
    <path d="M233.032 17.8165C232.82 16.8603 231.962 16.2599 230.908 16.5708C229.981 16.8453 229.606 17.6407 229.958 18.5391C231.343 22.0639 230.455 24.9948 227.721 27.4583C226.894 28.2045 226.806 28.972 227.711 30.2949C228.489 29.8082 229.267 29.4995 229.805 28.9549C231.864 26.858 233.03 24.3044 233.219 21.3671C233.296 20.1878 233.289 18.9593 233.032 17.8165Z" fill="#251C1C" />
    <path d="M201.073 118.972C202.54 120.835 204.176 122.166 206.51 122.378C208.704 122.578 210.921 122.655 213.121 122.584C216.24 122.486 218.626 120.601 221.073 118.959C226.92 115.035 230.239 109.533 231.261 102.58C231.872 98.423 231.607 94.3128 231.008 90.1769C230.271 85.0612 229.503 79.9519 227.299 75.2264C226.101 72.6536 224.968 69.8963 223.142 67.8037C219.625 63.7772 215.067 60.2781 208.354 63.4148C203.886 65.5031 200.878 68.672 198.762 72.8787C195.32 79.7225 194.609 87.1538 194.21 95.0718C194.414 97.426 194.585 100.194 194.9 102.945C195.569 108.811 197.347 114.233 201.073 118.972ZM214.18 66.1421C216.793 66.0392 218.326 66.9311 219.692 68.2882C222.822 71.3993 224.947 75.0999 226.375 79.2551C226.83 80.5715 226.536 81.3799 225.277 81.8923C223.83 82.4819 222.391 83.0929 220.94 83.6718C218.219 84.7546 216.808 83.9892 216.225 81.1311C216.152 80.7709 216.18 80.3443 215.993 80.0591C213.903 76.8538 214.529 73.1188 213.976 69.624C213.802 68.5284 214.098 67.3599 214.18 66.1421ZM212.353 81.7637C214.808 83.7619 214.9 85.8867 212.679 89.0406C211.373 86.5878 211.176 84.2743 212.353 81.7637ZM199.075 78.3846C200.7 72.5464 203.661 67.7394 209.782 65.6425C210.02 65.561 210.314 65.6318 211.135 65.6318C211.264 69.1952 211.395 72.5807 211.497 75.9661C211.51 76.4142 211.553 77.0489 211.296 77.2912C209.484 78.9742 209.218 81.3327 208.438 83.4682C208.38 83.6225 208.193 83.7297 207.955 83.9742C205.668 83.7812 203.307 83.5518 201.148 82.3876C199.283 81.382 198.545 80.2907 199.075 78.3846ZM197.394 85.5908C197.447 85.1663 197.677 84.761 197.936 84.0342C201.29 86.3005 204.862 87.3103 208.809 87.0873C209.175 88.1572 209.418 89.1349 209.836 90.0333C211.137 92.8227 214.158 93.2172 215.254 90.4235C216.487 87.2803 218.738 86.9673 221.349 86.4227C223.358 86.0046 225.273 85.147 227.595 84.3601C227.917 85.9145 228.425 87.737 228.65 89.5959C229.199 94.0769 229.743 98.5323 228.899 103.091C227.458 110.861 222.764 115.957 215.921 119.188C212.87 120.627 209.448 120.492 206.18 119.454C205.597 119.27 205.074 118.806 204.604 118.384C202.096 116.122 200.342 113.425 199.216 110.181C196.42 102.121 196.356 93.9076 197.394 85.5908Z" fill="#251C1C" />
    <path d="M200.224 32.2016C199.656 32.1029 198.903 33.0592 197.735 33.8868C200.569 35.3169 202.823 36.4511 205.164 37.6303C204.896 38.4043 204.741 39.0218 204.48 39.5878C203.202 42.3451 201.875 45.0809 200.608 47.8424C199.302 50.6897 199.587 51.2815 202.527 52.1027C202.79 52.1777 203.061 52.242 203.314 52.3428C205.848 53.3419 205.863 53.3012 206.988 50.9899C208.509 47.866 210.102 44.7786 211.808 41.3888C214.347 42.5874 216.315 43.5693 218.333 44.442C219.034 44.7443 220.228 45.1559 220.535 44.8515C221.075 44.3133 221.319 43.2627 221.315 42.4287C221.281 38.0034 221.131 33.5802 221.023 29.1549C220.957 26.2904 220.94 23.4495 222.304 20.7759C222.846 19.7081 223.101 18.4753 221.652 17.4805C221.058 17.7742 220.34 17.9972 219.786 18.4303C217.539 20.1884 215.348 22.0173 213.129 23.8119C210.271 26.1253 207.454 28.4966 204.519 30.7072C203.309 31.6162 202.021 32.5082 200.224 32.2016ZM219.029 21.7128C219.029 28.2908 219.029 34.6758 219.029 41.108C216.435 41.629 215.026 40.2611 213.689 38.9017C212.955 38.1577 212.385 37.3366 211.157 37.6946C210.001 38.0291 209.653 38.9146 209.445 39.9673C208.719 43.6594 206.57 46.6696 204.846 49.8128C202.975 49.815 202.827 48.7537 203.333 47.5894C204.579 44.7271 205.951 41.9184 207.287 39.0947C207.443 38.7667 207.73 38.5008 207.908 38.1813C208.83 36.5111 208.519 35.6578 206.746 35.0403C206.086 34.8087 205.402 34.6415 204.729 34.4442C204.666 34.2255 204.606 34.0047 204.544 33.786C209.814 30.2676 213.86 25.2784 219.029 21.7128Z" fill="#251C1C" />
    <path d="M216.448 10.8314C217.782 10.6105 218.959 10.2417 218.746 8.20703C213.648 8.68301 209.787 10.5977 207.67 15.1795C207.299 15.9835 207.014 16.9741 207.136 17.8124C207.229 18.447 208.009 19.4333 208.528 19.459C209.581 19.5148 210.138 18.67 209.804 17.5401C209.383 16.1207 210.065 15.0337 210.82 13.9681C212.194 12.0299 214.197 11.2044 216.448 10.8314Z" fill="#251C1C" />
    <path d="M206.513 112.568C208.991 112.473 211.474 112.433 213.942 112.205C215.644 112.049 215.948 111.502 216.075 109.045C212.668 109.223 209.482 109.345 206.305 109.581C205.374 109.652 204.872 110.37 204.975 111.35C205.07 112.25 205.685 112.6 206.513 112.568Z" fill="#251C1C" />
    <path d="M168.172 23.5273C167.696 23.2764 167.184 23.1628 166.633 23.1842C165.913 23.1863 165.239 23.3686 164.617 23.7288C164.388 23.8639 164.182 24.0247 163.987 24.1962C163.676 24.4149 163.417 24.685 163.209 25.0066C162.862 25.3861 162.628 25.83 162.508 26.3403C162.461 26.6876 162.414 27.0349 162.369 27.3823C162.347 27.9226 162.461 28.4264 162.707 28.8938C162.799 29.2261 162.969 29.5156 163.211 29.76C163.488 30.1867 163.854 30.5233 164.311 30.7699C164.624 30.9006 164.935 31.0336 165.248 31.1644C165.943 31.3509 166.637 31.3509 167.334 31.1644C167.411 31.1537 167.48 31.1344 167.551 31.1086C167.784 31.025 168.327 30.8085 168.543 30.6884C168.58 30.6691 168.616 30.6498 168.651 30.6262C169.251 30.2703 169.729 29.7943 170.083 29.194C170.445 28.5701 170.625 27.899 170.627 27.1786C170.58 26.8248 170.533 26.471 170.484 26.1173C170.295 25.4397 169.952 24.8523 169.457 24.3549C169.094 23.9646 168.668 23.6902 168.172 23.5273Z" fill="#EF4036" />
    <path d="M81.913 11.1827C82.3975 9.05795 81.2674 7.2355 79.267 6.52153C76.7671 5.62961 73.787 5.55886 71.1669 5.85259C69.6511 6.02197 68.2103 6.28782 66.8424 6.99536C66.2764 7.2891 65.7317 7.66862 65.23 8.06312C64.6489 8.51981 64.3617 9.07083 63.9243 9.64114C63.3175 10.4344 63.9735 11.6716 64.8397 11.8924C65.365 12.0253 65.8261 12.2505 66.3686 12.3234C66.8874 12.3941 67.3376 12.4305 67.7729 12.4884C68.965 12.6471 70.1571 12.6106 71.3556 12.6492C71.8616 12.6664 72.3654 12.7007 72.8692 12.7543C72.9421 12.7629 72.9894 12.765 73.0172 12.7672C73.0773 12.7779 73.1459 12.7908 73.2316 12.8058C73.4782 12.8508 73.7247 12.8958 73.9691 12.9473C75.0818 13.181 76.154 13.5412 77.2517 13.8285C79.1664 14.3302 81.4541 13.196 81.913 11.1827Z" fill="#EF4036" />
    <path d="M178.968 10.1544C181.8 11.3615 185.14 11.1042 188.176 11.0999C189.504 11.0978 190.833 11.0142 192.16 10.9627C194.154 10.8877 196.09 10.9713 197.919 10.0451C199.456 9.26463 200.211 7.32853 199.994 5.71406C199.756 3.93878 198.547 2.68022 196.881 2.10133C195.327 1.56103 193.554 1.96839 191.952 2.12491C190.503 2.26642 189.051 2.38863 187.606 2.58374C186.183 2.77456 184.761 2.99326 183.339 3.20123C181.837 3.42207 180.291 3.67722 178.968 4.47267C177.062 5.61759 176.59 9.14242 178.968 10.1544Z" fill="#EF4036" />
    <path d="M181.877 25.2183C181.523 24.9438 181.17 24.6715 180.814 24.3971C179.995 23.9211 179.111 23.6831 178.164 23.681C177.441 23.6531 176.766 23.8053 176.14 24.1334C175.488 24.3456 174.926 24.708 174.45 25.2183C173.938 25.6942 173.575 26.2581 173.365 26.9078C173.037 27.5338 172.885 28.2071 172.913 28.9318L173.102 30.3275C173.35 31.2173 173.8 31.9892 174.452 32.6453C174.806 32.9197 175.16 33.192 175.516 33.4664C176.335 33.9424 177.218 34.1804 178.166 34.1825C178.888 34.2104 179.564 34.0582 180.19 33.7302C180.842 33.5179 181.403 33.1555 181.879 32.6453C182.392 32.1693 182.754 31.6054 182.964 30.9558C183.292 30.3297 183.445 29.6564 183.417 28.9318C183.355 28.4665 183.292 28.0012 183.228 27.536C182.979 26.6462 182.529 25.8743 181.877 25.2183Z" fill="#EF4036" />
    <path d="M95.2725 87.2187C95.2554 86.9014 95.2146 86.5884 95.1588 86.2796C95.2574 86.2003 95.3583 86.1231 95.457 86.0438C97.3373 84.5365 97.3158 83.9705 95.4141 82.4011C93.2207 80.5872 90.935 78.8891 88.6816 77.1481C88.5273 76.9702 88.373 76.7901 88.2208 76.61C87.8799 76.2069 87.4061 75.9174 86.8808 75.7352C85.5707 74.6782 84.2842 73.5225 82.524 72.0195C82.5797 72.8064 82.6333 73.5847 82.6869 74.3587C82.3288 74.5324 82.0093 74.7961 81.7756 75.1113C80.7251 76.5306 80.7744 78.218 80.7486 79.9182C80.7272 81.4019 80.7015 82.8877 80.6844 84.3714C80.6672 85.7844 80.6993 87.1994 80.7122 88.6124C80.7186 89.3199 80.7252 90.0253 80.7338 90.7328C80.7381 91.0866 80.7402 91.4404 80.7444 91.792C80.7466 91.9228 80.6822 92.7933 80.7572 92.5489C80.0068 94.9695 82.5689 97.8447 85.101 96.8927C87.2751 96.0737 89.3634 94.7787 91.3724 93.6123C93.6579 92.283 95.4247 89.9803 95.2725 87.2187Z" fill="#EF4036" />
    <path d="M12.9515 13.057C15.4086 13.8631 17.8486 14.1097 20.4257 14.2641C22.9235 14.4141 25.4106 14.5299 27.9127 14.5771C29.5143 14.6071 30.878 13.192 30.878 11.6119C30.878 10.0188 29.5208 8.62949 27.9127 8.64664C25.4106 8.67451 22.9235 8.76884 20.4257 8.89963C17.8528 9.0347 15.4107 9.26411 12.9515 10.051C11.4656 10.527 11.4806 12.5724 12.9515 13.057Z" fill="#EF4036" />
    <path d="M202.743 7.71812C202.893 5.37896 201.905 3.66159 200.333 2.83398C192.715 3.66802 185.593 3.76236 178.194 3.36571C177.713 5.30179 177.287 7.14995 176.789 8.98097C176.191 11.1872 176.397 11.6439 178.773 11.6268C181.708 11.6053 184.643 11.3309 187.576 11.1057C191.688 10.7906 195.794 10.3253 199.911 10.1152C201.933 10.0144 202.619 9.67779 202.743 7.71812ZM198.566 8.08692C197.865 8.24558 197.102 8.10192 196.377 8.18768C192.559 8.64222 188.749 9.19109 184.922 9.57488C183.213 9.74426 181.474 9.60275 179.589 9.60275C179.598 6.01575 180.222 5.39184 183.129 5.64484C183.95 5.71773 184.78 5.72846 185.606 5.70702C189.821 5.60196 194.036 5.47973 198.253 5.36181C199.015 5.34037 199.786 5.33394 199.932 6.32878C200.084 7.36221 199.42 7.89181 198.566 8.08692Z" fill="#251C1C" />
    <path d="M187.906 67.0896C188.204 60.1686 188.552 53.2433 189.148 46.3415C189.675 40.2417 189.877 34.1612 189.017 28.0999C188.695 25.8422 187.93 23.636 187.25 21.4426C186.723 19.7424 185.559 19.1442 183.672 19.2064C180.636 19.3093 177.585 19.0156 174.542 18.8741C167.624 18.5546 160.709 18.04 153.786 17.9585C147.326 17.8814 140.859 18.4238 134.397 18.3981C126.278 18.3659 118.158 17.9886 110.039 17.8406C101.265 17.6798 92.4896 17.4311 83.7182 17.5512C74.7625 17.6756 65.8153 18.2566 56.8596 18.531C51.4115 18.7004 45.955 18.5739 40.507 18.7519C33.4058 18.9834 26.3111 19.3972 19.2121 19.7038C17.454 19.7789 16.2319 20.4156 16.5042 21.3247C16.9287 22.7441 18.2152 22.5704 19.2808 22.4504C20.831 22.2745 22.3531 21.7535 23.9033 21.6656C29.6151 21.344 35.3332 20.9216 41.0472 20.9388C54.2481 20.9731 67.4277 20.4778 80.6179 20.0383C90.6693 19.7038 100.744 20.0833 110.81 20.1884C118.66 20.2698 126.509 20.4993 134.361 20.5164C143.507 20.5336 152.656 20.2527 161.798 20.3749C166.402 20.4392 170.996 21.1189 175.597 21.5027C177.713 21.6785 179.862 21.6549 181.939 22.0301C183.016 22.2252 184.332 22.8491 184.918 23.7046C187.07 26.8392 186.807 30.4305 186.596 34.1891C180.572 33.7581 174.851 33.3486 168.811 32.9176C169.63 31.8349 170.428 31.211 170.621 30.4348C171.018 28.8375 171.082 27.1587 171.298 25.5163C171.481 24.1141 170.801 23.4473 169.467 23.3165C167.634 23.1364 165.801 22.9328 163.964 22.787C162.885 22.7033 161.957 23.3787 161.918 24.2814C161.835 26.1831 161.989 28.1278 162.347 29.9974C162.459 30.572 163.486 31.1102 164.202 31.3996C165.162 31.7877 166.228 31.9164 167.248 32.1586C167.223 32.3516 167.197 32.5446 167.173 32.7354C164.828 32.9391 162.486 32.6668 160.13 32.536C155.656 32.2873 151.402 30.6171 146.816 30.8722C142.868 31.0888 138.883 30.5484 134.912 30.4563C123.645 30.1968 112.373 29.9588 101.104 29.7873C96.8591 29.7208 92.6096 29.9374 88.3644 29.8945C75.1527 29.768 61.9453 29.4893 48.7358 29.44C38.9546 29.4035 29.1734 29.6308 19.3922 29.7423C19.2078 29.7444 18.9762 29.6801 18.8497 29.768C18.4938 30.0124 17.9301 30.3062 17.9129 30.6085C17.8829 31.0716 18.1144 31.7234 18.4682 31.9935C18.8584 32.2894 19.5122 32.3495 20.0461 32.3323C22.5353 32.253 25.0225 32.0386 27.5118 32.0064C39.9752 31.8435 52.4407 31.6505 64.9063 31.614C72.2861 31.5905 79.6638 31.8692 87.0436 31.9507C91.2867 31.9978 95.532 31.8284 99.7708 31.9249C104.475 32.03 109.172 32.3923 113.874 32.521C122.371 32.7525 130.874 32.8297 139.369 33.0999C142.757 33.2071 146.198 33.1663 149.434 34.5492C149.974 34.7808 150.692 34.6157 151.327 34.5986C152.705 34.5621 154.092 34.367 155.458 34.4764C163.917 35.1496 172.373 35.8421 180.82 36.6376C182.881 36.8305 184.905 37.4287 187.064 37.864C186.809 43.4771 186.622 48.7279 186.322 53.9723C185.904 61.2427 185.245 68.5025 184.96 75.7794C184.422 89.6214 184.079 103.472 183.637 117.318C183.595 118.609 183.376 119.893 183.337 121.184C183.307 122.205 183.337 123.332 184.716 123.504C185.91 123.654 186.721 122.668 186.785 121.118C186.796 120.843 186.731 120.564 186.731 120.29C186.747 112.895 186.639 105.496 186.815 98.1055C187.059 87.7647 187.458 77.4239 187.906 67.0896ZM167.986 28.8761C164.56 29.2813 164.33 29.0733 164.751 26.0202C165.838 25.8423 167.118 25.3341 167.915 26.4212C168.318 26.97 167.986 28.0592 167.986 28.8761Z" fill="#251C1C" />
    <path d="M174.043 30.4116C175.604 30.2444 176.738 30.1243 177.857 30.0064C178.048 30.3216 178.269 30.5381 178.316 30.7868C178.496 31.756 178.927 32.3992 180.001 31.9875C181.131 31.5566 181.15 30.7161 180.666 29.732C180.389 29.1702 180.211 28.5592 180.012 28.0317C180.801 27.1291 181.498 26.3315 182.19 25.5382C180.781 24.2689 180.782 24.2689 178.241 25.2187C178.097 25.1158 177.896 25.0451 177.825 24.9057C177.364 23.988 176.697 23.2912 175.651 23.8058C174.639 24.3032 174.78 25.1909 175.136 26.1771C175.34 26.7432 175.141 27.5043 174.98 28.1389C174.81 28.7972 174.469 29.4082 174.043 30.4116Z" fill="#251C1C" />
    <path d="M177.814 45.8966C176.905 44.7131 175.728 44.6316 174.347 44.8846C171.813 45.3477 169.264 45.9288 166.704 46.0103C156.86 46.3233 147.011 46.4583 137.163 46.6599C135.658 46.2118 134.558 46.8636 134.732 47.822C134.98 49.1834 136.061 49.0591 137.118 49.0076C144.198 48.6732 151.279 48.1714 158.361 48.1071C164.236 48.0557 170.115 47.0244 175.994 48.0192C176.35 48.0793 176.742 48.0514 177.096 47.9678C178.217 47.6998 178.516 46.8121 177.814 45.8966Z" fill="#251C1C" />
    <path d="M177.152 53.8789C177.102 52.8433 176.487 52.5624 175.447 52.6525C170.229 53.1049 165.006 53.8017 159.783 53.7996C153.018 53.7953 146.185 55.2961 139.476 53.1756C138.539 52.8776 137.815 53.4501 137.605 54.357C137.393 55.2768 137.862 55.9951 138.788 56.2352C139.311 56.3681 139.888 56.3167 140.439 56.2974C143.473 56.1837 146.505 56.0165 149.538 55.9415C156.811 55.7592 164.088 55.6156 171.363 55.4569C171.365 55.3754 171.369 55.2961 171.371 55.2146C172.744 55.3497 174.112 55.5405 175.486 55.607C176.618 55.6606 177.203 54.9702 177.152 53.8789Z" fill="#251C1C" />
    <path d="M175.389 73.4484C174.257 73.4484 173.164 73.3798 172.079 73.4634C170.063 73.6177 168.061 73.9479 166.043 74.0508C161.526 74.2803 157.006 74.514 152.484 74.5547C148.543 74.589 144.581 75.3073 140.651 74.2481C139.391 73.9072 138.177 75.0028 138.267 76.2356C138.364 77.5735 139.388 77.4963 140.325 77.4406C143.824 77.2391 147.323 77.0053 150.823 76.8102C152.203 76.733 153.591 76.7888 154.967 76.6795C160.756 76.2206 166.547 75.8905 172.358 76.2185C172.996 76.2528 173.674 76.2849 174.279 76.1177C175.402 75.8068 175.996 75.0843 175.389 73.4484Z" fill="#251C1C" />
    <path d="M150.778 12.9236C157.763 12.7714 164.695 11.4592 171.717 12.0317C173.314 12.1625 173.777 11.5536 173.91 9.89407C174.079 7.78217 173.826 5.83538 172.092 4.70117C165.145 5.06566 158.621 5.51162 152.09 5.71531C147.422 5.8611 147.178 5.98331 147.853 10.5351C148.153 12.572 148.698 12.9686 150.778 12.9236ZM151.151 8.15309C156.668 7.78646 162.186 7.42413 167.707 7.10038C168.528 7.05321 169.39 7.10038 170.175 7.31264C170.591 7.42628 171.153 7.97944 171.166 8.3525C171.183 8.77917 170.709 9.26588 170.359 9.64537C170.211 9.80618 169.838 9.78259 169.566 9.79974C163.953 10.1235 158.342 10.4494 152.729 10.7474C152.105 10.7796 151.473 10.6488 150.666 10.5802C150.604 9.81261 150.548 9.13507 150.503 8.57761C150.857 8.33962 150.996 8.16167 151.151 8.15309Z" fill="#251C1C" />
    <path d="M141.826 118.71C142.911 118.847 143.413 117.981 143.503 116.939C143.72 114.377 143.835 111.8 144.191 109.255C144.408 107.713 144.191 106.009 145.388 104.412C147.094 109.349 148.734 114.034 150.323 118.736C150.604 119.568 150.844 120.543 151.873 120.237C152.519 120.044 152.971 119.195 153.499 118.631C153.55 118.577 153.518 118.451 153.537 118.361C154.513 113.575 155.332 108.768 155.625 103.884C155.643 103.582 155.728 103.284 155.876 102.473C156.284 103.267 156.481 103.556 156.588 103.873C158.132 108.494 159.701 113.106 161.166 117.75C161.474 118.725 161.779 119.574 162.885 119.555C163.983 119.536 164.399 118.704 164.56 117.694C165.13 114.15 165.73 110.61 166.313 107.068C166.498 105.96 166.669 104.847 166.845 103.736C167.051 103.73 167.255 103.723 167.461 103.717C167.894 104.697 168.492 105.64 168.73 106.667C169.416 109.626 170.027 112.608 170.52 115.606C170.722 116.821 170.947 117.758 172.366 117.814C173.798 116.862 174.148 115.82 173.076 114.328C172.628 113.704 172.512 112.786 172.405 111.982C171.644 106.262 169.002 101.155 167.431 95.7453C164.684 96.1526 164.543 96.2791 164.478 98.5904C164.35 103.2 164.547 107.833 163.385 112.357C163.269 112.808 163.007 113.217 162.666 113.972C160.996 110.721 160.353 107.57 159.416 104.504C158.492 101.478 157.701 98.3546 155.992 95.623C153.927 96.5836 153.859 96.5772 153.736 98.1102C153.543 100.501 153.456 102.902 153.325 105.297C153.158 108.391 153.001 111.485 151.586 114.529C149.513 108.329 146.52 102.484 145.456 95.9918C142.684 95.8675 142.242 96.2127 142.454 98.4854C142.928 103.584 142.605 108.612 141.303 113.573C141.046 114.553 140.932 115.567 140.739 116.564C140.542 117.576 140.692 118.569 141.826 118.71Z" fill="#251C1C" />
    <path d="M139.999 91.7602C140.568 91.9724 141.277 91.8652 141.916 91.803C146.858 91.3185 151.79 90.6774 156.74 90.3536C161.033 90.0706 165.325 89.3245 169.669 90.0835C170.421 90.2164 171.343 89.376 172.186 88.9857C172.162 88.6556 172.139 88.3275 172.115 87.9995C171.32 87.71 170.505 87.1333 169.729 87.1805C165.312 87.4399 160.91 87.918 156.496 88.1882C151.346 88.5012 146.187 88.6791 141.031 88.915C140.664 88.9321 140.162 88.7756 139.957 88.9622C139.457 89.4103 138.869 89.972 138.769 90.5659C138.711 90.9025 139.485 91.5672 139.999 91.7602Z" fill="#251C1C" />
    <path d="M170.252 65.8112C168.157 66.0085 166.073 66.3258 163.977 66.4909C158.653 66.9111 153.325 67.2756 148.001 67.6594C147.995 67.5822 147.99 67.5029 147.986 67.4236C145.958 67.4236 143.925 67.4879 141.901 67.3978C140.735 67.3464 139.839 67.5693 139.611 68.8086C139.436 69.7734 140.497 70.3931 142.079 70.2323C143.083 70.1293 144.062 69.7756 145.062 69.722C149.571 69.4754 154.084 69.2953 158.595 69.0938C162.549 68.9158 166.504 68.755 170.458 68.562C171.487 68.5127 172.31 68.0925 172.163 66.8854C172.025 65.7683 171.095 65.7319 170.252 65.8112Z" fill="#251C1C" />
    <path d="M170.503 59.8933C169.159 59.7068 167.771 59.7282 166.41 59.8011C162.186 60.0219 157.971 60.4057 153.747 60.5322C148.503 60.6909 143.254 60.6716 138.008 60.6909C136.7 60.6952 135.911 61.1862 135.673 63.1265C136.693 63.2252 137.564 63.4653 138.394 63.3688C148.368 62.2024 158.365 62.0116 168.385 62.4983C169.021 62.5305 169.714 62.5262 170.295 62.3097C170.799 62.121 171.536 61.5978 171.53 61.2333C171.521 60.7595 170.927 59.9533 170.503 59.8933Z" fill="#251C1C" />
    <path d="M137.849 84.7653C142.926 84.731 148.003 84.6238 153.08 84.5595C158.05 84.4994 163.018 83.689 167.994 84.5981C168.64 84.716 169.51 84.4394 170.044 84.0363C170.439 83.7383 170.711 82.8549 170.559 82.3875C170.413 81.9373 169.641 81.3777 169.165 81.397C166.316 81.5085 163.47 81.74 160.63 81.9952C153.085 82.6684 145.544 82.6298 138.003 82.2289C137.92 82.0316 137.838 81.8365 137.757 81.6414C137.109 82.1452 136.226 82.5248 135.874 83.1851C135.443 83.9956 136.376 84.7739 137.849 84.7653Z" fill="#251C1C" />
    <path d="M158.737 26.383C158.852 25.3817 158.11 24.9529 157.199 24.8157C155.846 24.612 154.496 24.389 153.141 24.2068C151.014 23.9216 150.527 24.4469 150.701 26.8997C152.737 27.2428 154.798 27.6094 156.865 27.9331C158.031 28.1154 158.623 27.38 158.737 26.383Z" fill="#251C1C" />
    <path d="M130.48 12.9317C133.964 12.9082 137.45 12.5458 140.928 12.2435C141.586 12.1856 142.36 11.8511 142.815 11.3859C143.726 10.4511 144.425 9.28685 143.844 7.89965C143.164 6.27445 141.042 5.00731 139.513 5.21099C133.194 6.04717 126.876 5.7513 120.56 5.21743C118.921 5.08021 118.164 5.49402 117.708 7.09777C117.483 7.88678 117.41 8.71867 117.354 9.04886C117.378 11.4545 117.834 12.3464 119.187 12.4364C122.948 12.6894 126.719 12.9596 130.48 12.9317ZM122.262 7.54158C127.427 7.54372 132.592 7.50085 137.753 7.6252C138.75 7.65093 139.729 8.36062 140.716 8.75512C140.666 9.03599 140.615 9.31685 140.564 9.59772C133.868 11.1865 127.144 11.6732 120.292 9.99439C120.137 8.33061 120.75 7.53944 122.262 7.54158Z" fill="#251C1C" />
    <path d="M20.2348 105.65C20.2626 107.667 20.4215 109.719 20.8524 111.683C21.2233 113.377 21.8943 115.189 23.6975 115.888C26.1782 116.85 28.6996 117.907 31.2982 118.312C36.9564 119.196 42.6831 119.138 48.4184 119.119C58.9414 119.084 69.4667 119.59 79.9919 119.616C87.762 119.633 95.4848 120.135 103.214 120.808C109.314 121.34 115.403 121.014 121.387 119.616C123.846 119.041 126.404 118.203 127.266 115.549C128.398 112.052 129.584 108.465 129.914 104.841C130.424 99.2454 130.274 93.5851 130.324 87.9505C130.418 77.1273 129.61 66.3492 128.478 55.5989C128.057 51.5959 126.994 47.7044 123.561 45.108C119.303 41.8898 114.44 39.8551 109.245 38.7702C101.201 37.0871 93.0513 37.8225 84.9425 38.1463C79.889 38.3478 74.8826 39.3619 69.7926 39.1711C68.1352 39.1089 66.4692 39.1132 64.8118 39.1861C59.0036 39.437 53.1996 39.7672 47.3914 40.0052C39.8379 40.316 32.276 40.4747 24.7289 40.8756C20.2028 41.1158 19.2507 41.9005 17.8914 45.629C16.3498 49.8571 16.7508 54.1581 17.4969 58.4698C18.0758 61.8209 18.8542 65.1613 19.1008 68.5382C19.5789 75.0755 19.7417 81.6363 20.0354 88.1885C20.0933 88.1885 20.1513 88.1885 20.2092 88.1885C20.2092 94.0096 20.1597 99.8307 20.2348 105.65ZM19.9454 52.4707C19.8618 50.6482 20.0826 48.7979 20.3313 46.9819C20.4213 46.3301 20.848 45.4489 21.3776 45.1831C22.7412 44.497 24.2227 43.7572 25.7021 43.6415C32.9704 43.0733 40.2304 42.3379 47.5566 42.6766C50.1938 42.7967 52.8587 42.0527 55.5216 41.9391C58.9285 41.7954 62.3484 42.0056 65.7532 41.8533C70.8196 41.6261 75.873 41.1544 80.9373 40.8992C90.2317 40.4318 99.5777 39.3169 108.774 41.506C113.769 42.6959 118.718 44.1946 122.566 48.0796C124.73 50.2623 125.587 52.9124 126.166 55.6996C126.689 58.2189 126.942 60.8046 127.157 63.3754C128.205 75.9052 128.825 88.4651 128.319 101.031C128.145 105.317 127.335 109.633 125.486 113.647C124.813 115.105 123.78 116.111 122.339 116.565C120.418 117.17 118.447 117.736 116.458 117.978C109.352 118.846 102.249 118.034 95.146 117.742C90.9008 117.568 86.6534 117.455 82.4061 117.32C77.1446 117.15 71.8852 116.917 66.6215 116.842C60.4316 116.752 54.2352 116.632 48.0539 116.837C42.49 117.02 36.9799 116.741 31.4954 115.918C29.688 115.645 27.8998 115.079 26.1738 114.457C24.107 113.713 22.8484 112.09 22.486 109.957C22.2073 108.33 22.1774 106.651 22.1581 104.991C22.1152 101.119 22.1451 97.2471 22.1451 93.375C22.0422 93.375 21.9394 93.3728 21.8386 93.3728C21.8386 90.6949 21.9286 88.0127 21.8214 85.339C21.5106 77.6848 21.159 70.0326 20.7452 62.3827C20.5651 59.0744 20.0976 55.7811 19.9454 52.4707Z" fill="#251C1C" />
    <path d="M108.726 14.0046C110.354 14.0217 111.218 13.6465 111.563 12.0835C111.76 11.2001 111.831 10.231 111.696 9.33909C111.394 7.34512 109.708 6.3374 107.708 6.75549C106.992 6.90558 106.252 6.99134 105.521 6.99992C101.276 7.04709 97.0328 7.08139 92.7876 7.07925C91.5912 7.0771 90.4762 7.35369 89.9402 8.42787C89.074 10.1603 88.5081 12.0041 89.4193 14.1804C90.5256 14.116 91.6126 14.0045 92.6997 14.0003C98.0426 13.9788 103.383 13.9424 108.726 14.0046ZM94.0675 9.40127C96.6275 9.25333 99.1876 9.09895 101.75 9.03892C103.306 9.00032 104.865 9.14613 106.424 9.18043C107.581 9.2083 108.57 9.45273 108.945 10.7392C106.327 12.0556 94.9294 12.2872 92.007 11.1165C92.0692 9.79792 92.9891 9.46345 94.0675 9.40127Z" fill="#251C1C" />
    <path d="M81.7927 97.0477C81.8227 97.8474 81.6426 98.9409 82.7404 99.0546C83.4308 99.1253 84.3314 98.778 84.8888 98.317C88.7803 95.0816 92.6116 91.7733 96.4516 88.4758C97.5022 87.5774 98.585 86.7027 99.5348 85.7057C100.89 84.2799 100.823 82.9891 99.3654 81.7263C98.2548 80.7636 97.0306 79.936 95.8878 79.0055C91.7498 75.6393 87.6417 72.2367 83.4801 68.8984C82.9741 68.491 82.0286 68.0172 81.6319 68.2273C81.0316 68.5446 80.7314 69.4366 80.532 69.7389C80.7079 71.5292 80.8988 72.8135 80.9481 74.0999C81.2461 81.7477 81.5054 89.3977 81.7927 97.0477ZM87.1614 75.9609C89.8973 78.1286 92.7253 80.1783 95.414 82.4017C97.3157 83.9711 97.3372 84.5371 95.4569 86.0444C92.0285 88.7931 88.478 91.3938 84.9703 94.0439C84.8416 94.1404 84.6251 94.1232 84.0762 94.2326C83.5724 87.0328 83.0728 79.8803 82.5239 72.0201C84.4085 73.6303 85.7485 74.8417 87.1614 75.9609Z" fill="#251C1C" />
    <path d="M66.3362 13.1377C71.7607 13.0862 77.1851 13.0626 82.6074 12.9576C84.4641 12.9233 85.4055 11.5704 85.2018 9.51208C84.9917 7.38303 83.686 6.17376 81.9043 6.43319C80.813 6.59185 79.7216 6.81699 78.6281 6.84272C74.2114 6.94349 69.7968 7.02497 65.38 7.00996C64.0378 7.00567 62.8778 7.20078 62.5883 8.62229C62.2882 10.1124 61.971 11.6797 62.6978 13.1398C63.995 13.1398 65.1656 13.1484 66.3362 13.1377ZM67.1895 9.40488C71.9793 9.14116 76.7799 8.5301 81.8827 9.23764C79.758 11.3624 74.6316 11.744 65.3972 10.2432C65.9932 9.95159 66.5784 9.43918 67.1895 9.40488Z" fill="#251C1C" />
    <path d="M69.4215 97.3056C70.6908 97.1341 71.9623 96.9626 73.2316 96.791C73.2402 96.8511 73.2465 96.909 73.255 96.969C73.9926 96.969 74.7302 96.9926 75.4678 96.9647C77.213 96.8961 77.7726 96.2679 77.584 94.5355C77.2366 91.3323 76.7436 88.1398 76.5184 84.9301C76.1775 80.0824 74.9018 75.2433 76.2611 70.3548C76.5827 69.2013 76.0832 68.4424 74.9447 67.9878C73.1287 67.2653 71.3406 67.4325 69.5224 67.9256C66.5722 68.7232 66.2698 69.182 66.8637 72.0958C66.9173 72.366 66.9708 72.6383 66.9923 72.9149C67.4768 79.1884 67.2131 85.4426 66.572 91.6946C66.452 92.8739 66.4241 94.0895 66.572 95.2602C66.8036 97.1212 67.5176 97.5629 69.4215 97.3056ZM69.0549 84.7436C69.1728 81.148 69.3058 77.5524 69.4173 73.9569C69.5052 71.1353 69.9705 70.7322 73.1673 71.0088C73.6733 78.4958 74.1836 86.0193 74.7046 93.6843C73.9499 94.0038 73.3237 94.4004 72.6441 94.5355C69.904 95.0822 68.879 94.2353 68.8769 91.3966C68.8747 89.1796 68.9841 86.9605 69.0549 84.7436Z" fill="#251C1C" />
    <path d="M52.3827 96.756C54.9384 96.9532 57.4942 97.1548 60.0542 97.2984C61.6622 97.3885 62.3654 96.4623 62.2196 94.9121C61.6943 89.3183 61.1005 83.7266 60.8132 78.1177C60.6695 75.2962 61.0855 72.4381 61.332 69.6037C61.525 67.3824 60.8689 66.7049 58.6626 67.1852C57.1318 67.5175 55.6095 67.9163 54.1151 68.3902C51.8874 69.102 51.6794 69.4622 51.6794 71.7499C51.6815 73.5059 51.7137 75.264 51.6172 77.0135C51.3492 81.8977 51.0234 86.7776 50.7189 91.6596C50.6889 91.6596 50.6589 91.6617 50.631 91.6617C50.631 92.7702 50.5989 93.8787 50.6396 94.985C50.6782 96.0763 51.3107 96.6745 52.3827 96.756ZM52.9509 89.9358C53.249 84.6056 53.5748 79.2734 54.0808 73.9604C54.3402 71.2503 55.0584 70.8129 58.193 70.6671C58.3709 73.5638 58.5468 76.306 58.7076 79.0525C58.9628 83.3771 59.2672 87.6995 59.4344 92.0262C59.5287 94.4683 58.7762 95.0108 56.4585 94.5241C52.9401 93.7865 52.7451 93.63 52.9509 89.9358Z" fill="#251C1C" />
    <path d="M39.3941 13.0525C43.8044 12.8639 48.2192 12.7267 52.6295 12.568C53.2748 12.5444 53.9265 12.583 54.5633 12.5015C56.2678 12.285 56.8146 11.6096 56.716 9.95009C56.5659 7.41796 54.3961 5.70057 51.8296 5.98359C49.2761 6.2666 46.7096 6.45529 44.1496 6.6847C44.1453 6.60966 44.139 6.5346 44.1347 6.45956C43.4893 6.45956 42.846 6.47674 42.2007 6.45744C38.0519 6.3288 38.052 6.32664 37.0765 10.216C36.4483 12.7095 36.847 13.1619 39.3941 13.0525ZM41.9519 8.82232C45.4274 8.67652 48.9116 8.71513 52.3935 8.73443C52.7022 8.73657 53.0088 9.07533 53.3412 9.27044C51.6516 10.7734 45.1767 11.4402 40.1682 10.6834C40.0696 10.4797 39.971 10.276 39.8724 10.0702C40.5627 9.63493 41.2422 8.85233 41.9519 8.82232Z" fill="#251C1C" />
    <path d="M31.2937 11.3702C31.2809 11.0014 31.2959 10.6326 31.2745 10.266C31.1415 8.09619 30.3783 7.3758 28.1271 7.483C26.3861 7.56662 24.6514 7.92896 22.9148 7.90966C19.9817 7.87965 17.0488 7.65453 14.1178 7.49158C12.9665 7.42512 11.7058 7.42297 11.2962 8.66437C10.6809 10.5276 10.3614 12.4894 9.83392 14.7642C11.2211 14.8436 12.2804 14.9872 13.3331 14.9508C18.2901 14.7878 23.245 14.5005 28.202 14.404C31.3967 14.3397 31.3988 14.4533 31.2937 11.3702ZM13.1122 12.5859C13.5389 10.1652 13.8242 9.74928 15.4558 9.74713C19.403 9.74499 23.3501 9.8243 27.2973 9.89291C27.6382 9.89935 27.977 10.0837 28.2686 10.1695C28.7446 11.3616 28.4015 12.0005 27.2502 12.2921C24.3729 13.0168 16.0967 13.2355 13.1122 12.5859Z" fill="#251C1C" />
</svg>