<svg width="155" height="102" viewBox="0 0 155 102" fill="none" xmlns="http://www.w3.org/2000/svg">
<path d="M132.293 91.9313C131.473 88.7607 128.568 86.8634 125.51 86.0692C126.103 78.7762 124.218 71.439 120.859 64.7764C120.84 64.4738 120.726 64.1713 120.525 63.9696C120.493 63.9317 120.449 63.9128 120.411 63.875C117.524 58.4163 113.654 53.4429 109.342 49.3773C112.551 46.9694 115.249 43.8997 117.07 40.2374C121.88 30.5491 117.965 20.5205 111.977 12.3954C113.49 8.63862 114.656 4.73054 115.639 0.803541C115.753 0.362306 115.337 -0.123053 114.864 0.0282278C111.271 1.21326 107.672 2.75128 104.747 5.20329C104.741 5.19699 104.735 5.19068 104.728 5.18438C101.243 3.55181 97.3659 2.48024 93.4074 2.05161C92.8716 1.83729 92.298 1.79947 91.7307 1.91924C90.9743 1.87511 90.2179 1.8436 89.4615 1.8436C89.2094 1.81838 88.9509 1.81838 88.6988 1.8562C81.929 2.02639 75.26 4.16323 70.2047 8.74578C70.1732 8.72687 70.148 8.70166 70.1039 8.68275C66.429 7.35274 62.7478 6.74131 58.8776 6.39463C58.6065 6.36941 58.3859 6.69088 58.4679 6.93672C59.571 10.3342 60.9388 13.9334 62.8361 16.9906C62.439 17.6398 62.1553 18.3962 62.086 19.1274C60.9451 21.8505 60.4723 24.7311 60.5354 27.6181C60.5165 27.8324 60.5165 28.0341 60.548 28.2232C60.7119 31.545 61.5943 34.8606 63.0252 37.9304C57.7241 42.3112 52.6751 47.0639 48.477 52.5227C43.8188 58.5865 40.6672 65.5958 38.2088 72.8069C37.3516 75.3219 36.4817 78.0576 36.0468 80.8121C31.8235 75.9523 33.0464 68.5017 34.2314 62.6459C35.6308 55.7248 38.0134 49.0369 41.2786 42.7713C44.8841 35.8566 51.3325 22.9977 40.5915 18.5727C31.0608 14.6394 20.301 24.8572 16.2101 32.5284C10.9468 42.4058 11.6338 56.0147 14.6595 66.4783C17.6725 76.9041 25.2491 86.4663 36.2989 88.1745C36.4313 88.6661 36.5889 89.1452 36.7906 89.6243H36.7843C37.0364 90.0529 37.2822 90.4752 37.4903 90.9291C37.5281 91.0047 37.5281 91.0803 37.547 91.156C37.5911 91.219 37.61 91.2883 37.6415 91.3577C37.6668 91.3577 37.692 91.3514 37.7109 91.3514C40.0872 94.9569 44.9913 97.0496 48.8426 94.6102C49.807 94.9632 50.7904 95.2847 51.78 95.5746C55.7007 97.0433 59.9807 97.9132 64.0527 98.0519C70.1354 98.2536 76.8359 98.6759 82.7484 96.9677C82.7799 96.9551 82.8052 96.9362 82.8304 96.9236C90.7474 100.655 101.35 97.8502 109.412 95.9907C109.758 96.4571 110.168 96.9046 110.666 97.327C111.504 98.0518 112.639 98.9658 113.837 99.4827C113.818 99.4827 113.805 99.4827 113.786 99.4827C113.862 99.5016 113.944 99.5331 114.026 99.5521C115.457 100.674 117.625 101.153 119.232 101.475C122.239 102.073 126.015 102.193 128.568 100.283C128.599 100.258 128.612 100.227 128.631 100.195C131.171 98.3166 133.075 94.9632 132.293 91.9313ZM14.7603 57.1367C14.4136 53.7707 14.2434 50.2787 14.4452 46.8181C15.8004 47.9338 17.3951 48.7532 19.1349 49.081C20.9754 49.4277 23.314 49.5159 24.2973 47.5871C26.5917 43.0928 19.0025 39.7583 16.0147 38.4977C15.9643 38.4725 15.9012 38.4661 15.8445 38.4472C16.0084 37.8925 16.1597 37.3315 16.3551 36.7831C16.7837 35.5792 17.3447 34.3563 18.0066 33.1524C19.2546 34.3816 20.7548 35.554 22.2172 36.4113C23.5346 37.1866 25.0915 37.6215 26.5476 36.9659C30.5629 35.1632 27.2851 30.9399 25.1546 29.1309C24.2784 28.3871 23.2762 27.637 22.1542 27.347C25.0537 24.1323 28.6214 21.4912 32.3341 20.2431C36.2296 18.932 41.1336 19.4552 43.4722 23.2435C45.5018 26.5276 44.9282 30.6815 43.636 34.1105C43.5604 34.3122 43.4722 34.5076 43.3902 34.703C42.4069 34.0097 41.2029 33.5369 40.062 33.1776C39.1354 32.8877 38.0513 32.5347 37.1058 32.9129C34.326 34.0286 37.1184 37.0983 38.2593 38.2644C39.022 39.0461 39.8855 39.8655 41.0391 39.8781C40.0557 41.8384 39.0157 43.7799 38.0387 45.7465C37.1877 44.6245 35.864 43.8366 34.5403 43.4269C33.1661 42.9983 31.0167 42.6642 30.1342 44.1266C29.2833 45.5385 30.0082 47.5619 30.9095 48.7595C32.0378 50.2534 33.7335 51.0414 35.4669 51.5961C35.3912 51.8041 35.2967 52.0058 35.221 52.2138C32.1828 60.862 27.5814 75.5551 35.5551 82.949C35.6245 83.012 35.6938 83.0372 35.7694 83.0751C35.7379 83.6108 35.7253 84.1466 35.7442 84.6824C35.7505 84.7013 35.7568 84.7202 35.7568 84.7391C35.7883 84.9787 35.801 85.2182 35.8073 85.4577V85.464C35.8136 85.4893 35.8325 85.5082 35.8388 85.5397C35.8955 85.817 35.9333 86.0818 35.9459 86.3717C35.9459 86.4285 35.9333 86.4726 35.927 86.523C35.9648 86.7499 36.0216 86.9768 36.0657 87.2038C22.8728 83.3272 16.1281 70.2414 14.7603 57.1367ZM38.0891 79.8793C38.7005 76.778 39.6334 73.6831 40.7428 70.6574C42.3565 71.3697 44.4996 70.8339 45.1362 69.0438C45.7035 67.4427 44.5815 65.5076 42.9175 65.2618C43.1507 64.7323 43.3902 64.2091 43.6297 63.6859C44.8085 64.1587 46.1952 64.1965 47.1407 63.2069C48.3194 61.9777 47.6828 60.4334 46.668 59.3681C46.5041 59.1979 46.2645 59.0845 46.0187 59.0403C50.5697 51.2242 56.974 45.0406 63.3215 38.567C63.498 38.92 63.6744 39.273 63.8572 39.6134C55.9024 47.1837 50.2042 57.5149 46.7751 67.8524C45.0732 72.9771 43.9323 78.2845 43.3587 83.655C43.0813 86.2709 41.9467 90.9291 44.7139 92.4986C44.5563 92.4923 44.4492 92.7192 44.6131 92.8012C45.0606 93.0281 45.5207 93.2361 45.9746 93.4504C39.3371 94.73 36.9671 85.5712 38.0891 79.8793ZM130.515 94.2572C129.835 98.5813 126.406 100.353 122.586 100.22C121.918 100.138 121.249 100.056 120.575 99.987C115.917 99.0856 112.217 96.5832 109.443 93.0092C108.599 90.2861 107.685 87.6639 107.262 84.7644C106.752 81.2786 106.506 77.7487 106.178 74.244C106.165 74.118 105.983 74.1117 105.976 74.244C105.875 75.9649 105.794 77.837 105.781 79.7532C103.524 77.7802 103.455 75.0131 103.064 72.1387C103.058 72.0757 102.951 72.0757 102.938 72.1387C102.27 75.4417 102.434 79.5893 105.472 81.6505C105.586 81.7261 105.699 81.7703 105.8 81.7892C105.901 85.546 106.399 89.3721 107.874 92.6058C107.861 92.6121 107.848 92.6247 107.836 92.631C107.93 92.7444 108 92.8768 108.025 93.0533L108.031 93.1037C108.195 93.5071 108.327 93.9169 108.428 94.3392C108.441 94.3203 108.466 94.3077 108.472 94.2887C108.498 94.3707 108.542 94.4463 108.573 94.522C106.5 95.001 104.426 95.499 102.339 95.9402C103.171 94.4842 103.55 92.5616 103.896 91.1308C104.577 88.3068 104.936 85.2623 104.256 82.4069C104.23 82.306 104.098 82.3376 104.092 82.4321C103.657 86.7373 103.909 93.2487 100.247 96.3563C98.2421 96.7408 96.225 97.0685 94.1827 97.2324C90.2242 97.5539 86.8771 96.9803 83.2212 96.1987C83.2149 96.123 83.2023 96.0537 83.1771 95.9844C84.0595 95.3918 84.879 94.6859 85.5723 93.7845C85.5976 93.671 85.6354 93.5513 85.7173 93.4378C86.1586 92.8075 86.5494 92.1519 86.9087 91.4711C86.8897 91.4522 86.8708 91.4333 86.8582 91.4081C88.5286 87.1659 87.1671 82.0413 82.8745 79.8162C80.2397 78.4484 76.9178 78.2215 73.93 79.022C73.9237 79.0157 73.9237 79.0157 73.9174 79.0094C72.7135 78.3664 71.4843 77.7613 70.2489 77.1751C70.0787 77.0932 69.8959 77.0427 69.7194 76.986C69.1206 76.6835 68.5154 76.3935 67.8977 76.1161C67.8347 71.9938 67.7716 67.2158 70.7216 64.02C71.9192 62.7215 73.5455 61.2024 75.2915 60.7738C78.5126 59.9795 80.6872 62.5891 82.1433 65.0411C82.2946 65.2933 82.7547 65.1231 82.635 64.8331C82.1433 63.5977 81.4752 62.5261 80.6809 61.6751C88.0306 56.9791 96.6789 59.9102 100.656 67.5058C100.751 67.6885 101.066 67.5625 100.997 67.3608C97.8387 58.5109 87.4318 55.7815 79.8426 60.8809C77.9074 59.3618 75.3987 59.0845 72.7198 60.8998C67.4628 64.4612 66.8702 69.8443 66.9585 75.719C65.307 75.0257 63.6051 74.4332 61.878 74.036C62.149 73.91 62.4327 73.7902 62.6911 73.6326C63.3782 73.2103 64.2922 72.6367 64.6263 71.874C64.8027 71.4769 64.4435 71.0987 64.0337 71.2815C63.3025 71.6218 62.71 72.3404 62.0356 72.788C61.4935 73.1473 60.9136 73.4561 60.3274 73.7398C60.1509 73.7146 59.9681 73.6704 59.7916 73.6452C61.1972 72.4917 62.0356 70.6196 61.1468 68.8988C60.8947 68.4134 60.2013 68.6782 60.1761 69.1635C60.0878 70.815 59.8168 72.4098 58.7326 73.5381C57.3837 73.4372 56.0411 73.4687 54.73 73.702C54.2698 73.7839 54.3076 74.4836 54.73 74.5907C57.5602 75.2967 60.5228 75.2715 63.3845 75.9586C66.0508 76.5952 68.7297 77.4273 71.27 78.4925C71.7428 78.8014 72.2218 79.1039 72.6946 79.4065C70.7342 80.1503 69.0008 81.3669 67.8158 83.0246C67.3178 83.7243 68.4713 84.3862 68.963 83.6928C73.0917 77.9504 84.6583 78.9653 85.9695 86.523C86.8015 91.3199 83.8452 94.2824 80.0443 95.8331C74.9449 96.4004 69.9022 96.7975 64.7271 96.684C64.1283 96.6714 63.5295 96.6273 62.937 96.5706C63.7753 96.0222 64.4624 94.9506 65.0108 94.1942C66.4605 92.2023 67.7716 89.0822 66.076 86.8319C64.4939 84.7392 62.1175 85.9116 60.7938 87.5883C59.8105 88.8363 58.9784 90.2294 58.3355 91.6792C57.8249 92.8264 57.6358 94.3896 56.974 95.4549C55.3351 95.0956 53.7025 94.7111 52.0699 94.3077C52.8957 94.2635 53.6332 93.8538 54.1816 92.7696C55.2216 90.721 56.2302 86.9768 54.9821 84.7959C53.816 82.7662 50.9353 84.6887 49.7314 85.6846C47.9475 87.1596 46.17 89.5801 45.5081 91.8241C42.4888 90.3239 45.1236 79.9108 45.5523 77.7172C46.0628 75.0761 46.7373 72.4602 47.5315 69.8884C47.6639 69.9452 47.8089 69.9956 47.9665 70.0082C48.2564 70.0334 48.5527 70.0586 48.8426 70.0838C49.0758 70.1027 49.2523 70.0523 49.4162 69.9767C49.9205 70.0649 50.4563 70.0523 50.9543 70.0586C52.1708 70.0649 53.5134 70.0775 54.7048 69.7876C56.5832 69.3211 57.7304 67.6633 56.5264 65.9047C55.2658 64.0641 52.8516 62.5135 50.6832 62.1101C50.5887 62.0912 50.5067 62.1038 50.4185 62.1038C51.0299 60.717 51.6665 59.3492 52.3599 58.0255C54.8119 60.2695 58.3607 61.7382 61.6511 62.0218C64.5821 62.274 65.7546 59.5005 64.8721 56.9413C63.9959 54.4074 60.9451 51.5645 58.367 50.8586C57.7178 50.6821 57.1379 50.7199 56.6021 50.8964C58.9721 47.3287 61.5943 43.9123 64.3993 40.5526C65.0612 41.662 65.7987 42.7335 66.5992 43.7358C68.818 46.5155 71.5158 48.8289 74.491 50.6758C73.2871 49.2386 71.976 47.9023 70.772 46.4588C70.0913 45.6457 69.5366 44.7758 69.0008 43.887C67.696 42.5255 66.5047 41.0694 65.5087 39.4999C66.8135 40.0042 68.4272 39.752 69.3916 38.4157C70.2867 37.174 70.0345 35.5603 68.7928 34.6526C67.3745 33.6189 65.244 33.9214 63.6177 34.1357C63.3719 34.1673 63.1702 34.3122 63.0189 34.5013C62.4327 32.9129 62.0104 31.2677 61.7834 29.5784C61.7897 29.5784 61.796 29.5847 61.8086 29.591C64.0211 30.2655 66.8072 29.4145 68.4209 27.8261C70.2047 26.0674 69.9085 23.6595 67.7968 22.361C66.7442 21.7118 65.452 21.4029 64.2354 21.2832C63.624 21.2201 62.8865 21.113 62.2688 21.258C62.376 20.8356 62.4831 20.4196 62.6155 19.9973C62.6344 19.9784 62.6596 19.9721 62.6785 19.9406C63.1197 19.0644 63.3656 18.1126 63.7879 17.2175C63.7879 17.2112 63.8005 17.1986 63.8005 17.1923C63.7564 17.1545 63.7123 17.1103 63.6681 17.0725C63.6681 17.041 63.6871 17.0095 63.6744 16.9717C62.4201 13.7002 60.8758 10.5233 59.5394 7.2771C63.0819 7.4662 66.5362 8.37388 69.8139 9.71019C70.1417 9.84257 70.3812 9.62825 70.4506 9.3509C73.7535 7.37165 76.9998 5.57519 80.5107 4.35864C80.1451 6.19292 81.7147 7.94525 83.6813 7.87592C85.3895 7.81919 86.7259 6.51439 86.9402 4.95746C87.3562 5.51846 87.9613 5.90296 88.7051 5.83363C89.8523 5.72647 90.3377 4.76836 90.4448 3.76612C90.4701 4.35234 90.7411 4.92594 91.258 5.26002C92.0963 5.80841 93.2561 5.65083 93.9621 4.95746C94.4475 4.4721 94.6618 3.74721 94.4979 3.12318C97.8387 3.60224 101.104 4.59186 104.205 6.04794C104.514 6.19292 104.798 6.02903 104.924 5.79581C104.987 5.80211 105.056 5.80841 105.119 5.7769C108.107 4.283 110.994 2.75128 114.12 1.59776C113.181 5.31045 112.015 8.92858 110.748 12.553C110.71 12.6665 110.716 12.761 110.735 12.8493C110.66 12.8808 110.584 12.9123 110.502 12.9501C110.571 13.0132 110.616 13.0825 110.691 13.1455C112.633 15.9442 114.41 18.9005 115.684 21.9702C115.028 21.5731 114.089 22.1341 113.452 22.38C112.204 22.859 110.95 23.2498 110.389 24.5861C109.223 27.3596 113.175 29.0174 115.375 28.9292C115.438 29.0741 115.532 29.2065 115.684 29.3011C116.213 29.6414 116.768 29.7108 117.373 29.5595C117.448 29.5406 117.486 29.4839 117.549 29.4523C117.619 30.3222 117.644 31.2047 117.593 32.0871C115.501 31.3938 111.662 30.3663 110.275 32.5977C108.737 35.0623 111.933 37.9682 113.862 39.0965C114.057 39.4053 114.265 39.7079 114.473 39.9916C114.606 40.1744 114.807 40.3193 115.028 40.4202C110.508 48.3498 101.715 53.0521 92.7204 53.651C90.7411 53.7833 88.7618 53.6573 86.8078 53.3547C91.1949 55.0692 97.6181 54.4893 101.993 53.3736C104.388 52.4659 106.67 51.2683 108.75 49.7933C109.462 50.7577 110.181 51.7095 110.899 52.655C110.861 52.6613 110.83 52.6487 110.792 52.6613C107.622 53.5375 104.823 55.4222 102.724 57.9562C101.085 59.9354 100.719 62.6711 103.821 63.3644C106.934 64.0578 111.391 62.0533 114.013 60.4712C114.171 60.3766 114.29 60.2758 114.417 60.1686C114.461 60.1623 114.498 60.156 114.549 60.1308C114.984 59.8913 115.438 59.7022 115.904 59.5257C116.497 60.4082 117.089 61.2843 117.644 62.1983C115.646 62.6269 113.83 63.396 112.11 64.518C111.599 64.8457 111.46 65.4382 111.725 65.9803C112.456 67.4616 114.404 67.6823 115.892 67.5688C117.348 67.4616 118.633 66.9637 119.806 66.1631C120.941 68.5206 121.861 70.9285 122.548 73.3931C119.024 72.8321 109.355 77.3327 114.366 80.7302C115.482 81.4866 116.969 81.5244 118.268 81.6505C119.831 81.8081 121.628 81.9972 123.172 81.556C123.462 81.474 123.695 81.3416 123.903 81.1904C124.01 82.6906 124.042 84.2097 123.972 85.7414C123.601 85.691 123.229 85.6405 122.869 85.6216C122.157 85.5838 122.075 86.6175 122.705 86.8193C126.481 88.0547 131.322 89.1704 130.515 94.2572Z" fill="#251C1C"/>
<path d="M95.0519 44.1328C95.0269 44.1703 95.0019 44.1952 94.977 44.2327C94.9707 44.2639 94.9895 44.2389 95.0519 44.1328Z" fill="black"/>
<path d="M111.517 40.6724C110.836 39.4369 109.437 39.355 108.145 39.2856C107.735 39.2604 107.325 39.2667 106.922 39.2667C105.516 36.9975 101.633 35.6486 98.6896 36.613C99.0741 35.9511 99.1435 35.2704 98.4564 34.6905C97.1327 33.5748 95.3993 34.6968 94.6555 36.0268C93.6595 34.8418 91.6551 33.2596 90.9554 34.8859C90.6213 35.6549 91.3777 36.5121 91.8064 37.0542C92.2917 37.6783 92.8275 38.2267 93.4074 38.7309C91.0878 37.3568 88.4782 36.6256 85.6669 36.9219C83.5489 37.1425 80.1703 38.1951 79.5148 40.5841C79.3068 40.6219 79.0988 40.6598 78.8908 40.7039C76.6972 41.1388 74.6297 41.7313 73.2682 43.6034C73.1484 43.7673 73.4068 43.9501 73.5392 43.8114C75.0016 42.3301 77.1384 41.4225 79.4391 40.8867C79.4076 41.0821 79.3887 41.2838 79.395 41.4918C79.4076 42.0528 79.5715 42.5634 79.8426 43.0298C78.979 43.3828 78.2226 43.9123 77.6868 44.7443C77.5797 44.9145 77.794 45.1351 77.9642 45.0217C78.7584 44.4985 79.4896 44.0194 80.3027 43.6665C81.7966 45.3936 84.797 46.3643 86.5809 46.7803C88.9761 47.3413 91.674 47.1648 93.6028 45.6898C93.8865 46.9253 95.0589 47.7573 96.3448 47.5556C97.1768 47.4233 98.5636 46.3706 98.4816 45.381C98.5131 45.3873 98.5321 45.4062 98.5636 45.4125C101.072 46.0807 105.088 45.526 106.695 43.2567C106.783 43.1307 106.827 43.0046 106.903 42.8785C107.817 43.2504 108.712 43.761 109.607 44.4607C109.929 44.7128 110.389 44.2905 110.074 43.9942C109.273 43.2441 108.296 42.6453 107.243 42.2167C107.577 41.2964 107.502 40.4139 107.124 39.6323C108.636 39.7584 110.055 40.1303 111.101 41.0001C111.328 41.1766 111.668 40.9497 111.517 40.6724ZM86.2279 45.589C85.2256 45.3179 83.6183 44.9208 82.8241 44.2338C82.2757 44.0447 81.9731 43.6917 81.8786 43.1937C83.4733 42.9038 85.0933 42.9605 86.7069 42.9542C86.7384 42.9542 86.7511 42.9038 86.7132 42.8975C85.3013 42.6201 83.53 42.368 81.8659 42.5319C81.9101 42.223 82.0046 41.8763 82.1622 41.4855C81.9857 41.1136 81.8723 40.7858 81.7966 40.477C84.1604 40.2059 86.5494 40.2626 88.4782 40.5652C88.516 40.5715 88.5349 40.5211 88.4971 40.5085C86.2279 39.8529 83.9902 39.897 81.7336 40.2059C81.5508 39.0272 82.2063 38.3527 83.7065 38.1699C87.5264 36.9471 91.5794 38.1636 94.9328 40.1366C94.9328 40.4328 94.9202 40.7354 94.9328 41.0317C94.9328 41.0695 94.958 41.0821 94.9706 41.1136C94.9643 41.1325 94.9517 41.1388 94.9517 41.1577C94.4349 45.6142 89.8901 46.5786 86.2279 45.589ZM97.5235 45.5575C97.3218 46.0617 96.9373 46.4715 96.4204 46.6606C95.3993 47.0325 94.3592 46.3391 93.9306 45.4188C94.3151 45.0784 94.6807 44.6939 94.977 44.2275C95.0085 44.1329 95.2858 43.5845 95.5316 43.0676C96.1557 43.9816 96.7797 44.6498 97.7126 45.091C97.6496 45.2297 97.5928 45.381 97.5235 45.5575ZM100.852 42.1789C102.402 42.0213 103.808 42.0591 105.138 42.3301C104.993 42.8029 104.816 43.2946 104.564 43.8303C102.346 45.3684 95.8405 45.2927 95.7271 41.164C95.7271 41.1388 95.7081 41.1325 95.7018 41.1073C95.7081 41.0821 95.727 41.0695 95.7334 41.0443C95.7334 41.0254 95.7334 41.0001 95.7334 40.9812C95.8153 41.0064 95.9225 40.9686 95.9288 40.8489C95.9288 40.8047 95.9288 40.7606 95.9288 40.7165C95.9918 40.7291 96.0485 40.6535 95.9981 40.6093C95.9792 40.5904 95.954 40.5715 95.9351 40.5526C95.9351 40.4139 95.9351 40.2689 95.9414 40.1303C96.0989 40.0798 96.2313 39.9601 96.2628 39.7899C96.3007 39.5819 96.37 39.3865 96.4267 39.1911C96.5087 39.1722 96.5906 39.1343 96.6536 39.0524C98.7337 36.7517 101.016 36.2915 103.499 37.672C104.35 38.0502 104.917 38.5986 105.214 39.3045C103.6 39.3991 101.999 39.6323 100.41 40.0483C100.373 40.0609 100.392 40.1114 100.429 40.1051C101.822 39.9034 103.562 39.6386 105.302 39.5819C105.485 40.1681 105.485 40.8552 105.327 41.6305C103.808 41.3468 102.238 41.4162 100.839 41.9835C100.738 42.0276 100.732 42.1915 100.852 42.1789Z" fill="black"/>
<path d="M110.666 4.47852C109.096 5.20341 107.647 6.10479 106.241 7.10072C106.235 7.10702 106.235 7.10702 106.235 7.11333C106.052 7.23939 105.907 7.40328 105.894 7.66172C105.875 8.10295 106.342 8.51898 106.607 8.82154C107.187 9.48339 107.829 10.0885 108.491 10.6684C108.788 10.9269 109.21 10.8197 109.342 10.4415C109.973 8.61983 110.691 6.83598 111.416 5.05212C111.599 4.59828 111.019 4.31463 110.666 4.47852Z" fill="#251C1C"/>
<path d="M67.6708 11.4374C66.1895 10.9772 64.7019 10.5612 63.2206 10.12C62.855 10.0128 62.5651 10.4289 62.7416 10.744C63.5169 12.1686 64.2355 13.7129 64.5317 15.314C64.6263 15.8245 65.4331 15.6985 65.4268 15.1942C65.4268 15.0744 65.4079 14.9547 65.4016 14.8286C65.805 14.3306 66.2084 13.8453 66.6308 13.3788C66.8136 13.3095 66.9522 13.1708 66.9837 12.9943C67.2611 12.7107 67.551 12.4396 67.8662 12.1812C68.1436 11.9669 67.9608 11.5319 67.6708 11.4374Z" fill="#251C1C"/>
<path d="M87.0032 24.6681C86.688 23.9999 85.7488 24.3907 85.711 25.0211C85.6353 26.307 85.8875 27.4542 85.5975 28.7464C85.3391 29.8873 84.6457 32.0178 83.0321 31.6144C80.8322 31.066 79.5337 27.555 79.4391 25.601C79.4139 25.1093 78.6764 25.103 78.6701 25.601C78.6638 28.3177 80.164 33.2785 83.6813 33.1398C87.1608 33.0011 88.1315 27.1075 87.0032 24.6681Z" fill="black"/>
<path d="M105.945 24.3467C105.579 23.4327 104.092 23.7983 104.432 24.7627C104.905 26.0801 104.835 27.2841 104.489 28.6267C104.218 29.6604 103.858 31.6901 102.333 30.732C100.259 29.4335 99.5531 26.244 99.3577 24.0126C99.3451 23.8361 99.1119 23.7983 99.0552 23.9685C98.1412 26.6348 99.6855 32.0557 102.976 32.497C106.399 32.9634 106.77 26.3953 105.945 24.3467Z" fill="black"/>
<path d="M27.4415 93.932C22.9716 93.2724 18.3163 93.7194 13.8211 93.7848C9.27109 93.8502 4.74219 93.981 0.200644 94.4116C-0.0647708 94.4389 -0.0689837 94.9239 0.200644 94.9512C4.73797 95.3818 9.26688 95.5126 13.8211 95.578C18.3205 95.6434 22.9673 96.0904 27.4415 95.4309C28.183 95.3218 28.1872 94.041 27.4415 93.932Z" fill="#251C1C"/>
<path d="M154.26 97.5287C147.604 96.7723 140.178 97.0748 133.528 97.806C132.898 97.8754 132.898 98.72 133.528 98.7894C140.185 99.5205 147.604 99.8168 154.26 99.0667C155.243 98.9532 155.25 97.6421 154.26 97.5287Z" fill="#251C1C"/>
</svg>
