<svg width="102" height="102" viewBox="0 0 102 102" fill="none" xmlns="http://www.w3.org/2000/svg">
<path d="M31.9752 93.7901C32.1286 93.5954 32.2811 93.3998 32.4345 93.2051C33.075 93.9223 34.543 93.6999 34.4845 92.4918C34.45 91.7736 34.4145 91.0544 34.38 90.3363C34.3359 89.4302 33.051 88.643 32.3731 89.505C32.3338 89.5548 32.2945 89.6057 32.2542 89.6555C31.6866 89.6565 31.1132 89.6575 30.535 89.6584C30.2541 88.9412 29.3624 88.6277 28.7247 89.1771C28.2156 88.5912 27.0545 88.621 26.6566 89.576L26.6345 89.6296C24.2873 89.5951 21.94 89.5587 19.6034 89.7035C19.2179 89.1656 18.4182 89.0064 17.8602 89.5463C17.6147 88.8051 16.444 88.4695 15.8984 89.1042C15.5561 89.5031 15.2541 89.8876 14.9779 90.2826C14.814 90.3152 14.649 90.3498 14.4851 90.3862C14.3834 90.4082 14.2674 90.4657 14.1495 90.5434C13.439 90.7179 12.8877 91.4457 13.4275 92.1994C13.5234 92.4017 13.6192 92.603 13.7151 92.8053C13.7506 93.1821 13.9817 93.5149 14.2866 93.7306C14.8629 94.7249 15.5925 95.5754 16.4862 96.2504C16.4459 96.4854 16.4066 96.7212 16.3663 96.9561C16.2033 97.9149 17.1468 98.6552 17.912 98.3839C17.9091 98.3973 17.9053 98.4107 17.9024 98.4241C17.6128 99.6677 19.4279 100.569 20.0511 99.3302C20.1317 99.1711 20.2113 99.0109 20.2918 98.8518C20.7022 99.1221 21.2382 99.1433 21.6514 98.6629C21.7166 98.5862 21.7684 98.5075 21.8326 98.4308C22.0752 98.6983 22.4281 98.8518 22.7857 98.8393C22.7819 98.8642 22.7771 98.8882 22.7723 98.9131C22.5364 100.423 24.457 100.935 25.039 99.5383C25.2279 99.0857 25.4158 98.6332 25.6047 98.1796C26.1407 98.1144 26.6824 98.0185 27.2338 97.8843C29.1313 97.4193 30.9732 95.7777 31.9752 93.7901Z" fill="#EF4036"/>
<path d="M45.8136 13.5245C44.3016 13.4583 44.3044 15.8094 45.8136 15.8756C57.5853 16.3905 69.6129 14.7269 81.3548 13.8956C82.8554 13.7892 82.8669 11.4381 81.3548 11.5445C69.6129 12.3758 57.5853 14.0384 45.8136 13.5245Z" fill="#39B100"/>
<path d="M71.0218 19.4844H48.5745C47.0614 19.4844 47.0595 21.8354 48.5745 21.8354H71.0218C72.5348 21.8345 72.5367 19.4844 71.0218 19.4844Z" fill="#39B100"/>
<path d="M58.4513 29.3613H46.7785C45.2664 29.3613 45.2635 31.7124 46.7785 31.7124H58.4513C59.9634 31.7114 59.9663 29.3613 58.4513 29.3613Z" fill="#39B100"/>
<path d="M41.4857 4.26877C40.8692 4.27453 40.2546 4.56028 39.5383 4.74341C39.9631 5.66006 40.152 6.12989 41.1473 5.72046C42.0975 5.33022 43.2279 5.27173 44.2807 5.2631C46.8581 5.242 49.4364 5.33596 52.0147 5.37911C63.98 5.58238 75.9444 5.79909 87.9097 5.96209C89.1274 5.97935 89.6327 6.30725 89.6893 7.59497C89.8024 10.1685 90.139 12.7315 90.2867 15.305C90.5273 19.5047 90.8859 23.712 90.8332 27.9108C90.7795 32.1738 90.2828 36.43 89.9923 40.6892C89.8494 42.7775 89.8801 44.8899 89.5723 46.9523C89.1408 49.8509 88.2683 52.6909 87.948 55.5952C87.5492 59.2168 87.4705 62.8786 87.3449 66.525C87.226 69.9557 87.2577 73.3913 87.1656 76.823C87.0784 80.0715 86.8444 83.318 86.8243 86.5666C86.8176 87.7747 86.5299 88.1832 85.293 88.1717C79.3626 88.117 73.4284 88.2437 67.5009 88.1056C61.7287 87.9723 55.9632 87.5657 50.1929 87.3404C47.0844 87.2196 43.971 87.2061 40.8596 87.2013C40.4895 87.2013 40.1175 87.5638 39.7464 87.7585C40.1136 87.9176 40.4828 88.2158 40.8472 88.211C42.2557 88.1928 43.6709 87.9425 45.0689 88.024C49.6262 88.2915 54.174 88.7394 58.7323 88.98C63.2494 89.2178 67.7751 89.3895 72.2979 89.4077C76.9205 89.4249 81.543 89.1698 86.1655 89.142C87.6594 89.1325 88.018 88.4574 87.9423 87.1687C87.8541 85.6615 87.7314 84.1485 87.7841 82.6441C87.9807 77.0138 88.1618 71.3806 88.5061 65.7589C88.7803 61.2687 89.2511 56.7899 89.6912 52.3112C90.1092 48.0665 90.6193 43.8313 91.047 39.5875C91.1534 38.5261 91.0585 37.4464 91.1285 36.3802C91.4123 32.0251 91.7719 27.6739 91.9943 23.316C92.0528 22.1789 91.6578 21.0263 91.5724 19.8738C91.325 16.5256 91.1506 13.1706 90.9022 9.82141C90.792 8.3237 90.5734 6.83368 90.3825 5.15476C90.2541 5.12983 89.8858 5.00325 89.5148 4.99366C86.9844 4.9227 84.4531 4.86707 81.9218 4.82488C71.3659 4.65037 60.8101 4.4759 50.2543 4.31386C47.3317 4.26975 44.4083 4.24097 41.4857 4.26877Z" fill="#251C1C"/>
<path d="M85.6667 91.6869C82.4181 91.475 79.1629 91.2037 75.9115 91.2152C70.6139 91.2315 65.3173 91.4741 60.0188 91.5824C57.8796 91.6256 55.7385 91.5518 53.5984 91.5585C49.5665 91.5709 45.5346 91.594 41.5027 91.6457C41.2217 91.6496 40.7721 91.8691 40.7088 92.0811C40.6378 92.3198 40.8507 92.7196 41.053 92.9497C41.6532 93.6314 42.357 94.225 42.9294 94.9268C43.7167 95.8934 44.4732 95.5233 45.1827 94.9298C45.759 94.4484 46.2336 93.8443 47.0802 92.9497C47.5021 93.5576 47.8147 94.1177 48.2318 94.5846C49.1667 95.6317 50.2578 95.7447 51.0172 94.6507C51.9243 93.3438 52.6645 93.806 53.4834 94.5587C54.7807 95.7505 55.3348 95.7678 56.5928 94.5136C57.265 93.8424 57.823 93.7657 58.5374 94.5414C59.7072 95.8138 60.4589 95.7879 61.62 94.4408C62.2692 93.6862 62.715 93.6995 63.3632 94.411C64.2779 95.4139 65.5484 96.1896 66.6415 95.063C68.2504 93.4052 69.1881 94.5385 70.2975 95.5146C70.473 95.669 70.658 95.8119 70.8325 95.9548C71.3081 95.6892 71.7703 95.5098 72.1289 95.2068C72.4635 94.923 72.6879 94.5097 73.0618 94.0207C73.4521 94.4781 73.7004 94.829 74.0101 95.1148C74.3553 95.435 74.7465 95.7102 75.1348 95.9816C76.2461 96.7592 77.0113 96.4993 78.2232 94.712C78.7305 93.9632 79.0564 93.8655 79.6308 94.5606C79.9319 94.925 80.3308 95.2049 80.6462 95.5578C81.421 96.4265 82.0643 96.3718 82.632 95.3574C82.8084 95.0429 82.9637 94.7169 83.1651 94.3257C83.423 94.5175 83.5687 94.6306 83.7193 94.7389C84.5103 95.3066 85.3032 95.8723 86.0952 96.439C86.4213 95.6211 86.7473 94.8032 87.0733 93.9853C87.0905 93.9393 87.1145 93.8961 87.127 93.8491C87.5028 92.4262 87.126 91.7819 85.6667 91.6869ZM42.195 92.6458C43.4577 92.6458 44.6285 92.6458 45.7935 92.6458C44.663 94.7734 43.6907 94.8175 42.195 92.6458ZM49.5972 94.1531C48.9183 94.1819 48.1954 93.1578 47.4916 92.5969C47.5855 92.4368 47.6786 92.2757 47.7725 92.1146C48.997 92.1146 50.2214 92.1146 51.4468 92.1146C51.5398 92.2488 51.6318 92.3831 51.7248 92.5173C51.0172 93.1051 50.3288 94.1224 49.5972 94.1531ZM52.7489 92.5892C54.2092 92.5892 55.4605 92.5892 56.7453 92.5892C54.9475 94.8348 54.9475 94.8348 52.7489 92.5892ZM58.0723 92.6899C59.3907 92.5135 60.6746 92.3419 62.1157 92.1491C60.5682 94.8003 59.8251 94.8808 58.0723 92.6899ZM85.7098 95.3698C84.9379 94.6804 84.4403 94.2969 84.0165 93.8463C82.8477 92.6046 82.5255 92.6439 81.8774 94.157C81.7709 94.4063 81.6089 94.6325 81.42 94.9614C81.1927 94.761 81.047 94.6574 80.932 94.5261C78.9807 92.3035 78.8388 92.2632 77.0755 94.5414C76.342 95.4888 75.6545 95.2874 74.9823 94.7341C72.9391 93.0495 72.9612 93.0226 70.7721 94.7773C70.2131 94.248 69.6963 93.5999 69.0328 93.1943C68.656 92.9632 67.8026 92.9047 67.5638 93.153C65.3729 95.4302 64.4285 94.5616 62.832 92.0887C68.422 92.0887 73.8864 92.0369 79.3489 92.1184C81.2253 92.1462 83.1037 92.4684 84.9667 92.7493C85.3963 92.8145 86.0233 93.2 86.1048 93.5462C86.218 94.0237 85.9006 94.6028 85.7098 95.3698Z" fill="#251C1C"/>
<path d="M78.7126 13.3178C72.1091 13.547 65.5085 13.8806 58.903 14.0628C54.6707 14.1798 50.4327 14.0878 46.1975 14.106C45.5896 14.1079 44.9817 14.2028 44.3738 14.2546C44.392 14.4905 44.4102 14.7263 44.4284 14.9613C56.7821 14.7417 69.1367 14.5221 81.4903 14.3025C81.4961 14.0619 81.5009 13.8202 81.5057 13.5796C80.5747 13.4866 79.6398 13.2862 78.7126 13.3178Z" fill="#251C1C"/>
<path d="M81.5458 30.1102C81.2322 29.9318 80.9283 29.6164 80.6052 29.5943C76.6404 29.3326 72.6727 29.1034 68.7051 28.8838C61.3805 28.4782 54.0607 28.3431 46.764 29.3086C46.4591 29.3489 46.1676 29.4917 45.8704 29.5876C45.879 29.7381 45.8876 29.8887 45.8963 30.0392C46.3527 30.0392 46.8091 30.0565 47.2645 30.0363C50.5648 29.8887 53.8709 29.5282 57.1635 29.6212C64.9617 29.8427 72.7523 30.2847 80.5476 30.603C80.8736 30.6165 81.2131 30.2828 81.5458 30.1102Z" fill="#251C1C"/>
<path d="M79.6561 21.1083C79.1326 20.9405 78.61 20.6308 78.0846 20.626C73.9069 20.5857 69.7283 20.6039 65.6494 20.6039C65.6437 20.5934 65.6389 20.5848 65.6331 20.5742H63.6588C63.3146 20.6778 62.8812 20.6183 62.4718 20.6135C61.2551 20.6001 60.0383 20.5953 58.8215 20.5992C54.782 20.6116 50.7424 20.6087 46.7038 20.6701C46.1975 20.6778 45.696 21.0316 45.1936 21.2253C45.2492 21.3691 45.3058 21.5129 45.3624 21.6567H79.5219C79.5669 21.4746 79.611 21.2915 79.6561 21.1083Z" fill="#251C1C"/>
<path d="M79.3553 37.9621C79.3812 37.7713 79.4071 37.5805 79.433 37.3897C78.9401 37.2545 78.4415 36.9831 77.9564 37.0052C72.5926 37.2478 67.2318 36.6494 61.845 37.4165C57.8313 37.988 53.6997 37.7387 49.6218 37.872C49.1366 37.8873 48.6553 38.0043 48.172 38.0743C48.1528 38.267 48.1327 38.4597 48.1135 38.6525C48.7406 38.7915 49.3792 39.0868 49.9929 39.0418C52.598 38.8519 55.1926 38.385 57.7968 38.3408C64.6295 38.2248 71.465 38.2824 78.2996 38.2507C78.6515 38.2488 79.0034 38.0628 79.3553 37.9621Z" fill="#251C1C"/>
<path d="M78.1958 46.8131C77.7959 46.6251 77.4076 46.3164 76.9924 46.2733C76.0288 46.1726 75.0498 46.1524 74.0805 46.1831C66.9141 46.4075 59.7487 46.6549 52.5824 46.8879C51.2688 46.9301 49.9504 46.883 48.6435 46.9904C48.2638 47.0221 47.9176 47.4488 47.5562 47.6952C48.003 47.8295 48.4623 48.1047 48.8966 48.0701C49.796 47.9963 50.6791 47.628 51.5737 47.6098C57.8023 47.4785 64.0319 47.396 70.2614 47.3203C72.833 47.2896 75.4056 47.3155 77.9781 47.3155C78.051 47.1477 78.1239 46.9809 78.1958 46.8131Z" fill="#251C1C"/>
<path d="M45.4298 75.2823C48.3398 75.4195 51.2537 75.5288 54.1676 75.5546C61.3148 75.617 68.462 75.6342 75.6091 75.6553C76.2439 75.6572 76.8786 75.5556 77.5143 75.5019C77.5095 75.3418 77.5048 75.1826 77.5009 75.0225C76.2257 74.8298 74.9552 74.5297 73.6733 74.4673C71.2934 74.3513 68.9059 74.313 66.5222 74.3513C62.5412 74.4146 58.561 74.5594 54.5799 74.6774C53.0467 74.7234 51.5069 74.9045 49.9823 74.8163C48.4511 74.7281 46.938 74.3446 45.4077 74.1768C45.0711 74.1394 44.6953 74.4664 44.3376 74.6265C44.701 74.8547 45.0568 75.2651 45.4298 75.2823Z" fill="#251C1C"/>
<path d="M44.7123 66.8485C46.8831 66.8485 49.0549 66.8831 51.2247 66.8428C59.0392 66.6971 66.8528 66.5244 74.6663 66.3739C75.0863 66.3652 75.5072 66.51 75.9282 66.51C76.3194 66.511 76.7105 66.4151 77.1018 66.3624C77.0624 66.1226 77.0231 65.8829 76.9838 65.6432C76.2302 65.6432 75.4756 65.6318 74.7219 65.6452C70.2969 65.7248 65.8729 65.8466 61.4478 65.884C56.3372 65.9271 51.2266 65.8868 46.116 65.9166C45.6107 65.9194 45.1054 66.1572 44.6001 66.2857C44.6375 66.4736 44.6749 66.6615 44.7123 66.8485Z" fill="#251C1C"/>
<path d="M75.2109 80.2474C69.7781 80.4382 64.3454 80.6214 58.9136 80.8265C54.4387 80.9963 49.9648 81.1755 45.4928 81.4076C45.1303 81.4258 44.7909 81.8841 44.4409 82.1373C44.8523 82.2571 45.2732 82.5055 45.673 82.4748C49.3396 82.1958 52.9966 81.7154 56.667 81.5927C61.3826 81.4354 66.1077 81.5543 70.8281 81.5543C70.8281 81.4574 70.8281 81.3606 70.8281 81.2637C72.5818 81.2637 74.3355 81.282 76.0883 81.2446C76.3529 81.2398 76.6108 80.978 76.8726 80.8352C76.6108 80.6376 76.374 80.373 76.0796 80.2628C75.8236 80.1669 75.5024 80.2369 75.2109 80.2474Z" fill="#251C1C"/>
<path d="M65.6312 55.4972C68.3035 55.4531 70.9757 55.3899 73.6461 55.293C74.3221 55.2681 74.9904 55.0782 75.6625 54.9641C74.9559 54.7263 74.2482 54.2795 73.5435 54.2852C69.3659 54.3207 65.1882 54.4483 61.0115 54.571C56.2643 54.7119 51.5181 54.8759 46.7728 55.0484C46.4362 55.0609 46.1064 55.2297 45.7737 55.3256C45.7823 55.4205 45.79 55.5154 45.7986 55.6104C46.0959 55.6669 46.3941 55.7772 46.6903 55.7734C53.0043 55.69 59.3182 55.6018 65.6312 55.4972Z" fill="#251C1C"/>
<path d="M34.9589 16.6275C34.9618 16.2881 34.6377 15.871 34.3529 15.6149C32.2205 13.6934 29.9758 11.888 27.9306 9.8792C25.7416 7.72949 23.7309 5.39666 21.634 3.13477C18.6683 6.29125 15.7736 9.33938 12.9182 12.424C11.3179 14.1518 10.1835 15.9793 10.6054 18.6008C11.0436 21.3162 11.1855 24.1045 11.1817 26.8602C11.1759 30.4443 10.8528 34.0256 10.7483 37.6107C10.5997 42.7721 10.3648 47.9392 10.4568 53.0987C10.5805 60.0963 11.011 67.0881 11.2469 74.0847C11.3993 78.5951 11.385 83.1103 11.5633 87.6187C11.6113 88.8422 12.1904 90.0359 12.3486 91.2671C12.734 94.252 16.2559 98.2015 19.2426 98.6559C21.1095 98.9388 23.0252 99.0807 24.9093 99.0126C26.3313 98.9608 27.8875 98.7643 29.1215 98.1247C32.1716 96.5455 33.6798 93.8301 33.9119 90.4003C33.9368 90.0379 34.165 89.6936 34.2398 89.3293C34.3779 88.6591 34.5744 87.9773 34.5581 87.3042C34.538 86.5007 34.187 85.6982 34.2129 84.9024C34.2983 82.2886 34.5763 79.6796 34.6185 77.0658C34.6895 72.5689 34.6684 68.07 34.6195 63.5721C34.6051 62.3237 34.2187 61.0743 34.2398 59.8297C34.305 55.8486 34.5409 51.8705 34.6022 47.8894C34.7614 37.4688 34.8678 27.0481 34.9589 16.6275ZM20.2379 5.98346C21.5879 4.52891 21.7682 4.57682 23.0674 6.12247C23.7444 6.92789 24.5297 7.64032 25.2382 8.42082C25.5077 8.7171 25.7004 9.08239 26.176 9.78234C22.9332 9.78234 20.1631 9.78234 16.9069 9.78234C18.2176 8.2808 19.1976 7.10434 20.2379 5.98346ZM15.3143 11.3002C15.6566 10.9387 16.368 10.792 16.9146 10.7834C20.1641 10.7355 23.4174 10.6933 26.664 10.8112C27.2796 10.8342 27.9019 11.5428 28.4647 12.003C29.7774 13.0769 31.0545 14.192 32.6299 15.5306C25.6256 16.0483 18.9454 16.0205 11.8654 15.4174C13.1818 13.821 14.1809 12.4968 15.3143 11.3002ZM27.2144 60.9448C27.2729 64.5309 27.6085 68.1122 27.7609 71.6992C27.9412 75.9286 28.062 80.1609 28.1876 84.3922C28.2135 85.2533 27.9604 85.8833 26.8826 85.8996C24.7444 85.9322 22.6072 86.0865 20.4709 86.0798C20.1737 86.0789 19.6405 85.4584 19.6175 85.0998C19.141 77.5375 18.6395 69.9752 18.3145 62.4052C17.9367 53.6184 17.7181 44.8259 17.441 36.0353C17.3029 31.6582 17.3231 27.2706 16.9942 22.9088C16.8666 21.2059 16.9203 19.5826 17.231 17.9459C17.302 17.5691 17.6893 16.9602 17.9415 16.9545C21.19 16.8873 24.4405 16.9104 27.8885 16.9104C27.8885 17.5825 27.8913 18.0159 27.8875 18.4493C27.7897 30.0301 27.7111 41.6119 27.5759 53.1927C27.5452 55.7777 27.1722 58.3637 27.2144 60.9448ZM11.5048 48.4302C11.3917 40.0567 11.757 31.6764 11.8912 23.2981C11.9267 21.1235 11.897 18.9469 11.897 16.5527C13.2288 16.663 14.529 16.7713 15.9596 16.8892C15.9596 17.9564 15.9385 18.9536 15.9625 19.9498C16.1494 27.935 16.3172 35.9212 16.5493 43.9044C16.6883 48.7044 16.928 53.5014 17.1313 58.2994C17.3432 63.3094 17.5273 68.3212 17.7957 73.3292C17.9894 76.9613 18.348 80.5857 18.5388 84.2178C18.6424 86.1767 18.5532 86.1814 16.5061 86.0808C12.8558 85.9015 12.7034 85.9072 12.5624 82.2646C12.1252 70.9897 11.6582 59.7118 11.5048 48.4302ZM27.2336 97.8831C24.4846 98.5543 21.9513 98.3068 19.4018 97.6404C16.275 96.8235 14.3152 94.5962 13.3372 91.5682C13.2537 91.3103 14.017 90.4895 14.4868 90.386C19.1602 89.3571 23.9122 89.6188 28.6488 89.6543C29.9921 89.6639 31.3364 89.6553 32.6395 89.6553C33.373 93.1119 30.3785 97.115 27.2336 97.8831ZM31.0238 88.6121C30.7419 88.5536 30.437 88.5344 30.1532 88.5747C27.4081 88.9649 24.7013 89.0771 21.9216 88.5574C20.5994 88.3101 19.1228 88.9438 17.7085 89.1183C16.6499 89.2497 15.5808 89.3235 14.5137 89.3533C12.6679 89.405 12.3965 89.0388 12.7379 86.8872C19.5744 87.3695 26.4272 87.4279 33.2292 85.6991C33.8927 88.6744 33.4823 89.1242 31.0238 88.6121ZM33.9176 20.9384C33.8189 35.157 33.7201 49.3746 33.6156 63.5932C33.5696 69.8246 33.4842 76.0562 33.4813 82.2877C33.4804 83.7729 33.0748 84.6952 31.4592 84.8755C30.7822 84.9512 30.1341 85.2859 29.2663 85.5697C29.1282 81.0651 29.2778 76.7244 28.808 72.4509C27.7034 62.3937 28.063 52.3058 28.4935 42.2792C28.8195 34.6929 28.5913 27.1229 28.8722 19.5519C28.9048 18.689 28.993 17.8279 29.064 16.8471C30.6892 16.8471 32.1649 16.8471 33.9186 16.8471C33.9186 18.3294 33.9263 19.6344 33.9176 20.9384Z" fill="#251C1C"/>
</svg>
