<svg width="87" height="86" viewBox="0 0 87 86" fill="none" xmlns="http://www.w3.org/2000/svg">
<path d="M47.5956 63.8666C51.4149 60.7948 52.6723 55.2188 49.7736 51.1484C49.6012 50.9062 49.4172 50.6754 49.2174 50.4447C47.3567 47.2368 43.6119 45.1637 39.7574 45.4361C35.2291 45.7538 31.4959 49.185 30.4813 53.3992C28.2603 62.656 39.9061 70.0554 47.5956 63.8666Z" fill="#39B100"/>
<path d="M81.9653 31.4853C81.3777 30.9217 80.6842 30.4412 79.9713 30.0175C79.3876 29.6732 78.6748 29.5257 78.0833 29.1853C76.7436 28.4173 75.4587 27.57 74.1347 26.7794C73.1084 26.1665 72.0117 25.6595 71.0363 24.9862C67.8595 22.8072 64.7529 20.5223 61.5604 18.366C58.2465 16.1341 54.8621 14.0006 51.509 11.8254C47.5722 9.26434 43.6001 6.74485 39.7103 4.11571C38.1473 3.06027 36.8076 1.70217 35.2799 0.593767C34.0186 -0.321705 33.1372 -0.170369 32.1657 0.990994C29.9799 3.58987 27.8568 6.23793 25.6631 8.83302C23.6928 11.1633 21.8243 13.6033 19.6267 15.718C16.3637 18.8502 12.8069 21.6988 9.45376 24.7479C6.50019 27.4338 2.69269 29.4009 1.35692 33.4941C1.25507 33.8005 0.855469 34.0047 0.718366 34.3074C0.224798 35.4158 -0.558656 36.5128 0.608673 37.7082C0.85154 37.9579 0.878953 38.4611 0.894621 38.8507C1.03172 42.0019 1.04739 45.1606 1.28242 48.3043C1.58796 52.4012 2.00712 56.4905 2.47327 60.5761C2.84149 63.7689 3.37036 66.9466 3.80126 70.1356C3.93052 71.0813 3.92265 72.0498 4.05584 72.9955C4.39663 75.4393 4.77661 77.8755 5.14091 80.3155C5.31719 81.4693 5.41117 82.6382 5.6932 83.7656C6.15544 85.6154 6.93503 86.092 8.89755 85.9861C10.2451 85.9142 11.5925 85.8802 12.9361 85.8235C14.6323 85.7478 16.3284 85.6835 18.0207 85.5776C20.5002 85.4225 22.9759 85.1161 25.4594 85.0858C31.2373 85.0101 36.8899 84.019 42.5738 83.1981C47.2039 82.5285 51.8379 81.9157 56.4837 81.3747C61.9796 80.7354 67.4872 80.1945 72.9909 79.6195C76.8337 79.2147 80.653 77.9172 84.5545 79.2639C86.0274 79.4076 87.1517 78.3446 86.9833 76.8693C86.8266 75.5112 86.4974 74.1683 86.3525 72.8102C86.1409 70.8393 86.1213 68.8456 85.8471 66.886C85.2948 62.9556 84.6172 59.044 84.014 55.1174C83.6144 52.545 83.1718 49.9764 82.8975 47.3926C82.4627 43.307 82.1494 39.21 81.8008 35.1131C81.7616 34.6554 81.695 34.1144 81.8909 33.7362C82.2983 32.9607 82.7213 32.2079 81.9653 31.4853ZM6.91934 31.3C8.29037 29.5598 9.70447 27.8197 11.3144 26.2951C15.2669 22.55 19.4269 19.013 23.3246 15.2187C25.6122 12.9943 27.5631 10.4408 29.6627 8.03109C30.3482 7.24424 30.9906 6.41577 31.7153 5.66675C33.384 3.94173 34.0539 3.90384 36.0947 5.23166C40.8541 8.3261 45.6017 11.432 50.3885 14.4848C52.8094 16.0282 55.3673 17.3863 57.7568 18.9713C61.7837 21.6421 65.7245 24.4376 69.7083 27.1651C70.4017 27.638 71.1342 28.0541 71.8471 28.4967C72.4778 28.8864 73.1124 29.2761 74.0408 29.8511C71.3497 30.7514 68.9484 30.6569 66.5824 30.6304C63.903 30.6001 61.2041 31.0124 58.5443 30.3315C58.0155 30.1953 57.4082 30.2748 56.8441 30.3239C51.4109 30.7892 45.9818 31.3113 40.5408 31.7274C38.069 31.9165 35.5815 31.9847 33.098 31.9771C30.3285 31.9733 27.6062 32.204 24.8641 32.6504C21.3034 33.2292 17.6877 33.513 14.0956 33.9177C12.1252 34.1371 10.1549 34.383 8.17675 34.5457C7.4599 34.6024 6.71956 34.4436 6.03797 34.3868C5.70501 33.006 6.30434 32.0755 6.91934 31.3ZM6.82925 37.3148C11.1108 36.7511 15.3883 36.1686 19.6776 35.6617C23.1287 35.2569 26.5916 34.9202 30.0544 34.6176C31.8877 34.4587 33.7365 34.4511 35.5737 34.3489C41.4495 34.0236 47.3136 33.547 53.1933 33.3844C58.364 33.2406 63.5465 33.4449 68.725 33.4865C70.5269 33.5016 72.3289 33.4903 74.3306 33.4903C67.6243 39.6603 59.7938 44.1771 52.402 49.8364C52.5274 47.5817 51.1916 46.3863 49.6129 45.6676C47.5329 44.7256 45.4607 43.5264 42.9693 43.8063C42.2016 43.8933 41.4104 43.7723 40.6387 43.8404C39.7338 43.9198 38.7584 43.9311 37.9554 44.2792C35.9106 45.1644 33.8893 46.0421 32.5535 48.0395C31.8367 49.1101 30.4578 49.7721 29.5255 50.5022C27.0303 49.4278 24.9032 48.3459 22.6547 47.5855C19.7913 46.6171 17.4527 44.8202 14.9065 43.3599C13.5198 42.5655 12.2584 41.5593 10.8678 40.7725C9.48113 39.9818 7.9926 39.3614 6.57066 38.6313C6.22594 38.4535 5.95572 38.1395 5.46607 37.7348C6.06932 37.5456 6.44145 37.3678 6.82925 37.3148ZM8.24331 80.6863C7.53038 75.8706 6.89977 71.5201 6.24559 67.1773C5.5875 62.8383 4.82362 58.5106 4.26346 54.1603C3.69938 49.7834 3.24495 45.3914 2.95508 40.9918C3.11568 40.8972 3.2802 40.8064 3.44081 40.7119C5.19964 41.6879 6.97029 42.6374 8.70561 43.6474C11.0755 45.0244 13.414 46.4544 15.7722 47.8503C16.1952 48.1 16.634 48.3724 17.1041 48.4934C21.7499 49.6926 25.7886 52.1326 29.9447 54.338C31.3118 55.0606 32.7455 55.6696 34.0891 56.4262C35.3504 57.1336 35.4444 57.6519 34.4808 58.6809C33.5328 59.6947 32.5262 60.6896 31.4097 61.5256C28.8401 63.4436 26.1175 65.1724 23.5948 67.1395C20.8998 69.2391 18.3105 71.4748 15.7683 73.7483C14.4756 74.9021 13.3592 76.1959 11.8471 77.1643C10.5975 77.9663 9.67701 79.2488 8.24331 80.6863ZM76.4106 76.7217C73.3865 77.1075 70.3351 77.2929 67.3071 77.6636C62.3127 78.2727 57.3298 78.9726 52.3393 79.6157C48.1204 80.1566 43.8979 80.6787 39.6751 81.1969C37.219 81.4996 34.7629 81.8779 32.2911 82.0519C27.2027 82.415 22.1064 82.6988 17.0101 82.9485C14.9966 83.0468 12.9754 82.9635 10.958 82.9635C10.9071 82.8311 10.86 82.6988 10.8091 82.5664C11.7492 81.6963 12.7089 80.8489 13.6216 79.9561C14.4207 79.1768 15.2238 78.3938 15.9368 77.5426C19.3212 73.5062 23.6105 70.4383 27.751 67.2114C30.9044 64.7601 34.0969 62.3541 37.2267 59.8763C37.9318 59.3202 38.5429 58.6052 39.0365 57.8638C39.91 56.5511 39.5458 55.6167 38.1161 54.8828C36.51 54.0581 34.943 53.1692 33.0197 52.1213C34.6649 50.4719 36.0046 49.0646 37.4305 47.7482C37.8653 47.3472 38.5155 47.0521 39.1149 46.9462C41.477 46.53 43.7919 46.8176 45.9817 47.7671C47.8933 48.5918 48.9274 50.0482 49.041 52.2271C48.6885 52.3671 48.332 52.5752 47.9481 52.6509C47.0236 52.8249 46.3383 53.2448 46.2207 54.2019C46.0993 55.1741 46.1109 56.1388 47.1568 56.7327C48.4926 57.4893 49.7971 58.314 51.1681 59.0138C56.993 61.9796 62.8258 64.934 68.6898 67.8355C70.6445 68.804 72.7716 69.466 74.6949 70.4874C76.7985 71.6071 78.7767 72.9501 80.7588 74.2628C81.1662 74.5351 81.3659 75.0988 81.7889 75.7117C79.9048 76.4947 78.1224 76.5023 76.4106 76.7217ZM82.169 61.2571C82.7683 64.5444 83.4734 67.8129 83.4186 71.3197C82.5646 70.9679 81.7615 70.7106 81.0407 70.321C73.4374 66.1862 65.321 63.0539 57.6394 59.0743C55.7043 58.0718 53.8279 56.971 51.9359 55.8929C51.646 55.7264 51.4267 55.4389 51.0036 55.0531C54.7407 50.4606 59.8839 47.7973 64.3025 44.3208C68.6897 40.8708 73.2965 37.678 77.7935 34.383C79.3055 35.4347 79.2389 36.8608 79.3642 38.0676C79.7755 41.9413 79.8656 45.8453 80.32 49.7115C80.7783 53.5777 81.4757 57.4212 82.169 61.2571Z" fill="#251C1C"/>
</svg>
