<svg width="102" height="102" viewBox="0 0 102 102" fill="none" xmlns="http://www.w3.org/2000/svg">
<path d="M30.0817 7.8334C27.4083 8.44022 26.5771 10.0141 25.6869 11.1166C24.741 12.2907 23.3516 13.6704 25.2311 14.8074C26.8904 15.8116 29.8585 16.0262 32.5723 16.1795C39.1196 16.55 45.7908 16.4159 52.3815 16.4031C58.9815 16.3903 65.5816 16.3865 72.1816 16.3213C75.0815 16.2932 78.7351 16.4695 80.993 15.5497C83.0214 14.7244 83.7502 13.3345 84.2123 12.2179C84.752 10.9161 84.9288 9.41628 81.2535 8.90654C81.1667 8.89505 81.0767 8.88483 80.9868 8.87461C81.5202 8.4824 81.1356 7.9024 79.7337 7.93945C66.3415 8.30226 52.9244 8.24477 39.5507 7.77464C36.6539 7.67243 32.7863 7.21891 30.0817 7.8334ZM30.6525 13.2335C30.5285 13.2169 30.4695 13.2067 30.5842 13.2131C30.1562 13.1875 30.361 12.9946 30.6525 13.2335ZM77.8822 12.559C77.7922 12.6944 77.7023 12.8324 77.6031 12.9678C77.3953 12.826 77.1192 12.6995 76.778 12.6012C77.3642 12.5373 77.8046 12.4057 78.1117 12.237C78.0248 12.3546 77.9442 12.4644 77.8822 12.559ZM32.8917 11.8615C32.4203 11.9036 32.0389 11.9803 31.7443 12.0837C31.8869 11.8857 32.0357 11.6877 32.1877 11.491C32.3676 11.6277 32.6126 11.7567 32.8917 11.8615ZM78.6451 11.1703C78.6389 11.2316 78.6265 11.2955 78.6079 11.3594C78.5862 11.293 78.5521 11.2265 78.5056 11.1627C78.5552 11.1639 78.6017 11.1678 78.6451 11.1703Z" fill="#39B100"/>
<path d="M98.5485 33.6223C98.6052 30.9035 99.2228 28.2509 98.914 25.4531C98.5454 22.1469 98.2649 18.888 97.1433 15.7112C96.5163 13.9365 95.3947 12.7019 94.0651 11.4987C93.0474 10.5798 91.8723 10.6998 90.6845 10.665C90.4041 10.6556 90.1237 10.5956 89.8433 10.5514C87.9245 10.2482 86.0026 10.3398 84.0649 10.384C81.7398 10.4345 79.4052 10.6776 77.0737 10.1661C76.0655 9.94502 74.9344 9.83769 74.049 10.8387C73.8033 11.1198 73.107 11.085 72.6218 11.0661C70.6243 10.9871 68.6299 10.7945 66.6324 10.7661C62.8075 10.7061 58.9795 10.7472 55.1514 10.7093C54.1338 10.6998 53.1161 10.4756 52.0985 10.4724C47.9459 10.463 43.806 10.1124 39.6503 10.0934C37.4354 10.084 35.2205 9.89138 33.0024 9.81875C31.3452 9.76191 29.6879 9.72719 28.0306 9.76193C26.6727 9.79035 25.318 9.96082 23.9632 10.0303C22.5959 10.0966 21.2252 10.0998 19.8578 10.163C18.8875 10.2103 17.9202 10.3082 16.893 10.3903C14.3095 9.89771 12.0569 11.1166 9.74747 12.0577C9.34419 12.2219 8.99451 12.5629 8.68259 12.885C8.00205 13.5797 7.3372 14.2902 6.72282 15.0418C6.29118 15.566 5.83755 16.1217 5.6044 16.7438C5.10345 18.0796 4.60564 19.4406 4.33783 20.8363C3.80222 23.6373 3.3705 26.4604 2.98926 29.2867C2.65214 31.775 2.2457 34.2539 2.34652 36.7991C2.45364 39.4264 2.30562 42.0632 2.25207 44.6937C2.2048 46.9831 2.10397 49.2694 2.08192 51.5588C2.06616 53.0429 2.32143 54.5429 2.1513 56.0018C1.9591 57.6155 1.92749 59.1723 2.18899 60.7764C2.482 62.5732 2.85066 64.37 2.38437 66.2268C2.23314 66.8331 2.49145 67.5752 2.66159 68.2289C3.35158 70.8657 4.67492 73.1993 6.28176 75.3593C7.21119 76.6098 8.37054 77.6203 10.0467 77.8003C12.0883 78.0182 14.1238 78.3055 16.1654 78.5203C17.5265 78.6655 18.9032 78.8613 20.2643 78.8234C25.1699 78.6781 30.0722 78.4381 34.9747 78.2487C37.0478 78.1666 37.3125 78.3971 37.6181 80.4433C37.6685 80.7812 37.6843 81.1349 37.6559 81.4728C37.5457 82.7833 37.4133 84.0907 37.2841 85.398C37.0667 87.6085 37.2779 89.8568 36.4871 92.0168C36.2161 92.7652 36.3641 93.6935 37.1203 94.1925C38.2009 94.903 40.0692 94.243 40.3843 92.9736C40.7372 91.5557 41.613 90.5484 42.4984 89.5C42.9048 89.02 43.3271 88.5431 43.6611 88.0158C45.4129 85.2653 47.1362 82.4959 48.8754 79.736C49.7229 78.3907 50.8445 77.5792 52.5458 77.6834C53.8534 77.7623 55.1767 77.7276 56.4874 77.6644C58.592 77.5665 60.6904 77.3455 62.795 77.2792C66.2197 77.175 69.6728 77.3897 73.0692 77.0392C77.2564 76.6066 81.4814 76.5276 85.634 75.6466C87.0423 75.3435 88.4254 75.0434 89.7109 74.4308C92.7261 72.994 95.1269 70.9036 95.8043 67.4679C96.3966 64.4459 96.8881 61.386 97.1464 58.3197C97.6884 51.9251 98.0664 45.5211 98.4634 39.117C98.5768 37.2918 98.5075 35.4539 98.5485 33.6223ZM94.8591 53.7598C94.8465 53.9334 94.8149 54.1072 94.8402 54.2745C95.1048 56.2229 94.9095 58.1554 94.5787 60.0722C94.166 62.4848 93.8068 64.9195 93.1987 67.2879C92.5559 69.7889 90.6214 71.2446 88.3939 72.3025C85.0826 73.8814 81.5067 74.2035 77.9118 74.4498C75.5236 74.6108 73.1448 74.9488 70.7535 75.0372C68.9355 75.1035 67.1082 74.7845 65.2903 74.8382C61.4118 74.9487 57.5365 75.1887 53.6612 75.3813C52.5269 75.4382 51.4431 75.4982 50.3278 74.9646C48.8281 74.2477 47.9018 74.6645 47.4071 76.2592C46.3926 79.5402 44.455 82.3222 42.7001 85.199C42.029 86.3011 41.0051 87.1916 40 88.3379C39.2407 87.0716 39.3226 85.9348 39.4802 84.8075C39.8047 82.4959 40.1702 80.1876 40.5168 77.8792C40.6554 76.9571 40.3875 76.1929 39.666 75.5803C39.1903 75.1761 38.705 74.9898 38.0938 75.2266C35.9261 76.0729 33.6167 76.0224 31.3577 76.1582C28.9097 76.3035 26.449 76.1993 23.9946 76.2245C21.8427 76.2435 19.6782 76.4424 17.5421 76.2877C15.3461 76.1266 13.1028 75.8677 11.0234 75.2014C9.76316 74.794 8.50921 73.7204 7.72786 72.6088C6.63458 71.0552 5.93194 69.2173 5.71454 67.2468C5.44359 64.8184 5.05606 62.3996 4.76935 59.9712C4.67168 59.1249 4.72848 58.2597 4.70012 57.4039C4.63711 55.5187 4.54263 53.6303 4.50798 51.7419C4.46387 49.4525 4.42602 47.1599 4.47013 44.8674C4.52054 42.1801 4.75995 39.4896 4.73474 36.8023C4.70008 32.7066 5.51295 28.7246 6.14622 24.7142C6.41718 23.0247 6.62521 21.2911 7.17973 19.6901C8.42108 16.0933 10.7053 13.6839 14.7602 13.1786C19.023 12.6513 23.2795 12.4618 27.5612 12.4808C28.8121 12.4839 30.0597 12.2692 31.3105 12.2218C32.9079 12.1618 34.5085 12.1334 36.1059 12.1555C39.4109 12.1997 42.7191 12.2598 46.0241 12.3608C49.0991 12.4555 52.171 12.6324 55.246 12.7271C56.7268 12.7713 58.2138 12.705 59.6946 12.6892C64.0362 12.6482 68.3779 12.5629 72.7195 12.5755C75.6748 12.585 78.6333 12.7839 81.5886 12.7902C83.8066 12.7965 86.0278 12.5566 88.2459 12.5629C91.7116 12.5723 94.8622 14.8049 95.4955 18.1522C95.9082 20.3343 96.3021 22.5606 96.3147 24.7679C96.3462 29.5804 96.2328 34.3992 95.9839 39.2054C95.7318 44.0653 95.2435 48.9094 94.8591 53.7598Z" fill="#251C1C"/>
<path d="M37.7497 50.6488C38.1793 49.8736 38.6857 49.1648 39.2489 48.509C39.4879 48.3706 39.6829 48.1648 39.8087 47.8934C40.8174 46.8502 41.9784 45.953 43.2192 45.1551C45.4521 43.7201 48.0161 42.7581 50.0929 41.0883C52.1821 39.408 53.3429 36.8349 52.5897 34.17C52.1825 32.7273 51.3208 31.4905 50.1946 30.5514C49.0498 29.4973 47.8937 28.5267 46.4635 27.8529C45.836 27.5574 45.1417 27.4098 44.447 27.3986C44.4451 27.3984 44.4431 27.3982 44.4395 27.396C42.9818 27.0562 41.6945 27.8595 40.554 28.6758C40.0943 29.0063 39.971 29.4471 40.0635 29.8589C39.9442 30.0348 39.8324 30.2133 39.7242 30.394C38.287 31.6763 37.2536 33.5014 37.3037 35.3336C37.3239 36.0639 37.7417 36.7099 38.5211 36.7863C39.047 36.8384 39.6715 36.4897 39.8913 35.9806C39.9759 36.0015 40.0645 36.0208 40.1587 36.0425C40.3593 35.3587 40.4962 34.8076 40.6856 34.2727C40.8161 33.9036 40.9359 33.526 41.0869 33.1645C41.667 33.2771 42.3307 33.0741 42.6585 32.4073C43.0517 31.6097 44.0687 31.3437 44.907 31.3176C45.0073 31.336 45.1073 31.3583 45.2065 31.3882C47.7417 32.1285 47.7535 35.3546 46.7559 37.2983C45.4332 39.8764 42.6963 41.8187 40.3051 43.3263C40.2624 43.3533 40.2196 43.3802 40.175 43.4071C39.9967 43.4452 39.817 43.4793 39.6356 43.5095C38.2235 43.7426 37.4362 44.6073 36.996 45.764C35.8827 46.8825 35.153 48.2501 35.3406 50.1136C35.4478 51.209 37.1968 51.6456 37.7497 50.6488Z" fill="#39B100"/>
<path d="M57.3585 52.0763C58.9661 52.8522 60.5453 51.5498 60.9175 50.0085C61.3263 48.3128 61.1623 46.3783 61.2093 44.645C61.2904 41.7826 61.3386 38.9212 61.3582 36.0592C61.4361 34.6515 61.4739 33.2403 61.5096 31.8308C61.5278 31.1231 61.465 30.418 60.5018 30.2678C60.3766 30.2491 60.2568 30.2347 60.142 30.2284C59.3825 29.6215 57.9965 29.8434 57.9583 31.0836C57.7516 37.6423 57.2614 44.1877 56.4896 50.7024C56.4171 51.3284 56.8331 51.8225 57.3585 52.0763Z" fill="#39B100"/>
<path d="M39.1922 58.5558C40.3355 57.511 40.6713 55.4225 39.2159 54.4679C38.5366 54.0198 37.6481 54.0914 36.987 54.5272C36.9093 54.5799 36.8372 54.6351 36.7707 54.6926C35.2715 54.8239 34.3224 56.5873 35.0215 57.9673C35.8222 59.5466 37.9589 59.683 39.1922 58.5558Z" fill="#39B100"/>
<path d="M58.5089 61.2279C58.5344 61.0476 58.5614 60.8732 58.59 60.7008C59.085 60.6233 59.5597 60.4057 59.9314 60.0483C60.9161 59.1029 61.0684 57.3288 59.839 56.4921C59.3385 56.1521 58.759 56.0991 58.2439 56.2517C57.9457 56.1678 57.6115 56.1864 57.2747 56.3009C55.8247 56.7901 55.4561 58.6181 56.2835 59.7865C56.4486 60.6179 57.1452 61.0213 58.5089 61.2279Z" fill="#39B100"/>
<path d="M55.2117 53.4088C57.0171 53.5102 58.499 53.6388 59.9825 53.6426C60.3304 53.6425 60.8002 53.2841 60.9941 52.9591C61.2037 52.6085 61.1864 52.1073 61.2155 51.6678C61.4408 48.303 61.5802 44.9308 61.8873 41.5752C62.2334 37.7771 62.7225 33.9916 63.1563 30.2012C63.281 29.1128 63.04 28.7956 61.9702 28.7648C61.0194 28.7368 60.067 28.7048 59.1158 28.7248C58.3186 28.7411 57.5423 28.8707 57.45 29.8965C57.305 31.5424 57.0926 33.1901 57.0608 34.8382C56.9505 40.7155 55.9858 46.4964 55.1752 52.2947C55.1179 52.7048 55.1994 53.1329 55.2117 53.4088ZM58.1871 33.5728C58.2557 32.8158 58.3488 32.0418 58.5791 31.326C58.8941 30.3466 59.4935 30.1092 60.5039 30.2674C61.4671 30.4176 61.53 31.1227 61.5118 31.8303C61.4647 33.6751 61.4136 35.5195 61.2766 37.3583C61.0118 40.9099 60.6896 44.4583 60.3829 48.0061C60.3271 48.6393 60.2445 49.2721 60.1431 49.8993C59.789 52.1303 59.2041 52.4209 56.923 51.3704C57.1434 47.8861 57.3557 44.3415 57.6004 40.7997C57.7686 38.389 57.9675 35.979 58.1871 33.5728Z" fill="#251C1C"/>
<path d="M54.8326 56.2506C54.8778 58.1381 54.9808 60.023 55.0653 62.0524C56.348 62.2846 57.4636 62.5154 58.5906 62.682C59.5448 62.8237 60.0858 62.3986 60.1015 61.5005C60.1274 59.9844 60.1286 58.4661 60.1006 56.951C60.0803 55.8499 59.7247 55.5015 58.6059 55.4164C57.7257 55.3504 56.8443 55.2977 55.9612 55.2641C55.2926 55.2398 54.8156 55.5495 54.8326 56.2506ZM56.7449 57.0802C58.4957 56.9289 58.8547 57.1738 58.8393 58.7235C58.8327 59.5186 58.636 60.3104 58.5091 61.2275C56.1213 60.8654 55.7792 59.905 56.7449 57.0802Z" fill="#251C1C"/>
<path d="M45.6419 39.6863C43.9714 40.8461 42.2459 41.8454 40.138 42.1671C37.0289 42.639 35.9622 43.8616 35.393 47.0288C35.2933 47.5928 35.1482 48.1489 35.0541 48.7153C34.8039 50.2251 35.1629 50.5565 36.645 50.3795C37.7676 50.2459 38.9133 50.1143 40.0356 50.1805C41.4312 50.2649 41.64 50.1411 41.5569 48.6635C41.4652 47.064 41.6865 46.6684 43.1117 45.9809C43.3946 45.8463 43.7143 45.7937 44.0054 45.6752C47.0052 44.4576 49.5103 42.6602 51.5312 40.0533C53.3027 37.7684 53.4911 35.3018 53.1282 32.6579C53.0546 32.119 52.8044 31.5339 52.4608 31.1134C51.0522 29.3883 49.5844 27.7446 47.4864 26.7544C44.7093 25.4431 41.7435 26.0121 39.6879 28.2931C37.7327 30.4599 37.2928 33.3157 36.1344 35.841C36.0274 36.0737 36.4941 36.8625 36.8135 36.9464C38.2055 37.3111 39.6409 37.5106 41.434 37.8396C41.5005 37.0844 41.5233 36.4118 41.6273 35.754C41.7425 35.0146 41.7699 34.2002 42.1136 33.5712C43.0539 31.8647 44.5435 31.7979 45.7711 33.3322C46.1657 33.8263 46.5095 34.3755 46.7922 34.9405C47.6469 36.6494 47.2121 38.5965 45.6419 39.6863ZM48.4893 36.3373C48.2153 34.0356 47.2182 32.047 45.0428 30.9309C43.7628 30.2761 42.3692 30.9107 41.403 32.5188C41.0809 33.0555 40.8935 33.6771 40.6834 34.2736C40.4941 34.8085 40.3571 35.3596 40.1565 36.0434C38.3373 35.641 38.1478 35.3918 38.4043 33.8979C38.7127 32.0992 39.5061 30.5104 40.6225 29.0943C41.9402 27.4229 44.5161 26.9387 46.4632 27.854C48.1039 28.6251 49.3852 29.7893 50.7008 31.0218C53 33.1752 52.0263 38.8399 49.8622 40.3887C49.0356 40.9789 48.3409 41.7538 47.5093 42.3359C46.6899 42.9095 45.7973 43.3979 44.8909 43.8255C44.0889 44.2027 43.188 44.3732 42.391 44.7585C41.239 45.3124 40.1919 45.9409 39.9482 47.4416C39.7727 48.5178 38.8086 48.923 37.7402 48.6367C36.9291 48.4192 36.5005 47.678 36.7287 46.6583C37.0839 45.0694 37.8761 43.7996 39.6333 43.5104C42.0012 43.1174 44.0629 42.0977 46.027 40.7466C47.6147 39.6545 48.7213 38.3066 48.4893 36.3373Z" fill="#251C1C"/>
<path d="M34.5667 57.9793C34.5253 59.3229 34.8695 59.6704 36.178 59.653C37.1209 59.64 38.0842 59.5692 38.9997 59.7363C39.9211 59.9021 40.3204 59.4932 40.55 58.7639C40.6826 58.3489 40.6998 57.8911 40.7272 57.4495C40.8992 54.7547 40.3763 54.1243 37.7205 53.7924C37.4705 53.7511 37.2191 53.7021 36.9679 53.6742C35.1925 53.4717 34.6568 53.9242 34.5945 55.7004C34.568 56.4592 34.5913 57.2204 34.5667 57.9793ZM36.2383 54.9534C37.1045 55.1123 37.9427 55.067 38.5157 55.4346C38.9959 55.744 39.334 56.5099 39.432 57.1202C39.5455 57.8394 38.9 57.9882 38.2692 57.9922C37.9597 57.9937 37.6539 58.1052 37.3422 58.1527C36.5587 58.2759 36.0985 57.8932 36.0643 57.1464C36.0323 56.4843 36.1622 55.8173 36.2383 54.9534Z" fill="#251C1C"/>
</svg>
