<svg width="214" height="61" viewBox="0 0 214 61" fill="none" xmlns="http://www.w3.org/2000/svg">
<path d="M213.129 37.6452C212.141 36.257 211.088 34.822 209.765 33.7908C207.851 32.2988 205.67 31.1466 203.599 29.857C202.296 29.0465 200.799 28.4414 199.721 27.4C198.032 25.7687 196.851 23.6737 195.923 21.5228C195.313 20.1061 194.533 19.0057 193.356 17.9826C191.853 16.6768 190.178 16.5863 188.52 16.9168C185.973 17.4253 183.636 18.5592 181.672 20.3206C181.181 20.762 180.685 21.0804 180.028 21.1688C178.688 21.3499 177.352 21.5522 175.863 21.7668C175.798 23.1398 175.263 24.3673 173.674 24.8768C173.895 26.0382 173.875 26.028 173.402 26.9321C172.711 28.2532 172.052 29.5916 171.382 30.9248C169.943 33.7857 168.549 36.6699 167.054 39.5012C165.472 42.4962 163.76 45.4211 162.169 48.411C160.747 51.0837 159.41 53.8001 158.046 56.5023C157.645 57.3006 157.278 58.1152 156.901 58.9074C157.852 59.5227 158.069 59.4861 158.383 58.6929C158.515 58.3583 158.545 57.9799 158.698 57.6576C159.921 55.0876 161.113 52.5014 162.41 49.9701C163.586 47.6768 164.92 45.4659 166.119 43.1847C168.6 38.4659 171.265 33.8406 173.337 28.9133C173.691 28.0722 174.043 27.2006 174.743 26.3738C175.529 27.3379 176.257 28.1413 176.877 29.02C177.564 29.9933 177.887 30.0096 178.66 29.0973C179.409 28.2136 180.247 27.403 181.087 26.5172C182.089 27.1518 182.634 27.9979 183.211 28.781C184.117 30.0126 184.202 30.0329 185.08 28.8654C185.479 28.3346 185.962 27.8678 186.517 27.2505C187.365 28.2797 188.072 29.137 188.822 30.0461C190.354 29.4715 191.098 28.001 192.361 27.0857C192.577 27.3715 192.793 27.6013 192.948 27.8678C194.473 30.4824 195.997 33.0982 197.502 35.7251C198.557 37.5679 199.626 39.4056 200.609 41.288C201.422 42.8491 202.119 44.4712 202.867 46.0659C203.943 48.3541 205.051 50.6281 206.084 52.9367C206.913 54.7896 207.652 56.6833 208.426 58.5607C208.607 59.001 208.818 59.4739 209.39 59.2522C210.034 59.002 209.872 58.4783 209.648 57.9952C209.323 57.2976 208.996 56.6019 208.668 55.9053C207.225 52.838 206.159 49.604 204.436 46.6567C203.68 45.3641 203.207 43.9058 202.483 42.242C203.04 42.4962 203.282 42.5939 203.512 42.7128C204.717 43.3363 205.929 43.9495 207.12 44.5973C208.296 45.237 209.552 45.2736 210.824 45.1119C212.215 44.935 213.793 43.558 213.922 42.2348C214.077 40.6565 214.087 38.9917 213.129 37.6452ZM188.867 28.3742C188.45 27.7661 187.999 27.1579 187.602 26.5162C187.157 25.7941 187.178 25.7809 186.008 25.9558C185.796 26.9037 185.167 27.5596 184.268 28.0702C183.094 27.285 182.467 26.0697 181.699 24.9876C180.966 24.8931 180.567 25.0772 180.226 25.8175C179.884 26.561 179.212 27.1762 178.605 27.7661C178.008 28.3468 177.671 28.3234 177.13 27.6918C176.49 26.9443 175.928 26.1287 175.293 25.2897C175.593 24.7283 175.814 24.3368 176.014 23.935C176.382 23.1916 176.962 22.8449 177.785 22.6415C181.205 21.7984 184.694 22.0323 188.157 21.8543C189.249 21.7983 189.921 22.3038 190.377 23.276C190.737 24.0439 191.227 24.7517 191.663 25.4911C190.738 26.4643 190.63 28.124 188.867 28.3742ZM209.393 44.0004C208.063 43.9282 206.843 43.442 205.781 42.602C205.108 42.0701 204.427 41.5443 203.737 41.0348C203.081 40.5497 202.436 40.0096 201.453 40.3473C199.869 37.6207 198.394 35.0843 196.922 32.5459C195.882 30.7499 194.816 28.9682 193.816 27.1508C192.816 25.3344 191.84 23.5028 190.946 21.6336C190.586 20.882 190.142 20.6908 189.36 20.7417C187.287 20.878 185.208 20.9329 182.95 21.0275C183.162 20.7 183.246 20.4437 183.421 20.3206C185.144 19.1236 186.961 18.1453 189.104 17.9317C191.505 17.6928 193.933 19.1532 194.758 21.4465C195.595 23.7724 196.928 25.7972 198.428 27.7254C198.753 28.1434 199.172 28.5298 199.624 28.8003C202.025 30.2373 204.506 31.5483 206.845 33.0768C208.148 33.928 209.29 35.0579 210.385 36.1796C211.127 36.9404 211.773 37.8486 212.25 38.7974C212.577 39.4473 212.586 40.2761 212.653 41.0328C212.823 42.9427 211.696 44.1255 209.393 44.0004Z" fill="#251C1C"/>
<path d="M209.177 30.5078C209.524 30.9349 209.887 30.6644 210.157 30.224C208.641 28.5856 207.135 26.9585 205.425 25.1106C206.473 27.289 207.858 28.8785 209.177 30.5078Z" fill="#251C1C"/>
<path d="M205.643 36.8274C205.982 37.2088 206.391 37.2718 206.933 36.8193C206.149 35.8511 205.369 34.8901 204.589 33.928C204.464 35.0975 204.924 36.0199 205.643 36.8274Z" fill="#251C1C"/>
<path d="M191.203 1.75949C191.141 2.149 191.394 2.49682 191.839 2.37987C192.127 2.30359 192.362 2.02491 192.889 1.64354C192.312 1.39336 192.017 1.15846 191.749 1.1849C191.541 1.20524 191.239 1.5327 191.203 1.75949Z" fill="#251C1C"/>
<path d="M186.083 15.3118C185.896 15.6973 185.835 16.1529 186.309 16.3675C186.804 16.5922 187.023 16.1315 187.242 15.8092C187.335 15.6719 187.298 15.4542 187.362 15.2905C187.674 14.5003 187.907 13.6612 188.339 12.9412C189.119 11.6344 189.699 10.1831 190.901 9.14785C191.046 9.02377 191.066 8.64648 191.003 8.42681C190.957 8.26409 190.683 8.16543 190.401 7.95898C190.096 8.24781 189.738 8.46441 189.557 8.78172C188.8 10.1048 188.092 11.4554 187.377 12.8009C186.934 13.6318 186.495 14.4647 186.083 15.3118Z" fill="#251C1C"/>
<path d="M183.521 4.37614C183.636 3.88391 183.596 3.38657 182.984 3.37945C182.427 3.37335 182.295 3.83612 182.323 4.35275C182.354 4.89074 182.438 5.45719 182.315 5.96773C181.497 9.37669 182.449 12.8101 182.14 16.2221C182.133 16.2963 182.215 16.3797 182.3 16.5424C183.213 16.2516 183.246 16.2485 183.221 15.7726C183.148 14.423 183.165 13.0531 182.927 11.731C182.548 9.63093 182.732 7.59596 183.229 5.5579C183.326 5.16432 183.428 4.77175 183.521 4.37614Z" fill="#251C1C"/>
<path d="M182.544 0.255255C182.178 0.852231 182.515 1.2224 182.953 1.45325C183.392 1.17155 183.761 0.934609 184.143 0.689514C183.285 -0.0701814 182.811 -0.182053 182.544 0.255255Z" fill="#251C1C"/>
<path d="M176.49 11.2865C175.799 11.1086 175.415 11.4157 175.225 11.9507C176.81 13.8433 178.257 15.6627 178.352 18.1492C179.379 18.2224 179.562 18.0933 179.416 17.3692C179.336 16.9746 179.204 16.577 179.023 16.218C178.196 14.5745 177.344 12.9442 176.49 11.2865Z" fill="#251C1C"/>
<path d="M170.703 7.64275C170.545 7.74445 170.412 8.16647 170.498 8.31597C170.757 8.7665 171.074 9.24959 172.013 8.99941C171.785 8.49091 171.659 8.05972 171.409 7.72107C171.306 7.58174 170.868 7.53902 170.703 7.64275Z" fill="#251C1C"/>
<path d="M99.978 27.2849C97.8179 28.8836 95.192 28.5491 93.5882 26.509C93.0705 25.85 92.8976 25.1696 93.0197 24.5014C93.9166 24.5167 94.7669 24.6743 95.551 24.5126C96.7551 24.2645 97.5961 23.4743 98.126 22.3108C99.3443 19.6372 98.662 16.5231 95.9578 15.2061C94.5736 14.5318 93.1854 14.2359 91.6376 14.3467C88.0344 14.6061 85.199 16.1153 83.0287 19.0361C81.8216 20.6592 80.4222 22.1491 79.0279 23.6217C77.0203 25.7432 74.7198 27.5107 71.9618 28.5359C70.7515 28.9854 69.4366 29.2091 68.148 29.379C66.4313 29.6037 64.7238 29.4267 63.0753 28.8318C62.6715 28.6863 62.2027 28.6376 62.0512 29.1481C61.8864 29.7024 62.2607 29.9769 62.7733 30.0715C63.2187 30.1528 63.6702 30.2047 64.1086 30.3084C67.0314 31.0061 69.8231 30.637 72.5934 29.4979C74.4219 28.7464 75.9138 27.5158 77.5278 26.4571C78.198 26.0178 78.8072 25.4493 79.3452 24.8513C81.2185 22.7675 83.0643 20.6592 84.8898 18.5347C87.0824 15.9841 89.9361 15.1441 93.1631 15.3149C95.0516 15.4156 96.4378 16.4631 97.1985 18.1157C97.8718 19.5761 97.7975 21.0894 96.7225 22.4694C95.6578 23.8353 94.9357 23.8617 93.7672 22.5468C93.5129 22.26 92.9749 22.0647 92.5956 22.1034C92.319 22.1308 91.9844 22.5712 91.8542 22.8976C91.2145 24.5147 91.6203 25.975 92.5915 27.3531C93.4173 28.5226 94.6682 28.903 95.9354 29.2549C97.6908 29.743 99.2437 29.2437 100.631 28.1555C101.414 27.5422 102.139 26.8558 102.917 26.2354C103.716 25.5988 104.268 24.7974 104.712 23.8882C105.288 22.7095 105.875 21.5338 106.537 20.4029C108.627 16.8251 111.799 15.1492 115.908 15.321C117.59 15.3912 119.065 15.919 119.831 17.6947C120.433 19.092 120.228 20.2941 119.488 21.5491C118.743 22.8132 117.591 23.1641 116.351 22.3901C116.122 22.2478 115.883 22.1023 115.628 22.023C114.89 21.7922 114.348 22.0698 114.205 22.8183C113.577 26.1012 114.993 28.5623 118.143 29.3382C120.005 29.7959 121.922 29.6596 123.77 29.021C124.453 28.785 125.152 28.5928 125.843 28.3813C127.686 27.8168 129.195 26.8303 130.107 25.0628C130.977 23.3756 131.921 21.724 132.736 20.0114C133.395 18.6283 134.386 17.5574 135.465 16.5119C138.002 14.0518 140.806 14.9163 142.812 16.5292C144.403 17.8086 144.618 19.8355 143.494 21.542C142.852 22.5152 142.005 23.2139 140.875 23.5942C140.024 23.88 139.547 23.3431 138.936 22.9678C138.667 22.8031 138.064 22.8356 137.845 23.0349C137.628 23.2322 137.536 23.8444 137.684 24.1089C137.984 24.6438 138.422 25.1472 138.913 25.5215C140.025 26.3707 141.156 27.2168 142.366 27.9155C144.455 29.1216 146.754 29.6932 149.157 29.4115C151.647 29.1186 154.047 28.4006 156.148 26.9758C157.589 25.9984 158.935 24.8808 160.323 23.8262C159.455 22.7481 159.195 22.7512 158.497 23.577C158.065 24.0895 157.602 24.6031 157.064 24.9926C156.151 25.6526 155.195 26.2659 154.208 26.809C151.128 28.5043 147.9 28.9711 144.542 27.7395C142.965 27.1619 141.62 26.1907 140.371 25.1371C140.44 24.9784 140.447 24.9224 140.473 24.9123C140.724 24.8126 140.974 24.7018 141.233 24.6286C143.061 24.1119 144.244 22.8814 145.012 21.2054C145.234 20.7223 145.564 20.2056 145.548 19.7124C145.497 17.9621 144.811 16.4987 143.337 15.4369C142.387 14.7535 141.314 14.4382 140.206 14.2125C137.631 13.6877 134.638 14.8908 133.236 17.112C132.225 18.7137 131.371 20.4131 130.434 22.0617C129.768 23.2343 129.146 24.4404 128.374 25.5398C127.978 26.1052 127.358 26.5995 126.731 26.9036C124.241 28.1117 121.612 28.6711 118.83 28.3121C116.466 28.006 115.205 26.3178 115.684 23.9665C116.302 23.9665 116.84 23.9838 117.377 23.9604C117.778 23.9431 118.206 23.9472 118.574 23.8119C120.895 22.9617 121.798 20.0704 121.4 18.3517C120.939 16.3563 119.791 14.9213 117.675 14.5176C114.255 13.8647 111.123 14.544 108.321 16.6472C106.608 17.9347 105.478 19.6839 104.64 21.5938C103.608 23.9472 102.011 25.7798 99.978 27.2849Z" fill="#251C1C"/>
<path d="M30.1705 37.29C28.8077 35.6638 27.5131 33.9746 26.0608 32.4318C24.8872 31.186 23.5397 30.1008 22.24 28.978C21.7304 28.5387 21.1558 28.1675 20.5822 27.8116C20.0351 27.4719 19.6069 27.5746 19.2276 28.1716C18.5289 29.271 17.7743 30.3388 16.9963 31.3843C16.1949 32.4633 15.3101 33.4803 14.5098 34.5603C13.3575 36.1174 12.2195 37.6876 11.1283 39.2884C9.4736 41.7139 7.86066 44.1689 6.23754 46.6158C4.88901 48.6477 3.52931 50.6726 2.21738 52.7279C1.51464 53.8304 0.875921 54.9775 0.263691 56.1338C0.0338499 56.5691 -0.214297 57.0929 0.31454 57.7529C0.509803 57.3563 0.650188 57.102 0.762058 56.8346C0.970542 56.3372 1.08442 55.782 1.37325 55.3386C2.75229 53.2222 4.16692 51.1302 5.58563 49.0403C7.74166 45.8642 9.90688 42.6953 12.0782 39.5294C12.9467 38.2612 13.8202 36.9961 14.7304 35.7563C15.3264 34.9448 15.6468 34.9102 16.3729 35.6048C17.0238 36.2272 17.6197 36.9116 18.2004 37.6011C19.072 38.6364 19.4961 38.5825 20.0931 37.3021C20.4155 36.6116 20.7816 35.9577 21.4538 35.3882C21.9583 35.8753 22.4271 36.2903 22.8542 36.7459C24.1092 38.0883 24.3685 38.0669 25.2106 36.4052C25.5411 35.7543 25.8594 35.1319 26.7147 34.8604C27.7134 36.272 28.948 37.4863 29.5908 39.1104C29.7677 39.5569 29.963 40.043 30.4797 39.9667C30.8041 39.9189 31.2159 39.5762 31.3471 39.2639C31.816 38.1483 32.6174 37.2981 33.3994 36.4245C34.6656 35.0099 35.9449 33.6064 37.206 32.1877C37.4755 31.8846 37.7023 31.5419 37.9342 31.2063C38.8576 29.873 39.7699 28.5316 40.6974 27.2014C40.8937 26.9207 41.1408 26.6745 41.4683 26.2891C42.4537 27.7638 43.9243 28.6994 44.2691 30.4853C44.4114 31.2205 45.2393 31.3405 45.7203 30.7364C46.1119 30.2442 46.3763 29.6534 46.7414 29.1377C47.0902 28.6465 47.256 27.9631 48.0248 27.7861C48.3259 28.0628 48.6472 28.313 48.9127 28.614C49.3297 29.0879 49.7385 29.574 50.0975 30.0927C51.3148 31.8501 51.744 31.8206 52.7223 29.9534C53.2186 29.0065 53.8054 28.1065 54.3516 27.1861C54.4787 27.1983 54.6068 27.2105 54.735 27.2227C55.0391 27.7628 55.3767 28.2865 55.6421 28.8438C56.4201 30.4761 57.1432 32.1338 57.9354 33.759C58.9819 35.9089 60.1189 38.0161 61.1339 40.1803C61.977 41.9793 62.753 43.814 63.4618 45.67C64.1381 47.4426 64.6903 49.262 65.2934 51.0621C65.7521 52.432 66.1691 53.8161 66.6694 55.1708C67.2145 56.6485 67.8278 58.1007 68.4288 59.5571C68.5061 59.7421 68.7339 60.0391 68.8142 60.0157C69.0339 59.9527 69.3339 59.7798 69.3868 59.5896C69.5963 58.8512 69.7316 58.1038 69.3309 57.3512C68.9495 56.6342 68.5814 55.8979 68.318 55.1321C66.8281 50.8119 65.2436 46.5243 63.3601 42.3627C61.3109 37.8341 59.1457 33.3562 56.9805 28.8815C55.3665 25.5457 53.6875 22.2405 52.0064 18.9383C51.3311 17.6131 50.5907 16.3185 49.8402 15.033C49.3927 14.2662 48.7632 14.2916 48.2699 15.0005C46.6173 17.3731 44.984 19.7621 43.2724 22.093C40.4106 25.9912 37.5386 29.8852 34.5771 33.7081C33.4269 35.1929 32.0235 36.4825 30.6871 37.9134C30.4502 37.6276 30.3118 37.4578 30.1705 37.29ZM23.8865 35.9597C23.3851 35.3973 22.8898 34.8319 22.3823 34.2776C21.6592 33.4874 21.3653 33.5321 20.7724 34.4525C20.3565 35.0963 19.906 35.7187 19.4575 36.3401C19.3832 36.4428 19.2398 36.4936 18.9693 36.6747C18.1374 35.794 17.2902 34.898 16.3394 33.8922C17.6299 32.2558 18.8686 30.6846 20.1744 29.0289C22.1199 30.3784 23.6546 31.9406 25.1994 33.4223C24.5801 35.3027 24.5801 35.3028 23.8865 35.9597ZM48.8862 16.1965C49.6012 17.3599 50.2826 18.3505 50.8429 19.4061C51.7511 21.1198 52.5637 22.8853 53.4525 24.6101C53.7698 25.2264 53.841 25.7166 53.3976 26.3451C52.9085 27.0376 52.6135 27.8655 52.2057 28.6201C52.0409 28.9252 51.803 29.1916 51.4084 29.7408C50.546 28.618 49.8107 27.7231 49.1517 26.7763C48.8466 26.3389 48.5313 25.8813 48.0004 26.0176C47.6302 26.1132 47.2824 26.4976 47.0343 26.8343C46.4841 27.5777 46.002 28.3729 45.4173 29.2597C44.1491 27.8085 43.0782 26.5108 42.6348 24.7067C44.5823 21.9262 46.3875 18.9627 48.8862 16.1965Z" fill="#251C1C"/>
</svg>
