<svg width="390" height="103" viewBox="0 0 390 103" fill="none" xmlns="http://www.w3.org/2000/svg">
    <path d="M2.66 97H1.47V87.2H2.674L6.356 92.226L9.884 87.2H11.018V97H9.828V89.076L6.356 93.948H6.174L2.66 89.118V97ZM13.8264 92.03L13.5324 91.134C14.1578 90.7513 14.8578 90.56 15.6324 90.56C16.4818 90.56 17.0978 90.77 17.4804 91.19C17.8631 91.61 18.0544 92.2587 18.0544 93.136V97H16.9904V96.188C16.4958 96.7947 15.8238 97.098 14.9744 97.098C14.3958 97.098 13.9291 96.9253 13.5744 96.58C13.2198 96.2253 13.0424 95.7493 13.0424 95.152C13.0424 94.536 13.2618 94.0507 13.7004 93.696C14.1391 93.332 14.7131 93.15 15.4224 93.15C16.0851 93.15 16.6078 93.2853 16.9904 93.556C16.9904 92.8467 16.8924 92.338 16.6964 92.03C16.5004 91.722 16.1224 91.568 15.5624 91.568C14.9931 91.568 14.4144 91.722 13.8264 92.03ZM15.3664 96.09C15.9918 96.09 16.5331 95.8193 16.9904 95.278V94.48C16.5984 94.2 16.1271 94.06 15.5764 94.06C15.1938 94.06 14.8718 94.1533 14.6104 94.34C14.3584 94.5173 14.2324 94.7693 14.2324 95.096C14.2324 95.404 14.3304 95.6467 14.5264 95.824C14.7318 96.0013 15.0118 96.09 15.3664 96.09ZM21.0499 97H19.9299V90.7H21.0499V91.442C21.4232 90.8727 21.9505 90.588 22.6319 90.588C23.0705 90.588 23.3972 90.6673 23.6119 90.826L23.2199 91.876C22.9492 91.7173 22.6645 91.638 22.3659 91.638C21.7965 91.638 21.3579 91.9367 21.0499 92.534V97ZM28.2437 91.75H24.5197V90.7H29.8397V91.484L25.8917 95.95H29.7697V97H24.3097V96.216L28.2437 91.75ZM31.6858 96.216C31.0698 95.5813 30.7618 94.7927 30.7618 93.85C30.7618 92.898 31.0698 92.114 31.6858 91.498C32.3112 90.8727 33.1232 90.56 34.1218 90.56C35.1205 90.56 35.9278 90.8727 36.5438 91.498C37.1692 92.114 37.4818 92.898 37.4818 93.85C37.4818 94.802 37.1692 95.5907 36.5438 96.216C35.9278 96.832 35.1205 97.14 34.1218 97.14C33.1325 97.14 32.3205 96.832 31.6858 96.216ZM32.5678 92.24C32.1572 92.6507 31.9518 93.1873 31.9518 93.85C31.9518 94.5127 32.1525 95.0493 32.5538 95.46C32.9645 95.88 33.4872 96.09 34.1218 96.09C34.7565 96.09 35.2745 95.8847 35.6758 95.474C36.0865 95.054 36.2918 94.5127 36.2918 93.85C36.2918 93.206 36.0865 92.6693 35.6758 92.24C35.2745 91.82 34.7565 91.61 34.1218 91.61C33.4872 91.61 32.9692 91.82 32.5678 92.24Z" fill="#D8D8D8" />
    <path d="M110.414 97H109.21L113.424 87.144H114.446L118.66 97H117.386L116.126 94.032H111.66L110.414 97ZM115.664 92.912L113.9 88.726L112.136 92.912H115.664ZM120.999 99.8H119.879V90.7H120.999V91.442C121.223 91.1807 121.531 90.9707 121.923 90.812C122.315 90.644 122.721 90.56 123.141 90.56C124.037 90.56 124.742 90.8587 125.255 91.456C125.787 92.044 126.053 92.8093 126.053 93.752C126.053 94.7133 125.75 95.5207 125.143 96.174C124.546 96.818 123.757 97.14 122.777 97.14C122.021 97.14 121.428 96.9953 120.999 96.706V99.8ZM122.819 91.61C122.072 91.61 121.466 91.8993 120.999 92.478V95.6C121.494 95.9267 122.054 96.09 122.679 96.09C123.342 96.09 123.869 95.88 124.261 95.46C124.662 95.0307 124.863 94.4753 124.863 93.794C124.863 93.1313 124.681 92.604 124.317 92.212C123.953 91.8107 123.454 91.61 122.819 91.61ZM128.778 97H127.658V90.7H128.778V91.442C129.152 90.8727 129.679 90.588 130.36 90.588C130.799 90.588 131.126 90.6673 131.34 90.826L130.948 91.876C130.678 91.7173 130.393 91.638 130.094 91.638C129.525 91.638 129.086 91.9367 128.778 92.534V97ZM133.844 97H132.724V90.7H133.844V97ZM132.584 88.334C132.584 88.138 132.654 87.9793 132.794 87.858C132.934 87.7273 133.107 87.662 133.312 87.662C133.508 87.662 133.672 87.7273 133.802 87.858C133.933 87.9793 133.998 88.138 133.998 88.334C133.998 88.5487 133.933 88.726 133.802 88.866C133.672 88.9967 133.508 89.062 133.312 89.062C133.107 89.062 132.934 88.9967 132.794 88.866C132.654 88.726 132.584 88.5487 132.584 88.334ZM136.162 95.32V87.2H137.282V94.816C137.282 95.6467 137.53 96.062 138.024 96.062C138.267 96.062 138.533 95.9687 138.822 95.782L139.074 96.636C138.673 96.9533 138.178 97.112 137.59 97.112C136.638 97.112 136.162 96.5147 136.162 95.32ZM145.193 95.432L145.543 96.314C144.936 96.8647 144.148 97.14 143.177 97.14C142.15 97.14 141.334 96.8413 140.727 96.244C140.111 95.6467 139.803 94.8487 139.803 93.85C139.803 92.9073 140.092 92.1233 140.671 91.498C141.24 90.8727 142.034 90.56 143.051 90.56C143.891 90.56 144.586 90.8307 145.137 91.372C145.697 91.904 145.977 92.5947 145.977 93.444C145.977 93.7147 145.954 93.9667 145.907 94.2H141.063C141.11 94.788 141.329 95.25 141.721 95.586C142.122 95.922 142.636 96.09 143.261 96.09C144.082 96.09 144.726 95.8707 145.193 95.432ZM142.995 91.61C142.444 91.61 141.987 91.764 141.623 92.072C141.268 92.38 141.058 92.786 140.993 93.29H144.815C144.787 92.7673 144.61 92.3567 144.283 92.058C143.966 91.7593 143.536 91.61 142.995 91.61Z" fill="#D8D8D8" />
    <path d="M237.66 97H236.47V87.2H237.674L241.356 92.226L244.884 87.2H246.018V97H244.828V89.076L241.356 93.948H241.174L237.66 89.118V97ZM248.826 92.03L248.532 91.134C249.158 90.7513 249.858 90.56 250.632 90.56C251.482 90.56 252.098 90.77 252.48 91.19C252.863 91.61 253.054 92.2587 253.054 93.136V97H251.99V96.188C251.496 96.7947 250.824 97.098 249.974 97.098C249.396 97.098 248.929 96.9253 248.574 96.58C248.22 96.2253 248.042 95.7493 248.042 95.152C248.042 94.536 248.262 94.0507 248.7 93.696C249.139 93.332 249.713 93.15 250.422 93.15C251.085 93.15 251.608 93.2853 251.99 93.556C251.99 92.8467 251.892 92.338 251.696 92.03C251.5 91.722 251.122 91.568 250.562 91.568C249.993 91.568 249.414 91.722 248.826 92.03ZM250.366 96.09C250.992 96.09 251.533 95.8193 251.99 95.278V94.48C251.598 94.2 251.127 94.06 250.576 94.06C250.194 94.06 249.872 94.1533 249.61 94.34C249.358 94.5173 249.232 94.7693 249.232 95.096C249.232 95.404 249.33 95.6467 249.526 95.824C249.732 96.0013 250.012 96.09 250.366 96.09ZM254.062 97.91C254.062 97.4247 254.239 97.0187 254.594 96.692C254.949 96.3653 255.443 96.132 256.078 95.992C255.975 95.8613 255.924 95.6887 255.924 95.474C255.924 95.2593 255.98 95.082 256.092 94.942C255.644 94.7647 255.294 94.494 255.042 94.13C254.799 93.766 254.678 93.346 254.678 92.87C254.678 92.2167 254.911 91.6707 255.378 91.232C255.854 90.784 256.479 90.56 257.254 90.56C257.851 90.56 258.383 90.714 258.85 91.022L260.698 90.574L260.726 91.484L259.536 91.778C259.732 92.1047 259.83 92.4687 259.83 92.87C259.83 93.514 259.592 94.0553 259.116 94.494C258.649 94.9233 258.029 95.138 257.254 95.138C257.039 95.138 256.899 95.1333 256.834 95.124C256.787 95.236 256.764 95.3527 256.764 95.474C256.764 95.642 256.806 95.782 256.89 95.894C256.909 95.894 256.965 95.894 257.058 95.894C257.161 95.8847 257.231 95.88 257.268 95.88C258.248 95.88 259.027 96.0573 259.606 96.412C260.185 96.7573 260.474 97.2567 260.474 97.91C260.474 98.5447 260.185 99.0347 259.606 99.38C259.027 99.7347 258.248 99.912 257.268 99.912C256.279 99.912 255.495 99.7393 254.916 99.394C254.347 99.058 254.062 98.5633 254.062 97.91ZM259.424 97.91C259.424 97.5647 259.233 97.2893 258.85 97.084C258.467 96.888 257.94 96.79 257.268 96.79C256.596 96.79 256.069 96.888 255.686 97.084C255.303 97.2893 255.112 97.5647 255.112 97.91C255.112 98.2553 255.303 98.5213 255.686 98.708C256.069 98.904 256.596 99.002 257.268 99.002C257.94 99.002 258.467 98.9087 258.85 98.722C259.233 98.5353 259.424 98.2647 259.424 97.91ZM255.728 92.87C255.728 93.262 255.868 93.5887 256.148 93.85C256.437 94.102 256.806 94.228 257.254 94.228C257.702 94.228 258.066 94.102 258.346 93.85C258.635 93.598 258.78 93.2713 258.78 92.87C258.78 92.4687 258.64 92.1373 258.36 91.876C258.071 91.6053 257.702 91.47 257.254 91.47C256.806 91.47 256.437 91.6053 256.148 91.876C255.868 92.1373 255.728 92.4687 255.728 92.87ZM260.98 97.91C260.98 97.4247 261.157 97.0187 261.512 96.692C261.867 96.3653 262.361 96.132 262.996 95.992C262.893 95.8613 262.842 95.6887 262.842 95.474C262.842 95.2593 262.898 95.082 263.01 94.942C262.562 94.7647 262.212 94.494 261.96 94.13C261.717 93.766 261.596 93.346 261.596 92.87C261.596 92.2167 261.829 91.6707 262.296 91.232C262.772 90.784 263.397 90.56 264.172 90.56C264.769 90.56 265.301 90.714 265.768 91.022L267.616 90.574L267.644 91.484L266.454 91.778C266.65 92.1047 266.748 92.4687 266.748 92.87C266.748 93.514 266.51 94.0553 266.034 94.494C265.567 94.9233 264.947 95.138 264.172 95.138C263.957 95.138 263.817 95.1333 263.752 95.124C263.705 95.236 263.682 95.3527 263.682 95.474C263.682 95.642 263.724 95.782 263.808 95.894C263.827 95.894 263.883 95.894 263.976 95.894C264.079 95.8847 264.149 95.88 264.186 95.88C265.166 95.88 265.945 96.0573 266.524 96.412C267.103 96.7573 267.392 97.2567 267.392 97.91C267.392 98.5447 267.103 99.0347 266.524 99.38C265.945 99.7347 265.166 99.912 264.186 99.912C263.197 99.912 262.413 99.7393 261.834 99.394C261.265 99.058 260.98 98.5633 260.98 97.91ZM266.342 97.91C266.342 97.5647 266.151 97.2893 265.768 97.084C265.385 96.888 264.858 96.79 264.186 96.79C263.514 96.79 262.987 96.888 262.604 97.084C262.221 97.2893 262.03 97.5647 262.03 97.91C262.03 98.2553 262.221 98.5213 262.604 98.708C262.987 98.904 263.514 99.002 264.186 99.002C264.858 99.002 265.385 98.9087 265.768 98.722C266.151 98.5353 266.342 98.2647 266.342 97.91ZM262.646 92.87C262.646 93.262 262.786 93.5887 263.066 93.85C263.355 94.102 263.724 94.228 264.172 94.228C264.62 94.228 264.984 94.102 265.264 93.85C265.553 93.598 265.698 93.2713 265.698 92.87C265.698 92.4687 265.558 92.1373 265.278 91.876C264.989 91.6053 264.62 91.47 264.172 91.47C263.724 91.47 263.355 91.6053 263.066 91.876C262.786 92.1373 262.646 92.4687 262.646 92.87ZM270.194 97H269.074V90.7H270.194V97ZM268.934 88.334C268.934 88.138 269.004 87.9793 269.144 87.858C269.284 87.7273 269.456 87.662 269.662 87.662C269.858 87.662 270.021 87.7273 270.152 87.858C270.282 87.9793 270.348 88.138 270.348 88.334C270.348 88.5487 270.282 88.726 270.152 88.866C270.021 88.9967 269.858 89.062 269.662 89.062C269.456 89.062 269.284 88.9967 269.144 88.866C269.004 88.726 268.934 88.5487 268.934 88.334ZM273.016 96.216C272.4 95.5813 272.092 94.7927 272.092 93.85C272.092 92.898 272.4 92.114 273.016 91.498C273.641 90.8727 274.453 90.56 275.452 90.56C276.451 90.56 277.258 90.8727 277.874 91.498C278.499 92.114 278.812 92.898 278.812 93.85C278.812 94.802 278.499 95.5907 277.874 96.216C277.258 96.832 276.451 97.14 275.452 97.14C274.463 97.14 273.651 96.832 273.016 96.216ZM273.898 92.24C273.487 92.6507 273.282 93.1873 273.282 93.85C273.282 94.5127 273.483 95.0493 273.884 95.46C274.295 95.88 274.817 96.09 275.452 96.09C276.087 96.09 276.605 95.8847 277.006 95.474C277.417 95.054 277.622 94.5127 277.622 93.85C277.622 93.206 277.417 92.6693 277.006 92.24C276.605 91.82 276.087 91.61 275.452 91.61C274.817 91.61 274.299 91.82 273.898 92.24Z" fill="#D8D8D8" />
    <path d="M354.218 93.136H351.572V92.016H355.338V95.782C354.918 96.202 354.363 96.5333 353.672 96.776C352.972 97.0187 352.305 97.14 351.67 97.14C350.149 97.14 348.94 96.6827 348.044 95.768C347.148 94.8533 346.7 93.6307 346.7 92.1C346.7 90.672 347.143 89.4727 348.03 88.502C348.907 87.5407 350.069 87.06 351.516 87.06C352.767 87.06 353.793 87.3773 354.596 88.012L354.078 88.964C353.499 88.4413 352.692 88.18 351.656 88.18C350.564 88.18 349.673 88.5393 348.982 89.258C348.301 89.9673 347.96 90.9147 347.96 92.1C347.96 93.2947 348.301 94.2467 348.982 94.956C349.663 95.6653 350.569 96.02 351.698 96.02C352.146 96.02 352.617 95.9407 353.112 95.782C353.579 95.614 353.947 95.404 354.218 95.152V93.136ZM358.608 97H357.488V90.7H358.608V97ZM357.348 88.334C357.348 88.138 357.418 87.9793 357.558 87.858C357.698 87.7273 357.871 87.662 358.076 87.662C358.272 87.662 358.435 87.7273 358.566 87.858C358.697 87.9793 358.762 88.138 358.762 88.334C358.762 88.5487 358.697 88.726 358.566 88.866C358.435 88.9967 358.272 89.062 358.076 89.062C357.871 89.062 357.698 88.9967 357.558 88.866C357.418 88.726 357.348 88.5487 357.348 88.334ZM365.336 90.7H366.456V97H365.336V96.104C364.748 96.7947 364.006 97.14 363.11 97.14C362.373 97.14 361.799 96.916 361.388 96.468C360.987 96.0107 360.786 95.3387 360.786 94.452V90.7H361.906V94.2C361.906 95.46 362.447 96.09 363.53 96.09C363.866 96.09 364.197 96.006 364.524 95.838C364.86 95.6607 365.131 95.432 365.336 95.152V90.7ZM367.619 97.91C367.619 97.4247 367.796 97.0187 368.151 96.692C368.505 96.3653 369 96.132 369.635 95.992C369.532 95.8613 369.481 95.6887 369.481 95.474C369.481 95.2593 369.537 95.082 369.649 94.942C369.201 94.7647 368.851 94.494 368.599 94.13C368.356 93.766 368.235 93.346 368.235 92.87C368.235 92.2167 368.468 91.6707 368.935 91.232C369.411 90.784 370.036 90.56 370.811 90.56C371.408 90.56 371.94 90.714 372.407 91.022L374.255 90.574L374.283 91.484L373.093 91.778C373.289 92.1047 373.387 92.4687 373.387 92.87C373.387 93.514 373.149 94.0553 372.673 94.494C372.206 94.9233 371.585 95.138 370.811 95.138C370.596 95.138 370.456 95.1333 370.391 95.124C370.344 95.236 370.321 95.3527 370.321 95.474C370.321 95.642 370.363 95.782 370.447 95.894C370.465 95.894 370.521 95.894 370.615 95.894C370.717 95.8847 370.787 95.88 370.825 95.88C371.805 95.88 372.584 96.0573 373.163 96.412C373.741 96.7573 374.031 97.2567 374.031 97.91C374.031 98.5447 373.741 99.0347 373.163 99.38C372.584 99.7347 371.805 99.912 370.825 99.912C369.835 99.912 369.051 99.7393 368.473 99.394C367.903 99.058 367.619 98.5633 367.619 97.91ZM372.981 97.91C372.981 97.5647 372.789 97.2893 372.407 97.084C372.024 96.888 371.497 96.79 370.825 96.79C370.153 96.79 369.625 96.888 369.243 97.084C368.86 97.2893 368.669 97.5647 368.669 97.91C368.669 98.2553 368.86 98.5213 369.243 98.708C369.625 98.904 370.153 99.002 370.825 99.002C371.497 99.002 372.024 98.9087 372.407 98.722C372.789 98.5353 372.981 98.2647 372.981 97.91ZM369.285 92.87C369.285 93.262 369.425 93.5887 369.705 93.85C369.994 94.102 370.363 94.228 370.811 94.228C371.259 94.228 371.623 94.102 371.903 93.85C372.192 93.598 372.337 93.2713 372.337 92.87C372.337 92.4687 372.197 92.1373 371.917 91.876C371.627 91.6053 371.259 91.47 370.811 91.47C370.363 91.47 369.994 91.6053 369.705 91.876C369.425 92.1373 369.285 92.4687 369.285 92.87ZM376.524 97H375.404V90.7H376.524V91.47C376.758 91.2087 377.061 90.9987 377.434 90.84C377.817 90.672 378.2 90.588 378.582 90.588C380.328 90.588 381.2 91.512 381.2 93.36V97H380.08V93.57C380.08 92.282 379.488 91.638 378.302 91.638C377.593 91.638 377 91.9087 376.524 92.45V97ZM383.592 96.216C382.976 95.5813 382.668 94.7927 382.668 93.85C382.668 92.898 382.976 92.114 383.592 91.498C384.217 90.8727 385.029 90.56 386.028 90.56C387.027 90.56 387.834 90.8727 388.45 91.498C389.075 92.114 389.388 92.898 389.388 93.85C389.388 94.802 389.075 95.5907 388.45 96.216C387.834 96.832 387.027 97.14 386.028 97.14C385.039 97.14 384.227 96.832 383.592 96.216ZM384.474 92.24C384.063 92.6507 383.858 93.1873 383.858 93.85C383.858 94.5127 384.059 95.0493 384.46 95.46C384.871 95.88 385.393 96.09 386.028 96.09C386.663 96.09 387.181 95.8847 387.582 95.474C387.993 95.054 388.198 94.5127 388.198 93.85C388.198 93.206 387.993 92.6693 387.582 92.24C387.181 91.82 386.663 91.61 386.028 91.61C385.393 91.61 384.875 91.82 384.474 92.24Z" fill="#D8D8D8" />
    <line x1="16.5" y1="0.5" x2="16.5" y2="77.5" stroke="#D8D8D8" stroke-miterlimit="5.75877" stroke-linecap="square" stroke-dasharray="3 3" />
    <line x1="132.5" y1="0.5" x2="132.5" y2="77.5" stroke="#D8D8D8" stroke-miterlimit="5.75877" stroke-linecap="square" stroke-dasharray="3 3" />
    <line x1="248.5" y1="0.5" x2="248.5" y2="77.5" stroke="#D8D8D8" stroke-miterlimit="5.75877" stroke-linecap="square" stroke-dasharray="3 3" />
    <line x1="364.5" y1="0.5" x2="364.5" y2="77.5" stroke="#D8D8D8" stroke-miterlimit="5.75877" stroke-linecap="square" stroke-dasharray="3 3" />
    <path d="M4 76.5002C11.1667 68.5002 33.9 51.5003 53.5 53.5003C78 56.0003 78.5 68.0001 100 75.0002C121.5 82.0004 144 46.5004 176 43.0004C208 39.5004 222 64.0004 249.5 71.5004C260.333 72.5003 286.2 70.3002 303 53.5002C324 32.5002 355.5 23.0002 374 23.5002" stroke="#39B100" stroke-width="3" stroke-linecap="round" stroke-linejoin="round" />
    <circle cx="16.5" cy="65.5" r="4" fill="#39B100" stroke="white" />
    <circle cx="132.5" cy="63.5" r="4" fill="#39B100" stroke="white" />
    <circle cx="248.5" cy="71.5" r="4" fill="#39B100" stroke="white" />
    <circle cx="364.5" cy="24.5" r="4" fill="#39B100" stroke="white" />
    <path d="M4 61.5002C11.1667 53.5002 33.9 36.5003 53.5 38.5003C78 41.0003 78.5 53.0001 100 60.0002C121.5 67.0004 144 31.5004 176 28.0004C208 24.5004 222 49.0004 249.5 56.5004C260.333 57.5003 286.2 55.3002 303 38.5002C324 17.5002 355.5 8.00017 374 8.50017" stroke="#EF4036" stroke-width="3" stroke-linecap="round" stroke-linejoin="round" />
    <circle cx="16.5" cy="50.5" r="4" fill="#EF4036" stroke="white" />
    <circle cx="132.5" cy="48.5" r="4" fill="#EF4036" stroke="white" />
    <circle cx="248.5" cy="56.5" r="4" fill="#EF4036" stroke="white" />
    <circle cx="364.5" cy="9.5" r="4" fill="#EF4036" stroke="white" />
</svg>