<svg width="28" height="28" viewBox="0 0 28 28" fill="none" xmlns="http://www.w3.org/2000/svg">
    <path d="M25.0422 19.9579C25.0997 19.945 25.1588 19.9191 25.218 19.8745C27.0311 18.5361 27.2329 16.5171 27.2272 14.4552C27.2952 14.2446 27.3633 14.0347 27.4297 13.8241C27.6347 13.1751 27.9572 12.429 27.7425 11.7436C27.6566 11.4705 27.4962 11.2493 27.2904 11.0962C27.288 11.0419 27.2864 10.9885 27.2831 10.935C27.2459 10.3144 26.4308 10.3233 26.319 10.8872C26.0565 10.948 25.9657 11.2477 26.0006 11.4802C26.1326 12.3423 26.1326 13.1873 26.0289 14.0137C25.8726 14.6335 25.6554 15.2378 25.3743 15.8171C24.6711 17.2641 23.5814 18.4996 23.1382 20.0706C23.1002 20.2067 23.1212 20.3282 23.1779 20.4262C22.64 21.1465 22.0607 21.8311 21.4677 22.4735C21.4288 22.5157 21.3996 22.5602 21.3777 22.6048C21.3081 22.6672 21.2367 22.7279 21.1663 22.7895C21.0933 22.8033 21.0204 22.826 20.9492 22.8559C20.8438 22.8308 20.7304 22.8349 20.6242 22.8819C19.7938 23.2481 19.0104 23.6969 18.2747 24.2292C18.2512 24.2462 18.2294 24.2657 18.2083 24.2867C18.1873 24.277 18.1662 24.2673 18.1427 24.26C17.8923 24.1814 17.6242 24.3094 17.3908 24.3847C16.5247 24.6626 14.471 24.9802 14.8712 26.3373C15.1475 27.2746 16.1877 27.0186 17.0141 26.6176C17.2936 26.5803 17.5634 26.4782 17.7975 26.3162C17.9288 26.3988 18.0981 26.4191 18.2739 26.3186C19.5419 25.5976 20.7563 24.7923 21.914 23.9059C22.0777 23.7804 22.1393 23.5729 22.115 23.3866C23.3975 22.5416 24.3203 21.3069 25.0422 19.9579ZM16.7597 25.6608C16.7492 25.6608 16.7387 25.6608 16.7281 25.66C16.7338 25.6397 16.737 25.6203 16.7395 25.6008C16.8262 25.5789 16.9088 25.5579 16.9842 25.5344C16.9096 25.5789 16.8351 25.6211 16.7597 25.6608Z" fill="#39B100" />
    <path d="M1.06093 8.97439C0.118698 11.1497 -0.126817 13.4863 0.0562827 15.8568C0.211837 17.8701 0.887556 19.6679 2.13442 21.2769C3.41612 22.9321 4.98298 24.2316 6.75322 25.3165C9.52726 27.0162 12.5136 27.6376 15.7275 27.0899C16.3109 26.9911 16.8788 26.7975 17.4621 26.7051C19.7752 26.3405 21.496 24.9227 23.0888 23.3939C24.0181 22.5019 24.7489 21.3693 25.4245 20.2569C26.084 19.1721 26.5329 17.9609 27.1219 16.8299C27.8689 15.3983 28.0487 13.8695 27.9896 12.2913C27.9896 12.0417 27.9945 11.7922 27.9888 11.5426C27.9296 9.13642 27.0117 7.04941 25.5283 5.2095C25.1086 4.68937 24.505 4.30615 23.9525 3.90673C21.9691 2.47191 19.8246 1.35629 17.4808 0.617407C16.6998 0.371113 15.9325 0.162086 15.1078 0.210697C14.9555 0.219609 14.7999 0.165338 14.6452 0.141033C10.6016 -0.476322 7.30412 0.965791 4.53089 3.82653C4.03182 4.34099 3.62028 4.94213 3.10825 5.44201C2.0931 6.43286 1.59646 7.74049 1.06093 8.97439ZM4.52685 4.43821C5.58737 3.1233 6.93148 2.23615 8.45542 1.49889C9.88943 0.805378 11.3412 0.537203 12.8903 0.580953C13.8334 0.584194 14.7691 0.602018 15.602 1.14808C15.7494 1.24449 15.9593 1.26151 16.144 1.28096C17.8802 1.46163 19.4495 2.08303 20.9743 2.92156C22.1555 3.57133 23.2906 4.24943 24.3146 5.13657C25.6328 6.2773 26.4583 7.68135 26.9574 9.33978C27.4913 11.1149 27.706 12.9094 27.2572 14.6975C26.9339 15.9889 26.4948 17.29 25.8645 18.4559C25.0981 19.8753 24.189 21.2526 23.139 22.4735C21.7674 24.068 20.1114 25.3699 17.9758 25.8447C16.7897 26.108 15.5963 26.4337 14.3924 26.5034C11.4474 26.6735 8.81187 25.6835 6.36676 24.0947C4.74803 23.0439 3.3691 21.7647 2.26564 20.1759C1.55754 19.1583 1.16136 18.0427 0.864837 16.842C0.330121 14.6748 0.608844 12.5586 1.04958 10.4416C1.4409 8.56281 2.42933 6.98135 3.63649 5.52303C3.93544 5.1625 4.23357 4.80198 4.52685 4.43821Z" fill="#251C1C" />
    <path d="M3.75644 20.233C4.86314 21.6614 6.21612 22.7835 7.74411 23.72C10.139 25.1872 12.717 25.7236 15.4918 25.2512C15.9949 25.1654 16.4851 24.9985 16.989 24.9191C18.9853 24.6039 20.4712 23.3797 21.846 22.06C22.6481 21.2903 23.2793 20.3124 23.8626 19.3523C24.4321 18.4158 24.8194 17.3698 25.3282 16.3936C25.9723 15.1581 26.1278 13.8375 26.0768 12.4756C26.0768 12.2601 26.0808 12.0446 26.076 11.8291C26.0249 9.75176 25.2326 7.95074 23.9517 6.36279C23.5896 5.91314 23.0686 5.58258 22.5914 5.23745C20.8795 3.99869 19.0283 3.03619 17.0052 2.39777C16.3304 2.18551 15.6684 2.00485 14.9563 2.04698C14.8251 2.05508 14.6906 2.00728 14.5569 1.98703C11.0666 1.45393 8.21967 2.69917 5.8256 5.16778C5.39539 5.61257 5.03975 6.13108 4.59739 6.5629C3.72159 7.41845 3.2922 8.54702 2.8304 9.6124C2.01698 11.4896 1.80471 13.5077 1.9627 15.5534C2.09719 17.2913 2.68053 18.8436 3.75644 20.233ZM2.82066 10.8787C3.1577 9.25674 4.01163 7.89158 5.05351 6.63257C5.31115 6.32146 5.56881 6.01037 5.82239 5.69602C6.73708 4.56096 7.89803 3.79534 9.21295 3.15935C10.4517 2.56063 11.7043 2.32892 13.0419 2.36618C13.8561 2.36943 14.6638 2.38401 15.3833 2.85553C15.5097 2.93898 15.6919 2.95437 15.8507 2.97057C17.3496 3.12613 18.7042 3.66327 20.0207 4.38757C21.0399 4.94821 22.0202 5.53398 22.9041 6.29879C24.0424 7.28396 24.7546 8.49599 25.1856 9.92838C25.6466 11.4596 25.8321 13.0087 25.4448 14.5529C25.1653 15.6677 24.7862 16.7906 24.2426 17.7976C23.5806 19.0226 22.7956 20.2119 21.889 21.266C20.7053 22.6425 19.2762 23.7662 17.4322 24.1753C16.4081 24.403 15.3776 24.6841 14.3389 24.7441C11.7966 24.8915 9.52163 24.036 7.41031 22.6652C6.01356 21.7578 4.82263 20.6535 3.86986 19.2827C3.25898 18.4036 2.9171 17.4403 2.66108 16.4041C2.19928 14.5334 2.43988 12.7065 2.82066 10.8787Z" fill="#251C1C" />
    <path d="M23.1827 15.3368C23.2264 15.4762 23.3877 15.5791 23.4995 15.6973C23.6024 15.5604 23.7466 15.434 23.7887 15.2809C23.8057 15.2177 23.6016 15.0946 23.446 14.9512C23.3253 15.1181 23.1576 15.2582 23.1827 15.3368Z" fill="#251C1C" />
    <path d="M23.4566 11.1866C23.5174 11.0983 23.4858 10.8277 23.4104 10.7807C23.0491 10.5595 22.9097 10.8674 22.708 11.1428C22.9891 11.5026 23.2476 11.4871 23.4566 11.1866Z" fill="#251C1C" />
    <path d="M22.4788 18.4594C22.7477 18.5656 22.8766 18.329 22.8968 18.12C22.9098 17.9831 22.7777 17.8324 22.7356 17.7408C22.358 17.6841 22.1976 17.8283 22.2122 18.0698C22.2211 18.2091 22.3532 18.41 22.4788 18.4594Z" fill="#251C1C" />
    <path d="M20.899 8.12484C21.2846 8.03815 21.2433 7.73027 21.1898 7.40377C20.8504 7.37055 20.5466 7.34382 20.4988 7.75296C20.4672 8.01303 20.6681 8.17669 20.899 8.12484Z" fill="#251C1C" />
    <path d="M13.2565 14.4185C13.2808 15.6038 13.2921 16.7891 13.3043 17.9752C13.3075 18.3195 13.4704 18.4524 13.8828 18.4054C14.0537 16.8507 13.6826 15.313 13.8139 13.6464C14.1436 13.8701 14.3972 14.0094 14.6111 14.1941C15.06 14.5814 15.4909 14.9889 15.9236 15.3948C17.0416 16.444 18.1524 17.5005 19.2753 18.5448C19.5637 18.8129 19.8854 19.0447 20.2459 19.3371C20.3974 19.0762 20.4978 18.9037 20.57 18.7781C19.7727 18.0012 19.0355 17.2574 18.2707 16.5428C16.9736 15.3292 15.6522 14.1407 14.3567 12.9262C14.1201 12.7042 13.89 12.5244 13.5773 12.6605C13.2508 12.8031 13.1098 13.0818 13.1625 13.4536C13.2087 13.7737 13.25 14.0961 13.2565 14.4185Z" fill="#251C1C" />
    <path d="M19.5282 20.2344C19.4026 20.505 19.2608 20.6735 19.2721 20.8315C19.281 20.9554 19.482 21.1669 19.5922 21.1636C19.8952 21.1539 19.9535 20.8914 19.8951 20.6467C19.8684 20.5317 19.7226 20.445 19.5282 20.2344Z" fill="#251C1C" />
    <path d="M17.2644 5.75161C17.4661 5.73135 17.6581 5.61712 17.996 5.48425C17.7432 5.29791 17.616 5.13586 17.5269 5.15369C17.3454 5.19096 17.1834 5.32626 17.014 5.42024C17.0983 5.53771 17.1923 5.7589 17.2644 5.75161Z" fill="#251C1C" />
    <path d="M13.5749 22.5406C13.5514 22.5965 13.7977 22.7674 13.92 22.8849C14.0805 22.6929 14.2587 22.5122 14.3843 22.3C14.407 22.2619 14.2125 22.095 14.0375 21.8965C13.8431 22.1509 13.6657 22.3275 13.5749 22.5406Z" fill="#251C1C" />
    <path d="M12.2276 4.89386C12.4116 4.7853 12.5574 4.61193 12.7178 4.46286C12.5939 4.35673 12.4343 4.13959 12.3532 4.16632C12.1685 4.22466 12.0235 4.4037 11.7902 4.59167C12.0121 4.75046 12.179 4.92303 12.2276 4.89386Z" fill="#251C1C" />
    <path d="M9.38795 5.95853C8.90509 5.65957 8.58749 5.65552 8.26099 6.04035C8.36307 6.2113 8.46437 6.38143 8.61587 6.6342C8.87999 6.40249 9.089 6.22021 9.38795 5.95853Z" fill="#251C1C" />
    <path d="M8.94072 20.2393C8.92452 20.1291 8.69769 19.9395 8.65637 19.9606C8.43843 20.0724 8.24966 20.2401 7.96448 20.4516C8.18971 20.6363 8.30557 20.7886 8.45545 20.8397C8.66691 20.9109 8.98366 20.5342 8.94072 20.2393Z" fill="#251C1C" />
    <path d="M6.10113 9.1414C6.26803 9.06687 6.41061 8.93887 6.6245 8.78575C6.44383 8.631 6.29151 8.47464 6.27207 8.48923C6.12056 8.60589 5.98446 8.74929 5.87347 8.90484C5.85969 8.92347 6.06467 9.15761 6.10113 9.1414Z" fill="#251C1C" />
    <path d="M5.59963 17.7879C5.84268 17.8228 6.06304 17.4784 5.97797 17.2054C5.94638 17.1033 5.82239 17.0296 5.64821 16.8457C5.49184 17.1244 5.3525 17.3099 5.29336 17.5182C5.27634 17.5789 5.48053 17.7709 5.59963 17.7879Z" fill="#251C1C" />
    <path d="M3.71592 13.2227C3.993 13.3767 4.16636 13.1782 4.31057 12.9724C4.35351 12.9116 4.35838 12.8233 4.39808 12.6872C4.27898 12.6191 4.21578 12.5616 4.14367 12.5462C3.85363 12.4863 3.66889 12.6386 3.59759 12.8954C3.57167 12.9902 3.63652 13.1782 3.71592 13.2227Z" fill="#251C1C" />
</svg>