<svg width="15" height="15" viewBox="0 0 15 15" fill="none" xmlns="http://www.w3.org/2000/svg">
    <path fill-rule="evenodd" clip-rule="evenodd" d="M14.5702 0.365142C14.0834 -0.121714 13.2942 -0.121714 12.8074 0.365142L7.51304 5.66025L2.26291 0.409383C1.75165 -0.101942 0.922747 -0.101942 0.411494 0.409383C-0.09976 0.920708 -0.09976 1.74973 0.411494 2.26105L5.66163 7.51192L0.365091 12.8092C-0.121697 13.2961 -0.121697 14.0854 0.365091 14.5723C0.851879 15.0591 1.64112 15.0591 2.12791 14.5723L7.42445 9.27499L12.7652 14.6165C13.2765 15.1278 14.1054 15.1278 14.6166 14.6165C15.1279 14.1052 15.1279 13.2762 14.6166 12.7648L9.27586 7.42332L14.5702 2.1282C15.057 1.64135 15.057 0.851998 14.5702 0.365142Z" fill="#4B4B4B" />
</svg>