<svg width="13" height="13" viewBox="0 0 13 13" fill="none" xmlns="http://www.w3.org/2000/svg">
<path d="M7.69102 6.49997L12.753 1.43787C13.0824 1.1086 13.0824 0.57622 12.753 0.246951C12.4237 -0.0823171 11.8913 -0.0823171 11.562 0.246951L6.49994 5.30905L1.43799 0.246951C1.10857 -0.0823171 0.576337 -0.0823171 0.247068 0.246951C-0.0823558 0.57622 -0.0823558 1.1086 0.247068 1.43787L5.30902 6.49997L0.247068 11.5621C-0.0823558 11.8913 -0.0823558 12.4237 0.247068 12.753C0.411162 12.9172 0.626922 12.9997 0.842528 12.9997C1.05813 12.9997 1.27374 12.9172 1.43799 12.753L6.49994 7.69088L11.562 12.753C11.7263 12.9172 11.9419 12.9997 12.1575 12.9997C12.3731 12.9997 12.5887 12.9172 12.753 12.753C13.0824 12.4237 13.0824 11.8913 12.753 11.5621L7.69102 6.49997Z" fill="#4B4B4B"/>
</svg>
