<svg width="87" height="58" viewBox="0 0 87 58" fill="none" xmlns="http://www.w3.org/2000/svg">
<path d="M50.1845 19.4463C51.2071 18.1311 51.319 16.1256 49.6366 15.2077C47.7227 14.1586 45.5192 14.3515 43.8446 15.7978C43.1693 16.384 42.6986 17.0666 42.3629 17.8149C41.923 17.0628 41.4406 16.33 40.9081 15.6242C39.2295 13.4066 36.2236 14.2551 35.8763 16.9857C35.4595 20.264 37.1265 24.1401 40.1286 25.7561C40.7807 26.4079 41.7223 26.6007 42.5867 26.4272C46.0094 26.35 48.2938 21.8761 50.1845 19.4463Z" fill="#EF4036"/>
<path d="M86.9273 5.98992C86.8385 3.25929 85.8623 2.45706 83.0762 2.3105C73.2094 1.80526 63.3426 1.32321 53.4758 0.82182C50.5277 0.671405 47.5836 0.374433 44.6355 0.343579C31.1608 0.193163 17.6821 0.119831 4.20738 0.0002692C1.49468 -0.0228717 -0.102893 1.44658 0.00515212 4.15021C0.225101 9.6616 0.630179 15.1692 0.78067 20.6844C1.01605 29.4008 1.07779 38.1172 1.26301 46.8336C1.32861 50.1466 1.17815 53.5368 3.5127 56.6839C5.73919 56.4178 7.76118 55.9743 9.78316 55.9705C17.0916 55.9589 24.4039 56.0899 31.7162 56.1787C36.9796 56.2404 42.243 56.2867 47.5024 56.4101C50.7013 56.4834 53.8964 56.7071 57.0915 56.8344C60.5566 56.9694 64.0411 57.3666 67.4754 57.1005C71.4924 56.7881 75.382 57.0079 79.3179 57.7716C83.4391 58.5699 84.9054 57.3319 84.6623 53.1665C83.9253 40.5509 85.3953 28.0741 86.7266 15.578C87.0623 12.4077 87.0353 9.17951 86.9273 5.98992ZM81.4789 4.89841C81.066 5.5695 80.8382 6.36402 80.3095 6.74584C74.6025 10.8649 68.93 15.0381 63.084 18.9527C57.8786 22.4354 52.4108 25.5247 47.1706 28.9612C44.2727 30.8626 41.7067 30.7275 39.075 28.6449C30.0378 21.4789 20.171 15.5317 10.5935 9.16021C8.33231 7.65991 5.93223 6.14029 4.38487 3.63336C10.2579 1.04158 69.9875 2.08679 81.4789 4.89841ZM2.48621 7.13924C4.45417 8.37728 5.82417 9.21803 7.16701 10.0935C12.1024 13.2985 17.0453 16.492 21.946 19.751C23.3235 20.6651 24.5237 21.8415 25.8742 22.8018C27.4872 23.9434 27.5798 25.3049 26.4917 26.7473C25.0331 28.6873 23.5859 30.6697 21.8842 32.386C17.1032 37.1954 12.1987 41.8892 7.3251 46.6061C6.60737 47.3003 5.77787 47.8827 4.37715 49.0243C3.73273 34.7387 3.1229 21.2745 2.48621 7.13924ZM62.3123 54.5319C52.4416 54.3506 42.5671 54.1191 32.6964 53.8916C24.62 53.7065 16.5476 53.502 8.47123 53.2938C7.85769 53.2783 7.24418 53.155 6.48401 53.0624C6.64993 52.561 6.67687 52.1522 6.8891 51.8976C11.89 45.935 16.5206 39.6445 22.6175 34.6577C24.5854 33.0494 26.1404 30.9474 27.9425 29.1308C30.7323 26.3192 31.1453 26.2999 34.3867 28.6988C36.6402 30.3688 38.8627 32.0775 41.0854 33.786C43.1382 35.3712 43.748 35.375 45.6503 33.6394C46.5919 32.7755 47.3789 31.7072 48.4208 31.0014C50.7437 29.424 53.1787 28.0124 55.5248 26.5584C59.0517 28.5678 74.9382 48.4342 76.802 53.2475C71.994 54.3737 67.1666 54.6206 62.3123 54.5319ZM83.9754 15.0727C82.4859 25.6211 81.2704 36.1888 81.2588 46.8606C81.2549 48.1372 81.1507 49.4139 81.0658 51.2574C76.0726 46.7488 61.1355 27.7617 59.727 24.063C67.4407 18.891 75.243 13.6534 83.0762 8.40043C84.8281 10.7338 84.2686 12.9862 83.9754 15.0727Z" fill="black"/>
</svg>
