<svg width="209" height="169" viewBox="0 0 209 169" fill="none" xmlns="http://www.w3.org/2000/svg">
    <path d="M202.868 85.9507C203.781 85.8673 204.43 85.2744 204.486 84.333C205.346 69.9563 205.873 55.5614 206.056 41.1607C206.103 37.4843 206.127 33.8068 206.129 30.1304C206.13 28.4452 206.127 26.7601 206.119 25.0738C206.111 23.4116 206.275 21.6157 205.977 19.9717C205.297 16.2244 201.079 16.7716 198.182 16.7785C194.731 16.7865 191.279 16.9647 187.846 17.3109C185.913 17.5062 183.977 17.7393 182.057 18.0489C180.645 18.2763 179.175 18.6681 178.135 19.7157C177.875 19.9785 177.669 20.2641 177.503 20.5646C176.93 20.7634 176.457 21.2478 176.415 22.0189C175.541 38.0727 174.931 54.1402 174.592 70.2145C174.496 74.7524 174.422 79.2902 174.369 83.828C174.357 84.7843 175.126 85.335 175.987 85.4458C184.903 86.5962 193.914 86.7653 202.868 85.9507ZM202.867 35.9352C202.806 44.7241 202.621 53.5118 202.306 62.2962C202.288 62.8114 202.265 63.3267 202.246 63.8408C202.226 62.9165 202.189 61.9934 202.137 61.0692L202.867 35.9352ZM198.603 46.4469C198.551 45.8837 198.5 45.3216 198.444 44.7584C198.568 44.651 198.672 44.5184 198.75 44.3562C198.7 45.0531 198.651 45.75 198.603 46.4469ZM196.681 20.0288C197.181 20.0208 197.682 20.0139 198.182 20.0128C198.517 20.0116 198.852 20.0185 199.188 20.0208C199.071 20.1864 198.986 20.3898 198.952 20.6377C198.813 21.6191 198.672 22.6016 198.533 23.5841C198.497 22.9935 198.464 22.4017 198.425 21.811C198.351 20.6823 197.494 20.175 196.679 20.2607C196.679 20.1841 196.68 20.1065 196.681 20.0288ZM196.46 69.6456C196.465 69.9198 196.471 70.194 196.474 70.4682C196.46 70.6715 196.446 70.8749 196.432 71.0771C196.412 71.0714 196.393 71.0668 196.373 71.0622C196.408 70.5904 196.436 70.1186 196.46 69.6456ZM193.382 20.135C193.368 20.2458 193.354 20.3578 193.34 20.4686C193.101 20.2996 192.813 20.2047 192.516 20.1807C192.805 20.1648 193.095 20.1487 193.382 20.135ZM192.033 20.2081C191.791 20.2538 191.559 20.3487 191.359 20.4926C191.358 20.4092 191.35 20.3304 191.339 20.2538C191.571 20.2378 191.803 20.2218 192.033 20.2081ZM191.332 49.1294C191.365 49.8 191.398 50.4706 191.431 51.1401C191.357 51.1675 191.286 51.1995 191.218 51.2372C191.255 50.5346 191.294 49.832 191.332 49.1294ZM182.208 21.6533C182.207 21.659 182.206 21.6648 182.205 21.6705C182.181 21.6579 182.157 21.6453 182.132 21.6339C182.14 21.5014 182.133 21.3757 182.116 21.2569C182.203 21.2409 182.291 21.2261 182.377 21.2135C182.302 21.3403 182.244 21.4877 182.208 21.6533ZM186.71 83.114C186.73 83.0249 186.74 82.9324 186.743 82.8353C186.937 82.8855 187.14 82.9084 187.343 82.8947C187.762 83.0409 188.245 83.0203 188.655 82.8318C188.776 82.9723 188.918 83.0923 189.072 83.1894C188.285 83.1734 187.497 83.146 186.71 83.114ZM191.106 82.986C191.127 83.0672 191.155 83.1448 191.187 83.2191C191.078 83.2191 190.971 83.2168 190.862 83.2168C190.95 83.1528 191.031 83.0751 191.106 82.986Z" fill="#48AE4C" />
    <path d="M43.5785 65.8562C42.2944 65.8939 41.0639 66.544 39.9271 67.0786C39.1366 67.4511 38.1644 67.7641 37.4401 68.3102C37.0459 67.1883 36.2953 66.2332 35.1037 65.7625C32.1391 64.5915 29.9044 67.402 28.6683 69.7017C28.1542 69.7383 27.6766 69.8285 27.1888 69.9907C27.1168 68.806 26.7661 67.6133 25.8579 66.8079C25.4409 66.4377 24.9519 66.1829 24.4047 66.0687C23.9694 65.9784 23.2096 66.2641 22.8657 66.143C22.6407 66.0642 22.4544 66.1098 22.3185 66.2206C20.8516 66.4057 19.5709 67.4271 19.0294 68.9043C17.8172 67.6841 15.7665 66.8867 14.1294 66.849C12.1884 66.8033 11.7166 68.3776 11.9531 70.0228C12.0707 70.8385 13.3068 70.49 13.1915 69.6811C13.0395 68.6164 13.4782 68.0006 14.6755 68.2165C15.1748 68.3068 15.6694 68.4519 16.1492 68.6118C17.0563 68.9134 17.9167 69.3487 18.8307 69.624C18.8238 69.6606 18.8112 69.6937 18.8054 69.7303C18.4067 72.2631 20.2073 75.0369 22.8155 75.4014C25.6557 75.799 27.1237 73.2067 27.2025 70.7219C27.7086 70.6294 28.2182 70.6054 28.7288 70.6545C28.1199 75.7282 36.4164 77.4921 37.6252 71.9306C37.8102 71.0806 37.841 70.1415 37.6845 69.2481C40.383 68.7889 44.2171 65.0542 45.1528 69.151C45.2727 69.6743 46.077 69.6651 46.2027 69.151C46.6163 67.4545 45.3014 65.8059 43.5785 65.8562ZM22.6475 74.0613C20.919 73.6294 19.7091 71.5445 20.053 69.8296C20.3363 68.4187 21.2904 67.7492 22.4294 67.3539C22.4591 67.3688 22.4865 67.3848 22.5197 67.3962C22.8704 67.5208 23.0074 67.41 23.3513 67.3997C24.8902 67.3528 25.6682 68.2737 25.8487 69.7394C26.0909 71.7182 25.3288 74.7331 22.6475 74.0613ZM36.4781 70.5209C36.4244 72.2654 35.7823 73.9105 33.8424 74.1744C31.6923 74.4669 29.3058 72.7795 29.853 70.3472C29.8599 70.3175 29.861 70.2878 29.8633 70.2581C30.4928 69.0676 31.2228 67.7596 32.4818 67.1643C34.8786 66.0299 36.5444 68.3605 36.4781 70.5209Z" fill="#48AE4C" />
    <path d="M100.903 45.6028C99.3431 45.4498 97.7607 45.5457 96.1932 45.5537C95.5786 45.5571 94.6476 45.7514 94.0535 45.5606C92.8687 45.1813 93.1623 46.238 93.1657 44.5963C93.1737 41.1747 93.4342 37.7473 93.2743 34.3279C93.2457 33.7133 92.4129 33.7441 92.3409 34.3279C92.037 36.8047 91.9707 39.3056 91.8371 41.7961C91.7697 43.054 91.1254 45.3138 91.82 46.462C92.2975 47.2514 93.2424 47.1371 94.0524 47.16C96.303 47.2251 98.6668 47.3336 100.901 47.0675C101.834 46.9566 101.853 45.6965 100.903 45.6028Z" fill="black" />
    <path d="M100.185 42.4987C100.638 41.1369 101.039 39.7557 101.437 38.3756C102.869 38.4624 104.361 38.5447 105.796 38.3813C106.073 38.78 106.341 39.1844 106.595 39.5991C106.998 40.2595 107.336 41.5642 108.216 41.731C108.569 41.7984 109.074 41.635 109.131 41.2111C109.137 41.1689 109.143 41.1255 109.148 41.0832C109.209 40.6331 109.018 40.3166 108.624 40.1989C108.312 39.7682 107.82 38.676 107.583 38.3093C107.51 38.1962 107.431 38.0866 107.356 37.9746C107.74 37.5382 107.327 36.6722 106.589 36.783C106.569 36.7864 106.547 36.7898 106.526 36.7933C106.368 36.5785 106.211 36.3615 106.045 36.1513C105.253 35.1413 103.817 32.837 102.358 32.869C101.035 32.8975 100.949 34.4958 100.671 35.4955C100.057 37.7038 99.4169 39.9099 98.8994 42.1434C98.7029 42.9842 99.9139 43.3121 100.185 42.4987ZM102.418 34.9585C102.495 34.1268 102.667 34.1177 102.937 34.9311C103.153 35.1493 103.365 35.3709 103.571 35.5983C104.011 36.0758 104.427 36.574 104.829 37.0823C103.793 37.2651 102.767 37.4319 101.7 37.4708C101.904 36.7533 102.013 35.5754 102.418 34.9585Z" fill="black" />
    <path d="M120.146 45.5695C122.557 45.8186 125.713 45.6643 127.858 44.4419C128.427 44.1174 128.207 43.1132 127.511 43.1612C125.26 43.3166 123.089 43.8364 120.822 43.9792C120.453 40.9449 120.502 37.8911 120.482 34.8396C120.478 34.0707 119.39 34.1061 119.313 34.8396C118.96 38.1561 119.172 41.4738 119.369 44.7926C119.396 45.245 119.706 45.5238 120.146 45.5695Z" fill="black" />
    <path d="M129.674 43.8641C129.99 44.3988 130.683 44.1075 130.749 43.5728C130.904 42.3115 130.395 40.9657 130.153 39.7239C129.876 38.3072 129.641 36.8825 129.333 35.4716C129.212 34.9141 128.316 35.0352 128.337 35.6064C128.39 37.0082 128.559 38.3997 128.755 39.7878C128.945 41.137 128.974 42.6782 129.674 43.8641Z" fill="black" />
    <path d="M133.739 44.0582C133.748 44.6008 134.563 44.5997 134.582 44.0582C134.646 42.0852 134.574 40.2595 134.277 38.4156C135.025 39.4152 135.72 40.4548 136.338 41.5505C137.127 42.95 137.752 44.2478 139.083 45.2063C139.477 45.4896 140.216 45.2177 140.286 44.7162C140.784 41.1392 140.897 37.4033 140.272 33.8343C140.112 32.9204 138.59 33.1271 138.649 34.0537C138.834 36.9829 138.947 39.822 138.797 42.7226C137.921 41.5973 137.319 40.1075 136.567 39.0039C135.617 37.609 134.55 36.3089 133.399 35.0762C132.916 34.5586 131.965 35.0933 132.193 35.7788C133.062 38.3984 133.692 41.2866 133.739 44.0582Z" fill="black" />
    <path d="M145.179 43.0105C146.754 43.3761 149.492 42.3102 149.194 40.3795C149.134 39.9876 148.623 39.8562 148.322 40.0253C147.383 40.5531 147.031 41.6625 145.739 41.5619C144.256 41.4477 143.298 39.7911 143.254 38.4453C143.171 35.8462 146.145 34.4204 147.807 36.6151C148.129 37.0412 148.912 36.8219 148.735 36.2244C148.258 34.6158 146.388 33.8938 144.833 34.2308C142.885 34.6524 141.777 36.5317 141.806 38.4453C141.835 40.4537 143.144 42.5376 145.179 43.0105Z" fill="black" />
    <path d="M149.787 38.0521C148.417 38.2532 147.037 38.3903 145.656 38.46C145.118 38.4874 145.11 39.3088 145.656 39.3031C146.856 39.2905 148.053 39.3431 149.249 39.4276C149.222 40.9779 149.237 42.5305 149.266 44.0808C149.286 45.0862 150.863 45.0873 150.829 44.0808C150.769 42.3043 150.749 40.5278 150.705 38.7502C150.689 38.2349 150.252 37.9836 149.787 38.0521Z" fill="black" />
    <path d="M155.347 43.7898C159.255 44.2445 159.103 37.1338 158.715 34.906C158.531 33.8504 156.919 34.2971 157.106 35.3493C157.356 36.7637 157.384 38.2009 157.094 39.6129C156.876 40.6823 156.171 43.3236 154.543 41.4671C153.109 39.8323 153.214 36.7957 153.437 34.8089C153.484 34.3942 152.891 34.3873 152.762 34.7175C152.024 36.6014 152.019 38.6522 152.636 40.576C153.055 41.8796 153.786 43.607 155.347 43.7898Z" fill="black" />
    <path d="M162.885 42.6061C163.289 41.6304 163.654 40.6365 164.003 39.6357C164.933 39.6905 165.91 39.7213 166.853 39.6528C167.265 40.8946 167.598 42.1867 168.217 43.3292C168.522 43.8924 169.539 43.6662 169.475 42.9887C169.162 39.671 167.275 36.1763 165.863 33.1831C165.562 32.5433 164.64 32.7855 164.451 33.367C163.494 36.3157 162.411 39.2575 161.661 42.2667C161.459 43.0836 162.582 43.3407 162.885 42.6061ZM165.304 35.7273C165.695 36.6378 166.069 37.5552 166.422 38.4806C166.157 38.5709 165.891 38.6554 165.618 38.7103C165.192 38.7948 164.74 38.7982 164.297 38.7856C164.642 37.7688 164.973 36.7463 165.304 35.7273Z" fill="black" />
    <path d="M109.845 65.567C108.648 65.711 107.428 65.8686 106.202 66.0103C106.031 65.0426 105.61 64.1047 105.401 63.1404C105.223 62.3179 105.156 61.477 105.049 60.6453C106.284 60.7459 107.566 60.8658 108.543 60.0158C108.784 59.8056 108.84 59.3555 108.663 59.0893C108.607 59.0059 108.552 58.9225 108.496 58.8391C108.305 58.5524 107.944 58.5055 107.686 58.7351C107.008 59.3406 105.875 59.3646 104.82 59.3007C104.734 58.9534 104.238 58.9453 104.103 59.2492C103.818 59.2275 103.549 59.207 103.309 59.2013C101.641 59.1601 99.9723 59.0059 98.3044 59.0916C97.9113 59.1122 97.8108 59.6788 98.2095 59.7908C100.048 60.3095 101.99 60.458 103.898 60.5711C103.858 61.4302 103.958 62.303 104.073 63.1461C104.204 64.1104 104.325 65.2357 104.728 66.1714C103.351 66.3108 101.975 66.4193 100.625 66.449C100.138 66.4593 100.143 67.1779 100.625 67.2018C103.741 67.3584 106.704 67.516 109.842 67.2133C110.898 67.1105 110.887 65.4425 109.845 65.567Z" fill="black" />
    <path d="M117.189 58.1424C116.113 57.9893 115.021 58.1721 113.936 58.2235C112.741 58.2795 111.544 58.2772 110.349 58.332C109.637 58.3652 109.674 59.3271 110.349 59.4116C111.071 59.5019 111.873 59.599 112.697 59.6664C112.771 60.7369 112.846 61.8074 112.934 62.8779C113.024 63.9758 112.983 65.0794 113.43 66.0939C113.629 66.5463 114.411 66.4286 114.499 65.9545C114.702 64.868 114.398 63.7884 114.235 62.7031C114.087 61.7125 113.926 60.7243 113.766 59.735C114.969 59.7818 116.167 59.727 117.19 59.4437C117.782 59.2803 117.879 58.2406 117.189 58.1424Z" fill="black" />
    <path d="M119.612 65.6185C120.301 64.4852 120.949 63.3279 121.583 62.1626C122.459 62.0917 123.372 62.094 124.236 61.9272C124.277 62.0026 124.319 62.0781 124.36 62.1546C124.985 63.2902 125.498 64.6212 126.442 65.5226C126.92 65.9795 127.631 65.5157 127.509 64.9011C127.253 63.6227 126.39 62.4665 125.766 61.332C125.704 61.2178 125.641 61.1047 125.578 60.9916C125.576 60.7825 125.481 60.5894 125.295 60.4775C124.748 59.4824 124.204 58.4861 123.651 57.4956C123.363 56.9804 122.534 56.9575 122.253 57.4956C120.964 59.9633 119.618 62.4116 118.454 64.9422C118.098 65.7133 119.155 66.3702 119.612 65.6185ZM122.961 59.6012C123.139 59.9257 123.317 60.2512 123.495 60.5757C123.075 60.6797 122.658 60.8088 122.243 60.9448C122.482 60.4969 122.722 60.049 122.961 59.6012Z" fill="black" />
    <path d="M129.066 57.1232C129.22 58.7877 129.397 60.4397 129.608 62.0997C129.727 63.0514 129.598 64.7776 130.184 65.6093C130.742 66.4021 131.792 66.136 132.585 65.9909C134.121 65.711 135.658 65.4116 137.187 65.0906C138.251 64.8667 137.797 63.2615 136.739 63.4649C135.78 63.65 134.825 63.8511 133.87 64.0521C133.322 64.1675 132.708 64.3606 132.152 64.4155C131.229 64.5046 131.263 64.3229 131.098 63.4786C130.677 61.3194 130.244 59.1727 129.75 57.0295C129.662 56.6559 129.029 56.7279 129.066 57.1232Z" fill="black" />
    <path d="M140.648 56.8375C140.682 56.3576 139.955 56.2856 139.827 56.7266C139.146 59.0869 138.941 62.3932 140.226 64.5913C140.524 65.102 141.503 64.9283 141.423 64.2668C141.273 63.0181 140.803 61.8517 140.662 60.5893C140.524 59.3417 140.558 58.0885 140.648 56.8375Z" fill="black" />
    <path d="M140.721 53.0423C140.771 52.4288 139.971 52.1101 139.531 52.4609C139.253 52.6825 139.197 53.0218 139.307 53.3051C138.894 53.4777 138.878 54.1265 139.368 54.2922C139.731 54.4144 140.123 54.2842 140.385 54.0146C140.486 53.9095 140.567 53.7792 140.633 53.649C140.694 53.5267 140.729 53.3931 140.733 53.256C140.737 53.2183 140.735 53.1818 140.729 53.1452C140.695 52.9327 140.693 52.8995 140.721 53.0423Z" fill="black" />
    <path d="M146.399 55.4439C146.04 55.0292 145.223 55.2291 145.124 55.7809C144.834 57.3906 144.544 59.0015 144.271 60.6147C144.058 61.8748 143.759 63.1406 143.986 64.411C144.032 64.6761 144.406 64.6852 144.532 64.4819C145.041 63.657 145.273 62.7076 145.466 61.7548C145.699 61.8645 145.927 61.9925 146.187 62.0473C146.572 62.1284 146.982 62.1433 147.374 62.1193C147.779 62.0941 148.168 62.0279 148.536 61.9033C148.84 62.7316 149.129 63.5679 149.602 64.2865C149.946 64.8098 150.79 64.6201 150.799 63.962C150.819 62.4734 149.952 60.8797 149.269 59.5853C148.48 58.0898 147.503 56.7211 146.399 55.4439ZM147.079 60.9197C146.665 61.0008 146.068 61.1653 145.579 61.1824C145.614 61.0088 145.648 60.8363 145.683 60.6649C145.887 59.6984 146.079 58.7296 146.273 57.7619C146.877 58.5959 147.427 59.4642 147.901 60.3862C147.947 60.4741 147.985 60.5655 148.028 60.6547C147.716 60.7529 147.403 60.8569 147.079 60.9197Z" fill="black" />
    <path d="M158.592 55.3138C158.545 57.4079 158.425 59.4917 158.274 61.5767C156.504 59.197 154.752 56.8058 152.98 54.4284C152.566 53.8731 151.418 53.9542 151.499 54.8293C151.781 57.8786 152.057 60.9632 152.693 63.9621C152.838 64.6453 153.97 64.5037 153.922 63.7953C153.783 61.7229 153.549 59.6574 153.341 57.5895C154.971 59.8048 156.607 62.0154 158.216 64.2466C158.716 64.9412 159.65 64.6522 159.752 63.8308C160.103 61.0089 160.252 58.1562 160.302 55.3138C160.321 54.2124 158.616 54.2124 158.592 55.3138Z" fill="black" />
    <path d="M165.85 53.0844C164.142 52.9873 164.168 55.4093 164.016 56.4832C163.618 59.2788 162.827 62.0161 162.51 64.8185C162.46 65.2607 163.172 65.4458 163.357 65.0482C164.008 63.643 164.401 62.1589 164.736 60.652C165.755 60.8782 166.781 60.8428 167.826 60.5789C167.888 60.564 167.943 60.5423 167.992 60.5172C168.395 61.895 168.684 63.3276 169.309 64.614C169.595 65.2024 170.537 64.9088 170.521 64.2862C170.454 61.7111 169.222 58.976 168.272 56.6077C167.835 55.5269 167.342 53.1701 165.85 53.0844ZM167.425 59.128C166.628 59.4444 165.801 59.5964 164.959 59.5987C165.085 58.9669 165.203 58.334 165.31 57.6988C165.408 57.1253 165.33 55.9257 165.771 55.4435C166.014 54.6141 166.252 54.8975 166.484 56.2924C166.68 56.7768 166.87 57.2635 167.053 57.7524C167.22 58.198 167.368 58.6504 167.522 59.1006C167.489 59.1097 167.458 59.1154 167.425 59.128Z" fill="black" />
    <path d="M172.381 46.6114C172.201 50.2673 172.073 54.2373 172.523 57.8714C172.63 58.7283 173.831 58.7694 173.89 57.8714C174.127 54.2144 173.763 50.2547 173.371 46.6114C173.304 45.9888 172.412 45.9625 172.381 46.6114Z" fill="black" />
    <path d="M173.53 63C173.22 63 173.22 63.4833 173.53 63.4833C173.84 63.4833 173.841 63 173.53 63Z" fill="black" />
    <path d="M145.108 72.1329C144.653 72.9532 145.906 73.6866 146.366 72.8675C147.2 73.3142 148.033 73.7597 148.867 74.2064C148.861 75.0381 148.591 75.7362 148.053 76.3005C147.44 77.0397 146.57 77.5287 145.656 77.8291C144.156 78.3227 142.363 78.0714 140.849 77.7629C138.213 77.2248 135.738 76.0549 133.285 74.9913C129.646 73.4124 125.205 71.404 121.181 72.6561C118.114 73.6101 116.842 76.4491 118.737 79.1784C120.822 82.1819 124.548 82.9245 127.858 81.7855C128.169 81.6781 128.039 81.1857 127.721 81.2885C124.415 82.3624 120.007 80.7264 119.279 77.1048C118.395 72.7167 124.929 73.4752 127.415 74.1562C132.461 75.5397 136.908 78.7797 142.181 79.4058C145.573 79.809 149.992 78.6083 150.292 74.5469C150.502 71.6667 146.846 69.0071 145.108 72.1329Z" fill="black" />
    <path d="M133.806 80.3686C132.797 79.8236 131.873 80.6359 131.722 81.5773C131.406 81.9886 131.334 82.657 131.418 83.1322C131.673 84.5614 133.368 84.9567 134.261 83.8348C135.026 82.874 135.001 81.0141 133.806 80.3686Z" fill="black" />
    <path d="M131.997 80.1915C132.104 80.0088 132.122 79.8065 132.077 79.6203C132.07 79.2113 131.678 78.8435 131.272 78.856C131.032 78.864 130.768 78.9383 130.61 79.1325C130.109 79.7403 130.451 80.5411 131.225 80.62C131.537 80.652 131.845 80.4497 131.997 80.1915Z" fill="black" />
    <path d="M132.848 79.8454C133.265 79.8454 133.604 79.5068 133.604 79.0891C133.604 78.6714 133.265 78.3328 132.848 78.3328C132.43 78.3328 132.091 78.6714 132.091 79.0891C132.091 79.5068 132.43 79.8454 132.848 79.8454Z" fill="black" />
    <path d="M135.753 79.6593C135.643 79.6593 135.549 79.6799 135.463 79.713C135.698 79.2252 135.466 78.4963 134.759 78.4963C133.701 78.4963 133.699 80.1415 134.759 80.1415C134.873 80.1415 134.972 80.1197 135.061 80.0855C134.835 80.563 135.063 81.2725 135.753 81.2725C136.79 81.2713 136.792 79.6593 135.753 79.6593Z" fill="black" />
    <path d="M134.707 74.0418C134.707 74.444 135.046 74.7821 135.447 74.7821C135.847 74.7821 136.187 74.4417 136.187 74.0418C136.187 73.6397 135.848 73.3015 135.447 73.3015C135.047 73.3015 134.707 73.642 134.707 74.0418Z" fill="black" />
    <path d="M136.219 75.1124C136.219 75.5226 136.565 75.8687 136.975 75.8687C137.384 75.8687 137.731 75.5203 137.731 75.1124C137.731 74.7023 137.385 74.355 136.975 74.355C136.567 74.3561 136.219 74.7034 136.219 75.1124Z" fill="black" />
    <path d="M138.582 76.3486C139.583 76.3486 139.584 74.7937 138.582 74.7937C137.582 74.7937 137.58 76.3486 138.582 76.3486Z" fill="black" />
    <path d="M140.265 76.4729C141.228 76.4729 141.23 74.9751 140.265 74.9751C139.3 74.9751 139.299 76.4729 140.265 76.4729Z" fill="black" />
    <path d="M140.635 72.4869C140.768 71.7363 140.514 70.9217 139.878 70.4682C139.251 70.0203 138.337 70.0283 137.756 70.5573C137.488 70.7995 137.306 71.1639 137.216 71.5523C137.079 71.702 136.959 71.8699 136.866 72.071C136.584 72.6799 136.637 73.482 137.075 74.0052C138.246 75.4036 140.379 73.9207 140.635 72.4869Z" fill="black" />
    <path d="M75.5978 15.1621C76.1873 15.1621 76.1885 14.2459 75.5978 14.2459C75.0083 14.2447 75.0072 15.1621 75.5978 15.1621Z" fill="black" />
    <path d="M38.3402 62.191C38.9068 62.656 39.4769 63.1176 40.0482 63.578C40.1875 63.6899 40.4241 63.6077 40.4755 63.442C40.6514 62.8708 40.8479 62.319 41.0683 61.7638C41.1963 61.4427 41.4956 60.9309 41.1198 60.667C40.8022 60.4442 40.3098 60.7309 40.0161 60.868C39.5009 61.1091 39.0291 61.4267 38.5972 61.7946C38.5367 61.846 38.5115 61.9145 38.5035 61.9842C38.4989 61.9819 38.4945 61.9785 38.4899 61.9762C38.3425 61.8894 38.2088 62.0848 38.3402 62.191Z" fill="black" />
    <path d="M18.5557 62.5136C17.9845 62.132 17.4487 61.7412 16.946 61.2717C16.7541 61.0923 16.344 61.1392 16.3462 61.467C16.3497 62.052 16.3393 62.6369 16.3302 63.2218C16.3233 63.6697 16.2468 64.1404 16.4307 64.5585C16.4695 64.6465 16.5427 64.7002 16.6249 64.7242C16.6763 64.7847 16.7609 64.8133 16.826 64.7447C16.8351 64.7356 16.8443 64.7264 16.8534 64.7173C16.9391 64.6853 17.0123 64.6225 17.0454 64.5265C17.0466 64.5242 17.0465 64.5219 17.0477 64.5197C17.5435 64.0055 18.0576 63.4926 18.5819 63.015C18.7282 62.8791 18.7294 62.6289 18.5557 62.5136Z" fill="black" />
    <path d="M3.48288 111.28C2.98705 113.114 3.21791 115.339 3.22248 117.188C3.22705 119.241 3.27042 121.308 3.51947 123.349C3.54232 124.626 3.59721 125.887 3.63149 127.077C3.75259 131.245 4.23468 135.429 5.09838 139.509C6.62127 146.702 9.43856 153.575 13.8907 159.455C13.1196 159.805 12.4603 160.369 12.0308 161.244C11.0151 163.309 12.3529 165.264 14.1923 166.235C16.524 167.466 19.6007 167.969 21.8536 166.4C24.182 164.78 26.4806 161.764 26.9707 158.967C26.9776 158.93 26.9776 158.897 26.9799 158.861C27.7384 158.001 28.1862 156.999 28.5164 155.838C28.6946 155.21 28.8648 154.567 29.0248 153.92C29.2613 155.293 29.6554 156.639 30.133 157.956C30.6494 159.381 31.2297 160.899 32.1345 162.149C34.44 166.493 38.9047 170.902 43.7544 167.191C45.3002 166.008 46.0976 164.05 45.4042 162.174C44.9917 161.057 44.2366 160.393 43.3203 160.022C43.3557 159.964 43.3888 159.904 43.4163 159.835C46.3055 152.499 47.8159 144.699 48.29 136.839C48.4876 133.559 48.5574 130.276 48.5871 126.99C48.5962 126.976 48.6019 126.962 48.6111 126.948C48.6019 126.91 48.5951 126.871 48.5974 126.829C48.5951 126.816 48.5985 126.802 48.5962 126.788C48.5974 126.783 48.5951 126.78 48.5962 126.775C48.5962 126.774 48.5962 126.773 48.5962 126.772C48.594 126.738 48.5882 126.705 48.5962 126.666C48.6111 126.589 48.6099 126.514 48.6099 126.437C48.6099 126.362 48.6328 126.302 48.6647 126.251C48.6647 126.25 48.6647 126.248 48.6647 126.246C48.667 126.113 48.7276 126.02 48.811 125.961C48.8099 125.957 48.8109 125.955 48.8098 125.952C54.3016 123.525 57.8957 118.751 60.1098 113.235C61.723 109.215 63.022 105.052 64.2387 100.895C64.9608 98.4276 66.1694 94.9362 64.8351 92.4617C64.2273 91.3341 63.1648 90.7663 62.0177 90.6817C64.2033 89.3302 66.2666 87.7697 67.786 85.7932C68.0111 85.5887 68.1847 85.3168 68.3333 85.0243C68.4521 84.8438 68.5766 84.6679 68.6863 84.4805C68.7811 84.3171 68.796 84.1595 68.7617 84.019C68.7891 83.9516 68.8154 83.8842 68.8428 83.8202C68.8611 83.7779 68.8679 83.7333 68.8782 83.6888C70.0046 84.1172 71.2168 84.0989 72.3341 83.3198C73.7564 82.3293 74.4705 80.4751 74.0135 78.7991C73.961 78.6072 73.8912 78.4187 73.8056 78.2347C75.4416 77.4281 77.3449 76.4022 79.3831 75.2403C79.4013 76.6193 79.4208 77.9993 79.4356 79.3783C79.4619 81.7946 79.4185 84.212 79.511 86.626C79.7041 91.6414 78.9089 96.6545 79.5133 101.673C79.6149 102.516 79.8058 102.896 80.754 102.874C86.52 102.736 92.2894 102.505 98.0519 102.6C103.551 102.691 109.041 103.215 114.54 103.416C120.811 103.645 127.086 103.757 133.361 103.865C137.016 103.926 140.676 103.878 144.333 103.878C150.611 103.879 156.888 103.879 163.166 103.879C163.166 103.892 163.166 103.905 163.166 103.917C166.977 103.917 170.79 103.908 174.601 103.919C179.757 103.934 184.917 104.108 190.066 103.948C195.68 103.773 201.285 103.296 206.894 102.947C208.66 102.837 209.053 102.496 208.995 100.692C208.919 98.3876 208.672 96.0901 208.548 93.7869C208.133 86.1416 207.665 78.4975 207.357 70.8476C207.025 62.5419 206.837 54.2295 206.613 45.9192C206.539 43.2276 206.498 40.5325 206.541 37.8398C206.613 33.262 206.826 28.6853 206.841 24.1086C206.847 22.5515 206.488 20.9817 206.193 19.4383C205.975 18.2947 205.206 17.8503 204.001 17.8697C201.275 17.9142 198.546 17.8422 195.819 17.8091C190.277 17.7428 184.735 17.6275 179.192 17.6172C175.267 17.6092 171.34 17.7497 167.414 17.792C166.939 17.7966 166.379 17.7235 166.001 17.4721C164.376 16.3902 162.803 15.2329 161.216 14.095C158.627 12.2374 156.051 10.3626 153.452 8.51868C151.136 6.87583 148.819 5.23185 146.461 3.6507C144.645 2.43284 142.799 1.24922 140.887 0.191311C140.397 -0.0805933 139.469 -0.0589023 138.99 0.232424C137.253 1.28919 135.62 2.5139 133.952 3.68149C128.258 7.66523 122.561 11.6467 116.875 15.6419C115.81 16.3902 114.816 17.2413 113.736 17.9668C113.2 18.3255 112.553 18.7002 111.94 18.7299C110.177 18.819 108.401 18.6648 106.636 18.7311C100.602 18.9573 94.5686 19.2349 88.5353 19.4954C86.504 19.5822 84.4727 19.6999 82.4402 19.7593C81.4086 19.7902 80.3656 19.8015 79.3442 19.6804C78.0076 19.5228 77.4272 19.8656 77.4398 21.2376C77.4546 22.7662 77.6317 24.2937 77.7596 25.82C77.8419 26.8151 77.9916 27.8056 78.0579 28.8018C78.2395 31.5197 78.4097 34.2388 78.5513 36.959C78.6427 38.7115 78.6301 40.4697 78.7513 42.2199C78.8815 44.0856 79.222 45.9409 79.2791 47.8054C79.3762 50.9883 79.3293 54.1746 79.3316 57.3586C79.3328 61.3161 79.3042 65.2724 79.3214 69.2299C79.3271 70.6054 79.3419 71.9821 79.3591 73.3576C77.0045 74.7502 74.827 76.0309 73.0208 77.0808C72.9031 76.9529 72.7797 76.8295 72.6495 76.7129C72.6209 76.6604 72.5775 76.6181 72.5135 76.5976C70.553 74.9399 67.3759 74.4817 66.3283 77.2762C66.3237 77.2876 66.3226 77.2979 66.3191 77.3093C62.0064 77.13 57.8969 78.8242 53.8789 80.2043C50.5543 81.3456 46.5729 82.3258 43.3329 84.0521C42.9113 83.3266 42.4806 82.6252 41.9836 81.9523C42.0739 81.8643 42.1676 81.7809 42.2533 81.6884C42.4338 81.4473 42.612 81.204 42.7811 80.9549C43.1273 80.4465 43.3683 79.8604 43.6185 79.2961C43.7511 78.9956 43.8688 78.6917 43.9784 78.3855C43.9796 78.3866 43.9806 78.3878 43.9829 78.3878C44.0126 78.277 44.0424 78.165 44.0812 78.0553C44.1063 77.9845 44.1463 77.9342 44.1909 77.8931C44.1794 77.8874 44.1669 77.8829 44.1555 77.8771C44.6068 76.4753 44.8661 75.0256 45.1288 73.5792C45.4499 71.8176 45.0478 70.105 44.6171 68.4016C44.5291 68.0554 44.4171 67.7218 44.3737 67.3768C44.2835 67.3003 44.2023 67.2043 44.1532 67.0604C43.8733 66.2446 43.5614 65.4404 43.2872 64.6224C43.1215 64.3767 42.9993 64.13 42.9113 63.8786C43.2997 63.1189 43.4072 62.0827 43.5169 61.2533C43.646 60.3142 43.6859 59.3682 43.6482 58.4211C43.6425 58.2771 43.591 58.1515 43.4974 58.0646L43.4986 58.0441C43.494 58.0327 43.494 58.0281 43.4951 58.0178C43.478 58.0213 43.4666 58.0213 43.4506 58.0247C43.3615 57.9539 43.2358 57.923 43.0942 57.9436C42.5698 58.0247 42.0431 58.1218 41.5222 58.2349C40.5819 58.4325 39.6576 58.6999 38.7847 59.0986C37.8765 59.5156 36.9694 60.0708 36.4324 60.8888C35.4956 60.1793 34.4024 59.7452 33.2405 59.4162C31.7507 58.998 30.2152 58.6028 28.674 58.42C26.0178 58.1115 23.2691 58.8015 20.7969 59.7566C20.4861 60.0194 20.0703 60.1771 19.5447 60.1348C18.2526 60.0308 16.9525 59.8652 15.7529 59.4528C15.7186 59.4219 15.6809 59.3956 15.6421 59.3796C15.4216 59.2905 15.2034 59.1809 15.0126 59.0392C14.9647 59.0038 14.904 59.0094 14.8549 59.0357C14.7601 58.9946 14.6276 59.0358 14.591 59.1409C14.5099 59.3705 14.4973 59.6458 14.5156 59.9154C14.2985 62.3329 14.0026 64.8052 13.9546 67.2169C13.5811 68.2965 13.2052 69.375 12.8407 70.4569C12.7745 70.6477 12.7528 70.8579 12.7391 71.0635C12.3815 72.1112 12.321 73.2673 12.3724 74.4178C12.4558 76.3085 12.7494 78.181 13.1858 80.0192C13.2064 80.1404 13.2246 80.2614 13.2452 80.3825C13.2669 80.4385 13.2943 80.4922 13.3171 80.547C13.3606 80.7195 13.4006 80.8932 13.4463 81.0657C12.4353 82.8776 11.784 85.022 9.80297 85.8823C8.63538 86.3896 7.58545 86.6706 6.55267 87.5C4.18207 89.4045 2.35985 92.1978 1.23568 94.9968C-0.973831 100.487 -0.217535 106.641 3.48288 111.28ZM116.912 17.3121C120.519 14.6982 124.123 12.0763 127.759 9.50232C131.179 7.08374 134.663 4.75542 138.063 2.30943C139.217 1.47886 140.311 1.55081 141.394 2.17002C143.127 3.16053 144.834 4.20934 146.476 5.34379C150.335 8.00914 154.148 10.7431 157.982 13.445C159.679 14.64 161.387 15.8212 163.083 17.0185C163.26 17.1431 163.389 17.335 163.541 17.4961C163.512 17.5989 163.485 17.7017 163.456 17.8057C147.613 18.0353 131.769 18.265 115.603 18.5003C116.164 17.9862 116.506 17.6057 116.912 17.3121ZM78.9398 22.8245C78.821 21.7369 79.2254 21.4101 80.1222 21.353C81.3892 21.2719 82.6597 21.2422 83.9278 21.1862C90.8488 20.8823 97.7698 20.5716 104.692 20.2768C106.23 20.2117 107.771 20.2026 109.312 20.1672C119.974 19.9204 130.636 19.6496 141.3 19.4337C152.697 19.2041 164.094 18.9938 175.491 18.8499C178.023 18.8179 180.557 19.1823 183.091 19.2132C185.474 19.2429 187.86 18.9744 190.241 19.0144C193.816 19.0761 197.386 19.308 200.959 19.4314C201.683 19.4565 202.412 19.3091 203.139 19.2635C204.502 19.1755 205.022 19.4737 205.244 20.8275C205.492 22.3401 205.658 23.8869 205.646 25.4167C205.588 33.1111 205.346 40.8056 205.389 48.5C205.427 55.4279 205.695 62.358 205.973 69.2825C206.111 72.7407 206.563 76.1851 206.748 79.6422C206.945 83.2912 206.961 86.9493 207.115 90.6006C207.24 93.5607 207.489 96.5163 207.61 99.4775C207.688 101.372 207.555 101.529 205.695 101.7C202.246 102.016 198.792 102.395 195.334 102.483C189.176 102.64 183.014 102.634 176.854 102.633C171.003 102.633 165.153 102.53 159.302 102.512C150.678 102.486 142.051 102.567 133.428 102.467C126.421 102.386 119.416 102.16 112.414 101.897C108.071 101.735 103.738 101.236 99.3966 101.151C93.4752 101.037 87.5504 101.175 81.6268 101.203C81.5148 101.203 81.4018 101.163 81.0784 101.103C81.0784 98.3716 81.0933 95.6891 81.0739 93.0066C81.0556 90.4293 80.9882 87.853 80.9677 85.2757C80.9391 81.6404 80.9082 78.004 80.8922 74.3687C81.5457 73.9882 82.2096 73.5963 82.879 73.1965C82.8413 75.3911 82.7922 77.587 82.7522 79.7816C82.7465 80.0866 82.6379 80.3905 82.6356 80.6967C82.631 81.3856 82.647 82.0757 82.6836 82.7634C82.7361 83.714 82.815 84.6633 82.8824 85.6127C82.9475 86.5392 83.04 87.4657 83.0732 88.3934C83.1828 91.5809 83.2548 94.7706 83.3873 97.9581C83.409 98.4916 83.5222 99.1348 83.8478 99.5038C84.0797 99.7666 84.7446 99.7311 85.2039 99.69C85.9248 99.626 86.6331 99.3541 87.3517 99.3301C92.9234 99.1451 98.4963 98.9006 104.07 98.8709C108.685 98.8469 113.301 99.1473 117.917 99.1976C121.998 99.2422 126.083 99.0251 130.161 99.1268C137.162 99.3005 144.159 99.8226 151.159 99.8454C158.97 99.8717 166.783 99.5049 174.596 99.3073C178.715 99.2022 182.84 99.2045 186.951 98.9566C191.941 98.6561 196.915 98.014 201.923 98.5853C202.819 98.6869 203.215 98.3305 203.191 97.4268C203.064 92.697 203.021 87.9638 202.81 83.2364C202.654 79.7028 202.181 76.1817 202.042 72.6481C201.812 66.801 201.715 60.9482 201.609 55.0965C201.563 52.5957 201.572 50.0892 201.662 47.5895C201.931 40.1681 202.253 32.749 202.553 25.3299C202.515 25.3276 202.476 25.3265 202.438 25.3242C202.475 24.7096 202.621 24.0755 202.513 23.4871C202.439 23.0816 202.047 22.4532 201.741 22.4178C200.376 22.2612 198.986 22.1938 197.611 22.2555C193.845 22.4258 190.085 22.7777 186.318 22.8679C182.859 22.9525 179.392 22.7308 175.931 22.7514C169.731 22.7868 163.529 23.0587 157.334 22.9433C149.449 22.7971 141.571 22.3184 133.687 22.0785C130.651 21.9859 127.607 22.1585 124.566 22.2064C122.301 22.243 120.027 22.1676 117.77 22.331C112.6 22.7034 107.441 23.2152 102.272 23.6162C100.633 23.7442 98.9785 23.6836 97.3322 23.7384C94.2704 23.8401 91.2097 23.9738 88.1479 24.0732C86.6902 24.12 85.2233 24.0446 83.7769 24.1886C83.3428 24.232 82.711 24.7678 82.6105 25.1837C82.4106 26.0154 82.5008 26.9213 82.4974 27.7964C82.4871 30.2127 82.5123 32.629 82.4803 35.0453C82.4517 37.2903 82.2678 39.5386 82.3295 41.7812C82.4517 46.3019 82.7602 50.8192 82.8699 55.341C82.9761 59.6664 82.959 63.9952 82.9373 68.3216C82.9327 69.2973 82.9224 70.2741 82.9098 71.2497C82.2278 71.6553 81.5526 72.0563 80.8866 72.4516C80.8843 71.6816 80.8809 70.9116 80.8809 70.1416C80.8763 64.0626 81.0111 57.9813 80.8957 51.9045C80.8237 48.1493 80.3644 44.4021 80.1416 40.6479C80.0239 38.6566 80.1222 36.6505 79.9794 34.6626C79.6972 30.7109 79.3694 26.7614 78.9398 22.8245ZM200.943 35.4463C200.976 35.4486 201.008 35.4498 201.041 35.4521C200.824 40.4514 200.394 45.452 200.436 50.4491C200.513 59.3808 200.863 68.309 201.122 77.2385C201.302 83.4683 201.517 89.6981 201.737 95.9279C201.767 96.8133 201.47 97.0978 200.544 97.1263C192.082 97.3845 183.624 97.7741 175.161 97.9798C165.346 98.2174 155.528 98.4322 145.711 98.4253C138.173 98.4208 130.635 98.0609 123.097 97.8518C117.979 97.7101 112.86 97.4291 107.743 97.4417C101.551 97.4565 95.3592 97.7193 89.1682 97.8666C88.244 97.8895 87.3185 97.8564 86.3954 97.8792C85.6688 97.8963 85.3729 97.5868 85.3489 96.8476C85.2792 94.6552 85.2073 92.4606 85.0371 90.2751C84.8406 87.7514 84.4179 85.2425 84.315 82.7177C84.2076 80.0729 84.3824 77.4167 84.3973 74.7662C84.4018 73.9368 82.879 73.1965 84.3996 72.2791C90.2421 68.7249 96.3143 64.6783 100.059 61.7868C99.9542 61.5766 99.8513 61.3652 99.7519 61.1516C95.8698 63.5004 90.0182 67.017 84.3893 70.3701C84.3813 69.4104 84.3722 68.4496 84.3597 67.4899C84.3094 63.4479 84.2225 59.4059 84.1803 55.365C84.1414 51.7137 84.1619 48.0625 84.1162 44.4112C84.0751 41.1072 83.9758 37.8032 83.9084 34.4992C83.8638 32.3468 83.8124 30.1934 83.7952 28.0398C83.7792 26.0999 83.9621 25.8372 85.8414 25.6978C87.7184 25.5584 89.6091 25.6224 91.4896 25.5173C97.9057 25.1597 104.335 24.9369 110.731 24.3428C118.6 23.6116 126.469 23.2872 134.363 23.4963C142.906 23.7225 151.446 24.0618 159.99 24.1966C164.875 24.2743 169.766 23.9909 174.655 23.9669C178.193 23.9498 181.733 24.2137 185.268 24.1337C189.304 24.0423 193.335 23.6848 197.37 23.4986C198.358 23.4529 199.385 23.5122 200.337 23.7544C200.685 23.8424 201.082 24.5987 201.084 25.0511C201.094 27.9781 201 30.904 200.945 33.8309C200.935 34.3679 200.943 34.9071 200.943 35.4463ZM48.5871 114.781C48.6385 114.758 48.6842 114.728 48.7299 114.698C48.7516 113.401 48.795 112.102 48.8156 110.803C48.7128 109.008 48.3837 107.245 47.8491 105.518C47.2287 103.523 46.9019 101.488 46.7671 99.4204C46.7488 99.1428 46.7134 98.8629 46.6654 98.5853C46.6346 98.5578 46.606 98.5293 46.5763 98.503C50.2893 97.1686 53.8687 95.263 57.2412 93.3928C57.3063 93.3562 57.3736 93.3197 57.4399 93.2831C56.5419 94.6735 55.9971 96.3815 55.5321 97.8232C53.27 104.838 52.8564 112.018 48.7025 118.08C48.7013 116.975 48.6728 115.873 48.5871 114.781ZM62.4256 93.1346C63.8697 94.0143 63.9131 93.9777 63.8891 95.4504C63.8719 96.5003 63.6115 97.5433 63.3625 98.5613C63.0026 100.028 62.5182 101.467 62.0692 102.908C61.1209 105.946 60.1602 108.987 58.9926 111.95C56.8379 117.416 53.5533 121.304 48.6087 124.107C48.6202 122.846 48.6556 121.571 48.6819 120.289C48.7413 120.179 48.7995 120.068 48.8429 119.95C48.964 119.629 48.9126 119.282 48.7527 118.987C51.386 116.368 52.9147 112.801 54.0389 109.271C54.433 108.032 54.7678 106.778 55.0899 105.52C55.5035 105.598 55.9319 105.624 56.334 105.788C56.807 105.981 57.5016 105.665 57.7255 105.222C58.4041 103.883 57.3269 102.326 55.9708 102.066C56.0862 101.62 56.2015 101.173 56.3227 100.729C56.6585 101.14 57.1921 101.428 57.665 101.533C58.5379 101.727 59.4564 101.573 59.9179 100.727C60.3601 99.9174 60.0687 98.9668 59.4758 98.3259C58.972 97.7832 58.0534 97.2851 57.296 97.5125C57.4491 97.0692 57.609 96.6271 57.785 96.1907C58.0614 95.5063 58.3391 94.8106 58.7469 94.1903C59.0051 93.8624 59.2633 93.5333 59.5215 93.2055C60.4995 92.0276 61.4683 92.0036 62.4256 93.1346ZM1.52932 99.7026C1.53275 99.6718 1.53959 99.6409 1.54416 99.6101C1.54302 99.5815 1.53733 99.5552 1.54305 99.5232C1.5659 99.3953 1.59222 99.2673 1.61735 99.1405C1.62992 99.0674 1.64581 98.9942 1.65952 98.9211C1.65952 98.8971 1.65844 98.8732 1.66187 98.8469C1.69614 98.6447 1.73378 98.4425 1.76919 98.2402C1.76919 98.2391 1.76928 98.238 1.77042 98.2368C1.77385 98.2151 1.77837 98.1923 1.7818 98.1706C1.78294 98.1637 1.78755 98.1603 1.78983 98.1534C2.22283 96.0879 3.05331 94.0749 4.25403 92.2515C5.14172 90.9034 6.20993 89.5862 7.46663 88.5694C8.66621 87.5983 10.0646 87.596 11.3008 86.8603C11.4607 86.7654 11.6093 86.6443 11.7475 86.5073C11.9463 86.0583 12.1884 85.6355 12.4511 85.2254C12.8362 84.6599 13.2052 84.0841 13.5445 83.5003C13.8027 83.0581 14.0609 82.5532 14.1203 82.0402C14.6481 82.8057 15.3131 83.4432 16.1516 83.8133C15.0869 82.5212 14.5694 80.8532 14.294 79.2309C14.254 79.0001 14.2095 78.7511 14.1661 78.4941C14.7773 78.8585 15.5976 78.6882 16.0271 78.0599C16.7869 76.9449 15.7735 75.0827 14.4985 74.7868C14.6848 74.5274 14.928 74.299 15.2502 74.1196C15.3781 74.0499 15.4959 74.0385 15.5998 74.067C15.6284 74.059 15.6569 74.0453 15.6855 74.0362C16.0796 73.9128 16.4886 73.8225 16.8633 73.6614C18.5256 72.9314 18.8764 71.2829 17.598 70.0228C17.0542 69.487 16.3916 69.0482 15.7312 68.6472C15.0926 68.2577 14.8652 67.7367 15.2525 67.1358C15.7746 66.3018 15.7129 65.3787 15.6992 64.4761C15.6809 63.2765 15.5621 62.0793 15.5656 60.8808C15.5679 60.8488 15.5655 60.8168 15.5678 60.786C15.6066 60.2902 15.9082 60.2022 16.4486 60.4307C17.053 60.6901 17.6208 61.0522 18.2503 61.2121C19.5299 61.5343 20.8242 61.9479 22.1084 61.1413C23.14 60.4901 24.3944 60.4284 25.5689 60.3016C26.9467 60.1485 28.3565 60.2262 29.7503 60.2239C30.2907 60.2239 30.8105 60.2799 31.328 60.3736C31.3714 60.3873 31.4102 60.3953 31.4536 60.4101C32.9228 60.8054 34.5737 61.1516 35.7081 62.2049C35.9001 62.3843 36.1355 62.4403 36.3491 62.4197C36.3491 62.414 36.3548 62.4151 36.3548 62.4094C37.3956 61.3607 38.5665 60.4181 39.9078 59.7372C40.2448 59.5624 41.0389 59.0986 41.6855 58.9581C41.9357 58.9032 42.1699 58.8998 42.3424 58.9775C42.9776 59.2654 42.652 60.0194 42.5138 60.4969C42.1059 61.9399 41.6089 63.3222 41.449 64.8051C41.9391 64.8851 42.283 65.1936 42.468 65.6803C42.7902 66.5485 43.1593 67.3985 43.4997 68.2633C43.598 68.5101 43.6723 68.7649 43.7362 69.0185C43.8173 69.3327 43.6985 69.5041 43.3421 69.5658C42.0477 69.7886 40.8617 72.0666 41.4878 73.4729C41.7917 74.1538 42.4087 74.3983 43.1524 74.1538C43.3295 74.0933 43.5134 74.0339 43.8972 73.8991C43.7384 74.572 43.6185 75.1775 43.4757 75.7579C43.3798 75.687 43.246 75.6562 43.1306 75.6367C42.8679 75.5933 42.5983 75.639 42.3492 75.7179C41.8008 75.8915 41.3245 76.2571 41.1097 76.8032C40.7407 77.7434 41.3176 78.8185 42.243 79.0916C42.0362 79.5006 41.81 79.9016 41.5643 80.2957C41.1656 81.3902 40.583 82.4584 39.8061 83.3312C40.2494 83.1541 40.6835 82.9611 41.0823 82.7017C41.1691 82.6446 41.2468 82.5749 41.3302 82.5121C41.6341 83.2307 41.9882 83.9173 42.3641 84.6062C42.0625 84.7913 41.7654 84.982 41.4821 85.1854C41.4216 85.2288 41.4318 85.3556 41.5255 85.3453C42.0236 85.2916 42.524 85.2105 43.0244 85.11C43.045 85.1066 43.0656 85.102 43.0861 85.0963C44.1829 84.8712 45.282 84.5422 46.3776 84.1686C46.5033 85.4219 47.079 86.57 47.9907 87.4543C48.3505 87.8027 48.9846 87.6543 49.1171 87.1573C49.4587 85.8698 49.405 84.4759 48.8327 83.2718C49.6472 82.9576 50.4561 82.6389 51.2558 82.335C51.2866 83.4706 51.5791 84.5022 52.0647 85.5453C52.2852 86.0182 53.0244 85.9725 53.2574 85.5453C53.9326 84.3068 54.0789 82.8034 53.7613 81.4359C57.8924 80.0135 62.2405 78.2164 66.6538 78.5592C67.1062 78.5946 67.2993 78.2016 67.2342 77.8486C67.3176 77.7857 67.3884 77.7001 67.4341 77.5824C67.9711 76.1817 69.8402 76.3028 70.9175 76.8329C71.4488 77.0945 71.9206 77.4761 72.2804 77.9388C72.3067 78.1445 72.4313 78.3398 72.6129 78.4552C72.806 78.823 72.9316 79.2252 72.967 79.6514C73.071 80.9069 72.3855 82.1362 71.2899 82.76C70.0344 83.474 68.7125 83.057 67.4684 82.5817C67.3496 82.536 67.2387 82.7211 67.3404 82.8011C67.5015 82.9279 67.6672 83.0445 67.8351 83.1541C67.8214 83.1736 67.8009 83.185 67.7895 83.2067C67.585 83.5985 67.3291 84.0224 67.1417 84.4599C64.5895 88.1066 60.111 90.4452 56.2084 92.5359C56.1376 91.8139 55.9148 91.1136 55.5149 90.4967C55.1527 89.9392 54.5632 89.2103 53.8104 89.3268C52.9284 89.4639 52.9901 90.4099 53.005 91.0873C53.0267 92.0961 53.0792 93.0923 53.2311 94.0851C52.99 94.2039 52.7501 94.325 52.5079 94.4416C52.3297 93.266 51.8202 92.2184 51.0319 91.3296C50.696 90.9514 50.038 91.1581 49.9158 91.6243C49.5947 92.849 49.5341 94.1446 49.9088 95.3498C49.6084 95.3978 49.3079 95.4949 48.9983 95.5212C48.5528 95.5601 48.1061 95.5384 47.6605 95.5612C47.4195 95.3042 46.903 95.2984 46.7808 95.7417C46.5112 96.7196 45.5538 96.9093 44.7152 97.1674C43.8561 97.4325 43.0381 97.693 42.1253 97.6073C42.0168 97.597 41.9894 97.7832 42.0991 97.8004C43.2164 97.9763 44.809 98.1249 46.0417 97.7113C45.138 98.4824 44.0481 99.1096 42.9319 99.5929C43.5649 99.4432 44.1966 99.2787 44.8227 99.0891C44.8352 99.1451 44.8478 99.2022 44.8604 99.2582C44.9906 99.8191 45.1825 100.362 45.3436 100.912C44.4593 101.147 43.3397 102.193 42.6976 102.708C42.0087 103.259 41.3199 103.959 41.3907 104.912C41.577 107.418 44.6468 107.141 46.3216 106.683C46.4484 106.649 46.5557 106.552 46.6197 106.434C46.8779 107.442 47.0333 108.458 47.151 109.48C45.8829 109.629 44.5291 110.099 43.3375 110.55C42.4361 110.892 41.5952 111.592 41.6249 112.641C41.6546 113.663 42.564 114.245 43.4768 114.42C44.753 114.664 46.1125 114.744 47.4252 114.837C47.3247 115.515 47.2515 116.201 47.1933 116.889C45.5401 117.395 39.5136 118.808 41.9162 121.405C43.077 122.659 45.3059 122.664 46.9579 121.85C46.9373 122.503 46.9145 123.151 46.8837 123.796C46.8814 123.848 46.8779 123.9 46.8756 123.952C44.8752 124.093 40.27 125.49 41.8752 128.152C42.5241 129.228 44.023 129.163 45.0991 128.96C45.6338 128.859 46.149 128.683 46.638 128.451C46.6231 128.711 46.6049 128.97 46.5889 129.229C46.6369 129.751 46.5649 130.255 46.4906 130.767C46.4586 131.27 46.4233 131.772 46.389 132.275C46.4004 132.313 46.4084 132.355 46.4027 132.405C46.3901 132.531 46.3696 132.656 46.3547 132.78C46.3524 132.816 46.3501 132.851 46.3478 132.887C46.3455 132.887 46.3433 132.887 46.341 132.887C46.3102 133.135 46.2827 133.383 46.2462 133.629C46.2393 133.7 46.2291 133.771 46.2211 133.841C46.2382 133.841 46.2541 133.841 46.2724 133.841C46.2256 134.448 46.1799 135.054 46.1239 135.659C45.8383 138.792 45.4773 141.915 44.9746 145.009C44.4994 144.972 44.0333 144.992 43.5511 145.057C43.0245 145.129 42.5046 145.299 42.4395 145.91C42.3298 146.945 43.5659 147.667 44.4445 147.974C44.3154 148.629 44.1772 149.283 44.0321 149.934C43.2095 149.829 42.0568 149.782 41.9288 150.669C41.81 151.495 42.7217 151.856 43.534 152.006C43.2186 153.241 42.8702 154.47 42.4783 155.687C42.4783 155.687 42.4783 155.687 42.4772 155.687C42.2316 156.515 41.9734 157.336 41.6798 158.148C41.6752 158.16 41.6695 158.17 41.665 158.181C41.6318 158.252 41.5953 158.325 41.561 158.397C41.545 158.414 41.5289 158.432 41.5118 158.447C41.4764 158.54 41.441 158.633 41.4067 158.726C41.273 159.015 41.152 159.312 41.1006 159.618C41.1006 159.62 41.1017 159.622 41.1017 159.624C40.5521 159.613 39.997 159.644 39.4566 159.705C39.3881 159.713 39.3377 159.743 39.3012 159.784C41.3816 159.518 43.8665 160.808 44.5645 162.743C45.1963 164.493 43.5911 166.071 41.9197 166.35C40.8092 166.73 39.4383 166.598 38.2455 166.116C36.1697 165.277 35.0866 163.184 33.9236 161.241C32.6075 159.813 31.7587 157.923 31.3725 155.991C31.2937 155.78 31.2252 155.564 31.1806 155.342C31.1783 155.332 31.1806 155.324 31.1795 155.315C30.5751 153.532 30.3375 151.671 30.2141 149.772C29.9022 147.923 29.8405 146.019 29.5755 144.172C29.4647 143.396 29.2864 142.58 29.1927 141.764C28.5221 145.613 27.9121 149.588 26.8382 153.387C26.8382 153.397 26.8439 153.405 26.8427 153.415C26.7982 154.753 26.3948 156.108 25.9356 157.354C25.6465 158.138 25.3084 158.716 24.8663 159.274C24.567 159.867 24.2117 160.439 23.7958 160.987C22.4888 163.113 20.67 165.253 18.4274 165.322C17.4712 165.351 15.6009 165.186 14.4585 164.653C14.4162 164.656 14.3728 164.653 14.3248 164.637C13.0156 164.208 12.5654 162.459 13.1355 161.266C13.1298 161.237 13.1241 161.209 13.1184 161.179L13.2258 161.092C13.2658 161.025 13.3069 160.96 13.3537 160.898C14.487 159.4 16.6909 159.253 18.5303 159.195C18.4983 159.169 18.4594 159.146 18.408 159.138C17.5671 158.999 16.644 158.923 15.754 158.999C15.7997 158.741 15.7449 158.459 15.5427 158.196C15.3565 157.955 15.1839 157.707 15.0057 157.463C14.4665 156.854 13.9935 156.187 13.5936 155.478C13.5639 155.426 13.548 155.373 13.5434 155.323C12.5118 153.708 11.6035 152.026 10.8026 150.295C11.3042 150.069 11.6789 149.656 11.8903 149.119C11.9954 148.853 11.8149 148.577 11.6093 148.431C11.1523 148.103 10.6564 147.874 10.1012 147.777C9.95953 147.752 9.84293 147.779 9.74697 147.83C9.52647 147.272 9.31283 146.711 9.11404 146.145C9.27741 146.167 9.44196 146.179 9.60762 146.171C10.2417 146.14 11.0894 145.913 11.3808 145.288C11.7612 144.473 10.9283 143.92 10.3388 143.543C9.69563 143.132 8.90156 142.564 8.13269 142.456C8.07785 142.448 8.02185 142.451 7.96701 142.459C7.59 141.071 7.26214 139.666 6.99024 138.247C6.6178 136.307 6.34817 134.357 6.12882 132.4C6.13453 132.403 6.14141 132.406 6.14712 132.41C6.13341 132.377 6.11743 132.345 6.10372 132.311C6.00661 132.065 5.99523 131.808 6.03979 131.559C5.93583 130.564 5.83755 129.568 5.75529 128.569L5.73811 128.379C5.73583 128.344 5.73125 128.307 5.72896 128.272C5.90033 128.345 6.0695 128.42 6.24887 128.479C6.73327 128.638 7.23356 128.684 7.73852 128.668C8.36916 128.648 8.95185 128.591 9.46939 128.183C10.0052 127.76 10.2794 127.141 10.244 126.454C10.1914 125.426 9.50363 124.829 8.67078 124.433C8.55083 124.128 8.3132 123.871 7.93276 123.755C7.25414 123.548 6.6133 123.345 6.01123 122.973C5.84671 122.872 5.66734 122.806 5.4834 122.772C5.47883 122.545 5.47539 122.321 5.46968 122.092C6.22141 122.284 7.05655 122.257 7.75459 121.915C8.75424 121.426 9.42942 120.371 9.17351 119.228C8.85819 117.823 7.28501 116.747 5.84209 116.437C5.77126 116.404 5.70048 116.377 5.63536 116.355C5.39201 116.277 5.07436 116.28 4.81388 116.365C4.78761 115.851 4.81051 115.302 4.87335 114.783C5.97353 115.906 8.79191 115.67 9.09809 114.029C9.64647 112.561 6.97318 110.605 5.61137 110.119C5.62736 109.88 5.64212 109.639 5.65812 109.397C5.69582 108.869 5.7438 108.342 5.79635 107.816C6.8257 108.629 8.46178 108.789 9.56768 108.097C12.0936 106.516 8.93473 104.44 6.91259 103.424C6.83376 103.328 6.71265 103.275 6.58926 103.265C6.53442 103.238 6.48183 103.213 6.42927 103.189C6.63606 102.089 6.88176 100.997 7.16395 99.9116C7.30675 99.9642 7.45073 99.9951 7.59125 100.005C7.75234 100.575 8.15098 100.998 8.80333 101.118C9.18719 101.189 9.50713 100.894 9.6248 100.542C8.54632 99.6386 7.86423 98.5395 7.66087 97.2554C7.60489 97.6679 7.55804 98.0872 7.5329 98.5007C7.51805 98.495 7.50435 98.4916 7.4895 98.4847C7.22674 98.3773 6.98109 98.2231 6.7526 98.0563C6.27848 97.7102 5.92321 97.3331 5.58961 96.8624C5.43195 96.5345 5.31424 96.1747 5.26283 95.8137C5.26055 95.7988 5.23772 95.7943 5.22858 95.8045C4.94868 96.1313 4.9259 96.4843 5.01615 96.9058C5.01844 96.9173 5.02176 96.9298 5.02519 96.9412C5.03319 97.5547 5.25711 98.2059 5.62955 98.7166C5.577 98.9154 5.52568 99.1153 5.46856 99.3118C5.37945 99.618 5.30052 99.9288 5.22512 100.24C5.16114 100.691 5.05843 101.128 4.93047 101.567C4.9339 101.568 4.93731 101.569 4.94073 101.57C4.81735 102.231 4.71218 102.895 4.61964 103.558C4.35802 105.415 4.1958 107.285 4.029 109.15C4.01643 109.298 4.0107 109.448 4.00613 109.596C1.93257 106.659 1.18434 103.198 1.54193 99.7894C1.53051 99.7608 1.5259 99.7346 1.52932 99.7026Z" fill="black" />
    <path d="M19.0136 76.2925C20.2029 76.4227 21.3819 76.5381 22.5587 76.6684C22.5358 76.7335 22.5095 76.7929 22.4913 76.8626C22.3713 77.3115 22.4718 77.6885 22.6934 78.005C21.5018 78.2141 20.3137 78.4666 19.1472 78.7088C19.0604 78.7271 19.089 78.8596 19.1758 78.8424C20.4428 78.6082 21.7098 78.462 22.979 78.3283C23.4886 78.7933 24.2574 79.0949 24.8321 79.2834C25.4616 79.4902 26.0819 79.5691 26.6692 79.5074C26.5823 80.3219 26.9274 80.9206 27.8962 81.1296C28.881 81.341 29.8487 80.8292 30.0977 79.8581C31.8263 80.4967 34.0494 80.2043 34.3099 78.3946C35.4729 78.6357 36.6245 78.959 37.7898 79.1612C37.9018 79.1806 37.928 79.0046 37.8275 78.9692C36.6919 78.5659 35.5152 78.3991 34.3327 78.2552C34.335 78.2346 34.3408 78.2164 34.3419 78.1947C34.3807 77.5012 33.9032 76.9288 33.2862 76.4981C34.6618 76.2422 36.0693 76.1851 37.4814 76.3176C37.6585 76.3336 37.671 76.0651 37.4974 76.0434C35.9002 75.8401 34.3556 75.9098 32.8327 76.2194C32.3906 75.9794 31.9268 75.8035 31.5498 75.703C31.0517 75.5704 30.5638 75.5282 30.1 75.575C30.3719 74.9912 30.4919 74.3892 30.236 73.8248C30.116 73.5609 29.7618 73.5243 29.5562 73.6968C29.1186 74.0658 28.7747 74.4897 28.5165 74.9604C28.2092 74.1709 27.7088 73.5061 26.9525 73.9927C26.788 74.099 26.652 74.2921 26.7114 74.5C26.8668 75.0507 27.0782 75.5739 27.3398 76.0709C25.8477 75.0484 23.62 74.7833 22.7483 76.2525C21.4928 76.1394 20.2291 76.1268 19.0101 76.2582C18.9907 76.2616 18.9953 76.2914 19.0136 76.2925ZM28.7313 77.6943C28.9186 77.6532 29.0706 77.4841 29.0066 77.2899C29.2043 77.01 29.4282 76.7049 29.6373 76.3873C30.5067 76.0834 31.5532 76 32.3644 76.3211C31.7543 76.4661 31.1453 76.6467 30.5387 76.8683C30.2976 76.9563 30.4805 77.3218 30.7215 77.227C31.4184 76.9551 32.1301 76.7483 32.851 76.5918C33.035 76.7289 33.204 76.8877 33.332 77.0945C33.5799 77.4966 33.6382 77.8542 33.5651 78.1627C32.9093 78.0827 32.2547 77.997 31.6069 77.8679C31.4401 77.8348 31.4104 78.0873 31.5646 78.085C32.2318 78.0747 32.8887 78.1467 33.5422 78.2541C33.0692 79.6673 29.6635 79.8832 28.9026 77.8725C28.8706 77.7868 28.8021 77.7354 28.7256 77.7C28.7279 77.6966 28.7301 77.6954 28.7313 77.6943ZM29.5848 79.6342C29.3974 80.3711 28.7074 80.6772 27.9705 80.531C27.3398 80.4065 27.0656 80.0009 26.9388 79.4651C27.4883 79.3611 28.0036 79.1281 28.4526 78.7328C28.7313 79.0972 29.1289 79.4 29.5848 79.6342ZM23.2886 76.7563C24.3374 76.8797 25.3851 77.0168 26.4384 77.2007C26.6224 77.2327 26.6852 76.9186 26.5012 76.8752C25.5164 76.6432 24.4916 76.457 23.4554 76.3325C23.8302 75.7875 24.655 75.551 25.3062 75.7315C25.5827 75.7384 25.8591 75.7853 26.1173 75.8709C26.5023 76 26.9663 76.2022 27.1559 76.5792C27.3341 76.7243 27.5158 76.9208 27.7043 77.1882C27.7968 77.3001 27.887 77.4144 27.9784 77.5263C28.0047 77.6463 28.0847 77.7468 28.1909 77.8085C27.7648 78.2118 27.3067 78.4677 26.8154 78.5797C26.7537 78.7305 26.6121 78.839 26.3961 78.807C25.705 78.7042 24.9749 78.6996 24.3352 78.3877C24.238 78.3409 24.1409 78.2815 24.045 78.2175C24.5602 78.1638 25.0766 78.109 25.5941 78.0473C25.8717 78.0142 25.7723 77.6063 25.5038 77.628C24.8789 77.6771 24.2518 77.7594 23.6246 77.8542C23.4041 77.6052 23.251 77.3035 23.2544 76.9722C23.2555 76.8934 23.2749 76.826 23.2886 76.7563Z" fill="black" />
    <path d="M21.3323 73.8478C22.5159 73.8787 23.6926 73.8409 24.8739 73.7438C25.0396 73.7301 25.1744 73.577 25.1961 73.4194C25.4269 71.7902 25.9251 67.3404 23.2906 67.1724C20.7829 67.0125 20.9108 71.203 21.0776 73.1795C20.8982 73.4217 20.9564 73.8375 21.3323 73.8478ZM21.7288 71.0374C21.8271 70.401 21.9047 68.3138 22.6827 68.0853C23.1214 68.1858 23.5601 68.2852 23.9988 68.3857C24.2159 68.6793 24.3678 69.0015 24.4512 69.3522C24.5746 69.7304 24.6397 70.1085 24.6683 70.5038C24.7277 71.3413 24.6157 72.1832 24.4924 73.0127C24.1885 73.0309 24.6329 73.0321 24.3301 73.0389C24.6055 72.6219 24.5404 72.0621 24.5586 71.5503C24.5838 70.8557 24.6317 70.1542 24.4261 69.4836C24.2559 68.9261 23.4516 69.0175 23.2402 69.4813C22.9501 70.1211 22.9307 70.866 22.8678 71.556C22.821 72.0576 22.7261 72.6208 22.9991 73.0344C22.7295 73.0264 21.714 73.0252 21.4432 73.0081C21.4375 73.0081 21.4329 73.0104 21.4271 73.0104C21.5243 72.35 21.626 71.6943 21.7288 71.0374Z" fill="black" />
    <path d="M31.1677 73.5814C32.3513 73.6123 33.5281 73.5734 34.7094 73.4775C34.875 73.4638 35.0099 73.3107 35.0316 73.153C35.2623 71.5239 35.7605 67.074 33.126 66.9061C30.6183 66.7461 30.7462 70.9367 30.913 72.9131C30.7348 73.1553 30.7919 73.5712 31.1677 73.5814ZM31.5643 70.7699C31.6625 70.1335 31.7401 68.0462 32.5182 67.8177C32.9569 67.9183 33.3956 68.0177 33.8343 68.1182C34.0514 68.4118 34.2033 68.734 34.2879 69.0848C34.4112 69.4629 34.4763 69.841 34.5049 70.2363C34.5643 71.0737 34.4523 71.9157 34.3289 72.7451C34.025 72.7634 34.4694 72.7646 34.1667 72.7714C34.442 72.3544 34.3769 71.7946 34.3952 71.2828C34.4203 70.5882 34.4684 69.8868 34.2627 69.2161C34.0925 68.6586 33.2881 68.75 33.0768 69.2138C32.7866 69.8536 32.7672 70.5985 32.7044 71.2885C32.6575 71.79 32.5627 72.3533 32.8358 72.7669C32.5662 72.7589 31.5505 72.7578 31.2798 72.7406C31.274 72.7406 31.2695 72.7428 31.2638 72.7428C31.3598 72.0837 31.4626 71.4268 31.5643 70.7699Z" fill="black" />
    <path d="M35.0741 86.8316C35.3414 86.7174 35.1483 86.3015 34.8798 86.3712C32.2076 87.0692 29.6725 87.5708 26.8883 87.3332C24.023 87.0887 21.2961 86.2455 18.8409 84.7444C18.8364 84.7421 18.8329 84.7489 18.8364 84.7512C23.4679 87.741 29.8393 89.0743 35.0741 86.8316Z" fill="black" />
    <path d="M21.5693 87.3056C21.5545 87.2942 21.5408 87.3194 21.5545 87.3308C23.3264 88.6732 25.5462 89.1096 27.7226 89.3712C28.0117 89.4055 28.0185 88.937 27.7226 88.9131C25.8182 88.7565 23.155 88.5064 21.5693 87.3056Z" fill="black" />
    <path d="M38.7687 136.251C39.2542 135.938 38.803 135.159 38.3141 135.474C31.2971 140.003 22.1654 139.685 15.4467 134.677C15.3873 134.632 15.3107 134.732 15.3678 134.78C22.1665 140.539 31.2365 141.097 38.7687 136.251Z" fill="black" />
    <path d="M17.3879 94.342C18.776 94.0187 20.1412 93.6188 21.5795 93.5914C23.0738 93.564 24.3911 94.0678 25.834 94.2563C26.5389 94.3477 27.1513 94.246 27.8562 94.166C29.5607 93.9718 31.0334 94.0827 32.7265 94.4448C33.0818 94.5214 33.2223 94.0153 32.8761 93.8999C30.0062 92.9414 27.1307 93.8507 24.2311 93.3321C21.9257 92.9196 19.4077 93.0728 17.3079 94.1547C17.2028 94.2106 17.2794 94.3683 17.3879 94.342Z" fill="black" />
</svg>