<svg width="91" height="46" viewBox="0 0 91 46" fill="none" xmlns="http://www.w3.org/2000/svg">
<path d="M48.0435 19.0801C48.0435 18.4228 48.0689 17.7656 48.0689 17.083C48.0689 16.7544 48.2461 16.3752 48.6007 16.1982C49.0819 15.9707 49.5378 15.7432 50.019 15.5409C49.8923 15.4145 49.7657 15.3134 49.6644 15.187C49.4111 14.9342 49.1579 14.6814 48.8793 14.4286C48.626 14.1758 48.3474 13.8977 48.0942 13.6449C47.7903 13.3416 47.5117 13.0635 47.2837 12.836L47.2584 12.8107C47.1824 12.7348 47.1318 12.6843 47.0811 12.6337C46.9545 12.5073 46.8026 12.3556 46.6759 12.204L46.5493 12.0776L46.4227 11.9512L43.4342 9.14506C43.4089 8.86698 43.3835 8.61418 43.3835 8.36138C43.3582 7.90634 43.3582 7.42602 43.3835 6.99626C43.4089 6.51594 43.4342 6.08618 43.5102 5.65642C43.6368 4.67049 43.966 3.55817 45.1817 2.97673C45.4096 2.87561 45.6376 2.77449 45.8655 2.67337H45.8908C45.5616 2.44585 45.207 2.24361 44.8778 2.11721C44.8271 2.09193 44.7511 2.09193 44.6752 2.06665C44.5232 2.04137 44.3206 2.06665 44.1433 2.09193C44.0167 2.11721 43.8901 2.14249 43.7634 2.19305C43.6875 2.21833 43.6115 2.24361 43.5102 2.26889C43.4089 2.29417 43.2822 2.31945 43.1809 2.37001C42.5984 2.52169 42.0159 2.67337 41.4334 2.85033C40.1165 3.22953 38.8502 3.60873 37.6598 3.98793H37.6345L37.4319 4.06377C36.9254 4.21545 36.4189 4.39241 35.9377 4.56937C35.8617 4.59465 35.811 4.61993 35.7604 4.64521C35.7097 4.67049 35.6591 4.69577 35.6084 4.72105C35.5578 4.74633 35.5071 4.77161 35.4818 4.79689C35.4565 4.82217 35.4058 4.84745 35.3805 4.87273C35.3299 4.92329 35.2792 4.94857 35.2285 4.99913C35.1779 5.07497 35.1272 5.12553 35.1019 5.22665C35.1019 5.22665 35.1019 5.25193 35.0766 5.25193C34.6967 6.03562 34.6714 6.89514 34.8233 7.72938C34.8993 8.28554 35.1779 8.61418 35.5071 8.94282C35.5071 8.94282 35.5071 8.9681 35.5325 8.9681C35.5831 9.01866 35.6338 9.06922 35.6844 9.11978C35.8364 9.27146 35.9883 9.44843 36.1656 9.62539C36.2922 9.72651 36.3935 9.85291 36.4948 9.95403C37.9131 11.395 39.3314 12.8107 40.7496 14.1505C43.1049 16.4004 45.5869 18.6504 48.1195 20.8245V20.7992C48.1195 20.7992 48.1448 20.7992 48.1448 20.8245C48.0435 20.1925 48.0435 19.6363 48.0435 19.0801ZM58.7311 18.3976C58.7311 18.0184 58.7311 17.6392 58.7564 17.2347C58.7564 16.8555 58.9591 16.5016 59.2883 16.3499C60.4026 15.819 61.517 15.2881 62.6313 14.7572C63.2138 14.4792 63.8217 14.2011 64.4042 13.923C64.86 13.7208 65.2906 13.5185 65.7464 13.291C65.9237 13.2152 66.101 13.1393 66.253 13.0635C66.5822 12.9118 66.9114 12.7601 67.2407 12.6084C67.6206 12.4062 67.7219 12.2798 67.8485 11.8248C67.9498 11.4456 68.0511 11.0411 68.1271 10.6619C68.2031 10.3332 68.279 10.0046 68.355 9.67595L68.4817 9.19562C68.0764 9.01866 67.6965 8.81642 67.2913 8.61418C65.5945 7.80522 63.8217 6.92042 62.1248 6.01034C61.3397 5.60585 60.5039 5.12553 59.5922 4.61993C59.5669 4.61993 59.5669 4.59465 59.5416 4.59465C59.263 4.44297 58.9591 4.26601 58.6551 4.08905C58.2753 3.86153 57.8954 3.63401 57.5155 3.43177C57.3635 3.33065 57.2116 3.25481 57.0596 3.15369C56.8823 3.05257 56.705 2.92617 56.5278 2.82505C56.2745 2.64809 55.9959 2.47113 55.7426 2.34473C55.6667 2.29417 55.5654 2.26889 55.4894 2.24361C55.1095 2.11721 54.6283 2.24361 54.1471 2.39529C54.0458 2.42057 53.9192 2.44585 53.8179 2.49641C53.2354 2.64809 52.6275 2.79977 52.045 2.97673C51.4119 3.15369 50.7534 3.35593 50.1203 3.53289C49.5631 3.70985 48.9806 3.88681 48.4234 4.06377C48.3981 4.06377 48.3728 4.08905 48.3474 4.08905L48.0435 4.19017C47.537 4.34185 47.0305 4.51881 46.524 4.69577C46.3467 4.77161 46.1947 4.82217 46.0681 4.89801C45.8402 5.02441 45.7389 5.12553 45.6629 5.32777C45.6629 5.35305 45.6629 5.37833 45.6629 5.37833C45.283 6.16202 45.2577 7.02154 45.4096 7.85578C45.4856 8.31082 45.6882 8.63946 45.9415 8.94282C45.9921 8.99338 46.0428 9.04394 46.0681 9.0945C46.1187 9.14506 46.1694 9.2209 46.2201 9.27146C46.2707 9.3473 46.3467 9.42314 46.4227 9.4737C46.4986 9.54955 46.5746 9.62539 46.6506 9.70123C46.7772 9.82763 46.9039 9.92875 47.0052 10.0551L48.2461 11.2939C49.2339 12.2798 50.2469 13.2657 51.2346 14.2264C51.3866 14.378 51.5639 14.5297 51.7158 14.6814C51.7918 14.7572 51.8678 14.8331 51.9437 14.8836C52.2477 15.187 52.5516 15.4651 52.8808 15.7432C53.0328 15.8948 53.21 16.0465 53.362 16.1982C55.0588 17.7656 56.8063 19.3329 58.6045 20.875V20.7992C58.6045 20.3694 58.6045 19.9397 58.6298 19.5099C58.7311 19.156 58.7311 18.7768 58.7311 18.3976ZM34.0129 1.15656C34.6461 1.53576 35.2792 1.88969 35.9124 2.24361C36.0643 2.19305 36.2416 2.14249 36.3935 2.09193C36.5455 2.04137 36.6975 1.99081 36.8494 1.96553C37.1027 1.88969 37.3813 1.81384 37.6345 1.738H37.6598C38.1917 1.58632 38.7489 1.40936 39.2807 1.25768C39.306 1.25768 39.306 1.2324 39.3314 1.2324C39.8885 1.08072 40.4204 0.929042 40.9776 0.777362C41.2308 0.701522 41.5094 0.625682 41.788 0.549841C41.8893 0.524561 41.9906 0.499281 42.0919 0.448721H42.1172C42.3198 0.398161 42.5225 0.347601 42.7251 0.297041C42.9277 0.246481 43.1303 0.195921 43.3329 0.14536C43.4342 0.12008 43.5355 0.0948003 43.6621 0.0948003C43.7888 0.0948003 43.8647 0.0695202 43.966 0.0442401C44.0673 0.0189601 44.1686 0.0189601 44.2699 0.0189601C44.4219 -0.00632002 44.5739 -0.00632002 44.7258 0.0189601C45.6122 0.0695202 46.3467 0.499281 47.0811 0.929042L48.6514 1.83912C49.6137 1.56104 50.5761 1.28296 51.6398 0.979603C51.9184 0.903762 52.197 0.827922 52.5009 0.726802C53.3113 0.499281 54.1218 0.246481 54.9575 0.17064C55.2615 0.14536 55.5654 0.17064 55.8186 0.221201C56.5278 0.347601 57.1356 0.726802 57.7434 1.08072L57.946 1.20712C58.6045 1.58632 59.2376 1.96553 59.8961 2.31945C60.7572 2.79977 61.5676 3.28009 62.3781 3.70985C62.4034 3.70985 62.4034 3.73513 62.4287 3.73513C64.1256 4.67049 65.7464 5.5553 67.342 6.33898C68.2031 6.76874 69.0388 7.1985 69.8746 7.5777C69.9759 7.62826 70.1025 7.67882 70.2038 7.72938C70.6597 7.9569 70.8116 8.48778 70.7103 8.89226C70.6597 9.11978 70.609 9.37258 70.5584 9.60011C70.5077 9.77707 70.4824 9.97931 70.4318 10.1563C70.3305 10.7124 70.2038 11.2686 70.0519 11.8248C69.9506 12.1534 69.8746 12.5073 69.748 12.836C69.3681 13.9736 68.431 14.4033 67.5446 14.8078L67.4939 14.8331C67.0127 15.0606 66.5315 15.2881 66.0504 15.4904C64.5055 16.1982 62.9099 16.9313 61.3144 17.6897C61.1371 17.7656 60.9598 17.8414 60.7825 17.9425C60.7572 18.4228 60.7319 18.9285 60.7066 19.4088C60.6812 19.6363 60.6812 19.8638 60.6812 20.0913C60.6306 20.875 60.6053 21.6334 60.5799 22.4171C60.5546 22.5688 60.5546 22.7205 60.5546 22.8721C60.5293 23.2261 60.3267 23.5294 60.0228 23.6811C59.6935 23.8328 59.2883 23.7822 59.0097 23.5294C58.6551 23.2261 58.3006 22.948 57.9713 22.6446C57.87 22.5688 57.7941 22.4929 57.6928 22.4171C57.1862 21.9873 56.705 21.5576 56.1985 21.1278C54.6536 19.788 53.1341 18.4228 51.6905 17.0577C51.184 17.2852 50.6521 17.538 50.1456 17.7656C50.1203 18.2459 50.0949 18.7515 50.0696 19.2318C50.0443 19.5857 50.019 19.9649 50.019 20.3189V20.3441C49.9936 20.6475 49.9936 20.9509 49.9683 21.2795C49.943 21.7598 49.9177 22.2401 49.9177 22.7205C49.8923 23.0744 49.6897 23.3777 49.3858 23.5294C49.3352 23.5547 49.2592 23.58 49.2085 23.58C49.1832 23.58 49.1325 23.6053 49.1072 23.6053C48.854 23.6305 48.6007 23.5547 48.3728 23.3777C48.0182 23.0744 47.6636 22.771 47.2837 22.4677C44.9284 20.4705 42.6238 18.3976 40.4204 16.2993C39.2554 16.8302 38.0904 17.3864 36.9254 17.9172L36.8747 19.0801C36.7988 20.3441 36.7481 21.6081 36.6975 22.8721C36.6721 23.2261 36.4949 23.5294 36.1656 23.6811C36.039 23.7317 35.9124 23.7569 35.7857 23.7569C35.5578 23.7569 35.3552 23.6811 35.1526 23.5294C34.8487 23.2766 34.5701 23.0238 34.2662 22.7963L19.577 9.0945C19.4504 7.93162 19.4757 6.79402 19.6277 5.65642C19.7543 4.72105 20.0582 3.55817 21.2992 2.95145C22.059 2.57225 22.8948 2.34473 23.7305 2.11721C23.9838 2.04137 24.2624 1.96553 24.5156 1.88969C25.5793 1.56104 26.6937 1.2324 27.808 0.929042C28.0866 0.853202 28.3652 0.777362 28.6691 0.676242C29.4795 0.448721 30.29 0.195921 31.1257 0.12008C32.2401 0.0189601 33.1265 0.549841 33.9116 1.03016L34.0129 1.15656ZM34.798 19.2824C34.798 18.5998 34.8233 17.9172 34.8233 17.26C34.8233 17.2094 34.8233 17.1588 34.8487 17.1083C34.8487 17.083 34.874 17.0324 34.874 16.9819C34.874 16.9566 34.8993 16.9313 34.8993 16.906C34.8993 16.8808 34.9246 16.8302 34.95 16.8049C35.0259 16.6785 35.1019 16.5521 35.2285 16.451C35.2792 16.4257 35.3299 16.3752 35.3805 16.3499C36.4949 15.819 37.6092 15.2881 38.7489 14.7572C38.369 14.4033 37.9891 14.0241 37.6092 13.6449C37.2546 13.291 36.9001 12.9371 36.5455 12.5579C36.4949 12.5073 36.4442 12.4315 36.3682 12.3809C36.1403 12.1534 35.7857 11.85 35.7857 11.85L35.6338 11.7236L32.7466 9.01866C32.7466 8.99338 32.7466 8.99338 32.7466 8.9681V8.94282C32.7213 8.79114 32.7213 8.61418 32.6959 8.4625C32.6706 8.31082 32.6706 8.15914 32.6706 8.00746C32.6706 7.98218 32.6706 7.93162 32.6706 7.88106C32.6706 7.72938 32.6706 7.55242 32.6706 7.40074C32.6706 6.74346 32.7213 6.11146 32.7972 5.45417C32.8986 4.74633 33.0758 3.98793 33.6077 3.38121C33.4557 3.30537 33.3038 3.20425 33.1518 3.10313C32.9745 3.00201 32.7972 2.87561 32.62 2.77449C32.2654 2.54697 31.9108 2.31945 31.5816 2.19305C31.2017 2.06665 30.6952 2.19305 30.2393 2.34473C30.138 2.37001 30.0114 2.39529 29.9101 2.44585C29.3023 2.59753 28.7198 2.74921 28.1373 2.92617C26.8456 3.28009 25.5793 3.65929 24.389 4.06377L24.1611 4.13961C23.6545 4.29129 23.148 4.46825 22.6668 4.64521C22.5909 4.67049 22.5402 4.69577 22.4895 4.72105C22.4389 4.74633 22.3882 4.77161 22.3376 4.79689C22.2869 4.82217 22.2363 4.84745 22.211 4.87273C22.1603 4.89801 22.135 4.92329 22.1097 4.94857C22.059 4.99913 22.0084 5.02441 21.9577 5.07497C21.907 5.15081 21.8564 5.20137 21.8311 5.30249C21.4512 6.08618 21.4259 6.97098 21.5525 7.80522C21.6285 8.36138 21.907 8.69002 22.2363 9.01866C22.2363 9.01866 22.2363 9.04394 22.2616 9.04394C22.4389 9.27147 22.6668 9.47371 22.8948 9.70123C23.0214 9.80235 23.1227 9.92875 23.224 10.0299C24.6423 11.4708 26.0605 12.8865 27.4788 14.2264C29.8341 16.4763 32.3161 18.7262 34.8487 20.9003C34.798 20.3694 34.798 19.8133 34.798 19.2824Z" fill="black"/>
<path d="M34.8233 17.2602C34.8233 17.9428 34.798 18.6001 34.798 19.2826C34.798 19.8135 34.7727 20.3697 34.7727 20.9006C32.2148 18.7265 29.7581 16.4765 27.4028 14.2266C26.0099 12.8868 24.5663 11.4711 23.148 10.0301C23.0467 9.929 22.9201 9.8026 22.8188 9.70148C22.5909 9.47396 22.3629 9.27172 22.1856 9.0442C22.1856 9.0442 22.1856 9.01892 22.1603 9.01892C21.8311 8.69028 21.5778 8.33635 21.4765 7.80547C21.3499 6.94595 21.3499 6.06115 21.7551 5.30275C21.7804 5.22691 21.8311 5.15107 21.8817 5.07523C21.9324 5.02467 21.9577 4.97411 22.0337 4.94883C22.059 4.92355 22.1097 4.89826 22.135 4.87298C22.1856 4.8477 22.211 4.82242 22.2616 4.79714C22.3123 4.77186 22.3629 4.74658 22.4136 4.7213C22.4642 4.69602 22.5402 4.67074 22.5909 4.64546C23.072 4.4685 23.6039 4.29154 24.0851 4.13986L24.313 4.06402C25.5287 3.68482 26.795 3.30562 28.0613 2.92642C28.6438 2.77474 29.2263 2.59778 29.8341 2.4461C29.9354 2.42082 30.0367 2.39554 30.1633 2.34498C30.6952 2.24386 31.2017 2.09218 31.5816 2.24386C31.9362 2.37026 32.2907 2.59778 32.62 2.8253C32.7973 2.9517 32.9745 3.05282 33.1518 3.15394C33.3038 3.25506 33.4557 3.3309 33.6077 3.43202C33.0758 4.03874 32.8732 4.79714 32.7973 5.50499C32.696 6.13699 32.6706 6.79427 32.6706 7.45155C32.6706 7.60323 32.6706 7.78019 32.6706 7.93187C32.6706 7.98243 32.6706 8.00771 32.6706 8.05827C32.6706 8.20995 32.6959 8.36163 32.6959 8.51332C32.7213 8.665 32.7213 8.84196 32.7466 8.99364V9.01892C32.7466 9.0442 32.7466 9.0442 32.7466 9.06948L35.6338 11.7744L35.7857 11.9008C35.7857 11.9008 36.115 12.2042 36.3682 12.4317C36.4189 12.4823 36.4695 12.5581 36.5455 12.6087C36.9001 12.9879 37.2546 13.3418 37.6092 13.6957C37.9891 14.0749 38.369 14.4541 38.7489 14.8081C37.6345 15.3389 36.4949 15.8698 35.3805 16.4007C35.3299 16.426 35.2792 16.4513 35.2286 16.5018C35.1019 16.6029 35.0259 16.7041 34.95 16.8557C34.9246 16.881 34.9246 16.9063 34.8993 16.9569C34.874 16.9821 34.874 17.0074 34.874 17.0327C34.8487 17.0833 34.8487 17.1085 34.8487 17.1591C34.8487 17.1338 34.8233 17.1844 34.8233 17.2602Z" fill="#00AB2E"/>
<path d="M58.7563 17.2341C58.7563 17.6133 58.7309 17.9925 58.7309 18.3969C58.7309 18.7761 58.7309 19.1553 58.7056 19.5345C58.7056 19.9643 58.7056 20.3941 58.6803 20.8238V20.8997C56.8821 19.3576 55.1093 17.7902 53.4378 16.2229C53.2858 16.0712 53.1085 15.9195 52.9566 15.7678C52.6527 15.4897 52.3488 15.2116 52.0195 14.9083C51.9435 14.8324 51.8676 14.7566 51.7916 14.706C51.6396 14.5544 51.4623 14.4027 51.3104 14.251C50.3227 13.2904 49.3096 12.3044 48.3219 11.3185L47.0809 10.0798C46.9543 9.95339 46.853 9.82699 46.7264 9.72587C46.6504 9.65003 46.5744 9.57419 46.4984 9.49835C46.4225 9.42251 46.3465 9.37195 46.2958 9.29611C46.2452 9.24555 46.1945 9.16971 46.1439 9.11915C46.0932 9.06859 46.0426 9.01803 46.0173 8.96747C45.7387 8.68939 45.5614 8.36075 45.4854 7.88043C45.3588 7.04619 45.3588 6.16138 45.7387 5.40298C45.7387 5.3777 45.7387 5.35242 45.7387 5.35242C45.8146 5.15018 45.9413 5.04906 46.1439 4.92266C46.2705 4.84682 46.4225 4.79626 46.5998 4.72042C47.0809 4.54346 47.6128 4.3665 48.1193 4.21482L48.4232 4.1137C48.4486 4.1137 48.4992 4.08842 48.4992 4.08842C49.0564 3.91146 49.6389 3.7345 50.196 3.55754C50.8292 3.3553 51.4624 3.17834 52.1208 3.00137C52.7033 2.84969 53.3112 2.67273 53.8937 2.52105C53.995 2.49577 54.0963 2.47049 54.2229 2.41993C54.7041 2.29353 55.1853 2.14185 55.5652 2.26825C55.6411 2.29353 55.7425 2.34409 55.8184 2.36937C56.0717 2.49577 56.3503 2.67273 56.6035 2.84969C56.7808 2.97609 56.9581 3.07721 57.1354 3.17833C57.2873 3.27946 57.4393 3.3553 57.5913 3.45642C57.9711 3.68394 58.351 3.91146 58.7309 4.1137C59.0348 4.29066 59.3388 4.46762 59.6173 4.6193C59.6427 4.6193 59.6427 4.64458 59.668 4.64458C60.5797 5.15018 61.4155 5.60522 62.2006 6.03498C63.9228 6.94507 65.6703 7.82987 67.3671 8.63883C67.7723 8.84107 68.1775 9.01803 68.5574 9.22027L68.4308 9.70059C68.3548 10.0292 68.2788 10.3579 68.2029 10.6865C68.1016 11.0657 68.0003 11.4702 67.9243 11.8494C67.7977 12.3044 67.6963 12.4561 67.3165 12.6331C66.9872 12.7848 66.658 12.9364 66.3287 13.0881C66.1515 13.164 65.9742 13.2398 65.8222 13.3156C65.3664 13.5179 64.9358 13.7201 64.4799 13.9476C63.8974 14.2257 63.2896 14.5038 62.7071 14.7819C61.5928 15.3128 60.4784 15.8437 59.3641 16.3745C58.9589 16.5009 58.7563 16.8801 58.7563 17.2341Z" fill="#ED1B23"/>
<path d="M9.85183 39.8059C9.59857 39.5278 9.06673 39.2244 8.30694 38.9463L2.81119 37.1514C2.60858 37.0756 2.50728 36.9239 2.50728 36.6964C2.50728 36.4689 2.55793 36.3172 2.68456 36.1908C3.36836 35.5082 4.25478 35.1543 5.36912 35.1543C6.50879 35.1543 7.47118 35.5588 8.28162 36.3425C8.43357 36.4942 8.61086 36.6458 8.78814 36.7975C8.96542 36.9492 9.16803 36.9998 9.42129 36.9998C9.77586 36.9998 10.0544 36.8734 10.2824 36.6458C10.5103 36.4183 10.6369 36.115 10.6369 35.7863C10.6369 35.5082 10.561 35.2554 10.3837 35.0532C8.99075 33.4858 7.31923 32.7021 5.36912 32.7021C4.73597 32.7021 4.07749 32.8033 3.44434 32.9802C2.81119 33.1572 2.22869 33.4353 1.72217 33.7639C1.21565 34.0926 0.810434 34.497 0.481195 34.9774C0.177282 35.4577 0 35.9886 0 36.5953C0 37.4042 0.303913 38.1121 0.886412 38.7188C1.19032 39.0222 1.69685 39.3002 2.4313 39.5783L7.90173 41.3732C8.10434 41.4491 8.20564 41.6007 8.20564 41.8283C8.20564 42.0052 8.15499 42.1822 8.02836 42.3086C7.34455 43.0164 6.45814 43.3703 5.3438 43.3703C4.20412 43.3703 3.21641 42.9659 2.4313 42.1822C2.27934 42.0305 2.12739 41.9041 1.95011 41.7524C1.79815 41.5755 1.59554 41.4996 1.31695 41.4996C0.96239 41.4996 0.683803 41.626 0.455869 41.8535C0.227934 42.0811 0.101304 42.3844 0.101304 42.7131C0.101304 42.9911 0.177282 43.2439 0.354565 43.4715C1.7475 45.0135 3.41902 45.7972 5.36912 45.7972C6.00227 45.7972 6.63543 45.6961 7.26858 45.5191C7.90173 45.3422 8.4589 45.0894 8.99075 44.7355C9.49727 44.4068 9.90249 43.9771 10.2317 43.522C10.5356 43.0417 10.7129 42.5108 10.7129 41.9041C10.7129 41.1204 10.4343 40.4126 9.85183 39.8059Z" fill="black"/>
<path d="M18.9946 43.3703C17.4244 43.3703 16.6392 42.5866 16.6392 41.0446V35.1543H18.1082C18.4374 35.1543 18.7413 35.0279 18.9692 34.8004C19.1972 34.5729 19.3238 34.2695 19.3238 33.9409C19.3238 33.6122 19.1972 33.3089 18.9692 33.0813C18.7413 32.8538 18.4374 32.7274 18.1082 32.7274H16.6392V28.3287C16.6392 28 16.5126 27.6967 16.2847 27.4692C16.0567 27.2416 15.7528 27.1152 15.4236 27.1152C15.069 27.1152 14.7904 27.2416 14.5625 27.4692C14.3346 27.6967 14.2079 28 14.2079 28.3287V32.7274H13.6508C13.3215 32.7274 13.0429 32.8538 12.7897 33.0813C12.5617 33.3089 12.4351 33.6122 12.4351 33.9409C12.4351 34.2948 12.5617 34.5729 12.7897 34.8004C13.0176 35.0279 13.3215 35.1543 13.6508 35.1543H14.2079V41.0446C14.2079 44.2298 15.8035 45.8225 18.9946 45.8225C19.3238 45.8225 19.6277 45.6961 19.8557 45.4686C20.0836 45.241 20.2102 44.9377 20.2102 44.609C20.2102 44.2804 20.0836 43.977 19.8557 43.7495C19.6277 43.4967 19.3238 43.3703 18.9946 43.3703Z" fill="black"/>
<path d="M32.8731 32.7275C32.5185 32.7275 32.24 32.8539 32.012 33.0815C31.7841 33.309 31.6575 33.6123 31.6575 33.941V39.7301C31.6575 40.2357 31.5562 40.716 31.3789 41.1458C31.1763 41.5756 30.923 41.98 30.5938 42.3087C30.2645 42.6373 29.8593 42.9154 29.4288 43.0924C28.9729 43.2946 28.517 43.3704 28.0105 43.3704C27.504 43.3704 27.0228 43.2693 26.5922 43.0924C26.1364 42.8901 25.7565 42.6373 25.4272 42.3087C25.098 41.98 24.8447 41.6008 24.6421 41.1458C24.4395 40.6908 24.3636 40.2357 24.3636 39.7301V33.941C24.3636 33.6123 24.2369 33.309 24.009 33.0815C23.7811 32.8539 23.4771 32.7275 23.1479 32.7275C22.7933 32.7275 22.5148 32.8539 22.2868 33.0815C22.0589 33.309 21.9323 33.6123 21.9323 33.941V39.7301C21.9323 40.5644 22.0842 41.348 22.4134 42.0812C22.7427 42.8143 23.1732 43.4716 23.7304 44.0277C24.2876 44.5839 24.9207 45.0137 25.6805 45.3423C26.415 45.6709 27.2001 45.8226 28.0358 45.8226C28.745 45.8226 29.4034 45.7215 29.9859 45.5445C30.5938 45.3423 31.1509 45.0389 31.7081 44.6344C31.7081 44.9631 31.8347 45.2665 32.0627 45.494C32.2906 45.7215 32.5692 45.8479 32.9238 45.8479C33.2783 45.8479 33.5569 45.7215 33.8102 45.494C34.0381 45.2665 34.1647 44.9378 34.1647 44.6092V33.9663C34.1647 33.6376 34.0381 33.3343 33.8102 33.1067C33.5063 32.8287 33.2024 32.7275 32.8731 32.7275Z" fill="black"/>
<path d="M47.841 27.1152C47.4864 27.1152 47.2078 27.2416 46.9799 27.4692C46.752 27.6967 46.6253 28 46.6253 28.3287C46.6253 28.3287 46.6253 33.3594 46.6253 33.8903C46.6253 33.9156 46.6253 33.9409 46.6253 33.9409V34.1684C45.3084 33.1066 43.7888 32.6516 42.0413 32.7527C40.6231 32.8285 39.2555 33.41 38.2171 34.3453C36.7229 35.6852 35.9631 37.3284 35.9631 39.2749C35.9631 41.0951 36.5962 42.6372 37.8879 43.9012C39.1795 45.1905 40.7244 45.8225 42.5225 45.8225C44.0927 45.8225 45.4603 45.3422 46.6253 44.3815V44.5838C46.6253 44.9377 46.752 45.2158 46.9799 45.4433C47.2078 45.6708 47.5118 45.7972 47.841 45.7972C48.1702 45.7972 48.4741 45.6708 48.7021 45.4433C48.93 45.2158 49.0566 44.9124 49.082 44.5838V39.4013C49.082 39.3508 49.082 39.3255 49.082 39.2749V28.3287C49.082 27.9748 48.9553 27.6967 48.7274 27.4692C48.4741 27.2164 48.1702 27.1152 47.841 27.1152ZM46.6 39.3761C46.5747 39.907 46.4734 40.3873 46.2708 40.8423C46.0682 41.3479 45.7643 41.7777 45.3844 42.1569C45.0045 42.5361 44.5739 42.8394 44.0674 43.0417C43.5609 43.2692 43.029 43.3703 42.4719 43.3703C41.8894 43.3703 41.3575 43.2692 40.851 43.0417C40.3445 42.8142 39.9139 42.5361 39.5594 42.1569C39.2048 41.7777 38.9009 41.3479 38.6983 40.8423C38.4957 40.3367 38.369 39.8058 38.369 39.2497C38.369 38.6935 38.4704 38.1626 38.6983 37.657C38.9009 37.1514 39.2048 36.7217 39.5594 36.3425C39.9139 35.9633 40.3698 35.6852 40.851 35.4577C41.3575 35.2301 41.8894 35.129 42.4719 35.129C43.0544 35.129 43.5862 35.2301 44.0674 35.4577C44.5739 35.6852 45.0045 35.9633 45.3844 36.3425C45.7643 36.7217 46.0428 37.1514 46.2708 37.657C46.4734 38.1121 46.5747 38.6177 46.6 39.1233V39.3761Z" fill="black"/>
<path d="M52.9314 28.9604C52.4756 28.9351 51.9944 29.1121 51.6904 29.466C51.4878 29.6935 51.3865 29.9716 51.3612 30.2749C51.3359 30.73 51.5132 31.2103 51.8677 31.5137C52.0957 31.7159 52.3742 31.817 52.6782 31.8423C53.134 31.8676 53.6152 31.6906 53.9191 31.3367C54.1217 31.1092 54.223 30.8311 54.2484 30.5277C54.2737 30.0727 54.0964 29.5924 53.7419 29.289C53.5139 29.0868 53.2353 28.9857 52.9314 28.9604Z" fill="black"/>
<path d="M52.8048 32.7275C52.4756 32.7275 52.1717 32.8539 51.9437 33.0815C51.7158 33.309 51.5892 33.6123 51.5892 33.941V44.5839C51.5892 44.9378 51.7158 45.2159 51.9437 45.4434C52.1717 45.6709 52.4756 45.7973 52.8048 45.7973C53.1341 45.7973 53.438 45.6709 53.6659 45.4434C53.8938 45.2159 54.0205 44.9125 54.0458 44.5839V33.941C54.0458 33.5871 53.9192 33.309 53.6659 33.0815C53.438 32.8287 53.1341 32.7275 52.8048 32.7275Z" fill="black"/>
<path d="M67.9498 32.6768C67.5952 32.6768 67.3167 32.8032 67.0634 33.0307C66.8355 33.2582 66.7088 33.5616 66.7088 33.8902V33.9408C66.7088 34.0166 66.6329 34.0419 66.5822 34.0166C65.6451 33.2835 64.6068 32.8537 63.4418 32.702H63.4164C63.3405 32.702 63.2645 32.6768 63.1885 32.6768C63.1379 32.6768 63.1125 32.6768 63.0619 32.6768C63.0112 32.6768 62.9606 32.6768 62.9099 32.6768C62.8086 32.6768 62.7073 32.6768 62.606 32.6768C62.4794 32.6768 62.3781 32.6768 62.2515 32.6768C62.2008 32.6768 62.1755 32.6768 62.1248 32.6768C62.0488 32.6768 61.9729 32.6768 61.8969 32.702C61.8462 32.702 61.8209 32.702 61.7703 32.7273C61.6943 32.7273 61.6436 32.7526 61.5676 32.7526C61.517 32.7526 61.4663 32.7779 61.441 32.7779C61.365 32.7779 61.3144 32.8032 61.2384 32.8032C61.1878 32.8032 61.1371 32.8284 61.1118 32.8284C61.0611 32.8537 60.9851 32.8537 60.9345 32.879C60.8838 32.879 60.8332 32.9043 60.8079 32.9043C60.7572 32.9296 60.6812 32.9296 60.6306 32.9548C60.5799 32.9801 60.5293 32.9801 60.504 33.0054C60.4533 33.0307 60.3773 33.056 60.3267 33.0812C60.276 33.1065 60.2507 33.1065 60.2 33.1318C60.1494 33.1571 60.0734 33.1824 60.0228 33.2076C59.9721 33.2329 59.9468 33.2329 59.8961 33.2582C59.8455 33.2835 59.7695 33.3088 59.7188 33.334C59.6682 33.3593 59.6429 33.3846 59.5922 33.3846C59.5416 33.4099 59.4656 33.4604 59.4149 33.4857C59.3896 33.511 59.339 33.5363 59.3136 33.5363C59.2377 33.5868 59.187 33.6121 59.111 33.6627C59.0857 33.688 59.0604 33.688 59.035 33.7132C58.8578 33.8396 58.6552 33.966 58.4779 34.1177C58.4525 34.143 58.4272 34.1683 58.4019 34.1683C58.3259 34.2188 58.2753 34.2694 58.1993 34.3452C58.174 34.3705 58.1486 34.3958 58.098 34.4211C58.0473 34.4716 58.022 34.4969 57.9713 34.5475L57.946 34.5728C57.8954 34.6233 57.87 34.6739 57.8194 34.6992C57.7687 34.7497 57.7434 34.775 57.6928 34.8256C57.6674 34.8508 57.6674 34.8508 57.6421 34.8761C57.5155 35.0278 57.3888 35.1795 57.2622 35.3312C57.2369 35.3564 57.2369 35.3817 57.2116 35.407C57.1862 35.4576 57.1356 35.5081 57.1103 35.5587C56.6797 36.216 56.3758 36.8985 56.1985 37.6569C56.1985 37.6822 56.1985 37.6822 56.1985 37.7075C56.1732 37.7833 56.1732 37.8339 56.1479 37.9097C56.0972 38.112 56.0719 38.3395 56.0719 38.5417C56.0719 38.6176 56.0719 38.6681 56.0466 38.744C56.0466 38.7693 56.0466 38.8198 56.0466 38.8451C56.0466 38.8957 56.0466 38.9462 56.0466 39.0221C56.0466 39.0726 56.0466 39.1485 56.0466 39.199C56.0466 39.2496 56.0466 39.3254 56.0466 39.376C56.0466 39.4265 56.0466 39.4771 56.0466 39.5529C56.0466 39.5782 56.0466 39.6288 56.0466 39.6541C56.0466 39.7299 56.0466 39.7805 56.0719 39.8563C56.0972 40.0585 56.1225 40.2861 56.1479 40.4883C56.1479 40.5641 56.1732 40.6147 56.1985 40.6905C56.1985 40.7158 56.1985 40.7158 56.1985 40.7411C56.3758 41.4995 56.6797 42.2073 57.1103 42.8393C57.1356 42.8899 57.1862 42.9405 57.2116 42.991C57.2369 43.0163 57.2369 43.0416 57.2622 43.0669C57.3888 43.2185 57.5155 43.3702 57.6421 43.5219C57.6421 43.5472 57.6674 43.5472 57.6928 43.5725C57.7181 43.623 57.7687 43.6483 57.8194 43.6989C57.87 43.7494 57.8954 43.8 57.946 43.8253L57.9713 43.8505C58.022 43.9011 58.0473 43.9264 58.098 43.9769C58.1233 44.0022 58.1486 44.0275 58.1993 44.0528C58.2753 44.1033 58.3259 44.1792 58.4019 44.2297C58.4272 44.255 58.4525 44.2803 58.4779 44.2803C58.6552 44.432 58.8324 44.5584 59.035 44.6848C59.0604 44.7101 59.0857 44.7101 59.111 44.7353C59.187 44.7859 59.2377 44.8112 59.3136 44.8617C59.339 44.887 59.3896 44.9123 59.4149 44.9123C59.4656 44.9376 59.5416 44.9881 59.5922 45.0134C59.6429 45.0387 59.6682 45.064 59.7188 45.064C59.7695 45.0893 59.8455 45.1145 59.8961 45.1398C59.9468 45.1651 59.9721 45.1651 60.0228 45.1904C60.0734 45.2157 60.1494 45.2409 60.2 45.2662C60.2507 45.2915 60.276 45.2915 60.3267 45.3168C60.3773 45.3421 60.4533 45.3673 60.504 45.3926C60.5546 45.4179 60.6053 45.4179 60.6306 45.4432C60.6812 45.4685 60.7572 45.4685 60.8079 45.4937C60.8585 45.519 60.9092 45.519 60.9345 45.519C60.9851 45.5443 61.0611 45.5443 61.1118 45.5696C61.1624 45.5696 61.2131 45.5949 61.2384 45.5949C61.3144 45.6201 61.365 45.6201 61.441 45.6201C61.4917 45.6201 61.5423 45.6454 61.5676 45.6454C61.6436 45.6454 61.6943 45.6707 61.7703 45.6707C61.8209 45.6707 61.8462 45.6707 61.8969 45.696C61.9729 45.696 62.0488 45.696 62.1248 45.7213C62.1755 45.7213 62.2008 45.7213 62.2515 45.7213C62.3781 45.7213 62.4794 45.7213 62.606 45.7213C62.7073 45.7213 62.8086 45.7213 62.9099 45.7213C62.9606 45.7213 63.0112 45.7213 63.0619 45.7213C63.1125 45.7213 63.1379 45.7213 63.1885 45.7213C63.2645 45.7213 63.3405 45.696 63.4164 45.696H63.4418C64.6068 45.5443 65.6451 45.1145 66.5822 44.3814C66.6329 44.3561 66.7088 44.4067 66.7088 44.4573V44.5078C66.7088 44.8365 66.8355 45.1398 67.0634 45.3673C67.2913 45.5949 67.5952 45.7213 67.9498 45.7213C68.2791 45.7213 68.583 45.5949 68.8109 45.3673C69.0388 45.1398 69.1655 44.8365 69.1655 44.5078V39.1485V33.7891C69.1655 33.4604 69.0388 33.1571 68.8109 32.9296C68.583 32.8032 68.2791 32.6768 67.9498 32.6768ZM66.3796 40.8422C66.1517 41.3478 65.8731 41.7776 65.4932 42.1568C65.1133 42.536 64.6828 42.8393 64.1762 43.0416C63.6697 43.2691 63.1379 43.3702 62.5554 43.3702C61.9729 43.3702 61.441 43.2691 60.9345 43.0416C60.428 42.8141 59.9974 42.536 59.6175 42.1568C59.2377 41.7776 58.9591 41.3478 58.7311 40.8422C58.5032 40.3366 58.4019 39.8057 58.4019 39.2496C58.4019 38.6934 58.5032 38.1625 58.7311 37.6569C58.9591 37.1513 59.2377 36.7216 59.6175 36.3424C59.9974 35.9632 60.428 35.6851 60.9345 35.4576C61.441 35.23 61.9729 35.1289 62.5554 35.1289C63.1379 35.1289 63.6697 35.23 64.1762 35.4576C64.6828 35.6851 65.1133 35.9632 65.4932 36.3424C65.8731 36.7216 66.1517 37.1513 66.3796 37.6569C66.6075 38.1625 66.7088 38.6934 66.7088 39.2496C66.7088 39.8057 66.6075 40.3366 66.3796 40.8422Z" fill="black"/>
<path d="M73.4455 42.4854C72.9896 42.4854 72.5844 42.637 72.2552 42.9657C71.9259 43.2943 71.774 43.6735 71.774 44.1538C71.774 44.6089 71.9259 45.0134 72.2552 45.342C72.5844 45.6706 72.9643 45.8223 73.4455 45.8223C73.9014 45.8223 74.3066 45.6706 74.6358 45.342C74.9651 45.0134 75.117 44.6342 75.117 44.1538C75.117 43.6988 74.9651 43.2943 74.6358 42.9657C74.3066 42.6623 73.9014 42.4854 73.4455 42.4854Z" fill="black"/>
<path d="M78.6119 28.9102C78.2067 28.9102 77.8775 29.0618 77.5989 29.3399C77.3203 29.618 77.1683 29.9719 77.1683 30.3511C77.1683 30.7556 77.3203 31.0842 77.5989 31.3623C77.8775 31.6404 78.232 31.7921 78.6119 31.7921C79.0171 31.7921 79.3464 31.6404 79.625 31.3623C79.9035 31.0842 80.0555 30.7303 80.0555 30.3511C80.0555 29.9466 79.9035 29.618 79.625 29.3399C79.3464 29.0618 78.9918 28.9102 78.6119 28.9102Z" fill="black"/>
<path d="M78.6121 32.7021C78.2828 32.7021 77.9789 32.8286 77.751 33.0561C77.5231 33.2836 77.3964 33.587 77.3964 33.9409V44.6091C77.3964 44.963 77.5231 45.2411 77.751 45.4939C77.9789 45.7214 78.2828 45.8478 78.6121 45.8478C78.9413 45.8478 79.2452 45.7214 79.4732 45.4939C79.7011 45.2663 79.8277 44.963 79.8531 44.6091V33.9156C79.8531 33.5617 79.7264 33.2836 79.4732 33.0308C79.2199 32.8033 78.9413 32.7021 78.6121 32.7021Z" fill="black"/>
<path d="M89.7051 43.7241C89.4771 43.4966 89.1732 43.3702 88.844 43.3702C87.2738 43.3702 86.4887 42.5865 86.4887 41.0444V35.1542H87.9576C88.2868 35.1542 88.5907 35.0278 88.8187 34.8003C89.0466 34.5727 89.1732 34.2694 89.1732 33.9155C89.1732 33.5868 89.0466 33.2835 88.8187 33.0559C88.5907 32.8284 88.2868 32.702 87.9576 32.702H86.4887V28.3033C86.4887 27.9746 86.362 27.6713 86.1341 27.4438C85.9062 27.2162 85.6023 27.0898 85.273 27.0898C84.9184 27.0898 84.6399 27.2162 84.3866 27.4438C84.1587 27.6713 84.032 27.9746 84.032 28.3033V32.702H83.4749C83.1456 32.702 82.867 32.8284 82.6138 33.0559C82.3858 33.2835 82.2592 33.5868 82.2592 33.9155C82.2592 34.2694 82.3858 34.5475 82.6138 34.8003C82.8417 35.0278 83.1456 35.1542 83.4749 35.1542H84.032V41.0444C84.032 44.2297 85.6276 45.8224 88.844 45.8224C89.1732 45.8224 89.4771 45.696 89.7051 45.4685C89.933 45.2409 90.0596 44.9376 90.0596 44.5836C90.0596 44.255 89.9583 43.9516 89.7051 43.7241Z" fill="black"/>
</svg>
