<svg width="98" height="203" viewBox="0 0 98 203" fill="none" xmlns="http://www.w3.org/2000/svg">
    <path d="M81.7078 187.895C81.664 187.826 81.6139 187.758 81.5701 187.689C81.257 187.225 80.8 187.049 80.2552 187.156C79.9484 187.212 79.6604 187.206 79.385 187.162C79.385 186.385 78.834 185.577 77.9637 185.665C76.2857 185.84 74.2258 185.777 72.5479 186.329C73.0613 184.38 71.5211 182.13 69.2733 182.795C68.4907 183.026 68.0399 183.697 67.9898 184.487L67.9773 184.725C67.9773 184.737 67.9773 184.75 67.9773 184.768C67.9272 184.913 67.8834 185.063 67.8583 185.232C67.7519 186.034 68.09 186.799 68.6285 187.35C68.5095 187.394 68.4093 187.425 68.3467 187.457C67.7331 187.72 67.1133 187.964 66.4872 188.202C65.5793 188.547 65.3664 190.013 66.4872 190.27C68.1964 190.665 69.9683 190.389 71.5649 189.694C71.9593 189.525 72.3287 189.337 72.6355 189.117C72.7983 189.274 72.9987 189.387 73.2491 189.431C74.5389 189.65 75.6721 189.644 76.9619 189.525C77.5505 189.468 77.9512 189.537 78.5147 189.55C79.1533 189.562 79.8921 189.293 80.4932 189.481C81.3572 189.738 82.24 188.672 81.7078 187.895Z" fill="#47AD4B" />
    <path d="M72.3535 35.3918C68.9537 34.1699 66.0423 32.2461 62.7427 30.8675C61.2839 30.2597 59.75 29.8399 58.2974 29.2258C56.7447 28.5678 55.4924 27.584 54.1338 26.6127C54.14 26.5939 54.14 26.5689 54.1463 26.5501C54.6347 25.2216 52.6311 24.4884 51.9299 25.6164C51.6669 26.0112 51.429 26.4247 51.2287 26.8508C50.8592 27.4587 51.0847 28.0038 51.5167 28.2858C51.6168 28.9814 52.1616 29.4514 52.8064 29.4138C53.8207 30.9866 55.4737 31.9704 57.2267 32.7474C59.6122 37.8795 67.1944 40.3046 72.3597 39.1203C74.3445 38.6754 74.0314 35.9934 72.3535 35.3918Z" fill="#E5332A" />
    <path d="M49.2253 27.2147C49.3505 27.1645 49.4444 27.0705 49.4382 26.9076C49.4006 25.3222 49.2628 23.7306 49.0625 22.1578C49.0374 21.9447 48.7682 21.8382 48.643 22.045C47.7852 23.3922 47.2843 24.8585 46.8022 26.375C47.5598 26.7572 48.3863 27.0455 49.2253 27.2147Z" fill="#1D1D1B" />
    <path d="M63.3125 19.0998C63.3188 18.9118 63.2311 18.7113 63.0183 18.6549C61.5281 18.2539 60.4825 17.5959 58.9423 18.3855C57.8028 18.9745 57.4647 20.115 57.0077 21.1991C56.9137 21.387 56.8261 21.575 56.751 21.763C56.6758 21.9071 56.6007 22.0513 56.513 22.1891C56.4817 22.2455 56.5569 22.3082 56.6007 22.2581C56.6383 22.2142 56.6758 22.1641 56.7134 22.1202C56.751 22.1327 56.7948 22.1327 56.8198 22.1014C57.2706 21.5688 57.6964 20.986 58.2223 20.5286C59.1615 19.7202 60.0818 19.8205 61.2151 20.0461C61.8662 20.1776 63.1936 20.3719 63.3689 19.4633C63.3939 19.338 63.3752 19.2064 63.3125 19.0998Z" fill="white" />
    <path d="M81.6131 41.2073C81.5317 41.0882 81.4315 41.0068 81.3376 40.9441C81.7696 40.3989 82.0326 39.7034 81.8259 39.0204C81.4816 37.8611 79.6095 37.7796 78.6391 37.4914C77.6248 37.1969 76.6981 37.1029 75.7277 37.153C76.8359 35.8684 77.8439 34.4835 78.6453 32.9922C79.4468 31.4883 80.5237 29.389 80.4548 27.647C80.3859 25.9802 79.2401 25.4287 77.894 24.6768C75.4397 23.3107 72.9791 21.9509 70.4997 20.6287C68.2144 19.4068 65.9479 18.0345 63.5624 17.0193C61.922 16.3175 60.0187 15.6909 58.3157 16.5306C56.8443 17.2575 55.974 18.893 55.1476 20.2402C54.2835 21.6439 53.3256 23.1478 52.6244 24.7144C52.399 23.3734 52.1297 22.0261 51.8229 20.7353C51.5224 19.4569 50.7648 18.2538 49.306 18.2663C47.7783 18.2789 46.8391 19.5948 46.1817 20.7979C45.9626 21.199 45.7122 21.6439 45.468 22.1139C43.7837 19.3755 39.0003 20.7917 38.8688 24.1441C38.7812 26.3875 40.2212 28.1546 42.1308 29.389C42.1559 29.6585 42.1934 29.9279 42.2435 30.1974C40.672 31.2815 39.2758 32.9358 38.3241 34.5775C38.1425 34.7405 38.0236 34.9598 37.9797 35.2042C37.9171 35.3232 37.8483 35.4486 37.7919 35.5676C37.7606 35.6303 37.7418 35.6992 37.7356 35.7556C35.9574 38.4125 34.9682 41.3514 34.6864 44.3154C31.7688 43.4506 28.6821 42.9744 25.6768 43.1123C25.4075 43.1248 25.4075 43.5258 25.6768 43.5321C28.7509 43.5822 31.7312 43.9143 34.6551 44.7164C34.5925 45.5749 34.5925 46.4271 34.6489 47.2794C34.5925 47.2668 34.5362 47.2543 34.4798 47.2418C30.9298 46.4835 26.9478 46.1138 23.3602 46.7843C23.141 46.8282 23.1849 47.1916 23.4165 47.1791C27.2295 46.8971 30.8171 46.7843 34.5862 47.5927C34.6113 47.5989 34.6426 47.6052 34.6676 47.6115C34.8367 49.7044 35.3564 51.7535 36.1891 53.6835C35.0245 54.9994 33.6721 56.7039 33.1587 58.3331C32.8018 59.4736 33.2902 59.8934 33.9727 60.896C34.3233 61.4161 34.6676 61.9425 35.012 62.4626C35.012 62.4689 35.0057 62.4689 35.0057 62.4689C34.3546 64.3738 34.3859 66.5044 34.0728 68.4845C33.7535 70.5023 33.3653 72.5138 32.902 74.5002C31.9441 78.636 30.767 82.7341 29.5649 86.801C27.1418 95.0161 24.7063 103.212 22.5525 111.509C22.4523 111.898 22.6777 112.23 22.9908 112.386C22.9282 112.499 22.8593 112.606 22.7967 112.718C22.7779 112.756 22.7716 112.787 22.7591 112.825C22.7215 112.869 22.6777 112.913 22.6401 112.957C22.2081 113.445 22.7716 114.31 23.3727 113.909C26.8977 111.565 29.9218 108.37 32.8645 105.349C36.0764 102.053 39.1005 98.5753 41.9555 94.9722C47.4339 88.0605 52.3426 80.6286 56.356 72.7644C56.7504 72.683 57.1386 72.5827 57.508 72.4323C58.7852 71.9122 59.2611 70.9785 59.6117 69.7065C60.0813 68.0083 60.6824 65.9905 60.8013 64.1044C61.1895 63.954 61.5777 63.8036 61.9596 63.6282C63.3183 63.0078 64.5955 62.2057 65.7726 61.2658C66.7055 62.0866 67.6196 62.9263 68.5462 63.7785C68.7278 63.9477 68.9783 63.6908 68.8155 63.5091C68.0203 62.5879 67.1312 61.7295 66.1921 60.9148C67.15 60.094 68.0328 59.1916 68.8029 58.2015C68.8718 58.1138 68.9282 58.0323 68.9908 57.9446C69.2725 57.7441 69.4478 57.4872 69.523 57.1739C70.3745 55.8391 70.9505 54.4417 71.4013 52.9504C71.4389 52.9253 71.4827 52.9002 71.514 52.8564C72.7412 51.4339 73.5175 49.2031 73.7304 47.2167C74.3064 47.2794 74.8824 47.3169 75.4522 47.3232C76.1096 47.6303 76.7733 47.9248 77.4369 48.188C79.14 48.8585 81.4065 49.1968 82.6462 47.4987C84.0674 45.5937 82.8089 42.8553 81.6131 41.2073ZM45.7435 25.6731C45.8812 25.2282 46.0941 24.7144 46.0628 24.2444C46.883 22.2768 47.8034 19.5509 49.306 19.7327C50.6584 19.8956 50.5269 22.6904 50.6459 23.6178C50.7961 24.8334 50.8587 26.0554 51.0654 27.2585C51.0654 27.2648 51.0716 27.271 51.0716 27.2773C51.0841 27.6909 51.0904 28.1107 51.0967 28.5243C49.1057 28.5807 46.9769 27.9227 45.2927 26.8387C45.468 26.4689 45.6182 26.0742 45.7435 25.6731ZM43.6773 30.3415C44.7542 31.0747 45.9313 31.6888 47.0207 32.2841C50.4267 34.1389 53.8453 35.9812 57.2701 37.8047C60.6949 39.6219 64.1447 41.4078 67.5883 43.1937C69.1786 44.0146 70.7752 44.917 72.3843 45.7817C72.0086 45.7504 71.6392 45.719 71.2698 45.6877C70.0051 45.5749 68.6464 45.3305 67.3817 45.5436C67.3879 45.5123 67.4005 45.4872 67.4067 45.4559C66.8683 45.1237 66.286 44.8668 65.6849 44.6726C65.015 44.1838 64.2512 43.7828 63.4748 43.413C59.9185 41.7337 56.2558 40.3175 52.712 38.613C50.7773 37.6794 48.8865 36.6768 46.9894 35.6679C46.3195 35.3107 45.6495 34.8658 44.9295 34.7906C44.9233 34.7843 44.917 34.7781 44.917 34.7781C44.4787 33.3932 44.0342 31.9269 43.4582 30.5671C43.5333 30.4856 43.6084 30.4167 43.6773 30.3415ZM57.1448 48.3196C57.6019 48.1065 58.0652 47.8245 58.5285 47.5049C58.3783 47.2981 58.347 47.0036 58.5599 46.8344C59.4427 46.1389 60.457 45.6376 61.346 44.942C61.8281 44.353 62.761 45.2428 62.1975 45.7942C61.3022 46.6653 60.2128 47.223 59.067 47.7055C58.9543 47.7493 58.8479 47.7431 58.7477 47.6992C58.228 47.9373 57.6958 48.1441 57.1636 48.3697C57.1386 48.3697 57.1198 48.3321 57.1448 48.3196ZM55.2102 47.4736C55.1851 47.4861 55.1601 47.4485 55.1851 47.436C56.8443 46.5337 58.1216 44.8543 59.9185 44.1963C60.4256 44.0083 60.9015 44.7854 60.4632 45.1363C58.9606 46.3206 56.8694 46.5713 55.2102 47.4736ZM43.3956 40.5619C44.2345 40.0606 45.1174 39.6345 45.9751 39.1645C46.7264 38.7509 47.4778 38.0804 48.3042 37.8674C48.6987 37.7671 49.1182 38.2245 48.8615 38.5942C48.3293 39.365 47.3338 39.7034 46.4948 40.0543C45.5494 40.4491 44.5601 40.7561 43.5583 40.9566C43.4018 40.988 43.3016 40.8626 43.2954 40.7436C43.2015 40.7937 43.1013 40.8439 43.0074 40.9002C42.9823 40.9128 42.9573 40.8752 42.9823 40.8627C43.0888 40.8063 43.1952 40.7499 43.2954 40.6872C43.3142 40.6308 43.3455 40.5869 43.3956 40.5619ZM44.5226 41.577C45.1612 40.9316 46.2944 40.6997 47.1021 40.2799C48.0225 39.7974 48.9053 39.2334 49.8131 38.7258C50.5019 38.2433 51.1718 39.3838 50.4768 39.86C49.5189 40.5117 48.5985 41.2261 47.5967 41.8089C46.8266 42.26 45.7121 42.9368 44.798 42.6047C44.366 42.448 44.1782 41.9217 44.5226 41.577ZM34.7365 58.3081C34.9243 57.224 35.9699 55.9269 36.7463 54.8553C38.3241 57.9258 40.7409 60.6015 43.8777 62.4939C43.1702 64.7623 42.3813 67.0057 41.5235 69.2177C40.2275 66.8678 38.7874 64.6245 37.1783 62.4563C36.3206 61.3033 34.4673 59.8558 34.7365 58.3081ZM38.5432 46.1138C40.2212 46.872 41.7677 47.7744 43.2703 48.7833C42.8634 49.1154 42.5378 49.5352 42.3374 50.0115C40.4842 49.0652 38.5307 48.3196 36.5272 47.7619C36.5084 47.6491 36.4896 47.5363 36.4708 47.4172C36.5084 47.4297 36.5397 47.4485 36.5773 47.4611C37.4789 47.8245 38.5119 47.2418 38.5495 46.2329C38.5495 46.189 38.5432 46.1514 38.5432 46.1138ZM46.7828 51.1582C46.0753 50.3937 45.2676 49.6981 44.4099 49.0527C45.0047 48.8083 45.6996 48.7519 46.332 48.9211C47.9724 49.3535 49.0305 50.6945 49.8507 52.0981C49.9634 52.2799 50.1387 52.3112 50.2952 52.2611C50.1199 52.4992 49.9759 52.7373 49.8695 52.9754C48.2792 54.7112 44.0091 54.0971 43.1075 51.9227C43.5521 52.0919 43.9966 52.2673 44.4474 52.4679C44.5476 52.5117 44.629 52.3864 44.5351 52.3175C44.0342 51.9603 43.5145 51.7034 42.9886 51.5028C42.9823 51.4778 42.9698 51.4527 42.9698 51.4276C42.926 51.1645 42.9385 50.9201 42.9823 50.6882C43.6585 51.0391 44.3285 51.4026 44.9859 51.7911C45.1048 51.86 45.205 51.6846 45.0923 51.6094C44.4349 51.177 43.7524 50.776 43.0575 50.4C43.2265 49.9237 43.5646 49.5478 43.9904 49.2783C44.9045 49.9112 45.8123 50.5692 46.7264 51.2459C46.7703 51.271 46.8204 51.1958 46.7828 51.1582ZM51.585 53.8715C53.6261 53.577 55.5045 54.5483 57.2701 55.4506C57.652 55.6449 58.0339 55.8517 58.4096 56.0584C58.3658 56.3968 58.1904 56.7289 57.8336 57.0485C56.0679 55.9519 54.1771 55.1561 52.1986 54.5232C52.1235 54.4981 52.0922 54.6109 52.1673 54.6423C53.9642 55.3316 55.8926 56.1462 57.5706 57.2553C57.5017 57.3054 57.4266 57.3556 57.3515 57.3994C56.9445 57.6438 56.4499 57.7879 55.9239 57.8443C55.0349 56.8355 53.8828 56.0271 52.6932 55.3692C52.5743 55.3065 52.4741 55.4757 52.5868 55.5509C53.6449 56.2339 54.6655 56.9733 55.4857 57.8694C52.7558 57.907 49.3436 55.8141 50.4267 53.2449C50.5332 53.107 50.6271 52.9629 50.7147 52.8062C52.2675 52.6934 53.8703 52.6308 55.3792 53.0632C56.525 53.389 58.1654 54.4731 58.4033 55.6323C57.627 55.2188 56.8381 54.8303 56.0366 54.4668C54.5903 53.8151 53.1252 53.295 51.5349 53.6585C51.3909 53.696 51.4535 53.8903 51.585 53.8715ZM50.1137 56.0208C49.5314 56.4282 48.6674 56.7039 48.1227 56.0835C47.7595 55.6762 47.7846 55.0997 47.4903 54.6673C48.2541 54.5921 48.9804 54.3665 49.5815 53.9843C49.5064 54.7237 49.7192 55.413 50.1137 56.0208ZM45.2488 74.6443C45.4429 74.6193 45.637 74.5879 45.8374 74.5629C42.2936 80.7226 38.7123 86.8699 35.012 92.9357C32.4637 97.1153 29.7965 101.22 27.2107 105.374C32.3573 94.5461 37.1345 83.5362 41.968 72.5639C42.256 72.4448 42.5127 72.2067 42.638 71.9059C43.7524 69.1049 44.7041 66.2725 45.5055 63.3775C45.6495 63.4464 45.7935 63.5216 45.9376 63.5905C46.4071 63.8036 46.8892 63.9916 47.3713 64.167C45.7622 67.1623 45.2238 70.9785 44.8794 74.2746C44.8481 74.4501 45.061 74.6631 45.2488 74.6443ZM30.9861 86.2934C32.0568 82.1764 33.1587 78.0845 34.0165 73.9237C34.6864 70.659 35.876 66.5044 35.4252 63.1018C37.2409 65.8903 38.9502 68.7415 40.5092 71.6866C36.308 82.6213 31.4495 93.2427 26.3467 103.77C27.9495 97.955 29.4647 92.1273 30.9861 86.2934ZM40.3589 93.9445C37.7418 97.2406 34.9744 100.411 32.0943 103.482C30.4915 105.193 28.776 106.803 27.0855 108.432C30.3913 103.852 33.4029 99.0579 36.402 94.2579C40.528 87.6469 44.485 80.942 48.1915 74.0804C49.3311 73.8109 50.4643 73.5101 51.6101 73.2971C52.4115 73.1467 53.2818 73.1028 54.1521 73.0464C50.0698 80.3592 45.5619 87.3775 40.3589 93.9445ZM58.203 67.0621C58.0715 67.8328 58.1278 69.1488 57.7209 69.813C56.9194 71.1415 55.7111 71.2166 54.3587 71.3984C52.3364 71.6741 50.2201 72.0877 48.2103 72.7143C47.8347 72.3383 47.1585 72.2569 46.8078 72.8584C46.7264 73.0025 46.6388 73.1467 46.5574 73.2971C46.3195 73.3911 46.0878 73.4788 45.8562 73.579C46.8016 70.6527 47.9787 67.5446 48.3981 64.5054C51.7102 65.508 55.2102 65.6334 58.5599 64.825C58.4284 65.5644 58.3282 66.3227 58.203 67.0621ZM61.4399 61.46C61.0956 61.6355 60.7387 61.7859 60.3881 61.9362C60.0562 61.7107 59.5992 61.7107 59.3738 62.1744C59.3487 62.2308 59.3237 62.2872 59.2987 62.3373C55.254 63.6845 50.8337 63.4214 46.8892 61.6793C41.0414 59.0976 37.5164 53.8715 36.5835 48.1128C38.537 48.6705 40.4153 49.4099 42.2373 50.2997C42.1496 50.5942 42.112 50.9013 42.1246 51.2209C40.8035 50.8699 39.426 50.7697 38.0361 50.4313C37.8483 50.3874 37.7105 50.6694 37.8983 50.7572C38.825 51.1645 39.8205 51.1269 40.8035 51.2835C41.2731 51.3587 41.7301 51.4715 42.1747 51.6031C42.5754 53.7149 44.9984 54.8052 47.2211 54.6861C46.9706 55.3754 47.3713 56.3843 47.9348 56.8041C48.7112 57.3869 49.7631 57.1363 50.5019 56.6224C50.5269 56.6036 50.5394 56.5848 50.552 56.566C51.8292 57.9634 54.127 58.8156 56.0742 58.5963C56.5563 59.2731 56.9257 60.0438 57.1135 60.9336C57.1636 61.1592 57.5017 61.0652 57.4579 60.8396C57.2826 59.9812 56.932 59.2167 56.4624 58.5399C56.9194 58.4522 57.3515 58.2955 57.7397 58.0699C57.9212 57.9634 58.084 57.8443 58.228 57.7128C59.3613 58.5587 60.3442 59.5613 61.0392 60.7958C61.1269 60.9462 61.3899 60.8459 61.3272 60.6767C60.8076 59.3044 59.6743 58.2767 58.4785 57.4558C58.7602 57.1363 58.9418 56.7791 59.0357 56.4031C59.762 56.8167 60.4757 57.2553 61.177 57.7128C62.2038 58.3833 63.1743 59.1101 64.1072 59.8684C63.2306 60.4699 62.3353 61.0088 61.4399 61.46ZM72.2465 48.2068C72.0399 48.1504 71.827 48.1253 71.7269 48.1065C71.4576 48.0501 71.1947 47.931 70.9254 47.8746C70.2931 47.7368 69.5918 47.7431 69.0471 48.1378C68.3208 48.6579 68.3146 49.5854 69.0471 50.1055C69.6357 50.519 70.5122 50.8574 71.2761 50.7822C71.1759 51.0329 71.0757 51.2835 70.9881 51.5342C70.9755 51.5216 70.9693 51.5091 70.963 51.5028C70.2493 50.8637 69.116 50.682 68.1831 50.7446C67.3316 50.8073 66.0543 51.1081 66.0168 52.1671C65.9855 53.1384 67.006 53.6334 67.7073 54.0846C68.108 54.3415 68.7153 54.7613 69.3038 54.9618C69.1536 55.1561 69.0096 55.3504 68.853 55.5383C68.6965 55.4569 68.54 55.3817 68.3709 55.3128C67.5445 54.9242 66.5364 54.5796 65.6975 54.6172C65.0839 54.6485 64.1322 54.9368 63.9005 55.5885C63.4936 56.7415 64.7646 58.0135 65.9354 58.4772C65.4783 58.8595 65.0025 59.2229 64.5266 59.5676C63.287 58.6214 61.9972 57.7504 60.7137 56.9545C60.1877 56.6287 59.643 56.3154 59.1046 56.0083C59.1672 55.1248 58.7602 54.2036 57.9463 53.5206C56.2245 52.0856 53.8891 51.8914 51.7102 51.9853C52.2362 51.7911 52.7308 51.5091 53.1065 51.083C53.551 50.5817 53.7576 49.7608 53.2317 49.2282C52.712 48.6955 51.8856 48.9462 51.3721 49.341C51.128 49.529 50.9339 49.7483 50.7648 49.9927C50.721 49.5415 50.6646 49.0966 50.5895 48.6517C50.5019 48.1692 50.3266 47.6115 49.713 47.7431C49.4876 47.7932 49.3373 47.8934 49.2371 48.0376C49.187 48.0689 49.137 48.1002 49.0869 48.1441C48.755 48.4198 48.6799 48.8585 48.7362 49.3535C47.7595 48.4574 46.5574 47.8747 45.1299 48.0062C44.6102 48.0564 44.1093 48.2256 43.6711 48.495C42.0494 47.3796 40.2588 46.4459 38.4869 45.6877C38.3554 45.2428 38.0737 44.8418 37.7919 44.4846C37.3912 43.9833 36.9905 43.5885 36.4082 43.3316C36.4583 42.7676 36.5272 42.2099 36.6211 41.6459C36.9028 41.9718 37.2785 42.2475 37.5665 42.4167C38.2991 42.8428 39.3384 43.3128 39.9895 42.517C40.6595 41.7023 40.0334 40.8376 39.4761 40.1859C38.9878 39.6157 38.3867 39.0642 37.7293 38.7008C37.6291 38.6444 37.5227 38.613 37.41 38.588C37.5665 38.1368 37.7293 37.6919 37.9234 37.2533C38.1551 37.6355 38.562 37.93 38.9502 38.1055C39.6389 38.4125 40.4341 38.3373 40.9537 37.7671C41.5235 37.1405 41.3795 36.2945 40.9162 35.6616C40.6407 35.2794 40.2776 34.8658 39.8518 34.5963C40.2713 34.001 40.7033 33.412 41.1791 32.8668C41.6049 32.3781 42.0745 31.9269 42.5441 31.4757C42.8947 32.7415 43.4143 33.9948 43.934 35.1666C43.3079 36.2381 42.5879 37.2658 42.1747 38.4439C41.7051 39.7786 41.8866 41.3765 42.5816 42.6673C42.9573 43.0684 43.3768 43.4318 43.8025 43.7577C45.3177 44.917 47.603 46.1013 49.569 45.719C50.4831 45.5373 51.2469 44.9608 51.8981 44.2277C52.0546 44.0585 52.2049 43.8767 52.3489 43.6888C52.7809 43.413 53.0877 42.918 53.1879 42.3979C53.2442 42.2976 53.3006 42.2036 53.3569 42.1034C53.4195 42.0031 53.4759 41.9029 53.5322 41.7963C53.9705 41.9906 54.4025 42.1786 54.847 42.3666C54.4902 43.0433 54.1896 43.7953 54.0018 44.5598C53.7701 45.1363 53.6136 45.7128 53.7138 46.283C53.7514 46.4898 53.814 46.6778 53.8891 46.8595C54.0268 47.6177 54.3649 48.3384 54.991 48.9462C55.9928 49.9237 57.4767 50.5065 58.7352 51.0705C58.7352 51.0705 58.7414 51.0705 58.7414 51.0767C61.2396 51.9728 64.1885 52.1357 65.7538 49.6543C66.3298 48.7394 66.5677 47.4924 67.1062 46.5086C67.1187 46.4585 67.1375 46.4083 67.15 46.3645C68.2457 46.7404 69.4353 46.7279 70.5936 46.847C71.2573 46.9159 71.9335 47.0099 72.6097 47.0976C72.4719 47.4736 72.3655 47.8433 72.2465 48.2068ZM73.1857 37.2846C73.073 37.4099 73.0041 37.5415 72.9728 37.6794C71.1446 38.0491 69.2788 37.6355 67.4756 37.1781C65.5096 36.683 63.5937 35.9687 61.778 35.0538C59.211 33.7629 56.8756 32.0773 54.822 30.0846C54.5152 29.5144 53.9141 29.0256 53.4571 28.6496C53.0626 28.3238 52.7245 28.048 52.424 27.6282C52.2299 27.3525 52.0859 27.0768 51.8355 26.8825C51.8543 26.8261 51.873 26.7697 51.9106 26.7071C52.1172 26.4 52.3301 26.1055 52.5304 25.7984C52.568 25.7483 52.6118 25.7045 52.6619 25.6669C52.9186 26.0115 53.263 26.3311 53.5197 26.6381C53.7639 26.9326 54.0206 27.2084 54.2898 27.4653C54.2898 27.4778 54.2961 27.4841 54.2961 27.4966C54.8408 28.0731 55.4606 28.5807 55.9615 28.9943C57.7772 30.5044 59.5679 32.1212 61.5401 33.4371C63.1304 34.5023 64.8647 35.2731 66.6679 35.8496C68.4774 36.5452 70.6312 36.9211 72.2904 37.0778C72.6097 37.1217 72.929 37.1655 73.2483 37.2031C73.2295 37.2345 73.2107 37.2595 73.1857 37.2846ZM74.1687 41.7086C74.0873 41.3702 74.0309 41.0256 73.9808 40.6809C74.2125 40.7185 74.4567 40.7373 74.6946 40.7624C75.0828 40.8125 75.471 40.8564 75.8654 40.894C75.3708 41.2762 74.8386 41.5958 74.2563 41.859C74.225 41.8151 74.2 41.7587 74.1687 41.7086ZM80.148 40.518C80.0603 40.5995 79.9476 40.6621 79.8349 40.7248C78.4325 42.0031 76.7983 42.9368 75.2143 43.9645C74.9576 43.5258 74.6946 43.0935 74.488 42.6235C74.5694 42.5734 74.6445 42.5232 74.7259 42.4794C74.7196 42.4731 74.7134 42.4668 74.7071 42.4606C75.6025 42.0595 76.4101 41.5457 77.1364 40.8752C77.4244 40.612 77.1677 40.2235 76.8484 40.1859C76.1785 40.1044 75.5023 40.048 74.8261 39.9979C74.5193 39.9728 74.1875 39.9227 73.8807 39.9415C73.8181 39.4778 73.7241 39.0266 73.5613 38.6005C74.8386 38.4439 76.1597 38.4313 77.4369 38.4627C78.301 38.4815 80.3296 38.3561 80.6363 39.4778C80.6489 39.5154 80.6489 39.5467 80.6551 39.5843C80.7428 39.7974 80.6176 40.1107 80.148 40.518Z" fill="#1D1D1B" />
    <path d="M47.4407 120.532C47.4344 119.505 47.6223 118.408 46.6643 117.832C45.2806 116.992 42.3004 117.406 40.7288 117.368C37.9927 117.299 35.2942 117.293 32.5707 117.6C31.2621 117.744 31.187 119.718 32.5707 119.699C35.7575 119.649 38.9131 119.304 42.0875 119.085C42.8388 119.035 43.6027 119.016 44.354 118.941C44.6858 118.897 45.0239 118.853 45.3557 118.803C46.0382 118.439 46.3074 118.546 46.1697 119.122C46.3012 119.486 46.0883 120.182 46.0445 120.539C45.8879 121.786 46.1759 121.917 45.0427 122.331C43.8531 122.763 41.956 122.588 40.6913 122.613C39.245 122.644 37.7861 122.663 36.3461 122.588C34.7683 122.506 31.9759 122.744 31.4875 121.027C31.1682 119.887 31.4562 118.439 31.2684 117.236C31.1932 116.754 30.4106 116.779 30.3167 117.236C30.0287 118.684 29.5841 120.927 30.1602 122.325C30.3668 122.82 30.7049 123.145 31.1244 123.371C31.1181 123.396 31.1118 123.415 31.1056 123.44C30.9741 126.467 31.0054 129.462 31.4061 132.463C31.4312 132.651 31.7066 132.664 31.7066 132.463C31.7818 129.518 31.7317 126.573 31.7567 123.628C32.3265 123.797 32.9526 123.86 33.5349 123.941C35.745 124.255 38.024 124.248 40.2467 124.06C41.9435 123.922 44.9488 124.173 46.5078 123.352C47.6223 122.763 47.4469 121.717 47.4407 120.532Z" fill="#1D1D1B" />
    <path d="M41.3732 138.573C41.2668 138.63 41.1541 138.68 41.0477 138.736C40.9037 138.811 41.0289 139.024 41.1729 138.956C41.2793 138.899 41.392 138.849 41.4984 138.793C41.6424 138.724 41.5172 138.504 41.3732 138.573Z" fill="#1D1D1B" />
    <path d="M45.6311 127.588C45.5559 127.206 44.9924 127.244 44.8985 127.588C44.191 130.126 44.5229 133.121 44.2787 135.741C44.2599 135.929 44.5604 135.96 44.6042 135.785C45.1928 133.278 46.1257 130.176 45.6311 127.588Z" fill="#1D1D1B" />
    <path d="M43.4837 136.392C40.2655 136.969 37.0849 138.241 33.9481 136.599C33.7728 136.505 33.635 136.749 33.7978 136.862C36.8532 138.918 40.5285 138.416 43.7592 137.038C44.1536 136.868 43.8531 136.323 43.4837 136.392Z" fill="#1D1D1B" />
    <path d="M13.6305 172.562C13.6117 172.518 13.5303 172.499 13.5178 172.562C13.1797 174.379 13.2548 176.259 12.9543 178.095C12.6913 179.693 12.2029 181.096 11.5768 182.588C11.3264 183.183 12.2468 183.484 12.5661 183.008C13.4489 181.692 13.6367 180.075 13.7807 178.527C13.9748 176.597 14.363 174.398 13.6305 172.562Z" fill="#1D1D1B" />
    <path d="M91.2491 59.6176C84.4872 57.5685 78.5141 62.3811 75.7968 68.2401C72.6851 74.945 73.2736 83.016 70.957 89.9465C70.8067 90.1659 70.7128 90.4103 70.7066 90.6546C70.5187 91.1685 70.3121 91.676 70.0867 92.1711C69.9991 92.2964 69.9302 92.4468 69.8801 92.6035C69.4669 93.4557 68.9973 94.2828 68.4463 95.0787C67.695 85.0588 66.6619 74.4437 61.8785 65.4829C61.7407 65.226 61.3463 65.4014 61.4152 65.6771C63.3185 73.297 64.8775 80.8667 65.8355 88.6056C65.7541 88.6181 65.6727 88.6369 65.585 88.6557L63.9634 88.9878C63.5564 89.0693 63.6754 89.6646 64.0573 89.6834C64.5833 89.7147 65.1092 89.7398 65.6351 89.7711C65.7478 89.7774 65.8668 89.7836 65.9795 89.7899C66.0045 89.9841 66.017 90.1784 66.0421 90.3789C65.6789 90.2473 65.2219 90.2411 64.8901 90.1909C64.721 90.1659 64.5519 90.3664 64.7085 90.5105C64.8713 90.6546 65.0278 90.805 65.1906 90.9492C65.2657 91.0181 65.3408 91.087 65.4097 91.1497C65.4035 91.1685 65.3909 91.1873 65.3847 91.2186C65.3283 91.3189 65.2657 91.4191 65.2031 91.5131C65.0654 91.7199 64.9339 91.8891 64.7335 92.0395C64.4518 92.2526 64.2452 92.6599 64.4831 92.992C64.9401 93.6374 65.6539 93.863 66.3551 93.5309C66.4115 94.1763 66.4678 94.8217 66.5179 95.4734C66.8685 100.248 67.1879 105.023 67.4884 109.804C67.6261 112.004 67.7138 114.222 67.5635 116.428C67.3569 119.442 66.3739 121.855 64.9902 124.505C64.84 124.793 64.9464 125.069 65.1405 125.232C62.0162 126.31 58.2095 126.442 56.3061 123.954C56.2435 123.766 56.1371 123.59 55.9868 123.471C55.6174 122.845 55.3419 122.08 55.2042 121.165C54.6094 117.186 55.2856 112.643 55.4358 108.633C55.4609 108.044 54.5718 108.056 54.528 108.633C54.2901 111.866 53.977 115.1 53.7454 118.333C53.6139 120.156 53.6139 121.98 54.3527 123.603C53.6264 123.922 52.9502 124.449 52.3867 124.956C52.1926 125.132 51.986 125.32 51.7919 125.514C51.8921 124.399 52.011 123.283 52.1425 122.174C52.3304 121.272 52.5182 120.369 52.6935 119.467C53.2445 116.641 53.8455 113.815 54.2337 110.964C54.3464 110.149 54.6595 107.179 54.5342 104.466C54.5405 104.422 54.5405 104.372 54.5468 104.328C54.3026 102.579 54.096 100.825 53.8581 99.0766C53.5575 97.7042 53.2445 96.3382 52.9878 94.9659H52.9815C52.9815 94.9533 52.9815 94.9408 52.9815 94.9283C52.8563 94.2828 52.7498 93.6374 52.6559 92.9857C52.6622 93.9758 52.681 94.9596 52.6935 95.9497C51.8044 95.0348 51.1095 94.0322 50.8653 92.7163C50.8402 92.5847 50.6399 92.616 50.6336 92.7476C50.6086 94.3518 51.0531 95.9998 52.2552 97.1403C52.3992 97.2719 52.5558 97.3157 52.706 97.2969C52.7248 99.4776 52.6998 101.652 52.5245 103.82C52.5245 103.977 52.5244 104.09 52.5182 104.14C52.3992 105.813 52.2051 107.486 51.9797 109.147C51.579 112.067 51.0594 114.974 50.6148 117.888C49.7195 123.797 49.2687 129.713 49.3626 135.691C49.4565 141.775 50.0012 147.835 50.7087 153.875C51.291 158.801 51.8483 163.714 52.8125 168.564C52.7561 168.551 52.6935 168.545 52.6309 168.557C49.1184 169.084 45.7437 168.933 42.2438 168.376C41.9057 168.319 41.5676 168.282 41.2358 168.25C41.2295 168.188 41.2232 168.125 41.1982 168.05C40.234 165.111 40.9352 161.251 40.9478 158.174C40.9665 155.129 40.9728 152.083 40.9665 149.038C40.9665 148.775 40.5658 148.775 40.5596 149.038C40.497 152.083 40.4406 155.129 40.403 158.174C40.3592 161.22 40.9603 165.18 39.9585 168.05C39.9397 168.094 39.9397 168.138 39.9272 168.175C38.2555 168.131 36.6214 168.275 34.8683 168.313C33.7914 168.338 32.7145 168.294 31.6376 168.213C31.6501 168.169 31.6689 168.131 31.6689 168.075C31.7503 164.44 31.4873 160.781 31.2494 157.153C31.2368 156.958 30.9488 156.958 30.9488 157.153C30.9551 160.8 30.7485 164.434 30.7047 168.075C30.7047 168.1 30.7109 168.112 30.7172 168.131C26.5911 167.749 22.4526 166.928 18.3516 167.267C17.569 159.114 20.593 151.187 20.2424 142.972C20.0546 138.492 19.7415 134.049 19.9982 129.562C20.2737 124.781 21.1127 119.993 22.0581 115.306C22.102 115.093 21.8202 115.024 21.7388 115.219C18.0886 124.436 18.4643 133.71 18.8963 143.423C19.1217 148.474 18.89 153.186 18.0072 158.155C17.3436 161.865 16.9053 165.85 18.2514 169.441C17.475 169.635 17.3623 171.102 18.2827 171.233C20.687 171.584 23.0975 171.866 25.508 172.073C25.0134 175.657 26.2343 179.749 28.3129 182.663C28.5884 183.045 29.1582 182.719 28.9516 182.293C27.2861 178.872 26.4847 175.776 25.7835 172.098C29.3272 172.386 32.8772 172.499 36.4398 172.424C36.4335 172.524 36.446 172.624 36.4711 172.724C36.6464 173.332 37.1285 173.733 37.692 173.978C38.0551 174.134 38.3807 174.272 38.7877 174.285C38.9505 174.291 39.1007 174.266 39.2385 174.228C39.2385 174.297 39.2322 174.366 39.2322 174.429C39.0757 174.379 38.9192 174.341 38.7501 174.329C38.1991 174.285 37.6607 174.335 37.1035 174.347C36.8029 174.354 36.5212 174.36 36.2269 174.454C36.0078 174.517 35.8137 174.629 35.6509 174.792C35.3942 175.143 35.3817 175.143 35.6133 174.799C35.3378 174.861 35.0999 175.225 35.2126 175.5C35.3378 175.808 35.3065 176.14 35.4944 176.44C35.726 176.804 36.0516 177.042 36.421 177.255C37.1285 177.669 37.9174 177.9 38.7439 177.857C38.8315 177.85 38.9192 177.838 39.0068 177.819C38.8002 179.248 38.4308 180.639 38.1052 182.049C36.7591 181.88 35.3378 181.992 34.3361 182.187C33.8978 182.274 34.0168 182.926 34.4362 182.939C35.7511 182.97 37.1661 182.92 38.412 183.402C39.5641 183.853 40.1714 184.605 40.7286 185.608C40.6973 185.639 40.666 185.677 40.641 185.721C39.9773 186.955 39.6141 187.927 38.0551 188.34C37.9237 188.378 37.7922 188.403 37.6544 188.422C37.141 188.422 36.6214 188.409 36.1079 188.403C35.6196 188.34 35.1437 188.234 34.6992 188.121C32.8522 187.651 28.8201 186.291 29.0267 183.816C29.0392 183.659 28.795 183.634 28.7575 183.778C28.5634 184.486 28.6135 185.132 28.8326 185.708C28.7575 185.646 28.6698 185.583 28.5634 185.539C25.22 184.104 21.0626 184.28 17.5001 184.474C17.2371 184.486 12.9045 184.674 11.9716 185.476C11.9653 185.257 11.9528 185.038 11.9152 184.806C11.8651 184.48 11.3455 184.562 11.3455 184.881C11.3642 188.177 8.15232 190.684 4.91535 189.938C2.5111 189.387 1.78482 187.175 0.25086 185.564C0.269644 185.483 0.294686 185.401 0.325992 185.32C0.501302 185.382 0.720439 185.345 0.820616 185.169C1.97265 183.183 4.07637 183.114 6.14252 183.239C6.52444 183.264 6.62462 182.625 6.23643 182.556C4.12645 182.187 0.707916 181.986 0.156943 184.643C0.0317221 184.612 -0.106019 184.656 -0.181152 184.8C-0.268806 184.975 -0.337681 185.151 -0.368986 185.339C-0.575601 185.426 -0.732126 185.646 -0.700821 185.903C-2.42887 185.514 -4.43241 185.877 -6.07281 186.166C-7.80086 186.466 -10.3429 187.294 -9.62283 189.631C-9.05308 191.48 -6.32325 192.119 -4.67659 192.426C-3.48699 192.651 -1.94051 192.858 -0.556817 192.67C8.00831 193.673 16.7926 193.616 25.4015 193.629C29.6841 193.635 33.9729 193.566 38.2555 193.447C40.547 193.384 42.8449 193.303 45.1364 193.209C46.5201 193.153 48.2043 193.215 49.4315 192.445C51.4037 191.21 51.3286 188.459 49.5004 187.156C47.3153 185.595 44.2661 185.877 41.7742 186.736C41.7679 186.523 41.7304 186.297 41.6678 186.053C41.8368 185.953 41.962 185.777 41.9683 185.558C42.0309 183.521 40.5909 182.556 38.8566 182.174C40.2403 179.511 40.9227 176.027 40.4531 173.05C40.5032 172.787 40.4782 172.505 40.3905 172.261C40.9164 172.255 41.4361 172.261 41.9495 172.305C43.5273 172.449 44.9486 173.194 46.5076 173.42C49.2499 173.821 51.8983 172.844 54.4028 171.828C54.841 171.653 55.1165 171.271 54.9976 170.782C53.3947 164.146 53.0379 157.015 52.3992 150.222C51.7606 143.417 51.2597 136.599 51.4914 129.756C51.5102 129.23 51.5352 128.71 51.5665 128.19C52.2803 127.707 52.9001 127.056 53.6139 126.567C54.2212 126.153 54.96 125.821 55.5736 125.389C55.7927 125.621 56.0244 125.834 56.2623 126.028C53.8017 126.949 52.5996 132.47 55.5423 132.958C55.367 133.754 55.4922 134.575 56.1246 135.29C57.3643 136.687 59.3741 136.11 60.5073 134.895C61.0645 135.622 61.8847 136.167 62.7801 136.154C63.9697 136.136 65.0278 135.07 64.9151 133.936C66.0859 134.957 68.3962 134.456 69.0223 132.952C69.9114 130.822 68.6592 127.394 66.6056 126.235C66.8498 126.091 67.0877 125.934 67.3193 125.771C68.0331 125.257 67.432 124.211 66.6306 124.593C66.4491 124.681 66.2675 124.762 66.0796 124.837C67.0877 122.87 67.7576 120.639 68.2084 118.358C68.2522 118.345 68.3023 118.327 68.3461 118.302C75.6215 114.404 80.3987 107.003 84.9693 100.361C89.8779 93.2301 94.3108 85.5915 96.4708 77.1319C98.0737 70.991 98.9064 61.9361 91.2491 59.6176ZM52.9815 169.366C53.0566 169.742 53.1318 170.111 53.2194 170.487C50.3456 171.553 47.9476 171.985 44.8547 170.907C42.3127 170.024 39.7394 170.299 37.0972 170.375C30.9363 170.55 24.7629 170.224 18.6459 169.435C18.5519 168.915 18.4705 168.401 18.4142 167.881C20.975 168.532 23.7424 168.595 26.3595 168.821C29.3147 169.077 32.32 169.46 35.294 169.341C36.6902 169.284 38.0739 169.009 39.4764 169.052C40.954 169.096 42.4066 169.479 43.8654 169.667C46.8707 170.055 49.8885 169.905 52.8751 169.416C52.9126 169.403 52.9439 169.385 52.9815 169.366ZM67.3694 130.465C67.5197 131.003 67.7263 132.037 67.3444 132.532C67.0439 132.921 65.7353 133.071 65.4222 132.564C65.0967 132.037 64.2577 132.338 64.3516 132.94C63.9822 132.808 63.5314 133.021 63.3811 133.428C63.2434 133.798 62.9867 134.35 62.5296 134.312C61.9912 134.274 61.4089 133.604 61.2273 133.134C60.9581 132.438 60.0565 132.532 59.8749 133.103C59.6808 133.121 59.4742 133.197 59.2801 133.36C58.798 133.761 57.9716 134.506 57.4206 133.823C56.8696 133.14 57.1326 132.181 57.4269 131.461C57.6084 131.016 56.926 130.646 56.6254 130.991C56.494 131.141 56.3687 131.304 56.2498 131.473C55.5235 131.022 55.7301 129.512 55.8804 128.823C56.0807 127.92 56.6004 127.306 57.1889 126.636C59.5932 128.052 62.6486 128.014 65.272 126.924C65.2845 126.974 65.297 127.018 65.3221 127.068C65.9231 128.29 66.9812 129.105 67.3694 130.465ZM95.3251 70.1701C94.7303 70.0448 94.1668 70.1638 93.5532 70.2453C93.2401 70.2891 92.9709 70.4834 92.9709 70.828C92.9709 71.1163 93.2401 71.4484 93.5532 71.4108C94.1355 71.3419 94.7052 71.3168 95.2437 71.11C95.1873 71.6176 95.1122 72.1252 95.0183 72.6265C94.6238 72.7142 94.2419 72.827 93.8412 72.9523C93.0711 73.1967 93.3841 74.3622 94.173 74.1617C94.3671 74.1116 94.5487 74.0615 94.7365 74.0113C94.5174 74.9951 94.2607 75.9539 94.0165 76.8688C92.0004 84.2881 88.2438 91.1121 84.0364 97.4974C79.6474 104.152 74.9954 111.822 68.5277 116.71C68.7844 115.031 68.9347 113.351 69.0223 111.753C69.279 107.179 68.9973 102.548 68.6655 97.9674C68.6717 97.9612 68.6717 97.9612 68.678 97.9549C69.4043 97.1152 70.0179 96.2317 70.5688 95.3168C71.6269 96.9084 73.5804 98.193 74.8451 99.3147C75.634 100.01 77.2118 100.098 77.719 98.945C78.6268 96.8771 77.7565 95.1664 76.592 93.3867C75.6591 91.9706 74.6072 90.1972 73.0106 89.5455C73.236 88.7622 73.4239 87.9664 73.5992 87.1643C74.1564 87.6969 74.8952 88.1042 75.4963 88.38C76.8236 88.9941 78.2136 89.251 79.6599 89.3888C81.1187 89.5267 81.8325 87.7596 81.2377 86.6379C80.5427 85.3283 79.5535 84.2943 78.3889 83.392C77.3558 82.5962 75.897 81.299 74.5133 81.7502C74.651 80.7476 74.7825 79.7513 74.9203 78.7549C74.9704 78.3915 75.0204 78.0218 75.0768 77.6458C77.575 79.2688 85.0507 82.0134 84.8691 77.3199C84.794 75.4714 83.0972 74.0427 81.6446 73.1528C80.286 72.3257 78.1885 71.2917 76.4605 71.3607C78.007 66.3602 80.8307 61.767 86.3279 60.9649C89.9405 60.4385 93.6596 62.0928 94.8555 65.721C95.0871 66.4228 95.2311 67.156 95.3 67.8954C94.6426 67.8515 93.9226 67.9706 93.334 67.9894C92.8144 68.0082 92.8144 68.779 93.334 68.7978C93.9414 68.8228 94.6864 68.9419 95.3564 68.8917C95.3626 69.3241 95.3501 69.744 95.3251 70.1701Z" fill="#1D1D1B" />
    <path d="M15.2957 170.588C11.2198 171.171 7.27532 171.509 3.19937 171.572C3.36841 171.139 3.18684 170.575 2.66718 170.456C1.50888 170.193 0.369369 170.488 -0.795189 170.619C-1.97227 170.744 -3.14935 170.838 -4.33269 170.889C-5.11532 170.92 -7.338 171.29 -7.7387 170.406C-7.90149 170.043 -7.76375 169.328 -7.78253 168.902C-7.7888 168.771 -7.80132 168.645 -7.81384 168.514C-7.69488 168.451 -7.60096 168.338 -7.57592 168.175C-7.338 166.803 -7.63853 165.474 -7.66357 164.102C-7.68236 162.799 -7.57592 161.489 -7.53835 160.186C-7.4507 157.391 -7.38183 154.602 -7.24408 151.808C-6.9686 146.13 -6.43015 140.466 -5.69134 134.826C-4.60192 126.517 -3.02413 118.295 -1.47138 110.062C-1.79696 109.968 -2.09123 109.836 -2.36045 109.686C-4.10729 117.963 -5.61621 126.298 -6.83711 134.669C-7.63853 140.171 -8.3022 145.698 -8.70291 151.244C-8.90326 154.026 -9.03475 156.827 -9.02222 159.622C-9.01596 161.113 -8.87822 162.605 -8.84691 164.096C-8.82187 165.199 -8.95961 166.289 -8.82813 167.373C-9.01596 168.52 -9.30397 170.124 -8.89074 171.214C-8.50255 172.236 -7.38809 172.242 -6.44267 172.374C-4.93375 172.58 -3.41231 172.718 -1.89087 172.712C-1.43382 172.712 -0.945455 172.718 -0.45083 172.706C-0.557269 173.959 -0.432048 175.394 -0.0939503 176.804C-0.457092 177.318 -0.319349 178.114 0.250407 178.527C0.319279 178.577 0.400672 178.627 0.482066 178.665C0.982951 179.975 1.67167 181.172 2.51691 182.061C2.71726 182.274 3.14928 182.055 3.03658 181.761C2.66718 180.808 2.17881 179.912 1.74054 178.997C1.93463 179.016 2.1162 179.016 2.29151 179.01C3.13049 178.972 3.90687 178.797 4.53923 178.226C5.43456 177.424 4.77089 175.582 3.4999 175.72C2.92388 175.783 2.4543 176.008 1.89707 176.14C1.50888 176.234 1.13322 176.246 0.745031 176.321C0.644855 175.945 0.557199 175.563 0.475806 175.181C0.73251 175.35 1.01426 175.482 1.30853 175.582C2.38543 175.945 3.57503 175.695 4.21992 174.717C4.77715 173.871 4.18861 172.819 3.33085 172.53C2.66718 172.305 2.09116 172.562 1.45253 172.643C1.45879 172.637 1.34609 172.643 1.30227 172.643C1.12696 172.643 0.957906 172.668 0.782597 172.693C0.995473 172.668 0.5572 172.712 0.457024 172.737C0.319281 172.775 0.187798 172.837 0.0625763 172.906C0.0437927 172.913 0.031271 172.931 0.0187492 172.938C-3.43323e-05 172.85 -0.0188179 172.768 -0.0376005 172.681C0.763815 172.643 1.55897 172.537 2.27273 172.255C2.30403 172.261 2.32908 172.267 2.36038 172.28C2.44178 172.33 2.52943 172.236 2.50439 172.161C2.51065 172.161 2.51691 172.154 2.51691 172.154C2.78614 172.374 2.98649 172.537 2.52317 172.148C2.55448 172.129 2.59204 172.117 2.62335 172.098C2.77361 172.104 2.95518 172.092 3.21815 172.142C4.55801 172.392 6.2172 172.179 7.58211 172.117C10.218 171.998 12.879 171.741 15.4648 171.202C15.878 171.12 15.6964 170.531 15.2957 170.588Z" fill="#1D1D1B" />
    <path d="M16.7554 167.292C15.2715 167.536 13.7814 167.687 12.2913 167.787C12.4228 164.735 12.2913 161.99 11.9344 158.964C11.9093 158.744 11.5712 158.738 11.59 158.964C11.8092 161.84 11.8405 164.904 11.7153 167.787C11.7153 167.799 11.7215 167.806 11.7215 167.818C9.51136 167.95 7.30121 167.981 5.08479 168.063C5.15992 167.975 5.22253 167.868 5.25384 167.73C5.59193 166.277 5.16618 165.243 4.87191 163.82C4.48999 161.997 4.40859 160.148 4.40233 158.3C4.38355 154.928 4.31468 151.57 4.45868 148.198C4.47121 147.879 3.98911 147.885 3.97032 148.198C3.71988 151.551 3.4757 154.935 3.56961 158.3C3.61344 159.916 3.63222 161.514 3.54457 163.131C3.45065 164.779 3.03116 166.183 3.67605 167.73C3.73866 167.887 3.85136 168.012 3.98284 168.113C2.94977 168.163 1.91043 168.225 0.877356 168.326C0.839789 168.169 0.727089 168.037 0.539258 168.05C-1.83995 168.2 -4.3068 168.1 -6.66096 167.705C-7.26202 167.605 -7.53125 168.514 -6.91767 168.639C-4.40072 169.134 -2.02152 169.19 0.514213 168.777C0.55804 168.833 0.620653 168.871 0.714569 168.877C3.68231 169.021 6.66258 168.927 9.63032 168.846C12.0784 168.777 14.6705 168.852 17.081 168.401C17.7885 168.257 17.4754 167.173 16.7554 167.292Z" fill="#1D1D1B" />
    <path d="M87.135 177.612C87.1287 177.431 86.847 177.424 86.847 177.612C86.872 180.664 85.745 182.613 83.8479 184.887C83.2531 185.602 82.7648 186.304 82.3828 187.062C79.8972 186.341 75.6334 183.452 73.0351 184.862C72.9787 184.474 72.866 184.092 72.697 183.747C72.0959 182.538 70.7874 181.911 69.4663 182.111C68.1953 182.306 67.2186 183.208 66.9806 184.474C66.8742 185.05 66.9118 185.683 67.1184 186.235C67.3187 186.755 67.6381 186.98 68.0075 187.25C67.0746 187.638 66.0916 188.227 65.3903 188.954C65.3528 188.936 65.3215 188.917 65.2839 188.904C65.2839 188.898 65.2839 188.892 65.2902 188.892C65.2463 188.885 65.2025 188.879 65.1587 188.879C65.1462 188.879 65.1336 188.873 65.1211 188.873L64.4324 188.785C64.3197 188.773 64.2007 188.741 64.088 188.741C63.8877 188.741 63.7625 188.835 63.6122 188.954C63.4369 189.092 63.3993 189.437 63.5245 189.625C63.7249 189.913 63.944 189.957 64.2696 190.013C64.47 190.045 64.6703 190.082 64.8769 190.114C64.9583 190.132 65.0397 190.145 65.1274 190.151C65.1587 190.157 65.1962 190.151 65.2275 190.145C65.2589 190.327 65.3903 190.49 65.647 190.502C68.452 190.646 71.2569 190.552 74.0619 190.433C76.5663 190.327 79.2711 190.458 81.6941 189.775C81.763 189.756 81.8131 189.719 81.8569 189.669C82.1387 189.882 82.602 189.85 82.6834 189.412C83.2093 186.711 84.9186 185.144 86.1082 182.813C86.9409 181.184 87.2227 179.423 87.135 177.612ZM74.0619 189.073C71.2883 189.199 68.5146 189.299 65.7535 189.593C65.7597 189.568 65.7597 189.543 65.7597 189.518C65.7597 189.512 65.7597 189.512 65.7597 189.506C66.774 189.13 67.7821 188.409 68.5271 187.663C68.5397 187.651 68.5522 187.632 68.5647 187.613C68.859 187.638 69.0906 187.225 68.765 187.024C68.2704 186.717 68.0889 185.539 68.1452 185.019C68.2266 184.236 68.7463 183.603 69.5164 183.402C70.2677 183.214 71.2006 183.459 71.6514 184.123C72.1773 184.906 71.9394 185.796 71.57 186.579V186.586C71.5512 186.636 71.5262 186.673 71.5074 186.724C71.3884 187.018 71.5575 187.219 71.7954 187.287C71.9707 187.394 72.1899 187.4 72.3839 187.206C72.5154 187.068 72.6219 186.924 72.7158 186.767C75.1075 184.336 78.9768 188.121 81.8319 188.509C81.7881 188.666 81.7505 188.823 81.7129 188.986C81.7129 188.986 81.7129 188.986 81.7067 188.986C79.2022 188.566 76.5726 188.961 74.0619 189.073Z" fill="#1D1D1B" />
    <path d="M69.8171 187.751C69.6982 187.644 69.6042 187.607 69.4477 187.588C69.1534 187.55 68.8529 187.707 68.8529 188.039C68.8529 188.371 69.1534 188.534 69.4477 188.49C69.598 188.472 69.6982 188.428 69.8171 188.327C69.9736 188.19 69.9736 187.889 69.8171 187.751Z" fill="#1D1D1B" />
    <path d="M8.37754 86.1804C8.67181 85.654 8.90972 85.0901 9.16643 84.5449C9.32295 84.2065 8.84085 83.912 8.65928 84.2504C8.37753 84.783 8.077 85.3094 7.83282 85.8608C7.76395 86.0049 7.81404 86.1428 7.90169 86.2368C7.85161 86.2619 7.80152 86.3057 7.76395 86.3621C4.18262 92.2399 1.06461 98.6065 -0.582045 105.324C-0.61335 105.443 -0.600828 105.543 -0.569522 105.631C-0.945186 107.279 -1.22067 108.952 -1.3772 110.619C-1.4085 110.932 -0.882575 111.008 -0.826226 110.694C-0.519434 109.077 -0.20638 107.473 0.137978 105.875C0.238155 105.819 0.325811 105.731 0.375899 105.587C2.60484 99.0827 4.97778 92.7162 8.35249 86.7068C8.44641 86.5438 8.39006 86.3872 8.27736 86.2932C8.31492 86.2681 8.35249 86.2305 8.37754 86.1804Z" fill="#1D1D1B" />
    <path d="M32.5765 56.4907C29.878 55.3063 26.2653 55.5883 23.4103 55.958C20.1671 56.3779 17.0616 57.2301 14.05 58.5022C8.37749 60.8896 2.47331 64.6055 -1.17689 69.6875C-1.62768 70.3204 -0.644698 71.041 -0.118768 70.5021C2.07886 68.2713 4.15128 66.0907 6.73709 64.2797C9.26656 62.5063 12.0089 61.0212 14.9078 59.9622C17.6501 58.9533 20.549 58.2327 23.4416 57.8066C25.0319 57.5747 26.641 57.3993 28.2438 57.3304C29.6714 57.2677 31.0989 57.3617 32.5076 57.0734C32.7518 57.0108 32.8207 56.5972 32.5765 56.4907Z" fill="#1D1D1B" />
</svg>