<svg width="55" height="57" viewBox="0 0 55 57" fill="none" xmlns="http://www.w3.org/2000/svg">
    <path d="M28.5 2.8961C28.5 1.29663 27.2 -0.0152426 25.6088 0.147013C21.3534 0.580937 17.237 1.96881 13.5721 4.22226C9.08232 6.98295 5.446 10.9346 3.06737 15.638C0.68873 20.3414 -0.339048 25.6123 0.0982736 30.8647C0.535595 36.1172 2.42088 41.1455 5.54459 45.3908C8.66829 49.6361 12.908 52.932 17.7926 54.9121C22.6771 56.8923 28.0151 57.4792 33.2132 56.6076C38.4112 55.736 43.2658 53.44 47.2372 49.9748C50.479 47.1463 53.0287 43.6292 54.709 39.6955C55.3373 38.2247 54.4716 36.5933 52.9445 36.1174C51.4175 35.6415 49.8104 36.5043 49.1442 37.9585C47.8077 40.8754 45.8633 43.4865 43.4292 45.6104C40.2649 48.3713 36.3969 50.2007 32.2553 50.8951C28.1136 51.5896 23.8605 51.122 19.9687 49.5443C16.0769 47.9665 12.6988 45.3405 10.2099 41.958C7.72108 38.5755 6.21895 34.5691 5.8705 30.3841C5.52206 26.1991 6.34096 21.9995 8.23617 18.252C10.1314 14.5045 13.0287 11.356 16.606 9.15635C19.3579 7.4643 22.4292 6.38475 25.6117 5.97663C27.1982 5.77318 28.5 4.49557 28.5 2.8961Z" fill="#39B100" />
</svg>