<?xml version="1.0" encoding="utf-8"?>
<svg xmlns="http://www.w3.org/2000/svg" xmlns:xlink="http://www.w3.org/1999/xlink">
    <symbol viewBox="0 0 12 7" id="arrow-down" xmlns="http://www.w3.org/2000/svg">
        <path d="M11 1L6 6 1 1" />
    </symbol>
    <symbol viewBox="0 0 10 19" id="arrow-left" xmlns="http://www.w3.org/2000/svg">
        <path d="M9 18L1 9.5 9 1" />
    </symbol>
    <symbol viewBox="0 0 10 19" id="arrow-right" xmlns="http://www.w3.org/2000/svg">
        <path d="M1 1l8 8.5L1 18" />
    </symbol>
    <symbol viewBox="0 0 18 19" id="checkboxs" xmlns="http://www.w3.org/2000/svg">
        <path d="M15.05.233c-1.029.561-1.721 1.792-2.407 2.723a75.35 75.35 0 00-1.848 2.634c-1.255 1.865-2.46 3.767-3.677 5.656-.62.96-1.24 1.92-1.856 2.881-.403-.625-.809-1.252-1.182-1.895-.532-.915-.955-1.888-1.469-2.81-.697-1.253-2.57-.65-2.608.71-.04 1.359.402 2.613.919 3.847.491 1.174 1.047 2.335 1.74 3.405.851 1.313 2.332 2.067 3.835 1.321 1.182-.588 1.839-1.831 2.534-2.903 1.442-2.225 2.875-4.457 4.33-6.672.697-1.06 1.405-2.113 2.141-3.145.78-1.093 2.01-2.266 2.41-3.54C18.44.751 16.485-.55 15.05.232z" />
    </symbol>
    <symbol viewBox="0 0 17 14" id="email" xmlns="http://www.w3.org/2000/svg">
        <rect x=".5" y=".5" width="16" height="13" rx="1.5" />
        <path d="M3.5 4.5l3.457 2.074a3 3 0 003.087 0L13.5 4.5" />
    </symbol>
    <symbol viewBox="0 0 20 12" id="eye-pass" xmlns="http://www.w3.org/2000/svg">
        <path d="M19 8.714C19 4.454 14.97 1 10 1S1 4.454 1 8.714" />
        <circle cx="10" cy="8.286" r="2.5" />
    </symbol>
    <symbol viewBox="0 0 9 15" id="fb" xmlns="http://www.w3.org/2000/svg">
        <path d="M5.577 14.867V8.652h2.102l.526-2.589H5.577V5.03c0-1.036.526-1.554 1.576-1.554h1.052V.886H6.102C4.171.886 2.95 2.378 2.95 4.511v1.553H.847v2.59h2.102v6.213h2.628z" />
    </symbol>
    <symbol viewBox="0 0 15 15" id="insta" xmlns="http://www.w3.org/2000/svg">
        <path d="M7.509 3.94a3.547 3.547 0 00-3.54 3.54 3.53 3.53 0 003.54 3.54 3.547 3.547 0 003.54-3.54c0-1.936-1.604-3.54-3.54-3.54zm0 5.809A2.278 2.278 0 015.24 7.48a2.278 2.278 0 012.27-2.268A2.278 2.278 0 019.777 7.48a2.278 2.278 0 01-2.268 2.27zM11.19 4.66a.802.802 0 100-1.605.802.802 0 000 1.604z" />
        <path d="M13.261 1.783C12.543 1.036 11.52.649 10.357.649H4.66C2.253.649.649 2.253.649 4.659v5.67c0 1.19.387 2.213 1.162 2.96.746.72 1.742 1.079 2.876 1.079h5.643c1.189 0 2.185-.387 2.904-1.079.747-.719 1.134-1.742 1.134-2.932V4.66c0-1.162-.387-2.158-1.107-2.877zm-.11 8.574c0 .858-.304 1.55-.802 2.02-.498.47-1.19.719-2.02.719H4.688c-.83 0-1.521-.25-2.019-.72-.498-.497-.747-1.189-.747-2.046V4.66c0-.83.25-1.522.747-2.02.47-.47 1.19-.719 2.02-.719h5.697c.83 0 1.521.25 2.02.747.47.498.746 1.19.746 1.992v5.697z" />
    </symbol>
    <symbol viewBox="0 0 14 18" id="notification" xmlns="http://www.w3.org/2000/svg">
        <path d="M3.4 8.16V4.6A3.6 3.6 0 017 1a3.6 3.6 0 013.6 3.6v3.56" />
        <path d="M10.6 8.16l2.16 2.863a1.192 1.192 0 01-.952 1.909H2.192A1.192 1.192 0 011 11.74c0-.259.084-.51.24-.717L3.4 8.159M5.081 15a.08.08 0 00-.081.08c0 1.098.895 1.988 2 1.988s2-.89 2-1.988a.08.08 0 00-.081-.08H5.08z" />
    </symbol>
    <symbol viewBox="0 0 13 18" id="pass" xmlns="http://www.w3.org/2000/svg">
        <rect x=".5" y="6.5" width="12" height="11" rx="1.5" />
        <circle cx="6.5" cy="12.5" r="1" />
        <path d="M10 7c0-3.314 0-6-3.5-6S3 3.686 3 7" />
    </symbol>
    <symbol viewBox="0 0 14 14" id="play-ico" xmlns="http://www.w3.org/2000/svg">
        <path d="M11.916 5.842a1 1 0 010 1.732l-7.062 4.078a1 1 0 01-1.5-.866V2.63a1 1 0 011.5-.866l7.062 4.077z" />
    </symbol>
    <symbol viewBox="0 0 23 18" id="upload-photo" xmlns="http://www.w3.org/2000/svg">
        <path d="M9 3.22a.5.5 0 00-.5-.5H3a3 3 0 00-3 3V15a3 3 0 003 3h16.333a3 3 0 003-3V5.72a3 3 0 00-3-3H18.5a.5.5 0 000 1h.833a2 2 0 012 2V15a2 2 0 01-2 2H3a2 2 0 01-2-2V5.72a2 2 0 012-2h5.5a.5.5 0 00.5-.5z" />
        <path d="M10 1h7a1 1 0 011 1v1a.5.5 0 001 0V2a2 2 0 00-2-2h-7a2 2 0 00-2 2v1a.5.5 0 001 0V2a1 1 0 011-1z" />
        <circle cx="13.517" cy="10.36" r="3.614" />
        <circle cx="11.754" cy="8.597" r=".675" />
    </symbol>
    <symbol viewBox="0 0 17 18" id="user" xmlns="http://www.w3.org/2000/svg">
        <mask id="ma">
            <path fill-rule="evenodd" clip-rule="evenodd" d="M8.5 9a4.5 4.5 0 100-9 4.5 4.5 0 000 9zm6.01 2.49a8.5 8.5 0 012.256 4.028c.257 1.075-.661 1.982-1.766 1.982H2c-1.105 0-2.023-.907-1.766-1.982A8.5 8.5 0 0114.51 11.49z" />
        </mask>
        <path d="M8.5 17.5v1-1zm-6.01-6.01l.707.707-.707-.707zM2 17.5v1-1zm14.766-1.982l-.973.233.973-.233zM12 4.5A3.5 3.5 0 018.5 8v2A5.5 5.5 0 0014 4.5h-2zM8.5 1A3.5 3.5 0 0112 4.5h2A5.5 5.5 0 008.5-1v2zM5 4.5A3.5 3.5 0 018.5 1v-2A5.5 5.5 0 003 4.5h2zM8.5 8A3.5 3.5 0 015 4.5H3A5.5 5.5 0 008.5 10V8zm9.238 7.285a9.5 9.5 0 00-2.52-4.502l-1.415 1.414a7.5 7.5 0 011.99 3.555l1.945-.467zM8.5 18.5H15v-2H8.5v2zm-6.5 0h6.5v-2H2v2zm-.218-7.717a9.5 9.5 0 00-2.52 4.502l1.945.466a7.5 7.5 0 011.99-3.554l-1.415-1.414zM8.5 8a9.5 9.5 0 00-6.718 2.783l1.415 1.414A7.5 7.5 0 018.5 10V8zm6.717 2.783A9.5 9.5 0 008.5 8v2a7.5 7.5 0 015.303 2.197l1.414-1.414zM2 16.5a.907.907 0 01-.661-.269.497.497 0 01-.132-.48l-1.945-.466C-1.186 17.152.429 18.5 2 18.5v-2zm13.793-.748a.497.497 0 01-.132.48.907.907 0 01-.661.268v2c1.571 0 3.186-1.348 2.738-3.215l-1.945.466z" mask="url(#ma)" />
    </symbol>
    <symbol viewBox="0 0 13 8" id="vk" xmlns="http://www.w3.org/2000/svg">
        <path d="M10.668 4.565c-.203-.255-.145-.369 0-.597.002-.002 1.672-2.31 1.844-3.092.086-.285 0-.495-.413-.495h-1.367c-.348 0-.509.18-.595.381 0 0-.696 1.667-1.681 2.748-.318.312-.465.412-.639.412-.085 0-.218-.1-.218-.385V.876c0-.342-.098-.495-.386-.495h-2.15c-.219 0-.349.16-.349.308 0 .325.493.4.544 1.311v1.98c0 .433-.079.512-.253.512-.465 0-1.594-1.673-2.262-3.588-.135-.372-.267-.522-.618-.522H.757c-.39 0-.47.18-.47.38 0 .356.466 2.124 2.163 4.459 1.13 1.593 2.724 2.457 4.173 2.457.87 0 .977-.192.977-.522 0-1.523-.079-1.667.357-1.667.203 0 .55.1 1.364.87.93.91 1.082 1.319 1.602 1.319h1.368c.39 0 .587-.192.473-.57-.26-.796-2.017-2.433-2.096-2.543z" />
    </symbol>
</svg>