<svg width="222" height="61" viewBox="0 0 222 61" fill="none" xmlns="http://www.w3.org/2000/svg">
<path fill-rule="evenodd" clip-rule="evenodd" d="M45.2238 1.25128C26.6873 -1.12023 9.96286 13.6058 10.9643 32.2666C11.1687 36.0772 12.1016 39.6746 13.6199 42.9353C10.0611 47.4625 4.78365 50.7615 2.29128 51.7168C1.17067 51.9164 0.71133 52 1.18516 52C1.42602 52 1.80582 51.9028 2.29128 51.7168L2.36269 51.704C4.92388 51.2478 10.7467 50.2105 16.8139 48.231C22.5236 55.7547 31.7866 60.3938 41.9165 59.8291C71.4473 58.1826 117.34 56.1768 151.301 57.2452C162.823 57.6077 177.048 58.4523 189.637 59.307C206.529 60.4539 221 47.1359 221 30.2046C221 14.5229 208.533 1.72532 192.852 1.61752C166.319 1.43513 125.114 1.66349 87.4248 4.01227C76.6011 4.68681 60.2202 3.16988 45.2238 1.25128Z" fill="#F7F7F7"/>
<path d="M10.9643 32.2666L10.465 32.2933L10.9643 32.2666ZM45.2238 1.25128L45.2873 0.755326V0.755326L45.2238 1.25128ZM13.6199 42.9353L14.013 43.2443L14.2028 43.0028L14.0732 42.7242L13.6199 42.9353ZM2.36269 51.704L2.275 51.2118H2.275L2.36269 51.704ZM16.8139 48.231L17.2122 47.9287L16.9971 47.6453L16.6589 47.7556L16.8139 48.231ZM41.9165 59.8291L41.9444 60.3283L41.9165 59.8291ZM151.301 57.2452L151.285 57.745L151.301 57.2452ZM189.637 59.307L189.671 58.8081L189.637 59.307ZM192.852 1.61752L192.855 1.11753L192.852 1.61752ZM87.4248 4.01227L87.4559 4.51131L87.4248 4.01227ZM11.4635 32.2398C10.4798 13.9086 26.9154 -0.586969 45.1604 1.74724L45.2873 0.755326C26.4591 -1.6535 9.44589 13.303 10.465 32.2933L11.4635 32.2398ZM14.0732 42.7242C12.5814 39.5204 11.6645 35.9855 11.4635 32.2398L10.465 32.2933C10.673 36.169 11.6219 39.8288 13.1666 43.1464L14.0732 42.7242ZM2.47023 52.1836C5.04276 51.1976 10.3957 47.8459 14.013 43.2443L13.2268 42.6263C9.72654 47.0791 4.52454 50.3253 2.11233 51.2499L2.47023 52.1836ZM1.18516 51.5C1.12954 51.5 1.10249 51.4986 1.09423 51.4979C1.08781 51.4974 1.10533 51.4983 1.1335 51.5052C1.14672 51.5084 1.18135 51.5173 1.22354 51.5378C1.25312 51.5521 1.36392 51.6078 1.43802 51.7418C1.5385 51.9234 1.50317 52.1132 1.43019 52.2356C1.37472 52.3286 1.30403 52.3767 1.28399 52.3901C1.2554 52.4093 1.23189 52.4203 1.22224 52.4247C1.21081 52.4298 1.20271 52.4328 1.2 52.4338C1.19507 52.4355 1.20818 52.4309 1.25437 52.4201C1.43324 52.3782 1.81008 52.3104 2.37899 52.209L2.20357 51.2245C1.65187 51.3228 1.23873 51.3967 1.02624 51.4464C0.974589 51.4585 0.914773 51.4737 0.862889 51.4923C0.843713 51.4992 0.786819 51.5196 0.728081 51.5589C0.702872 51.5758 0.628653 51.6272 0.571335 51.7233C0.49651 51.8488 0.461002 52.0415 0.563003 52.2259C0.638614 52.3625 0.752625 52.4208 0.787112 52.4375C0.83421 52.4604 0.875458 52.4715 0.897019 52.4768C0.941874 52.4877 0.982968 52.492 1.00714 52.4941C1.06008 52.4987 1.12232 52.5 1.18516 52.5V51.5ZM2.11233 51.2499C1.6334 51.4335 1.32741 51.5 1.18516 51.5V52.5C1.52463 52.5 1.97823 52.3722 2.47023 52.1836L2.11233 51.2499ZM2.275 51.2118L2.20359 51.2245L2.37897 52.209L2.45038 52.1963L2.275 51.2118ZM16.6589 47.7556C10.6275 49.7234 4.83449 50.7558 2.275 51.2118L2.45038 52.1963C5.01326 51.7397 10.866 50.6975 16.969 48.7063L16.6589 47.7556ZM41.8887 59.3298C31.931 59.885 22.8253 55.3251 17.2122 47.9287L16.4156 48.5332C22.2219 56.1842 31.6422 60.9026 41.9444 60.3283L41.8887 59.3298ZM151.316 56.7455C117.332 55.6763 71.42 57.6834 41.8887 59.3298L41.9444 60.3283C71.4745 58.6819 117.348 56.6773 151.285 57.745L151.316 56.7455ZM189.671 58.8081C177.08 57.9533 162.848 57.1082 151.316 56.7455L151.285 57.745C162.798 58.1072 177.016 58.9513 189.603 59.8058L189.671 58.8081ZM220.5 30.2046C220.5 46.8418 206.279 59.9357 189.671 58.8081L189.603 59.8058C206.78 60.972 221.5 47.43 221.5 30.2046H220.5ZM192.848 2.11751C208.249 2.22338 220.5 14.7921 220.5 30.2046H221.5C221.5 14.2537 208.817 1.22726 192.855 1.11753L192.848 2.11751ZM87.4559 4.51131C125.128 2.16359 166.32 1.93514 192.848 2.11751L192.855 1.11753C166.318 0.935111 125.1 1.16339 87.3937 3.51324L87.4559 4.51131ZM45.1604 1.74724C60.1556 3.66569 76.5794 5.18913 87.4559 4.51131L87.3937 3.51324C76.6228 4.18449 60.2849 2.67408 45.2873 0.755326L45.1604 1.74724Z" fill="#D8D8D8"/>
</svg>
