<svg width="45" height="27" viewBox="0 0 45 27" fill="none" xmlns="http://www.w3.org/2000/svg">
<path d="M31.806 26.1603C32.4075 26.1978 33.2117 25.7819 33.4598 25.2117C33.732 24.5861 33.8846 24.0033 33.7203 23.3223C33.5981 22.8172 33.2831 22.3156 32.8895 21.9774C32.8886 21.9765 32.8877 21.9765 32.8868 21.9756C32.885 21.964 32.8833 21.9533 32.8815 21.9417C32.7423 21.0091 32.3005 20.7405 31.3402 20.9154C31.1733 20.9457 31.0047 20.9787 30.836 21.0064C30.6263 20.9645 30.4129 20.9332 30.1951 20.9127C28.3728 20.7423 26.5325 20.6485 24.703 20.5932C22.8931 20.5379 21.0779 20.5557 19.2724 20.7208C17.8141 20.8538 16.363 21.0992 14.8949 21.1028C14.5228 21.1037 14.1506 21.0867 13.7794 21.0582C13.7107 21.0528 13.6419 21.0457 13.5732 21.0394C13.3947 20.9993 13.2135 20.9689 13.035 20.9288C12.6976 20.8529 12.3791 20.7458 12.0524 20.6387C12.0533 20.6334 11.8695 20.5673 11.8284 20.5477C11.6401 20.4566 11.4491 20.3719 11.2635 20.2755C9.93553 19.5928 8.52549 20.968 9.23142 22.3076C9.27069 22.3817 9.31079 22.4531 9.35274 22.5227C8.82083 22.6459 8.29519 22.8092 7.77935 23.0332C7.58122 22.9948 7.37239 22.9457 7.13589 22.8841C6.11671 22.6182 5.22423 23.964 6.06582 24.7217C6.41745 25.0385 6.79405 25.2938 7.18941 25.5008C7.19744 25.599 7.20464 25.6963 7.21268 25.7944C7.57858 25.8257 7.82758 25.8694 8.06051 25.8721C10.3604 26.6512 13.1171 26.155 15.4661 26.0372C18.9449 25.8623 22.4361 25.8025 25.9185 25.8917C27.8828 25.9435 29.8453 26.0381 31.806 26.1603Z" fill="#EF4036"/>
<path d="M42.8861 15.9373C42.0356 15.2438 41.7696 14.3665 41.7491 13.2965C41.7151 11.4518 41.6117 9.60619 41.4608 7.76684C41.2779 5.54819 41.0065 3.33667 40.7932 1.1207C40.7067 0.221107 40.4505 -0.0332224 39.567 0.00336824C38.8004 0.0354966 38.0338 0.0649337 37.2672 0.0783206C34.6603 0.123836 32.0525 0.17828 29.4448 0.194344C28.447 0.200591 27.4483 0.0542216 26.4515 0.0756406C22.3765 0.162209 18.3025 0.292513 14.2284 0.394253C11.6554 0.457618 9.07981 0.58345 6.50865 0.524548C4.51937 0.479033 2.51494 0.890464 0.535473 0.377302C0.372154 0.335356 0.174029 0.429056 0 0.457614C0.0187416 1.31973 0.0285411 1.40363 0.740721 1.45272C1.68762 1.51697 2.64256 1.46788 3.54394 1.46788C4.448 3.26707 4.44715 3.26706 4.54978 4.93684C4.56406 5.1662 4.5988 5.39469 4.61933 5.62405C4.82638 7.95782 5.03699 10.2916 5.2369 12.6263C5.34578 13.8882 5.37702 15.16 5.54926 16.413C5.96782 19.4759 5.91433 22.5504 5.84829 25.624C5.82419 26.7645 5.98567 27.0394 7.11106 26.9957C8.80137 26.9305 10.49 26.8145 12.1803 26.7226C15.4788 26.5441 18.7772 26.3415 22.0784 26.2014C23.4974 26.1416 24.9219 26.2201 26.3444 26.2219C28.5738 26.2246 30.8022 26.205 33.0316 26.2175C34.0383 26.2228 34.256 26.014 34.1587 25.018C33.9205 22.5691 33.642 20.1229 33.4582 17.6704C33.1815 13.9935 33.3386 10.2925 32.812 6.62538C32.5836 5.03414 32.5113 3.41967 32.3926 1.81325C32.3747 1.56872 32.4916 1.31437 32.5576 1.01004C34.9476 0.970771 37.2699 0.963637 39.6608 1.17247C39.8178 2.11312 40.0088 2.93865 40.0837 3.77399C40.3595 6.87349 40.5898 9.97654 40.8566 13.0769C40.9084 13.6704 40.937 14.1925 40.4078 14.6369C40.2123 14.8011 40.1721 15.1894 40.1248 15.4857C39.965 16.4745 39.8044 17.4571 39.2333 18.3183C39.1092 18.5048 38.9958 18.7387 38.9896 18.9538C38.9842 19.1492 39.1048 19.4937 39.2181 19.5151C39.4243 19.5535 39.7839 19.4696 39.8723 19.317C40.1561 18.8243 40.3577 18.2826 40.5674 17.7507C40.7102 17.3884 40.8129 17.0118 40.9343 16.6414C41.0181 16.6548 41.1021 16.6691 41.186 16.6824C41.21 17.2018 41.2734 17.7231 41.2502 18.2407C41.2198 18.8984 41.4912 19.226 42.3087 19.3197C42.3703 18.653 42.4273 18.0444 42.4916 17.3483C42.9048 17.6383 43.2707 17.8944 43.6955 18.1916C44.1739 17.7953 44.2337 17.4277 43.8981 17.0323C43.5777 16.653 43.268 16.2487 42.8861 15.9373ZM32.8817 21.9417C32.9727 22.5477 33.0503 23.1635 33.0467 23.7739C33.0396 25.0323 32.8915 25.1733 31.651 25.1804C29.2681 25.1947 26.8843 25.1429 24.5032 25.2009C21.816 25.2661 19.1316 25.425 16.4462 25.5383C13.684 25.6543 10.9219 25.7659 8.15882 25.8712C7.89644 25.8819 7.63139 25.8301 7.21373 25.7944C7.15036 24.9939 7.08788 24.2094 7.02451 23.4089C8.58899 22.5164 10.265 22.2987 11.9366 22.1612C15.2637 21.8855 18.5961 21.6614 21.9285 21.4589C24.6469 21.2938 27.3537 20.8708 30.0918 21.0564C30.5032 21.0841 30.928 20.9912 31.3404 20.9154C32.3006 20.7404 32.7424 21.0091 32.8817 21.9417ZM32.6344 18.3728C32.6576 18.7485 32.6371 19.1278 32.6371 19.657C24.0428 20.3638 15.5332 21.0644 7.0049 21.7659C6.44177 14.9199 5.89555 8.27106 5.34044 1.50714C6.29894 1.43128 7.31545 1.2992 8.33374 1.27956C12.2507 1.2046 16.1686 1.17515 20.0856 1.11C21.7348 1.08323 23.3823 0.994865 25.0307 0.96363C26.0668 0.943103 27.1038 0.97434 28.14 0.986834C28.8298 0.994866 29.5198 1.03325 30.2079 1.01451C30.9683 0.994872 31.228 1.12695 31.327 1.83735C31.4966 3.05376 31.6161 4.27732 31.7455 5.49909C31.8259 6.26125 31.9009 7.02521 31.9517 7.79004C32.1856 11.317 32.4122 14.8449 32.6344 18.3728Z" fill="#251C1C"/>
<path d="M8.17227 3.0789C7.34497 3.24311 7.20308 3.58044 7.38336 4.42203C7.7573 6.16321 7.9036 7.90976 7.61266 9.68396C7.56447 9.97847 7.71887 10.3069 7.77956 10.6192C7.91343 10.6317 8.04642 10.6442 8.18029 10.6558C8.29363 10.4068 8.46409 10.1677 8.51139 9.90618C8.95226 7.47781 9.9375 5.37697 12.0455 3.94368C12.6015 3.56528 12.7372 3.09585 12.5185 2.38635C11.0344 2.6175 9.59396 2.79688 8.17227 3.0789ZM8.19546 7.06013C8.19546 6.2239 8.19726 5.54652 8.19459 4.87004C8.1928 4.32029 8.4819 4.00884 9.00398 3.92405C9.44307 3.85176 9.88843 3.82053 10.5051 3.75181C9.70548 4.89773 9.00581 5.89905 8.19546 7.06013Z" fill="#251C1C"/>
</svg>
