<svg width="59" height="59" viewBox="0 0 59 59" fill="none" xmlns="http://www.w3.org/2000/svg">
<mask id="mask0" mask-type="alpha" maskUnits="userSpaceOnUse" x="0" y="0" width="59" height="59">
<circle cx="29.5" cy="29.5" r="29.5" fill="#39B100"/>
</mask>
<g mask="url(#mask0)">
<path d="M28.0561 11.6702C27.9172 10.9564 27.6718 10.233 27.2971 9.61291C27.2229 9.49342 27.084 9.4805 26.9839 9.54186C26.9096 9.52248 26.8288 9.51925 26.7481 9.5354C26.6609 9.55155 26.5576 9.62906 26.4736 9.61937C26.2895 9.6 26.1442 9.73887 26.086 9.90357C25.9698 9.91649 25.8664 9.99723 25.8761 10.1361C25.9052 10.514 25.9439 10.8918 26.015 11.2632C26.0634 11.5119 26.0796 11.8575 26.2314 12.0706C26.4736 12.4162 27.1098 12.4 27.4554 12.174C27.7428 12.2967 28.1368 12.0706 28.0561 11.6702Z" fill="#E5332A"/>
<path d="M31.6376 10.2128C31.5989 9.82205 31.5117 9.24395 31.1855 8.9759C30.9207 8.75628 30.3846 8.75629 30.0616 8.82734C29.884 8.86609 29.7516 8.9759 29.6708 9.11154C29.603 9.08247 29.519 9.12446 29.5126 9.21489C29.4641 9.751 29.5384 10.2354 29.6579 10.7554C29.7451 11.1236 29.7709 11.7275 30.236 11.8082C30.5719 11.8664 31.1338 11.6048 31.3857 11.3884C31.7119 11.1139 31.6764 10.5972 31.6376 10.2128Z" fill="#47AD4B"/>
<path d="M40.1995 25.3762C39.0207 25.1792 37.7676 25.3213 36.5598 25.6571C36.4274 25.5635 36.2659 25.4827 36.0721 25.4149C34.8352 24.9854 33.2656 25.1081 32.1126 25.7896C32.6778 25.2534 33.2914 24.5106 32.6972 24.1812C32.0448 23.8195 31.273 24.8207 30.9435 25.4343C30.4882 25.0823 29.9262 24.6398 29.3449 24.7076C29.0413 24.7432 28.4406 24.9563 28.3502 25.2987C28.2145 25.8025 28.8443 26.1028 29.5806 26.2772C28.4341 26.2998 27.2327 26.5259 26.3478 27.0878C26.0959 27.2493 25.8989 27.4528 25.76 27.6789C24.7104 27.7951 23.6866 28.0761 22.7178 28.5509C22.6532 28.5832 22.6984 28.693 22.7662 28.6671C23.7157 28.299 24.6749 28.0309 25.6535 27.8856C25.5598 28.1052 25.5146 28.3377 25.5243 28.5735C24.6846 28.8189 23.9095 29.313 23.2087 29.8556C23.1344 29.9105 23.2022 30.0365 23.2829 29.9816C24.0322 29.51 24.7459 29.0095 25.5436 28.7382C25.5921 29.0708 25.7439 29.397 26.0152 29.6844C26.8936 30.6113 28.4115 30.4563 29.4708 29.9751C30.007 29.7329 30.4462 29.3873 30.7885 28.9739C30.8886 29.3163 31.2406 29.6069 31.5733 29.6812C32.1352 29.8104 32.5874 29.3809 32.8102 28.9093C32.8231 28.8835 32.8264 28.8577 32.8296 28.8318C33.314 29.1096 33.8889 29.2485 34.5025 29.1935C34.593 29.1871 34.5962 29.0482 34.5025 29.0482C33.0524 29.0676 31.7961 28.0212 31.583 26.5808C31.5668 26.4678 31.3763 26.4968 31.3828 26.6099C31.4377 27.7919 30.7885 28.8351 29.7938 29.4487C28.8508 30.0332 27.3328 30.3917 26.4027 29.6005C26.1056 29.3486 25.9118 28.9998 25.8569 28.6413C26.2315 28.5476 26.6288 28.5056 27.0583 28.5476C27.1358 28.5541 27.1326 28.4346 27.0583 28.4249C26.6385 28.3765 26.2348 28.4023 25.8408 28.4863C25.8343 28.2602 25.8795 28.0374 25.999 27.8307C26.7192 27.7467 27.4523 27.7241 28.2016 27.7887C28.2726 27.7951 28.2694 27.6886 28.2016 27.6821C27.5137 27.6014 26.8258 27.5852 26.1476 27.6337C26.1766 27.6014 26.1993 27.5658 26.2316 27.5335C26.6159 27.1686 27.1714 26.9942 27.6687 26.8618C28.8055 26.5582 29.9456 26.5098 31.1115 26.5033C31.1341 26.5033 31.1502 26.4904 31.1631 26.4742C31.302 26.4775 31.4118 26.4775 31.4829 26.4742C31.5927 26.4678 31.6024 26.345 31.5313 26.2966C31.5539 26.2772 31.5798 26.2546 31.6088 26.232C31.6347 26.2966 31.7186 26.345 31.7929 26.3063C32.7424 25.8445 33.6209 25.4569 34.706 25.4957C35.2518 25.515 35.6555 25.5732 36.0657 25.8057C35.1711 26.0964 34.312 26.4871 33.5466 26.9167C33.5272 26.9296 33.5401 26.9651 33.5627 26.9554C34.5058 26.555 35.4004 26.2126 36.3014 25.9607C36.3434 25.993 36.3854 26.0221 36.4306 26.0576C36.7665 26.3354 36.9053 26.4936 36.9118 26.7455C35.9526 26.8295 35.0225 27.0685 34.144 27.4689C34.1344 27.4722 34.1408 27.4916 34.1505 27.4883C34.9967 27.1718 35.9558 26.9102 36.9086 26.8456C36.8989 26.9587 36.8698 27.0879 36.8278 27.2526C36.7277 27.6207 36.6179 27.8468 36.4306 28.173C36.4112 28.2085 36.4629 28.2376 36.4823 28.2021C36.7729 27.7596 36.999 27.2784 37.0571 26.8359C37.9517 26.794 38.8366 26.9328 39.6085 27.3753C39.6925 27.4237 39.7829 27.3075 39.7119 27.2396C39.0821 26.6454 38.068 26.6712 37.2574 26.71C37.1928 26.7132 37.1314 26.7229 37.0668 26.7294C37.0894 26.3967 37.0055 26.0867 36.7665 25.8348C37.8419 25.5764 38.9464 25.4601 40.1737 25.557C40.2803 25.5667 40.3029 25.3923 40.1995 25.3762ZM31.5442 27.2816C31.7348 27.821 32.0674 28.2796 32.5002 28.6154C32.4582 28.6348 32.4227 28.6607 32.3936 28.7091C32.2192 28.9869 31.9479 29.3615 31.5636 29.2162C31.3375 29.1322 31.1147 28.9384 30.9661 28.7479C31.26 28.3151 31.4635 27.821 31.5442 27.2816Z" fill="#251C1C"/>
<path d="M25.3335 20.4441C24.5197 20.935 24.5778 22.0331 24.6941 22.8437C24.8265 23.7738 25.0752 24.8138 25.7534 25.4984C25.7437 25.521 25.7308 25.5404 25.7211 25.563C25.6533 25.7471 25.8923 25.844 25.9892 25.6857C26.0828 25.5275 26.2088 25.4242 26.3476 25.3466C26.5996 25.211 26.9096 25.1819 27.2132 25.1529C27.436 25.1335 27.6556 25.1141 27.8526 25.056C27.9075 25.0431 27.9495 24.9785 27.9592 24.9236C28.1304 23.8352 27.3682 19.2201 25.3335 20.4441ZM27.2261 24.7815C27.2099 24.7879 27.1938 24.7944 27.1776 24.8008C27.0129 24.8654 26.8385 24.901 26.6674 24.9365C26.6641 24.9365 26.6609 24.9397 26.6577 24.9365C26.5027 24.9752 26.3476 25.0075 26.2088 25.0689C26.0602 25.1303 25.931 25.2207 25.8309 25.3628C25.3691 24.5554 25.0849 23.7674 24.9751 22.8146C24.9072 22.2398 24.8168 21.4873 25.2011 20.9899C25.9795 19.9791 26.8547 21.1417 27.1163 21.8813C27.3101 22.4335 27.4102 23.0246 27.4941 23.5994C27.5684 24.1065 27.7364 24.5619 27.2261 24.7815Z" fill="#251C1C"/>
<path d="M34.9711 19.4534C34.5028 18.8495 33.4499 18.8527 33.0527 19.5826C32.7782 20.0929 32.8912 20.8583 32.917 21.4041C32.9526 22.1275 33.0559 22.8251 33.2206 23.5195H33.2109C33.0204 23.5259 33.0204 23.8198 33.2109 23.8166C33.4144 23.8166 33.634 23.8134 33.8601 23.8101C34.267 23.8037 34.6933 23.7875 35.0841 23.7197C35.2294 23.6939 35.3683 23.6616 35.5007 23.6164C35.8592 23.5033 35.8592 23.358 35.8657 23.006C35.8883 21.8433 35.7074 20.4029 34.9711 19.4534ZM35.5653 23.1578C35.4878 23.3192 35.3069 23.3774 35.1164 23.4C34.9549 23.4226 34.787 23.4161 34.6578 23.4323C34.5415 23.4452 34.4188 23.4549 34.2993 23.4646C34.2799 23.4678 34.2573 23.471 34.2347 23.471C34.0829 23.4807 33.9311 23.4904 33.7793 23.5001C33.6405 23.5066 33.508 23.513 33.3692 23.5162C33.2626 22.7121 33.1883 21.9047 33.1851 21.0941C33.1819 20.5644 33.114 20.0412 33.4984 19.6504C34.0539 19.0788 34.6642 19.447 34.9904 20.067C35.3941 20.8421 35.4943 21.7271 35.5395 22.5894C35.5492 22.7153 35.6202 23.0447 35.5653 23.1578Z" fill="#251C1C"/>
<path d="M31.8056 10.1005C31.7378 9.74203 31.7701 9.09612 31.4859 8.81514C31.1888 8.52125 30.5429 8.71179 30.2134 8.75378C28.6826 8.95078 27.2035 9.3125 25.7405 9.79694C25.608 9.84215 25.6565 10.0392 25.7889 10.0198C25.9827 10.7981 26.1248 11.5764 26.1635 12.3806C26.1668 12.4387 26.212 12.4936 26.2733 12.4904C27.7945 12.4291 29.3221 12.1029 30.7754 11.6636C32.0349 11.2826 32.0446 11.3794 31.8056 10.1005ZM27.2777 12.1255C26.6447 12.2191 26.4736 12.3548 26.3024 11.7315C26.1441 11.1534 26.0634 10.5753 25.8761 10.0004C26.3541 9.86153 26.8385 9.7388 27.3229 9.62254C27.4263 10.4332 27.6168 11.247 27.8235 12.035C27.6427 12.0641 27.4618 12.0964 27.2777 12.1255ZM28.1077 11.9704C27.9269 11.1727 27.7202 10.3621 27.4328 9.59347C28.0625 9.44491 28.6955 9.3125 29.3285 9.19946C29.3931 9.61608 29.4706 10.0295 29.5611 10.4396C29.6418 10.8143 29.687 11.2147 29.8646 11.5538C29.8808 11.5829 29.9066 11.5894 29.9325 11.5861C29.3285 11.7411 28.7214 11.8768 28.1077 11.9866C28.1077 11.9801 28.111 11.9769 28.1077 11.9704ZM31.628 10.7238C31.544 11.134 31.2017 11.2212 30.8626 11.3245C30.559 11.4182 30.2554 11.4989 29.9486 11.5797C29.9744 11.57 29.997 11.5474 29.997 11.5151C30.0067 11.134 29.8679 10.7464 29.7774 10.3783C29.6773 9.97456 29.5675 9.57409 29.4416 9.17685C29.4835 9.17039 29.5223 9.16071 29.5643 9.15425C29.8905 9.09935 30.2554 8.98631 30.5848 8.996C31.1597 9.01538 31.2986 9.10903 31.4601 9.62254C31.5182 9.80663 31.6668 10.5365 31.628 10.7238Z" fill="black"/>
<path d="M35.0195 21.7812C34.942 21.4324 34.2993 19.711 33.8278 20.78C33.8117 20.7703 33.7923 20.7703 33.7697 20.7703C33.7342 20.7735 33.7018 20.7929 33.6954 20.8317C33.5759 21.61 33.5436 22.3431 33.7018 23.1247C33.7212 23.2313 33.7438 23.3637 33.7761 23.4993C33.7955 23.6027 33.8246 23.706 33.8569 23.8094C34.2638 23.8029 34.6901 23.7868 35.0809 23.7189C35.1003 23.6188 35.11 23.509 35.1164 23.396C35.1649 22.7436 35.0615 21.9879 35.0195 21.7812ZM34.2993 23.5316C34.2961 23.5445 34.2961 23.551 34.2961 23.5607C34.2864 23.5445 34.2767 23.5381 34.267 23.5187C34.2573 23.5026 34.2476 23.4832 34.238 23.467V23.4638C34.2153 23.2571 34.196 22.9826 34.196 22.9761C34.1249 22.5789 34.0959 22.172 34.07 21.7683C34.0603 21.6003 33.9667 21.1966 34.0539 21.0416C34.2186 20.7348 34.2961 21.132 34.3381 21.2774C34.351 21.3258 34.3607 21.3775 34.3704 21.4259C34.2638 21.4162 34.154 21.5067 34.154 21.6294C34.1572 22.0331 34.2735 22.4239 34.3025 22.8308C34.3155 23.0407 34.309 23.2474 34.2993 23.4573C34.3025 23.4864 34.2993 23.509 34.2993 23.5316Z" fill="#251C1C"/>
<path d="M27.0033 23.1636C26.8773 22.6792 26.17 21.171 25.7437 22.324C25.6597 22.55 25.6468 22.8019 25.6662 23.0571C25.6275 23.4575 25.6759 23.8742 25.7728 24.2714C25.8245 24.4878 25.8923 24.772 25.9989 25.0304C26.0473 25.1498 26.1022 25.2629 26.1733 25.3662C26.4736 25.2015 26.8482 25.1692 27.2132 25.1337C27.2261 24.9948 27.2293 24.8398 27.2196 24.6816C27.1906 24.0356 27.0452 23.3219 27.0033 23.1636ZM26.535 24.8689C26.4478 24.6363 26.3703 24.3618 26.338 24.2746C26.2346 23.971 26.141 23.6545 26.0893 23.338C26.0505 23.1249 26.0344 22.9085 26.0408 22.6889C26.212 22.4079 26.3186 22.4047 26.3735 22.676C26.3832 22.6857 26.3864 22.7115 26.3961 22.7244C26.367 22.7277 26.3412 22.7309 26.3154 22.7406C26.2282 22.747 26.1539 22.8116 26.1765 22.9214C26.3154 23.5609 26.3767 24.2326 26.5479 24.8656C26.5479 24.885 26.5544 24.9012 26.5608 24.9205C26.5479 24.9012 26.5447 24.8882 26.535 24.8689Z" fill="#251C1C"/>
<path d="M72.4274 68.081C71.4844 67.4513 70.2119 67.5126 69.1139 67.6902C67.7962 67.9066 66.8467 68.0261 65.5807 67.4383C64.5278 66.9474 63.475 66.4533 62.4028 65.9979C63.9562 63.9245 64.8346 61.3118 63.8916 58.8799C63.1003 56.842 61.1497 55.1465 58.7404 54.9043C58.411 51.6489 57.4518 48.2966 56.3893 45.18C56.0728 44.2499 55.6917 43.352 55.2686 42.4801C55.2524 42.4445 55.2395 42.4122 55.2266 42.3832C55.1653 42.2314 55.0877 42.0667 54.9908 41.9246C54.2287 40.4454 53.3373 39.0309 52.3587 37.6389C52.3071 37.4031 52.1617 37.1932 51.9421 37.0608C51.8388 36.9155 51.7354 36.7701 51.6288 36.6248C50.0108 34.419 48.3444 32.1163 46.4615 29.9945C46.3517 29.8556 46.229 29.7199 46.0901 29.5843C45.2504 28.6639 44.3687 27.7757 43.4224 26.9554C43.4063 26.978 43.3934 26.9974 43.3772 27.02C43.2674 26.949 43.1576 26.8811 43.0575 26.8101C42.8993 26.6971 42.7475 26.5872 42.5924 26.4742C42.6344 26.3676 42.6829 26.2578 42.7216 26.1512C42.7249 26.148 42.7281 26.1448 42.7281 26.1416C42.8637 25.7702 42.9897 25.3955 43.0898 25.0177C43.4128 23.826 43.5516 22.6278 43.5419 21.4393C43.5516 21.3908 43.5581 21.3392 43.5613 21.2746C43.5775 20.9904 43.5419 20.6803 43.4903 20.3703C43.4321 19.7244 43.3288 19.0817 43.1835 18.4454C43.1641 18.3324 43.1382 18.2258 43.106 18.1257C42.7927 16.8759 42.3179 15.6551 41.7011 14.4892C41.7528 14.4892 41.8012 14.4731 41.8367 14.4408C41.8432 14.4408 41.8496 14.4375 41.8593 14.4375C42.0919 14.4117 42.0951 14.0467 41.8658 14.0629C41.5493 11.35 41.7043 8.46924 40.7806 5.86942C40.7387 5.75316 40.5772 5.8016 40.5998 5.9211C40.7613 6.84799 40.8775 7.77488 40.9712 8.70177C40.9454 8.69531 40.9163 8.69208 40.884 8.69854C38.7977 9.08286 36.7469 9.50271 34.6444 9.78691C34.6412 9.78691 34.6412 9.79015 34.6444 9.79015C36.7533 9.61575 38.9043 9.42843 40.9841 9.0538C40.9906 9.0538 40.997 9.04734 41.0035 9.04734C41.0196 9.22174 41.0326 9.39613 41.0487 9.57053C40.645 9.55761 40.2445 9.69649 39.8505 9.76754C39.3629 9.85474 38.8752 9.92579 38.3875 10.0291C38.3617 10.0356 38.3681 10.0776 38.394 10.0776C38.8913 10.0582 39.3822 10.0065 39.8764 9.971C40.2736 9.94194 40.687 9.97746 41.0713 9.87089C41.1165 10.3682 41.1617 10.8688 41.2005 11.3694C37.0795 11.7796 32.9586 12.2576 28.8828 13.0036C24.8523 13.7432 20.9768 14.9995 17.0012 15.9683C16.8655 15.5291 16.7331 15.0899 16.6169 14.6539C16.5458 14.3858 16.4748 14.1178 16.4069 13.8497C16.4328 13.8562 16.4651 13.8562 16.4974 13.8465C17.0787 13.656 17.6503 13.4525 18.2413 13.2846C18.3318 13.2587 18.293 13.1199 18.2026 13.1425C17.6051 13.2781 17.0044 13.3782 16.4005 13.4913C16.3682 13.4977 16.3456 13.5106 16.3262 13.5268C16.2778 13.3427 16.2293 13.1554 16.1809 12.9713C18.1445 12.3835 20.1242 11.8151 22.02 11.0238C22.0232 11.0238 22.0232 11.0174 22.02 11.0174C20.0467 11.5697 18.1025 12.2091 16.1066 12.6871C15.9548 12.109 15.7998 11.5309 15.6383 10.9528C15.6318 10.927 15.6157 10.9173 15.5963 10.9108C20.1694 9.80306 24.7296 8.65333 29.3447 7.71352C35.7425 6.41199 42.1726 5.29779 48.6382 4.38704C48.8934 4.35152 48.7836 3.96397 48.5284 4.00272C42.0692 4.92315 35.6327 6.0309 29.2446 7.36149C22.9824 8.66625 16.6233 9.99361 10.5162 11.9249C10.4968 11.8635 10.4613 11.8086 10.3934 11.7796C10.219 11.7021 10.0382 11.8861 10.0802 12.0638C10.1028 12.1607 10.1835 12.2091 10.2642 12.2091C10.2675 12.2156 10.2707 12.222 10.2772 12.2253C10.2869 12.2349 10.2965 12.2317 10.3062 12.2382C10.2804 13.7302 10.3902 15.2288 10.4225 16.7176C10.458 18.3098 10.3902 19.9181 10.4871 21.5071C10.4871 21.5103 10.4903 21.5103 10.4903 21.5136C10.2093 21.5265 9.87993 21.5362 9.8767 21.8979C9.87347 22.0691 9.97682 22.2015 10.1157 22.2983C10.1157 22.3016 10.1125 22.3016 10.1125 22.3016C10.0834 22.2887 10.0414 22.2984 10.0285 22.3339C9.91869 22.6665 9.81533 23.0218 9.71845 23.3803C9.49561 24.0133 9.28568 24.6592 9.19202 25.289C9.18233 25.36 9.2437 25.4181 9.30506 25.4214C9.29537 25.5053 9.27923 25.5925 9.26954 25.6765C9.25662 25.8025 9.44393 25.8121 9.47946 25.7023C9.56666 25.4504 9.64094 25.1824 9.71199 24.9111C9.69907 25.0274 9.69261 25.1404 9.68938 25.2534C9.68615 25.3665 9.83148 25.3665 9.87024 25.276C9.88962 25.2276 9.909 25.1727 9.92515 25.1242C9.90254 25.3083 9.87993 25.4892 9.86702 25.6733C9.86056 25.7734 10.0059 25.7831 10.035 25.6959C10.3515 24.7076 10.4742 23.5934 10.5743 22.5438C10.5775 22.8506 10.5678 23.1542 10.5517 23.4545C10.4483 24.1231 10.3353 24.811 10.3644 25.4633C10.3644 25.4989 10.3934 25.5215 10.4225 25.5312C10.416 25.6474 10.4096 25.7637 10.4064 25.8832C10.4031 25.993 10.5646 26.0091 10.5937 25.909C10.6453 25.7314 10.6841 25.5473 10.7164 25.36C10.7261 25.5344 10.7325 25.7088 10.7519 25.88C10.7648 25.9962 10.9231 25.9962 10.936 25.88C11.0458 24.7528 10.9489 23.5676 10.8843 22.4372C10.894 22.434 10.9005 22.4275 10.9102 22.4243C10.9457 23.6354 11.0943 24.8982 11.4334 26.0576C11.4721 26.1836 11.653 26.1286 11.6304 26.0027C11.4108 24.7787 11.1944 23.5773 11.0684 22.3371C11.0813 22.3274 11.0943 22.3145 11.1072 22.3048C11.1298 22.3855 11.1492 22.4663 11.1718 22.5503C11.1459 22.5599 11.1266 22.5826 11.1362 22.6149C11.4172 23.6386 11.611 24.7819 12.047 25.7475C12.0825 25.8283 12.1859 25.7637 12.1762 25.6927C12.1697 25.641 12.1568 25.5893 12.1471 25.5376C12.2214 25.6022 12.3538 25.5538 12.3247 25.4343C12.0567 24.3362 11.6401 23.2285 11.2234 22.1756C11.2687 22.1046 11.2977 22.0271 11.2977 21.9366C11.301 21.6427 11.0329 21.5168 10.7745 21.5297C10.7519 21.5103 10.7229 21.4942 10.6841 21.5006C10.6809 21.5006 10.6744 21.5006 10.6712 21.5006C10.7874 19.9214 10.7002 18.3001 10.6583 16.7176C10.6195 15.2288 10.6034 13.7141 10.4225 12.2317C10.4257 12.2285 10.429 12.2285 10.4322 12.2285C10.4709 12.1962 10.4968 12.1542 10.5129 12.109C12.1891 11.7279 13.862 11.3307 15.5317 10.927C15.5156 10.9399 15.5026 10.9625 15.5059 10.9883C15.7319 12.2479 16.0194 13.4913 16.3294 14.7314C16.633 15.949 16.8655 17.2634 17.337 18.4261C17.3629 18.4874 17.4081 18.5133 17.4566 18.523C17.4792 18.5068 17.505 18.4971 17.5373 18.4939L17.5696 18.4907C17.5857 18.4777 17.6019 18.4648 17.6116 18.4487C17.6213 18.4519 17.6277 18.4616 17.6406 18.4648C17.6374 18.4713 17.6374 18.481 17.6374 18.4874L17.7763 18.4777C17.7763 18.4681 17.7763 18.4616 17.7763 18.4519C18.209 18.3776 18.6386 18.2937 19.0681 18.2065C18.9228 18.5682 18.8808 18.9816 18.8194 19.3562C18.8162 19.3756 18.813 19.3949 18.813 19.4143C18.6935 19.7728 18.5966 20.141 18.5255 20.5221C18.3834 21.6847 18.3576 22.8571 18.4513 24.0197C18.574 25.0855 18.8097 26.1222 19.1295 27.1395C19.6107 28.3377 20.2082 29.5036 20.9574 30.2335C21.8779 31.1281 22.9436 31.8579 24.0869 32.4393C24.0546 32.4619 24.0385 32.5006 24.0546 32.5523C24.2129 33.0432 24.6424 33.5599 25.1559 33.8312C24.7683 34.3189 24.4163 35.1037 24.4551 35.6915C24.4583 35.7205 24.468 35.7464 24.4809 35.769C22.6336 39.7543 21.3514 43.9592 20.557 48.2158C20.5537 48.219 20.5505 48.2223 20.5473 48.2255C20.544 48.2384 20.544 48.2481 20.5408 48.261C20.5214 48.3579 20.5053 48.4548 20.4891 48.5517C20.2114 49.3494 20.0176 50.4345 19.9595 50.68C19.9401 50.7607 19.9369 50.8479 19.9595 50.9287C19.7334 52.2011 19.5881 53.4833 19.4912 54.7525C19.3943 56.0346 19.3555 57.32 19.3814 58.6022C19.4072 59.8165 19.3846 61.1374 19.6785 62.3259C19.6785 62.3291 19.6817 62.3324 19.685 62.3356C18.1703 62.6553 17.4146 64.6415 17.9216 66.027C17.9862 66.2079 18.0734 66.3629 18.1671 66.5082C18.1509 66.5082 18.138 66.5082 18.1218 66.5082C17.9378 66.4953 17.7472 66.4921 17.5664 66.5211C15.5123 66.4016 13.4002 66.7504 11.456 67.2962C10.865 67.4609 10.2836 67.6547 9.71199 67.8679C9.29214 68.0261 8.40723 68.601 7.97124 68.6107C7.19291 68.6301 6.60512 67.9874 5.75251 67.9357C2.77483 67.7451 1.88023 71.7563 4.74165 72.5249C5.36496 72.6929 6.08516 72.6444 6.6794 72.4151C6.64711 72.4184 7.64182 71.9533 7.53847 71.9275C8.15532 71.8693 8.75926 72.3958 9.27276 72.6477C11.5044 73.7393 13.9201 74.4918 16.3972 74.9924C21.8585 76.0969 27.5329 76.0064 33.091 75.8869C33.1717 75.8837 33.2331 75.8579 33.2815 75.8191C34.3505 76.4457 35.6391 76.8235 36.8987 77.0238C39.9603 77.5082 43.1835 77.2305 46.1062 76.2874C47.4271 75.8611 48.6705 75.283 49.8784 74.6403C53.4407 75.0214 57.0319 74.9019 60.5457 74.1946C62.4835 73.8039 64.2501 73.1095 66.12 72.554C67.9254 72.0179 69.7662 73.0417 71.5748 72.3021C73.3543 71.569 74.1649 69.2437 72.4274 68.081ZM10.626 21.8947C10.7067 21.8914 10.978 21.8268 10.9263 21.9786C10.8843 22.1013 10.7099 22.1272 10.5937 22.1239C10.5678 22.1013 10.5226 22.0949 10.4903 22.1078C10.3321 22.0594 10.0446 21.8882 10.3095 21.7816C10.3579 21.7622 10.4096 21.7525 10.4645 21.7429C10.4677 21.8268 10.5194 21.8979 10.626 21.8947ZM17.7827 18.1419C17.7698 18.1193 17.7311 18.1193 17.7214 18.1483C17.7214 18.1516 17.7181 18.1548 17.7181 18.1612C17.6891 18.1709 17.6568 18.1774 17.6277 18.1871C17.618 18.1903 17.6148 18.2 17.6051 18.2032C17.4888 17.5831 17.3112 16.9663 17.1271 16.3494C18.926 16.1137 20.6668 15.4904 22.4043 14.9866C24.4066 14.4052 26.4413 13.9337 28.4888 13.5397C32.7002 12.7323 36.96 12.2769 41.2102 11.7537C41.2199 11.7537 41.2296 11.7473 41.236 11.744C41.3006 12.5321 41.3652 13.3201 41.4459 14.1081C38.3003 14.4892 35.1676 14.9898 32.0349 15.4871C31.7927 15.4742 31.515 15.5291 31.2631 15.6099C30.7592 15.6906 30.2586 15.7713 29.7548 15.8489C28.6406 16.0233 27.5264 16.2041 26.4154 16.3882C26.3864 16.385 26.3573 16.3914 26.3315 16.4011C25.4692 16.5464 24.6069 16.6918 23.7478 16.85C21.7648 17.2182 19.7108 17.5412 17.7827 18.1419ZM17.5599 74.6209C17.6051 74.5499 17.5793 74.453 17.4727 74.4175C17.0722 74.2851 16.5878 74.3141 16.1324 74.3464C15.6738 74.2495 15.2217 74.1462 14.7695 74.0299C14.9698 74.0202 15.17 73.9976 15.3605 73.9524C15.5188 73.9137 15.5349 73.6811 15.3605 73.6488C14.7857 73.5455 14.1624 73.6456 13.5713 73.7005C12.9545 73.5164 12.3409 73.3226 11.7402 73.0998C12.9061 73.2355 14.1107 73.3065 15.2604 73.2387C15.4122 73.229 15.4671 73.0094 15.2992 72.9835C13.9298 72.7801 12.4604 72.7736 11.0684 72.8414C9.92514 72.3861 8.8077 71.85 7.72902 71.2234C7.63536 71.1685 7.46742 71.1814 7.39637 71.2622C6.29185 72.4959 3.48211 72.4184 3.61776 70.2901C3.73402 68.4686 6.07224 67.8872 7.37054 69.2857C7.45128 69.3729 7.61598 69.3793 7.71933 69.3276C10.6906 67.7807 13.6618 67.222 16.9043 66.9151C16.8881 66.97 16.8849 67.025 16.8978 67.0895C16.9979 67.5772 17.8086 67.7355 18.2607 67.8162C18.2866 67.8194 18.3092 67.8227 18.335 67.8259C19.081 68.0907 20.1016 68.0552 20.7669 68.052C20.9058 68.052 20.9994 67.9971 21.0575 67.926C21.2578 67.8937 21.4548 67.8582 21.655 67.8259C21.7777 67.8065 21.8391 67.729 21.8553 67.6386C22.1395 67.5966 22.4172 67.5385 22.6885 67.4706C23.2084 67.1606 23.7769 66.9668 24.3453 66.7537C24.313 66.7181 24.2807 66.6826 24.2516 66.6439H23.9803C24.3711 66.4049 24.7167 66.0981 24.9653 65.7363C25.1042 65.6007 25.2334 65.4554 25.3594 65.3068C25.65 66.9378 27.1485 68.0616 28.8505 68.0843C28.9959 69.4278 30.0681 70.3805 31.3761 70.374C31.2857 70.5097 31.2049 70.6486 31.1339 70.7939C31.1209 70.7907 31.108 70.7939 31.0983 70.7939C30.9982 71.2751 30.9046 71.7563 30.8335 72.244C30.8432 72.5443 30.8949 72.8544 31.0015 73.1709C31.2986 74.0655 31.8605 74.776 32.5807 75.3379C27.6071 75.4413 22.456 75.4736 17.5599 74.6209ZM27.2745 62.4454C27.2228 62.468 27.1712 62.4906 27.1195 62.5132C27.2454 62.2968 27.2874 61.9836 27.1389 61.7704C27.1066 61.7252 27.0678 61.6994 27.0226 61.6832C27.1453 61.4055 27.2584 61.1342 27.3682 60.8693C27.4231 60.9404 27.4941 61.0018 27.5942 61.0696C27.83 61.2343 28.7181 61.5831 28.2821 62.0288C28.182 62.1321 28.0205 62.2032 27.8461 62.2613C27.8397 62.2645 27.8365 62.2645 27.83 62.2645C27.8268 62.2645 27.8268 62.2678 27.8235 62.2678C27.633 62.3356 27.4231 62.384 27.2745 62.4454ZM32.4354 64.5608C32.1641 64.6286 31.9187 64.7287 31.7087 64.874C31.6829 64.8611 31.6571 64.8547 31.6215 64.8579C30.1714 64.9968 28.9765 66.0625 28.8441 67.5029C27.478 67.4932 26.3864 66.6955 25.818 65.5232C25.776 64.1764 26.7481 63.4013 27.8784 62.7457C27.9624 62.7199 28.0464 62.6973 28.1303 62.6682C28.4953 62.5487 28.8505 62.3937 28.9862 62.0062C29.1283 61.6089 28.9054 61.202 28.6148 60.9339C28.3629 60.7014 27.943 60.3914 27.5813 60.3332C28.6277 57.7043 29.1477 54.956 29.2542 52.1365C29.8 52.3949 30.3685 52.6016 30.9369 52.7082C30.9336 52.7372 30.9272 52.7695 30.9239 52.7986C30.3555 56.6709 30.6914 61.1083 32.4354 64.5608ZM31.8573 69.305C31.9316 69.389 32.0091 69.4665 32.0931 69.5376C32.0349 69.5925 31.98 69.6474 31.9251 69.7055C31.8605 69.6248 31.7669 69.5763 31.6441 69.5892C30.4137 69.7281 29.364 68.869 29.4642 67.5707C29.5449 66.5114 30.3136 65.8074 31.2243 65.4037C31.1113 65.6039 31.0273 65.8365 30.9918 66.1174C30.8723 67.0249 30.9239 68.7528 31.8573 69.305ZM49.7298 74.0041C49.6749 72.441 48.7545 68.9885 46.5003 69.2082C45.512 69.305 45.3214 70.0349 45.5669 70.7584C45.7994 71.443 46.1418 72.1148 46.426 72.7833C46.6456 73.3 46.9201 73.82 47.0945 74.3561C47.1171 74.5111 47.1397 74.6662 47.1591 74.8244C47.1655 74.8955 47.1978 74.9601 47.2463 75.015C47.2592 75.1151 47.2657 75.2184 47.2657 75.3185C46.7296 75.5414 46.187 75.7513 45.6218 75.9225C45.4377 75.9774 45.2504 76.0226 45.0663 76.0743C45.0954 74.6403 44.8758 73.1321 44.1394 71.8467C43.6292 70.9521 42.5924 69.8864 41.3426 69.9994C40.1283 70.1092 40.2284 71.2266 40.6224 71.9824C41.4298 73.5261 42.9186 74.7598 42.9574 76.5296C40.9163 76.8526 38.8074 76.8687 36.7727 76.5264C34.0243 76.0646 30.2296 74.017 31.5666 70.9812C31.7733 70.5161 32.0801 70.1254 32.4548 69.7895C32.4677 69.7959 32.4774 69.8024 32.4903 69.8089C32.5 69.741 32.5355 69.6764 32.6098 69.6312C32.6485 69.6054 32.6841 69.5731 32.7228 69.5408L32.726 69.5376C32.7422 69.5214 32.7584 69.5085 32.7777 69.4956C32.81 69.4762 32.8391 69.4633 32.8714 69.4601C34.3376 68.4298 36.5273 68.0584 38.2131 67.7936C38.3746 67.7678 38.5329 67.7484 38.6943 67.7225C38.788 67.8065 38.9624 67.8033 39.0464 67.6709C41.8303 67.2769 44.6465 67.0702 47.4368 66.7117C49.1356 66.4921 50.8279 66.2176 52.4815 65.8074C53.6764 65.5103 54.9682 65.1679 55.8919 64.3864C57.216 63.2657 57.1515 61.7962 56.5992 60.4075C56.0469 61.0599 55.3364 61.6186 54.5904 61.9577C54.5581 61.9739 54.5258 61.9771 54.4967 61.9739C54.1867 62.1644 53.9025 62.3259 53.7345 62.4325C52.8367 63.0073 51.9034 63.5273 50.9506 64.0279C49.2938 64.8999 47.495 65.5684 45.8414 66.4307C44.7983 66.5437 43.7551 66.6471 42.7152 66.7537C41.5784 66.8699 40.3963 66.97 39.2175 67.1154C39.3822 66.0625 38.5393 65.5749 38.3972 64.5156C38.3714 64.3186 38.4134 64.0731 38.4812 63.818C39.6987 63.5693 40.9421 63.4046 42.1694 63.2463C42.347 63.2237 42.4148 62.9686 42.2469 62.8911C41.0196 62.3065 40.0281 61.4927 39.2466 60.5367C39.4727 59.3288 39.6729 58.1177 39.8473 56.9002C39.9151 56.4157 39.9829 55.9249 40.0475 55.434C40.49 55.4146 40.9292 55.3855 41.362 55.3306C42.2146 55.2176 43.7099 54.9075 43.7454 53.9386C43.7842 52.9213 42.6635 52.2722 41.7883 51.8717C41.3684 51.6812 40.9389 51.4874 40.4997 51.3033C40.561 50.5605 40.6095 49.8145 40.645 49.0717C42.4665 49.4495 44.7563 49.6594 45.864 49.1201C46.229 48.9909 46.5487 48.8068 46.7683 48.542C47.4465 47.7249 45.8963 46.84 45.2633 46.4622C43.9166 45.658 42.3309 45.4222 40.8097 45.0024C41.391 44.5405 42.0402 44.1433 42.7539 43.8268C45.3505 42.6803 48.3637 42.7126 50.8376 44.0852C50.97 44.1562 51.0927 43.9915 50.97 43.9075C50.4371 43.5426 49.8655 43.2648 49.2712 43.0646C49.4715 42.9903 49.6717 42.9161 49.8946 42.8805C50.2757 42.8159 50.689 42.7998 51.0733 42.845C51.1767 42.8579 51.1832 42.7191 51.096 42.69C50.3531 42.4478 49.3714 42.3799 48.677 42.7901C48.6415 42.8127 48.6156 42.8386 48.5995 42.8708C45.8866 42.2249 42.825 43.0614 40.6385 44.6923C40.5933 43.8849 40.5223 43.0808 40.4189 42.2863C40.4125 42.2411 40.3511 42.2378 40.3479 42.2863C40.167 44.786 40.1315 47.2857 40.012 49.7822C38.8558 49.6078 36.6952 49.9372 36.3949 51.3485C36.2689 51.9428 36.8309 52.3917 37.2895 52.6533C38.0484 53.086 38.9269 53.1313 39.7795 53.1442C39.7698 53.2443 39.7633 53.3444 39.7536 53.4445C39.6567 54.3973 39.5373 55.3468 39.4081 56.293C39.4048 56.293 39.4016 56.2898 39.3952 56.2866C38.3165 56.054 37.0602 55.7149 35.9653 56.0185C35.2064 56.2284 34.2795 56.9422 34.47 57.84C34.6509 58.6894 35.7683 58.9833 36.4788 59.1835C37.0052 59.3321 38.2034 59.7422 38.8946 59.5388C38.8687 59.6809 38.8461 59.823 38.8203 59.9651C38.8171 59.9618 38.8171 59.9586 38.8138 59.9554C38.7848 60.2719 38.746 60.5851 38.6717 60.8952C38.662 60.9307 38.6491 60.9566 38.6297 60.9824C38.5038 61.638 38.3714 62.2936 38.2325 62.946C38.2325 62.9654 38.2325 62.9815 38.2293 63.0009C38.2196 63.0622 38.2067 63.1204 38.1937 63.1817C38.197 63.2108 38.2002 63.2399 38.1937 63.2722C38.1227 63.6629 38.0258 64.044 37.9225 64.4251C37.9128 64.4607 37.8999 64.4865 37.8805 64.5123C37.845 64.6706 37.8094 64.8321 37.7707 64.9903C37.7448 65.1001 37.7868 65.2099 37.8837 65.268C38.6588 65.8235 38.9527 66.4598 38.7654 67.1735C37.0634 67.4028 35.384 67.7452 33.8725 68.3943C33.4139 68.5913 32.9876 68.8335 32.6033 69.1113C32.5969 69.0919 32.5936 69.0725 32.5807 69.0564C32.3999 68.7334 32.1221 68.5299 31.9477 68.1973C31.712 67.7451 31.6764 67.2284 31.6797 66.7278C31.6926 65.5006 32.2255 65.0323 33.372 64.6835C33.5011 64.6447 33.4818 64.4348 33.3397 64.4413C33.1459 64.4477 32.9554 64.4639 32.7713 64.493C32.148 62.2775 31.4148 60.2137 31.1758 57.8852C31.0822 56.9583 31.0402 56.0217 31.0402 55.0852C31.1597 54.3165 31.2953 53.5479 31.4084 52.776C31.9348 52.8212 32.4548 52.7728 32.9521 52.5854C33.1976 52.4918 33.1879 52.0816 32.8875 52.0978C32.4257 52.1204 31.9671 52.101 31.5085 52.0493C31.5085 52.0429 31.5085 52.0397 31.5117 52.0332C31.473 52.0332 31.4342 52.0332 31.3955 52.0364C30.278 51.8943 29.18 51.5455 28.1336 51.0901C28.1142 51.0191 28.0528 50.961 27.9689 50.99C27.9592 50.9933 27.9463 50.9997 27.9366 51.003C27.507 50.8092 27.084 50.596 26.677 50.3732C26.606 50.3344 26.5543 50.4345 26.6157 50.4798C26.8999 50.6929 27.2196 50.9222 27.5555 51.1515C27.2325 51.271 26.9128 51.3485 26.5608 51.1774C26.4445 51.1192 26.3573 51.2742 26.4607 51.3517C26.8676 51.6456 27.5716 51.7781 27.9656 51.4163C28.2692 51.6069 28.5825 51.7974 28.9087 51.9686C28.8408 51.9621 28.7698 51.9557 28.702 51.9492C28.6471 54.2745 28.3112 56.5611 27.6136 58.783C27.3649 59.5711 27.0678 60.4463 26.7125 61.3215C26.6803 61.3344 26.6512 61.357 26.6254 61.3958C26.3767 61.8318 26.2087 62.3001 26.0505 62.7748C25.3916 64.0763 24.5746 65.2713 23.5476 66.0658C23.512 66.0948 23.5411 66.1497 23.5831 66.1304C23.8899 65.9786 24.1741 65.788 24.4421 65.5684C24.2742 65.7751 24.103 65.9818 23.9028 66.1659C23.6993 66.3532 23.4733 66.5179 23.2375 66.6697C23.1309 66.7278 23.0244 66.786 22.9146 66.8376C22.8952 66.8473 22.8855 66.8635 22.8823 66.8796C22.4495 67.0056 22.0038 67.1218 21.5581 67.1897C21.5226 67.1864 21.4871 67.1897 21.4483 67.2026C21.4386 67.2058 21.4322 67.209 21.4225 67.209C20.5214 67.3221 19.6333 67.222 18.8969 66.5986C17.2983 65.2454 18.574 61.9803 21.0026 62.5746C21.0737 62.5939 21.1092 62.5035 21.0414 62.4745C20.6571 62.3259 20.2986 62.271 19.9692 62.2936C19.995 61.0211 19.7754 59.7358 19.7496 58.4601C19.7366 57.9014 19.7399 57.3426 19.7528 56.7839C21.2901 57.2038 23.2763 57.3362 23.4345 55.5018C23.4927 54.8268 23.4055 54.0614 22.8403 53.5737C22.5012 53.2798 22.0135 53.0311 21.5032 52.86C21.3191 52.7921 21.1254 52.734 20.9348 52.7049C20.6538 52.6468 20.3793 52.6081 20.1274 52.6081C20.108 52.6081 20.0919 52.6113 20.0757 52.6145C20.1306 52.2205 20.1888 51.8297 20.2501 51.4389C21.7228 51.9525 24.2128 52.1333 24.4744 50.2182C24.6747 48.7584 23.3861 47.8735 21.9909 47.5247C21.9651 47.5021 21.9328 47.4859 21.8908 47.473C21.739 47.4343 21.5775 47.4149 21.4193 47.402C21.4096 47.402 21.3999 47.402 21.3902 47.402C21.2901 47.389 21.19 47.3729 21.0866 47.36C21.7067 45.2704 22.1814 43.1421 22.7983 41.0526C23.4377 38.8791 24.355 36.8024 25.2528 34.7129C25.2076 34.7387 25.1624 34.7613 25.1139 34.7839C25.2108 34.503 25.34 34.2285 25.4304 33.9443C25.6209 34.0056 25.818 34.0347 26.015 34.0088C26.2249 33.983 26.283 33.7053 26.0666 33.631C25.7211 33.5083 25.3787 33.463 25.0622 33.266C24.7651 33.0819 24.5261 32.83 24.3227 32.5458C24.623 32.6912 24.9266 32.83 25.2366 32.9592C25.3432 33.0044 25.4562 33.0464 25.566 33.0884L25.5693 32.7461C25.4046 32.675 25.2399 32.6007 25.0784 32.5232C23.68 31.8321 22.2331 30.8826 21.1738 29.6586C22.0684 29.2452 21.8714 28.2085 21.5032 27.498C21.3191 27.1427 21.0801 26.8165 20.6926 26.6777C20.3987 26.5743 19.9659 26.5517 19.6171 26.6325C19.5138 26.3353 19.4137 26.0318 19.3233 25.725C20.4439 25.444 21.5 24.6656 21.0995 23.3577C20.7863 22.3306 19.7076 21.7945 18.6709 21.6395C18.6741 21.2746 18.6999 20.9129 18.7452 20.5576C18.8291 20.2024 18.9163 19.8503 19.0261 19.5048C19.1682 19.0494 19.4234 18.5908 19.4815 18.1193C19.5881 18.0967 19.6947 18.074 19.798 18.0514C19.7463 18.1839 19.7108 18.326 19.6753 18.4551C19.5978 18.7167 19.5396 18.9816 19.4621 19.2432C19.4331 19.3465 19.5978 19.4014 19.6397 19.3045C19.7528 19.0558 19.8787 18.8136 19.9918 18.5649C20.0757 18.3809 20.1855 18.1742 20.192 17.9707C20.3115 17.9449 20.4342 17.919 20.5537 17.8932C20.5279 17.9578 20.5085 18.0256 20.4859 18.0934C20.4181 18.3098 20.3599 18.5165 20.318 18.7393C20.2954 18.8556 20.4471 18.8976 20.5053 18.8039C20.6183 18.6198 20.712 18.439 20.7992 18.242C20.8605 18.1063 20.9445 17.961 20.9284 17.8125C21.0898 17.7769 21.2513 17.7446 21.4128 17.7091C21.3353 17.8641 21.2965 18.0482 21.2578 18.2097C21.2352 18.313 21.374 18.3809 21.4419 18.3001C21.5904 18.1193 21.7777 17.8803 21.7648 17.6316C21.8488 17.6122 21.9328 17.5961 22.0167 17.5799C22.0103 17.6219 22.0006 17.6639 21.9941 17.7059C21.9747 17.8286 22.1362 17.8835 22.1976 17.7737C22.246 17.6897 22.288 17.6058 22.3203 17.5153C22.7079 17.4346 23.0954 17.3538 23.4862 17.2828C24.4389 17.1052 25.3949 16.9405 26.3508 16.7822C26.5478 17.1472 26.9871 17.454 27.3617 17.5121C27.8914 17.5961 28.35 17.1988 28.4888 16.7112C28.5631 16.9211 28.7601 17.1149 28.928 17.2053C29.2962 17.4055 29.7258 17.3474 30.0455 17.0858C30.2102 16.9534 30.3781 16.6982 30.4072 16.456C30.5138 16.7015 30.7463 16.8823 31.0111 16.9598C31.4504 17.0858 31.8864 16.9308 32.2093 16.624C32.416 16.4302 32.6744 16.0555 32.5678 15.7843C35.5164 15.316 38.4683 14.8541 41.4298 14.4924C41.4266 14.5086 41.4298 14.528 41.4363 14.5473C41.7754 15.5162 42.1371 16.4625 42.4342 17.4281C41.4911 17.5315 40.3479 17.9933 39.8667 18.8653C39.3822 19.7373 39.9409 20.6997 40.6547 21.2423C41.2296 21.6783 42.2566 22.0658 43.0252 21.8559C43.0091 22.2887 42.9671 22.7214 42.909 23.151C42.854 23.1316 42.7927 23.1316 42.7345 23.1607C42.0789 23.0831 41.3329 23.1058 40.7903 23.503C40.2445 23.9035 40.18 24.6043 40.5707 25.1404C40.7871 25.4375 41.1004 25.6313 41.4395 25.754C41.5235 25.7863 41.6268 25.8251 41.7366 25.8606C41.7269 25.867 41.7205 25.88 41.7269 25.8961C41.8206 26.0673 41.9272 26.2352 42.0402 26.4032C41.4298 27.8758 40.561 29.1871 39.5211 30.382C40.7677 29.51 41.7689 28.2666 42.4084 26.8844C42.4827 26.9683 42.5569 27.0523 42.6344 27.1298C42.7539 27.2461 42.8896 27.3785 43.0349 27.4948C42.1016 29.2355 40.6256 30.4531 39.0593 31.7869C37.7836 32.872 36.2625 34.2478 36.0041 35.8949C35.8781 36.7088 36.4691 37.2126 37.3153 37.3902C38.3908 37.6195 39.463 37.2191 40.3414 36.6862C41.4621 36.0112 42.4794 35.1715 43.5129 34.3932C43.5387 34.3738 43.5646 34.3544 43.5904 34.335C43.7842 34.1703 43.9812 34.0056 44.2008 33.8667C44.2331 33.8441 44.2621 33.8183 44.2944 33.7957C44.3138 33.7828 44.3332 33.7795 44.3558 33.7731C45.2988 33.0852 46.2677 32.3876 47.0687 31.5963C47.3593 31.9419 47.6468 32.2972 47.931 32.6492C46.8135 33.0787 45.7704 33.744 44.8435 34.4933C44.6723 34.7032 44.485 34.8938 44.2266 35.0197C44.049 35.178 43.8778 35.3362 43.7131 35.4977C42.867 36.3245 41.32 37.7552 42.192 38.9727C42.9283 39.9997 44.6885 39.4991 45.6186 38.9986C46.2742 38.6433 46.8749 38.1944 47.4401 37.7003C47.4465 37.7067 47.453 37.7132 47.4594 37.7196C47.482 37.7035 47.5047 37.6906 47.524 37.6744C47.5919 37.6034 47.6661 37.5356 47.7404 37.471C47.7566 37.4548 47.7727 37.4387 47.7921 37.4225C47.7856 37.4161 47.7792 37.4064 47.7727 37.3999C48.4961 36.7379 49.1711 36.0209 49.8396 35.3717C49.8881 35.3233 49.9075 35.2684 49.9107 35.2135C50.3435 35.7948 50.773 36.3761 51.1993 36.9607C51.0055 37.0253 50.8408 37.1512 50.6761 37.2804C50.6503 37.2998 50.6277 37.3192 50.6018 37.3386C49.9979 37.5323 49.3487 37.9005 48.8159 38.3623C48.6415 38.5432 48.4671 38.724 48.2894 38.9017C48.283 38.9114 48.2733 38.9178 48.2668 38.9275C47.7824 39.5282 47.5402 40.2064 47.8082 40.833C48.2249 41.8051 49.4779 41.7276 50.6955 41.3045C50.702 41.3142 50.7084 41.3206 50.7149 41.3303C50.8279 41.2916 50.9409 41.2528 51.0572 41.2238C51.0895 41.2108 51.1186 41.1947 51.1509 41.1818C51.1412 41.1688 51.1315 41.1559 51.1218 41.1462C52.0132 40.7781 52.8303 40.2678 53.2081 39.9061C53.4988 40.3744 53.7797 40.8491 54.0446 41.3303C53.7055 41.5984 53.3664 41.973 53.1338 42.3864C52.5234 43.1228 52.1908 44.0367 53.3276 44.4663C53.8024 44.6471 54.7389 44.7117 55.2686 44.4598C55.3493 44.4372 55.4268 44.4146 55.5011 44.392C55.6561 44.7828 55.8047 45.18 55.9371 45.5837C56.9124 48.5291 57.4356 51.5261 58.1203 54.52C58.1526 54.5393 58.1785 54.5684 58.1914 54.6104C58.2527 54.8236 58.3044 55.0367 58.3464 55.2499C58.6823 55.2886 59.0084 55.3823 59.3088 55.5211C61.4436 55.9991 63.0713 57.7237 63.5719 59.6615C64.2662 62.3614 62.7386 65.1389 60.7621 67.096C58.7727 69.066 56.189 70.4451 53.7055 71.8467C53.6732 71.8661 53.6376 71.8855 53.6054 71.9049C53.7216 71.5593 53.6699 71.133 53.5375 70.768C53.2985 70.1027 53.0047 68.7786 52.0939 68.5655C51.3027 68.3814 50.8118 69.0693 50.8376 69.6958C50.8731 70.6518 51.3705 71.8112 51.8517 72.7155C51.8549 72.7252 51.8581 72.7349 51.8581 72.7446C51.8743 72.7962 51.9001 72.8414 51.9324 72.8802C51.2639 73.2742 50.5921 73.665 49.9107 74.0396C49.8526 74.0202 49.7912 74.0138 49.7298 74.0041ZM46.891 66.3112C48.7997 65.7073 50.6761 64.7319 52.3394 63.818C53.3147 63.2819 54.2642 62.7005 55.1556 62.0578C55.5173 61.7995 56.1567 61.4571 56.4054 61.0405C56.5088 61.4378 56.5572 61.8415 56.5281 62.2452C56.3989 63.9859 54.684 64.7513 53.0434 65.197C51.0346 65.746 48.9677 66.0658 46.891 66.3112ZM38.6168 63.3723C38.6943 63.1333 38.7719 62.9008 38.8171 62.7038C38.9366 62.1483 39.0496 61.5895 39.1594 61.0308C39.8053 61.7736 40.574 62.426 41.475 62.9395C40.5223 63.0622 39.5631 63.1914 38.6168 63.3723ZM42.2243 25.9672C42.2017 26.0253 42.1758 26.0834 42.1532 26.1416C42.0434 26.0544 41.9304 25.9704 41.8206 25.8832C41.9562 25.922 42.0951 25.9575 42.2243 25.9672ZM72.0883 71.2816C70.438 72.835 69.0073 71.4269 67.2698 71.5432C66.1846 71.6142 65.0575 72.3247 64.0692 72.6477C62.6579 73.1063 61.2078 73.468 59.7351 73.7328C56.7897 74.2657 53.7927 74.3755 50.815 74.1171C52.1456 73.3646 53.4439 72.5572 54.7616 71.8144C57.3 70.3837 59.8837 68.8981 61.773 66.7666C61.9215 66.5986 62.0637 66.4242 62.2058 66.2466C63.5363 66.9733 64.9283 67.7871 66.3525 68.3491C67.1793 68.6753 67.7025 68.5364 68.5681 68.3685C69.1623 68.2554 69.7759 68.1392 70.3895 68.1392C72.2142 68.1488 73.561 69.8993 72.0883 71.2816Z" fill="#251C1C"/>
<path d="M33.0652 45.5902C32.8973 44.1272 32.429 42.6416 32.1028 41.2077C31.7508 39.6575 31.4989 38.0362 30.9563 36.5441C30.9466 36.5151 30.9305 36.4957 30.9079 36.4763C31.2114 36.1857 31.5021 35.8821 31.7831 35.572C31.993 35.3427 32.387 35.0133 32.3838 34.6581C32.3741 33.9702 30.9692 33.2887 30.4912 33.0756C30.4719 33.0659 30.4525 33.0659 30.4331 33.0626C30.4234 32.9819 30.3427 32.9141 30.249 32.9625C29.8033 33.1951 28.547 33.7247 28.6698 34.4029C28.744 34.8195 29.1154 35.2846 29.3318 35.6334C29.5127 35.9241 29.7129 36.2018 29.9196 36.4763C29.9131 36.4828 29.9067 36.4892 29.9002 36.4989C28.5858 38.8404 27.9205 41.4434 27.1551 44.0013C26.9258 44.7667 26.493 45.5741 26.7611 46.3589C27.1454 47.4925 28.476 48.7359 29.1897 49.7047C29.2705 49.8145 29.4126 49.8468 29.5159 49.7467C30.3039 49.0007 31.1049 48.2643 31.8832 47.5054C32.0705 47.4279 32.1965 47.2922 32.2611 47.1307C32.3547 47.0371 32.4516 46.9434 32.5453 46.8498C33.1266 46.2523 33.1492 46.3266 33.0652 45.5902ZM29.264 34.8292C28.9701 34.319 28.9895 34.1607 29.503 33.7764C29.7226 33.6117 29.9487 33.4599 30.178 33.3081C30.1877 33.3565 30.22 33.405 30.2781 33.4405C30.5688 33.6311 30.8788 33.7893 31.1662 33.9831C31.6668 34.319 31.9995 34.503 31.5602 35.1587C31.2502 35.6237 30.7658 36.0113 30.3621 36.415C29.9584 35.9144 29.587 35.3879 29.264 34.8292ZM30.052 36.6475C30.1037 36.7153 30.1554 36.7864 30.207 36.8542C30.2781 36.9414 30.4137 36.9155 30.4848 36.8542C30.5235 36.8219 30.5623 36.7864 30.6011 36.7508C30.7076 37.6584 30.8917 38.5659 31.1081 39.4669C30.9143 39.2925 30.7044 39.1278 30.5171 38.9502C30.1748 38.6272 29.8389 38.2946 29.5224 37.949C29.5191 37.9426 29.5127 37.9458 29.5062 37.9426C29.6806 37.5066 29.8583 37.0738 30.052 36.6475ZM30.9531 47.796C30.7561 47.9834 29.9132 48.9813 29.6516 49.0362C28.9604 49.1751 27.9819 47.4731 27.6654 46.9402C26.8935 45.6451 27.3456 44.7086 27.7526 43.3554C28.2338 44.2403 28.828 45.0767 29.3996 45.9003C29.8679 46.5785 30.3588 47.2438 31.0371 47.7218C31.0112 47.7476 30.9821 47.7702 30.9531 47.796ZM32.3902 46.1425C31.712 45.4901 30.9725 44.9152 30.3427 44.195C30.0036 43.8107 29.6839 43.4103 29.3674 43.0066C29.1574 42.7417 28.4082 42.028 28.2758 41.6211C28.4921 40.9009 28.715 40.1807 28.9572 39.4702C29.1542 39.777 29.5482 40.0741 29.7161 40.2388C30.2458 40.7588 30.9466 41.5791 31.6733 41.8051C31.6862 41.8084 31.6959 41.8084 31.7056 41.8084C31.7992 42.1733 31.8929 42.5383 31.9801 42.9C32.2352 43.9787 32.7423 45.1187 32.3902 46.1425Z" fill="#251C1C"/>
<path d="M31.1337 34.5352C31.0852 34.3608 30.885 34.293 30.7623 34.1896C30.5847 34.0443 30.449 33.8602 30.294 33.6955C30.2003 33.5986 30.0356 33.6277 29.971 33.7375C29.8774 33.8925 29.6481 34.1283 29.6771 34.3285C29.6255 34.3027 29.5673 34.3705 29.5996 34.4189C29.8128 34.7645 30.0356 35.1004 30.1939 35.475C30.2423 35.588 30.407 35.5848 30.4845 35.5138C30.6525 35.3523 30.801 35.1682 30.9464 34.9841C31.0368 34.8549 31.1789 34.7096 31.1337 34.5352Z" fill="#251C1C"/>
</g>
</svg>
