<svg width="24" height="39" viewBox="0 0 24 39" fill="none" xmlns="http://www.w3.org/2000/svg">
<path d="M3.12651 9.51055C2.77958 7.00582 3.16989 3.9138 2.52435 1.46731C2.41408 1.04851 1.18678 1.33721 0.764889 1.4004C0.370874 1.45988 -0.0423489 1.82292 0.00349568 2.26339C0.236435 4.51721 0.547437 6.63287 0.826841 8.90589C1.10005 11.1287 0.785955 13.6266 0.953226 15.86C1.29024 20.3546 1.73384 24.4949 1.688 29.0031C1.67561 30.2552 1.62603 31.6318 1.58019 32.8832C1.55727 33.5089 1.84598 34.0956 1.81438 34.7213C1.79828 35.0441 1.78094 35.3669 1.76235 35.6896C1.75244 35.8681 1.7388 36.0347 1.76296 36.2125C1.79889 36.4777 1.91719 36.7013 2.05348 36.9243C2.35705 37.4224 3.22314 37.6591 3.63822 37.1288C3.74602 36.9906 3.8693 36.8568 3.95851 36.7063C4.10347 36.4622 4.1382 36.2094 4.15864 35.9312C4.17908 35.6494 4.19025 35.3662 4.2045 35.0844C4.23362 34.5194 4.25899 33.9544 4.28067 33.3894C4.32466 32.2593 4.35566 31.1281 4.37239 29.9975C4.40646 27.7356 4.38665 25.4725 4.31231 23.2119C4.16177 18.6218 3.75718 14.0591 3.12651 9.51055Z" fill="#EF4036"/>
<path d="M8.38449 32.1914C8.46131 32.2595 8.54682 32.3116 8.63665 32.3494C8.64471 32.3717 8.65213 32.3934 8.66019 32.4157C8.79091 32.7843 9.10187 33.0612 9.50828 33.0612C9.87132 33.0612 10.2864 32.7911 10.3564 32.4157C10.4772 31.7676 10.5497 31.1184 10.5875 30.4673C10.7517 30.3905 10.8781 30.2473 10.9115 30.0293C10.958 29.7245 10.9598 29.4829 10.8712 29.1867C10.8062 28.9687 10.7498 28.7475 10.7027 28.5245C10.6358 28.2104 10.5949 27.9006 10.5714 27.5846C10.5658 27.4843 10.5603 27.3839 10.5541 27.2836C10.5355 26.8158 10.1693 26.4169 9.68736 26.4169C9.61797 26.4169 9.54922 26.4268 9.48293 26.4441C9.10936 26.2105 8.55611 26.3859 8.3814 26.8233C8.04562 26.6287 7.60697 26.6442 7.28296 26.9608C6.54078 27.6869 6.35306 28.8163 6.64051 29.792C6.93107 30.7758 7.63611 31.5279 8.38449 32.1914Z" fill="#39B100"/>
<path d="M23.261 32.5137C23.0064 29.4304 22.8843 26.3365 22.7078 23.2475C22.6818 22.7947 22.6117 22.3412 22.6241 21.8895C22.7053 18.9326 22.8088 15.9762 22.893 13.0193C22.9407 11.3379 22.9525 9.65526 23.0057 7.97388C23.0689 6.00132 23.1681 4.02567 22.9227 2.06179C22.8397 1.39519 23.0417 0.656101 22.543 0.065078C22.4538 0.0458729 22.3757 0.0142775 22.2983 0.014897C20.4069 0.0235703 18.5161 0.0353392 16.6247 0.0477296C16.5181 0.0489687 16.4116 0.0675559 16.305 0.068795C15.6124 0.0768487 14.9198 0.0960513 14.2278 0.0855195C13.0018 0.0663143 11.7732 -0.0365244 10.5509 0.0136567C9.00705 0.0774674 7.47065 0.307311 5.92742 0.374838C4.42013 0.440508 2.93205 0.88904 1.40431 0.594767C1.18253 0.55202 0.924176 0.625742 0.697431 0.693889C0.536356 0.742212 0.426115 0.81098 0.360446 0.920016L0.334371 0.921872C0.333132 0.941697 0.331934 0.962143 0.330075 0.981968C0.287328 1.08791 0.277399 1.22544 0.297224 1.40696C0.287931 1.529 0.282386 1.65105 0.283006 1.7731C0.287343 2.57352 0.317658 7.38224 0.318278 8.18328C0.318897 10.1849 0.279255 12.1872 0.310231 14.1889C0.339348 16.0555 0.429208 17.9215 0.510365 19.7875C0.5686 21.1455 0.662119 22.5023 0.728407 23.8609C0.793457 25.1928 0.812687 26.5279 0.908093 27.858C1.06483 30.04 1.28225 32.2182 1.44394 34.4002C1.53067 35.5686 1.55173 36.7413 1.60935 37.9122C1.63103 38.3614 1.77974 38.471 2.22022 38.388C2.87071 38.2647 3.5169 38.1191 4.1705 38.0225C5.22492 37.8664 6.27995 37.6855 7.34119 37.6155C9.94565 37.4439 12.5551 37.3509 15.1602 37.1849C17.3954 37.0424 19.6269 36.8423 21.8596 36.667C21.9018 36.6639 21.9433 36.6614 21.9854 36.6589C22.0034 36.6428 22.0269 36.6323 22.0573 36.6311C22.4959 36.6168 22.8986 36.4793 23.3211 36.3764C23.5447 36.3213 23.7727 36.3008 24.0001 36.2773C23.7423 35.0234 23.3657 33.7794 23.261 32.5137ZM2.88185 37.3218C2.41349 37.3218 2.1112 36.9464 2.06969 36.5096C1.95075 35.2607 1.82809 34.0123 1.75437 32.7597C1.68064 31.5076 1.68372 30.2562 1.68806 29.0029C1.70355 24.4364 1.73515 19.8724 1.39875 15.3152C1.07846 10.9773 0.552459 6.63571 0.723446 2.27924C0.740793 1.83938 1.08155 1.46705 1.53566 1.46705C1.96189 1.46705 2.36516 1.84062 2.34781 2.27924C2.25179 4.72449 2.3782 7.17098 2.56095 9.60941C2.72389 11.7827 2.9339 13.9522 3.08011 16.1268C3.23375 18.4178 3.29818 20.7118 3.31739 23.0078C3.33597 25.2951 3.31428 27.5817 3.30995 29.869C3.30623 32.0943 3.4828 34.2967 3.69406 36.5102C3.73557 36.9489 3.28887 37.3218 2.88185 37.3218ZM21.9891 36.0648C20.8746 36.1608 19.7582 36.2488 18.6474 36.3839C16.4481 36.6509 14.247 36.8714 12.0291 36.9123C10.6711 36.9377 9.31313 37.0077 7.95514 37.0666C7.52953 37.0845 7.10579 37.1471 6.67956 37.162C6.09349 37.1824 5.50678 37.1731 4.92009 37.1824C4.45607 37.1905 4.24109 36.9359 4.19772 36.5053C4.1302 35.8412 4.05338 35.1777 4.01187 34.5123C3.9146 32.9418 3.79749 31.3707 3.7597 29.7984C3.72377 28.3078 3.7969 26.8154 3.78947 25.3242C3.78265 23.9364 3.75413 22.5475 3.69775 21.161C3.61288 19.0813 3.47476 17.0034 3.39918 14.923C3.35582 13.7236 3.42579 12.5205 3.38242 11.3211C3.29755 9.00662 3.47041 6.68341 3.121 4.3757C3.01011 3.64219 3.03673 2.88451 3.03673 2.13799C3.03673 1.60644 3.35147 1.22792 3.8824 1.13747C4.66919 1.00303 5.46464 0.915678 6.25763 0.814696C6.73218 0.753983 7.20799 0.699466 7.6844 0.652382C8.31941 0.59043 8.95501 0.488211 9.59064 0.491309C11.1909 0.499362 12.7911 0.572466 14.3919 0.588574C15.9358 0.604681 17.4809 0.570607 19.0253 0.58052C19.7452 0.584856 20.467 0.622024 21.185 0.677781C21.9439 0.736636 22.1824 0.918156 22.3168 1.67397C22.4562 2.45952 22.5492 3.26057 22.5764 4.05789C22.6192 5.28454 22.5876 6.51367 22.5876 7.74156C22.5987 7.74156 22.6099 7.74218 22.621 7.74218C22.4965 11.8484 22.3342 15.9539 22.2617 20.0607C22.2245 22.138 22.3497 24.2183 22.3999 26.2974C22.4216 27.1772 22.4135 28.0587 22.4643 28.9366C22.5566 30.5312 22.678 32.1253 22.7994 33.7181C22.8298 34.1164 22.9147 34.5098 22.9648 34.9063C23.0714 35.7377 22.8478 35.9905 21.9891 36.0648Z" fill="#251C1C"/>
<path d="M16.5669 11.1996C16.7478 11.6283 17.083 11.5998 17.4392 11.5211C18.8065 11.22 19.939 9.78273 19.9315 8.36217C19.926 7.35421 19.5939 7.06303 18.5915 7.2427C17.5997 7.4205 16.8228 7.95515 16.233 8.7661C15.5949 9.64334 15.6104 10.0646 16.3123 10.8935C16.3984 10.9958 16.518 11.0825 16.5669 11.1996ZM16.365 9.63219C16.803 8.47059 17.7577 7.85788 19.0159 7.9347C19.1206 7.94089 19.2266 7.92169 19.3746 7.91116C19.6057 9.1979 18.7681 10.5509 17.5421 10.9301C17.215 11.0311 16.8451 11.1574 16.5812 10.8235C16.3079 10.4778 16.1971 10.077 16.365 9.63219Z" fill="#251C1C"/>
<path d="M18.4447 26.6781C18.4584 25.8653 18.345 25.7563 17.5428 25.7154C17.1729 25.6968 16.7999 25.7098 16.4301 25.7327C15.2617 25.8052 14.0926 25.8845 12.9248 25.97C11.2528 26.0914 9.58007 26.2017 7.91108 26.356C7.20916 26.421 6.90808 26.8714 6.9818 27.5727C7.12119 28.8948 7.24572 30.2187 7.40246 31.5389C7.4545 31.9806 7.71653 32.3542 8.201 32.3734C9.8229 32.4366 11.4423 32.5574 12.9936 32.6522C14.0778 32.597 15.0994 32.6125 16.0987 32.4719C16.7975 32.3734 17.4808 32.0983 18.1431 31.8313C18.5514 31.6659 18.8345 31.3301 18.7397 30.8159C18.4882 29.448 18.4212 28.0671 18.4447 26.6781ZM9.70702 31.8945C9.42266 31.8313 9.13959 31.7464 8.87134 31.6349C8.38006 31.4317 8.00464 31.1046 7.921 30.5452C7.79958 29.7336 7.64651 28.9227 7.59509 28.1061C7.54986 27.3918 7.68987 27.2239 8.3955 27.0362C9.03051 26.8671 9.6897 26.7897 10.4777 26.6465C10.5793 28.2121 10.7039 29.6394 10.7534 31.0693C10.7801 31.8592 10.4715 32.0642 9.70702 31.8945ZM14.5777 32.0079C13.7017 32.0543 12.8214 32.0388 11.9441 32.019C11.8221 32.0165 11.679 31.8629 11.5917 31.7452C11.4987 31.62 11.4182 31.459 11.4039 31.3072C11.2881 30.0905 11.1128 28.8719 11.1115 27.6539C11.1103 26.7723 11.3761 26.6224 12.2713 26.61C13.0952 26.5976 13.9198 26.6069 14.7902 26.6069C15.0399 28.152 15.2289 29.6803 15.2264 31.2279C15.2258 31.6609 15.0021 31.9856 14.5777 32.0079ZM17.4449 31.5432C17.0013 31.7861 16.51 31.9057 15.8973 31.8666C15.8125 31.0259 15.7294 30.2137 15.6495 29.4009C15.6105 29.0026 15.5498 28.6042 15.5473 28.2059C15.5429 27.6855 15.5869 27.1645 15.6098 26.6428C15.9221 26.5586 16.1215 26.478 16.3278 26.4526C17.5421 26.3058 17.9448 26.6478 17.9826 27.8614C18.0098 28.7411 17.9999 29.6227 18.0464 30.5018C18.0737 31.0042 17.8321 31.3307 17.4449 31.5432Z" fill="#251C1C"/>
<path d="M7.67197 17.546C7.49541 19.3748 7.93401 21.0457 9.18296 22.4316C10.1736 23.5312 11.308 24.3967 12.9243 24.1774C13.8083 24.0578 14.6193 23.7264 15.3249 23.1818C17.2944 21.6609 17.9015 19.4981 18.1264 17.1786C18.2168 16.0629 17.6983 15.2352 17.0336 14.4193C16.3942 13.635 15.569 13.1995 14.6614 12.8829C14.3294 12.7677 13.9285 12.728 13.5847 12.7912C12.6226 12.9696 11.9107 13.5891 11.2918 14.301C10.9591 14.6845 10.5912 14.9081 10.0844 14.9948C8.84661 15.2067 7.79154 16.3088 7.67197 17.546ZM13.2595 16.5752C13.3697 16.258 13.4391 16.0579 13.5171 15.8349C12.9187 15.5617 12.3958 15.3238 11.8847 15.0902C12.3171 13.674 13.9037 13.0012 15.271 13.5402C16.5435 14.042 17.8247 15.9514 17.6116 17.3967C17.3669 19.0614 16.9636 20.6343 15.8181 21.9322C14.7971 23.0876 13.5004 23.6086 11.9826 23.5789C11.1574 23.5628 10.4994 23.0889 9.97037 22.5325C8.79762 21.3009 8.02451 19.8804 8.15089 18.0881C8.23762 16.8608 8.88748 16.0307 9.94066 15.5487C10.9022 15.1088 12.407 15.5834 13.2595 16.5752Z" fill="#251C1C"/>
<path d="M13.4621 9.49168C14.0562 8.89941 14.4527 8.18139 14.5648 7.33884C14.6243 6.89465 14.4142 6.60285 13.9638 6.4046C13.9106 6.18963 13.8586 5.9728 13.7892 5.69092C13.4571 5.77517 13.1913 5.80181 12.9621 5.90775C11.8556 6.41762 11.4275 8.46018 12.2205 9.38574C12.6003 9.8287 13.0594 9.89313 13.4621 9.49168ZM13.9502 6.41885C14.1293 7.23043 13.9986 7.97881 13.4869 8.65161C13.2161 9.00783 13.2056 9.0165 12.6319 9.09332C11.9442 7.69569 12.5613 6.44859 13.9502 6.41885Z" fill="#251C1C"/>
<path d="M10.0446 10.4975C10.4256 10.0607 10.7954 9.58991 10.7508 8.94622C10.7564 8.40786 10.0904 7.35405 9.59602 7.15952C9.45786 7.10501 9.25095 7.0697 9.13882 7.13475C8.72312 7.37636 8.29505 7.67125 8.21389 8.17182C8.07698 9.01747 8.24117 9.81727 8.85574 10.4671C9.20639 10.8376 9.71436 10.8754 10.0446 10.4975ZM9.00814 8.14456C9.14691 7.95437 9.42938 7.73878 9.62391 7.75798C9.81224 7.77657 10.0353 8.05349 10.1332 8.26723C10.49 9.04844 10.1053 9.78196 9.18159 10.1785C8.51685 9.51185 8.515 8.82294 9.00814 8.14456Z" fill="#251C1C"/>
<path d="M5.85008 12.9134C6.64865 13.5825 7.44722 13.3402 7.79353 12.3862C7.85548 12.2152 7.86107 12.0237 7.90134 11.7914C7.78735 11.136 7.55441 10.4743 7.01047 10.0208C6.65487 9.7247 6.18651 9.53141 5.67602 9.7532C5.17855 9.96879 4.96604 10.3523 4.93569 10.8801C4.88798 11.722 5.24109 12.4029 5.85008 12.9134ZM5.67784 10.6775C5.9876 10.2098 6.58733 10.084 6.94913 10.496C7.18269 10.763 7.30784 11.1248 7.41316 11.3181C7.39334 11.569 7.39086 11.6496 7.37971 11.7282C7.30846 12.2468 6.88347 12.8434 6.56132 12.7919C6.10845 12.7188 5.8662 12.3806 5.69212 11.9599C5.51122 11.5213 5.38357 11.1211 5.67784 10.6775Z" fill="#251C1C"/>
</svg>
