<svg width="28" height="19" viewBox="0 0 28 19" fill="none" xmlns="http://www.w3.org/2000/svg">
<path d="M15.8899 4.86964C15.2772 4.53367 14.5719 4.59543 14.0359 5.05863C13.8197 5.24639 13.669 5.46502 13.5615 5.70465C13.4207 5.46378 13.2663 5.2291 13.0958 5.00306C12.5585 4.29281 11.5963 4.56456 11.4851 5.43909C11.3517 6.48901 11.8853 7.7304 12.8463 8.24795C13.0551 8.4567 13.3565 8.51846 13.6331 8.46287C14.7288 8.4394 15.46 7.00532 16.0653 6.22714C16.3926 5.80593 16.4284 5.16362 15.8899 4.86964Z" fill="#EF4036"/>
<path d="M27.826 1.91716C27.7976 1.04263 27.485 0.785708 26.5932 0.740005C23.4348 0.576958 20.2764 0.422572 17.118 0.261996C16.1743 0.213822 15.2318 0.119948 14.2881 0.108831C9.97473 0.0606579 5.66015 0.0371733 1.34681 0.000117056C0.478456 -0.0085294 -0.0329366 0.462085 0.00164922 1.32797C0.072056 3.09431 0.201784 4.8582 0.249957 6.62331C0.325305 9.41488 0.345068 12.2077 0.404358 14.9992C0.425357 16.0603 0.377193 17.1448 1.12449 18.1527C1.83721 18.0675 2.48446 17.9255 3.13171 17.9255C5.47119 17.9218 7.81189 17.9625 10.1526 17.9909C11.8374 18.0107 13.5223 18.0255 15.2059 18.065C16.2298 18.0885 17.2525 18.1614 18.2753 18.2009C19.3845 18.2441 20.4999 18.3726 21.5993 18.2874C22.8851 18.1873 24.1302 18.2565 25.3901 18.5011C26.7093 18.7567 27.1787 18.3603 27.1009 17.0275C26.865 12.9871 27.3356 8.99121 27.7617 4.9879C27.8692 3.97256 27.8605 2.93991 27.826 1.91716ZM26.0818 1.56882C25.9497 1.78252 25.8768 2.03821 25.7076 2.16049C23.8807 3.47846 22.065 4.81621 20.1936 6.06871C18.5273 7.18533 16.777 8.17349 15.0996 9.27406C14.1719 9.88426 13.3505 9.83978 12.5081 9.17277C9.61527 6.87899 6.45684 4.97306 3.39105 2.93373C2.66722 2.452 1.89894 1.96656 1.40362 1.16367C3.28361 0.332378 22.4034 0.668358 26.0818 1.56882ZM0.795909 2.28525C1.42587 2.68299 1.86435 2.95102 2.2942 3.23141C3.87403 4.2591 5.45637 5.28062 7.02508 6.32437C7.46605 6.61835 7.85016 6.99511 8.28248 7.30144C8.7988 7.66706 8.82846 8.10433 8.48013 8.56629C8.01322 9.18637 7.55003 9.82248 7.0053 10.3709C5.47488 11.9125 3.90493 13.4145 2.34486 14.9251C2.11512 15.1487 1.84953 15.3352 1.40115 15.7009C1.19487 11.1244 0.999719 6.81352 0.795909 2.28525ZM19.9466 17.4635C16.7869 17.4054 13.626 17.3313 10.4664 17.2597C7.88106 17.2004 5.29698 17.1349 2.71169 17.0682C2.51529 17.0633 2.3189 17.0225 2.07557 16.9929C2.12868 16.8323 2.13736 16.7014 2.2053 16.6198C3.80613 14.7102 5.28835 12.6968 7.23998 11.0997C7.86993 10.5846 8.3677 9.91019 8.94454 9.32841C9.83759 8.42918 9.96978 8.42299 11.0074 9.19129C11.7287 9.72489 12.4402 10.2721 13.1517 10.8205C13.8088 11.327 14.004 11.3294 14.6129 10.7724C14.9143 10.4969 15.1663 10.1548 15.4998 9.92749C16.2434 9.42229 17.0229 8.97021 17.7739 8.50577C18.9028 9.14931 23.9881 15.5106 24.5847 17.0534C23.0457 17.4128 21.5005 17.4931 19.9466 17.4635ZM26.881 4.82608C26.4043 8.20437 26.0152 11.5888 26.0114 15.0079C26.0102 15.4155 25.9769 15.8244 25.9497 16.4148C24.3513 14.9721 19.5698 8.88992 19.119 7.70536C21.5881 6.04894 24.0858 4.37275 26.5932 2.68917C27.154 3.43647 26.9749 4.15907 26.881 4.82608Z" fill="#251C1C"/>
</svg>
