<svg width="328" height="203" viewBox="0 0 328 203" fill="none" xmlns="http://www.w3.org/2000/svg">
<mask id="mask0" mask-type="alpha" maskUnits="userSpaceOnUse" x="0" y="0" width="120" height="203">
<rect width="120" height="202.909" fill="white"/>
</mask>
<g mask="url(#mask0)">
<path d="M81.7078 187.895C81.664 187.826 81.6139 187.757 81.5701 187.688C81.257 187.225 80.8 187.049 80.2552 187.156C79.9484 187.212 79.6604 187.206 79.385 187.162C79.385 186.385 78.834 185.577 77.9637 185.664C76.2857 185.84 74.2258 185.777 72.5479 186.329C73.0613 184.38 71.5211 182.13 69.2733 182.794C68.4907 183.026 68.0399 183.697 67.9898 184.486L67.9773 184.724C67.9773 184.737 67.9773 184.749 67.9773 184.768C67.9272 184.912 67.8834 185.063 67.8583 185.232C67.7519 186.034 68.09 186.799 68.6285 187.35C68.5095 187.394 68.4093 187.425 68.3467 187.456C67.7331 187.72 67.1133 187.964 66.4872 188.202C65.5793 188.547 65.3664 190.013 66.4872 190.27C68.1964 190.665 69.9683 190.389 71.5649 189.694C71.9593 189.524 72.3287 189.336 72.6355 189.117C72.7983 189.274 72.9987 189.387 73.2491 189.43C74.5389 189.65 75.6721 189.643 76.9619 189.524C77.5505 189.468 77.9512 189.537 78.5147 189.549C79.1533 189.562 79.8921 189.293 80.4932 189.481C81.3572 189.737 82.24 188.672 81.7078 187.895Z" fill="#47AD4B"/>
<path d="M72.3535 35.3921C68.9537 34.1701 66.0423 32.2464 62.7427 30.8678C61.2839 30.26 59.75 29.8401 58.2974 29.226C56.7447 28.5681 55.4924 27.5842 54.1338 26.613C54.14 26.5942 54.14 26.5691 54.1463 26.5503C54.6347 25.2218 52.6311 24.4887 51.9299 25.6166C51.6669 26.0114 51.429 26.425 51.2287 26.8511C50.8592 27.4589 51.0847 28.0041 51.5167 28.2861C51.6168 28.9816 52.1616 29.4516 52.8064 29.414C53.8207 30.9869 55.4737 31.9707 57.2267 32.7477C59.6122 37.8798 67.1944 40.3049 72.3597 39.1205C74.3445 38.6756 74.0314 35.9936 72.3535 35.3921Z" fill="#E5332A"/>
<path d="M49.2253 27.2144C49.3505 27.1643 49.4444 27.0703 49.4382 26.9074C49.4006 25.322 49.2628 23.7304 49.0625 22.1575C49.0374 21.9445 48.7682 21.8379 48.643 22.0447C47.7852 23.392 47.2843 24.8583 46.8022 26.3747C47.5598 26.757 48.3863 27.0452 49.2253 27.2144Z" fill="#1D1D1B"/>
<path d="M63.3125 19.0996C63.3188 18.9116 63.2311 18.7111 63.0183 18.6547C61.5281 18.2536 60.4825 17.5957 58.9423 18.3852C57.8028 18.9743 57.4647 20.1147 57.0077 21.1988C56.9137 21.3868 56.8261 21.5748 56.751 21.7628C56.6758 21.9069 56.6007 22.051 56.513 22.1889C56.4817 22.2453 56.5569 22.3079 56.6007 22.2578C56.6383 22.2139 56.6758 22.1638 56.7134 22.12C56.751 22.1325 56.7948 22.1325 56.8198 22.1012C57.2706 21.5685 57.6964 20.9858 58.2223 20.5283C59.1615 19.72 60.0818 19.8202 61.2151 20.0458C61.8662 20.1774 63.1936 20.3717 63.3689 19.463C63.3939 19.3377 63.3752 19.2061 63.3125 19.0996Z" fill="white"/>
<path d="M81.6131 41.2073C81.5317 41.0882 81.4315 41.0068 81.3376 40.9441C81.7696 40.3989 82.0326 39.7034 81.8259 39.0204C81.4816 37.8611 79.6095 37.7796 78.6391 37.4914C77.6248 37.1969 76.6981 37.1029 75.7277 37.153C76.8359 35.8684 77.8439 34.4835 78.6453 32.9922C79.4468 31.4883 80.5237 29.389 80.4548 27.647C80.3859 25.9802 79.2401 25.4287 77.894 24.6768C75.4397 23.3107 72.9791 21.9509 70.4997 20.6287C68.2144 19.4068 65.9479 18.0345 63.5624 17.0193C61.922 16.3175 60.0187 15.6909 58.3157 16.5306C56.8443 17.2575 55.974 18.893 55.1476 20.2402C54.2835 21.6439 53.3256 23.1478 52.6244 24.7144C52.399 23.3734 52.1297 22.0261 51.8229 20.7353C51.5224 19.4569 50.7648 18.2538 49.306 18.2663C47.7783 18.2789 46.8391 19.5948 46.1817 20.7979C45.9626 21.199 45.7122 21.6439 45.468 22.1139C43.7837 19.3755 39.0003 20.7917 38.8688 24.1441C38.7812 26.3875 40.2212 28.1546 42.1308 29.389C42.1559 29.6585 42.1934 29.9279 42.2435 30.1974C40.672 31.2815 39.2758 32.9358 38.3241 34.5775C38.1425 34.7405 38.0236 34.9598 37.9797 35.2042C37.9171 35.3232 37.8483 35.4486 37.7919 35.5676C37.7606 35.6303 37.7418 35.6992 37.7356 35.7556C35.9574 38.4125 34.9682 41.3514 34.6864 44.3154C31.7688 43.4506 28.6821 42.9744 25.6768 43.1123C25.4075 43.1248 25.4075 43.5258 25.6768 43.5321C28.7509 43.5822 31.7312 43.9143 34.6551 44.7164C34.5925 45.5749 34.5925 46.4271 34.6489 47.2794C34.5925 47.2668 34.5362 47.2543 34.4798 47.2418C30.9298 46.4835 26.9478 46.1138 23.3602 46.7843C23.141 46.8282 23.1849 47.1916 23.4165 47.1791C27.2295 46.8971 30.8171 46.7843 34.5862 47.5927C34.6113 47.5989 34.6426 47.6052 34.6676 47.6115C34.8367 49.7044 35.3564 51.7535 36.1891 53.6835C35.0245 54.9994 33.6721 56.7039 33.1587 58.3331C32.8018 59.4736 33.2902 59.8934 33.9727 60.896C34.3233 61.4161 34.6676 61.9425 35.012 62.4626C35.012 62.4689 35.0057 62.4689 35.0057 62.4689C34.3546 64.3738 34.3859 66.5044 34.0728 68.4845C33.7535 70.5023 33.3653 72.5138 32.902 74.5002C31.9441 78.636 30.767 82.7341 29.5649 86.801C27.1418 95.0161 24.7063 103.212 22.5525 111.509C22.4523 111.898 22.6777 112.23 22.9908 112.386C22.9282 112.499 22.8593 112.606 22.7967 112.718C22.7779 112.756 22.7716 112.787 22.7591 112.825C22.7215 112.869 22.6777 112.913 22.6401 112.957C22.2081 113.445 22.7716 114.31 23.3727 113.909C26.8977 111.565 29.9218 108.37 32.8645 105.349C36.0764 102.053 39.1005 98.5753 41.9555 94.9722C47.4339 88.0605 52.3426 80.6286 56.356 72.7644C56.7504 72.683 57.1386 72.5827 57.508 72.4323C58.7852 71.9122 59.2611 70.9785 59.6117 69.7065C60.0813 68.0083 60.6824 65.9905 60.8013 64.1044C61.1895 63.954 61.5777 63.8036 61.9596 63.6282C63.3183 63.0078 64.5955 62.2057 65.7726 61.2658C66.7055 62.0866 67.6196 62.9263 68.5462 63.7785C68.7278 63.9477 68.9783 63.6908 68.8155 63.5091C68.0203 62.5879 67.1312 61.7295 66.1921 60.9148C67.15 60.094 68.0328 59.1916 68.8029 58.2015C68.8718 58.1138 68.9282 58.0323 68.9908 57.9446C69.2725 57.7441 69.4478 57.4872 69.523 57.1739C70.3745 55.8391 70.9505 54.4417 71.4013 52.9504C71.4389 52.9253 71.4827 52.9002 71.514 52.8564C72.7412 51.4339 73.5175 49.2031 73.7304 47.2167C74.3064 47.2794 74.8824 47.3169 75.4522 47.3232C76.1096 47.6303 76.7733 47.9248 77.4369 48.188C79.14 48.8585 81.4065 49.1968 82.6462 47.4987C84.0674 45.5937 82.8089 42.8553 81.6131 41.2073ZM45.7435 25.6731C45.8812 25.2282 46.0941 24.7144 46.0628 24.2444C46.883 22.2768 47.8034 19.5509 49.306 19.7327C50.6584 19.8956 50.5269 22.6904 50.6459 23.6178C50.7961 24.8334 50.8587 26.0554 51.0654 27.2585C51.0654 27.2648 51.0716 27.271 51.0716 27.2773C51.0841 27.6909 51.0904 28.1107 51.0967 28.5243C49.1057 28.5807 46.9769 27.9227 45.2927 26.8387C45.468 26.4689 45.6182 26.0742 45.7435 25.6731ZM43.6773 30.3415C44.7542 31.0747 45.9313 31.6888 47.0207 32.2841C50.4267 34.1389 53.8453 35.9812 57.2701 37.8047C60.6949 39.6219 64.1447 41.4078 67.5883 43.1937C69.1786 44.0146 70.7752 44.917 72.3843 45.7817C72.0086 45.7504 71.6392 45.719 71.2698 45.6877C70.0051 45.5749 68.6464 45.3305 67.3817 45.5436C67.3879 45.5123 67.4005 45.4872 67.4067 45.4559C66.8683 45.1237 66.286 44.8668 65.6849 44.6726C65.015 44.1838 64.2512 43.7828 63.4748 43.413C59.9185 41.7337 56.2558 40.3175 52.712 38.613C50.7773 37.6794 48.8865 36.6768 46.9894 35.6679C46.3195 35.3107 45.6495 34.8658 44.9295 34.7906C44.9233 34.7843 44.917 34.7781 44.917 34.7781C44.4787 33.3932 44.0342 31.9269 43.4582 30.5671C43.5333 30.4856 43.6084 30.4167 43.6773 30.3415ZM57.1448 48.3196C57.6019 48.1065 58.0652 47.8245 58.5285 47.5049C58.3783 47.2981 58.347 47.0036 58.5599 46.8344C59.4427 46.1389 60.457 45.6376 61.346 44.942C61.8281 44.353 62.761 45.2428 62.1975 45.7942C61.3022 46.6653 60.2128 47.223 59.067 47.7055C58.9543 47.7493 58.8479 47.7431 58.7477 47.6992C58.228 47.9373 57.6958 48.1441 57.1636 48.3697C57.1386 48.3697 57.1198 48.3321 57.1448 48.3196ZM55.2102 47.4736C55.1851 47.4861 55.1601 47.4485 55.1851 47.436C56.8443 46.5337 58.1216 44.8543 59.9185 44.1963C60.4256 44.0083 60.9015 44.7854 60.4632 45.1363C58.9606 46.3206 56.8694 46.5713 55.2102 47.4736ZM43.3956 40.5619C44.2345 40.0606 45.1174 39.6345 45.9751 39.1645C46.7264 38.7509 47.4778 38.0804 48.3042 37.8674C48.6987 37.7671 49.1182 38.2245 48.8615 38.5942C48.3293 39.365 47.3338 39.7034 46.4948 40.0543C45.5494 40.4491 44.5601 40.7561 43.5583 40.9566C43.4018 40.988 43.3016 40.8626 43.2954 40.7436C43.2015 40.7937 43.1013 40.8439 43.0074 40.9002C42.9823 40.9128 42.9573 40.8752 42.9823 40.8627C43.0888 40.8063 43.1952 40.7499 43.2954 40.6872C43.3142 40.6308 43.3455 40.5869 43.3956 40.5619ZM44.5226 41.577C45.1612 40.9316 46.2944 40.6997 47.1021 40.2799C48.0225 39.7974 48.9053 39.2334 49.8131 38.7258C50.5019 38.2433 51.1718 39.3838 50.4768 39.86C49.5189 40.5117 48.5985 41.2261 47.5967 41.8089C46.8266 42.26 45.7121 42.9368 44.798 42.6047C44.366 42.448 44.1782 41.9217 44.5226 41.577ZM34.7365 58.3081C34.9243 57.224 35.9699 55.9269 36.7463 54.8553C38.3241 57.9258 40.7409 60.6015 43.8777 62.4939C43.1702 64.7623 42.3813 67.0057 41.5235 69.2177C40.2275 66.8678 38.7874 64.6245 37.1783 62.4563C36.3206 61.3033 34.4673 59.8558 34.7365 58.3081ZM38.5432 46.1138C40.2212 46.872 41.7677 47.7744 43.2703 48.7833C42.8634 49.1154 42.5378 49.5352 42.3374 50.0115C40.4842 49.0652 38.5307 48.3196 36.5272 47.7619C36.5084 47.6491 36.4896 47.5363 36.4708 47.4172C36.5084 47.4297 36.5397 47.4485 36.5773 47.4611C37.4789 47.8245 38.5119 47.2418 38.5495 46.2329C38.5495 46.189 38.5432 46.1514 38.5432 46.1138ZM46.7828 51.1582C46.0753 50.3937 45.2676 49.6981 44.4099 49.0527C45.0047 48.8083 45.6996 48.7519 46.332 48.9211C47.9724 49.3535 49.0305 50.6945 49.8507 52.0981C49.9634 52.2799 50.1387 52.3112 50.2952 52.2611C50.1199 52.4992 49.9759 52.7373 49.8695 52.9754C48.2792 54.7112 44.0091 54.0971 43.1075 51.9227C43.5521 52.0919 43.9966 52.2673 44.4474 52.4679C44.5476 52.5117 44.629 52.3864 44.5351 52.3175C44.0342 51.9603 43.5145 51.7034 42.9886 51.5028C42.9823 51.4778 42.9698 51.4527 42.9698 51.4276C42.926 51.1645 42.9385 50.9201 42.9823 50.6882C43.6585 51.0391 44.3285 51.4026 44.9859 51.7911C45.1048 51.86 45.205 51.6846 45.0923 51.6094C44.4349 51.177 43.7524 50.776 43.0575 50.4C43.2265 49.9237 43.5646 49.5478 43.9904 49.2783C44.9045 49.9112 45.8123 50.5692 46.7264 51.2459C46.7703 51.271 46.8204 51.1958 46.7828 51.1582ZM51.585 53.8715C53.6261 53.577 55.5045 54.5483 57.2701 55.4506C57.652 55.6449 58.0339 55.8517 58.4096 56.0584C58.3658 56.3968 58.1904 56.7289 57.8336 57.0485C56.0679 55.9519 54.1771 55.1561 52.1986 54.5232C52.1235 54.4981 52.0922 54.6109 52.1673 54.6423C53.9642 55.3316 55.8926 56.1462 57.5706 57.2553C57.5017 57.3054 57.4266 57.3556 57.3515 57.3994C56.9445 57.6438 56.4499 57.7879 55.9239 57.8443C55.0349 56.8355 53.8828 56.0271 52.6932 55.3692C52.5743 55.3065 52.4741 55.4757 52.5868 55.5509C53.6449 56.2339 54.6655 56.9733 55.4857 57.8694C52.7558 57.907 49.3436 55.8141 50.4267 53.2449C50.5332 53.107 50.6271 52.9629 50.7147 52.8062C52.2675 52.6934 53.8703 52.6308 55.3792 53.0632C56.525 53.389 58.1654 54.4731 58.4033 55.6323C57.627 55.2188 56.8381 54.8303 56.0366 54.4668C54.5903 53.8151 53.1252 53.295 51.5349 53.6585C51.3909 53.696 51.4535 53.8903 51.585 53.8715ZM50.1137 56.0208C49.5314 56.4282 48.6674 56.7039 48.1227 56.0835C47.7595 55.6762 47.7846 55.0997 47.4903 54.6673C48.2541 54.5921 48.9804 54.3665 49.5815 53.9843C49.5064 54.7237 49.7192 55.413 50.1137 56.0208ZM45.2488 74.6443C45.4429 74.6193 45.637 74.5879 45.8374 74.5629C42.2936 80.7226 38.7123 86.8699 35.012 92.9357C32.4637 97.1153 29.7965 101.22 27.2107 105.374C32.3573 94.5461 37.1345 83.5362 41.968 72.5639C42.256 72.4448 42.5127 72.2067 42.638 71.9059C43.7524 69.1049 44.7041 66.2725 45.5055 63.3775C45.6495 63.4464 45.7935 63.5216 45.9376 63.5905C46.4071 63.8036 46.8892 63.9916 47.3713 64.167C45.7622 67.1623 45.2238 70.9785 44.8794 74.2746C44.8481 74.4501 45.061 74.6631 45.2488 74.6443ZM30.9861 86.2934C32.0568 82.1764 33.1587 78.0845 34.0165 73.9237C34.6864 70.659 35.876 66.5044 35.4252 63.1018C37.2409 65.8903 38.9502 68.7415 40.5092 71.6866C36.308 82.6213 31.4495 93.2427 26.3467 103.77C27.9495 97.955 29.4647 92.1273 30.9861 86.2934ZM40.3589 93.9445C37.7418 97.2406 34.9744 100.411 32.0943 103.482C30.4915 105.193 28.776 106.803 27.0855 108.432C30.3913 103.852 33.4029 99.0579 36.402 94.2579C40.528 87.6469 44.485 80.942 48.1915 74.0804C49.3311 73.8109 50.4643 73.5101 51.6101 73.2971C52.4115 73.1467 53.2818 73.1028 54.1521 73.0464C50.0698 80.3592 45.5619 87.3775 40.3589 93.9445ZM58.203 67.0621C58.0715 67.8328 58.1278 69.1488 57.7209 69.813C56.9194 71.1415 55.7111 71.2166 54.3587 71.3984C52.3364 71.6741 50.2201 72.0877 48.2103 72.7143C47.8347 72.3383 47.1585 72.2569 46.8078 72.8584C46.7264 73.0025 46.6388 73.1467 46.5574 73.2971C46.3195 73.3911 46.0878 73.4788 45.8562 73.579C46.8016 70.6527 47.9787 67.5446 48.3981 64.5054C51.7102 65.508 55.2102 65.6334 58.5599 64.825C58.4284 65.5644 58.3282 66.3227 58.203 67.0621ZM61.4399 61.46C61.0956 61.6355 60.7387 61.7859 60.3881 61.9362C60.0562 61.7107 59.5992 61.7107 59.3738 62.1744C59.3487 62.2308 59.3237 62.2872 59.2987 62.3373C55.254 63.6845 50.8337 63.4214 46.8892 61.6793C41.0414 59.0976 37.5164 53.8715 36.5835 48.1128C38.537 48.6705 40.4153 49.4099 42.2373 50.2997C42.1496 50.5942 42.112 50.9013 42.1246 51.2209C40.8035 50.8699 39.426 50.7697 38.0361 50.4313C37.8483 50.3874 37.7105 50.6694 37.8983 50.7572C38.825 51.1645 39.8205 51.1269 40.8035 51.2835C41.2731 51.3587 41.7301 51.4715 42.1747 51.6031C42.5754 53.7149 44.9984 54.8052 47.2211 54.6861C46.9706 55.3754 47.3713 56.3843 47.9348 56.8041C48.7112 57.3869 49.7631 57.1363 50.5019 56.6224C50.5269 56.6036 50.5394 56.5848 50.552 56.566C51.8292 57.9634 54.127 58.8156 56.0742 58.5963C56.5563 59.2731 56.9257 60.0438 57.1135 60.9336C57.1636 61.1592 57.5017 61.0652 57.4579 60.8396C57.2826 59.9812 56.932 59.2167 56.4624 58.5399C56.9194 58.4522 57.3515 58.2955 57.7397 58.0699C57.9212 57.9634 58.084 57.8443 58.228 57.7128C59.3613 58.5587 60.3442 59.5613 61.0392 60.7958C61.1269 60.9462 61.3899 60.8459 61.3272 60.6767C60.8076 59.3044 59.6743 58.2767 58.4785 57.4558C58.7602 57.1363 58.9418 56.7791 59.0357 56.4031C59.762 56.8167 60.4757 57.2553 61.177 57.7128C62.2038 58.3833 63.1743 59.1101 64.1072 59.8684C63.2306 60.4699 62.3353 61.0088 61.4399 61.46ZM72.2465 48.2068C72.0399 48.1504 71.827 48.1253 71.7269 48.1065C71.4576 48.0501 71.1947 47.931 70.9254 47.8746C70.2931 47.7368 69.5918 47.7431 69.0471 48.1378C68.3208 48.6579 68.3146 49.5854 69.0471 50.1055C69.6357 50.519 70.5122 50.8574 71.2761 50.7822C71.1759 51.0329 71.0757 51.2835 70.9881 51.5342C70.9755 51.5216 70.9693 51.5091 70.963 51.5028C70.2493 50.8637 69.116 50.682 68.1831 50.7446C67.3316 50.8073 66.0543 51.1081 66.0168 52.1671C65.9855 53.1384 67.006 53.6334 67.7073 54.0846C68.108 54.3415 68.7153 54.7613 69.3038 54.9618C69.1536 55.1561 69.0096 55.3504 68.853 55.5383C68.6965 55.4569 68.54 55.3817 68.3709 55.3128C67.5445 54.9242 66.5364 54.5796 65.6975 54.6172C65.0839 54.6485 64.1322 54.9368 63.9005 55.5885C63.4936 56.7415 64.7646 58.0135 65.9354 58.4772C65.4783 58.8595 65.0025 59.2229 64.5266 59.5676C63.287 58.6214 61.9972 57.7504 60.7137 56.9545C60.1877 56.6287 59.643 56.3154 59.1046 56.0083C59.1672 55.1248 58.7602 54.2036 57.9463 53.5206C56.2245 52.0856 53.8891 51.8914 51.7102 51.9853C52.2362 51.7911 52.7308 51.5091 53.1065 51.083C53.551 50.5817 53.7576 49.7608 53.2317 49.2282C52.712 48.6955 51.8856 48.9462 51.3721 49.341C51.128 49.529 50.9339 49.7483 50.7648 49.9927C50.721 49.5415 50.6646 49.0966 50.5895 48.6517C50.5019 48.1692 50.3266 47.6115 49.713 47.7431C49.4876 47.7932 49.3373 47.8934 49.2371 48.0376C49.187 48.0689 49.137 48.1002 49.0869 48.1441C48.755 48.4198 48.6799 48.8585 48.7362 49.3535C47.7595 48.4574 46.5574 47.8747 45.1299 48.0062C44.6102 48.0564 44.1093 48.2256 43.6711 48.495C42.0494 47.3796 40.2588 46.4459 38.4869 45.6877C38.3554 45.2428 38.0737 44.8418 37.7919 44.4846C37.3912 43.9833 36.9905 43.5885 36.4082 43.3316C36.4583 42.7676 36.5272 42.2099 36.6211 41.6459C36.9028 41.9718 37.2785 42.2475 37.5665 42.4167C38.2991 42.8428 39.3384 43.3128 39.9895 42.517C40.6595 41.7023 40.0334 40.8376 39.4761 40.1859C38.9878 39.6157 38.3867 39.0642 37.7293 38.7008C37.6291 38.6444 37.5227 38.613 37.41 38.588C37.5665 38.1368 37.7293 37.6919 37.9234 37.2533C38.1551 37.6355 38.562 37.93 38.9502 38.1055C39.6389 38.4125 40.4341 38.3373 40.9537 37.7671C41.5235 37.1405 41.3795 36.2945 40.9162 35.6616C40.6407 35.2794 40.2776 34.8658 39.8518 34.5963C40.2713 34.001 40.7033 33.412 41.1791 32.8668C41.6049 32.3781 42.0745 31.9269 42.5441 31.4757C42.8947 32.7415 43.4143 33.9948 43.934 35.1666C43.3079 36.2381 42.5879 37.2658 42.1747 38.4439C41.7051 39.7786 41.8866 41.3765 42.5816 42.6673C42.9573 43.0684 43.3768 43.4318 43.8025 43.7577C45.3177 44.917 47.603 46.1013 49.569 45.719C50.4831 45.5373 51.2469 44.9608 51.8981 44.2277C52.0546 44.0585 52.2049 43.8767 52.3489 43.6888C52.7809 43.413 53.0877 42.918 53.1879 42.3979C53.2442 42.2976 53.3006 42.2036 53.3569 42.1034C53.4195 42.0031 53.4759 41.9029 53.5322 41.7963C53.9705 41.9906 54.4025 42.1786 54.847 42.3666C54.4902 43.0433 54.1896 43.7953 54.0018 44.5598C53.7701 45.1363 53.6136 45.7128 53.7138 46.283C53.7514 46.4898 53.814 46.6778 53.8891 46.8595C54.0268 47.6177 54.3649 48.3384 54.991 48.9462C55.9928 49.9237 57.4767 50.5065 58.7352 51.0705C58.7352 51.0705 58.7414 51.0705 58.7414 51.0767C61.2396 51.9728 64.1885 52.1357 65.7538 49.6543C66.3298 48.7394 66.5677 47.4924 67.1062 46.5086C67.1187 46.4585 67.1375 46.4083 67.15 46.3645C68.2457 46.7404 69.4353 46.7279 70.5936 46.847C71.2573 46.9159 71.9335 47.0099 72.6097 47.0976C72.4719 47.4736 72.3655 47.8433 72.2465 48.2068ZM73.1857 37.2846C73.073 37.4099 73.0041 37.5415 72.9728 37.6794C71.1446 38.0491 69.2788 37.6355 67.4756 37.1781C65.5096 36.683 63.5937 35.9687 61.778 35.0538C59.211 33.7629 56.8756 32.0773 54.822 30.0846C54.5152 29.5144 53.9141 29.0256 53.4571 28.6496C53.0626 28.3238 52.7245 28.048 52.424 27.6282C52.2299 27.3525 52.0859 27.0768 51.8355 26.8825C51.8543 26.8261 51.873 26.7697 51.9106 26.7071C52.1172 26.4 52.3301 26.1055 52.5304 25.7984C52.568 25.7483 52.6118 25.7045 52.6619 25.6669C52.9186 26.0115 53.263 26.3311 53.5197 26.6381C53.7639 26.9326 54.0206 27.2084 54.2898 27.4653C54.2898 27.4778 54.2961 27.4841 54.2961 27.4966C54.8408 28.0731 55.4606 28.5807 55.9615 28.9943C57.7772 30.5044 59.5679 32.1212 61.5401 33.4371C63.1304 34.5023 64.8647 35.2731 66.6679 35.8496C68.4774 36.5452 70.6312 36.9211 72.2904 37.0778C72.6097 37.1217 72.929 37.1655 73.2483 37.2031C73.2295 37.2345 73.2107 37.2595 73.1857 37.2846ZM74.1687 41.7086C74.0873 41.3702 74.0309 41.0256 73.9808 40.6809C74.2125 40.7185 74.4567 40.7373 74.6946 40.7624C75.0828 40.8125 75.471 40.8564 75.8654 40.894C75.3708 41.2762 74.8386 41.5958 74.2563 41.859C74.225 41.8151 74.2 41.7587 74.1687 41.7086ZM80.148 40.518C80.0603 40.5995 79.9476 40.6621 79.8349 40.7248C78.4325 42.0031 76.7983 42.9368 75.2143 43.9645C74.9576 43.5258 74.6946 43.0935 74.488 42.6235C74.5694 42.5734 74.6445 42.5232 74.7259 42.4794C74.7196 42.4731 74.7134 42.4668 74.7071 42.4606C75.6025 42.0595 76.4101 41.5457 77.1364 40.8752C77.4244 40.612 77.1677 40.2235 76.8484 40.1859C76.1785 40.1044 75.5023 40.048 74.8261 39.9979C74.5193 39.9728 74.1875 39.9227 73.8807 39.9415C73.8181 39.4778 73.7241 39.0266 73.5613 38.6005C74.8386 38.4439 76.1597 38.4313 77.4369 38.4627C78.301 38.4815 80.3296 38.3561 80.6363 39.4778C80.6489 39.5154 80.6489 39.5467 80.6551 39.5843C80.7428 39.7974 80.6176 40.1107 80.148 40.518Z" fill="#1D1D1B"/>
<path d="M47.4407 120.532C47.4344 119.505 47.6223 118.408 46.6643 117.832C45.2806 116.992 42.3004 117.406 40.7288 117.368C37.9927 117.299 35.2942 117.293 32.5707 117.6C31.2621 117.744 31.187 119.718 32.5707 119.699C35.7575 119.649 38.9131 119.304 42.0875 119.085C42.8388 119.035 43.6027 119.016 44.354 118.941C44.6858 118.897 45.0239 118.853 45.3557 118.803C46.0382 118.439 46.3074 118.546 46.1697 119.122C46.3012 119.486 46.0883 120.182 46.0445 120.539C45.8879 121.786 46.1759 121.917 45.0427 122.331C43.8531 122.763 41.956 122.588 40.6913 122.613C39.245 122.644 37.7861 122.663 36.3461 122.588C34.7683 122.506 31.9759 122.744 31.4875 121.027C31.1682 119.887 31.4562 118.439 31.2684 117.236C31.1932 116.754 30.4106 116.779 30.3167 117.236C30.0287 118.684 29.5841 120.927 30.1602 122.325C30.3668 122.82 30.7049 123.145 31.1244 123.371C31.1181 123.396 31.1118 123.415 31.1056 123.44C30.9741 126.467 31.0054 129.462 31.4061 132.463C31.4312 132.651 31.7066 132.664 31.7066 132.463C31.7818 129.518 31.7317 126.573 31.7567 123.628C32.3265 123.797 32.9526 123.86 33.5349 123.941C35.745 124.255 38.024 124.248 40.2467 124.06C41.9435 123.922 44.9488 124.173 46.5078 123.352C47.6223 122.763 47.4469 121.717 47.4407 120.532Z" fill="#1D1D1B"/>
<path d="M41.3732 138.573C41.2668 138.629 41.1541 138.68 41.0477 138.736C40.9037 138.811 41.0289 139.024 41.1729 138.955C41.2793 138.899 41.392 138.849 41.4984 138.792C41.6424 138.723 41.5172 138.504 41.3732 138.573Z" fill="#1D1D1B"/>
<path d="M45.6311 127.588C45.5559 127.206 44.9924 127.244 44.8985 127.588C44.191 130.126 44.5229 133.121 44.2787 135.741C44.2599 135.929 44.5604 135.96 44.6042 135.785C45.1928 133.278 46.1257 130.176 45.6311 127.588Z" fill="#1D1D1B"/>
<path d="M43.4838 136.392C40.2656 136.969 37.085 138.241 33.9482 136.599C33.7729 136.505 33.6351 136.75 33.7979 136.862C36.8533 138.918 40.5286 138.416 43.7593 137.038C44.1537 136.869 43.8532 136.324 43.4838 136.392Z" fill="#1D1D1B"/>
<path d="M13.6305 172.561C13.6117 172.518 13.5303 172.499 13.5178 172.561C13.1797 174.379 13.2548 176.259 12.9543 178.095C12.6913 179.693 12.2029 181.096 11.5768 182.588C11.3264 183.183 12.2468 183.484 12.5661 183.007C13.4489 181.691 13.6367 180.075 13.7807 178.527C13.9748 176.597 14.363 174.398 13.6305 172.561Z" fill="#1D1D1B"/>
<path d="M91.2492 59.6176C84.4873 57.5685 78.5142 62.3811 75.7969 68.2401C72.6852 74.945 73.2737 83.016 70.9571 89.9465C70.8069 90.1659 70.713 90.4103 70.7067 90.6546C70.5189 91.1685 70.3122 91.676 70.0868 92.1711C69.9992 92.2964 69.9303 92.4468 69.8802 92.6035C69.467 93.4557 68.9974 94.2828 68.4464 95.0787C67.6951 85.0588 66.662 74.4437 61.8786 65.4829C61.7409 65.226 61.3464 65.4014 61.4153 65.6771C63.3186 73.297 64.8776 80.8667 65.8356 88.6056C65.7542 88.6181 65.6728 88.6369 65.5852 88.6557L63.9635 88.9878C63.5566 89.0693 63.6755 89.6646 64.0574 89.6834C64.5834 89.7147 65.1093 89.7398 65.6352 89.7711C65.7479 89.7774 65.8669 89.7836 65.9796 89.7899C66.0046 89.9841 66.0172 90.1784 66.0422 90.3789C65.6791 90.2473 65.222 90.2411 64.8902 90.1909C64.7211 90.1659 64.5521 90.3664 64.7086 90.5105C64.8714 90.6546 65.0279 90.805 65.1907 90.9492C65.2658 91.0181 65.341 91.087 65.4098 91.1497C65.4036 91.1685 65.3911 91.1873 65.3848 91.2186C65.3284 91.3189 65.2658 91.4191 65.2032 91.5131C65.0655 91.7199 64.934 91.8891 64.7336 92.0395C64.4519 92.2526 64.2453 92.6599 64.4832 92.992C64.9403 93.6374 65.654 93.863 66.3553 93.5309C66.4116 94.1763 66.4679 94.8217 66.518 95.4734C66.8687 100.248 67.188 105.023 67.4885 109.804C67.6263 112.004 67.7139 114.222 67.5636 116.428C67.357 119.442 66.374 121.855 64.9903 124.505C64.8401 124.793 64.9465 125.069 65.1406 125.232C62.0163 126.31 58.2096 126.442 56.3063 123.954C56.2436 123.766 56.1372 123.59 55.9869 123.471C55.6175 122.845 55.3421 122.08 55.2043 121.165C54.6095 117.186 55.2857 112.643 55.436 108.633C55.461 108.044 54.5719 108.056 54.5281 108.633C54.2902 111.866 53.9771 115.1 53.7455 118.333C53.614 120.156 53.614 121.98 54.3528 123.603C53.6265 123.922 52.9503 124.449 52.3868 124.956C52.1927 125.132 51.9861 125.32 51.792 125.514C51.8922 124.399 52.0112 123.283 52.1427 122.174C52.3305 121.272 52.5183 120.369 52.6936 119.467C53.2446 116.641 53.8457 113.815 54.2338 110.964C54.3465 110.149 54.6596 107.179 54.5344 104.466C54.5406 104.422 54.5406 104.372 54.5469 104.328C54.3027 102.579 54.0961 100.825 53.8582 99.0766C53.5576 97.7042 53.2446 96.3382 52.9879 94.9659H52.9816C52.9816 94.9533 52.9816 94.9408 52.9816 94.9283C52.8564 94.2828 52.75 93.6374 52.6561 92.9857C52.6623 93.9758 52.6811 94.9596 52.6936 95.9497C51.8046 95.0348 51.1096 94.0322 50.8654 92.7163C50.8403 92.5847 50.64 92.616 50.6337 92.7476C50.6087 94.3518 51.0532 95.9998 52.2553 97.1403C52.3993 97.2719 52.5559 97.3157 52.7061 97.2969C52.7249 99.4776 52.6999 101.652 52.5246 103.82C52.5246 103.977 52.5246 104.09 52.5183 104.14C52.3993 105.813 52.2053 107.486 51.9799 109.147C51.5792 112.067 51.0595 114.974 50.615 117.888C49.7196 123.797 49.2688 129.713 49.3627 135.691C49.4567 141.775 50.0014 147.835 50.7089 153.875C51.2911 158.801 51.8484 163.714 52.8126 168.564C52.7562 168.551 52.6936 168.545 52.631 168.557C49.1186 169.084 45.7438 168.933 42.2439 168.376C41.9058 168.319 41.5677 168.282 41.2359 168.25C41.2296 168.188 41.2234 168.125 41.1983 168.05C40.2341 165.111 40.9354 161.251 40.9479 158.174C40.9667 155.129 40.9729 152.083 40.9667 149.038C40.9667 148.775 40.5659 148.775 40.5597 149.038C40.4971 152.083 40.4407 155.129 40.4032 158.174C40.3593 161.22 40.9604 165.18 39.9586 168.05C39.9398 168.094 39.9398 168.138 39.9273 168.175C38.2556 168.131 36.6215 168.275 34.8684 168.313C33.7915 168.338 32.7146 168.294 31.6377 168.213C31.6502 168.169 31.669 168.131 31.669 168.075C31.7504 164.44 31.4874 160.781 31.2495 157.153C31.237 156.958 30.949 156.958 30.949 157.153C30.9552 160.8 30.7486 164.434 30.7048 168.075C30.7048 168.1 30.711 168.112 30.7173 168.131C26.5913 167.749 22.4527 166.928 18.3517 167.267C17.5691 159.114 20.5932 151.187 20.2425 142.972C20.0547 138.492 19.7417 134.049 19.9984 129.562C20.2739 124.781 21.1128 119.993 22.0583 115.306C22.1021 115.093 21.8203 115.024 21.7389 115.219C18.0887 124.436 18.4644 133.71 18.8964 143.423C19.1218 148.474 18.8902 153.186 18.0073 158.155C17.3437 161.865 16.9054 165.85 18.2515 169.441C17.4752 169.635 17.3625 171.102 18.2828 171.233C20.6871 171.584 23.0976 171.866 25.5081 172.073C25.0135 175.657 26.2344 179.749 28.3131 182.663C28.5885 183.045 29.1583 182.719 28.9517 182.293C27.2862 178.872 26.4848 175.776 25.7836 172.098C29.3273 172.386 32.8774 172.499 36.4399 172.424C36.4337 172.524 36.4462 172.624 36.4712 172.724C36.6465 173.332 37.1286 173.733 37.6921 173.978C38.0553 174.134 38.3808 174.272 38.7878 174.285C38.9506 174.291 39.1009 174.266 39.2386 174.228C39.2386 174.297 39.2323 174.366 39.2323 174.429C39.0758 174.379 38.9193 174.341 38.7502 174.329C38.1993 174.285 37.6608 174.335 37.1036 174.347C36.8031 174.354 36.5213 174.36 36.227 174.454C36.0079 174.517 35.8138 174.629 35.651 174.792C35.3943 175.143 35.3818 175.143 35.6135 174.799C35.338 174.861 35.1 175.225 35.2127 175.5C35.338 175.808 35.3067 176.14 35.4945 176.44C35.7262 176.804 36.0517 177.042 36.4211 177.255C37.1286 177.669 37.9175 177.9 38.744 177.857C38.8316 177.85 38.9193 177.838 39.0069 177.819C38.8003 179.248 38.4309 180.639 38.1054 182.049C36.7592 181.88 35.338 181.992 34.3362 182.187C33.8979 182.274 34.0169 182.926 34.4364 182.939C35.7512 182.97 37.1662 182.92 38.4121 183.402C39.5642 183.853 40.1715 184.605 40.7287 185.608C40.6974 185.639 40.6661 185.677 40.6411 185.721C39.9774 186.955 39.6143 187.927 38.0553 188.34C37.9238 188.378 37.7923 188.403 37.6546 188.422C37.1411 188.422 36.6215 188.409 36.1081 188.403C35.6197 188.34 35.1439 188.234 34.6993 188.121C32.8523 187.651 28.8202 186.291 29.0268 183.816C29.0393 183.659 28.7952 183.634 28.7576 183.778C28.5635 184.486 28.6136 185.132 28.8327 185.708C28.7576 185.646 28.6699 185.583 28.5635 185.539C25.2201 184.104 21.0627 184.28 17.5002 184.474C17.2372 184.486 12.9046 184.674 11.9717 185.476C11.9654 185.257 11.9529 185.038 11.9153 184.806C11.8652 184.48 11.3456 184.562 11.3456 184.881C11.3644 188.177 8.15244 190.684 4.91547 189.938C2.51122 189.387 1.78494 187.175 0.250982 185.564C0.269766 185.483 0.294808 185.401 0.326114 185.32C0.501424 185.382 0.720561 185.345 0.820738 185.169C1.97277 183.183 4.07649 183.114 6.14264 183.239C6.52457 183.264 6.62474 182.625 6.23655 182.556C4.12658 182.187 0.708038 181.986 0.157065 184.643C0.0318441 184.612 -0.105897 184.656 -0.18103 184.8C-0.268684 184.975 -0.337559 185.151 -0.368864 185.339C-0.575479 185.426 -0.732004 185.646 -0.700699 185.903C-2.42875 185.514 -4.43229 185.877 -6.07269 186.166C-7.80074 186.466 -10.3427 187.294 -9.62271 189.631C-9.05295 191.48 -6.32313 192.119 -4.67647 192.426C-3.48687 192.651 -1.94039 192.858 -0.556695 192.67C8.00844 193.673 16.7927 193.616 25.4017 193.629C29.6842 193.635 33.973 193.566 38.2556 193.447C40.5472 193.384 42.845 193.303 45.1365 193.209C46.5202 193.153 48.2044 193.215 49.4316 192.445C51.4038 191.21 51.3287 188.459 49.5005 187.156C47.3154 185.595 44.2662 185.877 41.7743 186.736C41.7681 186.523 41.7305 186.297 41.6679 186.053C41.8369 185.953 41.9622 185.777 41.9684 185.558C42.031 183.521 40.591 182.556 38.8567 182.174C40.2404 179.511 40.9228 176.027 40.4532 173.05C40.5033 172.787 40.4783 172.505 40.3906 172.261C40.9166 172.255 41.4362 172.261 41.9496 172.305C43.5274 172.449 44.9487 173.194 46.5077 173.42C49.25 173.821 51.8985 172.844 54.4029 171.828C54.8412 171.653 55.1167 171.271 54.9977 170.782C53.3949 164.146 53.038 157.015 52.3993 150.222C51.7607 143.417 51.2598 136.599 51.4915 129.756C51.5103 129.23 51.5353 128.71 51.5666 128.19C52.2804 127.707 52.9002 127.056 53.614 126.567C54.2213 126.153 54.9601 125.821 55.5737 125.389C55.7928 125.621 56.0245 125.834 56.2624 126.028C53.8018 126.949 52.5997 132.47 55.5424 132.958C55.3671 133.754 55.4923 134.575 56.1247 135.29C57.3644 136.687 59.3742 136.11 60.5074 134.895C61.0647 135.622 61.8849 136.167 62.7802 136.154C63.9698 136.136 65.0279 135.07 64.9152 133.936C66.086 134.957 68.3964 134.456 69.0225 132.952C69.9115 130.822 68.6593 127.394 66.6057 126.235C66.8499 126.091 67.0878 125.934 67.3195 125.771C68.0332 125.257 67.4322 124.211 66.6307 124.593C66.4492 124.681 66.2676 124.762 66.0798 124.837C67.0878 122.87 67.7577 120.639 68.2085 118.358C68.2523 118.345 68.3024 118.327 68.3463 118.302C75.6216 114.404 80.3988 107.003 84.9694 100.361C89.8781 93.2301 94.3109 85.5915 96.4709 77.1319C98.0738 70.991 98.9065 61.9361 91.2492 59.6176ZM52.9816 169.366C53.0568 169.742 53.1319 170.111 53.2196 170.487C50.3457 171.553 47.9477 171.985 44.8548 170.907C42.3128 170.024 39.7395 170.299 37.0973 170.375C30.9364 170.55 24.763 170.224 18.646 169.435C18.5521 168.915 18.4707 168.401 18.4143 167.881C20.9751 168.532 23.7425 168.595 26.3596 168.821C29.3148 169.077 32.3201 169.46 35.2941 169.341C36.6904 169.284 38.074 169.009 39.4765 169.052C40.9541 169.096 42.4067 169.479 43.8655 169.667C46.8708 170.055 49.8887 169.905 52.8752 169.416C52.9128 169.403 52.9441 169.385 52.9816 169.366ZM67.3695 130.465C67.5198 131.003 67.7264 132.037 67.3445 132.532C67.044 132.921 65.7354 133.071 65.4224 132.564C65.0968 132.037 64.2578 132.338 64.3517 132.94C63.9823 132.808 63.5315 133.021 63.3813 133.428C63.2435 133.798 62.9868 134.35 62.5297 134.312C61.9913 134.274 61.409 133.604 61.2274 133.134C60.9582 132.438 60.0566 132.532 59.8751 133.103C59.681 133.121 59.4743 133.197 59.2803 133.36C58.7982 133.761 57.9717 134.506 57.4207 133.823C56.8698 133.14 57.1327 132.181 57.427 131.461C57.6086 131.016 56.9261 130.646 56.6256 130.991C56.4941 131.141 56.3689 131.304 56.2499 131.473C55.5236 131.022 55.7302 129.512 55.8805 128.823C56.0809 127.92 56.6005 127.306 57.1891 126.636C59.5933 128.052 62.6487 128.014 65.2721 126.924C65.2846 126.974 65.2971 127.018 65.3222 127.068C65.9232 128.29 66.9814 129.105 67.3695 130.465ZM95.3252 70.1701C94.7304 70.0448 94.1669 70.1638 93.5533 70.2453C93.2402 70.2891 92.971 70.4834 92.971 70.828C92.971 71.1163 93.2402 71.4484 93.5533 71.4108C94.1356 71.3419 94.7053 71.3168 95.2438 71.11C95.1874 71.6176 95.1123 72.1252 95.0184 72.6265C94.6239 72.7142 94.242 72.827 93.8413 72.9523C93.0712 73.1967 93.3842 74.3622 94.1731 74.1617C94.3672 74.1116 94.5488 74.0615 94.7366 74.0113C94.5175 74.9951 94.2608 75.9539 94.0166 76.8688C92.0006 84.2881 88.2439 91.1121 84.0365 97.4974C79.6475 104.152 74.9955 111.822 68.5278 116.71C68.7845 115.031 68.9348 113.351 69.0225 111.753C69.2792 107.179 68.9974 102.548 68.6656 97.9674C68.6719 97.9612 68.6718 97.9612 68.6781 97.9549C69.4044 97.1152 70.018 96.2317 70.5689 95.3168C71.6271 96.9084 73.5805 98.193 74.8453 99.3147C75.6341 100.01 77.2119 100.098 77.7191 98.945C78.6269 96.8771 77.7566 95.1664 76.5921 93.3867C75.6592 91.9706 74.6073 90.1972 73.0108 89.5455C73.2362 88.7622 73.424 87.9664 73.5993 87.1643C74.1565 87.6969 74.8953 88.1042 75.4964 88.38C76.8237 88.9941 78.2137 89.251 79.66 89.3888C81.1188 89.5267 81.8326 87.7596 81.2378 86.6379C80.5428 85.3283 79.5536 84.2943 78.389 83.392C77.3559 82.5962 75.8971 81.299 74.5134 81.7502C74.6512 80.7476 74.7826 79.7513 74.9204 78.7549C74.9705 78.3915 75.0206 78.0218 75.0769 77.6458C77.5751 79.2688 85.0508 82.0134 84.8692 77.3199C84.7941 75.4714 83.0973 74.0427 81.6448 73.1528C80.2861 72.3257 78.1887 71.2917 76.4606 71.3607C78.0071 66.3602 80.8308 61.767 86.328 60.9649C89.9407 60.4385 93.6597 62.0928 94.8556 65.721C95.0873 66.4228 95.2313 67.156 95.3001 67.8954C94.6427 67.8515 93.9227 67.9706 93.3342 67.9894C92.8145 68.0082 92.8145 68.779 93.3342 68.7978C93.9415 68.8228 94.6865 68.9419 95.3565 68.8917C95.3627 69.3241 95.3502 69.744 95.3252 70.1701Z" fill="#1D1D1B"/>
<path d="M15.2957 170.588C11.2198 171.17 7.27532 171.509 3.19937 171.571C3.36841 171.139 3.18684 170.575 2.66718 170.456C1.50888 170.193 0.369369 170.487 -0.795189 170.619C-1.97227 170.744 -3.14935 170.838 -4.33269 170.888C-5.11532 170.92 -7.338 171.289 -7.7387 170.406C-7.90149 170.042 -7.76375 169.328 -7.78253 168.902C-7.7888 168.77 -7.80132 168.645 -7.81384 168.513C-7.69488 168.451 -7.60096 168.338 -7.57592 168.175C-7.338 166.803 -7.63853 165.474 -7.66357 164.102C-7.68236 162.799 -7.57592 161.489 -7.53835 160.185C-7.4507 157.391 -7.38183 154.602 -7.24408 151.807C-6.9686 146.13 -6.43015 140.465 -5.69134 134.826C-4.60192 126.517 -3.02413 118.295 -1.47138 110.061C-1.79696 109.967 -2.09123 109.836 -2.36045 109.685C-4.10729 117.963 -5.61621 126.297 -6.83711 134.669C-7.63853 140.171 -8.3022 145.698 -8.70291 151.243C-8.90326 154.026 -9.03475 156.827 -9.02222 159.622C-9.01596 161.113 -8.87822 162.604 -8.84691 164.096C-8.82187 165.199 -8.95961 166.289 -8.82813 167.373C-9.01596 168.52 -9.30397 170.124 -8.89074 171.214C-8.50255 172.236 -7.38809 172.242 -6.44267 172.373C-4.93375 172.58 -3.41231 172.718 -1.89087 172.712C-1.43382 172.712 -0.945455 172.718 -0.45083 172.706C-0.557269 173.959 -0.432048 175.394 -0.0939503 176.804C-0.457092 177.318 -0.319349 178.113 0.250407 178.527C0.319279 178.577 0.400672 178.627 0.482066 178.665C0.982951 179.974 1.67167 181.171 2.51691 182.061C2.71726 182.274 3.14928 182.055 3.03658 181.76C2.66718 180.808 2.17881 179.912 1.74054 178.997C1.93463 179.016 2.1162 179.016 2.29151 179.009C3.13049 178.972 3.90687 178.796 4.53923 178.226C5.43456 177.424 4.77089 175.582 3.4999 175.72C2.92388 175.782 2.4543 176.008 1.89707 176.139C1.50888 176.233 1.13322 176.246 0.745031 176.321C0.644855 175.945 0.557199 175.563 0.475806 175.181C0.73251 175.35 1.01426 175.482 1.30853 175.582C2.38543 175.945 3.57503 175.695 4.21992 174.717C4.77715 173.871 4.18861 172.818 3.33085 172.53C2.66718 172.305 2.09116 172.561 1.45253 172.643C1.45879 172.637 1.34609 172.643 1.30227 172.643C1.12696 172.643 0.957906 172.668 0.782597 172.693C0.995473 172.668 0.5572 172.712 0.457024 172.737C0.319281 172.774 0.187798 172.837 0.0625763 172.906C0.0437927 172.912 0.031271 172.931 0.0187492 172.937C-3.43323e-05 172.85 -0.0188179 172.768 -0.0376005 172.681C0.763815 172.643 1.55897 172.536 2.27273 172.254C2.30403 172.261 2.32908 172.267 2.36038 172.279C2.44178 172.33 2.52943 172.236 2.50439 172.16C2.51065 172.16 2.51691 172.154 2.51691 172.154C2.78614 172.373 2.98649 172.536 2.52317 172.148C2.55448 172.129 2.59204 172.117 2.62335 172.098C2.77361 172.104 2.95518 172.091 3.21815 172.142C4.55801 172.392 6.2172 172.179 7.58211 172.117C10.218 171.997 12.879 171.741 15.4648 171.202C15.878 171.12 15.6964 170.531 15.2957 170.588Z" fill="#1D1D1B"/>
<path d="M16.7553 167.291C15.2714 167.536 13.7813 167.686 12.2911 167.787C12.4226 164.735 12.2912 161.99 11.9343 158.964C11.9092 158.744 11.5711 158.738 11.5899 158.964C11.809 161.84 11.8403 164.904 11.7151 167.787C11.7151 167.799 11.7214 167.805 11.7214 167.818C9.51124 167.949 7.30108 167.981 5.08467 168.062C5.1598 167.975 5.22241 167.868 5.25371 167.73C5.59181 166.276 5.16606 165.242 4.87179 163.82C4.48986 161.996 4.40847 160.148 4.40221 158.299C4.38343 154.928 4.31456 151.569 4.45856 148.198C4.47108 147.878 3.98898 147.885 3.9702 148.198C3.71976 151.551 3.47558 154.934 3.56949 158.299C3.61332 159.916 3.6321 161.514 3.54445 163.131C3.45053 164.779 3.03104 166.182 3.67593 167.73C3.73854 167.887 3.85124 168.012 3.98272 168.112C2.94965 168.163 1.91031 168.225 0.877234 168.325C0.839667 168.169 0.726967 168.037 0.539135 168.05C-1.84007 168.2 -4.30693 168.1 -6.66108 167.705C-7.26215 167.605 -7.53137 168.513 -6.91779 168.639C-4.40084 169.134 -2.02164 169.19 0.514091 168.777C0.557918 168.833 0.620531 168.871 0.714447 168.877C3.68219 169.021 6.66246 168.927 9.6302 168.846C12.0783 168.777 14.6703 168.852 17.0809 168.401C17.7884 168.257 17.4753 167.172 16.7553 167.291Z" fill="#1D1D1B"/>
<path d="M87.1349 177.612C87.1286 177.431 86.8469 177.424 86.8469 177.612C86.8719 180.664 85.7449 182.613 83.8478 184.887C83.253 185.602 82.7646 186.304 82.3827 187.062C79.8971 186.341 75.6333 183.452 73.035 184.862C72.9786 184.474 72.8659 184.092 72.6969 183.747C72.0958 182.538 70.7873 181.911 69.4662 182.111C68.1952 182.306 67.2184 183.208 66.9805 184.474C66.8741 185.05 66.9117 185.683 67.1183 186.235C67.3186 186.755 67.6379 186.98 68.0073 187.25C67.0744 187.638 66.0915 188.227 65.3902 188.954C65.3526 188.936 65.3213 188.917 65.2838 188.904C65.2838 188.898 65.2838 188.892 65.29 188.892C65.2462 188.885 65.2024 188.879 65.1586 188.879C65.146 188.879 65.1335 188.873 65.121 188.873L64.4323 188.785C64.3196 188.773 64.2006 188.741 64.0879 188.741C63.8876 188.741 63.7623 188.835 63.6121 188.954C63.4368 189.092 63.3992 189.437 63.5244 189.625C63.7248 189.913 63.9439 189.957 64.2695 190.013C64.4698 190.045 64.6702 190.082 64.8768 190.114C64.9582 190.132 65.0396 190.145 65.1272 190.151C65.1586 190.157 65.1961 190.151 65.2274 190.145C65.2587 190.327 65.3902 190.49 65.6469 190.502C68.4519 190.646 71.2568 190.552 74.0618 190.433C76.5662 190.327 79.271 190.458 81.694 189.775C81.7629 189.756 81.813 189.719 81.8568 189.669C82.1385 189.882 82.6019 189.85 82.6833 189.412C83.2092 186.711 84.9185 185.144 86.1081 182.813C86.9408 181.184 87.2225 179.423 87.1349 177.612ZM74.0618 189.073C71.2881 189.199 68.5145 189.299 65.7534 189.593C65.7596 189.568 65.7596 189.543 65.7596 189.518C65.7596 189.512 65.7596 189.512 65.7596 189.506C66.7739 189.13 67.7819 188.409 68.527 187.663C68.5395 187.651 68.5521 187.632 68.5646 187.613C68.8588 187.638 69.0905 187.225 68.7649 187.024C68.2703 186.717 68.0887 185.539 68.1451 185.019C68.2265 184.236 68.7461 183.603 69.5163 183.402C70.2676 183.214 71.2005 183.459 71.6513 184.123C72.1772 184.906 71.9393 185.796 71.5699 186.579V186.586C71.5511 186.636 71.5261 186.673 71.5073 186.724C71.3883 187.018 71.5574 187.219 71.7953 187.287C71.9706 187.394 72.1897 187.4 72.3838 187.206C72.5153 187.068 72.6217 186.924 72.7157 186.767C75.1074 184.336 78.9767 188.121 81.8318 188.509C81.7879 188.666 81.7504 188.823 81.7128 188.986C81.7128 188.986 81.7128 188.986 81.7065 188.986C79.2021 188.566 76.5725 188.961 74.0618 189.073Z" fill="#1D1D1B"/>
<path d="M69.8172 187.751C69.6983 187.645 69.6044 187.607 69.4478 187.588C69.1536 187.551 68.853 187.707 68.853 188.039C68.853 188.372 69.1536 188.534 69.4478 188.491C69.5981 188.472 69.6983 188.428 69.8172 188.328C69.9738 188.19 69.9738 187.889 69.8172 187.751Z" fill="#1D1D1B"/>
<path d="M8.37741 86.1804C8.67168 85.654 8.9096 85.0901 9.1663 84.5449C9.32283 84.2065 8.84073 83.912 8.65916 84.2504C8.37741 84.783 8.07688 85.3094 7.8327 85.8608C7.76383 86.0049 7.81392 86.1428 7.90157 86.2368C7.85148 86.2619 7.80139 86.3057 7.76383 86.3621C4.1825 92.2399 1.06449 98.6065 -0.582167 105.324C-0.613472 105.443 -0.60095 105.543 -0.569644 105.631C-0.945308 107.279 -1.22079 108.952 -1.37732 110.619C-1.40862 110.932 -0.882697 111.008 -0.826348 110.694C-0.519556 109.077 -0.206502 107.473 0.137856 105.875C0.238033 105.819 0.325688 105.731 0.375777 105.587C2.60471 99.0827 4.97766 92.7162 8.35237 86.7068C8.44629 86.5438 8.38993 86.3872 8.27723 86.2932C8.3148 86.2681 8.35237 86.2305 8.37741 86.1804Z" fill="#1D1D1B"/>
<path d="M32.5765 56.4907C29.878 55.3063 26.2653 55.5883 23.4103 55.958C20.1671 56.3779 17.0616 57.2301 14.05 58.5022C8.37749 60.8896 2.47331 64.6055 -1.17689 69.6875C-1.62768 70.3204 -0.644698 71.041 -0.118768 70.5021C2.07886 68.2713 4.15128 66.0907 6.73709 64.2797C9.26656 62.5063 12.0089 61.0212 14.9078 59.9622C17.6501 58.9533 20.549 58.2327 23.4416 57.8066C25.0319 57.5747 26.641 57.3993 28.2438 57.3304C29.6714 57.2677 31.0989 57.3617 32.5076 57.0734C32.7518 57.0108 32.8207 56.5972 32.5765 56.4907Z" fill="#1D1D1B"/>
</g>
<path fill-rule="evenodd" clip-rule="evenodd" d="M151.224 56.2513C132.687 53.8798 115.963 68.6058 116.964 87.2666C117.169 91.0772 118.102 94.6746 119.62 97.9353C116.061 102.463 110.784 105.761 108.291 106.717C107.171 106.916 106.711 107 107.185 107C107.426 107 107.806 106.903 108.291 106.717L108.363 106.704C110.924 106.248 116.747 105.21 122.814 103.231C128.524 110.755 137.787 115.394 147.917 114.829C177.447 113.183 223.34 111.177 257.301 112.245C268.823 112.608 283.048 113.452 295.637 114.307C312.529 115.454 327 102.136 327 85.2046C327 69.5229 314.533 56.7253 298.852 56.6175C272.319 56.4351 231.114 56.6635 193.425 59.0123C182.601 59.6868 166.22 58.1699 151.224 56.2513Z" fill="#F7F7F7"/>
<path d="M116.964 87.2666L116.465 87.2933L116.964 87.2666ZM151.224 56.2513L151.287 55.7553V55.7553L151.224 56.2513ZM119.62 97.9353L120.013 98.2443L120.203 98.0028L120.073 97.7242L119.62 97.9353ZM108.363 106.704L108.275 106.212H108.275L108.363 106.704ZM122.814 103.231L123.212 102.929L122.997 102.645L122.659 102.756L122.814 103.231ZM147.917 114.829L147.944 115.328L147.917 114.829ZM257.301 112.245L257.285 112.745L257.301 112.245ZM295.637 114.307L295.671 113.808L295.637 114.307ZM298.852 56.6175L298.855 56.1175L298.852 56.6175ZM193.425 59.0123L193.456 59.5113L193.425 59.0123ZM117.464 87.2398C116.48 68.9086 132.915 54.413 151.16 56.7472L151.287 55.7553C132.459 53.3465 115.446 68.303 116.465 87.2933L117.464 87.2398ZM120.073 97.7242C118.581 94.5204 117.665 90.9855 117.464 87.2398L116.465 87.2933C116.673 91.169 117.622 94.8288 119.167 98.1464L120.073 97.7242ZM108.47 107.184C111.043 106.198 116.396 102.846 120.013 98.2443L119.227 97.6263C115.727 102.079 110.525 105.325 108.112 106.25L108.47 107.184ZM107.185 106.5C107.13 106.5 107.102 106.499 107.094 106.498C107.088 106.497 107.105 106.498 107.134 106.505C107.147 106.508 107.181 106.517 107.224 106.538C107.253 106.552 107.364 106.608 107.438 106.742C107.539 106.923 107.503 107.113 107.43 107.236C107.375 107.329 107.304 107.377 107.284 107.39C107.255 107.409 107.232 107.42 107.222 107.425C107.211 107.43 107.203 107.433 107.2 107.434C107.195 107.436 107.208 107.431 107.254 107.42C107.433 107.378 107.81 107.31 108.379 107.209L108.204 106.225C107.652 106.323 107.239 106.397 107.026 106.446C106.975 106.459 106.915 106.474 106.863 106.492C106.844 106.499 106.787 106.52 106.728 106.559C106.703 106.576 106.629 106.627 106.571 106.723C106.497 106.849 106.461 107.042 106.563 107.226C106.639 107.363 106.753 107.421 106.787 107.438C106.834 107.46 106.875 107.472 106.897 107.477C106.942 107.488 106.983 107.492 107.007 107.494C107.06 107.499 107.122 107.5 107.185 107.5V106.5ZM108.112 106.25C107.633 106.433 107.327 106.5 107.185 106.5V107.5C107.525 107.5 107.978 107.372 108.47 107.184L108.112 106.25ZM108.275 106.212L108.204 106.225L108.379 107.209L108.45 107.196L108.275 106.212ZM122.659 102.756C116.627 104.723 110.834 105.756 108.275 106.212L108.45 107.196C111.013 106.74 116.866 105.698 122.969 103.706L122.659 102.756ZM147.889 114.33C137.931 114.885 128.825 110.325 123.212 102.929L122.416 103.533C128.222 111.184 137.642 115.903 147.944 115.328L147.889 114.33ZM257.316 111.745C223.332 110.676 177.42 112.683 147.889 114.33L147.944 115.328C177.475 113.682 223.348 111.677 257.285 112.745L257.316 111.745ZM295.671 113.808C283.08 112.953 268.848 112.108 257.316 111.745L257.285 112.745C268.798 113.107 283.016 113.951 295.603 114.806L295.671 113.808ZM326.5 85.2046C326.5 101.842 312.279 114.936 295.671 113.808L295.603 114.806C312.78 115.972 327.5 102.43 327.5 85.2046H326.5ZM298.848 57.1175C314.249 57.2234 326.5 69.7921 326.5 85.2046H327.5C327.5 69.2537 314.817 56.2273 298.855 56.1175L298.848 57.1175ZM193.456 59.5113C231.128 57.1636 272.32 56.9351 298.848 57.1175L298.855 56.1175C272.318 55.9351 231.1 56.1634 193.394 58.5132L193.456 59.5113ZM151.16 56.7472C166.156 58.6657 182.579 60.1891 193.456 59.5113L193.394 58.5132C182.623 59.1845 166.285 57.6741 151.287 55.7553L151.16 56.7472Z" fill="#D8D8D8"/>
<path d="M143.47 82.16L137.52 90H136.47V80.2H137.66V88.04L143.61 80.2H144.66V90H143.47V82.16ZM155.117 90H147.137V83.7H148.257V88.95H150.567V83.7H151.687V88.95H153.997V83.7H155.117V88.95H156.167V91.54H155.117V90ZM162.361 88.432L162.711 89.314C162.104 89.8647 161.315 90.14 160.345 90.14C159.318 90.14 158.501 89.8413 157.895 89.244C157.279 88.6467 156.971 87.8487 156.971 86.85C156.971 85.9073 157.26 85.1233 157.839 84.498C158.408 83.8727 159.201 83.56 160.219 83.56C161.059 83.56 161.754 83.8307 162.305 84.372C162.865 84.904 163.145 85.5947 163.145 86.444C163.145 86.7147 163.121 86.9667 163.075 87.2H158.231C158.277 87.788 158.497 88.25 158.889 88.586C159.29 88.922 159.803 89.09 160.429 89.09C161.25 89.09 161.894 88.8707 162.361 88.432ZM160.163 84.61C159.612 84.61 159.155 84.764 158.791 85.072C158.436 85.38 158.226 85.786 158.161 86.29H161.983C161.955 85.7673 161.777 85.3567 161.451 85.058C161.133 84.7593 160.704 84.61 160.163 84.61ZM172.644 90H164.664V83.7H165.784V88.95H168.094V83.7H169.214V88.95H171.524V83.7H172.644V90ZM176.8 90H174.672V83.7H175.792V85.59H176.94C177.799 85.59 178.429 85.786 178.83 86.178C179.231 86.5607 179.432 87.088 179.432 87.76C179.432 88.3947 179.222 88.9267 178.802 89.356C178.382 89.7853 177.715 90 176.8 90ZM176.73 86.64H175.792V88.95H176.716C177.733 88.95 178.242 88.5673 178.242 87.802C178.242 87.0273 177.738 86.64 176.73 86.64ZM187.69 83.7H188.81V90H187.69V87.55C187.205 87.858 186.622 88.012 185.94 88.012C184.447 88.012 183.7 87.2093 183.7 85.604V83.7H184.89V85.478C184.89 86.4673 185.343 86.962 186.248 86.962C186.836 86.962 187.317 86.8313 187.69 86.57V83.7ZM192.344 84.82H190.034V83.7H195.774V84.82H193.464V90H192.344V84.82ZM197.297 89.216C196.681 88.5813 196.373 87.7927 196.373 86.85C196.373 85.898 196.681 85.114 197.297 84.498C197.922 83.8727 198.734 83.56 199.733 83.56C200.732 83.56 201.539 83.8727 202.155 84.498C202.78 85.114 203.093 85.898 203.093 86.85C203.093 87.802 202.78 88.5907 202.155 89.216C201.539 89.832 200.732 90.14 199.733 90.14C198.744 90.14 197.932 89.832 197.297 89.216ZM198.179 85.24C197.768 85.6507 197.563 86.1873 197.563 86.85C197.563 87.5127 197.764 88.0493 198.165 88.46C198.576 88.88 199.098 89.09 199.733 89.09C200.368 89.09 200.886 88.8847 201.287 88.474C201.698 88.054 201.903 87.5127 201.903 86.85C201.903 86.206 201.698 85.6693 201.287 85.24C200.886 84.82 200.368 84.61 199.733 84.61C199.098 84.61 198.58 84.82 198.179 85.24ZM208.261 86.71H204.915V85.66H208.261V86.71ZM211.868 84.82H209.558V83.7H215.298V84.82H212.988V90H211.868V84.82ZM216.821 89.216C216.205 88.5813 215.897 87.7927 215.897 86.85C215.897 85.898 216.205 85.114 216.821 84.498C217.446 83.8727 218.258 83.56 219.257 83.56C220.255 83.56 221.063 83.8727 221.679 84.498C222.304 85.114 222.617 85.898 222.617 86.85C222.617 87.802 222.304 88.5907 221.679 89.216C221.063 89.832 220.255 90.14 219.257 90.14C218.267 90.14 217.455 89.832 216.821 89.216ZM217.703 85.24C217.292 85.6507 217.087 86.1873 217.087 86.85C217.087 87.5127 217.287 88.0493 217.689 88.46C218.099 88.88 218.622 89.09 219.257 89.09C219.891 89.09 220.409 88.8847 220.811 88.474C221.221 88.054 221.427 87.5127 221.427 86.85C221.427 86.206 221.221 85.6693 220.811 85.24C220.409 84.82 219.891 84.61 219.257 84.61C218.622 84.61 218.104 84.82 217.703 85.24ZM227.881 89.216C227.265 88.5813 226.957 87.7927 226.957 86.85C226.957 85.898 227.265 85.114 227.881 84.498C228.506 83.8727 229.318 83.56 230.317 83.56C231.316 83.56 232.123 83.8727 232.739 84.498C233.364 85.114 233.677 85.898 233.677 86.85C233.677 87.802 233.364 88.5907 232.739 89.216C232.123 89.832 231.316 90.14 230.317 90.14C229.328 90.14 228.516 89.832 227.881 89.216ZM228.763 85.24C228.352 85.6507 228.147 86.1873 228.147 86.85C228.147 87.5127 228.348 88.0493 228.749 88.46C229.16 88.88 229.682 89.09 230.317 89.09C230.952 89.09 231.47 88.8847 231.871 88.474C232.282 88.054 232.487 87.5127 232.487 86.85C232.487 86.206 232.282 85.6693 231.871 85.24C231.47 84.82 230.952 84.61 230.317 84.61C229.682 84.61 229.164 84.82 228.763 85.24ZM240.137 88.278L240.669 89.09C240.128 89.79 239.32 90.14 238.247 90.14C237.239 90.14 236.422 89.8413 235.797 89.244C235.181 88.6467 234.873 87.8487 234.873 86.85C234.873 85.926 235.176 85.1467 235.783 84.512C236.39 83.8773 237.15 83.56 238.065 83.56C239.166 83.56 239.992 83.8353 240.543 84.386L240.025 85.268C239.54 84.8293 238.938 84.61 238.219 84.61C237.631 84.61 237.122 84.8247 236.693 85.254C236.273 85.674 236.063 86.206 236.063 86.85C236.063 87.5313 236.278 88.0727 236.707 88.474C237.146 88.8847 237.687 89.09 238.331 89.09C239.059 89.09 239.661 88.8193 240.137 88.278ZM242.291 89.216C241.675 88.5813 241.367 87.7927 241.367 86.85C241.367 85.898 241.675 85.114 242.291 84.498C242.917 83.8727 243.729 83.56 244.727 83.56C245.726 83.56 246.533 83.8727 247.149 84.498C247.775 85.114 248.087 85.898 248.087 86.85C248.087 87.802 247.775 88.5907 247.149 89.216C246.533 89.832 245.726 90.14 244.727 90.14C243.738 90.14 242.926 89.832 242.291 89.216ZM243.173 85.24C242.763 85.6507 242.557 86.1873 242.557 86.85C242.557 87.5127 242.758 88.0493 243.159 88.46C243.57 88.88 244.093 89.09 244.727 89.09C245.362 89.09 245.88 88.8847 246.281 88.474C246.692 88.054 246.897 87.5127 246.897 86.85C246.897 86.206 246.692 85.6693 246.281 85.24C245.88 84.82 245.362 84.61 244.727 84.61C244.093 84.61 243.575 84.82 243.173 85.24ZM254.575 80.06L255.177 80.942C254.953 81.25 254.683 81.46 254.365 81.572C254.02 81.6933 253.628 81.7867 253.189 81.852C252.76 81.9173 252.354 82.034 251.971 82.202C251.019 82.6407 250.487 83.6533 250.375 85.24H250.403C250.609 84.8013 250.94 84.4467 251.397 84.176C251.864 83.9053 252.363 83.77 252.895 83.77C253.791 83.77 254.501 84.0547 255.023 84.624C255.555 85.1933 255.821 85.954 255.821 86.906C255.821 87.802 255.518 88.5673 254.911 89.202C254.314 89.8273 253.539 90.14 252.587 90.14C251.561 90.14 250.749 89.79 250.151 89.09C249.554 88.3993 249.255 87.4427 249.255 86.22C249.255 83.4947 250.035 81.8007 251.593 81.138C251.948 80.9793 252.359 80.8627 252.825 80.788C253.189 80.7227 253.451 80.6713 253.609 80.634C253.768 80.5967 253.936 80.5313 254.113 80.438C254.3 80.3447 254.454 80.2187 254.575 80.06ZM250.445 86.43C250.445 87.2327 250.641 87.8767 251.033 88.362C251.425 88.8473 251.934 89.09 252.559 89.09C253.166 89.09 253.661 88.8847 254.043 88.474C254.435 88.0727 254.631 87.5687 254.631 86.962C254.631 86.318 254.449 85.8 254.085 85.408C253.731 85.016 253.241 84.82 252.615 84.82C252.046 84.82 251.57 84.9787 251.187 85.296C250.786 85.6227 250.539 86.0007 250.445 86.43ZM262.398 88.432L262.748 89.314C262.141 89.8647 261.353 90.14 260.382 90.14C259.355 90.14 258.539 89.8413 257.932 89.244C257.316 88.6467 257.008 87.8487 257.008 86.85C257.008 85.9073 257.297 85.1233 257.876 84.498C258.445 83.8727 259.239 83.56 260.256 83.56C261.096 83.56 261.791 83.8307 262.342 84.372C262.902 84.904 263.182 85.5947 263.182 86.444C263.182 86.7147 263.159 86.9667 263.112 87.2H258.268C258.315 87.788 258.534 88.25 258.926 88.586C259.327 88.922 259.841 89.09 260.466 89.09C261.287 89.09 261.931 88.8707 262.398 88.432ZM260.2 84.61C259.649 84.61 259.192 84.764 258.828 85.072C258.473 85.38 258.263 85.786 258.198 86.29H262.02C261.992 85.7673 261.815 85.3567 261.488 85.058C261.171 84.7593 260.741 84.61 260.2 84.61ZM270.441 90H269.321V87.34H265.821V90H264.701V83.7H265.821V86.29H269.321V83.7H270.441V90ZM278.207 90H277.087V87.34H273.587V90H272.467V83.7H273.587V86.29H277.087V83.7H278.207V90ZM280.737 89.216C280.121 88.5813 279.813 87.7927 279.813 86.85C279.813 85.898 280.121 85.114 280.737 84.498C281.362 83.8727 282.174 83.56 283.173 83.56C284.171 83.56 284.979 83.8727 285.595 84.498C286.22 85.114 286.533 85.898 286.533 86.85C286.533 87.802 286.22 88.5907 285.595 89.216C284.979 89.832 284.171 90.14 283.173 90.14C282.183 90.14 281.371 89.832 280.737 89.216ZM281.619 85.24C281.208 85.6507 281.003 86.1873 281.003 86.85C281.003 87.5127 281.203 88.0493 281.605 88.46C282.015 88.88 282.538 89.09 283.173 89.09C283.807 89.09 284.325 88.8847 284.727 88.474C285.137 88.054 285.343 87.5127 285.343 86.85C285.343 86.206 285.137 85.6693 284.727 85.24C284.325 84.82 283.807 84.61 283.173 84.61C282.538 84.61 282.02 84.82 281.619 85.24ZM293.119 88.432L293.469 89.314C292.862 89.8647 292.073 90.14 291.103 90.14C290.076 90.14 289.259 89.8413 288.653 89.244C288.037 88.6467 287.729 87.8487 287.729 86.85C287.729 85.9073 288.018 85.1233 288.597 84.498C289.166 83.8727 289.959 83.56 290.977 83.56C291.817 83.56 292.512 83.8307 293.063 84.372C293.623 84.904 293.903 85.5947 293.903 86.444C293.903 86.7147 293.879 86.9667 293.833 87.2H288.989C289.035 87.788 289.255 88.25 289.647 88.586C290.048 88.922 290.561 89.09 291.187 89.09C292.008 89.09 292.652 88.8707 293.119 88.432ZM290.921 84.61C290.37 84.61 289.913 84.764 289.549 85.072C289.194 85.38 288.984 85.786 288.919 86.29H292.741C292.713 85.7673 292.535 85.3567 292.209 85.058C291.891 84.7593 291.462 84.61 290.921 84.61ZM299.314 82.72C299.314 82.2907 299.151 81.9267 298.824 81.628C298.507 81.3293 298.101 81.18 297.606 81.18C296.803 81.18 296.15 81.5253 295.646 82.216L294.974 81.474C295.235 81.0447 295.609 80.704 296.094 80.452C296.579 80.1907 297.107 80.06 297.676 80.06C298.544 80.06 299.235 80.2933 299.748 80.76C300.261 81.2173 300.518 81.7913 300.518 82.482C300.518 82.9207 300.443 83.308 300.294 83.644C300.257 83.7373 300.215 83.826 300.168 83.91C300.121 83.994 300.065 84.078 300 84.162C299.935 84.2367 299.879 84.302 299.832 84.358C299.795 84.4047 299.729 84.47 299.636 84.554C299.543 84.6287 299.477 84.6847 299.44 84.722C299.412 84.75 299.342 84.8107 299.23 84.904C299.118 84.988 299.048 85.0393 299.02 85.058C298.964 85.1047 298.885 85.17 298.782 85.254C298.689 85.3287 298.614 85.3893 298.558 85.436C298.511 85.4827 298.446 85.5433 298.362 85.618C298.278 85.6927 298.213 85.758 298.166 85.814C298.119 85.87 298.068 85.94 298.012 86.024C297.956 86.108 297.914 86.1873 297.886 86.262C297.867 86.3367 297.844 86.4207 297.816 86.514C297.797 86.6073 297.788 86.71 297.788 86.822C297.797 86.9247 297.811 87.0367 297.83 87.158L296.822 87.172C296.654 86.2853 296.873 85.59 297.48 85.086C297.573 85.0113 297.727 84.8947 297.942 84.736C298.166 84.568 298.339 84.4327 298.46 84.33C298.581 84.218 298.717 84.078 298.866 83.91C299.025 83.742 299.137 83.56 299.202 83.364C299.277 83.168 299.314 82.9533 299.314 82.72ZM296.542 89.244C296.542 89.0387 296.617 88.866 296.766 88.726C296.915 88.5767 297.111 88.502 297.354 88.502C297.55 88.502 297.723 88.5767 297.872 88.726C298.021 88.8753 298.096 89.048 298.096 89.244C298.096 89.468 298.026 89.6593 297.886 89.818C297.746 89.9673 297.569 90.042 297.354 90.042C297.111 90.042 296.915 89.9673 296.766 89.818C296.617 89.6593 296.542 89.468 296.542 89.244Z" fill="#4B4B4B"/>
</svg>
