<svg width="22" height="15" viewBox="0 0 22 15" fill="none" xmlns="http://www.w3.org/2000/svg">
<path d="M19.6208 14.2928C20.0447 14.2053 20.2851 13.8952 20.3648 13.5375C20.5952 13.4614 20.7801 13.3639 20.9131 13.2245C20.7403 13.2337 20.5675 13.2409 20.3946 13.2473C20.3868 12.6754 20.0084 12.0985 19.332 12.1519C13.3731 12.6206 6.87853 10.3439 1.03979 11.8873C0.371206 12.0644 0.497811 12.8966 1.03979 13.122C3.98868 14.349 7.47032 14.2864 10.6233 14.5168C13.691 14.7423 16.5894 14.9209 19.6208 14.2928Z" fill="#EF4036"/>
<path d="M11.3936 5.02371C11.0145 3.68227 10.6554 2.33515 10.2578 0.998695C10.1397 0.601811 9.91282 -0.119446 9.41138 0.443161C8.50879 1.45386 7.44973 2.39276 6.99452 3.72566C6.97887 3.74273 6.96533 3.76195 6.94968 3.77831C6.5336 4.23636 6.06631 4.64885 5.64524 5.10192C5.13882 5.20292 4.75118 5.00233 4.43183 4.37927C3.81872 3.1815 3.09821 2.03712 2.40616 0.880614C2.25893 0.634518 2.09322 0.335761 1.73546 0.372035C1.40899 0.404753 1.39759 0.700638 1.37483 0.941044C1.00426 4.83875 -0.348566 8.61553 0.0845921 12.627C0.191281 13.6185 0.474366 13.7451 1.2788 13.78C3.66935 13.8817 6.08553 13.8562 8.43909 14.2189C12.1049 14.7844 15.758 14.965 19.4416 14.6449C21.2581 14.4877 21.6472 14.029 21.6628 12.1626C21.6813 9.96627 21.633 7.77128 21.8215 5.57632C21.9417 4.18581 21.9374 2.78251 21.9488 1.38489C21.953 0.916878 22.1806 0.237649 21.6408 0.0413406C21.0298 -0.180573 20.884 0.544883 20.6443 0.934654C19.8335 2.2512 19.0746 3.59975 18.2659 4.91771C18.0233 5.31175 17.9636 5.87936 17.1627 6.07567C17.1627 5.17948 17.1762 4.35156 17.1584 3.52437C17.1435 2.82804 17.1599 2.11888 17.0325 1.43962C16.9593 1.04914 16.9956 0.429686 16.4201 0.35856C15.9685 0.302371 15.8006 0.797355 15.5695 1.10462C14.5495 2.45957 13.526 3.81174 12.5374 5.18874C12.0053 5.92988 11.649 5.92559 11.3936 5.02371ZM20.2254 13.5802C17.8277 14.2502 15.3988 14.2722 12.9478 14.0553C9.32459 13.7338 5.72917 13.0119 2.06688 13.2594C1.2404 13.3156 0.819348 13.0844 0.642244 12.4891C0.682075 12.5161 0.722596 12.5446 0.780919 12.5431C4.20635 12.4855 7.54502 12.5012 10.9633 12.8142C14.2942 13.1186 17.5688 13.4009 20.9124 13.2245C20.7538 13.391 20.5213 13.4977 20.2254 13.5802ZM16.2252 1.57409C16.3831 3.2612 16.5076 4.64816 16.647 6.03441C16.6997 6.55647 16.4763 7.3282 17.1357 7.46263C17.7545 7.58852 17.9244 6.80544 18.1947 6.36232C19.1144 4.85445 19.7502 3.1716 21.1408 1.55277C21.1408 5.38647 21.1422 8.9129 21.1386 12.4351C14.4229 12.6876 7.3224 10.3965 0.707675 12.0011C0.641527 12.0175 0.600259 12.0581 0.567541 12.1029C0.556161 12.0076 0.5455 11.9116 0.540521 11.8042C0.419607 9.07648 0.987925 6.44192 1.45096 3.79248C1.55409 3.20213 1.46234 2.50373 2.1103 1.91694C2.82013 3.06278 3.42042 4.14952 4.13524 5.15596C4.796 6.087 5.15446 6.23141 5.65306 5.60835C5.68008 5.6055 5.705 5.61191 5.73345 5.59626C6.36079 5.25628 6.90133 4.73278 7.40561 4.23347C7.89354 3.74982 8.49099 3.17865 8.76909 2.54208C8.83666 2.38773 8.77904 2.24199 8.67307 2.16588C8.94192 1.83586 9.24138 1.52642 9.63115 1.29028C9.96615 2.52503 10.2365 3.63531 10.5743 4.72497C10.7912 5.42556 10.8339 6.46616 11.548 6.63544C12.3973 6.83672 12.8148 5.82816 13.3084 5.23354C14.2636 4.08344 15.1754 2.89704 16.2252 1.57409Z" fill="#251C1C"/>
</svg>
