<svg width="26" height="18" viewBox="0 0 26 18" fill="none" xmlns="http://www.w3.org/2000/svg">
<path d="M11.131 5.70287C11.1662 6.67274 11.1297 7.58745 11.0143 8.52248C10.939 9.13228 11.1759 9.49816 11.3788 9.41105C11.408 10.2328 11.9657 10.1951 11.9912 9.2949C12.0289 7.99399 11.9451 6.7163 11.7397 5.50541C11.6206 4.80849 11.0981 4.79397 11.131 5.70287Z" fill="#39B100"/>
<path d="M14.747 9.62925C15.0536 10.206 16.0601 10.1126 15.9972 9.3299C15.9028 8.11054 15.8058 6.89393 15.7115 5.67457C15.6407 4.76829 14.4665 4.78202 14.3748 5.67457C14.2778 6.62479 14.1808 7.57501 14.0839 8.52798C14.0681 8.68177 14.0944 8.8081 14.152 8.90972C14.1022 9.1102 14.0498 9.31067 14 9.5139C14.2962 9.57157 14.5425 9.61002 14.747 9.62925Z" fill="#39B100"/>
<path d="M18.6326 16.7646C18.985 16.7886 19.4561 16.5221 19.6014 16.1567C19.7609 15.7557 19.8503 15.3823 19.7541 14.9459C19.6825 14.6222 19.4979 14.3008 19.2674 14.084C19.2668 14.0834 19.2663 14.0834 19.2658 14.0829C19.2647 14.0754 19.2637 14.0686 19.2627 14.0611C19.1811 13.4635 18.9223 13.2913 18.3597 13.4034C18.262 13.4229 18.1632 13.444 18.0644 13.4618C17.9415 13.4349 17.8165 13.4149 17.6889 13.4017C16.6213 13.2925 15.5433 13.2324 14.4715 13.197C13.4112 13.1615 12.3478 13.1729 11.2901 13.2787C10.4358 13.364 9.5857 13.5212 8.72565 13.5235C8.50763 13.5241 8.28961 13.5132 8.07212 13.4949C8.03186 13.4915 7.99157 13.4869 7.95132 13.4829C7.84675 13.4572 7.7406 13.4377 7.63604 13.412C7.43841 13.3634 7.25177 13.2948 7.06042 13.2261C7.06094 13.2227 6.95325 13.1804 6.9292 13.1678C6.81889 13.1095 6.707 13.0551 6.59825 12.9934C5.82029 12.5558 4.99425 13.4372 5.4078 14.2956C5.43081 14.3431 5.4543 14.3889 5.47887 14.4335C5.16727 14.5124 4.85933 14.617 4.55714 14.7606C4.44107 14.736 4.31873 14.7046 4.18019 14.6651C3.58312 14.4947 3.06028 15.3571 3.55331 15.8427C3.7593 16.0457 3.97992 16.2093 4.21153 16.342C4.21624 16.4049 4.22046 16.4672 4.22517 16.5301C4.43953 16.5501 4.58539 16.5782 4.72185 16.5799C6.06917 17.0792 7.68415 16.7612 9.06023 16.6857C11.0982 16.5736 13.1435 16.5353 15.1836 16.5925C16.3343 16.6256 17.484 16.6863 18.6326 16.7646Z" fill="#E6332A"/>
<path d="M25.1238 10.2133C24.6256 9.76887 24.4698 9.20665 24.4577 8.52092C24.4379 7.33875 24.3773 6.15604 24.2889 4.97731C24.1817 3.55551 24.0228 2.13827 23.8978 0.718192C23.8471 0.141695 23.697 -0.0212903 23.1794 0.0021585C22.7303 0.0227477 22.2812 0.0416122 21.8321 0.050191C20.305 0.079359 18.7772 0.114249 17.2495 0.124544C16.665 0.128547 16.08 0.0347474 15.496 0.0484736C13.1088 0.10395 10.7221 0.187454 8.33538 0.252654C6.82808 0.29326 5.31921 0.373899 3.81295 0.336152C2.64757 0.306984 1.47332 0.570645 0.313695 0.24179C0.218018 0.21491 0.101951 0.274956 0 0.293258C0.0109793 0.845734 0.0167202 0.899503 0.433935 0.930959C0.988652 0.972137 1.54808 0.940677 2.07614 0.940677C2.60576 2.09367 2.60526 2.09366 2.66539 3.16373C2.67375 3.31071 2.69411 3.45714 2.70613 3.60412C2.82743 5.0997 2.95081 6.59527 3.06792 8.09142C3.13171 8.90011 3.15 9.71511 3.25091 10.5181C3.49611 12.4809 3.46478 14.4512 3.42609 16.4209C3.41197 17.1518 3.50657 17.3279 4.16585 17.2999C5.15608 17.2582 6.14531 17.1838 7.13554 17.1249C9.0679 17.0105 11.0002 16.8807 12.9342 16.7909C13.7654 16.7526 14.5999 16.8029 15.4333 16.8041C16.7393 16.8058 18.0448 16.7932 19.3508 16.8012C19.9406 16.8046 20.0681 16.6708 20.0111 16.0326C19.8715 14.4632 19.7084 12.8956 19.6007 11.3239C19.4387 8.9676 19.5307 6.59584 19.2222 4.24582C19.0884 3.22608 19.046 2.19146 18.9765 1.162C18.966 1.0053 19.0345 0.842299 19.0732 0.647274C20.4733 0.622109 21.8337 0.617538 23.2344 0.751368C23.3264 1.35417 23.4382 1.88321 23.4821 2.41853C23.6437 4.40481 23.7786 6.39337 23.9349 8.38023C23.9652 8.76055 23.982 9.09513 23.672 9.37994C23.5575 9.48518 23.5339 9.73398 23.5062 9.92386C23.4126 10.5575 23.3185 11.1872 22.9839 11.7391C22.9113 11.8587 22.8448 12.0085 22.8412 12.1463C22.838 12.2716 22.9086 12.4924 22.975 12.5061C23.0958 12.5307 23.3065 12.4769 23.3583 12.3791C23.5245 12.0634 23.6426 11.7163 23.7655 11.3754C23.8492 11.1432 23.9093 10.9018 23.9804 10.6645C24.0296 10.6731 24.0787 10.6822 24.1279 10.6908C24.142 11.0236 24.1791 11.3577 24.1655 11.6894C24.1477 12.1109 24.3067 12.3208 24.7856 12.3808C24.8217 11.9536 24.8551 11.5636 24.8928 11.1175C25.1348 11.3033 25.3492 11.4675 25.5981 11.6579C25.8783 11.404 25.9133 11.1684 25.7167 10.915C25.529 10.6719 25.3476 10.4129 25.1238 10.2133ZM19.263 14.0611C19.3163 14.4495 19.3618 14.8441 19.3597 15.2353C19.3555 16.0417 19.2687 16.1321 18.542 16.1366C17.1461 16.1458 15.7496 16.1126 14.3547 16.1498C12.7804 16.1915 11.2078 16.2934 9.63463 16.366C8.01649 16.4403 6.39833 16.5118 4.77966 16.5793C4.62595 16.5862 4.47068 16.553 4.226 16.5301C4.18888 16.0171 4.15227 15.5144 4.11515 15.0014C5.03167 14.4294 6.01353 14.2899 6.99278 14.2018C8.94188 14.0251 10.8941 13.8815 12.8463 13.7517C14.4389 13.6459 16.0246 13.3748 17.6286 13.4938C17.8696 13.5115 18.1185 13.452 18.36 13.4034C18.9226 13.2913 19.1814 13.4635 19.263 14.0611ZM19.1181 11.774C19.1317 12.0148 19.1197 12.2579 19.1197 12.597C14.0849 13.05 9.09978 13.4989 4.10367 13.9485C3.77376 9.56126 3.45377 5.30043 3.12858 0.965838C3.69009 0.917225 4.28559 0.832578 4.88213 0.819995C7.17681 0.771954 9.472 0.753086 11.7667 0.711336C12.7329 0.694178 13.698 0.63755 14.6637 0.617533C15.2707 0.604379 15.8782 0.624397 16.4852 0.632403C16.8893 0.637551 17.2935 0.662147 17.6966 0.650136C18.1421 0.637554 18.2942 0.722197 18.3522 1.17745C18.4516 1.95698 18.5216 2.74108 18.5974 3.52404C18.6445 4.01246 18.6884 4.50204 18.7182 4.99218C18.8552 7.25241 18.988 9.51322 19.1181 11.774Z" fill="black"/>
<path d="M4.78735 1.97311C4.30269 2.07834 4.21957 2.29452 4.32518 2.83384C4.54424 3.94966 4.62995 5.06892 4.45951 6.2059C4.43128 6.39464 4.52173 6.60509 4.55728 6.80526C4.63571 6.81327 4.71362 6.82128 4.79204 6.82872C4.85844 6.66915 4.9583 6.51588 4.98601 6.34831C5.24428 4.79211 5.82146 3.4458 7.05638 2.5273C7.3821 2.2848 7.46161 1.98397 7.33351 1.5293C6.46406 1.67742 5.62021 1.79238 4.78735 1.97311ZM4.80093 4.52444C4.80093 3.98855 4.80199 3.55446 4.80042 3.12095C4.79937 2.76864 4.96873 2.56905 5.27458 2.51472C5.53181 2.46839 5.79272 2.44838 6.15399 2.40434C5.68554 3.13869 5.27565 3.78037 4.80093 4.52444Z" fill="black"/>
<path d="M15.1929 4.59968C15.159 4.40942 14.9047 4.2601 14.7497 4.09152C14.5996 4.26733 14.3889 4.42146 14.3114 4.62617C13.9167 5.65453 13.5583 6.69735 13.1079 7.95209C12.7035 6.6564 12.3814 5.57747 12.0206 4.51057C11.9528 4.31309 11.7276 4.16858 11.5774 4C11.4612 4.21675 11.3014 4.42387 11.236 4.65507C10.8921 5.88814 10.5676 7.12843 10.2456 8.36632C10.1511 8.73479 10.0785 9.10809 10.0155 9.48379C9.93804 9.95101 10.1536 10.0594 10.5943 9.97268C11.1149 9.87153 11.6453 9.79206 12.1756 9.76797C13.1951 9.72462 14.2194 9.75593 15.2389 9.70054C16.0453 9.65719 16.1397 9.44525 15.8515 8.71312C15.7523 8.46024 15.728 8.17125 15.6893 7.8967C15.5246 6.79608 15.3866 5.69306 15.1929 4.59968ZM10.7904 9.33929C11.0931 8.13512 11.3692 7.02969 11.6477 5.92426C11.7252 5.92426 11.8027 5.92426 11.8801 5.92426C12.1054 6.92373 12.3306 7.92559 12.5751 9.00935C11.9019 9.13458 11.4346 9.22128 10.7904 9.33929ZM13.6406 8.966C13.9409 7.83649 14.2364 6.71661 14.5342 5.59673C14.6262 5.60155 14.7182 5.60877 14.8127 5.61359C14.9144 6.64195 15.0476 7.66791 15.1009 8.69627C15.1202 9.10328 14.7449 9.17793 13.6406 8.966Z" fill="black"/>
</svg>
