<svg width="32" height="33" viewBox="0 0 32 33" fill="none" xmlns="http://www.w3.org/2000/svg">
    <path d="M14.2318 27.6215C16.6306 24.6126 18.6358 21.1542 20.6549 17.8798C22.6344 14.6683 24.607 11.4544 26.5749 8.23589C27.5437 6.65225 26.9219 4.45607 25.3406 3.53151C23.7081 2.57667 21.6027 3.17293 20.6362 4.76588C18.7173 7.92384 16.7913 11.0771 14.863 14.2281C13.8988 15.8024 12.9696 17.4 12.0334 18.993C11.9332 19.163 11.8308 19.333 11.7283 19.503C10.331 17.4349 8.91502 15.3762 7.26617 13.5481C5.99693 12.1414 3.47243 13.6133 4.06396 15.4112C5.37512 19.4006 7.60854 23.1313 9.27136 26.9856C10.0282 28.737 13.0534 29.098 14.2318 27.6215Z" fill="#39B100" />
    <path d="M0.042001 16.0679C0.298178 16.7712 0.598585 17.4629 0.954904 18.1197C1.21341 18.5947 1.62099 18.9884 1.90977 19.4518C2.80406 20.8748 3.66344 22.321 4.5554 23.7463C5.289 24.9223 6.01326 26.1101 6.81207 27.2396C7.75527 28.574 8.80789 29.8293 9.75575 31.1614C10.5685 32.3025 11.6911 32.2839 12.3921 31.1707C12.93 30.3137 13.5518 29.5102 14.148 28.6927C15.536 26.7854 16.9287 24.8827 18.3237 22.98C18.6241 22.5725 18.9408 22.1765 19.2483 21.7736C19.9632 20.8444 20.6945 19.9268 21.3816 18.979C21.8776 18.2966 22.2898 17.556 22.7765 16.869C24.1902 14.8802 25.6294 12.9076 27.0453 10.921C27.5344 10.2364 27.9839 9.52844 28.4473 8.82745C29.2159 7.66999 29.9355 6.47997 30.7623 5.36676C31.1256 4.87537 31.2676 4.38862 31.1744 3.84367C31.1349 3.61078 30.8275 3.22417 30.6854 3.2428C29.7213 3.37322 29.3766 2.64422 28.8945 2.08063C28.7664 1.93158 28.6081 1.78723 28.4311 1.70571C27.4436 1.25158 26.4492 0.81138 25.4501 0.378208C25.1427 0.245462 24.8259 0.110405 24.4976 0.0475257C23.424 -0.159745 22.7649 0.315347 22.4575 1.38663C22.3084 1.90364 22.1012 2.42302 21.8217 2.87948C19.4206 6.79665 16.4769 10.3249 13.7475 14.0045C13.1583 14.794 12.427 15.4787 11.6515 16.331C10.8783 15.5415 10.1866 14.8243 9.48096 14.1163C8.77298 13.406 8.13252 12.5886 7.31509 12.0343C6.29737 11.3426 5.5405 11.5127 4.7743 12.4745C4.22701 13.1662 3.55163 13.6086 2.78776 13.9859C2.0332 14.3585 1.29726 14.7707 0.554343 15.1666C0.188709 15.3599 -0.114034 15.6417 0.042001 16.0679ZM5.25406 14.4237C6.31603 13.9929 7.29415 14.2234 7.92528 15.1806C8.7008 16.352 9.67193 17.3232 10.6547 18.306C11.209 18.8626 11.7935 18.9092 12.4293 18.3643C12.7157 18.122 12.9556 17.8146 13.1815 17.5118C14.8746 15.2598 16.5771 13.0147 18.2422 10.7417C19.7094 8.73888 21.1347 6.70355 22.5809 4.68209C22.8254 4.33974 23.0723 3.99964 23.3308 3.66661C24.3578 2.36244 25.2638 2.42773 26.3583 3.39654C27.1734 4.11616 27.9443 4.40022 29.2764 4.25816C28.7082 5.23862 28.3006 5.96292 27.8721 6.67323C27.0011 8.11714 26.2373 9.64254 25.2149 10.9723C23.1655 13.6366 21.3 16.4289 19.3228 19.1421C17.5622 21.5571 15.8062 23.9744 14.0316 26.3778C13.4075 27.2232 12.7367 28.0337 12.08 28.8534C11.5234 29.5474 10.8271 29.5335 10.3147 28.8069C8.37476 26.0612 6.3882 23.341 4.53209 20.5394C3.70766 19.2958 3.14874 17.8751 2.49898 16.5966C3.22326 15.4461 4.18511 14.8592 5.25406 14.4237Z" fill="#251C1C" />
</svg>