<svg width="37" height="31" viewBox="0 0 37 31" fill="none" xmlns="http://www.w3.org/2000/svg">
    <path d="M18.0179 28.622C17.8865 29.0094 17.7347 29.4107 17.7222 29.8099C17.7134 30.1202 17.9064 30.4365 18.0091 30.7498C18.3158 30.6331 18.6225 30.5172 18.9277 30.3983C18.9548 30.3873 18.9732 30.3557 18.9959 30.333C20.2285 29.0703 21.4517 27.798 22.699 26.55C23.2559 25.9938 23.845 25.4663 24.4562 24.9718C24.6557 24.8096 24.972 24.7186 25.2347 24.7194C26.4944 24.7223 27.755 24.7458 29.0126 24.8045C30.1161 24.8551 31.2166 24.9762 32.3201 25.0385C32.8983 25.0708 33.519 25.0239 33.8573 24.4934C34.6864 23.1918 35.5477 21.8762 35.8654 20.3479C36.1596 18.9311 36.3357 17.4813 36.445 16.0374C36.7327 12.2404 36.4839 8.46106 35.9593 4.69492C35.8412 3.84528 35.503 3.13066 34.8859 2.54002C33.9306 1.62508 32.7904 0.944932 31.5446 0.632371C29.8086 0.19728 28.0243 -0.097687 26.2032 0.0299788C24.9441 0.118024 23.68 0.142981 22.418 0.187737C21.032 0.236896 19.6416 0.228822 18.26 0.330808C16.0582 0.493692 13.8643 0.791574 11.661 0.91337C9.20674 1.04911 6.74517 1.06745 4.28577 1.10194C3.40752 1.11441 2.52777 0.980876 1.64878 0.991148C0.683949 1.00215 0.167448 1.61553 0.176986 2.56569C0.189459 3.79686 0.194552 5.02877 0.169606 6.25993C0.121181 8.65917 0.00455247 11.0584 0.000150203 13.4584C-0.00351835 15.8899 0.0602601 18.3236 0.164447 20.7537C0.211405 21.8506 0.399252 22.9445 0.585615 24.0297C0.63404 24.307 0.86515 24.6563 1.10874 24.7773C1.89455 25.1655 2.70896 25.6879 3.54246 25.7517C5.99525 25.9395 8.44736 25.762 10.884 25.335C12.686 25.0187 14.5064 24.7876 16.3282 24.61C17.2827 24.5169 18.274 24.442 19.2381 24.8096C19.2219 24.9879 19.2351 25.1178 19.1969 25.23C18.8073 26.3622 18.4016 27.4884 18.0179 28.622ZM18.2329 23.7927C16.5652 23.9145 14.9011 24.0759 13.2363 24.2241C10.9111 24.431 8.58966 24.7142 6.26013 24.8177C5.07518 24.8705 3.87047 24.6423 2.68479 24.4677C1.74857 24.3298 1.23716 23.7472 1.16599 22.7905C1.00824 20.6818 0.82191 18.5709 0.773485 16.4578C0.71919 14.0593 0.771238 11.6571 0.836538 9.25787C0.894501 7.11103 1.03246 4.96566 1.13812 2.81955C1.14619 2.66474 1.1807 2.5114 1.21959 2.23919C1.87186 2.20177 2.52482 2.16142 3.17782 2.1262C6.67469 1.94057 10.1774 1.83052 13.6662 1.54804C16.4059 1.32573 19.139 1.06599 21.8911 1.03591C23.1201 1.02197 24.3491 0.829729 25.5773 0.842202C26.8356 0.855409 28.091 1.03296 29.3493 1.11294C30.9562 1.21566 32.3062 1.92956 33.6114 2.79827C34.3297 3.27665 34.8624 3.87904 35.0458 4.71767C35.2329 5.57611 35.3555 6.4507 35.4699 7.32381C35.5771 8.13677 35.5866 8.96512 35.7275 9.77073C36.0151 11.4106 35.9102 13.0541 35.8126 14.6917C35.7194 16.2677 35.5221 17.8379 35.3526 19.4095C35.1963 20.8645 34.4904 22.1052 33.7376 23.3128C33.4625 23.7538 33.0274 24.0003 32.4551 23.9769C30.4653 23.8954 28.474 23.8543 26.4856 23.7553C26.2076 23.7413 25.931 23.5095 25.672 23.3481C25.242 23.0817 24.8619 23.0854 24.5904 23.464C23.5185 24.9615 22.0283 26.0635 20.8426 27.4532C20.3723 28.0049 19.8478 28.5105 19.3371 29.027C19.2138 29.151 19.048 29.2339 18.902 29.3359C18.825 29.297 18.7479 29.2574 18.6702 29.2185C18.7678 28.801 18.8169 28.3644 18.9717 27.9697C19.3627 26.9733 19.8287 26.0063 20.2087 25.0063C20.354 24.6225 20.3474 24.1808 20.4076 23.7846C19.5917 23.7846 18.9094 23.7435 18.2329 23.7927Z" fill="#251C1C" />
    <path d="M30.2914 14.7914C28.8746 14.8663 27.4586 14.9844 26.041 15.0203C24.2412 15.0658 22.4392 15.0438 20.6387 15.057C17.9548 15.0768 15.2701 15.0761 12.5869 15.1319C10.537 15.1737 8.48917 15.3109 6.43918 15.363C5.65411 15.3835 4.86099 15.327 4.08106 15.2302C3.18666 15.1194 2.97681 15.3131 3.1397 16.2618C4.83897 16.2243 6.47515 16.275 8.09519 16.1348C11.4013 15.8494 14.7118 15.7724 18.0252 15.7577C20.7055 15.7452 23.3857 15.8047 26.0652 15.7739C28.1101 15.7496 30.1542 15.6344 32.3238 15.5552C32.3531 15.4393 32.519 15.1502 32.4361 15.0064C32.3443 14.8486 32.0252 14.765 31.8007 14.7547C31.2988 14.7313 30.794 14.765 30.2914 14.7914Z" fill="#251C1C" />
    <path d="M3.53294 5.71474C3.83889 5.74116 4.15512 5.64211 4.46842 5.60836C5.46847 5.5005 6.46706 5.33836 7.47004 5.30681C9.2647 5.25032 11.063 5.27746 12.8592 5.26278C15.039 5.24517 17.2189 5.19014 19.398 5.20775C22.3982 5.23197 25.3983 5.298 28.3977 5.3721C29.3105 5.39412 30.221 5.50712 31.1337 5.56581C31.381 5.58196 31.6634 5.61863 31.8718 5.52178C32.0597 5.43374 32.2615 5.19088 32.2923 4.99058C32.3407 4.67435 32.0516 4.59511 31.7787 4.58483C31.4639 4.57309 31.1484 4.55621 30.8336 4.55915C28.3705 4.58116 25.9067 4.65234 23.4437 4.62299C19.9395 4.58043 16.4352 4.46524 12.931 4.38086C12.9303 4.43589 12.9296 4.49165 12.9289 4.54741C11.0029 4.54741 9.07617 4.51734 7.15091 4.55843C5.92267 4.58484 4.69513 4.70003 3.47203 4.82549C3.32382 4.84017 3.13752 5.15786 3.10597 5.3567C3.08982 5.45795 3.37152 5.7008 3.53294 5.71474Z" fill="#251C1C" />
    <path d="M23.101 19.5181C25.8495 19.4946 28.5958 19.3889 31.3457 19.6142C31.4682 19.5929 31.6444 19.6142 31.7023 19.5415C31.8667 19.3354 32.0927 19.0888 32.0905 18.8607C32.0883 18.5004 31.7676 18.4637 31.4499 18.5297C31.2048 18.5818 30.9532 18.6303 30.7037 18.6339C27.6713 18.6824 24.6388 18.7293 21.6064 18.7609C19.9629 18.7785 18.3106 18.8731 16.6781 18.7418C14.0822 18.5327 11.4988 18.6985 8.90955 18.741C7.20807 18.7697 5.50369 18.7323 3.80294 18.6633C3.41334 18.6479 3.19322 18.7858 3.0208 19.0448C2.93642 19.1725 2.91076 19.4337 2.98633 19.5525C3.16095 19.8269 3.41187 19.9597 3.79413 19.8666C4.37376 19.7257 4.97096 19.634 5.566 19.5914C6.38482 19.5327 7.20735 19.5335 8.02838 19.5181C10.082 19.4792 12.1357 19.4109 14.1893 19.4175C17.1609 19.4271 20.1309 19.5437 23.101 19.5181Z" fill="#251C1C" />
    <path d="M3.90787 12.7974C4.37818 12.7445 4.84191 12.6242 5.31296 12.5934C6.98142 12.4841 8.65129 12.3762 10.3227 12.3131C12.3741 12.2361 14.4271 12.1943 16.4793 12.1561C18.5931 12.1157 20.7077 12.0996 22.8222 12.0703C24.5288 12.046 26.2347 12.0057 27.9413 11.9962C28.9465 11.991 29.9539 11.9954 30.9554 12.0659C31.673 12.1172 31.6715 12.1671 31.6693 11.2316C31.4345 11.1942 31.2504 11.1392 31.0669 11.1407C30.0265 11.1495 28.9869 11.1715 27.9464 11.1891C22.5771 11.2793 17.2071 11.3542 11.8385 11.4679C9.72399 11.5126 7.61162 11.6447 5.49853 11.7372C4.93064 11.7621 4.36127 11.7665 3.79631 11.8223C3.48595 11.8524 3.26877 12.0651 3.28565 12.4004C3.30619 12.7922 3.61218 12.8304 3.90787 12.7974Z" fill="#39B100" />
    <path d="M5.41422 8.5867C6.67693 8.54561 7.94186 8.56908 9.20458 8.5434C10.5605 8.51626 11.9156 8.43703 13.2715 8.42749C15.0992 8.41502 16.9276 8.4583 18.7553 8.4561C21.5977 8.45316 24.4401 8.4106 27.2818 8.42968C28.477 8.43775 29.6758 8.52287 30.8652 8.6476C31.5974 8.72391 31.6451 8.74077 31.7449 7.73265C31.0163 7.7055 30.3589 7.65561 29.7022 7.66222C27.0799 7.68716 24.4577 7.7532 21.8354 7.75907C19.1801 7.76494 16.5248 7.70184 13.8687 7.6989C11.8481 7.69597 9.82746 7.73486 7.80609 7.76348C6.28877 7.78549 4.77144 7.81484 3.25486 7.85813C3.01126 7.86473 2.75668 7.92929 2.5329 8.02687C2.41844 8.07676 2.27755 8.27633 2.29809 8.37685C2.33111 8.53607 2.46618 8.75619 2.60118 8.79361C2.83083 8.85671 3.09566 8.81195 3.34292 8.78847C4.03407 8.72464 4.72233 8.60945 5.41422 8.5867Z" fill="#39B100" />
</svg>