<svg width="416" height="342" viewBox="0 0 416 342" fill="none" xmlns="http://www.w3.org/2000/svg">
<mask id="mask0" mask-type="alpha" maskUnits="userSpaceOnUse" x="0" y="0" width="202" height="342">
<rect x="0.232422" y="0.428711" width="201.751" height="341.143" fill="white"/>
</mask>
<g mask="url(#mask0)">
<path d="M137.605 316.329C137.531 316.213 137.447 316.097 137.373 315.982C136.847 315.202 136.078 314.907 135.163 315.086C134.647 315.181 134.163 315.17 133.699 315.097C133.699 313.79 132.773 312.431 131.31 312.579C128.489 312.874 125.026 312.768 122.205 313.695C123.068 310.419 120.478 306.637 116.699 307.754C115.383 308.143 114.625 309.271 114.541 310.598L114.52 310.998C114.52 311.019 114.52 311.041 114.52 311.072C114.436 311.314 114.362 311.567 114.32 311.852C114.141 313.2 114.71 314.486 115.615 315.413C115.415 315.486 115.247 315.539 115.141 315.592C114.11 316.034 113.068 316.445 112.015 316.845C110.489 317.425 110.131 319.89 112.015 320.322C114.889 320.986 117.868 320.522 120.552 319.353C121.215 319.068 121.836 318.752 122.352 318.384C122.626 318.647 122.962 318.837 123.383 318.91C125.552 319.279 127.457 319.269 129.626 319.068C130.615 318.974 131.289 319.089 132.236 319.111C133.31 319.132 134.552 318.679 135.563 318.995C137.015 319.427 138.499 317.636 137.605 316.329Z" fill="#47AD4B"/>
<path d="M121.878 59.9319C116.162 57.8775 111.267 54.6432 105.72 52.3254C103.267 51.3035 100.688 50.5976 98.2458 49.5652C95.6352 48.4589 93.5299 46.8049 91.2457 45.1719C91.2562 45.1403 91.2562 45.0982 91.2668 45.0666C92.0878 42.8331 88.7193 41.6005 87.5404 43.4968C87.0983 44.1605 86.6983 44.8559 86.3614 45.5723C85.7404 46.5942 86.1193 47.5108 86.8456 47.9849C87.0141 49.1543 87.9299 49.9444 89.0141 49.8812C90.7194 52.5256 93.4984 54.1796 96.4458 55.486C100.456 64.1144 113.204 68.1915 121.888 66.2004C125.225 65.4524 124.699 60.9433 121.878 59.9319Z" fill="#E5332A"/>
<path d="M82.9917 46.1833C83.2022 46.099 83.3601 45.941 83.3496 45.6671C83.2864 43.0016 83.0549 40.3257 82.718 37.6813C82.6759 37.3231 82.2233 37.144 82.0127 37.4917C80.5706 39.7568 79.7285 42.222 78.918 44.7716C80.1917 45.4142 81.5812 45.8988 82.9917 46.1833Z" fill="#1D1D1B"/>
<path d="M106.678 32.54C106.688 32.2239 106.541 31.8868 106.183 31.792C103.678 31.1177 101.92 30.0115 99.3301 31.339C97.4143 32.3293 96.8459 34.2467 96.0775 36.0693C95.9196 36.3854 95.7722 36.7014 95.6459 37.0175C95.5196 37.2598 95.3932 37.5021 95.2459 37.7339C95.1932 37.8287 95.3196 37.934 95.3932 37.8498C95.4564 37.776 95.5196 37.6917 95.5827 37.618C95.6459 37.6391 95.7196 37.6391 95.7617 37.5864C96.5196 36.6909 97.2354 35.7111 98.1196 34.942C99.6986 33.583 101.246 33.7515 103.151 34.1308C104.246 34.352 106.478 34.6786 106.772 33.151C106.814 32.9403 106.783 32.7191 106.678 32.54Z" fill="white"/>
<path d="M137.446 69.7089C137.309 69.5087 137.141 69.3717 136.983 69.2664C137.709 68.3498 138.151 67.1804 137.804 66.032C137.225 64.083 134.077 63.9461 132.446 63.4614C130.741 62.9663 129.183 62.8082 127.551 62.8925C129.414 60.7328 131.109 58.4045 132.456 55.8971C133.804 53.3686 135.614 49.8393 135.499 46.9105C135.383 44.1081 133.456 43.181 131.193 41.9168C127.067 39.6201 122.93 37.3339 118.761 35.111C114.919 33.0566 111.109 30.7494 107.098 29.0427C104.34 27.8627 101.14 26.8092 98.277 28.2209C95.8032 29.443 94.34 32.1927 92.9506 34.4578C91.4979 36.8177 89.8874 39.3462 88.7084 41.98C88.3294 39.7254 87.8768 37.4603 87.361 35.2901C86.8557 33.1409 85.582 31.1181 83.1294 31.1392C80.5609 31.1602 78.9819 33.3727 77.8767 35.3954C77.5082 36.0697 77.0872 36.8177 76.6766 37.6078C73.845 33.0039 65.8028 35.3849 65.5818 41.0213C65.4344 44.7929 67.8555 47.7639 71.066 49.8393C71.1081 50.2923 71.1713 50.7453 71.2555 51.1984C68.6134 53.021 66.266 55.8023 64.6659 58.5625C64.3607 58.8364 64.1607 59.2052 64.087 59.6161C63.9817 59.8162 63.8659 60.0269 63.7712 60.2271C63.7186 60.3325 63.687 60.4483 63.6765 60.5432C60.687 65.0101 59.0238 69.9512 58.5501 74.9344C53.6447 73.4805 48.4552 72.6798 43.4025 72.9116C42.9499 72.9327 42.9499 73.6069 43.4025 73.6175C48.571 73.7017 53.5816 74.2601 58.4974 75.6086C58.3922 77.052 58.3922 78.4848 58.4869 79.9176C58.3922 79.8965 58.2974 79.8754 58.2027 79.8543C52.2342 78.5796 45.5394 77.958 39.5077 79.0853C39.1393 79.159 39.213 79.7701 39.6024 79.749C46.0131 79.2749 52.0447 79.0853 58.3816 80.4443C58.4238 80.4549 58.4764 80.4654 58.5185 80.4759C58.8027 83.9947 59.6764 87.4398 61.0764 90.6846C59.1185 92.897 56.8448 95.7626 55.9816 98.5018C55.3816 100.419 56.2027 101.125 57.3501 102.811C57.9395 103.685 58.5185 104.57 59.0974 105.445C59.0974 105.455 59.0869 105.455 59.0869 105.455C57.9922 108.658 58.0448 112.24 57.5185 115.569C56.9816 118.961 56.329 122.343 55.55 125.683C53.9395 132.636 51.9605 139.526 49.9394 146.364C45.8657 160.175 41.7709 173.956 38.1498 187.904C37.9814 188.557 38.3603 189.116 38.8866 189.379C38.7814 189.569 38.6656 189.748 38.5603 189.938C38.5287 190.001 38.5182 190.053 38.4972 190.117C38.434 190.19 38.3603 190.264 38.2972 190.338C37.5708 191.16 38.5182 192.614 39.5288 191.939C45.4552 187.999 50.5394 182.626 55.4869 177.548C60.8869 172.007 65.9712 166.159 70.7713 160.102C79.982 148.481 88.2347 135.986 94.9822 122.765C95.6453 122.628 96.298 122.459 96.919 122.206C99.0664 121.332 99.8664 119.762 100.456 117.623C101.245 114.768 102.256 111.376 102.456 108.205C103.109 107.952 103.761 107.699 104.403 107.404C106.688 106.361 108.835 105.013 110.814 103.432C112.382 104.812 113.919 106.224 115.477 107.657C115.782 107.941 116.204 107.509 115.93 107.204C114.593 105.655 113.098 104.212 111.519 102.842C113.13 101.462 114.614 99.9451 115.909 98.2806C116.025 98.1331 116.119 97.9961 116.225 97.8486C116.698 97.5115 116.993 97.0795 117.119 96.5528C118.551 94.3088 119.519 91.9594 120.277 89.452C120.34 89.4099 120.414 89.3677 120.467 89.294C122.53 86.9025 123.835 83.1519 124.193 79.8122C125.162 79.9176 126.13 79.9808 127.088 79.9913C128.193 80.5075 129.309 81.0027 130.425 81.4452C133.288 82.5724 137.099 83.1413 139.183 80.2863C141.572 77.0836 139.456 72.4796 137.446 69.7089ZM77.1398 43.5919C77.3714 42.8439 77.7293 41.98 77.6767 41.1898C79.0556 37.8818 80.603 33.2989 83.1294 33.6044C85.4031 33.8783 85.182 38.5771 85.382 40.1363C85.6347 42.1802 85.7399 44.2345 86.0873 46.2573C86.0873 46.2678 86.0978 46.2784 86.0978 46.2889C86.1189 46.9842 86.1294 47.6901 86.1399 48.3854C82.7925 48.4803 79.2135 47.3741 76.3819 45.5514C76.6767 44.9299 76.9293 44.2661 77.1398 43.5919ZM73.6661 51.4407C75.4766 52.6733 77.4556 53.7058 79.2872 54.7066C85.0136 57.8251 90.7611 60.9224 96.519 63.9882C102.277 67.0434 108.077 70.046 113.867 73.0485C116.54 74.4287 119.225 75.9458 121.93 77.3996C121.298 77.3469 120.677 77.2943 120.056 77.2416C117.93 77.052 115.646 76.6411 113.519 76.9993C113.53 76.9466 113.551 76.9045 113.561 76.8518C112.656 76.2934 111.677 75.8615 110.667 75.5349C109.54 74.7131 108.256 74.0389 106.951 73.4173C100.972 70.5938 94.8137 68.2128 88.8558 65.3472C85.6031 63.7775 82.4241 62.0919 79.2346 60.3957C78.1082 59.7952 76.9819 59.0471 75.7714 58.9207C75.7608 58.9102 75.7503 58.8997 75.7503 58.8997C75.0135 56.5714 74.2661 54.1061 73.2976 51.8199C73.424 51.683 73.5503 51.5671 73.6661 51.4407ZM96.3085 81.6664C97.0769 81.3082 97.8559 80.8341 98.6349 80.2968C98.3822 79.9492 98.3296 79.454 98.6875 79.1695C100.172 78.0001 101.877 77.1573 103.372 75.9879C104.182 74.9976 105.751 76.4936 104.803 77.4207C103.298 78.8851 101.466 79.8227 99.5401 80.634C99.3507 80.7077 99.1717 80.6972 99.0033 80.6234C98.1296 81.0238 97.2348 81.3714 96.3401 81.7507C96.298 81.7507 96.2664 81.6875 96.3085 81.6664ZM93.0558 80.2441C93.0137 80.2652 92.9716 80.202 93.0137 80.1809C95.8032 78.6639 97.9506 75.8404 100.972 74.7342C101.824 74.4181 102.624 75.7245 101.888 76.3145C99.3612 78.3057 95.8453 78.7271 93.0558 80.2441ZM73.1924 68.6237C74.6029 67.7809 76.0872 67.0645 77.5293 66.2744C78.7925 65.579 80.0556 64.4518 81.4451 64.0936C82.1083 63.925 82.8136 64.6941 82.382 65.3156C81.4872 66.6115 79.8135 67.1804 78.403 67.7704C76.8135 68.4341 75.1503 68.9503 73.4661 69.2875C73.2029 69.3401 73.0345 69.1294 73.024 68.9292C72.8661 69.0135 72.6976 69.0978 72.5397 69.1926C72.4976 69.2137 72.4555 69.1505 72.4976 69.1294C72.6766 69.0346 72.8555 68.9398 73.024 68.8344C73.0555 68.7396 73.1082 68.6659 73.1924 68.6237ZM75.0872 70.3304C76.1609 69.2453 78.0661 68.8555 79.4241 68.1496C80.9714 67.3384 82.4557 66.3902 83.982 65.5369C85.1399 64.7257 86.2663 66.6431 85.0978 67.4438C83.4873 68.5394 81.9399 69.7405 80.2556 70.7203C78.9609 71.4788 77.0872 72.6166 75.5503 72.0582C74.824 71.7948 74.5082 70.9099 75.0872 70.3304ZM58.6343 98.4597C58.9501 96.6371 60.708 94.4563 62.0133 92.6547C64.666 97.817 68.7292 102.316 74.0029 105.497C72.8134 109.311 71.4871 113.083 70.045 116.802C67.866 112.851 65.4449 109.079 62.7396 105.434C61.2975 103.496 58.1817 101.062 58.6343 98.4597ZM65.0344 77.958C67.8555 79.2328 70.4555 80.7498 72.9819 82.446C72.2976 83.0044 71.7503 83.7103 71.4134 84.5109C68.2976 82.9201 65.0133 81.6664 61.6449 80.7288C61.6133 80.5391 61.5817 80.3495 61.5501 80.1493C61.6133 80.1704 61.6659 80.202 61.7291 80.2231C63.2449 80.8341 64.9817 79.8543 65.0449 78.1582C65.0449 78.0844 65.0344 78.0212 65.0344 77.958ZM78.8872 86.4389C77.6977 85.1536 76.3398 83.9842 74.8977 82.899C75.8977 82.4882 77.0661 82.3933 78.1293 82.6778C80.8872 83.4047 82.6662 85.6593 84.0452 88.0192C84.2346 88.3247 84.5294 88.3774 84.7925 88.2931C84.4978 88.6934 84.2557 89.0938 84.0768 89.4941C81.403 92.4124 74.224 91.38 72.7082 87.7242C73.4555 88.0087 74.2029 88.3036 74.9608 88.6408C75.1293 88.7145 75.2661 88.5038 75.1082 88.3879C74.2661 87.7874 73.3924 87.3555 72.5082 87.0183C72.4976 86.9762 72.4766 86.9341 72.4766 86.8919C72.4029 86.4494 72.424 86.0386 72.4976 85.6488C73.6345 86.2387 74.7608 86.8498 75.8661 87.503C76.0661 87.6188 76.2345 87.3239 76.0451 87.1974C74.9398 86.4705 73.7924 85.7962 72.624 85.1641C72.9082 84.3634 73.4766 83.7313 74.1924 83.2783C75.7293 84.3424 77.2556 85.4486 78.7925 86.5864C78.8661 86.6285 78.9504 86.5021 78.8872 86.4389ZM86.961 91.0007C90.3926 90.5055 93.5506 92.1385 96.519 93.6556C97.1612 93.9822 97.8033 94.3298 98.4348 94.6775C98.3612 95.2464 98.0664 95.8048 97.4664 96.3421C94.498 94.4984 91.319 93.1604 87.9926 92.0963C87.8663 92.0542 87.8136 92.2438 87.94 92.2965C90.9611 93.4554 94.2032 94.825 97.0243 96.6897C96.9085 96.774 96.7822 96.8583 96.6559 96.932C95.9717 97.3429 95.1401 97.5852 94.2558 97.68C92.7611 95.9839 90.8242 94.6248 88.8242 93.5186C88.6242 93.4133 88.4558 93.6977 88.6452 93.8241C90.4242 94.9725 92.14 96.2156 93.519 97.7222C88.9295 97.7854 83.1925 94.2666 85.0136 89.9472C85.1926 89.7154 85.3505 89.4731 85.4978 89.2097C88.1084 89.02 90.8032 88.9147 93.34 89.6416C95.2664 90.1895 98.0243 92.0121 98.4243 93.9611C97.119 93.2658 95.7927 92.6126 94.4453 92.0015C92.0137 90.9059 89.5505 90.0314 86.8768 90.6425C86.6347 90.7057 86.74 91.0323 86.961 91.0007ZM84.4873 94.6143C83.5083 95.2991 82.0557 95.7626 81.1399 94.7196C80.5293 94.0348 80.5714 93.0656 80.0767 92.3387C81.3609 92.2122 82.582 91.833 83.5925 91.1903C83.4662 92.4335 83.8241 93.5924 84.4873 94.6143ZM76.3082 125.925C76.6345 125.883 76.9609 125.83 77.2977 125.788C71.3397 136.144 65.3186 146.479 59.0974 156.678C54.8132 163.705 50.3289 170.605 45.9815 177.59C54.6342 159.385 62.6659 140.875 70.7924 122.427C71.2766 122.227 71.7082 121.827 71.9187 121.321C73.7924 116.612 75.3924 111.85 76.7398 106.983C76.9819 107.099 77.224 107.225 77.4661 107.341C78.2556 107.699 79.0662 108.015 79.8767 108.31C77.1714 113.346 76.2661 119.762 75.6872 125.304C75.6345 125.599 75.9924 125.957 76.3082 125.925ZM52.3289 145.51C54.129 138.589 55.9816 131.709 57.4237 124.714C58.5501 119.225 60.5501 112.24 59.7922 106.519C62.8449 111.207 65.7186 116.001 68.3397 120.952C61.2764 139.337 53.1079 157.194 44.5288 174.893C47.2236 165.116 49.771 155.319 52.3289 145.51ZM68.087 158.374C63.687 163.915 59.0343 169.246 54.1921 174.409C51.4973 177.285 48.6131 179.992 45.771 182.731C51.3289 175.03 56.3921 166.971 61.4343 158.901C68.3713 147.786 75.024 136.513 81.2557 124.977C83.1715 124.524 85.0768 124.018 87.0031 123.66C88.3505 123.407 89.8137 123.333 91.2768 123.239C84.4136 135.533 76.8345 147.333 68.087 158.374ZM98.0875 113.177C97.8664 114.473 97.9612 116.686 97.2769 117.802C95.9295 120.036 93.8979 120.162 91.6242 120.468C88.2242 120.931 84.6662 121.627 81.2872 122.68C80.6557 122.048 79.5188 121.911 78.9293 122.923C78.7925 123.165 78.6451 123.407 78.5083 123.66C78.1083 123.818 77.7188 123.966 77.3293 124.134C78.9188 119.214 80.8978 113.989 81.603 108.879C87.1715 110.565 93.0558 110.775 98.6875 109.416C98.4664 110.66 98.298 111.934 98.0875 113.177ZM103.53 103.759C102.951 104.054 102.351 104.307 101.761 104.56C101.203 104.18 100.435 104.18 100.056 104.96C100.014 105.055 99.9717 105.15 99.9296 105.234C93.1295 107.499 85.6978 107.056 79.0662 104.128C69.2344 99.7871 63.308 91.0007 61.7396 81.3187C65.0239 82.2564 68.1818 83.4995 71.245 84.9956C71.0976 85.4907 71.0345 86.007 71.0555 86.5443C68.8344 85.9543 66.5186 85.7857 64.1817 85.2168C63.8659 85.1431 63.6344 85.6171 63.9501 85.7646C65.5081 86.4494 67.1818 86.3862 68.8344 86.6496C69.6239 86.776 70.3923 86.9657 71.1397 87.1869C71.8134 90.7373 75.8872 92.5704 79.6241 92.3703C79.203 93.5291 79.8767 95.2253 80.8241 95.9312C82.1294 96.911 83.8978 96.4896 85.1399 95.6257C85.182 95.5941 85.2031 95.5625 85.2241 95.5308C87.3715 97.8802 91.2348 99.313 94.5085 98.9443C95.319 100.082 95.9401 101.378 96.2559 102.874C96.3401 103.253 96.9085 103.095 96.8348 102.716C96.5401 101.273 95.9506 99.9873 95.1611 98.8495C95.9296 98.702 96.6559 98.4386 97.3085 98.0593C97.6138 97.8802 97.8875 97.68 98.1296 97.4588C100.035 98.8811 101.688 100.567 102.856 102.642C103.003 102.895 103.445 102.726 103.34 102.442C102.466 100.135 100.561 98.407 98.5506 97.0269C99.0243 96.4896 99.3296 95.889 99.4875 95.2569C100.709 95.9523 101.909 96.6897 103.088 97.4588C104.814 98.5861 106.445 99.8082 108.014 101.083C106.54 102.094 105.035 103 103.53 103.759ZM121.698 81.4768C121.351 81.382 120.993 81.3398 120.825 81.3082C120.372 81.2134 119.93 81.0132 119.477 80.9184C118.414 80.6866 117.235 80.6972 116.319 81.3609C115.098 82.2353 115.088 83.7945 116.319 84.669C117.309 85.3643 118.783 85.9332 120.067 85.8068C119.898 86.2282 119.73 86.6496 119.583 87.071C119.561 87.0499 119.551 87.0289 119.54 87.0183C118.34 85.9437 116.435 85.6382 114.867 85.7436C113.435 85.8489 111.288 86.3546 111.225 88.1351C111.172 89.7681 112.888 90.6003 114.067 91.3589C114.74 91.7908 115.761 92.4967 116.751 92.8338C116.498 93.1604 116.256 93.487 115.993 93.8031C115.73 93.6661 115.467 93.5397 115.182 93.4238C113.793 92.7706 112.098 92.1912 110.688 92.2544C109.656 92.3071 108.056 92.7917 107.667 93.8873C106.982 95.8258 109.119 97.9645 111.088 98.7441C110.319 99.3868 109.519 99.9978 108.719 100.577C106.635 98.9864 104.467 97.522 102.309 96.184C101.424 95.6362 100.509 95.1094 99.6033 94.5932C99.7085 93.1077 99.0243 91.559 97.6559 90.4107C94.7611 87.9981 90.8347 87.6715 87.1715 87.8296C88.0558 87.503 88.8873 87.0289 89.5189 86.3125C90.2663 85.4697 90.6137 84.0895 89.7295 83.194C88.8558 82.2985 87.4663 82.7199 86.6031 83.3837C86.1926 83.6997 85.8662 84.0685 85.582 84.4793C85.5083 83.7208 85.4136 82.9728 85.2873 82.2248C85.1399 81.4136 84.8452 80.4759 83.8136 80.6972C83.4346 80.7814 83.182 80.95 83.0136 81.1923C82.9294 81.245 82.8452 81.2977 82.7609 81.3714C82.203 81.835 82.0767 82.5724 82.1715 83.4047C80.5293 81.8982 78.5082 80.9184 76.1082 81.1396C75.2345 81.2239 74.3924 81.5084 73.6556 81.9614C70.9292 80.0861 67.9186 78.5164 64.9396 77.2416C64.7186 76.4936 64.2449 75.8193 63.7712 75.2188C63.0975 74.376 62.4238 73.7123 61.4449 73.2803C61.5291 72.3321 61.6449 71.3945 61.8027 70.4463C62.2764 70.9942 62.908 71.4577 63.3922 71.7422C64.6238 72.4586 66.3712 73.2487 67.466 71.9107C68.5923 70.5411 67.5397 69.0873 66.6028 67.9916C65.7818 67.0329 64.7712 66.1058 63.6659 65.4947C63.4975 65.3999 63.3186 65.3472 63.1291 65.3051C63.3922 64.5466 63.6659 63.7986 63.9923 63.0611C64.3817 63.7037 65.066 64.1989 65.7186 64.4939C66.8765 65.0101 68.2134 64.8837 69.0871 63.925C70.045 62.8715 69.8029 61.4492 69.0239 60.3851C68.5607 59.7425 67.9502 59.0472 67.2344 58.5941C67.9397 57.5933 68.666 56.603 69.466 55.6864C70.1818 54.8646 70.9713 54.1061 71.7608 53.3476C72.3503 55.4757 73.224 57.5827 74.0977 59.5528C73.045 61.3544 71.8345 63.0822 71.1397 65.0628C70.3502 67.3068 70.6555 69.9933 71.8239 72.1636C72.4555 72.8378 73.1608 73.4489 73.8766 73.9967C76.424 75.9457 80.2662 77.9369 83.5715 77.2943C85.1083 76.9887 86.3926 76.0195 87.4873 74.7869C87.7505 74.5024 88.0031 74.1969 88.2452 73.8808C88.9716 73.4173 89.4874 72.585 89.6558 71.7106C89.7505 71.542 89.8453 71.384 89.94 71.2154C90.0453 71.0468 90.14 70.8783 90.2347 70.6992C90.9716 71.0258 91.6979 71.3418 92.4453 71.6579C91.8453 72.7957 91.34 74.0599 91.0242 75.3452C90.6347 76.3145 90.3716 77.2837 90.54 78.2424C90.6032 78.5901 90.7084 78.9062 90.8347 79.2117C91.0663 80.4865 91.6347 81.698 92.6874 82.7199C94.3716 84.3634 96.8664 85.3432 98.9822 86.2914C98.9822 86.2914 98.9927 86.2914 98.9927 86.3019C103.193 87.8085 108.151 88.0824 110.782 83.9104C111.751 82.3723 112.151 80.2758 113.056 78.6217C113.077 78.5374 113.109 78.4531 113.13 78.3794C114.972 79.0115 116.972 78.9904 118.919 79.1906C120.035 79.3065 121.172 79.4645 122.309 79.612C122.077 80.2441 121.898 80.8657 121.698 81.4768ZM123.277 63.1138C123.088 63.3245 122.972 63.5457 122.919 63.7775C119.846 64.3991 116.709 63.7037 113.677 62.9347C110.372 62.1024 107.151 60.9014 104.098 59.3632C99.7822 57.1929 95.8559 54.3589 92.4032 51.0087C91.8874 50.05 90.8768 49.2283 90.1084 48.5961C89.4452 48.0483 88.8768 47.5848 88.3716 46.8789C88.0452 46.4153 87.8031 45.9518 87.3821 45.6252C87.4136 45.5304 87.4452 45.4356 87.5084 45.3302C87.8557 44.814 88.2137 44.3188 88.5505 43.8026C88.6137 43.7183 88.6874 43.6446 88.7716 43.5814C89.2031 44.1608 89.7821 44.6981 90.2137 45.2143C90.6242 45.7095 91.0558 46.173 91.5084 46.605C91.5084 46.626 91.519 46.6366 91.519 46.6577C92.4348 47.6269 93.4769 48.4803 94.319 49.1756C97.3717 51.7146 100.382 54.4327 103.698 56.6451C106.372 58.4361 109.288 59.7319 112.319 60.7012C115.361 61.8706 118.983 62.5027 121.772 62.7661C122.309 62.8399 122.846 62.9136 123.383 62.9768C123.351 63.0295 123.319 63.0716 123.277 63.1138ZM124.93 70.5517C124.793 69.9828 124.698 69.4033 124.614 68.8239C125.004 68.8871 125.414 68.9187 125.814 68.9609C126.467 69.0451 127.119 69.1189 127.783 69.1821C126.951 69.8247 126.056 70.362 125.077 70.8045C125.025 70.7308 124.983 70.636 124.93 70.5517ZM134.983 68.55C134.835 68.6869 134.646 68.7923 134.456 68.8976C132.098 71.0468 129.351 72.6166 126.688 74.3444C126.256 73.6069 125.814 72.88 125.467 72.0898C125.604 72.0056 125.73 71.9213 125.867 71.8475C125.856 71.837 125.846 71.8265 125.835 71.8159C127.341 71.1417 128.698 70.2778 129.92 69.1505C130.404 68.708 129.972 68.0548 129.435 67.9916C128.309 67.8546 127.172 67.7598 126.035 67.6755C125.519 67.6334 124.962 67.5491 124.446 67.5807C124.34 66.8011 124.183 66.0426 123.909 65.3262C126.056 65.0628 128.277 65.0417 130.425 65.0944C131.877 65.126 135.288 64.9153 135.804 66.8011C135.825 66.8643 135.825 66.917 135.835 66.9802C135.983 67.3384 135.772 67.8652 134.983 68.55Z" fill="#1D1D1B"/>
<path d="M79.992 203.075C79.9815 201.347 80.2973 199.503 78.6868 198.534C76.3604 197.123 71.3498 197.818 68.7077 197.755C64.1076 197.639 59.5707 197.628 54.9917 198.144C52.7917 198.387 52.6653 201.705 54.9917 201.674C60.3497 201.589 65.655 201.01 70.9919 200.641C72.2551 200.557 73.5393 200.525 74.8025 200.399C75.3604 200.325 75.9288 200.251 76.4867 200.167C77.6341 199.556 78.0867 199.735 77.8552 200.705C78.0762 201.316 77.7183 202.485 77.6446 203.085C77.3815 205.182 77.8657 205.403 75.9604 206.099C73.9604 206.826 70.7708 206.531 68.6445 206.573C66.2129 206.625 63.7602 206.657 61.3391 206.531C58.6865 206.394 53.9917 206.794 53.1706 203.907C52.6338 201.99 53.118 199.556 52.8022 197.533C52.6759 196.722 51.36 196.764 51.2021 197.533C50.7179 199.967 49.9706 203.739 50.939 206.088C51.2864 206.92 51.8548 207.468 52.5601 207.847C52.5495 207.89 52.539 207.921 52.5285 207.963C52.3074 213.052 52.3601 218.088 53.0338 223.134C53.0759 223.45 53.539 223.471 53.539 223.134C53.6653 218.183 53.5811 213.231 53.6232 208.279C54.5811 208.564 55.6338 208.669 56.6128 208.806C60.3286 209.333 64.1602 209.322 67.8971 209.006C70.7498 208.775 75.8025 209.196 78.4236 207.816C80.2973 206.826 80.0026 205.066 79.992 203.075Z" fill="#1D1D1B"/>
<path d="M69.7923 233.406C69.6133 233.501 69.4239 233.585 69.2449 233.68C69.0028 233.806 69.2133 234.164 69.4554 234.048C69.6344 233.954 69.8239 233.869 70.0028 233.775C70.2449 233.659 70.0344 233.29 69.7923 233.406Z" fill="#1D1D1B"/>
<path d="M76.9489 214.938C76.8226 214.295 75.8752 214.358 75.7174 214.938C74.5279 219.204 75.0858 224.24 74.6752 228.644C74.6437 228.96 75.1489 229.013 75.2226 228.718C76.2121 224.504 77.7805 219.289 76.9489 214.938Z" fill="#1D1D1B"/>
<path d="M73.3401 229.74C67.9295 230.709 62.582 232.848 57.3083 230.087C57.0135 229.929 56.782 230.34 57.0556 230.53C62.1926 233.986 68.3716 233.143 73.8033 230.825C74.4664 230.54 73.9612 229.624 73.3401 229.74Z" fill="#1D1D1B"/>
<path d="M23.1484 290.549C23.1169 290.476 22.98 290.444 22.959 290.549C22.3905 293.605 22.5168 296.765 22.0116 299.852C21.5695 302.539 20.7484 304.898 19.6957 307.406C19.2747 308.407 20.8221 308.912 21.3589 308.112C22.8432 305.899 23.159 303.181 23.4011 300.579C23.7274 297.334 24.38 293.636 23.1484 290.549Z" fill="#1D1D1B"/>
<path d="M153.646 100.661C142.278 97.2164 132.236 105.308 127.667 115.158C122.435 126.431 123.425 140 119.53 151.652C119.277 152.021 119.12 152.432 119.109 152.843C118.793 153.707 118.446 154.56 118.067 155.392C117.92 155.603 117.804 155.856 117.72 156.119C117.025 157.552 116.235 158.943 115.309 160.281C114.046 143.435 112.309 125.588 104.267 110.522C104.035 110.091 103.372 110.386 103.488 110.849C106.688 123.66 109.309 136.387 110.919 149.398C110.783 149.419 110.646 149.45 110.498 149.482L107.772 150.04C107.088 150.177 107.288 151.178 107.93 151.21C108.814 151.262 109.698 151.305 110.583 151.357C110.772 151.368 110.972 151.378 111.162 151.389C111.204 151.715 111.225 152.042 111.267 152.379C110.656 152.158 109.888 152.147 109.33 152.063C109.046 152.021 108.761 152.358 109.025 152.6C109.298 152.843 109.562 153.096 109.835 153.338C109.962 153.454 110.088 153.57 110.204 153.675C110.193 153.707 110.172 153.738 110.162 153.791C110.067 153.959 109.962 154.128 109.856 154.286C109.625 154.634 109.404 154.918 109.067 155.171C108.593 155.529 108.246 156.214 108.646 156.772C109.414 157.858 110.614 158.237 111.793 157.678C111.888 158.764 111.983 159.849 112.067 160.944C112.656 168.972 113.193 177 113.698 185.039C113.93 188.736 114.077 192.466 113.825 196.174C113.477 201.242 111.825 205.298 109.498 209.754C109.246 210.239 109.425 210.703 109.751 210.976C104.498 212.788 98.0982 213.01 94.8981 208.827C94.7929 208.511 94.6139 208.216 94.3613 208.016C93.7402 206.962 93.2771 205.677 93.0455 204.139C92.0455 197.449 93.1823 189.811 93.435 183.068C93.4771 182.078 91.9823 182.099 91.9086 183.068C91.5086 188.505 90.9823 193.941 90.5928 199.377C90.3718 202.443 90.3718 205.509 91.6139 208.237C90.3928 208.775 89.256 209.66 88.3086 210.513C87.9823 210.808 87.6349 211.124 87.3086 211.451C87.477 209.575 87.677 207.7 87.898 205.835C88.2138 204.318 88.5296 202.801 88.8244 201.284C89.7507 196.533 90.7612 191.781 91.4139 186.988C91.6034 185.618 92.1297 180.624 91.9191 176.062C91.9297 175.989 91.9297 175.904 91.9402 175.831C91.5297 172.891 91.1823 169.941 90.7823 167.002C90.277 164.695 89.7507 162.398 89.3191 160.091H89.3086C89.3086 160.07 89.3086 160.049 89.3086 160.028C89.0981 158.943 88.9191 157.858 88.7612 156.762C88.7717 158.426 88.8033 160.08 88.8244 161.745C87.3296 160.207 86.1612 158.521 85.7506 156.309C85.7085 156.088 85.3717 156.14 85.3612 156.362C85.3191 159.059 86.0664 161.829 88.0875 163.747C88.3296 163.968 88.5928 164.042 88.8454 164.01C88.877 167.676 88.8349 171.332 88.5402 174.977C88.5402 175.241 88.5402 175.43 88.5296 175.515C88.3296 178.328 88.0033 181.141 87.6243 183.932C86.9507 188.842 86.077 193.73 85.3296 198.629C83.8243 208.564 83.0664 218.509 83.2243 228.56C83.3822 238.79 84.298 248.977 85.4875 259.133C86.4664 267.414 87.4033 275.674 89.0244 283.828C88.9296 283.807 88.8244 283.796 88.7191 283.817C82.8138 284.702 77.14 284.45 71.2557 283.512C70.6873 283.417 70.1188 283.354 69.5609 283.301C69.5504 283.196 69.5399 283.09 69.4978 282.964C67.8767 278.023 69.0557 271.533 69.0767 266.36C69.1083 261.24 69.1188 256.12 69.1083 251C69.1083 250.557 68.4346 250.557 68.4241 251C68.3188 256.12 68.2241 261.24 68.1609 266.36C68.0872 271.481 69.0978 278.139 67.4135 282.964C67.382 283.038 67.382 283.112 67.3609 283.175C64.5503 283.101 61.8029 283.343 58.8555 283.407C57.045 283.449 55.2344 283.375 53.4239 283.238C53.4449 283.164 53.4765 283.101 53.4765 283.006C53.6133 276.896 53.1712 270.743 52.7712 264.643C52.7502 264.317 52.266 264.317 52.266 264.643C52.2765 270.775 51.9291 276.885 51.8554 283.006C51.8554 283.048 51.866 283.069 51.8765 283.101C44.9395 282.458 37.9816 281.078 31.0867 281.647C29.7709 267.941 34.8552 254.614 34.2657 240.802C33.9499 233.269 33.4236 225.8 33.8552 218.256C34.3183 210.218 35.7289 202.169 37.3184 194.289C37.3921 193.93 36.9184 193.814 36.7815 194.141C30.6446 209.638 31.2762 225.231 32.0025 241.56C32.3815 250.052 31.992 257.974 30.5078 266.329C29.392 272.566 28.6551 279.266 30.9183 285.303C29.613 285.629 29.4235 288.095 30.9709 288.316C35.0131 288.906 39.0658 289.38 43.1185 289.728C42.2869 295.754 44.3395 302.633 47.8343 307.532C48.2975 308.175 49.2554 307.627 48.908 306.911C46.108 301.158 44.7606 295.954 43.5816 289.77C49.5396 290.254 55.5081 290.444 61.4977 290.318C61.4871 290.486 61.5082 290.655 61.5503 290.823C61.845 291.845 62.6556 292.52 63.603 292.93C64.2135 293.194 64.7609 293.426 65.4451 293.447C65.7188 293.457 65.9714 293.415 66.203 293.352C66.203 293.468 66.1925 293.584 66.1925 293.689C65.9293 293.605 65.6661 293.541 65.3819 293.52C64.4556 293.447 63.5503 293.531 62.6135 293.552C62.1082 293.563 61.6345 293.573 61.1398 293.731C60.7713 293.836 60.445 294.026 60.1713 294.3C59.7398 294.89 59.7187 294.89 60.1082 294.311C59.645 294.416 59.245 295.027 59.4345 295.491C59.645 296.007 59.5924 296.565 59.9082 297.071C60.2977 297.682 60.845 298.082 61.4661 298.44C62.6556 299.136 63.9819 299.525 65.3714 299.452C65.5188 299.441 65.6662 299.42 65.8135 299.389C65.4661 301.791 64.8451 304.129 64.2977 306.5C62.0345 306.215 59.645 306.405 57.9608 306.732C57.2239 306.879 57.4239 307.975 58.1292 307.996C60.3398 308.049 62.7187 307.964 64.8135 308.775C66.7504 309.534 67.7714 310.798 68.7083 312.484C68.6557 312.537 68.603 312.6 68.5609 312.674C67.4451 314.749 66.8346 316.382 64.2135 317.077C63.9924 317.141 63.7714 317.183 63.5398 317.214C62.6766 317.214 61.8029 317.193 60.9398 317.183C60.1187 317.077 59.3187 316.898 58.5713 316.709C55.466 315.918 48.687 313.632 49.0343 309.471C49.0554 309.207 48.6449 309.165 48.5817 309.408C48.2554 310.598 48.3396 311.683 48.708 312.652C48.5817 312.547 48.4343 312.442 48.2554 312.368C42.6342 309.955 35.6447 310.25 29.6551 310.577C29.213 310.598 21.9287 310.914 20.3602 312.263C20.3497 311.894 20.3287 311.525 20.2655 311.135C20.1813 310.588 19.3076 310.725 19.3076 311.262C19.3392 316.803 13.9391 321.017 8.49692 319.764C4.45476 318.837 3.23369 315.118 0.654709 312.41C0.686287 312.273 0.728392 312.136 0.781023 311.999C1.07576 312.105 1.44419 312.041 1.61262 311.746C3.54948 308.407 7.08638 308.291 10.5601 308.502C11.2022 308.544 11.3706 307.469 10.718 307.353C7.17059 306.732 1.42314 306.395 0.496809 310.861C0.28628 310.809 0.0547009 310.883 -0.0716171 311.125C-0.218987 311.42 -0.334782 311.715 -0.387414 312.031C-0.734787 312.178 -0.997948 312.547 -0.945315 312.979C-3.85062 312.326 -7.21909 312.937 -9.97702 313.422C-12.8823 313.927 -17.1561 315.318 -15.9455 319.248C-14.9876 322.355 -10.3981 323.43 -7.62962 323.946C-5.62959 324.326 -3.02956 324.673 -0.703207 324.357C13.697 326.043 28.4656 325.948 42.9395 325.969C50.1396 325.98 57.3502 325.864 64.5503 325.664C68.403 325.558 72.2662 325.421 76.1189 325.263C78.4453 325.168 81.2769 325.274 83.3401 323.978C86.6559 321.902 86.5296 317.277 83.4559 315.086C79.7821 312.463 74.6557 312.937 70.4662 314.38C70.4557 314.022 70.3925 313.643 70.2873 313.232C70.5715 313.063 70.782 312.768 70.7925 312.4C70.8978 308.976 68.4767 307.353 65.5609 306.711C67.8872 302.233 69.0346 296.375 68.2451 291.371C68.3293 290.929 68.2872 290.455 68.1399 290.044C69.0241 290.033 69.8978 290.044 70.761 290.118C73.4136 290.36 75.8031 291.614 78.4242 291.993C83.0348 292.667 87.4875 291.024 91.6981 289.317C92.435 289.022 92.8981 288.379 92.6981 287.557C90.0033 276.401 89.4033 264.411 88.3296 252.991C87.2559 241.55 86.4138 230.087 86.8033 218.583C86.8349 217.698 86.877 216.824 86.9296 215.949C88.1296 215.138 89.1717 214.042 90.3718 213.22C91.3928 212.525 92.6349 211.967 93.6665 211.24C94.035 211.63 94.4245 211.988 94.8245 212.314C90.6876 213.863 88.6665 223.145 93.6139 223.966C93.3192 225.304 93.5297 226.685 94.5929 227.886C96.6771 230.235 100.056 229.266 101.961 227.222C102.898 228.444 104.277 229.361 105.783 229.339C107.783 229.308 109.562 227.517 109.372 225.61C111.34 227.327 115.225 226.484 116.277 223.956C117.772 220.374 115.667 214.611 112.214 212.662C112.625 212.42 113.025 212.156 113.414 211.882C114.614 211.019 113.604 209.259 112.256 209.902C111.951 210.049 111.646 210.186 111.33 210.313C113.025 207.005 114.151 203.254 114.909 199.419C114.983 199.398 115.067 199.367 115.141 199.324C127.372 192.771 135.404 180.329 143.088 169.162C151.341 157.173 158.794 144.33 162.425 130.108C165.12 119.783 166.52 104.56 153.646 100.661ZM89.3086 285.176C89.4349 285.809 89.5612 286.43 89.7086 287.062C84.877 288.853 80.8453 289.58 75.6452 287.768C71.3715 286.283 67.0451 286.746 62.6029 286.873C52.2449 287.168 41.8658 286.62 31.5815 285.292C31.4236 284.418 31.2867 283.554 31.192 282.68C35.4973 283.775 40.15 283.881 44.5501 284.26C49.5185 284.692 54.5713 285.334 59.5713 285.134C61.9187 285.039 64.2451 284.576 66.603 284.65C69.0872 284.723 71.5294 285.366 73.9821 285.682C79.0348 286.335 84.1085 286.082 89.1296 285.261C89.1928 285.24 89.2454 285.208 89.3086 285.176ZM113.498 219.773C113.751 220.679 114.098 222.418 113.456 223.25C112.951 223.903 110.751 224.156 110.225 223.303C109.677 222.418 108.267 222.923 108.425 223.935C107.804 223.714 107.046 224.072 106.793 224.757C106.561 225.378 106.13 226.305 105.361 226.242C104.456 226.179 103.477 225.052 103.172 224.261C102.719 223.092 101.203 223.25 100.898 224.209C100.572 224.24 100.225 224.367 99.8982 224.641C99.0877 225.315 97.6982 226.569 96.7719 225.42C95.8455 224.272 96.2876 222.66 96.7824 221.449C97.0877 220.701 95.9403 220.079 95.435 220.658C95.2139 220.911 95.0034 221.185 94.8034 221.47C93.5823 220.711 93.9297 218.172 94.1823 217.013C94.5192 215.496 95.3929 214.464 96.3824 213.336C100.425 215.717 105.561 215.654 109.972 213.821C109.993 213.905 110.014 213.979 110.056 214.063C111.067 216.118 112.846 217.487 113.498 219.773ZM160.499 118.403C159.499 118.192 158.552 118.392 157.52 118.529C156.994 118.603 156.541 118.93 156.541 119.509C156.541 119.994 156.994 120.552 157.52 120.489C158.499 120.373 159.457 120.331 160.362 119.983C160.267 120.837 160.141 121.69 159.983 122.533C159.32 122.68 158.678 122.87 158.004 123.081C156.71 123.491 157.236 125.451 158.562 125.114C158.889 125.03 159.194 124.945 159.51 124.861C159.141 126.515 158.71 128.127 158.299 129.665C154.91 142.139 148.594 153.612 141.52 164.347C134.141 175.536 126.32 188.431 115.446 196.648C115.877 193.825 116.13 191.002 116.277 188.315C116.709 180.624 116.235 172.839 115.677 165.137C115.688 165.127 115.688 165.127 115.698 165.116C116.919 163.705 117.951 162.219 118.877 160.681C120.656 163.357 123.941 165.517 126.067 167.402C127.393 168.572 130.046 168.719 130.899 166.781C132.425 163.304 130.962 160.428 129.004 157.436C127.435 155.055 125.667 152.074 122.983 150.978C123.362 149.661 123.677 148.323 123.972 146.975C124.909 147.87 126.151 148.555 127.162 149.018C129.393 150.051 131.73 150.483 134.162 150.715C136.615 150.946 137.815 147.975 136.815 146.09C135.646 143.888 133.983 142.149 132.025 140.632C130.288 139.294 127.835 137.114 125.509 137.872C125.741 136.186 125.962 134.511 126.193 132.836C126.278 132.225 126.362 131.604 126.456 130.971C130.657 133.7 143.225 138.315 142.92 130.424C142.794 127.316 139.941 124.914 137.499 123.418C135.214 122.027 131.688 120.289 128.783 120.405C131.383 111.997 136.13 104.275 145.373 102.927C151.446 102.042 157.699 104.823 159.71 110.923C160.099 112.103 160.341 113.335 160.457 114.579C159.352 114.505 158.141 114.705 157.152 114.737C156.278 114.768 156.278 116.064 157.152 116.096C158.173 116.138 159.425 116.338 160.552 116.254C160.562 116.981 160.541 117.686 160.499 118.403Z" fill="#1D1D1B"/>
<path d="M25.9477 287.231C19.095 288.21 12.4633 288.779 5.61058 288.885C5.89479 288.158 5.58953 287.209 4.71583 287.009C2.76843 286.567 0.85262 287.062 -1.1053 287.283C-3.08428 287.494 -5.06325 287.652 -7.05276 287.736C-8.36856 287.789 -12.1055 288.411 -12.7792 286.925C-13.0528 286.314 -12.8213 285.113 -12.8528 284.397C-12.8634 284.175 -12.8844 283.965 -12.9055 283.743C-12.7055 283.638 -12.5476 283.448 -12.5055 283.174C-12.1055 280.867 -12.6107 278.634 -12.6528 276.327C-12.6844 274.135 -12.5055 271.933 -12.4423 269.742C-12.2949 265.043 -12.1791 260.355 -11.9476 255.656C-11.4844 246.111 -10.5791 236.587 -9.337 227.106C-7.5054 213.136 -4.85273 199.314 -2.24216 185.47C-2.78954 185.312 -3.28428 185.091 -3.73692 184.838C-6.6738 198.755 -9.21068 212.767 -11.2633 226.842C-12.6107 236.092 -13.7265 245.384 -14.4002 254.708C-14.7371 259.386 -14.9581 264.095 -14.9371 268.794C-14.9266 271.301 -14.695 273.809 -14.6423 276.316C-14.6002 278.17 -14.8318 280.003 -14.6108 281.826C-14.9266 283.754 -15.4108 286.451 -14.716 288.284C-14.0634 290.001 -12.1897 290.012 -10.6002 290.233C-8.0633 290.581 -5.50536 290.813 -2.94743 290.802C-2.179 290.802 -1.35794 290.813 -0.526347 290.791C-0.705297 292.899 -0.494768 295.311 0.0736609 297.682C-0.536874 298.545 -0.305293 299.883 0.652616 300.579C0.768407 300.663 0.90525 300.747 1.04209 300.811C1.88421 303.012 3.04212 305.025 4.46319 306.521C4.80004 306.879 5.52637 306.51 5.33689 306.015C4.71583 304.414 3.89477 302.907 3.15791 301.369C3.48423 301.401 3.7895 301.401 4.08424 301.39C5.49479 301.327 6.80007 301.032 7.86324 300.073C9.36852 298.725 8.25272 295.627 6.11585 295.859C5.14742 295.964 4.35793 296.344 3.42108 296.565C2.76843 296.723 2.13685 296.744 1.48421 296.87C1.31578 296.238 1.16841 295.596 1.03157 294.953C1.46315 295.237 1.93684 295.459 2.43159 295.627C4.24214 296.238 6.24216 295.817 7.32639 294.173C8.26324 292.751 7.27376 290.981 5.83163 290.497C4.71583 290.117 3.74739 290.549 2.67369 290.686C2.68422 290.676 2.49475 290.686 2.42106 290.686C2.12632 290.686 1.8421 290.728 1.54736 290.77C1.90526 290.728 1.16842 290.802 0.99999 290.844C0.768409 290.907 0.547352 291.013 0.336823 291.129C0.305243 291.139 0.28419 291.171 0.263138 291.181C0.231558 291.034 0.199979 290.897 0.168399 290.749C1.51579 290.686 2.85265 290.507 4.05266 290.033C4.10529 290.043 4.1474 290.054 4.20003 290.075C4.33688 290.159 4.48425 290.001 4.44214 289.875C4.45267 289.875 4.46319 289.864 4.46319 289.864C4.91583 290.233 5.25268 290.507 4.47372 289.854C4.52635 289.822 4.58951 289.801 4.64215 289.77C4.89478 289.78 5.20004 289.759 5.64216 289.843C7.89482 290.265 10.6843 289.907 12.9791 289.801C17.4107 289.601 21.8845 289.169 26.2319 288.263C26.9267 288.126 26.6214 287.136 25.9477 287.231Z" fill="#1D1D1B"/>
<path d="M28.402 281.689C25.9072 282.1 23.4019 282.353 20.8966 282.521C21.1177 277.391 20.8966 272.776 20.2966 267.688C20.2545 267.319 19.6861 267.308 19.7176 267.688C20.0861 272.523 20.1387 277.675 19.9282 282.521C19.9282 282.542 19.9387 282.553 19.9387 282.574C16.2228 282.795 12.507 282.848 8.78064 282.985C8.90696 282.837 9.01222 282.658 9.06485 282.427C9.63328 279.982 8.91748 278.244 8.42274 275.852C7.78062 272.787 7.64378 269.679 7.63325 266.571C7.60167 260.903 7.48589 255.256 7.72799 249.588C7.74905 249.051 6.93851 249.061 6.90693 249.588C6.48587 255.224 6.07534 260.913 6.23324 266.571C6.30692 269.289 6.3385 271.975 6.19113 274.694C6.03323 277.464 5.32796 279.824 6.41219 282.427C6.51745 282.69 6.70692 282.901 6.92798 283.069C5.19111 283.153 3.44372 283.259 1.70685 283.427C1.6437 283.164 1.45422 282.943 1.13842 282.964C-2.86163 283.217 -7.00906 283.048 -10.967 282.384C-11.9775 282.216 -12.4302 283.743 -11.3986 283.954C-7.16695 284.786 -3.1669 284.881 1.09632 284.186C1.17 284.281 1.27527 284.344 1.43317 284.354C6.42271 284.597 11.4333 284.439 16.4229 284.302C20.5387 284.186 24.8967 284.312 28.9493 283.554C30.1388 283.311 29.6125 281.489 28.402 281.689Z" fill="#1D1D1B"/>
<path d="M146.729 299.041C146.719 298.735 146.245 298.725 146.245 299.041C146.287 304.172 144.393 307.448 141.203 311.272C140.203 312.473 139.382 313.653 138.74 314.928C134.561 313.717 127.392 308.86 123.024 311.23C122.929 310.577 122.74 309.934 122.455 309.355C121.445 307.322 119.245 306.268 117.024 306.605C114.887 306.932 113.245 308.449 112.845 310.577C112.666 311.546 112.729 312.61 113.076 313.538C113.413 314.412 113.95 314.791 114.571 315.244C113.003 315.897 111.35 316.888 110.171 318.11C110.108 318.078 110.055 318.047 109.992 318.026C109.992 318.015 109.992 318.005 110.003 318.005C109.929 317.994 109.855 317.983 109.782 317.983C109.76 317.983 109.739 317.973 109.718 317.973L108.56 317.825C108.371 317.804 108.171 317.752 107.982 317.752C107.645 317.752 107.434 317.91 107.181 318.11C106.887 318.342 106.824 318.921 107.034 319.237C107.371 319.722 107.739 319.796 108.287 319.89C108.624 319.943 108.96 320.006 109.308 320.059C109.445 320.09 109.582 320.112 109.729 320.122C109.782 320.133 109.845 320.122 109.897 320.112C109.95 320.417 110.171 320.691 110.603 320.712C115.318 320.954 120.034 320.796 124.75 320.596C128.961 320.417 133.508 320.638 137.582 319.49C137.698 319.458 137.782 319.395 137.856 319.311C138.329 319.669 139.108 319.616 139.245 318.879C140.129 314.338 143.003 311.704 145.003 307.785C146.403 305.046 146.877 302.086 146.729 299.041ZM124.75 318.31C120.087 318.521 115.424 318.689 110.782 319.184C110.792 319.142 110.792 319.1 110.792 319.058C110.792 319.048 110.792 319.047 110.792 319.037C112.497 318.405 114.192 317.193 115.445 315.94C115.466 315.919 115.487 315.887 115.508 315.855C116.003 315.897 116.392 315.202 115.845 314.865C115.013 314.349 114.708 312.368 114.803 311.494C114.94 310.177 115.813 309.113 117.108 308.776C118.371 308.46 119.94 308.87 120.697 309.987C121.582 311.304 121.182 312.8 120.561 314.117V314.128C120.529 314.212 120.487 314.275 120.455 314.359C120.255 314.854 120.54 315.192 120.94 315.307C121.234 315.487 121.603 315.497 121.929 315.171C122.15 314.939 122.329 314.696 122.487 314.433C126.508 310.345 133.013 316.709 137.813 317.362C137.74 317.625 137.677 317.889 137.613 318.163C137.613 318.163 137.614 318.163 137.603 318.163C133.392 317.457 128.971 318.12 124.75 318.31Z" fill="#1D1D1B"/>
<path d="M117.612 316.087C117.412 315.908 117.254 315.845 116.991 315.813C116.496 315.75 115.991 316.013 115.991 316.572C115.991 317.13 116.496 317.404 116.991 317.33C117.244 317.299 117.412 317.225 117.612 317.056C117.875 316.825 117.875 316.319 117.612 316.087Z" fill="#1D1D1B"/>
<path d="M14.3166 145.32C14.8113 144.435 15.2113 143.487 15.6429 142.57C15.906 142.002 15.0955 141.506 14.7902 142.075C14.3165 142.971 13.8113 143.856 13.4007 144.783C13.285 145.025 13.3692 145.257 13.5165 145.415C13.4323 145.457 13.3481 145.531 13.285 145.626C7.26382 155.508 2.02164 166.212 -0.746823 177.505C-0.799455 177.706 -0.778401 177.874 -0.725769 178.022C-1.35736 180.792 -1.82052 183.605 -2.08368 186.408C-2.13631 186.935 -1.25209 187.061 -1.15735 186.534C-0.641557 183.816 -0.115233 181.119 0.463722 178.433C0.632146 178.338 0.779517 178.19 0.863729 177.948C4.61115 167.012 8.60068 156.308 14.2744 146.205C14.4323 145.931 14.3376 145.668 14.1481 145.51C14.2113 145.468 14.2744 145.404 14.3166 145.32Z" fill="#1D1D1B"/>
<path d="M55.0022 95.404C50.4653 93.4129 44.3916 93.887 39.5915 94.5085C34.1388 95.2144 28.9177 96.6472 23.8544 98.7859C14.3175 102.8 4.391 109.047 -1.74593 117.591C-2.50384 118.655 -0.851183 119.867 0.0330399 118.961C3.72783 115.21 7.21209 111.544 11.5595 108.499C15.8122 105.518 20.4228 103.021 25.2966 101.241C29.9072 99.5444 34.7809 98.3328 39.6441 97.6165C42.3178 97.2266 45.0232 96.9317 47.7179 96.8158C50.118 96.7104 52.518 96.8684 54.8864 96.3838C55.297 96.2785 55.4128 95.5831 55.0022 95.404Z" fill="#1D1D1B"/>
</g>
<path fill-rule="evenodd" clip-rule="evenodd" d="M231.921 83.1782C206.264 79.6176 182.333 99.3483 183.425 125.228C183.64 130.337 184.822 135.169 186.783 139.567C183.293 144.911 177.809 148.83 175.269 149.936C174.168 150.158 173.716 150.252 174.182 150.252C174.419 150.252 174.792 150.143 175.269 149.936L175.339 149.922C177.956 149.392 184.041 148.161 190.257 145.775C198.002 157.083 211.445 164.136 226.137 163.156C258.535 160.993 303.859 158.749 338.151 160.122C347.879 160.511 359.356 161.297 370.432 162.183C394.269 164.088 415 145.47 415 121.557C415 99.8564 397.808 82.1123 376.108 82.0172C346.96 81.8895 305.72 82.4154 267.722 85.4289C258.337 86.1733 245.162 85.0159 231.921 83.1782Z" fill="#F7F7F7"/>
<path d="M183.425 125.228L182.867 125.251L183.425 125.228ZM231.921 83.1782L231.844 83.7308L231.921 83.1782ZM186.783 139.567L187.25 139.872L187.416 139.617L187.292 139.339L186.783 139.567ZM175.339 149.922L175.449 150.468H175.449L175.339 149.922ZM190.257 145.775L190.717 145.46L190.468 145.096L190.057 145.254L190.257 145.775ZM226.137 163.156L226.174 163.712L226.137 163.156ZM338.151 160.122L338.128 160.679L338.151 160.122ZM370.432 162.183L370.476 161.627L370.432 162.183ZM376.108 82.0172L376.111 81.4594L376.108 82.0172ZM267.722 85.4289L267.766 85.9851L267.722 85.4289ZM183.982 125.204C182.907 99.7084 206.496 80.213 231.844 83.7308L231.997 82.6256C206.033 79.0222 181.76 98.9882 182.867 125.251L183.982 125.204ZM187.292 139.339C185.359 135.005 184.194 130.241 183.982 125.204L182.867 125.251C183.086 130.432 184.284 135.333 186.273 139.794L187.292 139.339ZM175.491 150.447C178.13 149.299 183.7 145.309 187.25 139.872L186.316 139.262C182.887 144.513 177.488 148.361 175.046 149.424L175.491 150.447ZM174.182 149.694C174.157 149.694 174.138 149.694 174.124 149.693C174.109 149.693 174.104 149.692 174.105 149.692C174.106 149.692 174.111 149.693 174.119 149.694C174.126 149.695 174.142 149.698 174.164 149.704C174.182 149.709 174.224 149.722 174.274 149.749C174.316 149.772 174.43 149.841 174.502 149.989C174.592 150.174 174.562 150.361 174.495 150.488C174.441 150.591 174.369 150.648 174.343 150.668C174.311 150.692 174.283 150.707 174.271 150.713C174.256 150.721 174.246 150.725 174.241 150.727C174.23 150.732 174.237 150.728 174.281 150.716C174.453 150.671 174.818 150.596 175.379 150.483L175.158 149.389C174.618 149.498 174.208 149.581 173.994 149.638C173.943 149.652 173.878 149.67 173.821 149.694C173.799 149.703 173.734 149.729 173.669 149.779C173.638 149.802 173.563 149.863 173.507 149.969C173.438 150.101 173.408 150.291 173.499 150.478C173.573 150.629 173.69 150.701 173.736 150.727C173.791 150.757 173.84 150.772 173.866 150.779C173.92 150.794 173.968 150.8 173.995 150.802C174.053 150.808 174.119 150.81 174.182 150.81V149.694ZM175.046 149.424C174.575 149.629 174.294 149.694 174.182 149.694V150.81C174.543 150.81 175.008 150.658 175.491 150.447L175.046 149.424ZM175.228 149.375L175.158 149.389L175.379 150.483L175.449 150.468L175.228 149.375ZM190.057 145.254C183.889 147.622 177.844 148.846 175.228 149.375L175.449 150.468C178.069 149.938 184.194 148.7 190.457 146.296L190.057 145.254ZM226.1 162.599C211.611 163.566 198.354 156.611 190.717 145.46L189.797 146.09C197.649 157.556 211.278 164.706 226.174 163.712L226.1 162.599ZM338.173 159.564C303.85 158.19 258.5 160.437 226.1 162.599L226.174 163.712C258.57 161.55 303.869 159.307 338.128 160.679L338.173 159.564ZM370.476 161.627C359.397 160.741 347.912 159.954 338.173 159.564L338.128 160.679C347.846 161.068 359.315 161.854 370.387 162.739L370.476 161.627ZM414.442 121.557C414.442 145.135 393.999 163.507 370.476 161.627L370.387 162.739C394.54 164.67 415.558 145.805 415.558 121.557H414.442ZM376.106 82.5751C397.49 82.6688 414.442 100.155 414.442 121.557H415.558C415.558 99.5581 398.127 81.5558 376.111 81.4594L376.106 82.5751ZM267.766 85.9851C305.742 82.9733 346.964 82.4474 376.106 82.5751L376.111 81.4594C346.956 81.3316 305.699 81.8575 267.678 84.8728L267.766 85.9851ZM231.844 83.7308C245.09 85.5691 258.316 86.7345 267.766 85.9851L267.678 84.8728C258.358 85.612 245.234 84.4626 231.997 82.6256L231.844 83.7308Z" fill="#D8D8D8"/>
<path d="M215.605 113.43L216.136 114.429C215.771 114.804 215.277 115.101 214.652 115.32C214.027 115.538 213.371 115.648 212.684 115.648C211.049 115.648 209.711 115.137 208.669 114.117C207.649 113.076 207.138 111.711 207.138 110.024C207.138 108.4 207.628 107.062 208.607 106.01C209.586 104.937 210.913 104.401 212.59 104.401C213.975 104.401 215.084 104.755 215.917 105.463L215.308 106.463C214.579 105.921 213.678 105.651 212.606 105.651C211.418 105.651 210.445 106.057 209.685 106.869C208.924 107.671 208.544 108.723 208.544 110.024C208.544 111.326 208.935 112.383 209.716 113.195C210.518 113.997 211.549 114.398 212.809 114.398C213.871 114.398 214.803 114.075 215.605 113.43ZM224.059 115.491H222.81V109.634H218.983V115.491H217.733V108.462H224.059V115.491ZM231.866 113.742L232.257 114.726C231.58 115.34 230.7 115.648 229.617 115.648C228.472 115.648 227.56 115.314 226.883 114.648C226.196 113.981 225.852 113.091 225.852 111.977C225.852 110.925 226.175 110.05 226.821 109.353C227.456 108.655 228.341 108.306 229.476 108.306C230.414 108.306 231.189 108.608 231.804 109.212C232.429 109.806 232.741 110.576 232.741 111.524C232.741 111.826 232.715 112.107 232.663 112.367H227.258C227.31 113.023 227.555 113.539 227.992 113.914C228.44 114.289 229.013 114.476 229.711 114.476C230.627 114.476 231.346 114.231 231.866 113.742ZM229.414 109.478C228.8 109.478 228.289 109.649 227.883 109.993C227.487 110.337 227.253 110.79 227.18 111.352H231.445C231.413 110.769 231.215 110.311 230.851 109.977C230.497 109.644 230.018 109.478 229.414 109.478ZM240.685 115.491H234.436V108.462H235.686V114.32H239.435V108.462H240.685V114.32H241.856V117.21H240.685V115.491ZM248.518 110.259L244.457 115.491H243.208V108.462H244.457V113.695L248.518 108.462H249.768V115.491H248.518V110.259ZM252.415 109.946L252.087 108.947C252.784 108.52 253.565 108.306 254.43 108.306C255.377 108.306 256.065 108.54 256.492 109.009C256.919 109.478 257.132 110.201 257.132 111.18V115.491H255.945V114.585C255.393 115.262 254.643 115.601 253.696 115.601C253.05 115.601 252.529 115.408 252.134 115.023C251.738 114.627 251.54 114.096 251.54 113.43C251.54 112.742 251.785 112.201 252.274 111.805C252.764 111.399 253.404 111.196 254.195 111.196C254.935 111.196 255.518 111.347 255.945 111.649C255.945 110.857 255.836 110.29 255.617 109.946C255.398 109.603 254.976 109.431 254.352 109.431C253.716 109.431 253.071 109.603 252.415 109.946ZM254.133 114.476C254.831 114.476 255.435 114.174 255.945 113.57V112.68C255.508 112.367 254.982 112.211 254.367 112.211C253.94 112.211 253.581 112.315 253.289 112.524C253.008 112.721 252.868 113.003 252.868 113.367C252.868 113.711 252.977 113.981 253.196 114.179C253.425 114.377 253.737 114.476 254.133 114.476ZM265.285 115.491H264.036V109.712H261.568L261.489 110.899C261.406 111.868 261.281 112.675 261.115 113.32C260.958 113.955 260.75 114.434 260.49 114.757C260.24 115.07 259.974 115.288 259.693 115.413C259.412 115.528 259.068 115.585 258.662 115.585L258.568 114.367C258.683 114.377 258.803 114.362 258.928 114.32C259.053 114.268 259.188 114.164 259.334 114.008C259.49 113.851 259.625 113.643 259.74 113.383C259.865 113.122 259.974 112.758 260.068 112.289C260.172 111.81 260.24 111.264 260.271 110.649L260.396 108.462H265.285V115.491ZM269.912 115.491H267.538V108.462H268.788V110.571H270.069C271.027 110.571 271.73 110.79 272.177 111.227C272.625 111.654 272.849 112.242 272.849 112.992C272.849 113.7 272.615 114.294 272.146 114.773C271.678 115.252 270.933 115.491 269.912 115.491ZM269.834 111.743H268.788V114.32H269.819C270.954 114.32 271.521 113.893 271.521 113.039C271.521 112.175 270.959 111.743 269.834 111.743ZM280.929 115.491H279.679V112.524H275.774V115.491H274.525V108.462H275.774V111.352H279.679V108.462H280.929V115.491ZM283.751 114.617C283.064 113.909 282.72 113.029 282.72 111.977C282.72 110.915 283.064 110.04 283.751 109.353C284.449 108.655 285.355 108.306 286.469 108.306C287.584 108.306 288.484 108.655 289.172 109.353C289.869 110.04 290.218 110.915 290.218 111.977C290.218 113.039 289.869 113.919 289.172 114.617C288.484 115.304 287.584 115.648 286.469 115.648C285.365 115.648 284.459 115.304 283.751 114.617ZM284.735 110.181C284.277 110.639 284.048 111.238 284.048 111.977C284.048 112.716 284.272 113.315 284.72 113.773C285.178 114.242 285.761 114.476 286.469 114.476C287.177 114.476 287.755 114.247 288.203 113.789C288.661 113.32 288.89 112.716 288.89 111.977C288.89 111.258 288.661 110.66 288.203 110.181C287.755 109.712 287.177 109.478 286.469 109.478C285.761 109.478 285.183 109.712 284.735 110.181ZM297.566 113.742L297.957 114.726C297.28 115.34 296.4 115.648 295.317 115.648C294.172 115.648 293.26 115.314 292.584 114.648C291.896 113.981 291.553 113.091 291.553 111.977C291.553 110.925 291.875 110.05 292.521 109.353C293.156 108.655 294.041 108.306 295.177 108.306C296.114 108.306 296.89 108.608 297.504 109.212C298.129 109.806 298.441 110.576 298.441 111.524C298.441 111.826 298.415 112.107 298.363 112.367H292.958C293.011 113.023 293.255 113.539 293.693 113.914C294.14 114.289 294.713 114.476 295.411 114.476C296.327 114.476 297.046 114.231 297.566 113.742ZM295.114 109.478C294.5 109.478 293.989 109.649 293.583 109.993C293.188 110.337 292.953 110.79 292.88 111.352H297.145C297.113 110.769 296.916 110.311 296.551 109.977C296.197 109.644 295.718 109.478 295.114 109.478ZM305.972 115.648C305.441 115.648 304.879 115.559 304.285 115.382C303.713 115.195 303.307 114.966 303.067 114.695L303.707 113.758C303.989 113.987 304.322 114.174 304.707 114.32C305.103 114.455 305.462 114.523 305.785 114.523C306.326 114.523 306.769 114.419 307.113 114.211C307.456 113.992 307.628 113.711 307.628 113.367C307.628 113.076 307.503 112.852 307.253 112.695C307.014 112.539 306.681 112.461 306.254 112.461H305.066V111.446H306.175C306.53 111.446 306.821 111.352 307.05 111.165C307.279 110.967 307.394 110.727 307.394 110.446C307.394 110.134 307.258 109.889 306.988 109.712C306.717 109.524 306.352 109.431 305.894 109.431C305.155 109.431 304.452 109.691 303.786 110.212L303.301 109.243C303.582 108.952 303.973 108.723 304.473 108.556C304.983 108.389 305.519 108.306 306.082 108.306C306.915 108.306 307.56 108.473 308.019 108.806C308.487 109.139 308.722 109.603 308.722 110.196C308.722 111.008 308.31 111.56 307.488 111.852V111.883C307.946 111.935 308.305 112.117 308.565 112.43C308.826 112.732 308.956 113.102 308.956 113.539C308.956 114.185 308.68 114.7 308.128 115.085C307.586 115.46 306.868 115.648 305.972 115.648ZM311.235 109.946L310.907 108.947C311.605 108.52 312.386 108.306 313.25 108.306C314.198 108.306 314.885 108.54 315.312 109.009C315.739 109.478 315.952 110.201 315.952 111.18V115.491H314.765V114.585C314.213 115.262 313.464 115.601 312.516 115.601C311.87 115.601 311.35 115.408 310.954 115.023C310.558 114.627 310.36 114.096 310.36 113.43C310.36 112.742 310.605 112.201 311.095 111.805C311.584 111.399 312.224 111.196 313.016 111.196C313.755 111.196 314.338 111.347 314.765 111.649C314.765 110.857 314.656 110.29 314.437 109.946C314.219 109.603 313.797 109.431 313.172 109.431C312.537 109.431 311.891 109.603 311.235 109.946ZM312.953 114.476C313.651 114.476 314.255 114.174 314.765 113.57V112.68C314.328 112.367 313.802 112.211 313.188 112.211C312.761 112.211 312.401 112.315 312.11 112.524C311.829 112.721 311.688 113.003 311.688 113.367C311.688 113.711 311.797 113.981 312.016 114.179C312.245 114.377 312.558 114.476 312.953 114.476ZM324.449 115.491H323.2V112.524H319.295V115.491H318.045V108.462H319.295V111.352H323.2V108.462H324.449V115.491ZM329.787 108.462H331.973V115.491H330.724V113.148H329.365L327.647 115.491H326.131L328.162 112.836C327.735 112.742 327.376 112.513 327.084 112.149C326.793 111.774 326.647 111.326 326.647 110.805C326.647 110.087 326.907 109.519 327.428 109.103C327.949 108.676 328.735 108.462 329.787 108.462ZM327.975 110.837C327.975 111.17 328.105 111.446 328.365 111.664C328.626 111.873 328.933 111.977 329.287 111.977H330.724V109.634H329.584C329.052 109.634 328.652 109.743 328.381 109.962C328.11 110.181 327.975 110.472 327.975 110.837ZM335.932 109.712H333.355V108.462H339.759V109.712H337.182V115.491H335.932V109.712ZM346.436 110.259L342.374 115.491H341.125V108.462H342.374V113.695L346.436 108.462H347.685V115.491H346.436V110.259ZM355.502 113.742L355.893 114.726C355.216 115.34 354.336 115.648 353.253 115.648C352.107 115.648 351.196 115.314 350.519 114.648C349.832 113.981 349.488 113.091 349.488 111.977C349.488 110.925 349.811 110.05 350.457 109.353C351.092 108.655 351.977 108.306 353.112 108.306C354.049 108.306 354.825 108.608 355.44 109.212C356.064 109.806 356.377 110.576 356.377 111.524C356.377 111.826 356.351 112.107 356.299 112.367H350.894C350.946 113.023 351.191 113.539 351.628 113.914C352.076 114.289 352.649 114.476 353.347 114.476C354.263 114.476 354.981 114.231 355.502 113.742ZM353.05 109.478C352.435 109.478 351.925 109.649 351.519 109.993C351.123 110.337 350.889 110.79 350.816 111.352H355.08C355.049 110.769 354.851 110.311 354.487 109.977C354.133 109.644 353.654 109.478 353.05 109.478ZM367.985 115.491H366.735V112.524H362.83V115.491H361.581V108.462H362.83V111.352H366.735V108.462H367.985V115.491ZM375.79 113.742L376.181 114.726C375.504 115.34 374.624 115.648 373.541 115.648C372.395 115.648 371.484 115.314 370.807 114.648C370.12 113.981 369.776 113.091 369.776 111.977C369.776 110.925 370.099 110.05 370.745 109.353C371.38 108.655 372.265 108.306 373.4 108.306C374.338 108.306 375.113 108.608 375.728 109.212C376.353 109.806 376.665 110.576 376.665 111.524C376.665 111.826 376.639 112.107 376.587 112.367H371.182C371.234 113.023 371.479 113.539 371.916 113.914C372.364 114.289 372.937 114.476 373.635 114.476C374.551 114.476 375.27 114.231 375.79 113.742ZM373.338 109.478C372.724 109.478 372.213 109.649 371.807 109.993C371.411 110.337 371.177 110.79 371.104 111.352H375.369C375.337 110.769 375.139 110.311 374.775 109.977C374.421 109.644 373.942 109.478 373.338 109.478ZM212.793 132.259L208.732 137.491H207.482V130.462H208.732V135.695L212.793 130.462H214.043V137.491H212.793V132.259ZM222.719 137.491H221.469V134.524H217.564V137.491H216.314V130.462H217.564V133.352H221.469V130.462H222.719V137.491ZM226.666 131.712H224.088V130.462H230.493V131.712H227.915V137.491H226.666V131.712ZM237.175 135.742L237.565 136.726C236.888 137.34 236.008 137.648 234.925 137.648C233.78 137.648 232.869 137.314 232.192 136.648C231.505 135.981 231.161 135.091 231.161 133.977C231.161 132.925 231.484 132.05 232.129 131.353C232.765 130.655 233.65 130.306 234.785 130.306C235.722 130.306 236.498 130.608 237.112 131.212C237.737 131.806 238.05 132.576 238.05 133.524C238.05 133.826 238.024 134.107 237.971 134.367H232.567C232.619 135.023 232.864 135.539 233.301 135.914C233.749 136.289 234.321 136.476 235.019 136.476C235.936 136.476 236.654 136.231 237.175 135.742ZM234.722 131.478C234.108 131.478 233.598 131.649 233.192 131.993C232.796 132.337 232.562 132.79 232.489 133.352H236.753C236.722 132.769 236.524 132.311 236.159 131.977C235.805 131.644 235.326 131.478 234.722 131.478ZM240.994 140.616H239.745V130.462H240.994V131.29C241.244 130.999 241.588 130.764 242.025 130.587C242.463 130.4 242.916 130.306 243.384 130.306C244.384 130.306 245.17 130.639 245.743 131.306C246.337 131.962 246.633 132.816 246.633 133.868C246.633 134.94 246.295 135.841 245.618 136.57C244.952 137.288 244.072 137.648 242.978 137.648C242.135 137.648 241.474 137.486 240.994 137.163V140.616ZM243.025 131.478C242.192 131.478 241.515 131.8 240.994 132.446V135.929C241.546 136.294 242.171 136.476 242.869 136.476C243.608 136.476 244.197 136.242 244.634 135.773C245.082 135.294 245.306 134.675 245.306 133.914C245.306 133.175 245.103 132.587 244.697 132.149C244.29 131.702 243.733 131.478 243.025 131.478ZM253.735 132.259L249.674 137.491H248.425V130.462H249.674V135.695L253.735 130.462H254.985V137.491H253.735V132.259ZM262.661 135.57L263.255 136.476C262.651 137.257 261.75 137.648 260.553 137.648C259.428 137.648 258.517 137.314 257.819 136.648C257.132 135.981 256.788 135.091 256.788 133.977C256.788 132.946 257.127 132.076 257.803 131.368C258.48 130.66 259.329 130.306 260.35 130.306C261.578 130.306 262.5 130.613 263.114 131.228L262.536 132.212C261.995 131.722 261.323 131.478 260.521 131.478C259.865 131.478 259.298 131.717 258.819 132.196C258.35 132.665 258.116 133.258 258.116 133.977C258.116 134.737 258.355 135.341 258.834 135.789C259.324 136.247 259.928 136.476 260.646 136.476C261.459 136.476 262.13 136.174 262.661 135.57ZM269.714 130.462H271.135L268.324 137.491C267.813 138.731 267.371 139.553 266.996 139.959C266.6 140.397 266.147 140.616 265.637 140.616C265.179 140.616 264.736 140.47 264.309 140.178L264.715 139.225C265.049 139.382 265.309 139.46 265.496 139.46C265.788 139.46 266.048 139.335 266.277 139.085C266.517 138.835 266.756 138.429 266.996 137.866L267.152 137.491L263.778 130.462H265.278L267.34 134.93C267.381 135.003 267.522 135.357 267.761 135.992C267.855 135.648 267.964 135.289 268.089 134.914L269.714 130.462ZM277.69 135.742L278.081 136.726C277.404 137.34 276.524 137.648 275.441 137.648C274.295 137.648 273.384 137.314 272.707 136.648C272.02 135.981 271.676 135.091 271.676 133.977C271.676 132.925 271.999 132.05 272.645 131.353C273.28 130.655 274.165 130.306 275.3 130.306C276.237 130.306 277.013 130.608 277.628 131.212C278.252 131.806 278.565 132.576 278.565 133.524C278.565 133.826 278.539 134.107 278.487 134.367H273.082C273.134 135.023 273.379 135.539 273.816 135.914C274.264 136.289 274.837 136.476 275.535 136.476C276.451 136.476 277.169 136.231 277.69 135.742ZM275.238 131.478C274.623 131.478 274.113 131.649 273.707 131.993C273.311 132.337 273.077 132.79 273.004 133.352H277.268C277.237 132.769 277.039 132.311 276.675 131.977C276.321 131.644 275.842 131.478 275.238 131.478ZM281.81 131.712H279.233V130.462H285.637V131.712H283.06V137.491H281.81V131.712ZM294.854 129.369C294.854 128.89 294.671 128.484 294.307 128.15C293.953 127.817 293.5 127.651 292.948 127.651C292.052 127.651 291.323 128.036 290.761 128.807L290.011 127.979C290.303 127.5 290.719 127.12 291.261 126.838C291.802 126.547 292.391 126.401 293.026 126.401C293.994 126.401 294.765 126.661 295.338 127.182C295.91 127.692 296.197 128.333 296.197 129.103C296.197 129.593 296.114 130.025 295.947 130.4C295.905 130.504 295.858 130.603 295.806 130.697C295.754 130.79 295.692 130.884 295.619 130.978C295.546 131.061 295.484 131.134 295.431 131.196C295.39 131.249 295.317 131.321 295.213 131.415C295.109 131.498 295.036 131.561 294.994 131.603C294.963 131.634 294.885 131.702 294.76 131.806C294.635 131.899 294.557 131.957 294.525 131.977C294.463 132.03 294.374 132.102 294.26 132.196C294.156 132.279 294.072 132.347 294.01 132.399C293.958 132.451 293.885 132.519 293.791 132.602C293.698 132.686 293.625 132.758 293.573 132.821C293.521 132.883 293.463 132.962 293.401 133.055C293.338 133.149 293.291 133.238 293.26 133.321C293.239 133.404 293.213 133.498 293.182 133.602C293.161 133.706 293.151 133.821 293.151 133.946C293.161 134.06 293.177 134.185 293.198 134.321L292.073 134.336C291.886 133.347 292.13 132.571 292.807 132.009C292.911 131.925 293.083 131.795 293.323 131.618C293.573 131.431 293.765 131.28 293.901 131.165C294.036 131.04 294.187 130.884 294.354 130.697C294.531 130.509 294.656 130.306 294.729 130.087C294.812 129.869 294.854 129.629 294.854 129.369ZM291.761 136.648C291.761 136.419 291.844 136.226 292.011 136.07C292.177 135.903 292.396 135.82 292.667 135.82C292.885 135.82 293.078 135.903 293.245 136.07C293.411 136.237 293.495 136.429 293.495 136.648C293.495 136.898 293.416 137.111 293.26 137.288C293.104 137.455 292.906 137.538 292.667 137.538C292.396 137.538 292.177 137.455 292.011 137.288C291.844 137.111 291.761 136.898 291.761 136.648ZM302.13 129.369C302.13 128.89 301.948 128.484 301.583 128.15C301.229 127.817 300.776 127.651 300.224 127.651C299.329 127.651 298.6 128.036 298.037 128.807L297.287 127.979C297.579 127.5 297.996 127.12 298.537 126.838C299.079 126.547 299.667 126.401 300.302 126.401C301.271 126.401 302.041 126.661 302.614 127.182C303.187 127.692 303.473 128.333 303.473 129.103C303.473 129.593 303.39 130.025 303.223 130.4C303.182 130.504 303.135 130.603 303.083 130.697C303.031 130.79 302.968 130.884 302.895 130.978C302.822 131.061 302.76 131.134 302.708 131.196C302.666 131.249 302.593 131.321 302.489 131.415C302.385 131.498 302.312 131.561 302.27 131.603C302.239 131.634 302.161 131.702 302.036 131.806C301.911 131.899 301.833 131.957 301.802 131.977C301.739 132.03 301.651 132.102 301.536 132.196C301.432 132.279 301.349 132.347 301.286 132.399C301.234 132.451 301.161 132.519 301.068 132.602C300.974 132.686 300.901 132.758 300.849 132.821C300.797 132.883 300.74 132.962 300.677 133.055C300.615 133.149 300.568 133.238 300.537 133.321C300.516 133.404 300.49 133.498 300.458 133.602C300.438 133.706 300.427 133.821 300.427 133.946C300.438 134.06 300.453 134.185 300.474 134.321L299.349 134.336C299.162 133.347 299.407 132.571 300.084 132.009C300.188 131.925 300.359 131.795 300.599 131.618C300.849 131.431 301.042 131.28 301.177 131.165C301.312 131.04 301.463 130.884 301.63 130.697C301.807 130.509 301.932 130.306 302.005 130.087C302.088 129.869 302.13 129.629 302.13 129.369ZM299.037 136.648C299.037 136.419 299.12 136.226 299.287 136.07C299.453 135.903 299.672 135.82 299.943 135.82C300.162 135.82 300.354 135.903 300.521 136.07C300.688 136.237 300.771 136.429 300.771 136.648C300.771 136.898 300.693 137.111 300.537 137.288C300.38 137.455 300.182 137.538 299.943 137.538C299.672 137.538 299.453 137.455 299.287 137.288C299.12 137.111 299.037 136.898 299.037 136.648ZM309.406 129.369C309.406 128.89 309.224 128.484 308.859 128.15C308.505 127.817 308.052 127.651 307.5 127.651C306.605 127.651 305.876 128.036 305.314 128.807L304.564 127.979C304.855 127.5 305.272 127.12 305.813 126.838C306.355 126.547 306.943 126.401 307.578 126.401C308.547 126.401 309.318 126.661 309.89 127.182C310.463 127.692 310.749 128.333 310.749 129.103C310.749 129.593 310.666 130.025 310.499 130.4C310.458 130.504 310.411 130.603 310.359 130.697C310.307 130.79 310.244 130.884 310.171 130.978C310.099 131.061 310.036 131.134 309.984 131.196C309.942 131.249 309.869 131.321 309.765 131.415C309.661 131.498 309.588 131.561 309.547 131.603C309.515 131.634 309.437 131.702 309.312 131.806C309.187 131.899 309.109 131.957 309.078 131.977C309.016 132.03 308.927 132.102 308.812 132.196C308.708 132.279 308.625 132.347 308.563 132.399C308.511 132.451 308.438 132.519 308.344 132.602C308.25 132.686 308.177 132.758 308.125 132.821C308.073 132.883 308.016 132.962 307.953 133.055C307.891 133.149 307.844 133.238 307.813 133.321C307.792 133.404 307.766 133.498 307.735 133.602C307.714 133.706 307.703 133.821 307.703 133.946C307.714 134.06 307.729 134.185 307.75 134.321L306.626 134.336C306.438 133.347 306.683 132.571 307.36 132.009C307.464 131.925 307.636 131.795 307.875 131.618C308.125 131.431 308.318 131.28 308.453 131.165C308.589 131.04 308.74 130.884 308.906 130.697C309.083 130.509 309.208 130.306 309.281 130.087C309.364 129.869 309.406 129.629 309.406 129.369ZM306.313 136.648C306.313 136.419 306.397 136.226 306.563 136.07C306.73 135.903 306.948 135.82 307.219 135.82C307.438 135.82 307.631 135.903 307.797 136.07C307.964 136.237 308.047 136.429 308.047 136.648C308.047 136.898 307.969 137.111 307.813 137.288C307.657 137.455 307.459 137.538 307.219 137.538C306.948 137.538 306.73 137.455 306.563 137.288C306.397 137.111 306.313 136.898 306.313 136.648Z" fill="#4B4B4B"/>
</svg>
