<svg width="145" height="35" viewBox="0 0 145 35" fill="none" xmlns="http://www.w3.org/2000/svg">
<path d="M31.3225 3.26893C30.9109 3.06759 30.4208 3.07948 29.9703 3.0565C29.8819 3.05214 29.7934 3.04777 29.705 3.04381C29.5533 2.94155 29.3666 2.892 29.1455 2.92054C29.0413 2.93402 28.943 2.96652 28.8537 3.01369C28.7793 3.0117 28.7053 3.00973 28.631 3.00814C27.7739 2.9907 26.9168 3.00021 26.0605 3.0335C26.0419 3.03271 26.0234 3.03231 26.0048 3.03152C25.8039 3.02478 25.6022 3.04975 25.3853 3.07274C25.2373 2.73426 24.6096 2.80045 24.6485 3.21027C24.82 5.00335 25.0572 6.79088 25.2291 8.58475C25.2625 8.93315 25.2927 9.28232 25.3216 9.63151C25.2824 11.6121 25.227 13.5926 25.1902 15.5732C25.1787 16.2045 25.2225 16.8371 25.2427 17.5478C25.4072 17.5363 25.5688 17.5252 25.7279 17.5141C25.8638 17.6952 26.0857 17.8169 26.3254 17.8149C27.1304 17.8078 27.9388 17.7491 28.7339 17.6266C28.8289 17.612 28.924 17.5965 29.0186 17.5803C29.1219 17.6235 29.2347 17.6457 29.3521 17.6405C29.5872 17.6306 29.8062 17.5379 29.9654 17.3888C30.3439 17.2993 30.7311 17.1772 31.0022 16.8938C31.5584 16.3123 31.4638 15.413 31.4993 14.6798L31.6101 12.3905C31.6845 10.8511 31.7593 9.31166 31.8337 7.77224C31.8704 7.00927 31.9076 6.24591 31.9444 5.48294C31.9816 4.71442 32.1936 3.69501 31.3225 3.26893Z" fill="#EF4036"/>
<path d="M14.5883 17.1924C14.5527 16.7255 14.5143 16.2586 14.473 15.7921C14.3899 14.8591 14.2953 13.9269 14.1882 12.9962C13.9659 11.0625 13.6944 9.13344 13.3737 7.21274C13.2964 6.7506 13.2162 6.28885 13.1332 5.82751C13.0621 5.43314 13.0051 5.04472 12.8414 4.6773C12.7423 4.29126 12.6377 3.90443 12.5431 3.51244C12.1989 3.51244 11.943 3.49737 11.6897 3.51561C11.2426 3.54771 10.7979 3.61945 10.3508 3.64006C9.21725 3.69317 8.08244 3.71894 6.94931 3.7768C6.74847 3.78711 6.47243 3.84101 6.3687 3.97379C6.13356 4.27501 5.87363 4.55761 5.68312 4.87944C5.5732 4.80572 5.44094 4.76292 5.28969 4.76926C4.87685 4.78709 4.57889 5.07762 4.55822 5.47079C4.54583 5.7082 4.53346 5.94601 4.52065 6.18342C4.51776 6.23614 4.51527 6.28885 4.51238 6.34196C4.5037 6.50328 4.51859 6.40538 4.52065 6.3709C4.51156 6.54806 4.49335 6.71849 4.49087 6.89606L4.47231 8.32132C4.45949 9.28484 4.46611 10.2476 4.47065 11.2111C4.47933 13.1112 4.51321 15.0117 4.53635 16.9114C4.54214 17.3997 4.54791 17.888 4.55411 18.3759C4.56113 18.9435 4.54832 19.5594 5.03471 19.9684C5.58351 20.4298 6.22818 20.3156 6.88607 20.2225C7.37329 20.1535 7.86097 20.0845 8.34819 20.0156C9.32305 19.8776 10.2979 19.7421 11.2715 19.5978C11.7579 19.5257 12.2447 19.4539 12.7311 19.3818C13.2754 19.3013 13.8056 19.2459 14.2122 18.8408C14.6701 18.3846 14.6321 17.773 14.5883 17.1924Z" fill="#39B100"/>
<mask id="path-3-outside-1" maskUnits="userSpaceOnUse" x="0" y="0" width="32" height="34" fill="black">
<rect fill="white" width="32" height="34"/>
<path d="M26.5775 17.8148C27.6383 17.7098 28.7062 17.6697 29.769 17.5798C30.1715 17.5457 30.5699 17.4561 30.9666 17.3744C31.3452 17.2964 31.5493 17.0375 31.6158 16.69C31.6576 16.4696 31.6568 16.2401 31.6609 16.0146C31.7002 13.8977 31.7489 11.7808 31.7675 9.6635C31.7758 8.74 31.6993 7.81572 31.7014 6.89184C31.7039 5.88551 31.7543 4.87957 31.7799 3.87325C31.7898 3.4872 31.8039 3.09838 31.5956 2.76069C30.8166 2.78606 30.0695 2.8479 29.3248 2.8253C28.2776 2.7936 27.2317 2.70363 26.1857 2.6311C25.727 2.59899 25.2377 2.64893 24.9014 2.19709C24.3765 2.63981 23.7748 2.60494 23.1768 2.59107C22.5574 2.5768 21.9367 2.53954 21.3185 2.56015C19.7163 2.61445 18.1145 2.68143 16.514 2.76863C14.9763 2.85265 13.4419 2.98345 11.9046 3.06549C10.345 3.14912 8.78374 3.20976 7.22248 3.25692C6.49681 3.27872 6.40796 3.18916 6.20299 2.51259C5.92115 1.58117 4.81406 0.867741 3.83176 1.02073C2.82095 1.17848 1.97791 1.63983 1.3506 2.42816C0.943132 2.94064 0.863375 3.85383 1.25762 4.28069C1.64442 4.70003 1.94857 5.23866 2.6887 5.35717C2.6887 5.82446 2.63827 6.2763 2.69778 6.71426C2.89201 8.14429 2.98622 9.57669 2.9668 11.0186C2.96101 11.4685 3.0222 11.9199 3.06394 12.3698C3.15113 13.3111 3.30319 14.2504 3.32633 15.1929C3.37055 17.0213 3.34659 18.8512 3.34659 20.6804C3.34618 23.412 3.26806 26.1452 3.63998 28.8654C3.84744 30.3861 4.02763 31.9101 4.23177 33.5224C4.35451 33.5224 4.53591 33.5296 4.71609 33.5209C5.14174 33.501 5.56697 33.4519 5.99221 33.4551C6.53398 33.4586 6.7303 33.2236 6.69352 32.6865C6.60674 31.4182 6.55135 30.1479 6.49598 28.8777C6.48151 28.5503 6.53441 28.2201 6.5216 27.8923C6.42986 25.5725 6.33151 23.2531 6.22902 20.9336C6.21456 20.6059 6.14636 20.2801 6.13479 19.9523C6.11991 19.5381 6.2228 19.4624 6.64639 19.4248C7.40925 19.3566 8.17131 19.2773 8.9321 19.1901C10.2281 19.0419 11.5199 18.8477 12.82 18.7494C13.2861 18.7137 13.8246 18.5912 14.175 18.8952C14.5651 18.7906 14.8961 18.6535 15.2383 18.6182C16.5586 18.483 17.881 18.3649 19.2051 18.2698C20.4416 18.1806 21.68 18.0899 22.9186 18.0748C23.5777 18.0665 24.2645 17.7779 24.9096 18.166C24.9452 18.1874 25.0261 18.1362 25.0865 18.1231C25.5832 18.0165 26.0746 17.8643 26.5775 17.8148ZM25.1563 3.09522C25.4638 3.07065 25.7349 3.02268 26.0043 3.0318C27.4784 3.08095 28.9516 3.14476 30.4253 3.20263C30.5323 3.20659 30.6402 3.19867 30.7468 3.2058C31.1745 3.23474 31.2699 3.30727 31.2852 3.73017C31.3092 4.38731 31.3129 5.04565 31.3034 5.70279C31.2724 7.87993 31.1873 10.0571 31.2121 12.2334C31.227 13.5081 31.1956 14.7748 31.0902 16.0439C31.029 16.776 30.934 16.9202 30.186 17.097C29.8963 17.1652 29.5983 17.2084 29.3016 17.2409C28.8359 17.2912 28.3685 17.3269 27.9015 17.3614C27.0502 17.424 26.1985 17.4815 25.2423 17.548C25.222 16.8374 25.1782 16.2048 25.1898 15.5734C25.2385 12.9456 25.32 10.3179 25.3535 7.69008C25.3621 6.97665 25.2489 6.26124 25.1836 5.54742C25.1109 4.75116 25.0642 3.95609 25.1563 3.09522ZM2.5709 4.81061C1.87746 4.69964 1.34811 3.59858 1.6316 2.98384C1.96344 2.26408 2.60437 1.91568 3.33541 1.68382C4.34871 1.36238 4.82686 1.56452 5.30954 2.10554C5.92817 2.79915 5.92195 3.60017 5.412 4.3235C5.05082 4.42497 4.76278 4.44518 4.54954 4.57716C3.92016 4.96637 3.2383 4.91723 2.5709 4.81061ZM5.21571 32.855C5.11033 32.8494 5.00539 32.8328 4.83224 32.8138C4.74917 32.532 4.64005 32.2462 4.58179 31.9513C4.2297 30.1733 4.05695 28.3767 3.91893 26.5721C3.71148 23.8615 3.76688 21.1516 3.77679 18.439C3.78299 16.6749 3.77761 14.9012 3.5966 13.149C3.42717 11.5085 3.39823 9.87079 3.32508 8.22991C3.29409 7.5359 3.1383 6.84705 3.0511 6.15463C2.97713 5.56565 3.10195 5.44278 3.72017 5.36668C4.07061 5.32348 4.41442 5.22876 4.83676 5.14156C4.83676 5.83953 4.83717 6.49033 4.83676 7.14074C4.83552 9.00912 4.95742 10.8712 5.10908 12.7336C5.19421 13.776 5.1157 14.8303 5.18968 15.8743C5.26613 16.9583 5.41076 18.0403 5.57399 19.1168C5.83682 20.8508 5.8819 22.5963 5.92033 24.3415C5.96579 26.4163 5.96453 28.4916 5.99842 30.5665C6.00627 31.0584 6.08976 31.549 6.10835 32.0413C6.13687 32.7844 6.00088 32.8986 5.21571 32.855ZM13.1497 18.3899C11.6347 18.506 10.1223 18.6574 8.60646 18.7601C8.05808 18.7973 7.50266 18.7407 6.95055 18.7196C6.65301 18.7085 6.35589 18.6832 5.98769 18.6594C5.95008 18.4838 5.88602 18.2912 5.87073 18.0954C5.75213 16.5798 5.59052 15.0649 5.543 13.5473C5.46324 11.0024 5.49012 8.45464 5.40457 5.91008C5.37565 5.05912 5.91699 4.5518 6.36785 3.97432C6.47157 3.84154 6.74766 3.78764 6.9485 3.77733C8.08163 3.71947 9.2164 3.69371 10.3499 3.64059C10.7971 3.61998 11.2418 3.54824 11.6889 3.51614C11.9422 3.4979 12.198 3.51297 12.5422 3.51297C12.7484 4.36472 13.001 5.19269 13.141 6.03771C13.3159 7.09199 13.4146 8.15895 13.5142 9.22315C13.589 10.0206 13.6283 10.8216 13.6576 11.6218C13.725 13.4494 13.7766 15.2778 13.8345 17.1057C13.8399 17.2702 13.8407 17.4347 13.8523 17.5988C13.9014 18.2805 13.8353 18.3372 13.1497 18.3899ZM24.8245 11.384C24.767 12.9857 24.7633 14.5889 24.7278 16.1913C24.7208 16.4985 24.6993 16.8089 24.6439 17.1113C24.5711 17.5096 24.4145 17.6285 24.0013 17.6689C23.8736 17.6816 23.7443 17.6796 23.6162 17.688C20.8189 17.8687 18.022 18.0506 15.2247 18.229C14.9965 18.2432 14.7668 18.2306 14.4242 18.2306C14.3461 16.6436 14.2882 15.147 14.1944 13.6527C14.0709 11.6865 14.1114 9.71146 13.8266 7.7535C13.7031 6.90214 13.6469 6.04206 13.5336 5.18912C13.4828 4.80625 13.3328 4.43487 13.2898 4.0516C13.2394 3.60135 13.3254 3.55973 13.7969 3.45589C14.9705 3.19787 16.1569 3.1297 17.3583 3.12495C18.2344 3.12177 19.1092 2.99851 19.9861 2.95491C21.4581 2.88198 22.9314 2.82808 24.4674 2.99574C24.5067 3.18083 24.5666 3.37266 24.5869 3.56846C24.8534 6.1685 24.9179 8.77329 24.8245 11.384Z"/>
</mask>
<path d="M26.5775 17.8148C27.6383 17.7098 28.7062 17.6697 29.769 17.5798C30.1715 17.5457 30.5699 17.4561 30.9666 17.3744C31.3452 17.2964 31.5493 17.0375 31.6158 16.69C31.6576 16.4696 31.6568 16.2401 31.6609 16.0146C31.7002 13.8977 31.7489 11.7808 31.7675 9.6635C31.7758 8.74 31.6993 7.81572 31.7014 6.89184C31.7039 5.88551 31.7543 4.87957 31.7799 3.87325C31.7898 3.4872 31.8039 3.09838 31.5956 2.76069C30.8166 2.78606 30.0695 2.8479 29.3248 2.8253C28.2776 2.7936 27.2317 2.70363 26.1857 2.6311C25.727 2.59899 25.2377 2.64893 24.9014 2.19709C24.3765 2.63981 23.7748 2.60494 23.1768 2.59107C22.5574 2.5768 21.9367 2.53954 21.3185 2.56015C19.7163 2.61445 18.1145 2.68143 16.514 2.76863C14.9763 2.85265 13.4419 2.98345 11.9046 3.06549C10.345 3.14912 8.78374 3.20976 7.22248 3.25692C6.49681 3.27872 6.40796 3.18916 6.20299 2.51259C5.92115 1.58117 4.81406 0.867741 3.83176 1.02073C2.82095 1.17848 1.97791 1.63983 1.3506 2.42816C0.943132 2.94064 0.863375 3.85383 1.25762 4.28069C1.64442 4.70003 1.94857 5.23866 2.6887 5.35717C2.6887 5.82446 2.63827 6.2763 2.69778 6.71426C2.89201 8.14429 2.98622 9.57669 2.9668 11.0186C2.96101 11.4685 3.0222 11.9199 3.06394 12.3698C3.15113 13.3111 3.30319 14.2504 3.32633 15.1929C3.37055 17.0213 3.34659 18.8512 3.34659 20.6804C3.34618 23.412 3.26806 26.1452 3.63998 28.8654C3.84744 30.3861 4.02763 31.9101 4.23177 33.5224C4.35451 33.5224 4.53591 33.5296 4.71609 33.5209C5.14174 33.501 5.56697 33.4519 5.99221 33.4551C6.53398 33.4586 6.7303 33.2236 6.69352 32.6865C6.60674 31.4182 6.55135 30.1479 6.49598 28.8777C6.48151 28.5503 6.53441 28.2201 6.5216 27.8923C6.42986 25.5725 6.33151 23.2531 6.22902 20.9336C6.21456 20.6059 6.14636 20.2801 6.13479 19.9523C6.11991 19.5381 6.2228 19.4624 6.64639 19.4248C7.40925 19.3566 8.17131 19.2773 8.9321 19.1901C10.2281 19.0419 11.5199 18.8477 12.82 18.7494C13.2861 18.7137 13.8246 18.5912 14.175 18.8952C14.5651 18.7906 14.8961 18.6535 15.2383 18.6182C16.5586 18.483 17.881 18.3649 19.2051 18.2698C20.4416 18.1806 21.68 18.0899 22.9186 18.0748C23.5777 18.0665 24.2645 17.7779 24.9096 18.166C24.9452 18.1874 25.0261 18.1362 25.0865 18.1231C25.5832 18.0165 26.0746 17.8643 26.5775 17.8148ZM25.1563 3.09522C25.4638 3.07065 25.7349 3.02268 26.0043 3.0318C27.4784 3.08095 28.9516 3.14476 30.4253 3.20263C30.5323 3.20659 30.6402 3.19867 30.7468 3.2058C31.1745 3.23474 31.2699 3.30727 31.2852 3.73017C31.3092 4.38731 31.3129 5.04565 31.3034 5.70279C31.2724 7.87993 31.1873 10.0571 31.2121 12.2334C31.227 13.5081 31.1956 14.7748 31.0902 16.0439C31.029 16.776 30.934 16.9202 30.186 17.097C29.8963 17.1652 29.5983 17.2084 29.3016 17.2409C28.8359 17.2912 28.3685 17.3269 27.9015 17.3614C27.0502 17.424 26.1985 17.4815 25.2423 17.548C25.222 16.8374 25.1782 16.2048 25.1898 15.5734C25.2385 12.9456 25.32 10.3179 25.3535 7.69008C25.3621 6.97665 25.2489 6.26124 25.1836 5.54742C25.1109 4.75116 25.0642 3.95609 25.1563 3.09522ZM2.5709 4.81061C1.87746 4.69964 1.34811 3.59858 1.6316 2.98384C1.96344 2.26408 2.60437 1.91568 3.33541 1.68382C4.34871 1.36238 4.82686 1.56452 5.30954 2.10554C5.92817 2.79915 5.92195 3.60017 5.412 4.3235C5.05082 4.42497 4.76278 4.44518 4.54954 4.57716C3.92016 4.96637 3.2383 4.91723 2.5709 4.81061ZM5.21571 32.855C5.11033 32.8494 5.00539 32.8328 4.83224 32.8138C4.74917 32.532 4.64005 32.2462 4.58179 31.9513C4.2297 30.1733 4.05695 28.3767 3.91893 26.5721C3.71148 23.8615 3.76688 21.1516 3.77679 18.439C3.78299 16.6749 3.77761 14.9012 3.5966 13.149C3.42717 11.5085 3.39823 9.87079 3.32508 8.22991C3.29409 7.5359 3.1383 6.84705 3.0511 6.15463C2.97713 5.56565 3.10195 5.44278 3.72017 5.36668C4.07061 5.32348 4.41442 5.22876 4.83676 5.14156C4.83676 5.83953 4.83717 6.49033 4.83676 7.14074C4.83552 9.00912 4.95742 10.8712 5.10908 12.7336C5.19421 13.776 5.1157 14.8303 5.18968 15.8743C5.26613 16.9583 5.41076 18.0403 5.57399 19.1168C5.83682 20.8508 5.8819 22.5963 5.92033 24.3415C5.96579 26.4163 5.96453 28.4916 5.99842 30.5665C6.00627 31.0584 6.08976 31.549 6.10835 32.0413C6.13687 32.7844 6.00088 32.8986 5.21571 32.855ZM13.1497 18.3899C11.6347 18.506 10.1223 18.6574 8.60646 18.7601C8.05808 18.7973 7.50266 18.7407 6.95055 18.7196C6.65301 18.7085 6.35589 18.6832 5.98769 18.6594C5.95008 18.4838 5.88602 18.2912 5.87073 18.0954C5.75213 16.5798 5.59052 15.0649 5.543 13.5473C5.46324 11.0024 5.49012 8.45464 5.40457 5.91008C5.37565 5.05912 5.91699 4.5518 6.36785 3.97432C6.47157 3.84154 6.74766 3.78764 6.9485 3.77733C8.08163 3.71947 9.2164 3.69371 10.3499 3.64059C10.7971 3.61998 11.2418 3.54824 11.6889 3.51614C11.9422 3.4979 12.198 3.51297 12.5422 3.51297C12.7484 4.36472 13.001 5.19269 13.141 6.03771C13.3159 7.09199 13.4146 8.15895 13.5142 9.22315C13.589 10.0206 13.6283 10.8216 13.6576 11.6218C13.725 13.4494 13.7766 15.2778 13.8345 17.1057C13.8399 17.2702 13.8407 17.4347 13.8523 17.5988C13.9014 18.2805 13.8353 18.3372 13.1497 18.3899ZM24.8245 11.384C24.767 12.9857 24.7633 14.5889 24.7278 16.1913C24.7208 16.4985 24.6993 16.8089 24.6439 17.1113C24.5711 17.5096 24.4145 17.6285 24.0013 17.6689C23.8736 17.6816 23.7443 17.6796 23.6162 17.688C20.8189 17.8687 18.022 18.0506 15.2247 18.229C14.9965 18.2432 14.7668 18.2306 14.4242 18.2306C14.3461 16.6436 14.2882 15.147 14.1944 13.6527C14.0709 11.6865 14.1114 9.71146 13.8266 7.7535C13.7031 6.90214 13.6469 6.04206 13.5336 5.18912C13.4828 4.80625 13.3328 4.43487 13.2898 4.0516C13.2394 3.60135 13.3254 3.55973 13.7969 3.45589C14.9705 3.19787 16.1569 3.1297 17.3583 3.12495C18.2344 3.12177 19.1092 2.99851 19.9861 2.95491C21.4581 2.88198 22.9314 2.82808 24.4674 2.99574C24.5067 3.18083 24.5666 3.37266 24.5869 3.56846C24.8534 6.1685 24.9179 8.77329 24.8245 11.384Z" fill="#251C1C"/>
<path d="M26.5775 17.8148C27.6383 17.7098 28.7062 17.6697 29.769 17.5798C30.1715 17.5457 30.5699 17.4561 30.9666 17.3744C31.3452 17.2964 31.5493 17.0375 31.6158 16.69C31.6576 16.4696 31.6568 16.2401 31.6609 16.0146C31.7002 13.8977 31.7489 11.7808 31.7675 9.6635C31.7758 8.74 31.6993 7.81572 31.7014 6.89184C31.7039 5.88551 31.7543 4.87957 31.7799 3.87325C31.7898 3.4872 31.8039 3.09838 31.5956 2.76069C30.8166 2.78606 30.0695 2.8479 29.3248 2.8253C28.2776 2.7936 27.2317 2.70363 26.1857 2.6311C25.727 2.59899 25.2377 2.64893 24.9014 2.19709C24.3765 2.63981 23.7748 2.60494 23.1768 2.59107C22.5574 2.5768 21.9367 2.53954 21.3185 2.56015C19.7163 2.61445 18.1145 2.68143 16.514 2.76863C14.9763 2.85265 13.4419 2.98345 11.9046 3.06549C10.345 3.14912 8.78374 3.20976 7.22248 3.25692C6.49681 3.27872 6.40796 3.18916 6.20299 2.51259C5.92115 1.58117 4.81406 0.867741 3.83176 1.02073C2.82095 1.17848 1.97791 1.63983 1.3506 2.42816C0.943132 2.94064 0.863375 3.85383 1.25762 4.28069C1.64442 4.70003 1.94857 5.23866 2.6887 5.35717C2.6887 5.82446 2.63827 6.2763 2.69778 6.71426C2.89201 8.14429 2.98622 9.57669 2.9668 11.0186C2.96101 11.4685 3.0222 11.9199 3.06394 12.3698C3.15113 13.3111 3.30319 14.2504 3.32633 15.1929C3.37055 17.0213 3.34659 18.8512 3.34659 20.6804C3.34618 23.412 3.26806 26.1452 3.63998 28.8654C3.84744 30.3861 4.02763 31.9101 4.23177 33.5224C4.35451 33.5224 4.53591 33.5296 4.71609 33.5209C5.14174 33.501 5.56697 33.4519 5.99221 33.4551C6.53398 33.4586 6.7303 33.2236 6.69352 32.6865C6.60674 31.4182 6.55135 30.1479 6.49598 28.8777C6.48151 28.5503 6.53441 28.2201 6.5216 27.8923C6.42986 25.5725 6.33151 23.2531 6.22902 20.9336C6.21456 20.6059 6.14636 20.2801 6.13479 19.9523C6.11991 19.5381 6.2228 19.4624 6.64639 19.4248C7.40925 19.3566 8.17131 19.2773 8.9321 19.1901C10.2281 19.0419 11.5199 18.8477 12.82 18.7494C13.2861 18.7137 13.8246 18.5912 14.175 18.8952C14.5651 18.7906 14.8961 18.6535 15.2383 18.6182C16.5586 18.483 17.881 18.3649 19.2051 18.2698C20.4416 18.1806 21.68 18.0899 22.9186 18.0748C23.5777 18.0665 24.2645 17.7779 24.9096 18.166C24.9452 18.1874 25.0261 18.1362 25.0865 18.1231C25.5832 18.0165 26.0746 17.8643 26.5775 17.8148ZM25.1563 3.09522C25.4638 3.07065 25.7349 3.02268 26.0043 3.0318C27.4784 3.08095 28.9516 3.14476 30.4253 3.20263C30.5323 3.20659 30.6402 3.19867 30.7468 3.2058C31.1745 3.23474 31.2699 3.30727 31.2852 3.73017C31.3092 4.38731 31.3129 5.04565 31.3034 5.70279C31.2724 7.87993 31.1873 10.0571 31.2121 12.2334C31.227 13.5081 31.1956 14.7748 31.0902 16.0439C31.029 16.776 30.934 16.9202 30.186 17.097C29.8963 17.1652 29.5983 17.2084 29.3016 17.2409C28.8359 17.2912 28.3685 17.3269 27.9015 17.3614C27.0502 17.424 26.1985 17.4815 25.2423 17.548C25.222 16.8374 25.1782 16.2048 25.1898 15.5734C25.2385 12.9456 25.32 10.3179 25.3535 7.69008C25.3621 6.97665 25.2489 6.26124 25.1836 5.54742C25.1109 4.75116 25.0642 3.95609 25.1563 3.09522ZM2.5709 4.81061C1.87746 4.69964 1.34811 3.59858 1.6316 2.98384C1.96344 2.26408 2.60437 1.91568 3.33541 1.68382C4.34871 1.36238 4.82686 1.56452 5.30954 2.10554C5.92817 2.79915 5.92195 3.60017 5.412 4.3235C5.05082 4.42497 4.76278 4.44518 4.54954 4.57716C3.92016 4.96637 3.2383 4.91723 2.5709 4.81061ZM5.21571 32.855C5.11033 32.8494 5.00539 32.8328 4.83224 32.8138C4.74917 32.532 4.64005 32.2462 4.58179 31.9513C4.2297 30.1733 4.05695 28.3767 3.91893 26.5721C3.71148 23.8615 3.76688 21.1516 3.77679 18.439C3.78299 16.6749 3.77761 14.9012 3.5966 13.149C3.42717 11.5085 3.39823 9.87079 3.32508 8.22991C3.29409 7.5359 3.1383 6.84705 3.0511 6.15463C2.97713 5.56565 3.10195 5.44278 3.72017 5.36668C4.07061 5.32348 4.41442 5.22876 4.83676 5.14156C4.83676 5.83953 4.83717 6.49033 4.83676 7.14074C4.83552 9.00912 4.95742 10.8712 5.10908 12.7336C5.19421 13.776 5.1157 14.8303 5.18968 15.8743C5.26613 16.9583 5.41076 18.0403 5.57399 19.1168C5.83682 20.8508 5.8819 22.5963 5.92033 24.3415C5.96579 26.4163 5.96453 28.4916 5.99842 30.5665C6.00627 31.0584 6.08976 31.549 6.10835 32.0413C6.13687 32.7844 6.00088 32.8986 5.21571 32.855ZM13.1497 18.3899C11.6347 18.506 10.1223 18.6574 8.60646 18.7601C8.05808 18.7973 7.50266 18.7407 6.95055 18.7196C6.65301 18.7085 6.35589 18.6832 5.98769 18.6594C5.95008 18.4838 5.88602 18.2912 5.87073 18.0954C5.75213 16.5798 5.59052 15.0649 5.543 13.5473C5.46324 11.0024 5.49012 8.45464 5.40457 5.91008C5.37565 5.05912 5.91699 4.5518 6.36785 3.97432C6.47157 3.84154 6.74766 3.78764 6.9485 3.77733C8.08163 3.71947 9.2164 3.69371 10.3499 3.64059C10.7971 3.61998 11.2418 3.54824 11.6889 3.51614C11.9422 3.4979 12.198 3.51297 12.5422 3.51297C12.7484 4.36472 13.001 5.19269 13.141 6.03771C13.3159 7.09199 13.4146 8.15895 13.5142 9.22315C13.589 10.0206 13.6283 10.8216 13.6576 11.6218C13.725 13.4494 13.7766 15.2778 13.8345 17.1057C13.8399 17.2702 13.8407 17.4347 13.8523 17.5988C13.9014 18.2805 13.8353 18.3372 13.1497 18.3899ZM24.8245 11.384C24.767 12.9857 24.7633 14.5889 24.7278 16.1913C24.7208 16.4985 24.6993 16.8089 24.6439 17.1113C24.5711 17.5096 24.4145 17.6285 24.0013 17.6689C23.8736 17.6816 23.7443 17.6796 23.6162 17.688C20.8189 17.8687 18.022 18.0506 15.2247 18.229C14.9965 18.2432 14.7668 18.2306 14.4242 18.2306C14.3461 16.6436 14.2882 15.147 14.1944 13.6527C14.0709 11.6865 14.1114 9.71146 13.8266 7.7535C13.7031 6.90214 13.6469 6.04206 13.5336 5.18912C13.4828 4.80625 13.3328 4.43487 13.2898 4.0516C13.2394 3.60135 13.3254 3.55973 13.7969 3.45589C14.9705 3.19787 16.1569 3.1297 17.3583 3.12495C18.2344 3.12177 19.1092 2.99851 19.9861 2.95491C21.4581 2.88198 22.9314 2.82808 24.4674 2.99574C24.5067 3.18083 24.5666 3.37266 24.5869 3.56846C24.8534 6.1685 24.9179 8.77329 24.8245 11.384Z" stroke="#251C1C" stroke-width="0.4" mask="url(#path-3-outside-1)"/>
<path d="M52.0888 17.1528C52.7359 17.2393 53.4456 17.0116 53.6179 16.3202C53.9145 15.1295 53.7038 14.1132 53.317 12.9649C52.9088 11.7527 52.5199 10.4754 51.8604 9.36499C51.5691 8.87477 51.1183 8.70796 50.6866 8.76118C50.4492 8.65525 50.1323 8.69721 49.9354 8.9541C48.06 11.4021 48.1769 16.6313 52.0888 17.1528Z" fill="#EF4036"/>
<path d="M51.7686 28.3751C53.3506 29.1304 55.6645 27.9218 57.1942 27.3512C58.3834 26.9081 58.6171 25.1555 57.1942 24.8013C55.7558 24.4437 54.225 23.9529 52.7952 24.6018C51.5184 25.181 50.4199 26.444 49.833 27.6516C49.4798 28.3782 50.2763 29.4666 51.1193 28.8853C51.345 28.7293 51.559 28.5548 51.7686 28.3751Z" fill="#EF4036"/>
<path d="M60.9011 25.0134C62.7749 25.0814 64.2037 27.1692 63.6483 28.9372C63.1526 30.5148 61.8071 31.2276 60.4455 31.9246C58.9067 32.7126 57.2101 33.0938 55.5161 33.3098C53.5822 33.5559 51.6353 33.7073 49.7516 33.8538C48.9683 33.9148 48.1959 33.9748 47.44 34.0405L60.9011 25.0134ZM60.9011 25.0134L60.8846 25.0128C60.6105 25.003 60.4267 24.9964 60.2619 24.7355C59.7213 23.8795 59.159 23.0342 58.5967 22.189C57.4443 20.4567 56.2922 18.7247 55.3272 16.9017M60.9011 25.0134L55.3272 16.9017M46.4529 2.03126L46.4535 1.93126C46.3326 1.93052 46.2352 1.95961 46.1586 2.01616C46.083 2.07191 46.0372 2.14733 46.0059 2.22197C45.9774 2.29005 45.9585 2.36442 45.9418 2.42955C45.9406 2.43453 45.9393 2.43946 45.9381 2.44432C45.9195 2.51668 45.9032 2.57627 45.8796 2.62455L45.8796 2.62465C45.6577 3.08122 45.4477 3.54854 45.2384 4.01431C45.0759 4.37594 44.9138 4.73664 44.7469 5.09063C43.4818 7.77185 42.1419 10.4194 40.8015 13.0683C40.5653 13.5351 40.329 14.0019 40.0932 14.4689C38.5193 17.5858 36.9628 20.7123 35.5462 23.9017L35.6376 23.9423L35.5462 23.9018C35.0948 24.9184 34.4498 25.5736 33.501 26.0604C33.0226 26.3057 32.7286 26.6906 32.5094 27.1352L32.5991 27.1794L32.5094 27.1352C31.9361 28.2985 31.9524 29.4549 32.469 30.4283C32.9845 31.3995 33.9912 32.1761 35.3763 32.5994C38.3994 33.524 41.5194 33.7312 44.7135 33.9434C45.6138 34.0032 46.52 34.0634 47.4316 34.1402L47.4401 34.1409L47.4486 34.1401C48.2027 34.0746 48.974 34.0146 49.7568 33.9537C51.6414 33.8072 53.5923 33.6554 55.5287 33.409C57.2283 33.1923 58.9378 32.8091 60.4911 32.0136C61.8472 31.3194 63.2338 30.5902 63.7437 28.9671C64.0323 28.0485 63.8041 27.0528 63.2678 26.2807C62.7313 25.5085 61.8788 24.9488 60.9047 24.9134L60.9047 24.9134L60.8984 24.9132C60.7549 24.908 60.6556 24.9044 60.5703 24.8756C60.4917 24.8491 60.4201 24.7987 60.3465 24.6821C59.8031 23.8217 59.2393 22.9743 58.6763 22.128C57.5256 20.3982 56.3783 18.6736 55.4156 16.8549L55.4156 16.8549C54.8857 15.8542 54.3685 14.8461 53.851 13.8377C51.8405 9.91962 49.8267 5.99526 47.0582 2.47046L47.0581 2.47043C47.024 2.42704 46.9937 2.37669 46.9603 2.32003L46.9539 2.30925C46.9234 2.25743 46.8898 2.20036 46.8513 2.14862C46.766 2.03376 46.647 1.93225 46.4534 1.93126L46.4529 2.03126ZM46.4529 2.03126C46.6747 2.03239 46.7711 2.19604 46.8684 2.36112C46.9034 2.42046 46.9385 2.48 46.9795 2.53223C49.7415 6.04871 51.7497 9.9621 53.7598 13.8792C54.2779 14.8887 54.796 15.8984 55.3272 16.9017M46.4529 2.03126C46.1473 2.02938 46.0917 2.24688 46.0384 2.45579C46.019 2.53137 46 2.60582 45.9695 2.66836C45.7474 3.12549 45.5393 3.58877 45.3311 4.0521C45.1687 4.41342 45.0064 4.77477 44.8374 5.13328L55.3272 16.9017M50.5633 27.9349L50.5633 27.935C50.5286 28.0546 50.5161 28.1409 50.519 28.2014C50.5217 28.26 50.5381 28.285 50.5531 28.298C50.5706 28.3132 50.6049 28.3283 50.6723 28.3312L50.5633 27.9349ZM50.5633 27.9349C50.9446 26.6204 52.1529 25.602 53.5096 25.1458C54.8676 24.6893 56.3385 24.8068 57.2483 25.7141C57.3745 25.8402 57.4991 25.9673 57.6125 26.083C57.6488 26.12 57.6839 26.1558 57.7176 26.1901C57.7169 26.2592 57.7044 26.3103 57.6864 26.3492C57.6655 26.3945 57.6345 26.4291 57.5949 26.4584C57.5543 26.4885 57.505 26.5126 57.4483 26.5356C57.42 26.547 57.3912 26.5577 57.3611 26.569C57.3315 26.58 57.3006 26.5916 57.2706 26.604L57.2705 26.604M50.5633 27.9349L57.2705 26.604M57.2705 26.604C55.2446 27.4434 53.0976 27.8773 50.9367 28.3028L57.2705 26.604ZM59.3863 24.6148L59.3863 24.6148C58.8363 23.7303 58.2548 22.8647 57.6722 21.9974C57.4543 21.673 57.2362 21.3484 57.0196 21.0225C56.2247 19.8265 55.4506 18.6152 54.782 17.3427L54.8705 17.2962L54.782 17.3427C54.6096 17.0145 54.4276 16.8278 54.214 16.7296C53.9985 16.6306 53.7355 16.6144 53.3858 16.66L53.3729 16.5609L53.3858 16.66C51.4893 16.9072 49.9567 16.0531 49.0689 14.4473C48.5279 13.4696 48.3811 12.5315 48.5056 11.6179C48.6297 10.7068 49.0227 9.82575 49.5522 8.95848C49.5522 8.95846 49.5522 8.95844 49.5523 8.95842L49.6376 9.01053C49.6777 8.94472 49.7226 8.88186 49.767 8.81978C49.9609 8.54833 50.1443 8.29165 49.8708 7.86685C49.643 7.51318 49.4195 7.15716 49.196 6.80118L59.3863 24.6148ZM59.3863 24.6148C59.6668 25.0655 59.7318 25.3849 59.6574 25.5847C59.5874 25.7723 59.3709 25.9045 58.9403 25.921L59.3863 24.6148ZM49.3664 28.2917C48.4207 28.5112 47.368 28.4156 46.3484 28.3229C46.3234 28.3207 46.2985 28.3184 46.2736 28.3161L46.2736 28.3161C43.6023 28.0751 41.0421 27.3581 38.4731 26.6388C37.961 26.4954 37.4485 26.3519 36.9347 26.212L36.9085 26.3085L36.9347 26.212C36.9235 26.209 36.9123 26.2059 36.9011 26.2029C36.5719 26.1134 36.2509 26.0261 36.0296 25.8552C35.9186 25.7695 35.8357 25.6645 35.7909 25.5285C35.7459 25.3916 35.7367 25.2151 35.7876 24.9825L35.6899 24.9612L35.7876 24.9825C36.0171 23.9329 36.7384 23.2327 37.5364 23.2502L37.5364 23.2502C38.9416 23.2804 40.3014 22.7216 41.3083 21.8691C42.3136 21.0179 42.9784 19.8637 42.9724 18.6947C43.0117 17.1264 42.3991 16.0037 41.3383 15.1351C41.0983 14.9386 40.9696 14.7758 40.9275 14.6093C40.8863 14.4464 40.9226 14.2567 41.0709 13.9924L41.0709 13.9923C42.402 11.6178 43.5603 9.16179 44.7168 6.70951C45.164 5.76131 45.611 4.81367 46.0675 3.8715L58.2598 25.674C58.2128 25.6274 58.1656 25.5807 58.116 25.5373L58.1819 25.4621C58.1819 25.4621 58.1819 25.4621 58.1818 25.462C55.867 23.4361 52.1748 23.9405 50.5257 26.4948L50.5257 26.4948C50.4184 26.661 50.3359 26.8513 50.2613 27.0408C50.2369 27.1026 50.2135 27.1639 50.1905 27.2245C50.1415 27.3529 50.0938 27.4781 50.0404 27.5985C49.8835 27.9521 49.6975 28.2148 49.3664 28.2917ZM49.3664 28.2917L49.389 28.3891M49.3664 28.2917C49.3664 28.2917 49.3664 28.2917 49.3663 28.2917L49.389 28.3891M49.389 28.3891C48.4274 28.6123 47.3605 28.5154 46.3466 28.4232C46.3192 28.4207 46.2919 28.4182 46.2646 28.4157L50.2851 27.2569C50.091 27.7663 49.8988 28.2707 49.389 28.3891ZM41.9589 19.9163L41.9589 19.9163C41.0912 21.3766 39.8411 22.3097 38.0423 22.3958L38.0423 22.3957L38.0382 22.3961C37.7977 22.4175 37.6164 22.4067 37.4853 22.3718C37.3554 22.3372 37.2817 22.281 37.2419 22.2149C37.2015 22.1475 37.1862 22.0532 37.2076 21.9228C37.2291 21.7923 37.2861 21.6346 37.3787 21.4508C37.6256 20.9607 37.8709 20.4701 38.1161 19.9798C38.7418 18.7285 39.367 17.4782 40.0163 16.2389C40.1233 16.0349 40.2264 15.8871 40.327 15.7898C40.4267 15.6933 40.5192 15.6506 40.6078 15.6451C40.6972 15.6396 40.7994 15.6708 40.9201 15.7551C41.0413 15.8397 41.1749 15.9737 41.3234 16.1618C41.7811 16.7414 42.1441 17.337 42.2909 17.9581C42.4367 18.575 42.3708 19.2233 41.9589 19.9163ZM63.0776 27.9814C63.0936 28.0583 63.0988 28.1634 63.0954 28.2996L57.3536 27.2234C57.7212 27.0738 58.1016 26.9585 58.4825 26.8432C59.2306 26.6165 59.9803 26.3895 60.6365 25.9002L60.6962 25.9803C60.6962 25.9803 60.6962 25.9803 60.6962 25.9803C60.9204 25.8132 61.1948 25.7083 61.4675 25.7187C61.7365 25.729 62.0141 25.8516 62.2519 26.1588C62.4985 26.4779 62.6095 26.7444 62.5811 26.9642C62.5537 27.1755 62.3909 27.382 61.9877 27.5676C61.864 27.6244 61.7399 27.681 61.6155 27.7376C60.9225 28.0532 60.2239 28.3714 59.5584 28.7603L59.2779 28.9242L59.602 28.9464C60.7417 29.0244 61.679 28.5275 62.5515 28.0121L62.5515 28.0121C62.6961 27.9267 62.8046 27.8776 62.8849 27.8568C62.9654 27.836 63.0013 27.8474 63.0184 27.8589C63.0374 27.8717 63.0613 27.9031 63.0776 27.9814ZM49.2264 29.1655L49.2225 29.0656L35.4759 31.9491L35.5056 31.8536C35.5056 31.8536 35.5056 31.8536 35.5056 31.8536C34.7655 31.6234 34.1809 31.2943 33.7322 30.8497C33.2839 30.4054 32.9665 29.8409 32.768 29.1323L32.7679 29.1323C32.7231 28.9722 32.7078 28.8513 32.7141 28.7623C32.7204 28.675 32.7467 28.6248 32.7802 28.5939C32.8151 28.5617 32.8713 28.5379 32.9608 28.5307C33.0502 28.5236 33.1641 28.5339 33.3031 28.5614C33.9548 28.691 34.536 28.9911 35.1337 29.2997C35.1982 29.333 35.2629 29.3664 35.3279 29.3997L35.3735 29.3107L35.3279 29.3997C35.3698 29.4212 35.4119 29.443 35.4543 29.4649C36.1689 29.8344 36.9585 30.2428 37.9054 29.75L38.1498 29.6228L37.8807 29.5636C37.1585 29.4047 36.4907 29.1321 35.8356 28.8229C35.5581 28.6919 35.2794 28.5525 34.9997 28.4127C34.6263 28.2259 34.2509 28.0382 33.8737 27.8681L33.8737 27.8681C33.8043 27.8369 33.727 27.811 33.6544 27.7867C33.6456 27.7838 33.6368 27.7808 33.6281 27.7779C33.5455 27.7502 33.4692 27.7233 33.4029 27.6895C33.3369 27.6559 33.2867 27.6185 33.2529 27.5733C33.2204 27.5298 33.1986 27.4733 33.1985 27.3922L33.1985 27.392C33.1976 27.0684 33.4631 26.8645 33.8132 26.6851L33.8132 26.685C34.4116 26.3779 34.9594 26.3229 35.6529 26.5543L35.6845 26.4594L35.6529 26.5543C40.0369 28.0168 44.4749 29.3526 49.2264 29.1655C49.2264 29.1655 49.2264 29.1655 49.2264 29.1655ZM53.2199 14.3536C53.3276 14.5742 53.4353 14.7949 53.5435 15.0155C53.6454 15.2235 53.7003 15.3942 53.7141 15.5313C53.7278 15.6666 53.7012 15.7636 53.646 15.8352C53.5896 15.9084 53.4929 15.9687 53.34 16.0083C53.187 16.0479 52.986 16.0646 52.7331 16.0567C50.4486 15.9843 48.6996 13.4228 49.3654 10.9932C49.3948 10.8863 49.4217 10.7694 49.4488 10.6518C49.4642 10.5854 49.4795 10.5188 49.4954 10.4537C49.5403 10.2695 49.5907 10.0901 49.66 9.93011C49.7292 9.77029 49.8153 9.63467 49.9288 9.53463C50.0409 9.43586 50.1839 9.36787 50.3752 9.34902C50.5142 9.33539 50.6202 9.37301 50.7089 9.44314C50.801 9.51588 50.8784 9.62681 50.9491 9.76477C51.0169 9.89716 51.0745 10.0462 51.1332 10.1981L51.1402 10.2164C51.2003 10.3718 51.2625 10.5309 51.3365 10.6639C52.0075 11.8703 52.6132 13.111 53.2199 14.3536Z" fill="#251C1C" stroke="#251C1C" stroke-width="0.2"/>
<path d="M56.5401 23.3306C56.7445 23.3306 56.9054 23.2535 57.0142 23.1319C57.1214 23.0121 57.173 22.8551 57.1731 22.7013C57.1732 22.5475 57.1217 22.3904 57.0145 22.2706C56.9057 22.149 56.7448 22.0719 56.5401 22.0719C56.3356 22.0719 56.1748 22.1491 56.066 22.2706C55.9588 22.3904 55.9072 22.5474 55.9071 22.7012C55.907 22.855 55.9584 23.0121 56.0657 23.1319C56.1745 23.2535 56.3354 23.3306 56.5401 23.3306Z" fill="#251C1C" stroke="#251C1C" stroke-width="0.2"/>
<path d="M50.5637 22.7402L50.5637 22.7402C50.2341 22.3854 50.1361 21.9063 50.1422 21.4677M50.5637 22.7402L50.2422 21.4691M50.5637 22.7402C50.82 23.016 51.1061 23.15 51.3712 23.099C51.6392 23.0475 51.8396 22.8165 51.9434 22.4669M50.5637 22.7402L54.6012 18.952M50.1422 21.4677L50.2422 21.4691M50.1422 21.4677C50.1422 21.4678 50.1422 21.4678 50.1422 21.4678L50.2422 21.4691M50.1422 21.4677C50.1449 21.2631 50.2065 20.993 50.2701 20.7138L50.2731 20.7006C50.3392 20.4108 50.4087 20.1041 50.4329 19.8167C50.4572 19.5278 50.434 19.2742 50.3284 19.0837C50.2265 18.9002 50.039 18.7592 49.6945 18.7118M50.2422 21.4691C50.2447 21.2752 50.3044 21.0133 50.3698 20.7263C50.5658 19.8668 50.8132 18.7812 49.7321 18.6162C49.7299 18.6163 49.7276 18.6164 49.7254 18.6165M49.6945 18.7118C49.6945 18.7118 49.6945 18.7118 49.6945 18.7118L49.7081 18.6127M49.6945 18.7118L49.7081 18.6127M49.6945 18.7118C49.6535 18.7062 49.6158 18.6847 49.5926 18.6477C49.5711 18.6133 49.5681 18.5755 49.5735 18.545C49.5835 18.4879 49.6321 18.4199 49.7176 18.4166C49.9808 18.4063 50.1961 18.4609 50.3678 18.5676C50.5393 18.6742 50.6601 18.8282 50.7418 19.0046C50.9036 19.3538 50.917 19.7999 50.8696 20.1871M49.7081 18.6127C49.7138 18.6135 49.7195 18.6143 49.7252 18.6152C49.7252 18.6152 49.7253 18.6152 49.7253 18.6152C49.7271 18.6155 49.7289 18.6157 49.7307 18.616C49.729 18.6162 49.7272 18.6164 49.7254 18.6165M49.7081 18.6127C49.6484 18.6046 49.667 18.5188 49.7213 18.5166C49.7213 18.5166 49.7213 18.5166 49.7214 18.5166C49.7214 18.5166 49.7214 18.5166 49.7215 18.5166L51.3923 22.2553C51.1246 22.3017 50.9505 22.2666 50.8453 22.1816C50.7336 22.0913 50.6682 21.9185 50.6846 21.6241L50.6851 21.6152L50.684 21.6063C50.6561 21.3815 50.6856 21.1519 50.7317 20.9133C50.7458 20.8406 50.7616 20.7663 50.7776 20.6909C50.8131 20.5245 50.8494 20.3536 50.8696 20.1871M49.7254 18.6165C49.7253 18.6165 49.7253 18.6165 49.7252 18.6165L49.7252 18.6165L49.7254 18.6165ZM54.6012 18.952C54.8557 18.9658 54.8589 19.3379 54.6012 19.3343C54.2095 19.3289 54.0329 19.8968 53.856 20.4662C53.6446 21.1461 53.4327 21.8281 52.8528 21.5382C52.6532 21.4383 52.6446 21.2161 52.6374 21.0261C52.6323 20.8931 52.6278 20.7758 52.5588 20.7271C51.8181 20.206 51.886 21.2228 51.9097 21.5774C51.9125 21.6197 51.9147 21.6526 51.9148 21.6723C51.9149 21.685 51.9149 21.6978 51.915 21.7106C51.9162 21.9515 51.9175 22.2046 51.8476 22.4383L51.9435 22.4668C51.9434 22.4668 51.9434 22.4669 51.9434 22.4669M54.6012 18.952C54.161 18.929 53.867 19.1178 53.6606 19.498M54.6012 18.952L53.6606 19.498M51.9434 22.4669C52.0177 22.2184 52.0163 21.9514 52.015 21.7139C52.015 21.6998 52.0149 21.6858 52.0148 21.6719L52.0148 21.6717C52.0147 21.6487 52.0122 21.6119 52.0094 21.5702C52.0089 21.5629 52.0085 21.5556 52.008 21.5481C52.0045 21.4951 52.0005 21.4312 51.9983 21.3615C51.994 21.2209 51.9971 21.063 52.0235 20.9314C52.0514 20.7927 52.0981 20.7181 52.1509 20.6932C52.1985 20.6708 52.3004 20.6676 52.5011 20.8088C52.5058 20.8121 52.52 20.8277 52.5285 20.8928C52.5338 20.9329 52.5353 20.9747 52.5371 21.0231C52.5382 21.0524 52.5394 21.0841 52.5416 21.1194C52.5517 21.2864 52.5841 21.5155 52.808 21.6276L52.8081 21.6277C52.9563 21.7018 53.0946 21.7243 53.2223 21.6931C53.3492 21.6621 53.4505 21.5817 53.5325 21.4796C53.6929 21.28 53.8023 20.968 53.8995 20.6618C53.9174 20.6054 53.935 20.549 53.9524 20.493C54.0323 20.2361 54.1092 19.9887 54.2051 19.7925C54.3242 19.5485 54.4491 19.4322 54.5998 19.4343C54.6901 19.4355 54.7663 19.4031 54.8191 19.3459C54.8705 19.2903 54.8935 19.2183 54.8933 19.1492C54.8927 19.0101 54.7945 18.8624 54.6066 18.8522L54.6064 18.8521C54.3703 18.8398 54.1664 18.8841 53.9921 18.9879C53.8184 19.0912 53.6821 19.2488 53.5727 19.4502C53.4967 19.5897 53.4615 19.7391 53.4382 19.882C53.4287 19.9403 53.4209 19.9991 53.4134 20.056C53.4117 20.0688 53.41 20.0814 53.4084 20.0939C53.3991 20.1632 53.3896 20.2295 53.3768 20.2936L53.3765 20.2935L53.3756 20.3013C53.3618 20.4168 53.3365 20.5296 53.2998 20.6402C53.2253 20.6667 53.1646 20.6815 53.1165 20.6867C53.0585 20.6929 53.029 20.6841 53.0155 20.676C53.006 20.6703 52.9945 20.6594 52.9887 20.6269C52.9822 20.5912 52.9842 20.5361 53.0025 20.4569L53.0124 20.4142L52.9876 20.378C52.9535 20.3281 52.9296 20.2743 52.9071 20.2153C52.9011 20.1998 52.895 20.1831 52.8887 20.1658C52.8726 20.1217 52.855 20.0736 52.8349 20.0302C52.8054 19.9664 52.7661 19.9017 52.7045 19.8457C52.6426 19.7895 52.5632 19.7468 52.4599 19.7192C52.4598 19.7192 52.4598 19.7192 52.4598 19.7192L52.4339 19.8158L51.9434 22.4669ZM50.8696 20.1871L50.7704 20.175L50.8697 20.187C50.8697 20.1871 50.8696 20.1871 50.8696 20.1871ZM53.6606 19.498C53.5648 19.6738 53.5385 19.8723 53.5126 20.0686M53.6606 19.498L53.5126 20.0686M53.5126 20.0686C53.5017 20.1511 53.4908 20.2333 53.4749 20.3132L53.5126 20.0686Z" fill="#251C1C" stroke="#251C1C" stroke-width="0.2"/>
<path d="M47.1169 7.25601L47.1169 7.25602C47.0224 7.28008 46.9153 7.26414 46.8283 7.22091C46.7411 7.17759 46.6579 7.09799 46.6392 6.98221L47.1169 7.25601ZM47.1169 7.25601C47.4852 7.1621 47.8132 6.84106 47.7689 6.42448L47.7689 6.42439M47.1169 7.25601L47.7689 6.42439M47.7689 6.42439C47.7251 6.01593 47.3199 5.6914 46.8875 5.81273L46.8875 5.81274M47.7689 6.42439L46.8875 5.81274M46.8875 5.81274C46.7132 5.86166 46.605 5.98319 46.5691 6.12608M46.8875 5.81274L46.5691 6.12608M46.5691 6.12608C46.5381 6.24981 46.5627 6.38433 46.6359 6.49336M46.5691 6.12608L46.6359 6.49336M46.6359 6.49336C46.6076 6.65005 46.6116 6.81205 46.6392 6.98217L46.6359 6.49336Z" fill="#251C1C" stroke="#251C1C" stroke-width="0.2"/>
<path d="M46.4037 19.3627L46.4037 19.3625C46.4085 19.2702 46.4188 19.189 46.4342 19.11C46.2615 18.7781 46.534 18.3099 47.0113 18.3974L46.4037 19.3627ZM46.4037 19.3627C46.3952 19.531 46.4832 19.6673 46.6035 19.75M46.4037 19.3627L46.6035 19.75M46.6035 19.75C46.7225 19.8319 46.8798 19.8666 47.0283 19.832L46.6035 19.75ZM47.0283 19.832C47.4181 19.7411 47.6214 19.4208 47.6221 19.1044C47.6227 18.7859 47.4178 18.4717 47.0114 18.3974L47.0283 19.832Z" fill="#251C1C" stroke="#251C1C" stroke-width="0.2"/>
<path d="M43.241 12.3008C43.2588 12.2967 43.2791 12.285 43.2923 12.2635C43.2958 12.2579 43.2984 12.2522 43.3003 12.2465C43.2766 12.2447 43.2524 12.243 43.2278 12.2417C43.2278 12.2417 43.2277 12.2417 43.2276 12.2417C43.2266 12.2416 43.2256 12.2416 43.2246 12.2415L43.2199 12.3414C43.1546 12.3384 43.1146 12.2881 43.1064 12.241C43.1021 12.2164 43.1049 12.1864 43.1219 12.1588C43.1398 12.1296 43.1682 12.1119 43.1979 12.1054L43.2192 12.2031L46.9014 12.4872C46.5578 12.5286 46.3645 12.6956 46.2541 12.9362C46.1396 13.1859 46.1122 13.521 46.1269 13.8947C46.1382 14.1826 46.1739 14.4829 46.2083 14.7733C46.2185 14.8586 46.2285 14.9432 46.2378 15.0262C46.2778 15.3846 46.3052 15.7249 46.2531 15.9688M43.241 12.3008C43.2408 12.3008 43.2407 12.3008 43.2405 12.3009L43.2405 12.3009L43.241 12.3008ZM43.241 12.3008C43.3156 12.2841 43.3865 12.2718 43.4538 12.2635C44.2312 12.3755 44.4354 12.8385 44.496 13.6329C44.5088 13.8002 44.5202 13.968 44.5315 14.1359C44.5615 14.5773 44.5915 15.0199 44.6475 15.4576L44.5483 15.4703C44.5483 15.4703 44.5483 15.4703 44.5483 15.4703C44.5766 15.6917 44.6197 15.9645 44.7317 16.1959C44.8459 16.4318 45.0354 16.6313 45.3529 16.688M45.3529 16.688C45.3529 16.688 45.3529 16.688 45.3529 16.688L45.3705 16.5895L45.3529 16.688ZM45.3529 16.688C45.6132 16.7345 45.8215 16.6589 45.9735 16.5135C46.1215 16.3718 46.2102 16.17 46.2531 15.9688M46.2531 15.9688C46.2531 15.9687 46.2531 15.9687 46.2531 15.9687L46.1553 15.9479L46.2531 15.9688ZM45.6884 13.0521L45.5888 13.0438L45.6884 13.0521ZM45.6884 13.0521L45.5888 13.0438L45.6884 13.0521ZM45.1298 15.8619L45.2279 15.8422C45.2237 15.8216 45.2198 15.801 45.2159 15.7804C45.1964 15.7757 45.1761 15.7707 45.1553 15.7652L45.1298 15.8619Z" fill="#251C1C" stroke="#251C1C" stroke-width="0.2"/>
<path d="M44.6783 25.6964L44.6826 25.6787C44.7275 25.4952 44.7273 25.2959 44.7073 25.0831C44.6945 24.9477 44.6746 24.8133 44.6542 24.6756C44.642 24.5935 44.6296 24.5102 44.6185 24.4249C44.5607 23.9807 44.5412 23.5094 44.8415 23.1066C45.0157 22.8728 45.2592 22.7245 45.5135 22.698C45.7709 22.6712 46.0291 22.7707 46.2207 23.0126C46.2208 23.0127 46.2208 23.0127 46.2208 23.0127L46.1424 23.0748C46.2875 23.2575 45.968 23.4868 45.8132 23.3179L44.6783 25.6964ZM44.6783 25.6964L44.6805 25.7145C44.6887 25.7823 44.6802 25.8317 44.6625 25.8682C44.6453 25.9037 44.6155 25.9352 44.5656 25.961C44.467 26.0121 44.2998 26.0359 44.0494 26.0171C43.9648 25.862 43.9149 25.6989 43.8987 25.5268L43.8992 25.5267L43.8973 25.517C43.8536 25.2932 43.8494 25.0707 43.8451 24.837C43.8438 24.7706 43.8426 24.7034 43.8404 24.6349L43.8404 24.6348C43.8386 24.5819 43.8371 24.5284 43.8355 24.4745C43.8255 24.1256 43.8149 23.756 43.7384 23.4051L43.6407 23.4264L43.7384 23.4052C43.6763 23.1178 43.5426 22.8373 43.3311 22.6554C43.1142 22.4688 42.8235 22.3936 42.4754 22.5091L42.4754 22.5091C42.3296 22.5576 42.2844 22.6964 42.315 22.8062C42.3301 22.8605 42.3644 22.9124 42.4176 22.9456C42.4726 22.9799 42.5403 22.9893 42.6105 22.9702L42.6105 22.9702L42.6108 22.9701C42.7122 22.9423 42.789 22.9528 42.8508 22.9846C42.9149 23.0176 42.9738 23.0794 43.0263 23.1731C43.1326 23.3629 43.1961 23.6533 43.2326 23.9803C43.2689 24.3043 43.2775 24.6511 43.2817 24.9466C43.2823 24.9921 43.2829 25.0366 43.2834 25.0796C43.2845 25.1751 43.2856 25.2633 43.2875 25.34C43.2903 25.4495 43.2949 25.5437 43.3058 25.606M44.6783 25.6964L44.2633 26.7592L44.2445 26.8574C44.2444 26.8574 44.2444 26.8574 44.2444 26.8574C43.9387 26.7987 43.7229 26.5948 43.5762 26.3568C43.4298 26.1193 43.3464 25.8394 43.3058 25.606M43.3058 25.606L43.4043 25.5889L43.3058 25.6061C43.3058 25.606 43.3058 25.606 43.3058 25.606Z" fill="#251C1C" stroke="#251C1C" stroke-width="0.2"/>
<path d="M39.4288 24.224C39.222 24.224 39.0593 24.302 38.9493 24.4249C38.8408 24.546 38.7885 24.7048 38.7884 24.8604C38.7883 25.0161 38.8403 25.1749 38.9488 25.2961C39.0588 25.419 39.2216 25.497 39.4288 25.497C39.6358 25.497 39.7985 25.419 39.9086 25.2961C40.0171 25.175 40.0694 25.0162 40.0694 24.8606C40.0695 24.7049 40.0174 24.5461 39.9089 24.4249C39.7988 24.302 39.636 24.224 39.4288 24.224Z" fill="#251C1C" stroke="#251C1C" stroke-width="0.2"/>
<path d="M102.433 26.5351C102.457 26.5266 102.482 26.5181 102.507 26.5096C104.119 26.4786 105.73 26.4465 107.342 26.4155C108.187 26.3995 109.032 26.3825 109.876 26.3665C110.526 26.3543 111.556 26.5294 112.062 26.053C112.527 25.6142 112.532 24.7508 112.651 24.1707C112.802 23.4288 112.954 22.6868 113.105 21.9448C113.407 20.4675 113.751 19.009 113.538 17.4987C113.46 16.9451 112.52 16.8547 112.282 17.3415C111.734 18.4619 111.193 19.5871 110.634 20.7029C110.152 21.6661 109.602 22.5625 108.657 23.1689C106.702 24.4231 104.231 24.505 102.067 25.263C101.244 25.553 101.599 26.8269 102.433 26.5351ZM110.848 24.9155C110.93 24.9174 111.012 24.9042 111.09 24.875C111.076 24.9268 111.067 24.9777 111.067 25.0219C111.059 25.0229 111.053 25.0238 111.045 25.0257C110.954 25.0078 110.853 25.004 110.749 25.005C110.782 24.9749 110.817 24.9457 110.848 24.9155Z" fill="#39B100"/>
<path d="M78.4086 9.77136C78.5951 9.71298 78.761 9.58116 78.8464 9.36083C79.5336 7.59066 80.966 6.19335 82.7488 5.41655C83.0217 5.29791 83.1396 4.93164 83.065 4.67176C82.9776 4.36857 82.7066 4.22451 82.4023 4.18779C80.8619 4.00136 79.3618 4.10776 78.3172 5.34405C77.3129 6.53327 77.1539 8.05015 77.0911 9.52561C77.0577 10.2826 78.1464 10.3627 78.4086 9.77136Z" fill="#39B100"/>
<path d="M79.9048 2.22005L79.9049 2.22007C80.1719 2.26566 80.4525 2.24916 80.7464 2.21927C80.8101 2.21279 80.8746 2.20565 80.9397 2.19845C81.1708 2.17288 81.4091 2.14651 81.6433 2.14614M79.9048 2.22005L104.427 27.8185C104.581 27.813 104.734 27.8075 104.886 27.8046L104.886 27.8046C105.147 27.7993 105.408 27.7918 105.668 27.7843C106.256 27.7674 106.841 27.7506 107.427 27.7603C108.7 27.781 109.972 27.8168 111.241 27.8929C112.073 27.9442 112.673 27.5851 113.22 27.0864C114.019 26.3577 114.121 25.3973 114.218 24.4896C114.23 24.3772 114.242 24.2656 114.255 24.1553C114.363 23.2407 114.452 22.3217 114.54 21.4042C114.602 20.7618 114.664 20.1201 114.732 19.4811C114.78 19.0368 114.839 18.5935 114.898 18.1489C114.903 18.1117 114.908 18.0746 114.913 18.0374C114.977 17.5558 115.04 17.0726 115.088 16.5878C115.162 15.8327 115.226 15.0783 115.289 14.3249C115.394 13.0806 115.499 11.8387 115.653 10.5999L115.653 10.5999C115.886 8.71384 115.96 6.85321 115.492 4.96766C115.262 4.04684 114.791 3.29798 114.127 2.78144C113.462 2.26485 112.609 1.98497 111.625 1.99266C109.743 2.00678 107.862 1.9945 105.98 1.98221C105.478 1.97894 104.976 1.97566 104.474 1.97289L104.474 1.97289C103.696 1.96873 102.916 1.96108 102.136 1.95343C101.15 1.94376 100.163 1.93408 99.1785 1.93145C98.5019 1.92968 97.8241 1.9398 97.1477 1.9499C96.747 1.95589 96.3467 1.96186 95.9474 1.96536L95.9483 2.06536M79.9048 2.22005C79.1739 2.09583 78.6517 2.30017 78.0561 2.63644L78.056 2.6365M79.9048 2.22005L78.056 2.6365M81.6433 2.14614L81.6434 2.24614L81.6433 2.14614ZM81.6433 2.14614C82.5267 2.14464 83.409 2.15087 84.2908 2.15709C85.6292 2.16654 86.9664 2.17598 88.3051 2.15839C89.5182 2.14239 90.7288 2.09475 91.9409 2.04705C92.6548 2.01896 93.3691 1.99085 94.0847 1.96917M94.0847 1.96917C94.4665 1.95698 94.8518 1.96013 95.2348 1.96325C95.4737 1.9652 95.7117 1.96715 95.9475 1.96536L95.9483 2.06536M94.0847 1.96917C94.0848 1.96917 94.0848 1.96917 94.0849 1.96917L94.0879 2.06912M94.0847 1.96917C94.0847 1.96917 94.0847 1.96917 94.0847 1.96917L94.0879 2.06912M95.9483 2.06536C96.349 2.06185 96.7498 2.05586 97.1507 2.04987C97.8264 2.03978 98.5023 2.02968 99.1782 2.03145C100.163 2.03408 101.149 2.04375 102.134 2.05342C102.914 2.06107 103.694 2.06872 104.474 2.07288L94.0879 2.06912M95.9483 2.06536C95.7089 2.06717 95.4696 2.0652 95.2303 2.06324C94.8493 2.0601 94.4684 2.05697 94.0879 2.06912M78.056 2.6365C76.6799 3.41548 75.919 4.58519 75.6905 6.02027L75.6905 6.0203M78.056 2.6365L75.6905 6.0203M75.6905 6.0203C75.4395 7.60018 75.2987 9.20611 75.2525 10.8041C75.2037 12.48 75.2042 14.1592 75.2047 15.8368C75.205 16.8264 75.2053 17.8154 75.1955 18.8028L75.1955 18.8029M75.6905 6.0203L75.1955 18.8029M75.1955 18.8029C75.1861 19.7943 75.1607 20.7841 75.1352 21.7749C75.118 22.4433 75.1008 23.112 75.0885 23.782L75.0885 23.782M75.1955 18.8029L75.0885 23.782M75.0885 23.782C75.0633 25.1819 75.9459 26.5495 77.2745 26.9768L77.2745 26.9769M75.0885 23.782L77.2745 26.9769M77.2745 26.9769C78.0788 27.235 78.9341 27.364 79.7666 27.4853L79.7667 27.4853M77.2745 26.9769L79.7667 27.4853M79.7667 27.4853C80.3522 27.5704 80.9458 27.6171 81.5416 27.6639M79.7667 27.4853L81.5416 27.6639M80.1393 32.8296L80.1393 32.8296C80.7294 31.4989 81.2853 30.1541 81.8415 28.8083C81.9703 28.4966 82.0992 28.185 82.2284 27.8734L80.1393 32.8296ZM80.1393 32.8296C80.1287 32.8535 80.1177 32.8776 80.1066 32.9021C80.0366 33.0559 79.9618 33.2203 79.9541 33.3945C79.9446 33.6092 80.034 33.8247 80.281 34.07L80.3478 34.1364M80.1393 32.8296L80.3478 34.1364M80.3478 34.1364L80.4181 34.0736M80.3478 34.1364L80.4181 34.0736M80.4181 34.0736C80.5094 33.992 80.5998 33.9145 80.6881 33.8387M80.4181 34.0736L80.6881 33.8387M92.4136 2.80557L92.4136 2.80557C91.9716 2.82093 91.5287 2.84067 91.0852 2.86043C90.255 2.89742 89.423 2.93449 88.5923 2.9431C88.5922 2.9431 88.5922 2.9431 88.5922 2.9431L92.4136 2.80557ZM92.4136 2.80557C92.5768 2.79981 92.7398 2.79374 92.9027 2.78767M92.4136 2.80557L92.9027 2.78767M112.092 2.99101L112.092 2.99101C110.103 2.89972 108.113 2.83289 106.122 2.79242C105.1 2.7718 104.08 2.77406 103.059 2.77632L112.092 2.99101ZM112.092 2.99101C112.724 3.0198 113.22 3.21393 113.606 3.53463C113.993 3.85621 114.276 4.31052 114.473 4.86959L114.473 4.86963L112.092 2.99101ZM110.252 26.9191L110.253 26.9191C110.331 26.9194 110.408 26.9209 110.484 26.9225C110.67 26.9262 110.849 26.9298 111.029 26.9148C111.719 26.8557 112.146 26.7375 112.434 26.4908C112.72 26.2454 112.886 25.8571 113.007 25.208L113.105 25.2264L113.007 25.208C113.068 24.8818 113.103 24.5504 113.135 24.2148C113.14 24.1666 113.144 24.1182 113.149 24.0697C113.176 23.7825 113.204 23.4923 113.246 23.2045C113.246 23.2045 113.246 23.2045 113.246 23.2045L113.345 23.2189L110.252 26.9191ZM110.252 26.9191C109.349 26.9168 108.446 26.916 107.542 26.9152C105.472 26.9133 103.401 26.9115 101.331 26.8918L101.331 26.8918M110.252 26.9191L101.331 26.8918M101.331 26.8918C99.7612 26.8775 98.1876 26.8522 96.6137 26.8269C94.8848 26.7992 93.1555 26.7714 91.4301 26.7581H91.4301M101.331 26.8918L91.4301 26.7581M91.4301 26.7581C90.9045 26.7543 90.3792 26.7832 89.8568 26.815C89.8025 26.8183 89.7483 26.8217 89.6942 26.825C89.2257 26.8538 88.7597 26.8824 88.2941 26.8899C87.6889 26.8993 87.0775 26.848 86.4736 26.7702L86.4734 26.7702M91.4301 26.7581L86.4734 26.7702M86.4734 26.7702C86.2717 26.7446 86.1125 26.7612 85.9691 26.8321C85.8289 26.9015 85.7152 27.0176 85.594 27.1658L85.5939 27.166M86.4734 26.7702L85.5939 27.166M85.5939 27.166C84.6072 28.3795 83.5923 29.5717 82.5767 30.7646M85.5939 27.166L82.5767 30.7646M83.1714 26.8231L83.1973 26.8635C83.3557 27.1112 83.3801 27.3444 83.3367 27.5698C83.2988 27.7666 83.2084 27.9587 83.1214 28.1436L83.1714 26.8231ZM83.1714 26.8231L83.1236 26.818M83.1714 26.8231L83.1236 26.818M83.1236 26.818C82.6912 26.772 82.2586 26.727 81.826 26.6821M83.1236 26.818L81.826 26.6821M76.0483 11.696L76.0483 11.6961C75.9901 14.4595 75.9767 17.2231 75.9633 19.9878C75.9586 20.9544 75.9539 21.9212 75.9472 22.8882C75.946 23.0635 75.9608 23.2336 75.9759 23.4089C75.9849 23.5122 75.994 23.6174 76.0001 23.7265L76.0483 11.696ZM76.0483 11.696C76.0855 9.91545 76.2227 8.13061 76.4296 6.35926L76.4296 6.35923M76.0483 11.696L76.4296 6.35923M76.4296 6.35923C76.5077 5.68849 76.8233 5.00992 77.1623 4.38219L76.4296 6.35923ZM81.5416 27.6639C81.7707 27.6819 82.0002 27.6999 82.2296 27.7202M81.5416 27.6639L82.2296 27.7202M82.2296 27.7202C82.2303 27.7288 82.231 27.7371 82.2318 27.745C82.2331 27.7605 82.2344 27.7745 82.2351 27.7859C82.238 27.8315 82.2353 27.8568 82.2284 27.8734L82.2296 27.7202ZM80.6881 33.8387C80.8833 33.6713 81.0683 33.5126 81.2305 33.3385L80.6881 33.8387ZM92.9027 2.78767C93.6208 2.76092 94.337 2.73424 95.0528 2.73501M92.9027 2.78767L95.0528 2.73501M95.0528 2.73501C96.2786 2.73613 97.5035 2.7466 98.729 2.75708M95.0528 2.73501L98.729 2.75708M98.729 2.75708C99.5608 2.76419 100.393 2.7713 101.226 2.7755L98.729 2.75708ZM82.5767 30.7646C82.2528 31.1451 81.9288 31.5257 81.6056 31.907M82.5767 30.7646L81.6056 31.907M81.6056 31.907L81.5503 31.8679L81.4871 31.8233C81.6283 31.5024 81.7683 31.1814 81.9083 30.8605C82.2965 29.9704 82.684 29.0819 83.0937 28.2026L81.6056 31.907ZM81.826 26.6821C80.8413 26.5798 79.8565 26.4775 78.8728 26.3624M81.826 26.6821L78.8728 26.3624M78.8728 26.3624C77.9803 26.2575 77.282 25.9454 76.798 25.4891M78.8728 26.3624C78.8728 26.3624 78.8728 26.3624 78.8728 26.3624L78.8611 26.4617L76.798 25.4891M76.798 25.4891C76.3149 25.0337 76.0395 24.4292 76.0001 23.7265L76.798 25.4891ZM101.18 27.7116C101.923 27.7558 102.667 27.8 103.412 27.829L81.2306 33.3384L81.4122 33.1441C82.8556 31.5989 84.2995 30.0533 85.7199 28.4885C86.0688 28.1053 86.4338 27.9128 86.9794 27.8405C89.1341 27.5565 91.2912 27.5711 93.4559 27.5859C94.5221 27.5931 95.5902 27.6004 96.6607 27.572C98.1651 27.5323 99.6701 27.6218 101.18 27.7116Z" fill="#251C1C" stroke="#251C1C" stroke-width="0.2"/>
<path d="M134.325 22.2767C133.472 23.1846 132.688 22.8304 131.973 21.214C132.105 20.7642 132.264 20.3233 132.451 19.8918C132.556 19.5472 132.64 19.2521 132.694 18.9624C132.854 18.4439 132.905 17.9194 132.648 17.326C132.622 17.3571 132.596 17.3868 132.572 17.4158C132.402 17.2583 132.136 17.2107 131.942 17.4158C131.265 18.1321 131.004 17.7137 130.949 17.0619C130.945 16.8855 130.949 16.7091 130.943 16.5327C130.95 16.3966 130.962 16.2606 130.979 16.1304C131.108 15.1244 131.331 14.1547 131.629 13.1967C131.738 12.9184 131.845 12.6394 131.95 12.3598C131.986 12.2611 132.008 12.1571 132.021 12.0508C132.039 12.0035 132.056 11.9562 132.074 11.9089C132.115 11.8019 132.098 11.6931 132.045 11.5992C132.048 11.4915 132.05 11.3842 132.06 11.2792C132.004 11.2654 131.948 11.2516 131.892 11.2378C131.87 11.2903 131.847 11.341 131.823 11.39C131.687 11.322 131.524 11.312 131.39 11.4042C131.001 11.736 130.543 11.9359 130.015 12.0046C129.836 12.0446 129.65 12.249 129.673 12.4354C129.802 13.4825 129.889 14.5279 129.944 15.5719C129.711 16.7039 129.644 17.8086 129.996 18.5571C129.966 20.4852 129.809 22.4092 129.52 24.3305C129.322 24.994 129.075 25.6496 128.768 26.2952C128.814 26.3135 128.863 26.3297 128.911 26.3449C128.918 26.6042 129.147 26.8762 129.493 26.8048C129.5 26.8034 129.506 26.802 129.513 26.8006C129.691 26.8641 129.895 26.8417 130.01 26.6929C132.321 26.1695 134.552 25.2954 135.01 22.7817C135.071 22.4444 134.687 22.0212 134.325 22.2767Z" fill="#39B100"/>
<path d="M142.857 17.114C142.433 17.0809 142.009 17.0477 141.585 17.0149C141.375 16.7546 140.802 16.6935 140.733 17.1216C140.611 17.8842 140.705 18.6161 140.651 19.3763C140.562 20.6499 139.653 21.3072 139.211 22.3964C138.79 23.4314 139.119 24.4702 139.611 25.4172C139.661 25.5522 139.717 25.6865 139.781 25.8205C139.833 25.9316 139.914 26.0304 140.013 26.1291C140.045 26.183 140.078 26.2368 140.111 26.29C140.19 26.4201 140.303 26.4833 140.421 26.4985C140.479 26.551 140.538 26.6062 140.597 26.6659C140.609 26.6007 140.619 26.5386 140.629 26.4781C140.698 26.4564 140.763 26.4212 140.818 26.3756C140.952 26.3328 141.068 26.2361 141.112 26.0828C141.922 23.2612 142.731 20.44 143.541 17.6184C143.641 17.2714 143.198 16.8741 142.857 17.114Z" fill="#39B100"/>
<mask id="path-19-outside-2" maskUnits="userSpaceOnUse" x="117.196" y="0.713623" width="28" height="34" fill="black">
<rect fill="white" x="117.196" y="0.713623" width="28" height="34"/>
<path d="M143.471 9.23792C143.238 8.42904 143.167 7.57838 142.957 6.76225C142.547 5.1714 141.934 3.65167 141.114 2.20859C140.912 1.85265 140.647 1.69383 140.236 1.71558C139.678 1.74527 139.118 1.75357 138.56 1.79154C136.769 1.91307 134.978 2.04324 133.187 2.17339C133.034 2.18478 132.874 2.19684 132.732 2.24793C131.418 2.7216 130.041 2.80894 128.661 2.86521C128.317 2.87936 127.97 2.83484 127.625 2.81447C127.232 2.79134 127.037 2.92875 127.121 3.33751C127.314 4.27517 127.497 5.21455 127.686 6.15289C127.707 6.26164 127.738 6.369 127.77 6.47534C127.988 7.19757 128.272 7.90771 128.414 8.6434C128.712 10.1814 128.955 11.7302 129.181 13.2799C129.298 14.084 129.326 14.8998 129.401 15.7097C129.508 16.8635 129.748 18.022 129.699 19.1689C129.633 20.6924 129.376 22.2118 129.131 23.7222C129.037 24.306 128.818 24.8936 128.539 25.4225C128.063 26.3236 127.471 27.1887 126.516 27.6765C125.512 28.1899 124.447 28.5966 123.402 29.0354C122.228 29.5284 121.032 29.9769 119.877 30.5071C119.543 30.6604 119.284 31.0053 119.049 31.3043C118.847 31.5608 118.801 31.9643 118.559 32.1497C118.014 32.5664 118.214 33.0674 118.324 33.5189C118.435 33.9757 118.922 33.8998 119.299 33.9091C120.707 33.9439 122.115 33.9698 123.523 33.9988C123.526 33.9736 123.528 33.9484 123.531 33.9232C124.603 33.8559 125.674 33.781 126.747 33.7226C128.763 33.6129 130.778 33.4986 132.796 33.4175C133.316 33.3964 133.449 33.1689 133.457 32.7259C133.466 32.1964 133.425 31.635 133.59 31.1444C133.98 29.9831 134.794 29.1172 135.931 28.5493C136.571 28.2303 137.399 28.3408 137.888 28.8604C138.716 29.7417 138.974 30.8689 139.211 31.9795C139.444 33.0726 139.447 33.1199 140.6 33.0964C140.658 33.0954 140.716 33.0929 140.774 33.0909C141.144 33.0781 141.341 32.9289 141.316 32.5395C141.25 31.5142 141.147 30.4868 141.16 29.4614C141.18 27.9403 140.936 26.3968 141.553 24.9133C141.836 24.2342 142.008 23.5134 142.252 22.8184C142.642 21.7068 143.164 20.6248 143.422 19.4865C143.731 18.1242 143.863 16.7195 143.989 15.3261C144.046 14.6954 143.87 14.0488 143.857 13.4083C143.829 12.0091 143.867 10.6123 143.471 9.23792ZM129.526 11.9553C128.952 9.32561 128.314 6.40285 127.691 3.55018C129.619 3.30196 131.459 3.06512 133.211 2.83969C132.382 4.25377 131.322 5.67372 130.69 7.25144C130.057 8.82985 129.853 10.5657 129.526 11.9553ZM130.222 18.0058C130.197 16.8127 129.959 15.6251 129.91 14.4313C129.881 13.7287 130.034 13.0193 130.108 12.2794C131.058 12.3751 131.585 11.9698 131.892 11.2379C131.947 11.2517 132.004 11.2655 132.059 11.2793C132.027 11.6411 132.073 12.0295 131.949 12.3602C131.441 13.7211 130.874 15.0624 130.343 16.416C130.104 17.0236 130.419 17.5518 130.744 18.0148C131.018 18.4077 131.779 18.3297 132.118 17.9506C132.277 17.7735 132.426 17.5884 132.648 17.3261C132.916 17.9444 132.849 18.4878 132.674 19.0274C132.418 19.8155 132.131 20.5947 131.879 21.3839C131.693 21.9667 131.687 22.5381 132.299 22.9109C132.845 23.243 133.397 23.1553 133.923 22.8277C133.986 22.788 134.059 22.7608 134.131 22.7383C134.163 22.7286 134.204 22.7449 134.241 22.7494C134.41 24.449 130.872 27.1231 128.767 26.2953C130.025 23.6556 130.281 20.8499 130.222 18.0058ZM132.72 32.8854C132.528 33.0166 132.26 33.0936 132.02 33.1023C130.286 33.1644 128.55 33.1924 126.816 33.2531C125.299 33.306 123.784 33.3874 122.268 33.4565C122.266 33.4689 122.265 33.4817 122.263 33.4941C121.299 33.4741 120.335 33.4592 119.372 33.4309C119.116 33.4233 118.783 33.4796 118.779 33.0815C118.776 32.6924 119.07 32.661 119.381 32.6527C120.557 32.621 121.734 32.6048 122.908 32.545C124.98 32.4401 127.052 32.3137 129.122 32.1839C130.002 32.1287 130.879 32.0313 131.758 31.9744C132.042 31.9561 132.341 31.9699 132.614 32.0382C132.751 32.0731 132.932 32.2588 132.939 32.3841C132.948 32.5526 132.856 32.7929 132.72 32.8854ZM140.728 32.6576C140.482 32.5993 140.236 32.5409 139.989 32.4829C140.021 32.3897 140.063 32.2143 140.084 32.2164C140.327 32.2437 140.566 32.2971 140.807 32.3438C140.781 32.4484 140.755 32.553 140.728 32.6576ZM142.427 20.8989C142.201 21.6556 141.901 22.3924 141.633 23.1378C141.364 23.8852 141.077 24.6268 140.834 25.3818C140.722 25.7277 140.698 26.0995 140.597 26.6664C140.253 26.3201 139.919 26.113 139.78 25.8206C139.26 24.7227 139.193 23.5831 139.604 22.4262C139.683 22.2039 139.694 21.9591 139.735 21.7295C140.678 21.7095 141.338 21.2044 141.506 20.3696C141.532 20.2388 141.465 20.0862 141.423 19.9488C141.141 19.0343 140.977 18.1187 141.304 17.2553C141.935 17.3782 142.517 17.4911 143.309 17.6454C143.023 18.7122 142.752 19.8131 142.427 20.8989ZM143.462 15.6962C143.453 16.0383 143.308 16.4561 143.067 16.6905C142.861 16.8904 142.419 16.9622 142.103 16.9232C141.941 16.9031 141.809 16.5258 141.699 16.2942C141.63 16.1464 141.627 15.9697 141.595 15.806C141.52 15.7974 141.445 15.7887 141.37 15.7805C141.219 16.1057 141.033 16.4209 140.922 16.7588C140.633 17.6388 140.582 18.534 140.784 19.4455C140.855 19.7665 140.889 20.1104 140.853 20.4345C140.789 21.0042 140.358 21.2024 139.822 20.9407C139.584 20.825 139.365 20.7297 139.316 21.0926C139.167 22.2042 138.914 23.319 138.929 24.43C138.942 25.3535 139.25 26.2835 140.175 26.8511C140.482 27.0396 140.621 27.2944 140.634 27.6769C140.674 28.8369 140.788 29.9941 140.837 31.1537C140.845 31.3353 140.627 31.6923 140.579 31.6823C140.244 31.6126 139.788 31.8625 139.601 31.3402C139.336 30.5972 139.059 29.8539 138.718 29.1403C138.11 27.8661 136.562 27.5871 135.353 28.2562C134.238 28.8735 133.565 29.7842 133.1 30.8765C132.907 31.3315 132.619 31.4903 132.096 31.5166C130.098 31.6174 128.105 31.8024 126.106 31.9119C124.011 32.0268 121.914 32.1 119.816 32.1725C119.265 32.1919 119.192 32.06 119.519 31.6129C119.719 31.3398 119.977 31.0492 120.281 30.9128C121.424 30.3998 122.605 29.9661 123.754 29.4659C124.918 28.9594 126.066 28.4205 127.208 27.8688C127.454 27.7497 127.69 27.5467 127.842 27.3261C128.174 26.8438 128.63 26.8407 129.151 26.8715C131.656 27.0189 133.349 25.7757 134.553 23.8272C134.852 23.3428 134.916 22.711 135.018 22.1355C135.056 21.9208 134.894 21.6739 134.823 21.4416C134.757 21.4164 134.691 21.3912 134.626 21.366C134.327 21.6798 134.035 21.9998 133.728 22.3057C133.374 22.6582 132.904 22.7173 132.509 22.4891C132.118 22.2633 132.241 21.8369 132.373 21.4772C132.633 20.7687 132.918 20.0679 133.16 19.354C133.503 18.3466 133.272 17.3865 132.816 16.4633C132.771 16.3708 132.58 16.2689 132.489 16.2917C132.368 16.3218 132.238 16.4537 132.186 16.5717C132.068 16.842 132.048 17.1628 131.888 17.4013C131.772 17.5729 131.506 17.6937 131.286 17.7376C131.197 17.7555 131.032 17.5208 130.933 17.381C130.668 17.0088 130.736 16.6522 130.915 16.2403C131.454 15.0058 131.976 13.7615 132.424 12.4952C132.727 11.6373 132.454 10.7759 132.17 9.94494C132.137 9.84724 131.991 9.78476 131.897 9.70604C131.806 9.80996 131.67 9.90111 131.633 10.0206C131.511 10.4179 131.445 10.8315 131.312 11.2258C131.265 11.367 131.113 11.5054 130.972 11.5807C130.805 11.6694 130.575 11.7592 130.416 11.7122C130.31 11.6815 130.244 11.4146 130.228 11.2472C130.211 11.0683 130.255 10.8781 130.302 10.7C130.646 9.3836 130.951 8.05515 131.37 6.76086C131.54 6.23473 131.957 5.78004 132.272 5.29982C132.679 4.68081 133.013 3.98791 133.538 3.47938C133.935 3.09479 134.56 2.86798 135.126 2.71366C136.595 2.31181 138.105 2.23482 139.638 2.24207C140.377 2.24586 140.788 2.51238 141.014 3.06372C141.551 4.38079 142.093 5.70339 142.503 7.05947C143.144 9.17438 143.344 11.3556 143.337 13.5575C143.335 14.2704 143.479 14.9847 143.462 15.6962Z"/>
</mask>
<path d="M143.471 9.23792C143.238 8.42904 143.167 7.57838 142.957 6.76225C142.547 5.1714 141.934 3.65167 141.114 2.20859C140.912 1.85265 140.647 1.69383 140.236 1.71558C139.678 1.74527 139.118 1.75357 138.56 1.79154C136.769 1.91307 134.978 2.04324 133.187 2.17339C133.034 2.18478 132.874 2.19684 132.732 2.24793C131.418 2.7216 130.041 2.80894 128.661 2.86521C128.317 2.87936 127.97 2.83484 127.625 2.81447C127.232 2.79134 127.037 2.92875 127.121 3.33751C127.314 4.27517 127.497 5.21455 127.686 6.15289C127.707 6.26164 127.738 6.369 127.77 6.47534C127.988 7.19757 128.272 7.90771 128.414 8.6434C128.712 10.1814 128.955 11.7302 129.181 13.2799C129.298 14.084 129.326 14.8998 129.401 15.7097C129.508 16.8635 129.748 18.022 129.699 19.1689C129.633 20.6924 129.376 22.2118 129.131 23.7222C129.037 24.306 128.818 24.8936 128.539 25.4225C128.063 26.3236 127.471 27.1887 126.516 27.6765C125.512 28.1899 124.447 28.5966 123.402 29.0354C122.228 29.5284 121.032 29.9769 119.877 30.5071C119.543 30.6604 119.284 31.0053 119.049 31.3043C118.847 31.5608 118.801 31.9643 118.559 32.1497C118.014 32.5664 118.214 33.0674 118.324 33.5189C118.435 33.9757 118.922 33.8998 119.299 33.9091C120.707 33.9439 122.115 33.9698 123.523 33.9988C123.526 33.9736 123.528 33.9484 123.531 33.9232C124.603 33.8559 125.674 33.781 126.747 33.7226C128.763 33.6129 130.778 33.4986 132.796 33.4175C133.316 33.3964 133.449 33.1689 133.457 32.7259C133.466 32.1964 133.425 31.635 133.59 31.1444C133.98 29.9831 134.794 29.1172 135.931 28.5493C136.571 28.2303 137.399 28.3408 137.888 28.8604C138.716 29.7417 138.974 30.8689 139.211 31.9795C139.444 33.0726 139.447 33.1199 140.6 33.0964C140.658 33.0954 140.716 33.0929 140.774 33.0909C141.144 33.0781 141.341 32.9289 141.316 32.5395C141.25 31.5142 141.147 30.4868 141.16 29.4614C141.18 27.9403 140.936 26.3968 141.553 24.9133C141.836 24.2342 142.008 23.5134 142.252 22.8184C142.642 21.7068 143.164 20.6248 143.422 19.4865C143.731 18.1242 143.863 16.7195 143.989 15.3261C144.046 14.6954 143.87 14.0488 143.857 13.4083C143.829 12.0091 143.867 10.6123 143.471 9.23792ZM129.526 11.9553C128.952 9.32561 128.314 6.40285 127.691 3.55018C129.619 3.30196 131.459 3.06512 133.211 2.83969C132.382 4.25377 131.322 5.67372 130.69 7.25144C130.057 8.82985 129.853 10.5657 129.526 11.9553ZM130.222 18.0058C130.197 16.8127 129.959 15.6251 129.91 14.4313C129.881 13.7287 130.034 13.0193 130.108 12.2794C131.058 12.3751 131.585 11.9698 131.892 11.2379C131.947 11.2517 132.004 11.2655 132.059 11.2793C132.027 11.6411 132.073 12.0295 131.949 12.3602C131.441 13.7211 130.874 15.0624 130.343 16.416C130.104 17.0236 130.419 17.5518 130.744 18.0148C131.018 18.4077 131.779 18.3297 132.118 17.9506C132.277 17.7735 132.426 17.5884 132.648 17.3261C132.916 17.9444 132.849 18.4878 132.674 19.0274C132.418 19.8155 132.131 20.5947 131.879 21.3839C131.693 21.9667 131.687 22.5381 132.299 22.9109C132.845 23.243 133.397 23.1553 133.923 22.8277C133.986 22.788 134.059 22.7608 134.131 22.7383C134.163 22.7286 134.204 22.7449 134.241 22.7494C134.41 24.449 130.872 27.1231 128.767 26.2953C130.025 23.6556 130.281 20.8499 130.222 18.0058ZM132.72 32.8854C132.528 33.0166 132.26 33.0936 132.02 33.1023C130.286 33.1644 128.55 33.1924 126.816 33.2531C125.299 33.306 123.784 33.3874 122.268 33.4565C122.266 33.4689 122.265 33.4817 122.263 33.4941C121.299 33.4741 120.335 33.4592 119.372 33.4309C119.116 33.4233 118.783 33.4796 118.779 33.0815C118.776 32.6924 119.07 32.661 119.381 32.6527C120.557 32.621 121.734 32.6048 122.908 32.545C124.98 32.4401 127.052 32.3137 129.122 32.1839C130.002 32.1287 130.879 32.0313 131.758 31.9744C132.042 31.9561 132.341 31.9699 132.614 32.0382C132.751 32.0731 132.932 32.2588 132.939 32.3841C132.948 32.5526 132.856 32.7929 132.72 32.8854ZM140.728 32.6576C140.482 32.5993 140.236 32.5409 139.989 32.4829C140.021 32.3897 140.063 32.2143 140.084 32.2164C140.327 32.2437 140.566 32.2971 140.807 32.3438C140.781 32.4484 140.755 32.553 140.728 32.6576ZM142.427 20.8989C142.201 21.6556 141.901 22.3924 141.633 23.1378C141.364 23.8852 141.077 24.6268 140.834 25.3818C140.722 25.7277 140.698 26.0995 140.597 26.6664C140.253 26.3201 139.919 26.113 139.78 25.8206C139.26 24.7227 139.193 23.5831 139.604 22.4262C139.683 22.2039 139.694 21.9591 139.735 21.7295C140.678 21.7095 141.338 21.2044 141.506 20.3696C141.532 20.2388 141.465 20.0862 141.423 19.9488C141.141 19.0343 140.977 18.1187 141.304 17.2553C141.935 17.3782 142.517 17.4911 143.309 17.6454C143.023 18.7122 142.752 19.8131 142.427 20.8989ZM143.462 15.6962C143.453 16.0383 143.308 16.4561 143.067 16.6905C142.861 16.8904 142.419 16.9622 142.103 16.9232C141.941 16.9031 141.809 16.5258 141.699 16.2942C141.63 16.1464 141.627 15.9697 141.595 15.806C141.52 15.7974 141.445 15.7887 141.37 15.7805C141.219 16.1057 141.033 16.4209 140.922 16.7588C140.633 17.6388 140.582 18.534 140.784 19.4455C140.855 19.7665 140.889 20.1104 140.853 20.4345C140.789 21.0042 140.358 21.2024 139.822 20.9407C139.584 20.825 139.365 20.7297 139.316 21.0926C139.167 22.2042 138.914 23.319 138.929 24.43C138.942 25.3535 139.25 26.2835 140.175 26.8511C140.482 27.0396 140.621 27.2944 140.634 27.6769C140.674 28.8369 140.788 29.9941 140.837 31.1537C140.845 31.3353 140.627 31.6923 140.579 31.6823C140.244 31.6126 139.788 31.8625 139.601 31.3402C139.336 30.5972 139.059 29.8539 138.718 29.1403C138.11 27.8661 136.562 27.5871 135.353 28.2562C134.238 28.8735 133.565 29.7842 133.1 30.8765C132.907 31.3315 132.619 31.4903 132.096 31.5166C130.098 31.6174 128.105 31.8024 126.106 31.9119C124.011 32.0268 121.914 32.1 119.816 32.1725C119.265 32.1919 119.192 32.06 119.519 31.6129C119.719 31.3398 119.977 31.0492 120.281 30.9128C121.424 30.3998 122.605 29.9661 123.754 29.4659C124.918 28.9594 126.066 28.4205 127.208 27.8688C127.454 27.7497 127.69 27.5467 127.842 27.3261C128.174 26.8438 128.63 26.8407 129.151 26.8715C131.656 27.0189 133.349 25.7757 134.553 23.8272C134.852 23.3428 134.916 22.711 135.018 22.1355C135.056 21.9208 134.894 21.6739 134.823 21.4416C134.757 21.4164 134.691 21.3912 134.626 21.366C134.327 21.6798 134.035 21.9998 133.728 22.3057C133.374 22.6582 132.904 22.7173 132.509 22.4891C132.118 22.2633 132.241 21.8369 132.373 21.4772C132.633 20.7687 132.918 20.0679 133.16 19.354C133.503 18.3466 133.272 17.3865 132.816 16.4633C132.771 16.3708 132.58 16.2689 132.489 16.2917C132.368 16.3218 132.238 16.4537 132.186 16.5717C132.068 16.842 132.048 17.1628 131.888 17.4013C131.772 17.5729 131.506 17.6937 131.286 17.7376C131.197 17.7555 131.032 17.5208 130.933 17.381C130.668 17.0088 130.736 16.6522 130.915 16.2403C131.454 15.0058 131.976 13.7615 132.424 12.4952C132.727 11.6373 132.454 10.7759 132.17 9.94494C132.137 9.84724 131.991 9.78476 131.897 9.70604C131.806 9.80996 131.67 9.90111 131.633 10.0206C131.511 10.4179 131.445 10.8315 131.312 11.2258C131.265 11.367 131.113 11.5054 130.972 11.5807C130.805 11.6694 130.575 11.7592 130.416 11.7122C130.31 11.6815 130.244 11.4146 130.228 11.2472C130.211 11.0683 130.255 10.8781 130.302 10.7C130.646 9.3836 130.951 8.05515 131.37 6.76086C131.54 6.23473 131.957 5.78004 132.272 5.29982C132.679 4.68081 133.013 3.98791 133.538 3.47938C133.935 3.09479 134.56 2.86798 135.126 2.71366C136.595 2.31181 138.105 2.23482 139.638 2.24207C140.377 2.24586 140.788 2.51238 141.014 3.06372C141.551 4.38079 142.093 5.70339 142.503 7.05947C143.144 9.17438 143.344 11.3556 143.337 13.5575C143.335 14.2704 143.479 14.9847 143.462 15.6962Z" fill="#251C1C"/>
<path d="M143.471 9.23792C143.238 8.42904 143.167 7.57838 142.957 6.76225C142.547 5.1714 141.934 3.65167 141.114 2.20859C140.912 1.85265 140.647 1.69383 140.236 1.71558C139.678 1.74527 139.118 1.75357 138.56 1.79154C136.769 1.91307 134.978 2.04324 133.187 2.17339C133.034 2.18478 132.874 2.19684 132.732 2.24793C131.418 2.7216 130.041 2.80894 128.661 2.86521C128.317 2.87936 127.97 2.83484 127.625 2.81447C127.232 2.79134 127.037 2.92875 127.121 3.33751C127.314 4.27517 127.497 5.21455 127.686 6.15289C127.707 6.26164 127.738 6.369 127.77 6.47534C127.988 7.19757 128.272 7.90771 128.414 8.6434C128.712 10.1814 128.955 11.7302 129.181 13.2799C129.298 14.084 129.326 14.8998 129.401 15.7097C129.508 16.8635 129.748 18.022 129.699 19.1689C129.633 20.6924 129.376 22.2118 129.131 23.7222C129.037 24.306 128.818 24.8936 128.539 25.4225C128.063 26.3236 127.471 27.1887 126.516 27.6765C125.512 28.1899 124.447 28.5966 123.402 29.0354C122.228 29.5284 121.032 29.9769 119.877 30.5071C119.543 30.6604 119.284 31.0053 119.049 31.3043C118.847 31.5608 118.801 31.9643 118.559 32.1497C118.014 32.5664 118.214 33.0674 118.324 33.5189C118.435 33.9757 118.922 33.8998 119.299 33.9091C120.707 33.9439 122.115 33.9698 123.523 33.9988C123.526 33.9736 123.528 33.9484 123.531 33.9232C124.603 33.8559 125.674 33.781 126.747 33.7226C128.763 33.6129 130.778 33.4986 132.796 33.4175C133.316 33.3964 133.449 33.1689 133.457 32.7259C133.466 32.1964 133.425 31.635 133.59 31.1444C133.98 29.9831 134.794 29.1172 135.931 28.5493C136.571 28.2303 137.399 28.3408 137.888 28.8604C138.716 29.7417 138.974 30.8689 139.211 31.9795C139.444 33.0726 139.447 33.1199 140.6 33.0964C140.658 33.0954 140.716 33.0929 140.774 33.0909C141.144 33.0781 141.341 32.9289 141.316 32.5395C141.25 31.5142 141.147 30.4868 141.16 29.4614C141.18 27.9403 140.936 26.3968 141.553 24.9133C141.836 24.2342 142.008 23.5134 142.252 22.8184C142.642 21.7068 143.164 20.6248 143.422 19.4865C143.731 18.1242 143.863 16.7195 143.989 15.3261C144.046 14.6954 143.87 14.0488 143.857 13.4083C143.829 12.0091 143.867 10.6123 143.471 9.23792ZM129.526 11.9553C128.952 9.32561 128.314 6.40285 127.691 3.55018C129.619 3.30196 131.459 3.06512 133.211 2.83969C132.382 4.25377 131.322 5.67372 130.69 7.25144C130.057 8.82985 129.853 10.5657 129.526 11.9553ZM130.222 18.0058C130.197 16.8127 129.959 15.6251 129.91 14.4313C129.881 13.7287 130.034 13.0193 130.108 12.2794C131.058 12.3751 131.585 11.9698 131.892 11.2379C131.947 11.2517 132.004 11.2655 132.059 11.2793C132.027 11.6411 132.073 12.0295 131.949 12.3602C131.441 13.7211 130.874 15.0624 130.343 16.416C130.104 17.0236 130.419 17.5518 130.744 18.0148C131.018 18.4077 131.779 18.3297 132.118 17.9506C132.277 17.7735 132.426 17.5884 132.648 17.3261C132.916 17.9444 132.849 18.4878 132.674 19.0274C132.418 19.8155 132.131 20.5947 131.879 21.3839C131.693 21.9667 131.687 22.5381 132.299 22.9109C132.845 23.243 133.397 23.1553 133.923 22.8277C133.986 22.788 134.059 22.7608 134.131 22.7383C134.163 22.7286 134.204 22.7449 134.241 22.7494C134.41 24.449 130.872 27.1231 128.767 26.2953C130.025 23.6556 130.281 20.8499 130.222 18.0058ZM132.72 32.8854C132.528 33.0166 132.26 33.0936 132.02 33.1023C130.286 33.1644 128.55 33.1924 126.816 33.2531C125.299 33.306 123.784 33.3874 122.268 33.4565C122.266 33.4689 122.265 33.4817 122.263 33.4941C121.299 33.4741 120.335 33.4592 119.372 33.4309C119.116 33.4233 118.783 33.4796 118.779 33.0815C118.776 32.6924 119.07 32.661 119.381 32.6527C120.557 32.621 121.734 32.6048 122.908 32.545C124.98 32.4401 127.052 32.3137 129.122 32.1839C130.002 32.1287 130.879 32.0313 131.758 31.9744C132.042 31.9561 132.341 31.9699 132.614 32.0382C132.751 32.0731 132.932 32.2588 132.939 32.3841C132.948 32.5526 132.856 32.7929 132.72 32.8854ZM140.728 32.6576C140.482 32.5993 140.236 32.5409 139.989 32.4829C140.021 32.3897 140.063 32.2143 140.084 32.2164C140.327 32.2437 140.566 32.2971 140.807 32.3438C140.781 32.4484 140.755 32.553 140.728 32.6576ZM142.427 20.8989C142.201 21.6556 141.901 22.3924 141.633 23.1378C141.364 23.8852 141.077 24.6268 140.834 25.3818C140.722 25.7277 140.698 26.0995 140.597 26.6664C140.253 26.3201 139.919 26.113 139.78 25.8206C139.26 24.7227 139.193 23.5831 139.604 22.4262C139.683 22.2039 139.694 21.9591 139.735 21.7295C140.678 21.7095 141.338 21.2044 141.506 20.3696C141.532 20.2388 141.465 20.0862 141.423 19.9488C141.141 19.0343 140.977 18.1187 141.304 17.2553C141.935 17.3782 142.517 17.4911 143.309 17.6454C143.023 18.7122 142.752 19.8131 142.427 20.8989ZM143.462 15.6962C143.453 16.0383 143.308 16.4561 143.067 16.6905C142.861 16.8904 142.419 16.9622 142.103 16.9232C141.941 16.9031 141.809 16.5258 141.699 16.2942C141.63 16.1464 141.627 15.9697 141.595 15.806C141.52 15.7974 141.445 15.7887 141.37 15.7805C141.219 16.1057 141.033 16.4209 140.922 16.7588C140.633 17.6388 140.582 18.534 140.784 19.4455C140.855 19.7665 140.889 20.1104 140.853 20.4345C140.789 21.0042 140.358 21.2024 139.822 20.9407C139.584 20.825 139.365 20.7297 139.316 21.0926C139.167 22.2042 138.914 23.319 138.929 24.43C138.942 25.3535 139.25 26.2835 140.175 26.8511C140.482 27.0396 140.621 27.2944 140.634 27.6769C140.674 28.8369 140.788 29.9941 140.837 31.1537C140.845 31.3353 140.627 31.6923 140.579 31.6823C140.244 31.6126 139.788 31.8625 139.601 31.3402C139.336 30.5972 139.059 29.8539 138.718 29.1403C138.11 27.8661 136.562 27.5871 135.353 28.2562C134.238 28.8735 133.565 29.7842 133.1 30.8765C132.907 31.3315 132.619 31.4903 132.096 31.5166C130.098 31.6174 128.105 31.8024 126.106 31.9119C124.011 32.0268 121.914 32.1 119.816 32.1725C119.265 32.1919 119.192 32.06 119.519 31.6129C119.719 31.3398 119.977 31.0492 120.281 30.9128C121.424 30.3998 122.605 29.9661 123.754 29.4659C124.918 28.9594 126.066 28.4205 127.208 27.8688C127.454 27.7497 127.69 27.5467 127.842 27.3261C128.174 26.8438 128.63 26.8407 129.151 26.8715C131.656 27.0189 133.349 25.7757 134.553 23.8272C134.852 23.3428 134.916 22.711 135.018 22.1355C135.056 21.9208 134.894 21.6739 134.823 21.4416C134.757 21.4164 134.691 21.3912 134.626 21.366C134.327 21.6798 134.035 21.9998 133.728 22.3057C133.374 22.6582 132.904 22.7173 132.509 22.4891C132.118 22.2633 132.241 21.8369 132.373 21.4772C132.633 20.7687 132.918 20.0679 133.16 19.354C133.503 18.3466 133.272 17.3865 132.816 16.4633C132.771 16.3708 132.58 16.2689 132.489 16.2917C132.368 16.3218 132.238 16.4537 132.186 16.5717C132.068 16.842 132.048 17.1628 131.888 17.4013C131.772 17.5729 131.506 17.6937 131.286 17.7376C131.197 17.7555 131.032 17.5208 130.933 17.381C130.668 17.0088 130.736 16.6522 130.915 16.2403C131.454 15.0058 131.976 13.7615 132.424 12.4952C132.727 11.6373 132.454 10.7759 132.17 9.94494C132.137 9.84724 131.991 9.78476 131.897 9.70604C131.806 9.80996 131.67 9.90111 131.633 10.0206C131.511 10.4179 131.445 10.8315 131.312 11.2258C131.265 11.367 131.113 11.5054 130.972 11.5807C130.805 11.6694 130.575 11.7592 130.416 11.7122C130.31 11.6815 130.244 11.4146 130.228 11.2472C130.211 11.0683 130.255 10.8781 130.302 10.7C130.646 9.3836 130.951 8.05515 131.37 6.76086C131.54 6.23473 131.957 5.78004 132.272 5.29982C132.679 4.68081 133.013 3.98791 133.538 3.47938C133.935 3.09479 134.56 2.86798 135.126 2.71366C136.595 2.31181 138.105 2.23482 139.638 2.24207C140.377 2.24586 140.788 2.51238 141.014 3.06372C141.551 4.38079 142.093 5.70339 142.503 7.05947C143.144 9.17438 143.344 11.3556 143.337 13.5575C143.335 14.2704 143.479 14.9847 143.462 15.6962Z" stroke="#251C1C" stroke-width="0.4" mask="url(#path-19-outside-2)"/>
<path d="M139.286 10.4526C139.583 10.4677 139.84 10.3342 140.021 10.1028C140.201 9.8732 140.306 9.54908 140.316 9.1745L140.316 9.17449C140.331 8.55484 139.87 8.08902 139.236 8.06948L139.236 8.06948C138.993 8.06208 138.758 8.1976 138.585 8.38858C138.41 8.58085 138.286 8.84259 138.272 9.11376L138.272 9.1138C138.257 9.42167 138.382 9.74669 138.568 9.99627C138.751 10.2434 139.012 10.4388 139.286 10.4526ZM139.286 10.4526L139.291 10.3527M139.286 10.4526C139.286 10.4526 139.286 10.4526 139.286 10.4526L139.291 10.3527M139.291 10.3527C138.829 10.3296 138.344 9.67741 138.372 9.11882C138.397 8.62894 138.825 8.157 139.233 8.16943C139.815 8.18738 140.23 8.61064 140.216 9.17199C140.198 9.8887 139.813 10.3793 139.291 10.3527ZM139.262 9.7121C139.247 9.6886 139.231 9.66513 139.215 9.64165C139.131 9.51676 139.047 9.39181 139.041 9.26346C139.035 9.1516 139.254 8.97555 139.405 8.93171L139.262 9.7121ZM139.262 9.7121C139.281 9.74146 139.299 9.77086 139.316 9.80033C139.34 9.77545 139.364 9.75058 139.388 9.72539C139.371 9.69569 139.352 9.66653 139.333 9.63829C139.309 9.66317 139.286 9.68766 139.262 9.7121ZM139.157 9.22637C139.142 9.24883 139.141 9.25936 139.141 9.25934C139.141 9.25934 139.141 9.25914 139.141 9.25873C139.141 9.2587 139.141 9.25867 139.141 9.25864L139.157 9.22637ZM139.157 9.22637C139.173 9.20284 139.198 9.17543 139.23 9.14751M139.157 9.22637L139.23 9.14751M139.23 9.14751C139.291 9.0945 139.365 9.05085 139.421 9.03157L139.23 9.14751ZM139.695 9.26283C139.72 9.28431 139.746 9.30582 139.773 9.32657C139.795 9.30327 139.818 9.27917 139.842 9.25415C139.816 9.23339 139.79 9.21205 139.765 9.19072C139.741 9.21563 139.718 9.23964 139.695 9.26283Z" fill="#251C1C" stroke="#251C1C" stroke-width="0.2"/>
<path d="M138.168 13.1945L138.168 13.1945C138.19 12.9065 138.297 12.6753 138.49 12.5223C138.681 12.3706 138.942 12.3074 139.253 12.3243L138.168 13.1945ZM138.168 13.1945C138.121 13.7894 138.582 14.3602 139.159 14.4002L139.159 14.4003M138.168 13.1945L139.159 14.4003M139.159 14.4003C139.477 14.4221 139.737 14.3552 139.921 14.175C140.103 13.9969 140.193 13.7255 140.213 13.379L140.213 13.3789M139.159 14.4003L140.213 13.3789M140.213 13.3789C140.233 13.0299 140.196 12.7647 140.034 12.5863M140.213 13.3789L140.034 12.5863M140.034 12.5863C139.872 12.4086 139.608 12.3434 139.253 12.3243L140.034 12.5863ZM139.045 13.3112L139.045 13.311C139.045 13.3109 139.045 13.302 139.059 13.281C139.073 13.2603 139.095 13.2364 139.125 13.208C139.148 13.1864 139.172 13.1652 139.198 13.1424C139.206 13.1351 139.215 13.1278 139.223 13.1202C139.233 13.1119 139.242 13.1034 139.252 13.0947L139.538 13.3722C139.41 13.4759 139.316 13.5518 139.23 13.6209C139.223 13.6111 139.215 13.6014 139.208 13.5919C139.202 13.5838 139.195 13.5759 139.189 13.5681C139.166 13.5384 139.145 13.5106 139.125 13.4825C139.072 13.4089 139.046 13.3551 139.045 13.3112Z" fill="#251C1C" stroke="#251C1C" stroke-width="0.2"/>
<path d="M139.029 7.18287L139.03 7.18287L140.035 5.98124L140.135 5.97723C140.135 5.97721 140.135 5.97719 140.135 5.97717C140.131 5.86461 140.076 5.74759 140.003 5.64141C139.928 5.53306 139.828 5.42554 139.716 5.33024C139.605 5.23484 139.48 5.14952 139.355 5.08693C139.232 5.02499 139.102 4.98194 138.983 4.97881L138.983 4.97881C138.729 4.97243 138.493 5.11954 138.324 5.32746C138.154 5.53678 138.042 5.82017 138.04 6.11425L138.04 6.11426C138.036 6.7098 138.454 7.17093 139.029 7.18287ZM138.84 5.941L139.126 5.91518C139.124 6.00294 139.122 6.09009 139.12 6.17719C139.118 6.27403 139.116 6.37082 139.114 6.46834L139.021 6.4757L138.929 6.48295L138.84 5.941Z" fill="#251C1C" stroke="#251C1C" stroke-width="0.2"/>
<path d="M137.069 32.0941C137.325 31.6811 137.508 31.2385 137.502 30.7079L135.057 29.8583C134.951 29.9135 134.871 30.0264 134.818 30.1379C134.764 30.2522 134.729 30.3836 134.723 30.4973L134.823 30.5018L134.723 30.4972C134.697 31.0676 134.869 31.5501 135.124 31.9999C135.303 32.3143 135.526 32.6189 135.751 32.9263C135.844 33.0538 135.938 33.1819 136.029 33.3112L136.111 33.4276L136.193 33.3111C136.308 33.1467 136.428 32.9887 136.546 32.8317C136.579 32.7878 136.613 32.7438 136.646 32.6999C136.796 32.5 136.942 32.3001 137.069 32.0941ZM136.189 30.3806C136.159 30.3541 136.131 30.3276 136.103 30.3007C136.073 30.2727 136.043 30.2443 136.01 30.215C135.93 30.143 135.844 30.0722 135.745 30.0193L135.745 30.0192C135.652 29.9702 135.531 29.9097 135.413 29.8704C135.355 29.8507 135.294 29.8351 135.235 29.8299C135.178 29.8248 135.114 29.8288 135.057 29.8582L136.189 30.3806ZM136.806 30.9459C136.599 31.3449 136.392 31.7479 136.162 32.1929C136.149 32.2188 136.135 32.2448 136.122 32.2709C135.885 32.0151 135.705 31.7731 135.599 31.517C135.503 31.282 135.468 31.0311 135.518 30.7407C135.606 30.8472 135.691 30.9508 135.769 31.0615L135.769 31.0615C135.841 31.1634 135.902 31.2689 135.966 31.3787C135.996 31.4302 136.027 31.4827 136.059 31.5362L136.123 31.6417L136.213 31.5573C136.251 31.5222 136.29 31.4866 136.329 31.4504C136.419 31.3689 136.512 31.2845 136.596 31.1962L136.596 31.1962C136.668 31.1206 136.735 31.0359 136.798 30.9559C136.8 30.9526 136.803 30.9492 136.806 30.9459Z" fill="#251C1C" stroke="#251C1C" stroke-width="0.2"/>
</svg>
