<svg width="381" height="294" viewBox="0 0 381 294" fill="none" xmlns="http://www.w3.org/2000/svg">
<path d="M74.1678 137.779H51.1133C47.2696 137.779 47.2642 143.753 51.1133 143.753H74.1678C78.0097 143.753 78.0168 137.779 74.1678 137.779Z" fill="#EF4036"/>
<path d="M77.2014 146.273H66.8896C63.046 146.273 63.0406 152.247 66.8896 152.247H77.2033C81.0452 152.247 81.0522 146.273 77.2014 146.273Z" fill="#EF4036"/>
<path d="M378.131 39.4421C374.346 39.7146 370.535 39.6699 366.772 39.1446C365.162 38.9205 363.584 39.5372 363.099 41.2295C362.699 42.6225 363.59 44.6806 365.184 44.9029C369.499 45.5053 373.78 45.7293 378.131 45.4138C381.942 45.1395 381.971 39.1643 378.131 39.4421Z" fill="#EF4036"/>
<path d="M39.5825 268.816C28.8709 269.521 18.1575 270.225 7.44589 270.928C3.62915 271.179 3.60226 277.154 7.44589 276.901C18.1575 276.197 28.8709 275.492 39.5825 274.79C43.3993 274.537 43.4279 268.563 39.5825 268.816Z" fill="#EF4036"/>
<path d="M38.3633 279.612C26.8377 280.259 15.3122 280.905 3.78666 281.552C-0.0354664 281.767 -0.0605646 287.74 3.78666 287.525C15.3122 286.878 26.8377 286.233 38.3633 285.585C42.1872 285.37 42.2087 279.395 38.3633 279.612Z" fill="#EF4036"/>
<path d="M368.289 132.075C365.508 130.228 362.242 129.271 359.255 130.316C354.137 132.105 353.913 137.724 351.157 141.575C349.544 143.83 351.778 146.008 353.983 145.893C354.028 145.92 354.072 145.944 354.117 145.958C355.415 146.392 356.67 145.952 356.901 144.248C356.934 144.006 356.964 143.762 356.995 143.518C357.755 142.179 358.285 140.73 358.879 139.3C359.384 138.084 360.015 136.164 361.494 135.867C363.527 135.46 365.817 137.706 367.091 138.997C368.753 140.68 369.723 142.555 369.053 144.934C367.765 149.499 363.355 152.428 360.325 155.786C357.283 159.158 354.686 163.322 355.265 168.048C355.462 169.661 356.496 171.017 358.251 171.035C359.714 171.049 361.433 169.649 361.238 168.048C361.209 167.819 361.195 167.593 361.188 167.369C361.419 166.953 361.584 166.375 361.719 165.604C362.104 163.408 362.864 161.492 364.82 160.26C369.183 157.516 372.577 153.767 375.121 149.391C376.951 146.241 378.3 142.962 376.114 138.993C374.226 135.567 371.388 133.647 368.289 132.075Z" fill="#EF4036"/>
<path d="M287.987 36.8588C286.732 29.9442 278.946 30.9535 273.6 30.966C267.23 30.9822 260.861 31.3102 254.523 31.9484C250.956 32.3088 247.381 32.739 243.839 33.3091C241.234 33.7286 238.52 34.4511 236.6 36.3855C236.117 36.8713 235.739 37.3984 235.431 37.9524C234.375 38.3199 233.502 39.2144 233.423 40.6361C231.809 70.2665 230.683 99.922 230.058 129.59C229.88 137.966 229.746 146.341 229.647 154.717C229.626 156.483 231.046 157.498 232.634 157.704C249.091 159.828 265.721 160.142 282.246 158.636C283.931 158.482 285.129 157.388 285.233 155.649C286.819 129.115 287.793 102.547 288.13 75.9674C288.216 69.1819 288.261 62.3946 288.266 55.6073C288.268 52.4969 288.261 49.3864 288.247 46.276C288.234 43.2086 288.537 39.8939 287.987 36.8588ZM244.118 39.9656C244.116 39.9764 244.115 39.9871 244.111 39.9961C244.066 39.9728 244.021 39.9495 243.977 39.928C243.991 39.6842 243.98 39.4529 243.948 39.2306C244.109 39.2001 244.271 39.175 244.43 39.1499C244.292 39.3883 244.184 39.6591 244.118 39.9656ZM252.426 153.403C252.463 153.238 252.483 153.066 252.487 152.888C252.845 152.98 253.22 153.023 253.595 152.998C254.367 153.267 255.26 153.229 256.017 152.881C256.239 153.141 256.502 153.364 256.787 153.541C255.334 153.511 253.88 153.462 252.426 153.403ZM260.09 153.591C260.253 153.473 260.404 153.331 260.54 153.166C260.581 153.315 260.631 153.459 260.688 153.595C260.491 153.595 260.29 153.593 260.09 153.591ZM260.746 94.5688C260.816 93.2709 260.887 91.9747 260.957 90.6768C261.018 91.9138 261.079 93.1508 261.14 94.3878C261.006 94.4398 260.873 94.4989 260.746 94.5688ZM261.009 37.8233C261.006 37.6691 260.993 37.5239 260.972 37.3822C261.398 37.3536 261.825 37.3248 262.254 37.2979C261.807 37.3822 261.38 37.5579 261.009 37.8233ZM264.667 37.7784C264.224 37.4683 263.691 37.2908 263.144 37.2478C263.677 37.2173 264.209 37.1886 264.742 37.1617C264.715 37.3679 264.69 37.5741 264.667 37.7784ZM270.367 131.187C270.332 131.178 270.296 131.168 270.258 131.161C270.321 130.289 270.376 129.418 270.419 128.545C270.428 129.05 270.437 129.556 270.446 130.063C270.421 130.436 270.396 130.813 270.367 131.187ZM274.374 85.7253C274.279 84.6873 274.186 83.6475 274.08 82.6095C274.31 82.4123 274.503 82.1667 274.645 81.8673C274.557 83.1527 274.468 84.4399 274.374 85.7253ZM275.02 38.0939C274.761 39.9064 274.503 41.7188 274.245 43.5313C274.181 42.4395 274.12 41.3496 274.048 40.2578C273.912 38.1746 272.329 37.2388 270.825 37.3966C270.826 37.2532 270.83 37.1098 270.832 36.9664C271.755 36.9502 272.678 36.9394 273.603 36.9376C274.222 36.9359 274.84 36.9484 275.459 36.9538C275.24 37.2603 275.086 37.6368 275.02 38.0939ZM281.214 114.979C281.179 115.929 281.138 116.88 281.102 117.831C281.067 116.127 280.998 114.422 280.902 112.715L282.25 66.3261C282.135 82.5468 281.794 98.7674 281.214 114.979Z" fill="#39B100"/>
<path d="M358.113 178.43C354.27 178.43 354.264 184.403 358.113 184.403C361.955 184.403 361.962 178.43 358.113 178.43Z" fill="#39B100"/>
<path d="M5.95422 145.451C6.12633 145.467 6.30204 145.479 6.47594 145.492C7.6699 146.347 9.37663 146.435 10.3214 145.391C12.0102 145.2 13.733 144.816 15.3859 144.24C15.7426 144.239 16.0976 144.228 16.4489 144.199C18.4998 144.036 20.5615 143.197 22.469 142.331C24.1631 141.56 25.6853 140.388 27.2073 139.289C27.6125 138.997 27.8133 138.341 27.9764 137.81C28.2525 136.908 28.3349 136.039 28.2775 135.192C28.5912 134.45 28.8422 133.649 29.0179 132.779C29.7189 129.321 28.8977 125.551 26.3771 123.072C27.3828 122.29 28.29 121.363 29.0035 120.32C29.9967 119.621 30.8107 118.714 31.1979 117.487C31.8845 115.307 30.8357 113.239 29.5414 111.541C24.8049 105.329 16.4634 104.223 9.20462 103.631C7.71306 103.509 6.05654 105.103 6.21788 106.618C6.23581 106.779 6.24827 106.941 6.2662 107.102C5.54552 108.205 5.66392 109.909 6.61407 111.001C7.32041 120.508 7.02104 130.071 5.6496 139.508C5.48287 139.533 5.31965 139.56 5.1601 139.585C1.6033 140.183 2.85637 145.153 5.95422 145.451ZM14.3694 112.887C15.913 113.21 17.4439 113.601 18.957 114.061C19.8982 114.348 20.8395 114.657 21.7699 114.992C22.1392 115.555 22.3005 116.202 22.2575 116.923C21.9222 117.011 21.6407 117.086 21.4669 117.145C18.6648 118.118 15.8144 118.918 12.9281 119.588C12.9101 117.473 12.8401 115.358 12.7218 113.242C13.2561 113.09 13.8101 112.977 14.3694 112.887ZM12.0495 136.229C12.2539 134.427 12.4244 132.622 12.5588 130.815C12.6646 130.712 12.7774 130.617 12.9011 130.53C15.2765 130.41 18.5232 130.365 19.3586 132.772C20.1492 135.049 16.3647 137.148 14.78 137.96C14.5666 138.07 14.3479 138.163 14.131 138.26C13.9356 138.303 13.7402 138.344 13.5448 138.382C12.86 137.887 12.3633 137.172 12.0495 136.229Z" fill="#39B100"/>
<path d="M256.106 223.953C256.101 223.815 256.086 223.68 256.067 223.551C256.029 219.141 255.67 219.1 250.583 218.487C248.257 218.207 247.582 218.345 247.513 219.856C246.918 220.337 246.513 221.072 246.504 222.065C246.293 243.859 246.081 265.654 245.871 287.448C245.839 290.704 251.278 291.654 251.737 288.242C251.773 287.977 251.803 287.713 251.839 287.448H251.845V287.409C251.848 287.378 251.852 287.348 251.857 287.317C252.072 287.371 252.296 287.402 252.522 287.412C252.917 287.756 253.444 287.92 254.062 287.853C254.734 287.78 255.496 286.774 255.855 286.016C256.233 285.222 256.292 284.221 256.296 283.31C256.305 279.892 256.308 276.473 256.31 273.054C256.875 256.694 256.809 240.313 256.106 223.953Z" fill="#39B100"/>
<path d="M375.348 48.5117C373 47.8036 370.655 47.7569 368.251 48.1513C366.659 48.4113 365.772 50.3887 366.166 51.8247C366.63 53.517 368.242 54.1714 369.839 53.9115C371.152 53.6963 372.485 53.8863 373.762 54.2718C375.305 54.7379 377.016 53.7143 377.435 52.1868C377.871 50.5931 376.899 48.9796 375.348 48.5117Z" fill="#39B100"/>
<path d="M3.88919 85.7935C3.86768 86.1234 4.15457 86.5088 4.48444 86.5751C6.10149 86.8943 7.72738 87.0323 9.37491 87.0556C9.70836 87.061 10.0867 86.8028 10.1566 86.4604C10.6299 84.1047 11.121 81.7455 10.9579 79.3361C11.5621 74.3469 11.7916 69.3201 12.1036 64.2986C12.3331 62.8608 12.5625 61.423 12.7902 59.9853C15.5725 65.9622 17.9622 72.106 19.9557 78.3824C20.1888 79.9367 20.4236 81.491 20.6818 83.0399C21.0547 85.2755 21.5064 87.4984 21.9761 89.716C22.0335 89.9831 22.1105 90.2126 22.2074 90.408C22.3723 91.4084 22.9263 92.4805 23.8262 92.9753C23.8388 93.0362 23.853 93.0972 23.8674 93.1581C24.5648 96.4335 28.932 95.6554 29.6437 92.8946C31.3504 92.6364 32.9316 92.0699 33.7366 90.6321C34.4788 89.3037 34.4393 87.5074 34.6347 86.0301C34.9108 83.947 35.1851 81.862 35.4612 79.7788C36.4526 72.2762 37.4439 64.7755 38.4353 57.2729C38.8512 54.123 39.4967 50.6325 37.2091 48.0008C36.3594 47.0237 35.237 46.3604 34.0449 46.0825C33.8226 45.7544 33.4981 45.464 33.0212 45.2381C29.7638 43.6838 28.014 44.5139 27.2647 47.9918C27.2037 48.2715 27.1518 48.5548 27.1052 48.8398C26.9385 48.9689 26.8219 49.1678 26.8147 49.4403C26.6785 54.8849 25.4415 60.1555 24.2224 65.4316C23.5125 62.115 22.7058 58.8182 21.7646 55.559C21.1085 53.2876 20.4989 50.7257 19.443 48.4686C19.3479 47.4504 19.2727 46.4321 19.2458 45.4138C19.2028 43.8237 18.2633 43.3845 16.9797 43.3056C15.9973 43.2464 15.0167 43.1872 14.0343 43.1352C12.7686 42.7122 11.408 42.6261 10.0957 42.9864C9.90744 42.9828 9.71913 42.9793 9.5309 42.9758C6.5173 42.9381 6.11043 43.3773 6.03155 46.416C6.02617 46.606 6.02078 46.7961 6.01719 46.9843C5.60486 48.293 5.49908 49.7595 5.46502 51.1972C5.37538 54.8724 5.29289 58.5475 5.21221 62.2226C4.88235 64.494 4.52924 66.7672 4.33562 69.0583C4.11333 71.6793 4.08272 74.32 4.07197 76.9643C3.78871 78.7463 3.50367 80.5283 3.22041 82.312C3.05369 83.359 3.28324 84.3988 3.92683 85.1284C3.91428 85.3525 3.90533 85.573 3.88919 85.7935ZM25.0668 69.6392C25.0578 69.5926 25.0488 69.5442 25.0398 69.4975C25.0667 69.4886 25.0954 69.4796 25.1223 69.4688C25.1044 69.5244 25.0829 69.5818 25.0668 69.6392Z" fill="#39B100"/>
<path d="M369.932 130.585C362.206 125.096 355.139 129.067 352.45 136.433C351.516 138.993 351.13 141.779 350.718 144.497C350.314 147.152 351.198 148.65 353.143 148.616C357.706 148.534 358.739 148.444 359.208 145.35C359.441 143.814 359.337 142.22 359.624 140.698C360.329 136.955 363.792 135.867 366.679 138.349C368.781 140.157 368.867 142.715 369.364 145.115C369.758 147.019 369.108 148.638 367.602 149.85C365.226 151.766 362.797 153.613 360.418 155.526C356.523 158.661 352.894 161.854 354.029 167.749C354.402 169.694 354.847 170.834 356.989 170.655C357.552 170.608 358.124 170.647 358.692 170.647C362.803 170.915 363.333 170.509 364.274 166.424C364.307 166.286 364.285 166.115 364.359 166.008C365.286 164.647 365.958 162.937 367.209 162.003C372.415 158.111 376.286 153.24 378.645 147.222C379.974 143.833 379.855 140.617 377.7 137.313C375.689 134.224 372.761 132.595 369.932 130.585ZM375.121 149.391C372.577 153.767 369.183 157.516 364.819 160.26C362.864 161.492 362.104 163.408 361.718 165.604C361.282 168.08 360.554 168.545 358.258 168.166C356.535 167.885 356.229 167.455 355.759 165.047C356.533 163.692 357.041 162.04 358.138 161.038C360.909 158.509 363.71 155.865 366.924 154.004C374.221 149.778 372.141 139.077 366.592 135.415C363.308 133.246 358.437 135.356 357.577 139.398C357.238 140.99 357.12 142.631 356.901 144.248C356.67 145.952 355.415 146.392 354.117 145.958C353.523 145.759 352.849 144.457 352.946 143.756C353.591 139.075 354.542 134.563 358.851 131.523C360.967 130.031 363.059 129.628 365.226 130.621C369.457 132.564 373.616 134.461 376.114 138.993C378.299 142.962 376.951 146.241 375.121 149.391Z" fill="#251C1C"/>
<path d="M369.341 93.9378C370.219 83.972 370.992 73.999 371.727 64.0224C372.457 54.1122 373.077 44.1947 373.778 34.2844C373.88 32.852 373.351 32.0758 371.906 32.0848C365.513 32.126 359.119 32.0686 352.731 32.2819C344.651 32.5544 336.582 33.1586 328.501 33.4186C323.038 33.5925 317.563 33.3827 312.093 33.4167C309.15 33.4329 307.991 34.6305 307.961 37.4935C307.95 38.6283 307.997 39.7666 308.056 40.9014C308.617 51.6077 309.189 62.3139 309.757 73.0219C309.7 73.0237 309.643 73.0255 309.585 73.0291C309.929 85.451 310.3 97.8712 310.586 110.293C310.625 111.993 311.346 112.543 312.882 112.6C320.684 112.893 328.484 113.394 336.286 113.479C343.948 113.559 351.614 113.262 359.276 113.056C361.257 113.004 363.233 112.695 365.207 112.464C366.915 112.265 367.641 111.329 367.541 109.556C367.464 108.228 367.638 106.874 367.806 105.546C368.299 101.674 368.998 97.8209 369.341 93.9378ZM366.135 101.351C365.938 103.398 365.556 105.429 365.182 107.453C364.834 109.327 363.805 110.54 361.74 110.564C351.096 110.686 340.451 110.881 329.807 110.897C325.268 110.904 320.729 110.476 316.188 110.359C313.018 110.277 312.844 110.16 312.748 107.034C312.319 93.2871 311.93 79.5386 311.398 65.7954C311.037 56.5036 310.487 47.2209 309.951 37.9381C309.865 36.4429 310.324 35.8549 311.81 35.8638C316.923 35.8961 322.034 35.8764 329.237 35.8764C336.946 35.4013 346.709 34.7237 356.482 34.2342C360.521 34.0335 364.581 34.3239 368.627 34.2199C370.752 34.1661 371.385 35.0625 371.265 37.0255C370.745 45.4604 370.443 53.9132 369.753 62.3337C368.685 75.3508 367.38 88.3499 366.135 101.351Z" fill="#251C1C"/>
<path d="M368.378 215.825C367.492 215.226 366.234 214.677 365.25 214.826C362.539 215.233 359.759 215.701 357.236 216.716C350.795 219.304 345.531 223.598 340.985 228.813C339.28 230.771 336.779 230.968 334.739 229.464C333.339 228.431 333.278 226.617 334.585 224.249C334.857 223.754 335.162 223.27 335.51 222.823C337.337 220.479 339.087 218.062 341.046 215.828C344.701 211.662 348.432 207.551 353.524 205.022C357.575 203.01 361.611 200.97 365.82 198.858C365.356 197.361 364.217 197.641 363.256 198.069C359.563 199.715 355.804 201.26 352.261 203.197C343.742 207.85 337.941 215.391 332.269 222.933C329.325 226.85 330.662 230.561 335.211 232.503C336.682 233.13 336.803 233.856 336.057 235.091C335.325 236.305 334.56 237.519 334.008 238.815C331.127 245.577 331.57 246.99 337.767 250.917C337.443 251.498 337.14 252.112 336.77 252.682C335.809 254.171 334.746 255.6 333.852 257.129C332.102 260.125 332.378 263.578 334.472 265.855C335.359 266.821 337.032 267.758 337.019 268.689C337.002 269.876 335.625 271.034 334.852 272.217C332.624 275.634 333.316 278.752 336.758 280.951C337.373 281.346 337.937 281.821 338.586 282.305C338.038 283.042 337.688 283.574 337.276 284.051C335.472 286.136 334.551 288.615 335.671 291.134C336.788 293.644 339.508 294.002 341.932 293.949C346.898 293.836 351.863 293.495 356.817 293.09C357.498 293.034 358.104 292.075 358.746 291.534C358.07 290.94 357.468 289.997 356.7 289.836C355.562 289.596 354.309 289.915 353.104 289.988C349.065 290.234 345.028 290.591 340.985 290.677C338.649 290.727 337.507 288.848 338.769 287.172C340.551 284.804 342.747 282.925 345.994 282.941C351.77 282.972 357.009 280.989 361.944 278.275C363.063 277.662 364.189 275.82 364.131 274.601C364.045 272.773 362.227 271.937 360.37 271.816C359.594 271.765 358.78 271.731 358.032 271.903C352.74 273.121 347.597 274.693 343.563 278.621C341.906 280.236 340.195 279.738 338.488 278.782C337.107 278.009 335.872 276.948 336.507 275.218C337.47 272.595 339.64 269.261 343.541 269.388C347.966 269.533 352.113 268.379 356.014 266.337C358.961 264.792 361.966 263.33 364.789 261.579C366.962 260.231 366.795 258.002 364.422 256.998C362.925 256.366 361.1 256.115 359.472 256.256C352.561 256.866 346.788 260.008 341.659 264.564C340.89 265.247 339.257 265.898 338.579 265.532C337.426 264.91 336.331 263.599 335.908 262.343C335.2 260.242 336.433 258.393 337.545 256.615C339.266 253.859 341.218 251.505 344.537 250.489C349.404 248.999 354.3 247.518 358.982 245.557C361.598 244.46 363.948 242.563 366.16 240.72C367.812 239.344 367.408 237.318 365.47 236.384C364.5 235.916 363.19 235.516 362.227 235.785C358.765 236.75 355.126 237.549 352.045 239.283C348.316 241.38 345.006 244.265 341.672 246.999C339.8 248.531 338.154 247.682 336.545 246.934C334.983 246.208 335.281 244.768 335.775 243.402C335.991 242.809 336.071 242.165 336.2 241.541C337.265 236.391 340.531 233.173 345.582 232.104C347.023 231.8 348.473 231.303 349.778 230.622C354.301 228.259 358.814 225.864 363.226 223.3C365.167 222.171 366.912 220.674 368.638 219.218C369.993 218.076 369.694 216.712 368.378 215.825ZM360.124 275.378C356.472 277.633 352.643 279.325 348.194 279.108C351.856 276.848 355.603 274.854 360.124 275.378ZM361.673 259.621C356.521 262.119 351.951 266.131 345.444 265.858C348.613 261.814 356.872 258.843 361.673 259.621ZM363.498 238.781C362.462 241.305 350.912 246.518 348.034 245.76C350.343 242.124 360.126 237.709 363.498 238.781ZM345.252 228.35C348.633 223.196 360.965 215.577 365.666 217.741C364.283 221.151 348.568 229.43 345.252 228.35Z" fill="#251C1C"/>
<path d="M363.857 55.1C364.04 55.0211 364.223 54.944 364.404 54.8651C364.404 54.6518 364.407 54.4385 364.404 54.2252C364.343 50.5662 363.542 47.3446 359.809 45.5805C359.309 45.3439 359.065 44.3077 358.936 43.5996C358.603 41.7477 358.217 40.0284 356.462 38.8703C353.927 37.1976 351.469 36.9736 348.954 38.8076C348.077 39.4458 347.339 39.7075 346.349 38.7968C343.829 36.4806 340.944 36.0628 337.927 37.7803C336.46 38.6175 335.121 39.6807 333.725 40.6416C332.57 41.434 331.52 42.54 330.241 42.9595C327.316 43.9222 325.03 45.6881 323.467 48.1853C322.674 49.4474 322.728 51.2205 322.285 52.7282C322.072 53.4578 321.697 54.1982 321.21 54.7791C319.853 56.3961 318.205 57.8017 317.038 59.537C315.959 61.1415 315.803 63.0328 317.407 64.6105C318.463 65.6484 317.888 66.3942 317.124 67.3228C315.125 69.7502 313.884 72.3533 315.767 75.4996C316.02 75.9227 315.858 76.7133 315.663 77.2511C315.451 77.8337 314.958 78.3088 314.621 78.8502C311.878 83.2765 312.674 87.0036 316.902 90.2054C317.343 90.5406 317.563 91.5751 317.436 92.1918C315.869 99.7697 320.561 102.249 326.33 101.763C327.206 101.688 328.377 102.106 329.015 102.713C332.002 105.558 337.563 106.224 341.088 104.178C341.857 103.732 343.029 103.884 344.013 103.913C345.962 103.968 347.957 104.461 349.841 104.171C352.713 103.726 356.032 100.372 355.465 98.305C354.705 95.5353 356.344 94.4668 357.938 93.0989C360.048 91.2918 361.362 88.929 361.234 86.2076C361.114 83.6279 362.202 81.8065 363.559 79.8434C365.39 77.1955 366.564 74.3433 364.676 71.0966C364.359 70.5534 364.549 69.5889 364.757 68.8951C365.141 67.6061 366.032 66.396 366.123 65.1106C366.256 63.2749 366.039 61.362 365.634 59.5567C365.291 58.0168 364.47 56.5808 363.857 55.1ZM364.373 63.646C363.839 65.2469 363.022 66.7618 362.251 68.2766C361.491 69.7718 360.861 71.1288 362.878 72.2224C363.325 72.4644 363.712 73.2497 363.723 73.7911C363.775 76.3457 360.835 80.5156 357.954 81.8243C358.335 78.687 358.586 75.8133 359.049 72.9736C360.259 65.5588 358.187 58.9364 353.708 53.205C351.659 50.584 348.778 48.431 345.896 46.6974C342.626 44.7326 339.225 46.0879 336.233 47.9254C332.224 50.3869 329.09 53.6604 327.075 58.0276C323.748 65.2469 322.174 72.7566 322.086 80.7164C322.018 87.1003 329.75 97.5538 336.134 98.1544C341.586 98.6653 345.969 96.5697 349.739 93.2782C352.122 91.1986 353.665 88.1509 355.551 85.5138C356.075 84.7824 356.476 83.9631 356.925 83.1976C359.438 84.5063 359.766 85.261 359.002 87.6328C358.163 90.243 356.19 91.8422 353.981 93.2065C352.629 94.0419 351.76 94.8504 352.961 96.5607C353.335 97.0914 353.24 98.2602 352.92 98.9235C351.19 102.493 346.971 103.509 343.766 101.168C342.817 100.476 342.043 100.247 341.172 101.19C338.929 103.617 336.111 103.732 333.316 102.688C332.09 102.231 330.86 101.053 330.24 99.8809C329.472 98.4305 328.755 98.192 327.402 98.8231C326.642 99.1763 325.83 99.5707 325.019 99.6263C320.482 99.9436 318.346 97.0823 319.766 92.6865C320.797 89.4955 320.747 89.3825 317.723 88.0846C315.252 87.0269 314.465 83.1976 316.193 80.5174C316.538 79.9832 316.952 79.4812 317.405 79.0348C319.001 77.4716 319.867 76.1342 317.588 74.1944C316.077 72.909 317.328 71.1342 318.083 69.7234C318.438 69.0582 319.114 68.5599 319.657 68.0006C321.538 66.068 321.536 65.8062 319.585 63.9202C318.065 62.452 317.909 61.3351 319.551 59.5047C320.907 57.9934 322.585 56.7475 324.223 55.5231C325.532 54.5442 326.876 53.8271 324.851 52.1921C324.488 51.8999 324.474 50.6433 324.79 50.1359C326.321 47.6673 328.294 45.7257 331.304 45.0212C332.326 44.7809 333.259 44.0298 334.155 43.4024C335.883 42.1923 337.434 40.6631 339.286 39.704C342.154 38.2178 343.836 38.6785 345.74 41.269C346.824 42.7462 347.722 42.7928 349.008 41.6437C349.739 40.9875 350.557 40.3565 351.444 39.9549C354.139 38.7395 356.88 40.5197 356.975 43.4651C357.009 44.4583 356.795 45.5483 357.143 46.4124C357.45 47.1707 358.368 48.1728 359.047 48.1979C361.29 48.2804 362.145 49.5873 362.24 51.4356C362.33 53.1782 362.089 54.953 361.831 56.6902C361.62 58.1226 361.467 59.304 363.187 59.9924C364.882 60.6718 364.832 62.2656 364.373 63.646ZM349.374 90.4295C345.612 94.3269 340.944 97.1039 335.073 95.4582C333.63 95.053 332.167 94.2104 331.066 93.1886C326.466 88.9147 323.696 83.8161 324.587 78.3016C324.736 69.2573 326.74 61.7582 331.315 55.1753C333.502 52.0272 336.484 49.3722 340.519 48.7555C342.176 48.5009 344.244 48.4973 345.619 49.2736C352.649 53.2409 356.686 59.2699 357.122 67.4843C357.582 76.1629 355.472 84.1083 349.374 90.4295Z" fill="#251C1C"/>
<path d="M363.391 180.156C363.462 177.18 362.817 176.481 359.933 176.402C356.361 176.305 355.592 176.814 355.488 179.348C355.331 183.173 357.066 184.966 361.078 185.124C362.64 185.185 363.307 183.751 363.391 180.156ZM358.1 180.273C358.021 180.014 358.921 179.106 359.336 179.132C359.9 179.166 360.427 179.812 361.39 180.489C360.443 181.25 359.918 181.673 359.393 182.096C358.934 181.497 358.308 180.95 358.1 180.273Z" fill="#251C1C"/>
<path d="M335.141 168.143C335.249 172.189 335.559 176.23 335.743 180.276C336.019 186.293 336.222 186.443 342.258 186.078C344.201 185.959 345.186 185.047 345.186 183.186C345.189 179.848 345.085 176.512 345.015 173.173C344.859 165.592 344.582 158.009 344.574 150.425C344.571 145.036 344.913 139.646 345.137 134.257C345.195 132.848 344.746 131.682 343.267 131.691C340.953 131.702 338.631 131.98 336.333 132.295C335.845 132.364 335.105 133.046 335.066 133.496C334.79 136.662 334.497 139.845 334.535 143.018C334.585 147.413 334.92 151.808 335.118 155.897C335.118 160.189 335.039 164.169 335.141 168.143ZM337.359 135.721C337.671 133.541 339.472 133.814 341.023 133.796C342.687 133.778 343.006 134.866 342.972 136.214C342.778 143.939 342.527 151.664 342.403 159.391C342.312 165.124 342.385 170.859 342.385 176.594C342.558 176.594 342.731 176.592 342.903 176.592C342.903 177.94 342.925 179.288 342.898 180.637C342.866 182.282 342.742 183.656 340.394 183.647C338.106 183.639 338.051 182.2 337.99 180.714C337.669 172.722 337.391 164.726 337.125 156.73C336.969 151.983 336.787 147.232 336.774 142.482C336.769 140.228 337.041 137.959 337.359 135.721Z" fill="#251C1C"/>
<path d="M322.418 130.632C320.322 130.341 318.185 130.209 316.075 130.271C315.519 130.288 314.598 131.222 314.513 131.829C313.379 139.918 312.12 148 311.369 156.128C309.831 172.752 308.565 189.401 307.242 206.043C307.133 207.413 306.615 207.917 305.299 207.933C303.381 207.958 301.464 208.161 299.546 208.166C290.666 208.193 281.787 208.178 272.907 208.178C272.907 208.327 272.909 208.476 272.909 208.625C272.199 208.625 271.489 208.605 270.781 208.628C260.765 208.955 250.746 209.211 240.735 209.643C234.815 209.899 233.499 211.708 234.446 217.483C234.711 219.093 235.477 219.905 237.158 219.763C238.786 219.625 240.416 219.485 242.049 219.423C245.495 219.293 245.486 219.347 245.642 222.716C245.841 227.047 246.076 231.375 246.371 235.699C246.943 244.064 247.653 252.42 248.15 260.788C248.671 269.585 248.996 278.395 249.433 287.197C249.575 290.053 250.977 291.039 254.842 291.127C257.461 291.188 258.354 290.37 258.58 287.421C258.784 284.732 258.956 282.029 258.933 279.334C258.852 269.596 258.639 259.86 258.562 250.121C258.49 240.817 258.546 231.511 258.494 222.207C258.485 220.516 259.109 219.808 260.844 219.702C265.95 219.388 271.039 218.77 276.147 218.571C284.168 218.261 292.199 218.193 300.227 218.03C301.783 217.997 304.006 217.373 304.72 218.139C305.537 219.021 305.094 221.145 305.069 222.728C304.903 233.309 304.619 243.886 304.531 254.467C304.447 264.696 304.537 274.928 304.576 285.157C304.591 289.296 304.813 289.56 308.755 290.808C309.431 291.023 310.175 291.405 310.806 291.285C311.489 291.154 312.491 290.632 312.631 290.092C313.068 288.398 313.275 286.622 313.375 284.865C313.569 281.536 313.459 278.181 313.773 274.867C314.741 264.635 316.03 254.433 316.821 244.189C317.201 239.259 316.774 234.263 316.652 229.299C316.579 226.317 316.034 223.302 316.351 220.371C316.665 217.474 317.918 214.691 318.544 211.812C319.409 207.829 320.408 203.831 320.754 199.788C321.435 191.805 321.692 183.785 322.159 175.782C322.346 172.596 322.652 169.416 322.864 166.23C323.312 159.428 323.715 152.621 324.178 145.822C324.443 141.922 324.807 138.03 325.085 134.133C325.223 132.22 324.321 130.895 322.418 130.632ZM256.292 283.312C256.289 284.223 256.23 285.223 255.851 286.017C255.493 286.776 254.731 287.782 254.059 287.855C252.748 287.995 251.839 287.116 251.766 285.636C251.649 283.298 251.515 280.96 251.375 278.624C250.64 266.446 249.939 254.264 249.148 242.088C248.697 235.154 248.098 228.23 247.562 221.303C247.341 218.44 247.662 218.135 250.583 218.487C256.029 219.143 256.057 219.143 256.072 224.55C256.095 233.843 256.077 243.137 256.077 252.432C256.154 252.432 256.231 252.432 256.308 252.432C256.307 262.726 256.317 273.018 256.292 283.312ZM312.581 259.445C311.88 267.509 311.234 275.577 310.551 283.64C310.48 284.486 310.426 285.36 310.17 286.157C310.006 286.666 309.488 287.059 309.128 287.505C308.644 287.048 307.88 286.666 307.733 286.118C307.403 284.897 307.24 283.592 307.26 282.326C307.421 271.062 307.706 259.8 307.816 248.537C307.891 240.891 307.706 233.243 307.712 225.597C307.714 223.402 307.918 221.203 308.128 219.014C308.228 217.981 310.763 216.95 312.432 217.422C312.886 217.551 313.271 218.646 313.328 219.328C313.782 224.702 314.146 230.082 314.632 236.755C314.022 243.483 313.276 251.462 312.581 259.445ZM313.909 214.155C308.214 214.831 302.498 215.346 296.781 215.794C294.451 215.975 292.097 215.823 289.754 215.823C289.749 215.733 289.743 215.645 289.738 215.556C279.89 215.993 270.046 216.545 260.193 216.803C256.887 216.889 253.567 216.104 250.244 215.943C248.099 215.839 245.932 216.102 243.783 216.287C242.088 216.432 240.409 216.818 238.716 216.879C238.066 216.902 236.834 216.318 236.834 216.013C236.836 215.07 237.035 213.61 237.646 213.291C238.975 212.598 240.597 212.255 242.119 212.176C251.832 211.671 261.545 211.135 271.267 210.877C285.102 210.509 298.943 210.357 312.785 210.177C313.64 210.167 314.874 210.48 315.291 211.084C316.297 212.542 315.707 213.944 313.909 214.155ZM322.64 135.123C322.294 139.509 321.86 143.891 321.579 148.281C320.885 159.12 320.313 169.968 319.585 180.805C319.042 188.872 318.371 196.934 317.636 204.986C317.556 205.868 316.772 207.307 316.15 207.402C314.248 207.691 312.24 207.599 310.338 207.277C309.988 207.218 309.94 205.378 309.752 204.362C309.811 204.356 309.87 204.349 309.929 204.344C310.327 198.042 310.672 191.735 311.141 185.439C311.573 179.636 312.059 173.833 312.663 168.046C313.68 158.313 314.806 148.591 315.896 138.866C316.053 137.457 316.367 136.06 316.441 134.647C316.545 132.645 317.837 132.342 319.381 132.482C321.003 132.631 322.833 132.695 322.64 135.123Z" fill="#251C1C"/>
<path d="M117.733 33.1604C116.746 33.8238 115.552 34.5139 114.419 34.5713C111.165 34.7326 107.889 34.4512 104.63 34.5731C93.4918 34.989 82.3572 35.5017 71.2225 35.9822C67.4721 36.1435 63.7234 36.3587 59.973 36.4698C58.0691 36.5254 56.1437 36.5487 54.2578 36.3246C51.791 36.0342 50.719 36.667 50.7441 39.1983C50.771 42.0201 51.0989 44.8383 51.332 47.6547C51.4862 49.4922 51.7622 51.3208 51.8842 53.1602C52.2194 58.1763 52.5331 63.1941 52.7949 68.2156C52.9634 71.4497 52.9402 74.6946 53.1643 77.9251C53.4045 81.3672 54.0337 84.7914 54.1377 88.2352C54.317 94.1064 54.2309 99.9884 54.2345 105.865C54.2381 113.169 54.186 120.472 54.2165 127.776C54.2434 134.02 54.36 140.264 54.4281 146.508C54.4747 150.967 54.394 155.429 54.5661 159.882C54.9228 169.14 53.4547 178.394 54.5698 187.655C54.758 189.211 55.111 189.912 56.8608 189.871C67.5025 189.616 78.1496 189.19 88.7859 189.365C98.9364 189.534 109.069 190.5 119.218 190.871C130.792 191.294 142.373 191.502 153.954 191.7C160.704 191.814 167.455 191.726 174.206 191.726C185.793 191.728 197.378 191.726 208.964 191.726C208.964 191.75 208.964 191.773 208.964 191.796C216.001 191.796 223.035 191.78 230.072 191.802C239.588 191.829 249.111 192.15 258.616 191.854C268.976 191.531 279.32 190.649 289.672 190.007C292.933 189.805 293.657 189.175 293.549 185.844C293.411 181.592 292.956 177.351 292.724 173.1C291.959 158.989 291.095 144.882 290.528 130.763C289.913 115.433 289.566 100.091 289.153 84.7536C289.019 79.7842 288.944 74.8093 289.021 69.8398C289.153 61.3907 289.548 52.9451 289.576 44.4959C289.585 41.6222 288.924 38.7269 288.379 35.8764C287.977 33.7664 286.557 32.9471 284.334 32.9829C279.3 33.0654 274.265 32.931 269.231 32.87C259.001 32.7481 248.774 32.5366 238.546 32.515C231.3 32.5007 224.052 32.7607 216.806 32.8395C215.929 32.8485 214.895 32.7122 214.197 32.2479C211.2 30.2526 208.295 28.1138 205.366 26.0145C200.588 22.5886 195.834 19.1268 191.037 15.7242C186.763 12.6909 182.487 9.6558 178.132 6.73722C174.782 4.49092 171.374 2.30738 167.848 0.353296C166.941 -0.148671 165.23 -0.109287 164.343 0.430328C161.139 2.37904 158.126 4.64152 155.046 6.79639C144.537 14.1484 134.024 21.4951 123.529 28.8704C121.563 30.2526 119.727 31.8231 117.733 33.1604ZM231.719 34.7918C236.391 34.7326 241.068 35.4049 245.747 35.4623C250.143 35.5161 254.548 35.0213 258.944 35.0966C265.541 35.2095 272.13 35.6362 278.725 35.8657C280.062 35.9105 281.407 35.6397 282.75 35.5537C285.265 35.3941 286.224 35.9428 286.635 38.4419C287.092 41.2331 287.398 44.0871 287.377 46.9107C287.267 61.1128 286.821 75.3149 286.9 89.5152C286.972 102.303 287.466 115.092 287.977 127.873C288.234 134.255 289.069 140.612 289.412 146.994C289.774 153.728 289.804 160.479 290.087 167.22C290.317 172.684 290.776 178.139 291 183.604C291.143 187.099 290.899 187.392 287.466 187.705C281.1 188.288 274.727 188.987 268.343 189.15C256.979 189.441 245.606 189.428 234.236 189.428C223.437 189.426 212.639 189.236 201.841 189.204C185.922 189.156 170.002 189.305 154.085 189.122C141.154 188.973 128.224 188.555 115.301 188.069C107.285 187.77 99.2877 186.847 91.2742 186.692C80.3456 186.483 69.41 186.737 58.4779 186.786C58.2699 186.787 58.0637 186.714 57.4649 186.603C57.4649 181.562 57.4918 176.61 57.4578 171.66C57.4237 166.904 57.3001 162.148 57.2606 157.392C57.1871 148.08 57.1065 138.767 57.1011 129.456C57.094 118.237 57.3413 107.012 57.1279 95.7969C56.9953 88.8662 56.1473 81.9499 55.7368 75.0209C55.5199 71.3458 55.6992 67.6438 55.4374 63.974C54.9157 56.683 54.3116 49.3919 53.5174 42.1259C53.2987 40.1198 54.0462 39.5157 55.7009 39.4099C58.0386 39.2611 60.3835 39.2073 62.7248 39.1034C75.4981 38.5422 88.2715 37.9685 101.047 37.4253C103.886 37.3034 106.731 37.2891 109.575 37.2227C129.253 36.7674 148.932 36.2672 168.615 35.8693C189.647 35.4444 210.683 35.0571 231.719 34.7918ZM143.624 17.5402C149.935 13.0745 156.365 8.7791 162.64 4.26319C164.769 2.73039 166.79 2.86307 168.789 4.00504C171.987 5.83364 175.139 7.76978 178.168 9.86191C185.291 14.783 192.326 19.8296 199.403 24.8152C202.535 27.022 205.689 29.2002 208.819 31.4107C209.145 31.6402 209.384 31.9951 209.663 32.2909C209.611 32.4828 209.561 32.6727 209.509 32.8646C180.266 33.2877 151.023 33.7126 121.188 34.1465C122.222 33.1981 122.853 32.4953 123.603 31.9521C130.263 27.1278 136.912 22.2892 143.624 17.5402Z" fill="#251C1C"/>
<path d="M137.73 40.9874C133.547 41.0537 129.35 40.9157 125.186 41.2151C115.643 41.9035 106.12 42.8483 96.5825 43.5887C93.5545 43.8236 90.5032 43.7142 87.4645 43.8145C81.8138 44.0028 76.165 44.2466 70.5125 44.4312C67.8233 44.5191 65.1163 44.3793 62.4469 44.6464C61.6437 44.7253 60.4767 45.713 60.2921 46.4821C59.9228 48.0167 60.0895 49.6876 60.0841 51.3028C60.0644 55.7632 60.111 60.2235 60.0536 64.682C59.9998 68.8268 59.6609 72.9753 59.7739 77.1147C59.9998 85.4599 60.5681 93.7962 60.7725 102.141C60.9679 110.124 60.9357 118.115 60.8963 126.1C60.8622 133.15 60.6864 140.201 60.5556 147.25C60.5448 147.815 60.3422 148.376 60.3386 148.939C60.3297 150.21 60.3602 151.485 60.4283 152.754C60.5233 154.509 60.6703 156.261 60.794 158.014C60.9159 159.724 61.0862 161.433 61.1454 163.145C61.3498 169.028 61.4825 174.916 61.7263 180.8C61.7675 181.784 61.9755 182.971 62.5761 183.652C63.0045 184.136 64.2308 184.071 65.0787 183.996C66.4107 183.878 67.7157 183.374 69.0441 183.331C79.3273 182.99 89.614 182.539 99.9008 182.485C108.418 182.44 116.937 182.994 125.458 183.087C132.989 183.168 140.528 182.768 148.056 182.954C160.978 183.275 173.891 184.24 186.809 184.283C201.228 184.33 215.647 183.654 230.068 183.288C237.669 183.096 245.285 183.098 252.87 182.643C262.081 182.089 271.262 180.902 280.505 181.956C282.156 182.144 282.89 181.484 282.845 179.819C282.612 171.088 282.529 162.352 282.144 153.629C281.853 147.105 280.98 140.608 280.724 134.084C280.299 123.294 280.122 112.491 279.924 101.691C279.84 97.075 279.856 92.4499 280.023 87.8353C280.519 74.1388 281.113 60.4458 281.667 46.751C281.597 46.7475 281.525 46.7439 281.453 46.7421C281.523 45.6073 281.792 44.4367 281.593 43.3503C281.455 42.6009 280.735 41.4427 280.17 41.3764C277.648 41.0878 275.082 40.9623 272.545 41.077C265.595 41.3908 258.655 42.0397 251.701 42.2083C245.317 42.3624 238.921 41.9555 232.531 41.9913C221.088 42.0559 209.642 42.5597 198.206 42.3481C183.654 42.0774 169.115 41.1936 154.565 40.7508C148.961 40.5805 143.343 40.896 137.73 40.9874ZM203.111 44.6572C212.128 44.8006 221.153 44.277 230.176 44.234C236.707 44.2018 243.241 44.6877 249.765 44.5407C257.216 44.3721 264.652 43.7124 272.101 43.3682C273.926 43.2839 275.821 43.395 277.576 43.8414C278.219 44.0046 278.953 45.3993 278.956 46.2347C278.974 51.6363 278.8 57.0378 278.698 62.4375C278.678 63.4325 278.694 64.4293 278.694 65.4242C278.755 65.426 278.816 65.4296 278.875 65.4332C278.476 74.6604 277.683 83.8913 277.762 93.1132C277.902 109.597 278.546 126.076 279.026 142.557C279.359 154.057 279.756 165.554 280.161 177.051C280.218 178.686 279.67 179.211 277.958 179.263C262.341 179.74 246.73 180.459 231.112 180.839C212.996 181.278 194.875 181.673 176.756 181.662C162.842 181.653 148.93 180.988 135.017 180.602C125.571 180.341 116.125 179.823 106.679 179.846C95.2505 179.873 83.8235 180.357 72.3966 180.631C70.6899 180.672 68.9832 180.611 67.2783 180.653C65.9374 180.685 65.3907 180.115 65.3476 178.751C65.2186 174.704 65.0859 170.653 64.7722 166.617C64.4083 161.962 63.6283 157.329 63.4401 152.67C63.2411 147.788 63.5619 142.887 63.5906 137.994C63.6157 133.516 63.5781 129.038 63.5208 124.561C63.4275 117.102 63.2699 109.642 63.1892 102.183C63.1193 95.4455 63.1568 88.7048 63.0726 81.9677C62.9955 75.8688 62.8145 69.7717 62.689 63.6746C62.6065 59.7001 62.5097 55.7256 62.4793 51.7493C62.4506 48.171 62.7875 47.6851 66.2564 47.4269C69.72 47.1705 73.2106 47.2889 76.6813 47.0953C88.5241 46.4356 100.39 46.0232 112.194 44.9261C126.718 43.5779 141.241 42.9792 155.811 43.3646C171.578 43.7823 187.34 44.408 203.111 44.6572Z" fill="#251C1C"/>
<path d="M165.162 10.086C165.449 10.0878 165.736 10.0878 166.023 10.0896C166.421 9.38328 167.256 8.56222 167.109 7.9975C166.912 7.24455 165.951 6.69241 165.318 6.0542C164.832 6.55079 163.891 7.11366 163.952 7.53137C164.078 8.42236 164.725 9.23806 165.162 10.086Z" fill="#251C1C"/>
<path d="M38.4765 179.629C38.8673 174.606 39.1435 169.572 39.4662 164.543C39.3999 164.54 39.3335 164.534 39.2671 164.531C39.2671 162.469 39.3317 160.404 39.251 158.346C39.1632 156.133 38.3976 155.658 36.2517 156.013C34.2259 156.347 32.1751 156.632 30.1296 156.7C27.8187 156.779 26.6355 157.774 26.4616 160.111C26.3146 162.089 25.9794 164.059 25.9543 166.036C25.9256 168.439 26.1587 170.843 26.2358 173.249C26.2788 174.539 26.4778 175.891 26.1856 177.116C25.3752 180.524 26.2267 181.879 29.5809 182.047C29.8588 182.062 30.1313 182.16 30.4074 182.209C31.9062 182.472 33.403 182.922 34.9071 182.951C37.1893 182.994 38.2972 181.938 38.4765 179.629ZM35.2961 178.451C35.2675 178.777 35.0256 179.371 34.9252 179.362C33.4139 179.227 31.89 179.104 30.4218 178.756C30.0579 178.67 29.6491 177.795 29.6527 177.284C29.6778 172.042 29.753 166.8 29.9162 161.562C29.9359 160.985 30.6011 160.427 30.965 159.862C31.1694 160.44 31.3594 161.022 31.5799 161.592C31.8004 162.153 32.0514 162.704 32.2898 163.258C32.5067 163.182 32.7254 163.107 32.9423 163.03C32.9871 162.704 32.9549 162.338 33.0911 162.055C33.4013 161.411 33.7938 160.807 34.1524 160.187C34.5755 160.725 35.2621 161.21 35.3769 161.807C36.4453 167.35 35.7748 172.904 35.2961 178.451Z" fill="#251C1C"/>
<path d="M0.282072 89.8129C4.46095 89.8255 8.62556 89.9187 12.7758 90.4207C12.973 85.9388 13.1037 81.4516 13.378 76.9733C13.4748 75.3993 13.9625 73.8504 14.3766 71.7546C15.0005 72.617 15.4127 72.9504 15.5078 73.3573C16.0617 75.7345 16.6409 78.1153 17.0209 80.523C17.505 83.5975 17.7344 86.7133 18.2077 89.7896C18.8621 94.0348 20.7551 95.2019 24.9053 94.44C28.0354 93.8663 31.2141 93.3894 34.3872 93.2693C36.9867 93.1707 37.6106 92.7637 37.4708 90.218C37.0656 82.8301 36.4865 75.4387 36.4328 68.0455C36.3808 60.8118 36.8971 53.5762 37.1498 46.3407C37.2377 43.8685 36.5456 43.0027 34.1379 42.6154C32.2484 42.3107 30.3464 42.0758 28.4479 41.814C26.3432 41.5254 25.1223 42.2192 24.7208 44.315C24.131 47.402 23.7598 50.5286 23.2955 53.639C23.2184 53.6713 23.1414 53.7017 23.0625 53.734C22.9388 53.0671 22.7972 52.402 22.695 51.7333C22.2988 49.141 21.9921 46.5326 21.5063 43.9582C20.8734 40.6022 20.2605 40.2849 16.7718 40.1881C13.8873 40.1092 10.9955 39.8618 8.13249 39.4871C3.67574 38.9062 2.35984 40.353 2.86001 44.7076C3.09486 46.7549 2.59109 48.7376 2.67356 50.8029C2.84746 55.2166 2.07849 59.6698 1.67512 64.105C1.59266 65.0032 1.30567 65.8924 1.30029 66.787C1.28774 68.6783 1.47787 70.5732 1.43842 72.4646C1.37209 75.575 1.24844 78.6854 1.04049 81.7904C0.880932 84.1712 2.20924 86.7761 0.0292681 88.9148C-0.0639544 89.0044 0.0777 89.4329 0.282072 89.8129ZM4.33552 69.0619C4.64029 65.4567 5.33587 61.9035 5.7249 58.318C5.81095 54.3507 5.92747 50.3852 6.03145 46.4178C6.11033 43.3791 6.5172 42.9399 9.53079 42.9776C12.0155 43.008 14.4984 43.1551 16.9796 43.3057C18.2632 43.3845 19.2027 43.8237 19.2457 45.4139C19.2995 47.3931 19.5326 49.3687 19.737 51.3407C20.2013 55.8279 20.6422 60.317 21.198 64.7917C21.5099 67.2961 21.7519 69.8741 22.5891 72.2172C22.6196 72.3032 22.6627 72.3839 22.7111 72.4628C24.131 64.7917 26.6174 57.298 26.8146 49.4422C26.8218 49.1697 26.9383 48.9707 27.1051 48.8416C27.1517 48.5566 27.2036 48.2733 27.2646 47.9937C28.0139 44.5157 29.7637 43.6857 33.0211 45.24C34.6525 46.0181 34.5484 47.5079 34.3996 48.9259C34.1074 51.7226 33.6162 54.5013 33.4047 57.3016C33.1483 60.7149 33.0032 64.1444 32.9996 67.565C32.9996 68.1387 32.9674 68.6245 32.8186 69.0368C32.8257 70.618 32.6356 72.1831 32.546 73.759C32.7073 74.252 32.7092 74.8202 32.6985 75.4979C32.6716 77.0593 33.455 78.6172 33.7204 80.2038C33.8871 81.2042 33.7669 82.2547 33.7382 83.2838C33.7185 83.8987 33.4639 84.5476 33.5912 85.1195C34.2867 88.2478 32.6966 90.3812 29.5629 90.5659C27.867 90.6663 26.1602 90.8563 24.5019 91.2059C23.0803 91.5071 22.2665 91.0768 21.9779 89.7161C21.5082 87.4985 21.0563 85.2755 20.6834 83.04C20.0058 78.9902 19.5002 74.9063 18.7258 70.8762C16.9994 66.4983 15.3196 62.0989 12.5462 58.3073C11.9134 65.3097 11.8022 72.3606 10.9578 79.3362C11.1209 81.7456 10.6298 84.1048 10.1565 86.4605C10.0866 86.8029 9.70825 87.0611 9.3748 87.0557C7.72727 87.0324 6.10139 86.8943 4.48433 86.5752C4.15447 86.5089 3.86757 86.1235 3.88909 85.7936C4.24764 80.2271 3.86762 74.6033 4.33552 69.0619Z" fill="#251C1C"/>
<path d="M31.3629 187.343C27.331 187.211 24.6742 189.333 24.6312 192.632C24.5864 196.101 26.3486 198.057 29.5702 198.11C33.9911 198.186 36.596 196.755 36.3127 194.011C35.8556 189.595 35.0344 187.465 31.3629 187.343ZM29.6078 195.063C28.9194 194.498 28.3314 193.198 28.5 192.379C28.6595 191.61 29.8606 191.056 30.6027 190.407C30.9183 190.542 31.2338 190.676 31.5494 190.811C31.7573 192.159 31.9634 193.509 32.1714 194.857C31.2912 194.957 30.0865 195.454 29.6078 195.063Z" fill="#251C1C"/>
<path d="M3.90677 142.521C4.08246 144.104 4.72613 145.553 6.2643 145.983C8.54646 146.619 10.9164 147.121 13.2738 147.259C19.6578 147.63 25.1616 145.054 29.7994 141.031C34.2974 137.13 33.6431 129.248 27.4832 126.82C26.7106 126.516 25.9826 126.094 24.9177 125.573C27.3128 124.181 29.3709 123.077 31.3322 121.826C34.7294 119.66 35.7279 115.008 33.1965 112.26C29.9786 108.769 26.3394 105.745 21.3538 105.184C18.6467 104.879 16.1243 103.482 13.2129 104.244C11.0007 104.825 8.6235 105.155 6.35569 105.013C4.44462 104.897 3.77775 105.793 3.74011 107.188C3.6684 109.843 3.92661 112.507 4.0288 115.169C4.05569 115.867 4.04316 116.571 3.99834 117.269C3.88719 119.013 3.41383 120.813 3.70246 122.485C4.06101 124.565 4.19368 126.494 3.53037 128.522C3.11804 129.78 2.74512 131.157 2.82938 132.451C3.04989 135.816 3.53568 139.165 3.90677 142.521ZM7.42415 110.842C7.74864 107.855 7.86702 107.869 10.8501 107.857C11.2051 107.855 11.56 107.857 11.9149 107.857C11.9275 107.726 11.94 107.597 11.9526 107.466C15.5237 107.815 19.181 107.803 22.632 108.638C24.9984 109.21 27.1981 110.791 29.2508 112.235C31.3196 113.69 31.5527 115.942 30.0342 118.025C27.3092 121.763 23.3706 123.029 18.9408 123.129C18.3043 123.143 17.625 122.889 17.0405 123.045C16.4005 123.213 15.8483 123.715 15.2585 124.072C15.7407 124.597 16.1244 125.381 16.7214 125.607C19.2222 126.553 21.811 127.272 24.3172 128.213C25.1275 128.516 26.083 129.088 26.4487 129.805C27.7216 132.294 28.8726 134.886 27.9762 137.808C27.8131 138.339 27.6123 138.995 27.2071 139.287C25.6851 140.386 24.163 141.558 22.4688 142.329C20.5613 143.195 18.4997 144.034 16.4488 144.197C14.1272 144.382 11.7141 143.943 9.4051 143.468C8.77943 143.34 7.97817 142.13 7.93694 141.379C7.53716 133.966 7.21628 126.548 7.01728 119.126C6.94378 116.369 7.12476 113.588 7.42415 110.842Z" fill="#251C1C"/>
<path d="M21.9546 157.358C21.9886 156.144 21.5334 155.416 20.2677 155.434C16.6374 155.486 12.9408 153.932 9.18322 156.144C9.18322 157.444 9.22439 158.849 9.17061 160.249C9.124 161.492 8.8622 162.731 8.88192 163.968C8.95721 169.032 9.21002 174.097 9.17954 179.159C9.1652 181.488 9.33188 182.228 11.6015 182.41C14.1992 182.616 16.8238 182.526 19.4341 182.456C21.3254 182.406 21.9942 181.287 21.7988 179.453C21.6284 177.835 21.5136 176.198 21.5405 174.573C21.6373 168.833 21.795 163.096 21.9546 157.358ZM17.8959 171.881C17.8403 173.704 17.9155 175.531 17.8528 177.352C17.8098 178.591 17.3957 179.595 15.8629 179.573C14.4144 179.554 13.8819 178.722 13.7941 177.404C13.5557 173.867 13.2958 170.332 13.0448 166.797C13.1022 166.791 13.1576 166.786 13.215 166.78C13.215 164.579 13.2473 162.378 13.2043 160.176C13.1702 158.486 14.0862 157.969 15.6047 157.928C17.159 157.889 18.3638 158.265 18.319 160.081C18.2186 164.016 18.016 167.948 17.8959 171.881Z" fill="#251C1C"/>
<path d="M15.2065 186.501C12.0871 186.594 10.7336 187.781 9.82648 191.221C8.42097 196.554 9.99324 198.607 15.375 198.458C19.5037 198.345 20.1544 197.628 20.1311 193.266C20.0504 192.348 19.9966 191.427 19.8837 190.515C19.5305 187.689 18.0372 186.418 15.2065 186.501ZM16.2266 192.768C16.2212 192.91 16.2211 193.051 16.2014 193.189C16.0544 194.224 16.0384 195.638 14.5683 195.274C13.8512 195.097 13.3939 193.865 12.8185 193.11C13.3079 191.325 13.0605 189.324 15.1329 189.485C17.0081 189.632 16.2642 191.511 16.2266 192.768Z" fill="#251C1C"/>
</svg>
